<svg width="230" height="75" viewBox="0 0 230 75" fill="none" xmlns="http://www.w3.org/2000/svg">
<rect x="3.5" y="3" width="223.5" height="69" rx="7.5" fill="white" stroke="black" stroke-width="6"/>
<path d="M24.6925 28.4675H29.1345C30.104 28.4675 30.9853 28.5556 31.7786 28.7319C32.5894 28.8905 33.2769 29.1725 33.8409 29.578C34.405 29.9658 34.8369 30.4858 35.1365 31.138C35.4362 31.7902 35.586 32.6098 35.586 33.5969C35.5684 34.6898 35.3833 35.58 35.0308 36.2675C34.6782 36.9373 34.2464 37.4837 33.7352 37.9068C33.224 38.3122 32.6335 38.6119 31.9637 38.8058V38.8586C32.0342 38.9292 32.1399 39.0614 32.2809 39.2553C32.4396 39.4315 32.5718 39.5902 32.6775 39.7312L37.7806 46.5H35.163L29.9277 39.3346H26.9135V46.5H24.6925V28.4675ZM33.3386 33.9671C33.3386 33.2268 33.2416 32.6275 33.0477 32.1692C32.8714 31.6932 32.5982 31.3319 32.2281 31.0851C31.8755 30.8383 31.4348 30.6708 30.906 30.5827C30.3772 30.4946 29.7779 30.4505 29.1081 30.4505H26.9135V37.3515H29.5311C30.2186 37.3515 30.8003 37.2634 31.2762 37.0871C31.7521 36.9108 32.1399 36.6729 32.4396 36.3732C32.7392 36.0559 32.9596 35.6946 33.1006 35.2892C33.2416 34.8837 33.3209 34.4431 33.3386 33.9671ZM39.6901 37.4837C39.6901 35.7739 39.9545 34.3285 40.4833 33.1475C41.0298 31.9664 41.7172 31.0146 42.5457 30.2919C43.3918 29.5692 44.326 29.0492 45.3484 28.7319C46.3884 28.3969 47.402 28.2295 48.3891 28.2295C49.3762 28.2295 50.381 28.3705 51.4033 28.6525C52.4433 28.9169 53.3776 29.4017 54.206 30.1068C55.0521 30.7942 55.7396 31.7373 56.2684 32.9359C56.8149 34.1346 57.0881 35.6593 57.0881 37.5102C57.0881 39.2376 56.8149 40.6919 56.2684 41.8729C55.7396 43.0539 55.0521 44.0146 54.206 44.7549C53.3776 45.4953 52.4433 46.0329 51.4033 46.3678C50.381 46.6851 49.3762 46.8437 48.3891 46.8437C47.402 46.8437 46.3884 46.6851 45.3484 46.3678C44.326 46.0505 43.3918 45.5305 42.5457 44.8078C41.7172 44.0851 41.0298 43.1244 40.4833 41.9258C39.9545 40.7271 39.6901 39.2464 39.6901 37.4837ZM54.5762 37.6159C54.5762 35.2363 54.021 33.4295 52.9105 32.1956C51.8176 30.9617 50.3457 30.3447 48.4949 30.3447C47.5606 30.3447 46.7057 30.4946 45.9301 30.7942C45.1721 31.0763 44.5111 31.5081 43.9471 32.0898C43.4006 32.6715 42.9688 33.4031 42.6515 34.2844C42.3518 35.1481 42.202 36.1705 42.202 37.3515C42.202 39.7312 42.7484 41.5556 43.8413 42.8247C44.9518 44.0939 46.4325 44.7285 48.2833 44.7285C49.1999 44.7285 50.046 44.5875 50.8216 44.3054C51.5972 44.0058 52.2582 43.5563 52.8047 42.9569C53.3688 42.3576 53.8006 41.6173 54.1003 40.7359C54.4176 39.8546 54.5762 38.8146 54.5762 37.6159ZM61.5504 28.4675H63.7714V44.3847H71.968V46.5H61.5504V28.4675ZM75.5381 28.4675H77.7591V44.3847H85.9557V46.5H75.5381V28.4675ZM99.7032 30.5298H94.0449V28.4675H107.583V30.5298H101.924V46.5H99.7032V30.5298ZM111.149 28.4675H113.37V36.2675H122.492V28.4675H124.713V46.5H122.492V38.2505H113.37V46.5H111.149V28.4675ZM130.172 28.4675H141.224V30.5034H132.393V36.2675H140.59V38.2505H132.393V44.4641H141.489V46.5H130.172V28.4675ZM154.946 44.4641H158.516C159.485 44.4641 160.393 44.3407 161.239 44.0939C162.103 43.8471 162.852 43.4505 163.487 42.9041C164.139 42.34 164.65 41.6085 165.02 40.7095C165.39 39.8105 165.575 38.7176 165.575 37.4308C165.575 36.2322 165.408 35.201 165.073 34.3373C164.738 33.4559 164.262 32.7332 163.645 32.1692C163.046 31.6051 162.306 31.1908 161.424 30.9264C160.561 30.6444 159.591 30.5034 158.516 30.5034H154.946V44.4641ZM152.725 28.4675H158.516C159.944 28.4675 161.23 28.6437 162.376 28.9963C163.539 29.3488 164.535 29.8953 165.364 30.6356C166.192 31.3759 166.827 32.3102 167.268 33.4383C167.726 34.5664 167.955 35.8973 167.955 37.4308C167.955 38.982 167.708 40.3305 167.215 41.4763C166.721 42.6044 166.051 43.5475 165.205 44.3054C164.359 45.0458 163.363 45.601 162.217 45.9712C161.072 46.3237 159.838 46.5 158.516 46.5H152.725V28.4675ZM172.419 28.4675H174.64V46.5H172.419V28.4675ZM192.349 31.0058C191.909 30.8647 191.442 30.7414 190.948 30.6356C190.455 30.5122 189.908 30.4153 189.309 30.3447C188.727 30.2566 188.11 30.2125 187.458 30.2125C186.4 30.2125 185.501 30.4417 184.761 30.9C184.021 31.3583 183.413 31.9488 182.937 32.6715C182.478 33.3766 182.143 34.1698 181.932 35.0512C181.72 35.9325 181.615 36.8051 181.615 37.6688C181.615 38.7617 181.764 39.7576 182.064 40.6566C182.381 41.538 182.804 42.2959 183.333 42.9305C183.88 43.5475 184.505 44.0234 185.211 44.3583C185.933 44.6932 186.691 44.8607 187.484 44.8607C188.225 44.8607 188.903 44.8254 189.52 44.7549C190.137 44.6668 190.666 44.5786 191.107 44.4905C191.618 44.3847 192.076 44.2614 192.482 44.1203L192.931 45.9976C192.455 46.1563 191.926 46.2973 191.345 46.4207C190.851 46.5264 190.278 46.6234 189.626 46.7115C188.974 46.7997 188.26 46.8437 187.484 46.8437C186.092 46.8437 184.867 46.6146 183.809 46.1563C182.769 45.698 181.897 45.0634 181.192 44.2525C180.504 43.4241 179.984 42.4546 179.632 41.3441C179.279 40.2159 179.103 38.982 179.103 37.6424C179.103 36.1088 179.314 34.7603 179.737 33.5969C180.16 32.4159 180.742 31.4288 181.482 30.6356C182.223 29.8424 183.104 29.243 184.126 28.8376C185.149 28.4322 186.268 28.2295 187.484 28.2295C188.225 28.2295 188.912 28.2736 189.547 28.3617C190.199 28.4322 190.789 28.5292 191.318 28.6525C191.865 28.7759 192.367 28.9081 192.825 29.0492L192.349 31.0058ZM196.935 28.4675H207.987V30.5034H199.156V36.2675H207.353V38.2505H199.156V44.4641H208.252V46.5H196.935V28.4675Z" fill="black"/>
</svg>
