<svg width="91" height="33" viewBox="0 0 91 33" fill="none" xmlns="http://www.w3.org/2000/svg">
<rect x="8" y="1.5" width="75" height="30" rx="3.75" fill="white" stroke="black" stroke-width="3"/>
<path d="M32.6005 11.77H35.3305C36.4105 11.77 37.1905 11.97 37.6705 12.37C38.1605 12.77 38.4055 13.38 38.4055 14.2C38.4055 14.58 38.3505 14.91 38.2405 15.19C38.1405 15.47 38.0255 15.705 37.8955 15.895C37.7455 16.115 37.5805 16.305 37.4005 16.465C37.6405 16.555 37.8655 16.67 38.0755 16.81C38.2855 16.95 38.4705 17.12 38.6305 17.32C38.7905 17.52 38.9155 17.76 39.0055 18.04C39.1055 18.31 39.1555 18.63 39.1555 19C39.1555 19.41 39.1005 19.8 38.9905 20.17C38.8805 20.53 38.6955 20.845 38.4355 21.115C38.1755 21.385 37.8305 21.6 37.4005 21.76C36.9705 21.92 36.4355 22 35.7955 22H32.6005V11.77ZM33.8605 16.21H36.3655C36.5055 16.1 36.6305 15.955 36.7405 15.775C36.8405 15.625 36.9305 15.44 37.0105 15.22C37.0905 14.99 37.1305 14.715 37.1305 14.395C37.1305 13.805 36.9755 13.41 36.6655 13.21C36.3655 13 35.9405 12.895 35.3905 12.895H33.8605V16.21ZM33.8605 20.875H35.9005C36.5605 20.875 37.0555 20.705 37.3855 20.365C37.7155 20.025 37.8805 19.57 37.8805 19C37.8805 18.75 37.8455 18.52 37.7755 18.31C37.7155 18.1 37.6055 17.92 37.4455 17.77C37.2855 17.61 37.0705 17.485 36.8005 17.395C36.5305 17.305 36.1955 17.26 35.7955 17.26H33.8605V20.875ZM42.8634 11.77V18.16C42.8634 18.73 42.9434 19.2 43.1034 19.57C43.2734 19.93 43.4934 20.215 43.7634 20.425C44.0334 20.635 44.3384 20.78 44.6784 20.86C45.0284 20.94 45.3834 20.98 45.7434 20.98C46.1034 20.98 46.4534 20.94 46.7934 20.86C47.1334 20.78 47.4384 20.635 47.7084 20.425C47.9784 20.215 48.1934 19.93 48.3534 19.57C48.5134 19.2 48.5934 18.73 48.5934 18.16V11.77H49.8534V18.475C49.8534 18.995 49.7534 19.48 49.5534 19.93C49.3634 20.38 49.0884 20.775 48.7284 21.115C48.3684 21.445 47.9334 21.705 47.4234 21.895C46.9134 22.085 46.3484 22.18 45.7284 22.18C44.3984 22.18 43.3784 21.86 42.6684 21.22C41.9584 20.57 41.6034 19.655 41.6034 18.475V11.77H42.8634ZM54.9957 18.28L51.7257 11.77H53.1207L55.6257 16.735L58.1457 11.77H59.5407L56.2707 18.28V22H54.9957V18.28Z" fill="black"/>
</svg>
