<svg width="91" height="33" viewBox="0 0 91 33" fill="none" xmlns="http://www.w3.org/2000/svg">
<rect x="2" y="1.5" width="87" height="30" rx="3.75" fill="white" stroke="black" stroke-width="3"/>
<path d="M9.89832 11.6885H16.1683V12.8435H11.1583V16.1135H15.8083V17.2385H11.1583V20.7635H16.3183V21.9185H9.89832V11.6885ZM18.8151 11.6885H20.0151L25.3851 19.8035H25.4151C25.3951 19.5135 25.3801 19.2035 25.3701 18.8735C25.3501 18.5935 25.3351 18.2735 25.3251 17.9135C25.3251 17.5435 25.3251 17.1685 25.3251 16.7885V11.6885H26.5251V21.9185H25.3251L19.9551 13.7735H19.9251C19.9351 14.0735 19.9501 14.3885 19.9701 14.7185C19.9801 15.0085 19.9901 15.3335 20.0001 15.6935C20.0101 16.0535 20.0151 16.4235 20.0151 16.8035V21.9185H18.8151V11.6885ZM30.8816 20.7635H32.9066C33.4566 20.7635 33.9716 20.6935 34.4516 20.5535C34.9416 20.4135 35.3666 20.1885 35.7266 19.8785C36.0966 19.5585 36.3866 19.1435 36.5966 18.6335C36.8066 18.1235 36.9116 17.5035 36.9116 16.7735C36.9116 16.0935 36.8166 15.5085 36.6266 15.0185C36.4366 14.5185 36.1666 14.1085 35.8166 13.7885C35.4766 13.4685 35.0566 13.2335 34.5566 13.0835C34.0666 12.9235 33.5166 12.8435 32.9066 12.8435H30.8816V20.7635ZM29.6216 11.6885H32.9066C33.7166 11.6885 34.4466 11.7885 35.0966 11.9885C35.7566 12.1885 36.3216 12.4985 36.7916 12.9185C37.2616 13.3385 37.6216 13.8685 37.8716 14.5085C38.1316 15.1485 38.2616 15.9035 38.2616 16.7735C38.2616 17.6535 38.1216 18.4185 37.8416 19.0685C37.5616 19.7085 37.1816 20.2435 36.7016 20.6735C36.2216 21.0935 35.6566 21.4085 35.0066 21.6185C34.3566 21.8185 33.6566 21.9185 32.9066 21.9185H29.6216V11.6885ZM46.5679 12.8585H43.3579V11.6885H51.0379V12.8585H47.8279V21.9185H46.5679V12.8585ZM54.2464 11.6885V18.0785C54.2464 18.6485 54.3264 19.1185 54.4864 19.4885C54.6564 19.8485 54.8764 20.1335 55.1464 20.3435C55.4164 20.5535 55.7214 20.6985 56.0614 20.7785C56.4114 20.8585 56.7664 20.8985 57.1264 20.8985C57.4864 20.8985 57.8364 20.8585 58.1764 20.7785C58.5164 20.6985 58.8214 20.5535 59.0914 20.3435C59.3614 20.1335 59.5764 19.8485 59.7364 19.4885C59.8964 19.1185 59.9764 18.6485 59.9764 18.0785V11.6885H61.2364V18.3935C61.2364 18.9135 61.1364 19.3985 60.9364 19.8485C60.7464 20.2985 60.4714 20.6935 60.1114 21.0335C59.7514 21.3635 59.3164 21.6235 58.8064 21.8135C58.2964 22.0035 57.7314 22.0985 57.1114 22.0985C55.7814 22.0985 54.7614 21.7785 54.0514 21.1385C53.3414 20.4885 52.9864 19.5735 52.9864 18.3935V11.6885H54.2464ZM64.2487 11.6885H66.7687C67.3187 11.6885 67.8187 11.7385 68.2687 11.8385C68.7287 11.9285 69.1187 12.0885 69.4387 12.3185C69.7587 12.5385 70.0037 12.8335 70.1737 13.2035C70.3437 13.5735 70.4287 14.0385 70.4287 14.5985C70.4187 15.2185 70.3137 15.7235 70.1137 16.1135C69.9137 16.4935 69.6687 16.8035 69.3787 17.0435C69.0887 17.2735 68.7537 17.4435 68.3737 17.5535V17.5835C68.4137 17.6235 68.4737 17.6985 68.5537 17.8085C68.6437 17.9085 68.7187 17.9985 68.7787 18.0785L71.6737 21.9185H70.1887L67.2187 17.8535H65.5087V21.9185H64.2487V11.6885ZM69.1537 14.8085C69.1537 14.3885 69.0987 14.0485 68.9887 13.7885C68.8887 13.5185 68.7337 13.3135 68.5237 13.1735C68.3237 13.0335 68.0737 12.9385 67.7737 12.8885C67.4737 12.8385 67.1337 12.8135 66.7537 12.8135H65.5087V16.7285H66.9937C67.3837 16.7285 67.7137 16.6785 67.9837 16.5785C68.2537 16.4785 68.4737 16.3435 68.6437 16.1735C68.8137 15.9935 68.9387 15.7885 69.0187 15.5585C69.0987 15.3285 69.1437 15.0785 69.1537 14.8085ZM73.3852 11.6885H74.5852L79.9552 19.8035H79.9852C79.9652 19.5135 79.9502 19.2035 79.9402 18.8735C79.9202 18.5935 79.9052 18.2735 79.8952 17.9135C79.8952 17.5435 79.8952 17.1685 79.8952 16.7885V11.6885H81.0952V21.9185H79.8952L74.5252 13.7735H74.4952C74.5052 14.0735 74.5202 14.3885 74.5402 14.7185C74.5502 15.0085 74.5602 15.3335 74.5702 15.6935C74.5802 16.0535 74.5852 16.4235 74.5852 16.8035V21.9185H73.3852V11.6885Z" fill="black"/>
</svg>
