<svg width="200" height="316" viewBox="0 0 200 316" fill="none" xmlns="http://www.w3.org/2000/svg">
<rect x="2.5" y="36.5" width="195" height="277" rx="2.5" fill="#32FF70" stroke="black" stroke-width="5"/>
<mask id="path-2-outside-1_23_1127" maskUnits="userSpaceOnUse" x="12" y="184" width="73" height="17" fill="black">
<rect fill="white" x="12" y="184" width="73" height="17"/>
<path d="M14.2603 185.36H16.4003L19.4803 193.48C19.6536 193.947 19.8136 194.38 19.9603 194.78C20.107 195.167 20.2336 195.513 20.3403 195.82C20.4736 196.167 20.587 196.487 20.6803 196.78H20.7203C20.8003 196.487 20.9003 196.167 21.0203 195.82C21.127 195.513 21.247 195.167 21.3803 194.78C21.5136 194.38 21.6736 193.947 21.8603 193.48L25.0003 185.36H27.1403L27.8403 199H26.1403L25.8003 191.5C25.7736 190.847 25.7536 190.293 25.7403 189.84C25.727 189.387 25.7203 189.013 25.7203 188.72V187.88H25.6803C25.6003 188.08 25.5003 188.353 25.3803 188.7C25.2736 188.993 25.1336 189.373 24.9603 189.84C24.8003 190.293 24.6003 190.847 24.3603 191.5L21.5403 199H19.8403L17.0003 191.5C16.747 190.86 16.5403 190.313 16.3803 189.86C16.2203 189.393 16.087 189.013 15.9803 188.72C15.8603 188.373 15.767 188.093 15.7003 187.88H15.6603C15.6736 188.093 15.687 188.373 15.7003 188.72C15.7136 189.28 15.6936 190.207 15.6403 191.5L15.2403 199H13.5403L14.2603 185.36ZM30.9083 192.18C30.9083 190.887 31.1083 189.793 31.5083 188.9C31.9216 188.007 32.4416 187.287 33.0683 186.74C33.7083 186.193 34.4149 185.8 35.1883 185.56C35.9749 185.307 36.7416 185.18 37.4883 185.18C38.2349 185.18 38.9949 185.287 39.7683 185.5C40.5549 185.7 41.2616 186.067 41.8883 186.6C42.5283 187.12 43.0483 187.833 43.4483 188.74C43.8616 189.647 44.0683 190.8 44.0683 192.2C44.0683 193.507 43.8616 194.607 43.4483 195.5C43.0483 196.393 42.5283 197.12 41.8883 197.68C41.2616 198.24 40.5549 198.647 39.7683 198.9C38.9949 199.14 38.2349 199.26 37.4883 199.26C36.7416 199.26 35.9749 199.14 35.1883 198.9C34.4149 198.66 33.7083 198.267 33.0683 197.72C32.4416 197.173 31.9216 196.447 31.5083 195.54C31.1083 194.633 30.9083 193.513 30.9083 192.18ZM42.1683 192.28C42.1683 190.48 41.7483 189.113 40.9083 188.18C40.0816 187.247 38.9683 186.78 37.5683 186.78C36.8616 186.78 36.2149 186.893 35.6283 187.12C35.0549 187.333 34.5549 187.66 34.1283 188.1C33.7149 188.54 33.3883 189.093 33.1483 189.76C32.9216 190.413 32.8083 191.187 32.8083 192.08C32.8083 193.88 33.2216 195.26 34.0483 196.22C34.8883 197.18 36.0083 197.66 37.4083 197.66C38.1016 197.66 38.7416 197.553 39.3283 197.34C39.9149 197.113 40.4149 196.773 40.8283 196.32C41.2549 195.867 41.5816 195.307 41.8083 194.64C42.0483 193.973 42.1683 193.187 42.1683 192.28ZM47.4436 185.36H49.0436L56.2036 196.18H56.2436C56.2169 195.793 56.1969 195.38 56.1836 194.94C56.1569 194.567 56.1369 194.14 56.1236 193.66C56.1236 193.167 56.1236 192.667 56.1236 192.16V185.36H57.7236V199H56.1236L48.9636 188.14H48.9236C48.9369 188.54 48.9569 188.96 48.9836 189.4C48.9969 189.787 49.0103 190.22 49.0236 190.7C49.0369 191.18 49.0436 191.673 49.0436 192.18V199H47.4436V185.36ZM61.8522 185.36H70.2122V186.9H63.5322V191.26H69.7322V192.76H63.5322V197.46H70.4122V199H61.8522V185.36ZM76.5813 194.04L72.2213 185.36H74.0813L77.4213 191.98L80.7813 185.36H82.6413L78.2813 194.04V199H76.5813V194.04Z"/>
</mask>
<path d="M14.2603 185.36H16.4003L19.4803 193.48C19.6536 193.947 19.8136 194.38 19.9603 194.78C20.107 195.167 20.2336 195.513 20.3403 195.82C20.4736 196.167 20.587 196.487 20.6803 196.78H20.7203C20.8003 196.487 20.9003 196.167 21.0203 195.82C21.127 195.513 21.247 195.167 21.3803 194.78C21.5136 194.38 21.6736 193.947 21.8603 193.48L25.0003 185.36H27.1403L27.8403 199H26.1403L25.8003 191.5C25.7736 190.847 25.7536 190.293 25.7403 189.84C25.727 189.387 25.7203 189.013 25.7203 188.72V187.88H25.6803C25.6003 188.08 25.5003 188.353 25.3803 188.7C25.2736 188.993 25.1336 189.373 24.9603 189.84C24.8003 190.293 24.6003 190.847 24.3603 191.5L21.5403 199H19.8403L17.0003 191.5C16.747 190.86 16.5403 190.313 16.3803 189.86C16.2203 189.393 16.087 189.013 15.9803 188.72C15.8603 188.373 15.767 188.093 15.7003 187.88H15.6603C15.6736 188.093 15.687 188.373 15.7003 188.72C15.7136 189.28 15.6936 190.207 15.6403 191.5L15.2403 199H13.5403L14.2603 185.36ZM30.9083 192.18C30.9083 190.887 31.1083 189.793 31.5083 188.9C31.9216 188.007 32.4416 187.287 33.0683 186.74C33.7083 186.193 34.4149 185.8 35.1883 185.56C35.9749 185.307 36.7416 185.18 37.4883 185.18C38.2349 185.18 38.9949 185.287 39.7683 185.5C40.5549 185.7 41.2616 186.067 41.8883 186.6C42.5283 187.12 43.0483 187.833 43.4483 188.74C43.8616 189.647 44.0683 190.8 44.0683 192.2C44.0683 193.507 43.8616 194.607 43.4483 195.5C43.0483 196.393 42.5283 197.12 41.8883 197.68C41.2616 198.24 40.5549 198.647 39.7683 198.9C38.9949 199.14 38.2349 199.26 37.4883 199.26C36.7416 199.26 35.9749 199.14 35.1883 198.9C34.4149 198.66 33.7083 198.267 33.0683 197.72C32.4416 197.173 31.9216 196.447 31.5083 195.54C31.1083 194.633 30.9083 193.513 30.9083 192.18ZM42.1683 192.28C42.1683 190.48 41.7483 189.113 40.9083 188.18C40.0816 187.247 38.9683 186.78 37.5683 186.78C36.8616 186.78 36.2149 186.893 35.6283 187.12C35.0549 187.333 34.5549 187.66 34.1283 188.1C33.7149 188.54 33.3883 189.093 33.1483 189.76C32.9216 190.413 32.8083 191.187 32.8083 192.08C32.8083 193.88 33.2216 195.26 34.0483 196.22C34.8883 197.18 36.0083 197.66 37.4083 197.66C38.1016 197.66 38.7416 197.553 39.3283 197.34C39.9149 197.113 40.4149 196.773 40.8283 196.32C41.2549 195.867 41.5816 195.307 41.8083 194.64C42.0483 193.973 42.1683 193.187 42.1683 192.28ZM47.4436 185.36H49.0436L56.2036 196.18H56.2436C56.2169 195.793 56.1969 195.38 56.1836 194.94C56.1569 194.567 56.1369 194.14 56.1236 193.66C56.1236 193.167 56.1236 192.667 56.1236 192.16V185.36H57.7236V199H56.1236L48.9636 188.14H48.9236C48.9369 188.54 48.9569 188.96 48.9836 189.4C48.9969 189.787 49.0103 190.22 49.0236 190.7C49.0369 191.18 49.0436 191.673 49.0436 192.18V199H47.4436V185.36ZM61.8522 185.36H70.2122V186.9H63.5322V191.26H69.7322V192.76H63.5322V197.46H70.4122V199H61.8522V185.36ZM76.5813 194.04L72.2213 185.36H74.0813L77.4213 191.98L80.7813 185.36H82.6413L78.2813 194.04V199H76.5813V194.04Z" fill="black"/>
<path d="M14.2603 185.36V184.36H13.3117L13.2617 185.307L14.2603 185.36ZM16.4003 185.36L17.3353 185.005L17.0905 184.36H16.4003V185.36ZM19.4803 193.48L20.4178 193.132L20.4153 193.125L19.4803 193.48ZM19.9603 194.78L19.0214 195.124L19.0253 195.135L19.9603 194.78ZM20.3403 195.82L19.3958 196.149L19.4011 196.164L19.407 196.179L20.3403 195.82ZM20.6803 196.78L19.7274 197.083L19.9491 197.78H20.6803V196.78ZM20.7203 196.78V197.78H21.4841L21.6851 197.043L20.7203 196.78ZM21.0203 195.82L20.0758 195.491L20.0753 195.493L21.0203 195.82ZM21.3803 194.78L22.3257 195.106L22.329 195.096L21.3803 194.78ZM21.8603 193.48L22.7889 193.851L22.793 193.841L21.8603 193.48ZM25.0003 185.36V184.36H24.3148L24.0676 184.999L25.0003 185.36ZM27.1403 185.36L28.139 185.309L28.0903 184.36H27.1403V185.36ZM27.8403 199V200H28.8929L28.839 198.949L27.8403 199ZM26.1403 199L25.1413 199.045L25.1846 200H26.1403V199ZM25.8003 191.5L24.8011 191.541L24.8013 191.545L25.8003 191.5ZM25.7403 189.84L26.7399 189.811V189.811L25.7403 189.84ZM25.7203 187.88H26.7203V186.88H25.7203V187.88ZM25.6803 187.88V186.88H25.0033L24.7518 187.509L25.6803 187.88ZM25.3803 188.7L26.3201 189.042L26.3228 189.034L26.3253 189.027L25.3803 188.7ZM24.9603 189.84L24.0229 189.492L24.02 189.499L24.0173 189.507L24.9603 189.84ZM24.3603 191.5L25.2964 191.852L25.299 191.845L24.3603 191.5ZM21.5403 199V200H22.2327L22.4763 199.352L21.5403 199ZM19.8403 199L18.9051 199.354L19.1497 200H19.8403V199ZM17.0003 191.5L17.9355 191.146L17.9329 191.139L17.9301 191.132L17.0003 191.5ZM16.3803 189.86L15.4343 190.184L15.4373 190.193L16.3803 189.86ZM15.9803 188.72L15.0353 189.047L15.0379 189.054L15.0405 189.062L15.9803 188.72ZM15.7003 187.88L16.6548 187.582L16.4355 186.88H15.7003V187.88ZM15.6603 187.88V186.88H14.5959L14.6623 187.942L15.6603 187.88ZM15.7003 188.72L16.7 188.696L16.6999 188.689L16.6996 188.682L15.7003 188.72ZM15.6403 191.5L16.639 191.553L16.6395 191.541L15.6403 191.5ZM15.2403 199V200H16.1884L16.2389 199.053L15.2403 199ZM13.5403 199L12.5417 198.947L12.4861 200H13.5403V199ZM14.2603 185.36V186.36H16.4003V185.36V184.36H14.2603V185.36ZM16.4003 185.36L15.4653 185.715L18.5453 193.835L19.4803 193.48L20.4153 193.125L17.3353 185.005L16.4003 185.36ZM19.4803 193.48L18.5429 193.828C18.7158 194.294 18.8753 194.726 19.0214 195.124L19.9603 194.78L20.8992 194.436C20.752 194.034 20.5915 193.6 20.4177 193.132L19.4803 193.48ZM19.9603 194.78L19.0253 195.135C19.1695 195.515 19.2929 195.853 19.3958 196.149L20.3403 195.82L21.2848 195.491C21.1744 195.174 21.0444 194.818 20.8953 194.425L19.9603 194.78ZM20.3403 195.82L19.407 196.179C19.5346 196.511 19.6411 196.812 19.7274 197.083L20.6803 196.78L21.6332 196.477C21.5329 196.161 21.4127 195.822 21.2737 195.461L20.3403 195.82ZM20.6803 196.78V197.78H20.7203V196.78V195.78H20.6803V196.78ZM20.7203 196.78L21.6851 197.043C21.7582 196.775 21.8512 196.477 21.9653 196.147L21.0203 195.82L20.0753 195.493C19.9495 195.857 19.8425 196.198 19.7555 196.517L20.7203 196.78ZM21.0203 195.82L21.9648 196.149C22.0718 195.841 22.1921 195.493 22.3257 195.106L21.3803 194.78L20.4349 194.454C20.3018 194.84 20.1821 195.186 20.0758 195.491L21.0203 195.82ZM21.3803 194.78L22.329 195.096C22.4551 194.718 22.6081 194.303 22.7888 193.851L21.8603 193.48L20.9318 193.109C20.7392 193.59 20.5722 194.042 20.4316 194.464L21.3803 194.78ZM21.8603 193.48L22.793 193.841L25.933 185.721L25.0003 185.36L24.0676 184.999L20.9276 193.119L21.8603 193.48ZM25.0003 185.36V186.36H27.1403V185.36V184.36H25.0003V185.36ZM27.1403 185.36L26.1416 185.411L26.8416 199.051L27.8403 199L28.839 198.949L28.139 185.309L27.1403 185.36ZM27.8403 199V198H26.1403V199V200H27.8403V199ZM26.1403 199L27.1393 198.955L26.7993 191.455L25.8003 191.5L24.8013 191.545L25.1413 199.045L26.1403 199ZM25.8003 191.5L26.7995 191.459C26.7729 190.808 26.7531 190.259 26.7399 189.811L25.7403 189.84L24.7407 189.869C24.7542 190.328 24.7744 190.885 24.8011 191.541L25.8003 191.5ZM25.7403 189.84L26.7399 189.811C26.7267 189.362 26.7203 189 26.7203 188.72H25.7203H24.7203C24.7203 189.027 24.7273 189.411 24.7407 189.869L25.7403 189.84ZM25.7203 188.72H26.7203V187.88H25.7203H24.7203V188.72H25.7203ZM25.7203 187.88V186.88H25.6803V187.88V188.88H25.7203V187.88ZM25.6803 187.88L24.7518 187.509C24.6633 187.73 24.5574 188.02 24.4353 188.373L25.3803 188.7L26.3253 189.027C26.4432 188.687 26.5373 188.43 26.6088 188.251L25.6803 187.88ZM25.3803 188.7L24.4405 188.358C24.335 188.649 24.1958 189.026 24.0229 189.492L24.9603 189.84L25.8977 190.188C26.0715 189.72 26.2123 189.338 26.3201 189.042L25.3803 188.7ZM24.9603 189.84L24.0173 189.507C23.8592 189.955 23.6608 190.504 23.4216 191.155L24.3603 191.5L25.299 191.845C25.5399 191.189 25.7414 190.631 25.9033 190.173L24.9603 189.84ZM24.3603 191.5L23.4243 191.148L20.6043 198.648L21.5403 199L22.4763 199.352L25.2963 191.852L24.3603 191.5ZM21.5403 199V198H19.8403V199V200H21.5403V199ZM19.8403 199L20.7755 198.646L17.9355 191.146L17.0003 191.5L16.0651 191.854L18.9051 199.354L19.8403 199ZM17.0003 191.5L17.9301 191.132C17.6796 190.499 17.4778 189.965 17.3233 189.527L16.3803 189.86L15.4373 190.193C15.6028 190.662 15.8143 191.221 16.0705 191.868L17.0003 191.5ZM16.3803 189.86L17.3263 189.536C17.1653 189.066 17.0297 188.68 16.9201 188.378L15.9803 188.72L15.0405 189.062C15.1442 189.347 15.2754 189.721 15.4344 190.184L16.3803 189.86ZM15.9803 188.72L16.9253 188.393C16.8068 188.051 16.7172 187.781 16.6548 187.582L15.7003 187.88L14.7458 188.178C14.8168 188.405 14.9138 188.696 15.0353 189.047L15.9803 188.72ZM15.7003 187.88V186.88H15.6603V187.88V188.88H15.7003V187.88ZM15.6603 187.88L14.6623 187.942C14.6749 188.144 14.6879 188.416 14.7011 188.758L15.7003 188.72L16.6996 188.682C16.6861 188.331 16.6724 188.042 16.6584 187.818L15.6603 187.88ZM15.7003 188.72L14.7006 188.744C14.7131 189.268 14.6944 190.167 14.6412 191.459L15.6403 191.5L16.6395 191.541C16.6928 190.247 16.7142 189.292 16.7 188.696L15.7003 188.72ZM15.6403 191.5L14.6417 191.447L14.2417 198.947L15.2403 199L16.2389 199.053L16.6389 191.553L15.6403 191.5ZM15.2403 199V198H13.5403V199V200H15.2403V199ZM13.5403 199L14.5389 199.053L15.2589 185.413L14.2603 185.36L13.2617 185.307L12.5417 198.947L13.5403 199ZM31.5083 188.9L30.6006 188.48L30.5956 188.491L31.5083 188.9ZM33.0683 186.74L32.4188 185.98L32.4109 185.986L33.0683 186.74ZM35.1883 185.56L35.4847 186.515L35.4948 186.512L35.1883 185.56ZM39.7683 185.5L39.5024 186.464L39.5121 186.467L39.5219 186.469L39.7683 185.5ZM41.8883 186.6L41.2402 187.362L41.2488 187.369L41.2577 187.376L41.8883 186.6ZM43.4483 188.74L42.5333 189.144L42.5384 189.155L43.4483 188.74ZM43.4483 195.5L42.5406 195.08L42.5356 195.091L43.4483 195.5ZM41.8883 197.68L41.2297 196.927L41.222 196.934L41.8883 197.68ZM39.7683 198.9L40.0647 199.855L40.0748 199.852L39.7683 198.9ZM35.1883 198.9L34.8919 199.855L34.8965 199.856L35.1883 198.9ZM33.0683 197.72L32.4109 198.474L32.4188 198.48L33.0683 197.72ZM31.5083 195.54L30.5933 195.944L30.5984 195.955L31.5083 195.54ZM40.9083 188.18L40.1597 188.843L40.165 188.849L40.9083 188.18ZM35.6283 187.12L35.977 188.057L35.9887 188.053L35.6283 187.12ZM34.1283 188.1L33.4104 187.404L33.4049 187.41L33.3994 187.415L34.1283 188.1ZM33.1483 189.76L32.2073 189.421L32.2035 189.432L33.1483 189.76ZM34.0483 196.22L33.2905 196.873L33.2957 196.879L34.0483 196.22ZM39.3283 197.34L39.67 198.28L39.6794 198.276L39.6887 198.273L39.3283 197.34ZM40.8283 196.32L40.1001 195.635L40.0947 195.64L40.0893 195.646L40.8283 196.32ZM41.8083 194.64L40.8674 194.301L40.8644 194.31L40.8615 194.318L41.8083 194.64ZM30.9083 192.18H31.9083C31.9083 190.984 32.0939 190.039 32.421 189.309L31.5083 188.9L30.5956 188.491C30.1227 189.547 29.9083 190.789 29.9083 192.18H30.9083ZM31.5083 188.9L32.4158 189.32C32.7808 188.531 33.2225 187.932 33.7257 187.494L33.0683 186.74L32.4109 185.986C31.6607 186.641 31.0624 187.482 30.6007 188.48L31.5083 188.9ZM33.0683 186.74L33.7178 187.5C34.2587 187.038 34.8462 186.713 35.4847 186.515L35.1883 185.56L34.8919 184.605C33.9837 184.887 33.1579 185.348 32.4188 185.98L33.0683 186.74ZM35.1883 185.56L35.4948 186.512C36.1929 186.287 36.8562 186.18 37.4883 186.18V185.18V184.18C36.6271 184.18 35.757 184.326 34.8818 184.608L35.1883 185.56ZM37.4883 185.18V186.18C38.1387 186.18 38.8092 186.273 39.5024 186.464L39.7683 185.5L40.0342 184.536C39.1807 184.301 38.3312 184.18 37.4883 184.18V185.18ZM39.7683 185.5L39.5219 186.469C40.1584 186.631 40.7281 186.926 41.2402 187.362L41.8883 186.6L42.5364 185.838C41.7951 185.208 40.9515 184.769 40.0147 184.531L39.7683 185.5ZM41.8883 186.6L41.2577 187.376C41.7523 187.778 42.1845 188.353 42.5334 189.144L43.4483 188.74L44.3632 188.336C43.912 187.314 43.3042 186.462 42.5189 185.824L41.8883 186.6ZM43.4483 188.74L42.5384 189.155C42.8734 189.89 43.0683 190.889 43.0683 192.2H44.0683H45.0683C45.0683 190.711 44.8498 189.404 44.3582 188.325L43.4483 188.74ZM44.0683 192.2H43.0683C43.0683 193.407 42.8767 194.354 42.5407 195.08L43.4483 195.5L44.3558 195.92C44.8466 194.859 45.0683 193.606 45.0683 192.2H44.0683ZM43.4483 195.5L42.5356 195.091C42.1857 195.873 41.746 196.476 41.2298 196.927L41.8883 197.68L42.5468 198.433C43.3105 197.764 43.9109 196.914 44.361 195.909L43.4483 195.5ZM41.8883 197.68L41.222 196.934C40.6977 197.403 40.1131 197.738 39.4618 197.948L39.7683 198.9L40.0748 199.852C40.9968 199.555 41.8256 199.077 42.5546 198.426L41.8883 197.68ZM39.7683 198.9L39.4719 197.945C38.7865 198.158 38.1263 198.26 37.4883 198.26V199.26V200.26C38.3436 200.26 39.2034 200.122 40.0647 199.855L39.7683 198.9ZM37.4883 199.26V198.26C36.85 198.26 36.1817 198.158 35.4801 197.944L35.1883 198.9L34.8965 199.856C35.7682 200.122 36.6333 200.26 37.4883 200.26V199.26ZM35.1883 198.9L35.4847 197.945C34.8462 197.747 34.2587 197.422 33.7178 196.96L33.0683 197.72L32.4188 198.48C33.1579 199.112 33.9837 199.573 34.8919 199.855L35.1883 198.9ZM33.0683 197.72L33.7256 196.966C33.2255 196.53 32.784 195.928 32.4182 195.125L31.5083 195.54L30.5984 195.955C31.0593 196.966 31.6578 197.817 32.4109 198.474L33.0683 197.72ZM31.5083 195.54L32.4232 195.136C32.0951 194.393 31.9083 193.42 31.9083 192.18H30.9083H29.9083C29.9083 193.607 30.1214 194.874 30.5934 195.944L31.5083 195.54ZM42.1683 192.28H43.1683C43.1683 190.339 42.7162 188.694 41.6516 187.511L40.9083 188.18L40.165 188.849C40.7804 189.533 41.1683 190.621 41.1683 192.28H42.1683ZM40.9083 188.18L41.6569 187.517C40.6159 186.342 39.2154 185.78 37.5683 185.78V186.78V187.78C38.7212 187.78 39.5473 188.152 40.1597 188.843L40.9083 188.18ZM37.5683 186.78V185.78C36.7535 185.78 35.9828 185.911 35.2679 186.187L35.6283 187.12L35.9887 188.053C36.4471 187.876 36.9697 187.78 37.5683 187.78V186.78ZM35.6283 187.12L35.2795 186.183C34.5665 186.448 33.9404 186.857 33.4104 187.404L34.1283 188.1L34.8462 188.796C35.1695 188.463 35.5434 188.219 35.977 188.057L35.6283 187.12ZM34.1283 188.1L33.3994 187.415C32.8777 187.971 32.4857 188.648 32.2074 189.421L33.1483 189.76L34.0892 190.099C34.2908 189.539 34.5522 189.109 34.8571 188.785L34.1283 188.1ZM33.1483 189.76L32.2035 189.432C31.9314 190.217 31.8083 191.106 31.8083 192.08H32.8083H33.8083C33.8083 191.267 33.9118 190.61 34.093 190.088L33.1483 189.76ZM32.8083 192.08H31.8083C31.8083 194.02 32.253 195.668 33.2905 196.873L34.0483 196.22L34.806 195.567C34.1902 194.852 33.8083 193.74 33.8083 192.08H32.8083ZM34.0483 196.22L33.2957 196.879C34.3455 198.078 35.7515 198.66 37.4083 198.66V197.66V196.66C36.265 196.66 35.4311 196.282 34.8009 195.561L34.0483 196.22ZM37.4083 197.66V198.66C38.2053 198.66 38.9624 198.537 39.67 198.28L39.3283 197.34L38.9865 196.4C38.5209 196.57 37.9979 196.66 37.4083 196.66V197.66ZM39.3283 197.34L39.6887 198.273C40.4161 197.992 41.0468 197.565 41.5672 196.994L40.8283 196.32L40.0893 195.646C39.7831 195.982 39.4138 196.235 38.9679 196.407L39.3283 197.34ZM40.8283 196.32L41.5565 197.005C42.0933 196.435 42.4884 195.746 42.7551 194.962L41.8083 194.64L40.8615 194.318C40.6748 194.867 40.4166 195.298 40.1001 195.635L40.8283 196.32ZM41.8083 194.64L42.7492 194.979C43.0375 194.178 43.1683 193.271 43.1683 192.28H42.1683H41.1683C41.1683 193.102 41.0591 193.769 40.8674 194.301L41.8083 194.64ZM47.4436 185.36V184.36H46.4436V185.36H47.4436ZM49.0436 185.36L49.8775 184.808L49.581 184.36H49.0436V185.36ZM56.2036 196.18L55.3697 196.732L55.6662 197.18H56.2036V196.18ZM56.2436 196.18V197.18H57.3149L57.2412 196.111L56.2436 196.18ZM56.1836 194.94L57.1831 194.91L57.1825 194.889L57.1811 194.869L56.1836 194.94ZM56.1236 193.66H55.1236V193.674L55.124 193.688L56.1236 193.66ZM56.1236 185.36V184.36H55.1236V185.36H56.1236ZM57.7236 185.36H58.7236V184.36H57.7236V185.36ZM57.7236 199V200H58.7236V199H57.7236ZM56.1236 199L55.2887 199.55L55.5851 200H56.1236V199ZM48.9636 188.14L49.7985 187.59L49.5021 187.14H48.9636V188.14ZM48.9236 188.14V187.14H47.8897L47.9241 188.173L48.9236 188.14ZM48.9836 189.4L49.983 189.366L49.9826 189.353L49.9818 189.34L48.9836 189.4ZM49.0436 199V200H50.0436V199H49.0436ZM47.4436 199H46.4436V200H47.4436V199ZM47.4436 185.36V186.36H49.0436V185.36V184.36H47.4436V185.36ZM49.0436 185.36L48.2097 185.912L55.3697 196.732L56.2036 196.18L57.0375 195.628L49.8775 184.808L49.0436 185.36ZM56.2036 196.18V197.18H56.2436V196.18V195.18H56.2036V196.18ZM56.2436 196.18L57.2412 196.111C57.2155 195.739 57.1961 195.339 57.1831 194.91L56.1836 194.94L55.1841 194.97C55.1977 195.421 55.2183 195.848 55.246 196.249L56.2436 196.18ZM56.1836 194.94L57.1811 194.869C57.1557 194.513 57.1362 194.102 57.1232 193.632L56.1236 193.66L55.124 193.688C55.1376 194.178 55.1582 194.62 55.1861 195.011L56.1836 194.94ZM56.1236 193.66H57.1236C57.1236 193.659 57.1236 193.658 57.1236 193.657C57.1236 193.656 57.1236 193.655 57.1236 193.654C57.1236 193.653 57.1236 193.652 57.1236 193.651C57.1236 193.65 57.1236 193.649 57.1236 193.648C57.1236 193.647 57.1236 193.647 57.1236 193.646C57.1236 193.645 57.1236 193.644 57.1236 193.643C57.1236 193.642 57.1236 193.641 57.1236 193.64C57.1236 193.639 57.1236 193.638 57.1236 193.637C57.1236 193.636 57.1236 193.635 57.1236 193.634C57.1236 193.633 57.1236 193.632 57.1236 193.631C57.1236 193.63 57.1236 193.629 57.1236 193.628C57.1236 193.627 57.1236 193.626 57.1236 193.625C57.1236 193.624 57.1236 193.623 57.1236 193.622C57.1236 193.621 57.1236 193.62 57.1236 193.62C57.1236 193.619 57.1236 193.618 57.1236 193.617C57.1236 193.616 57.1236 193.615 57.1236 193.614C57.1236 193.613 57.1236 193.612 57.1236 193.611C57.1236 193.61 57.1236 193.609 57.1236 193.608C57.1236 193.607 57.1236 193.606 57.1236 193.605C57.1236 193.604 57.1236 193.603 57.1236 193.602C57.1236 193.601 57.1236 193.6 57.1236 193.599C57.1236 193.598 57.1236 193.597 57.1236 193.596C57.1236 193.595 57.1236 193.594 57.1236 193.593C57.1236 193.593 57.1236 193.592 57.1236 193.591C57.1236 193.59 57.1236 193.589 57.1236 193.588C57.1236 193.587 57.1236 193.586 57.1236 193.585C57.1236 193.584 57.1236 193.583 57.1236 193.582C57.1236 193.581 57.1236 193.58 57.1236 193.579C57.1236 193.578 57.1236 193.577 57.1236 193.576C57.1236 193.575 57.1236 193.574 57.1236 193.573C57.1236 193.572 57.1236 193.571 57.1236 193.57C57.1236 193.569 57.1236 193.568 57.1236 193.567C57.1236 193.566 57.1236 193.565 57.1236 193.565C57.1236 193.564 57.1236 193.563 57.1236 193.562C57.1236 193.561 57.1236 193.56 57.1236 193.559C57.1236 193.558 57.1236 193.557 57.1236 193.556C57.1236 193.555 57.1236 193.554 57.1236 193.553C57.1236 193.552 57.1236 193.551 57.1236 193.55C57.1236 193.549 57.1236 193.548 57.1236 193.547C57.1236 193.546 57.1236 193.545 57.1236 193.544C57.1236 193.543 57.1236 193.542 57.1236 193.541C57.1236 193.54 57.1236 193.539 57.1236 193.538C57.1236 193.537 57.1236 193.537 57.1236 193.536C57.1236 193.535 57.1236 193.534 57.1236 193.533C57.1236 193.532 57.1236 193.531 57.1236 193.53C57.1236 193.529 57.1236 193.528 57.1236 193.527C57.1236 193.526 57.1236 193.525 57.1236 193.524C57.1236 193.523 57.1236 193.522 57.1236 193.521C57.1236 193.52 57.1236 193.519 57.1236 193.518C57.1236 193.517 57.1236 193.516 57.1236 193.515C57.1236 193.514 57.1236 193.513 57.1236 193.512C57.1236 193.511 57.1236 193.51 57.1236 193.509C57.1236 193.509 57.1236 193.508 57.1236 193.507C57.1236 193.506 57.1236 193.505 57.1236 193.504C57.1236 193.503 57.1236 193.502 57.1236 193.501C57.1236 193.5 57.1236 193.499 57.1236 193.498C57.1236 193.497 57.1236 193.496 57.1236 193.495C57.1236 193.494 57.1236 193.493 57.1236 193.492C57.1236 193.491 57.1236 193.49 57.1236 193.489C57.1236 193.488 57.1236 193.487 57.1236 193.486C57.1236 193.485 57.1236 193.484 57.1236 193.483C57.1236 193.482 57.1236 193.481 57.1236 193.48C57.1236 193.48 57.1236 193.479 57.1236 193.478C57.1236 193.477 57.1236 193.476 57.1236 193.475C57.1236 193.474 57.1236 193.473 57.1236 193.472C57.1236 193.471 57.1236 193.47 57.1236 193.469C57.1236 193.468 57.1236 193.467 57.1236 193.466C57.1236 193.465 57.1236 193.464 57.1236 193.463C57.1236 193.462 57.1236 193.461 57.1236 193.46C57.1236 193.459 57.1236 193.458 57.1236 193.457C57.1236 193.456 57.1236 193.455 57.1236 193.454C57.1236 193.453 57.1236 193.452 57.1236 193.451C57.1236 193.451 57.1236 193.45 57.1236 193.449C57.1236 193.448 57.1236 193.447 57.1236 193.446C57.1236 193.445 57.1236 193.444 57.1236 193.443C57.1236 193.442 57.1236 193.441 57.1236 193.44C57.1236 193.439 57.1236 193.438 57.1236 193.437C57.1236 193.436 57.1236 193.435 57.1236 193.434C57.1236 193.433 57.1236 193.432 57.1236 193.431C57.1236 193.43 57.1236 193.429 57.1236 193.428C57.1236 193.427 57.1236 193.426 57.1236 193.425C57.1236 193.424 57.1236 193.423 57.1236 193.422C57.1236 193.421 57.1236 193.421 57.1236 193.42C57.1236 193.419 57.1236 193.418 57.1236 193.417C57.1236 193.416 57.1236 193.415 57.1236 193.414C57.1236 193.413 57.1236 193.412 57.1236 193.411C57.1236 193.41 57.1236 193.409 57.1236 193.408C57.1236 193.407 57.1236 193.406 57.1236 193.405C57.1236 193.404 57.1236 193.403 57.1236 193.402C57.1236 193.401 57.1236 193.4 57.1236 193.399C57.1236 193.398 57.1236 193.397 57.1236 193.396C57.1236 193.395 57.1236 193.394 57.1236 193.393C57.1236 193.392 57.1236 193.391 57.1236 193.391C57.1236 193.39 57.1236 193.389 57.1236 193.388C57.1236 193.387 57.1236 193.386 57.1236 193.385C57.1236 193.384 57.1236 193.383 57.1236 193.382C57.1236 193.381 57.1236 193.38 57.1236 193.379C57.1236 193.378 57.1236 193.377 57.1236 193.376C57.1236 193.375 57.1236 193.374 57.1236 193.373C57.1236 193.372 57.1236 193.371 57.1236 193.37C57.1236 193.369 57.1236 193.368 57.1236 193.367C57.1236 193.366 57.1236 193.365 57.1236 193.364C57.1236 193.363 57.1236 193.362 57.1236 193.361C57.1236 193.36 57.1236 193.36 57.1236 193.359C57.1236 193.358 57.1236 193.357 57.1236 193.356C57.1236 193.355 57.1236 193.354 57.1236 193.353C57.1236 193.352 57.1236 193.351 57.1236 193.35C57.1236 193.349 57.1236 193.348 57.1236 193.347C57.1236 193.346 57.1236 193.345 57.1236 193.344C57.1236 193.343 57.1236 193.342 57.1236 193.341C57.1236 193.34 57.1236 193.339 57.1236 193.338C57.1236 193.337 57.1236 193.336 57.1236 193.335C57.1236 193.334 57.1236 193.333 57.1236 193.332C57.1236 193.331 57.1236 193.33 57.1236 193.329C57.1236 193.329 57.1236 193.328 57.1236 193.327C57.1236 193.326 57.1236 193.325 57.1236 193.324C57.1236 193.323 57.1236 193.322 57.1236 193.321C57.1236 193.32 57.1236 193.319 57.1236 193.318C57.1236 193.317 57.1236 193.316 57.1236 193.315C57.1236 193.314 57.1236 193.313 57.1236 193.312C57.1236 193.311 57.1236 193.31 57.1236 193.309C57.1236 193.308 57.1236 193.307 57.1236 193.306C57.1236 193.305 57.1236 193.304 57.1236 193.303C57.1236 193.302 57.1236 193.301 57.1236 193.3C57.1236 193.299 57.1236 193.298 57.1236 193.297C57.1236 193.297 57.1236 193.296 57.1236 193.295C57.1236 193.294 57.1236 193.293 57.1236 193.292C57.1236 193.291 57.1236 193.29 57.1236 193.289C57.1236 193.288 57.1236 193.287 57.1236 193.286C57.1236 193.285 57.1236 193.284 57.1236 193.283C57.1236 193.282 57.1236 193.281 57.1236 193.28C57.1236 193.279 57.1236 193.278 57.1236 193.277C57.1236 193.276 57.1236 193.275 57.1236 193.274C57.1236 193.273 57.1236 193.272 57.1236 193.271C57.1236 193.27 57.1236 193.269 57.1236 193.268C57.1236 193.267 57.1236 193.266 57.1236 193.265C57.1236 193.264 57.1236 193.264 57.1236 193.263C57.1236 193.262 57.1236 193.261 57.1236 193.26C57.1236 193.259 57.1236 193.258 57.1236 193.257C57.1236 193.256 57.1236 193.255 57.1236 193.254C57.1236 193.253 57.1236 193.252 57.1236 193.251C57.1236 193.25 57.1236 193.249 57.1236 193.248C57.1236 193.247 57.1236 193.246 57.1236 193.245C57.1236 193.244 57.1236 193.243 57.1236 193.242C57.1236 193.241 57.1236 193.24 57.1236 193.239C57.1236 193.238 57.1236 193.237 57.1236 193.236C57.1236 193.235 57.1236 193.234 57.1236 193.233C57.1236 193.232 57.1236 193.231 57.1236 193.231C57.1236 193.23 57.1236 193.229 57.1236 193.228C57.1236 193.227 57.1236 193.226 57.1236 193.225C57.1236 193.224 57.1236 193.223 57.1236 193.222C57.1236 193.221 57.1236 193.22 57.1236 193.219C57.1236 193.218 57.1236 193.217 57.1236 193.216C57.1236 193.215 57.1236 193.214 57.1236 193.213C57.1236 193.212 57.1236 193.211 57.1236 193.21C57.1236 193.209 57.1236 193.208 57.1236 193.207C57.1236 193.206 57.1236 193.205 57.1236 193.204C57.1236 193.203 57.1236 193.202 57.1236 193.201C57.1236 193.2 57.1236 193.199 57.1236 193.198C57.1236 193.197 57.1236 193.197 57.1236 193.196C57.1236 193.195 57.1236 193.194 57.1236 193.193C57.1236 193.192 57.1236 193.191 57.1236 193.19C57.1236 193.189 57.1236 193.188 57.1236 193.187C57.1236 193.186 57.1236 193.185 57.1236 193.184C57.1236 193.183 57.1236 193.182 57.1236 193.181C57.1236 193.18 57.1236 193.179 57.1236 193.178C57.1236 193.177 57.1236 193.176 57.1236 193.175C57.1236 193.174 57.1236 193.173 57.1236 193.172C57.1236 193.171 57.1236 193.17 57.1236 193.169C57.1236 193.168 57.1236 193.167 57.1236 193.166C57.1236 193.165 57.1236 193.164 57.1236 193.163C57.1236 193.162 57.1236 193.162 57.1236 193.161C57.1236 193.16 57.1236 193.159 57.1236 193.158C57.1236 193.157 57.1236 193.156 57.1236 193.155C57.1236 193.154 57.1236 193.153 57.1236 193.152C57.1236 193.151 57.1236 193.15 57.1236 193.149C57.1236 193.148 57.1236 193.147 57.1236 193.146C57.1236 193.145 57.1236 193.144 57.1236 193.143C57.1236 193.142 57.1236 193.141 57.1236 193.14C57.1236 193.139 57.1236 193.138 57.1236 193.137C57.1236 193.136 57.1236 193.135 57.1236 193.134C57.1236 193.133 57.1236 193.132 57.1236 193.131C57.1236 193.13 57.1236 193.129 57.1236 193.128C57.1236 193.127 57.1236 193.127 57.1236 193.126C57.1236 193.125 57.1236 193.124 57.1236 193.123C57.1236 193.122 57.1236 193.121 57.1236 193.12C57.1236 193.119 57.1236 193.118 57.1236 193.117C57.1236 193.116 57.1236 193.115 57.1236 193.114C57.1236 193.113 57.1236 193.112 57.1236 193.111C57.1236 193.11 57.1236 193.109 57.1236 193.108C57.1236 193.107 57.1236 193.106 57.1236 193.105C57.1236 193.104 57.1236 193.103 57.1236 193.102C57.1236 193.101 57.1236 193.1 57.1236 193.099C57.1236 193.098 57.1236 193.097 57.1236 193.096C57.1236 193.095 57.1236 193.094 57.1236 193.093C57.1236 193.092 57.1236 193.091 57.1236 193.091C57.1236 193.09 57.1236 193.089 57.1236 193.088C57.1236 193.087 57.1236 193.086 57.1236 193.085C57.1236 193.084 57.1236 193.083 57.1236 193.082C57.1236 193.081 57.1236 193.08 57.1236 193.079C57.1236 193.078 57.1236 193.077 57.1236 193.076C57.1236 193.075 57.1236 193.074 57.1236 193.073C57.1236 193.072 57.1236 193.071 57.1236 193.07C57.1236 193.069 57.1236 193.068 57.1236 193.067C57.1236 193.066 57.1236 193.065 57.1236 193.064C57.1236 193.063 57.1236 193.062 57.1236 193.061C57.1236 193.06 57.1236 193.059 57.1236 193.058C57.1236 193.057 57.1236 193.056 57.1236 193.055C57.1236 193.054 57.1236 193.054 57.1236 193.053C57.1236 193.052 57.1236 193.051 57.1236 193.05C57.1236 193.049 57.1236 193.048 57.1236 193.047C57.1236 193.046 57.1236 193.045 57.1236 193.044C57.1236 193.043 57.1236 193.042 57.1236 193.041C57.1236 193.04 57.1236 193.039 57.1236 193.038C57.1236 193.037 57.1236 193.036 57.1236 193.035C57.1236 193.034 57.1236 193.033 57.1236 193.032C57.1236 193.031 57.1236 193.03 57.1236 193.029C57.1236 193.028 57.1236 193.027 57.1236 193.026C57.1236 193.025 57.1236 193.024 57.1236 193.023C57.1236 193.022 57.1236 193.021 57.1236 193.02C57.1236 193.019 57.1236 193.018 57.1236 193.017C57.1236 193.016 57.1236 193.015 57.1236 193.015C57.1236 193.014 57.1236 193.013 57.1236 193.012C57.1236 193.011 57.1236 193.01 57.1236 193.009C57.1236 193.008 57.1236 193.007 57.1236 193.006C57.1236 193.005 57.1236 193.004 57.1236 193.003C57.1236 193.002 57.1236 193.001 57.1236 193C57.1236 192.999 57.1236 192.998 57.1236 192.997C57.1236 192.996 57.1236 192.995 57.1236 192.994C57.1236 192.993 57.1236 192.992 57.1236 192.991C57.1236 192.99 57.1236 192.989 57.1236 192.988C57.1236 192.987 57.1236 192.986 57.1236 192.985C57.1236 192.984 57.1236 192.983 57.1236 192.982C57.1236 192.981 57.1236 192.98 57.1236 192.979C57.1236 192.978 57.1236 192.977 57.1236 192.976C57.1236 192.976 57.1236 192.975 57.1236 192.974C57.1236 192.973 57.1236 192.972 57.1236 192.971C57.1236 192.97 57.1236 192.969 57.1236 192.968C57.1236 192.967 57.1236 192.966 57.1236 192.965C57.1236 192.964 57.1236 192.963 57.1236 192.962C57.1236 192.961 57.1236 192.96 57.1236 192.959C57.1236 192.958 57.1236 192.957 57.1236 192.956C57.1236 192.955 57.1236 192.954 57.1236 192.953C57.1236 192.952 57.1236 192.951 57.1236 192.95C57.1236 192.949 57.1236 192.948 57.1236 192.947C57.1236 192.946 57.1236 192.945 57.1236 192.944C57.1236 192.943 57.1236 192.942 57.1236 192.941C57.1236 192.94 57.1236 192.939 57.1236 192.938C57.1236 192.937 57.1236 192.936 57.1236 192.936C57.1236 192.935 57.1236 192.934 57.1236 192.933C57.1236 192.932 57.1236 192.931 57.1236 192.93C57.1236 192.929 57.1236 192.928 57.1236 192.927C57.1236 192.926 57.1236 192.925 57.1236 192.924C57.1236 192.923 57.1236 192.922 57.1236 192.921C57.1236 192.92 57.1236 192.919 57.1236 192.918C57.1236 192.917 57.1236 192.916 57.1236 192.915C57.1236 192.914 57.1236 192.913 57.1236 192.912C57.1236 192.911 57.1236 192.91 57.1236 192.909C57.1236 192.908 57.1236 192.907 57.1236 192.906C57.1236 192.905 57.1236 192.904 57.1236 192.903C57.1236 192.902 57.1236 192.901 57.1236 192.9C57.1236 192.899 57.1236 192.898 57.1236 192.897C57.1236 192.896 57.1236 192.895 57.1236 192.894C57.1236 192.894 57.1236 192.893 57.1236 192.892C57.1236 192.891 57.1236 192.89 57.1236 192.889C57.1236 192.888 57.1236 192.887 57.1236 192.886C57.1236 192.885 57.1236 192.884 57.1236 192.883C57.1236 192.882 57.1236 192.881 57.1236 192.88C57.1236 192.879 57.1236 192.878 57.1236 192.877C57.1236 192.876 57.1236 192.875 57.1236 192.874C57.1236 192.873 57.1236 192.872 57.1236 192.871C57.1236 192.87 57.1236 192.869 57.1236 192.868C57.1236 192.867 57.1236 192.866 57.1236 192.865C57.1236 192.864 57.1236 192.863 57.1236 192.862C57.1236 192.861 57.1236 192.86 57.1236 192.859C57.1236 192.858 57.1236 192.857 57.1236 192.856C57.1236 192.855 57.1236 192.854 57.1236 192.853C57.1236 192.852 57.1236 192.851 57.1236 192.851C57.1236 192.85 57.1236 192.849 57.1236 192.848C57.1236 192.847 57.1236 192.846 57.1236 192.845C57.1236 192.844 57.1236 192.843 57.1236 192.842C57.1236 192.841 57.1236 192.84 57.1236 192.839C57.1236 192.838 57.1236 192.837 57.1236 192.836C57.1236 192.835 57.1236 192.834 57.1236 192.833C57.1236 192.832 57.1236 192.831 57.1236 192.83C57.1236 192.829 57.1236 192.828 57.1236 192.827C57.1236 192.826 57.1236 192.825 57.1236 192.824C57.1236 192.823 57.1236 192.822 57.1236 192.821C57.1236 192.82 57.1236 192.819 57.1236 192.818C57.1236 192.817 57.1236 192.816 57.1236 192.815C57.1236 192.814 57.1236 192.813 57.1236 192.812C57.1236 192.811 57.1236 192.81 57.1236 192.809C57.1236 192.808 57.1236 192.807 57.1236 192.806C57.1236 192.806 57.1236 192.805 57.1236 192.804C57.1236 192.803 57.1236 192.802 57.1236 192.801C57.1236 192.8 57.1236 192.799 57.1236 192.798C57.1236 192.797 57.1236 192.796 57.1236 192.795C57.1236 192.794 57.1236 192.793 57.1236 192.792C57.1236 192.791 57.1236 192.79 57.1236 192.789C57.1236 192.788 57.1236 192.787 57.1236 192.786C57.1236 192.785 57.1236 192.784 57.1236 192.783C57.1236 192.782 57.1236 192.781 57.1236 192.78C57.1236 192.779 57.1236 192.778 57.1236 192.777C57.1236 192.776 57.1236 192.775 57.1236 192.774C57.1236 192.773 57.1236 192.772 57.1236 192.771C57.1236 192.77 57.1236 192.769 57.1236 192.768C57.1236 192.767 57.1236 192.766 57.1236 192.765C57.1236 192.764 57.1236 192.763 57.1236 192.762C57.1236 192.761 57.1236 192.76 57.1236 192.76C57.1236 192.759 57.1236 192.758 57.1236 192.757C57.1236 192.756 57.1236 192.755 57.1236 192.754C57.1236 192.753 57.1236 192.752 57.1236 192.751C57.1236 192.75 57.1236 192.749 57.1236 192.748C57.1236 192.747 57.1236 192.746 57.1236 192.745C57.1236 192.744 57.1236 192.743 57.1236 192.742C57.1236 192.741 57.1236 192.74 57.1236 192.739C57.1236 192.738 57.1236 192.737 57.1236 192.736C57.1236 192.735 57.1236 192.734 57.1236 192.733C57.1236 192.732 57.1236 192.731 57.1236 192.73C57.1236 192.729 57.1236 192.728 57.1236 192.727C57.1236 192.726 57.1236 192.725 57.1236 192.724C57.1236 192.723 57.1236 192.722 57.1236 192.721C57.1236 192.72 57.1236 192.719 57.1236 192.718C57.1236 192.717 57.1236 192.716 57.1236 192.715C57.1236 192.714 57.1236 192.713 57.1236 192.712C57.1236 192.712 57.1236 192.711 57.1236 192.71C57.1236 192.709 57.1236 192.708 57.1236 192.707C57.1236 192.706 57.1236 192.705 57.1236 192.704C57.1236 192.703 57.1236 192.702 57.1236 192.701C57.1236 192.7 57.1236 192.699 57.1236 192.698C57.1236 192.697 57.1236 192.696 57.1236 192.695C57.1236 192.694 57.1236 192.693 57.1236 192.692C57.1236 192.691 57.1236 192.69 57.1236 192.689C57.1236 192.688 57.1236 192.687 57.1236 192.686C57.1236 192.685 57.1236 192.684 57.1236 192.683C57.1236 192.682 57.1236 192.681 57.1236 192.68C57.1236 192.679 57.1236 192.678 57.1236 192.677C57.1236 192.676 57.1236 192.675 57.1236 192.674C57.1236 192.673 57.1236 192.672 57.1236 192.671C57.1236 192.67 57.1236 192.669 57.1236 192.668C57.1236 192.667 57.1236 192.666 57.1236 192.665C57.1236 192.664 57.1236 192.663 57.1236 192.662C57.1236 192.662 57.1236 192.661 57.1236 192.66C57.1236 192.659 57.1236 192.658 57.1236 192.657C57.1236 192.656 57.1236 192.655 57.1236 192.654C57.1236 192.653 57.1236 192.652 57.1236 192.651C57.1236 192.65 57.1236 192.649 57.1236 192.648C57.1236 192.647 57.1236 192.646 57.1236 192.645C57.1236 192.644 57.1236 192.643 57.1236 192.642C57.1236 192.641 57.1236 192.64 57.1236 192.639C57.1236 192.638 57.1236 192.637 57.1236 192.636C57.1236 192.635 57.1236 192.634 57.1236 192.633C57.1236 192.632 57.1236 192.631 57.1236 192.63C57.1236 192.629 57.1236 192.628 57.1236 192.627C57.1236 192.626 57.1236 192.625 57.1236 192.624C57.1236 192.623 57.1236 192.622 57.1236 192.621C57.1236 192.62 57.1236 192.619 57.1236 192.618C57.1236 192.617 57.1236 192.616 57.1236 192.615C57.1236 192.614 57.1236 192.613 57.1236 192.612C57.1236 192.611 57.1236 192.61 57.1236 192.609C57.1236 192.609 57.1236 192.608 57.1236 192.607C57.1236 192.606 57.1236 192.605 57.1236 192.604C57.1236 192.603 57.1236 192.602 57.1236 192.601C57.1236 192.6 57.1236 192.599 57.1236 192.598C57.1236 192.597 57.1236 192.596 57.1236 192.595C57.1236 192.594 57.1236 192.593 57.1236 192.592C57.1236 192.591 57.1236 192.59 57.1236 192.589C57.1236 192.588 57.1236 192.587 57.1236 192.586C57.1236 192.585 57.1236 192.584 57.1236 192.583C57.1236 192.582 57.1236 192.581 57.1236 192.58C57.1236 192.579 57.1236 192.578 57.1236 192.577C57.1236 192.576 57.1236 192.575 57.1236 192.574C57.1236 192.573 57.1236 192.572 57.1236 192.571C57.1236 192.57 57.1236 192.569 57.1236 192.568C57.1236 192.567 57.1236 192.566 57.1236 192.565C57.1236 192.564 57.1236 192.563 57.1236 192.562C57.1236 192.561 57.1236 192.56 57.1236 192.559C57.1236 192.558 57.1236 192.557 57.1236 192.556C57.1236 192.555 57.1236 192.554 57.1236 192.553C57.1236 192.553 57.1236 192.552 57.1236 192.551C57.1236 192.55 57.1236 192.549 57.1236 192.548C57.1236 192.547 57.1236 192.546 57.1236 192.545C57.1236 192.544 57.1236 192.543 57.1236 192.542C57.1236 192.541 57.1236 192.54 57.1236 192.539C57.1236 192.538 57.1236 192.537 57.1236 192.536C57.1236 192.535 57.1236 192.534 57.1236 192.533C57.1236 192.532 57.1236 192.531 57.1236 192.53C57.1236 192.529 57.1236 192.528 57.1236 192.527C57.1236 192.526 57.1236 192.525 57.1236 192.524C57.1236 192.523 57.1236 192.522 57.1236 192.521C57.1236 192.52 57.1236 192.519 57.1236 192.518C57.1236 192.517 57.1236 192.516 57.1236 192.515C57.1236 192.514 57.1236 192.513 57.1236 192.512C57.1236 192.511 57.1236 192.51 57.1236 192.509C57.1236 192.508 57.1236 192.507 57.1236 192.506C57.1236 192.505 57.1236 192.504 57.1236 192.503C57.1236 192.502 57.1236 192.501 57.1236 192.5C57.1236 192.499 57.1236 192.498 57.1236 192.497C57.1236 192.496 57.1236 192.495 57.1236 192.494C57.1236 192.494 57.1236 192.493 57.1236 192.492C57.1236 192.491 57.1236 192.49 57.1236 192.489C57.1236 192.488 57.1236 192.487 57.1236 192.486C57.1236 192.485 57.1236 192.484 57.1236 192.483C57.1236 192.482 57.1236 192.481 57.1236 192.48C57.1236 192.479 57.1236 192.478 57.1236 192.477C57.1236 192.476 57.1236 192.475 57.1236 192.474C57.1236 192.473 57.1236 192.472 57.1236 192.471C57.1236 192.47 57.1236 192.469 57.1236 192.468C57.1236 192.467 57.1236 192.466 57.1236 192.465C57.1236 192.464 57.1236 192.463 57.1236 192.462C57.1236 192.461 57.1236 192.46 57.1236 192.459C57.1236 192.458 57.1236 192.457 57.1236 192.456C57.1236 192.455 57.1236 192.454 57.1236 192.453C57.1236 192.452 57.1236 192.451 57.1236 192.45C57.1236 192.449 57.1236 192.448 57.1236 192.447C57.1236 192.446 57.1236 192.445 57.1236 192.444C57.1236 192.443 57.1236 192.442 57.1236 192.441C57.1236 192.44 57.1236 192.439 57.1236 192.438C57.1236 192.437 57.1236 192.436 57.1236 192.435C57.1236 192.434 57.1236 192.433 57.1236 192.432C57.1236 192.431 57.1236 192.431 57.1236 192.43C57.1236 192.429 57.1236 192.428 57.1236 192.427C57.1236 192.426 57.1236 192.425 57.1236 192.424C57.1236 192.423 57.1236 192.422 57.1236 192.421C57.1236 192.42 57.1236 192.419 57.1236 192.418C57.1236 192.417 57.1236 192.416 57.1236 192.415C57.1236 192.414 57.1236 192.413 57.1236 192.412C57.1236 192.411 57.1236 192.41 57.1236 192.409C57.1236 192.408 57.1236 192.407 57.1236 192.406C57.1236 192.405 57.1236 192.404 57.1236 192.403C57.1236 192.402 57.1236 192.401 57.1236 192.4C57.1236 192.399 57.1236 192.398 57.1236 192.397C57.1236 192.396 57.1236 192.395 57.1236 192.394C57.1236 192.393 57.1236 192.392 57.1236 192.391C57.1236 192.39 57.1236 192.389 57.1236 192.388C57.1236 192.387 57.1236 192.386 57.1236 192.385C57.1236 192.384 57.1236 192.383 57.1236 192.382C57.1236 192.381 57.1236 192.38 57.1236 192.379C57.1236 192.378 57.1236 192.377 57.1236 192.376C57.1236 192.375 57.1236 192.374 57.1236 192.373C57.1236 192.372 57.1236 192.371 57.1236 192.37C57.1236 192.369 57.1236 192.368 57.1236 192.367C57.1236 192.366 57.1236 192.365 57.1236 192.364C57.1236 192.363 57.1236 192.363 57.1236 192.362C57.1236 192.361 57.1236 192.36 57.1236 192.359C57.1236 192.358 57.1236 192.357 57.1236 192.356C57.1236 192.355 57.1236 192.354 57.1236 192.353C57.1236 192.352 57.1236 192.351 57.1236 192.35C57.1236 192.349 57.1236 192.348 57.1236 192.347C57.1236 192.346 57.1236 192.345 57.1236 192.344C57.1236 192.343 57.1236 192.342 57.1236 192.341C57.1236 192.34 57.1236 192.339 57.1236 192.338C57.1236 192.337 57.1236 192.336 57.1236 192.335C57.1236 192.334 57.1236 192.333 57.1236 192.332C57.1236 192.331 57.1236 192.33 57.1236 192.329C57.1236 192.328 57.1236 192.327 57.1236 192.326C57.1236 192.325 57.1236 192.324 57.1236 192.323C57.1236 192.322 57.1236 192.321 57.1236 192.32C57.1236 192.319 57.1236 192.318 57.1236 192.317C57.1236 192.316 57.1236 192.315 57.1236 192.314C57.1236 192.313 57.1236 192.312 57.1236 192.311C57.1236 192.31 57.1236 192.309 57.1236 192.308C57.1236 192.307 57.1236 192.306 57.1236 192.305C57.1236 192.304 57.1236 192.303 57.1236 192.302C57.1236 192.301 57.1236 192.3 57.1236 192.299C57.1236 192.298 57.1236 192.297 57.1236 192.296C57.1236 192.295 57.1236 192.294 57.1236 192.293C57.1236 192.292 57.1236 192.291 57.1236 192.29C57.1236 192.289 57.1236 192.289 57.1236 192.288C57.1236 192.287 57.1236 192.286 57.1236 192.285C57.1236 192.284 57.1236 192.283 57.1236 192.282C57.1236 192.281 57.1236 192.28 57.1236 192.279C57.1236 192.278 57.1236 192.277 57.1236 192.276C57.1236 192.275 57.1236 192.274 57.1236 192.273C57.1236 192.272 57.1236 192.271 57.1236 192.27C57.1236 192.269 57.1236 192.268 57.1236 192.267C57.1236 192.266 57.1236 192.265 57.1236 192.264C57.1236 192.263 57.1236 192.262 57.1236 192.261C57.1236 192.26 57.1236 192.259 57.1236 192.258C57.1236 192.257 57.1236 192.256 57.1236 192.255C57.1236 192.254 57.1236 192.253 57.1236 192.252C57.1236 192.251 57.1236 192.25 57.1236 192.249C57.1236 192.248 57.1236 192.247 57.1236 192.246C57.1236 192.245 57.1236 192.244 57.1236 192.243C57.1236 192.242 57.1236 192.241 57.1236 192.24C57.1236 192.239 57.1236 192.238 57.1236 192.237C57.1236 192.236 57.1236 192.235 57.1236 192.234C57.1236 192.233 57.1236 192.232 57.1236 192.231C57.1236 192.23 57.1236 192.229 57.1236 192.228C57.1236 192.227 57.1236 192.226 57.1236 192.225C57.1236 192.224 57.1236 192.223 57.1236 192.222C57.1236 192.221 57.1236 192.22 57.1236 192.219C57.1236 192.218 57.1236 192.217 57.1236 192.216C57.1236 192.215 57.1236 192.214 57.1236 192.213C57.1236 192.212 57.1236 192.211 57.1236 192.21C57.1236 192.209 57.1236 192.208 57.1236 192.207C57.1236 192.206 57.1236 192.206 57.1236 192.205C57.1236 192.204 57.1236 192.203 57.1236 192.202C57.1236 192.201 57.1236 192.2 57.1236 192.199C57.1236 192.198 57.1236 192.197 57.1236 192.196C57.1236 192.195 57.1236 192.194 57.1236 192.193C57.1236 192.192 57.1236 192.191 57.1236 192.19C57.1236 192.189 57.1236 192.188 57.1236 192.187C57.1236 192.186 57.1236 192.185 57.1236 192.184C57.1236 192.183 57.1236 192.182 57.1236 192.181C57.1236 192.18 57.1236 192.179 57.1236 192.178C57.1236 192.177 57.1236 192.176 57.1236 192.175C57.1236 192.174 57.1236 192.173 57.1236 192.172C57.1236 192.171 57.1236 192.17 57.1236 192.169C57.1236 192.168 57.1236 192.167 57.1236 192.166C57.1236 192.165 57.1236 192.164 57.1236 192.163C57.1236 192.162 57.1236 192.161 57.1236 192.16H56.1236H55.1236C55.1236 192.161 55.1236 192.162 55.1236 192.163C55.1236 192.164 55.1236 192.165 55.1236 192.166C55.1236 192.167 55.1236 192.168 55.1236 192.169C55.1236 192.17 55.1236 192.171 55.1236 192.172C55.1236 192.173 55.1236 192.174 55.1236 192.175C55.1236 192.176 55.1236 192.177 55.1236 192.178C55.1236 192.179 55.1236 192.18 55.1236 192.181C55.1236 192.182 55.1236 192.183 55.1236 192.184C55.1236 192.185 55.1236 192.186 55.1236 192.187C55.1236 192.188 55.1236 192.189 55.1236 192.19C55.1236 192.191 55.1236 192.192 55.1236 192.193C55.1236 192.194 55.1236 192.195 55.1236 192.196C55.1236 192.197 55.1236 192.198 55.1236 192.199C55.1236 192.2 55.1236 192.201 55.1236 192.202C55.1236 192.203 55.1236 192.204 55.1236 192.205C55.1236 192.206 55.1236 192.206 55.1236 192.207C55.1236 192.208 55.1236 192.209 55.1236 192.21C55.1236 192.211 55.1236 192.212 55.1236 192.213C55.1236 192.214 55.1236 192.215 55.1236 192.216C55.1236 192.217 55.1236 192.218 55.1236 192.219C55.1236 192.22 55.1236 192.221 55.1236 192.222C55.1236 192.223 55.1236 192.224 55.1236 192.225C55.1236 192.226 55.1236 192.227 55.1236 192.228C55.1236 192.229 55.1236 192.23 55.1236 192.231C55.1236 192.232 55.1236 192.233 55.1236 192.234C55.1236 192.235 55.1236 192.236 55.1236 192.237C55.1236 192.238 55.1236 192.239 55.1236 192.24C55.1236 192.241 55.1236 192.242 55.1236 192.243C55.1236 192.244 55.1236 192.245 55.1236 192.246C55.1236 192.247 55.1236 192.248 55.1236 192.249C55.1236 192.25 55.1236 192.251 55.1236 192.252C55.1236 192.253 55.1236 192.254 55.1236 192.255C55.1236 192.256 55.1236 192.257 55.1236 192.258C55.1236 192.259 55.1236 192.26 55.1236 192.261C55.1236 192.262 55.1236 192.263 55.1236 192.264C55.1236 192.265 55.1236 192.266 55.1236 192.267C55.1236 192.268 55.1236 192.269 55.1236 192.27C55.1236 192.271 55.1236 192.272 55.1236 192.273C55.1236 192.274 55.1236 192.275 55.1236 192.276C55.1236 192.277 55.1236 192.278 55.1236 192.279C55.1236 192.28 55.1236 192.281 55.1236 192.282C55.1236 192.283 55.1236 192.284 55.1236 192.285C55.1236 192.286 55.1236 192.287 55.1236 192.288C55.1236 192.289 55.1236 192.289 55.1236 192.29C55.1236 192.291 55.1236 192.292 55.1236 192.293C55.1236 192.294 55.1236 192.295 55.1236 192.296C55.1236 192.297 55.1236 192.298 55.1236 192.299C55.1236 192.3 55.1236 192.301 55.1236 192.302C55.1236 192.303 55.1236 192.304 55.1236 192.305C55.1236 192.306 55.1236 192.307 55.1236 192.308C55.1236 192.309 55.1236 192.31 55.1236 192.311C55.1236 192.312 55.1236 192.313 55.1236 192.314C55.1236 192.315 55.1236 192.316 55.1236 192.317C55.1236 192.318 55.1236 192.319 55.1236 192.32C55.1236 192.321 55.1236 192.322 55.1236 192.323C55.1236 192.324 55.1236 192.325 55.1236 192.326C55.1236 192.327 55.1236 192.328 55.1236 192.329C55.1236 192.33 55.1236 192.331 55.1236 192.332C55.1236 192.333 55.1236 192.334 55.1236 192.335C55.1236 192.336 55.1236 192.337 55.1236 192.338C55.1236 192.339 55.1236 192.34 55.1236 192.341C55.1236 192.342 55.1236 192.343 55.1236 192.344C55.1236 192.345 55.1236 192.346 55.1236 192.347C55.1236 192.348 55.1236 192.349 55.1236 192.35C55.1236 192.351 55.1236 192.352 55.1236 192.353C55.1236 192.354 55.1236 192.355 55.1236 192.356C55.1236 192.357 55.1236 192.358 55.1236 192.359C55.1236 192.36 55.1236 192.361 55.1236 192.362C55.1236 192.363 55.1236 192.363 55.1236 192.364C55.1236 192.365 55.1236 192.366 55.1236 192.367C55.1236 192.368 55.1236 192.369 55.1236 192.37C55.1236 192.371 55.1236 192.372 55.1236 192.373C55.1236 192.374 55.1236 192.375 55.1236 192.376C55.1236 192.377 55.1236 192.378 55.1236 192.379C55.1236 192.38 55.1236 192.381 55.1236 192.382C55.1236 192.383 55.1236 192.384 55.1236 192.385C55.1236 192.386 55.1236 192.387 55.1236 192.388C55.1236 192.389 55.1236 192.39 55.1236 192.391C55.1236 192.392 55.1236 192.393 55.1236 192.394C55.1236 192.395 55.1236 192.396 55.1236 192.397C55.1236 192.398 55.1236 192.399 55.1236 192.4C55.1236 192.401 55.1236 192.402 55.1236 192.403C55.1236 192.404 55.1236 192.405 55.1236 192.406C55.1236 192.407 55.1236 192.408 55.1236 192.409C55.1236 192.41 55.1236 192.411 55.1236 192.412C55.1236 192.413 55.1236 192.414 55.1236 192.415C55.1236 192.416 55.1236 192.417 55.1236 192.418C55.1236 192.419 55.1236 192.42 55.1236 192.421C55.1236 192.422 55.1236 192.423 55.1236 192.424C55.1236 192.425 55.1236 192.426 55.1236 192.427C55.1236 192.428 55.1236 192.429 55.1236 192.43C55.1236 192.431 55.1236 192.431 55.1236 192.432C55.1236 192.433 55.1236 192.434 55.1236 192.435C55.1236 192.436 55.1236 192.437 55.1236 192.438C55.1236 192.439 55.1236 192.44 55.1236 192.441C55.1236 192.442 55.1236 192.443 55.1236 192.444C55.1236 192.445 55.1236 192.446 55.1236 192.447C55.1236 192.448 55.1236 192.449 55.1236 192.45C55.1236 192.451 55.1236 192.452 55.1236 192.453C55.1236 192.454 55.1236 192.455 55.1236 192.456C55.1236 192.457 55.1236 192.458 55.1236 192.459C55.1236 192.46 55.1236 192.461 55.1236 192.462C55.1236 192.463 55.1236 192.464 55.1236 192.465C55.1236 192.466 55.1236 192.467 55.1236 192.468C55.1236 192.469 55.1236 192.47 55.1236 192.471C55.1236 192.472 55.1236 192.473 55.1236 192.474C55.1236 192.475 55.1236 192.476 55.1236 192.477C55.1236 192.478 55.1236 192.479 55.1236 192.48C55.1236 192.481 55.1236 192.482 55.1236 192.483C55.1236 192.484 55.1236 192.485 55.1236 192.486C55.1236 192.487 55.1236 192.488 55.1236 192.489C55.1236 192.49 55.1236 192.491 55.1236 192.492C55.1236 192.493 55.1236 192.494 55.1236 192.494C55.1236 192.495 55.1236 192.496 55.1236 192.497C55.1236 192.498 55.1236 192.499 55.1236 192.5C55.1236 192.501 55.1236 192.502 55.1236 192.503C55.1236 192.504 55.1236 192.505 55.1236 192.506C55.1236 192.507 55.1236 192.508 55.1236 192.509C55.1236 192.51 55.1236 192.511 55.1236 192.512C55.1236 192.513 55.1236 192.514 55.1236 192.515C55.1236 192.516 55.1236 192.517 55.1236 192.518C55.1236 192.519 55.1236 192.52 55.1236 192.521C55.1236 192.522 55.1236 192.523 55.1236 192.524C55.1236 192.525 55.1236 192.526 55.1236 192.527C55.1236 192.528 55.1236 192.529 55.1236 192.53C55.1236 192.531 55.1236 192.532 55.1236 192.533C55.1236 192.534 55.1236 192.535 55.1236 192.536C55.1236 192.537 55.1236 192.538 55.1236 192.539C55.1236 192.54 55.1236 192.541 55.1236 192.542C55.1236 192.543 55.1236 192.544 55.1236 192.545C55.1236 192.546 55.1236 192.547 55.1236 192.548C55.1236 192.549 55.1236 192.55 55.1236 192.551C55.1236 192.552 55.1236 192.553 55.1236 192.553C55.1236 192.554 55.1236 192.555 55.1236 192.556C55.1236 192.557 55.1236 192.558 55.1236 192.559C55.1236 192.56 55.1236 192.561 55.1236 192.562C55.1236 192.563 55.1236 192.564 55.1236 192.565C55.1236 192.566 55.1236 192.567 55.1236 192.568C55.1236 192.569 55.1236 192.57 55.1236 192.571C55.1236 192.572 55.1236 192.573 55.1236 192.574C55.1236 192.575 55.1236 192.576 55.1236 192.577C55.1236 192.578 55.1236 192.579 55.1236 192.58C55.1236 192.581 55.1236 192.582 55.1236 192.583C55.1236 192.584 55.1236 192.585 55.1236 192.586C55.1236 192.587 55.1236 192.588 55.1236 192.589C55.1236 192.59 55.1236 192.591 55.1236 192.592C55.1236 192.593 55.1236 192.594 55.1236 192.595C55.1236 192.596 55.1236 192.597 55.1236 192.598C55.1236 192.599 55.1236 192.6 55.1236 192.601C55.1236 192.602 55.1236 192.603 55.1236 192.604C55.1236 192.605 55.1236 192.606 55.1236 192.607C55.1236 192.608 55.1236 192.609 55.1236 192.609C55.1236 192.61 55.1236 192.611 55.1236 192.612C55.1236 192.613 55.1236 192.614 55.1236 192.615C55.1236 192.616 55.1236 192.617 55.1236 192.618C55.1236 192.619 55.1236 192.62 55.1236 192.621C55.1236 192.622 55.1236 192.623 55.1236 192.624C55.1236 192.625 55.1236 192.626 55.1236 192.627C55.1236 192.628 55.1236 192.629 55.1236 192.63C55.1236 192.631 55.1236 192.632 55.1236 192.633C55.1236 192.634 55.1236 192.635 55.1236 192.636C55.1236 192.637 55.1236 192.638 55.1236 192.639C55.1236 192.64 55.1236 192.641 55.1236 192.642C55.1236 192.643 55.1236 192.644 55.1236 192.645C55.1236 192.646 55.1236 192.647 55.1236 192.648C55.1236 192.649 55.1236 192.65 55.1236 192.651C55.1236 192.652 55.1236 192.653 55.1236 192.654C55.1236 192.655 55.1236 192.656 55.1236 192.657C55.1236 192.658 55.1236 192.659 55.1236 192.66C55.1236 192.661 55.1236 192.662 55.1236 192.662C55.1236 192.663 55.1236 192.664 55.1236 192.665C55.1236 192.666 55.1236 192.667 55.1236 192.668C55.1236 192.669 55.1236 192.67 55.1236 192.671C55.1236 192.672 55.1236 192.673 55.1236 192.674C55.1236 192.675 55.1236 192.676 55.1236 192.677C55.1236 192.678 55.1236 192.679 55.1236 192.68C55.1236 192.681 55.1236 192.682 55.1236 192.683C55.1236 192.684 55.1236 192.685 55.1236 192.686C55.1236 192.687 55.1236 192.688 55.1236 192.689C55.1236 192.69 55.1236 192.691 55.1236 192.692C55.1236 192.693 55.1236 192.694 55.1236 192.695C55.1236 192.696 55.1236 192.697 55.1236 192.698C55.1236 192.699 55.1236 192.7 55.1236 192.701C55.1236 192.702 55.1236 192.703 55.1236 192.704C55.1236 192.705 55.1236 192.706 55.1236 192.707C55.1236 192.708 55.1236 192.709 55.1236 192.71C55.1236 192.711 55.1236 192.712 55.1236 192.712C55.1236 192.713 55.1236 192.714 55.1236 192.715C55.1236 192.716 55.1236 192.717 55.1236 192.718C55.1236 192.719 55.1236 192.72 55.1236 192.721C55.1236 192.722 55.1236 192.723 55.1236 192.724C55.1236 192.725 55.1236 192.726 55.1236 192.727C55.1236 192.728 55.1236 192.729 55.1236 192.73C55.1236 192.731 55.1236 192.732 55.1236 192.733C55.1236 192.734 55.1236 192.735 55.1236 192.736C55.1236 192.737 55.1236 192.738 55.1236 192.739C55.1236 192.74 55.1236 192.741 55.1236 192.742C55.1236 192.743 55.1236 192.744 55.1236 192.745C55.1236 192.746 55.1236 192.747 55.1236 192.748C55.1236 192.749 55.1236 192.75 55.1236 192.751C55.1236 192.752 55.1236 192.753 55.1236 192.754C55.1236 192.755 55.1236 192.756 55.1236 192.757C55.1236 192.758 55.1236 192.759 55.1236 192.76C55.1236 192.76 55.1236 192.761 55.1236 192.762C55.1236 192.763 55.1236 192.764 55.1236 192.765C55.1236 192.766 55.1236 192.767 55.1236 192.768C55.1236 192.769 55.1236 192.77 55.1236 192.771C55.1236 192.772 55.1236 192.773 55.1236 192.774C55.1236 192.775 55.1236 192.776 55.1236 192.777C55.1236 192.778 55.1236 192.779 55.1236 192.78C55.1236 192.781 55.1236 192.782 55.1236 192.783C55.1236 192.784 55.1236 192.785 55.1236 192.786C55.1236 192.787 55.1236 192.788 55.1236 192.789C55.1236 192.79 55.1236 192.791 55.1236 192.792C55.1236 192.793 55.1236 192.794 55.1236 192.795C55.1236 192.796 55.1236 192.797 55.1236 192.798C55.1236 192.799 55.1236 192.8 55.1236 192.801C55.1236 192.802 55.1236 192.803 55.1236 192.804C55.1236 192.805 55.1236 192.806 55.1236 192.806C55.1236 192.807 55.1236 192.808 55.1236 192.809C55.1236 192.81 55.1236 192.811 55.1236 192.812C55.1236 192.813 55.1236 192.814 55.1236 192.815C55.1236 192.816 55.1236 192.817 55.1236 192.818C55.1236 192.819 55.1236 192.82 55.1236 192.821C55.1236 192.822 55.1236 192.823 55.1236 192.824C55.1236 192.825 55.1236 192.826 55.1236 192.827C55.1236 192.828 55.1236 192.829 55.1236 192.83C55.1236 192.831 55.1236 192.832 55.1236 192.833C55.1236 192.834 55.1236 192.835 55.1236 192.836C55.1236 192.837 55.1236 192.838 55.1236 192.839C55.1236 192.84 55.1236 192.841 55.1236 192.842C55.1236 192.843 55.1236 192.844 55.1236 192.845C55.1236 192.846 55.1236 192.847 55.1236 192.848C55.1236 192.849 55.1236 192.85 55.1236 192.851C55.1236 192.851 55.1236 192.852 55.1236 192.853C55.1236 192.854 55.1236 192.855 55.1236 192.856C55.1236 192.857 55.1236 192.858 55.1236 192.859C55.1236 192.86 55.1236 192.861 55.1236 192.862C55.1236 192.863 55.1236 192.864 55.1236 192.865C55.1236 192.866 55.1236 192.867 55.1236 192.868C55.1236 192.869 55.1236 192.87 55.1236 192.871C55.1236 192.872 55.1236 192.873 55.1236 192.874C55.1236 192.875 55.1236 192.876 55.1236 192.877C55.1236 192.878 55.1236 192.879 55.1236 192.88C55.1236 192.881 55.1236 192.882 55.1236 192.883C55.1236 192.884 55.1236 192.885 55.1236 192.886C55.1236 192.887 55.1236 192.888 55.1236 192.889C55.1236 192.89 55.1236 192.891 55.1236 192.892C55.1236 192.893 55.1236 192.894 55.1236 192.894C55.1236 192.895 55.1236 192.896 55.1236 192.897C55.1236 192.898 55.1236 192.899 55.1236 192.9C55.1236 192.901 55.1236 192.902 55.1236 192.903C55.1236 192.904 55.1236 192.905 55.1236 192.906C55.1236 192.907 55.1236 192.908 55.1236 192.909C55.1236 192.91 55.1236 192.911 55.1236 192.912C55.1236 192.913 55.1236 192.914 55.1236 192.915C55.1236 192.916 55.1236 192.917 55.1236 192.918C55.1236 192.919 55.1236 192.92 55.1236 192.921C55.1236 192.922 55.1236 192.923 55.1236 192.924C55.1236 192.925 55.1236 192.926 55.1236 192.927C55.1236 192.928 55.1236 192.929 55.1236 192.93C55.1236 192.931 55.1236 192.932 55.1236 192.933C55.1236 192.934 55.1236 192.935 55.1236 192.936C55.1236 192.936 55.1236 192.937 55.1236 192.938C55.1236 192.939 55.1236 192.94 55.1236 192.941C55.1236 192.942 55.1236 192.943 55.1236 192.944C55.1236 192.945 55.1236 192.946 55.1236 192.947C55.1236 192.948 55.1236 192.949 55.1236 192.95C55.1236 192.951 55.1236 192.952 55.1236 192.953C55.1236 192.954 55.1236 192.955 55.1236 192.956C55.1236 192.957 55.1236 192.958 55.1236 192.959C55.1236 192.96 55.1236 192.961 55.1236 192.962C55.1236 192.963 55.1236 192.964 55.1236 192.965C55.1236 192.966 55.1236 192.967 55.1236 192.968C55.1236 192.969 55.1236 192.97 55.1236 192.971C55.1236 192.972 55.1236 192.973 55.1236 192.974C55.1236 192.975 55.1236 192.976 55.1236 192.976C55.1236 192.977 55.1236 192.978 55.1236 192.979C55.1236 192.98 55.1236 192.981 55.1236 192.982C55.1236 192.983 55.1236 192.984 55.1236 192.985C55.1236 192.986 55.1236 192.987 55.1236 192.988C55.1236 192.989 55.1236 192.99 55.1236 192.991C55.1236 192.992 55.1236 192.993 55.1236 192.994C55.1236 192.995 55.1236 192.996 55.1236 192.997C55.1236 192.998 55.1236 192.999 55.1236 193C55.1236 193.001 55.1236 193.002 55.1236 193.003C55.1236 193.004 55.1236 193.005 55.1236 193.006C55.1236 193.007 55.1236 193.008 55.1236 193.009C55.1236 193.01 55.1236 193.011 55.1236 193.012C55.1236 193.013 55.1236 193.014 55.1236 193.015C55.1236 193.015 55.1236 193.016 55.1236 193.017C55.1236 193.018 55.1236 193.019 55.1236 193.02C55.1236 193.021 55.1236 193.022 55.1236 193.023C55.1236 193.024 55.1236 193.025 55.1236 193.026C55.1236 193.027 55.1236 193.028 55.1236 193.029C55.1236 193.03 55.1236 193.031 55.1236 193.032C55.1236 193.033 55.1236 193.034 55.1236 193.035C55.1236 193.036 55.1236 193.037 55.1236 193.038C55.1236 193.039 55.1236 193.04 55.1236 193.041C55.1236 193.042 55.1236 193.043 55.1236 193.044C55.1236 193.045 55.1236 193.046 55.1236 193.047C55.1236 193.048 55.1236 193.049 55.1236 193.05C55.1236 193.051 55.1236 193.052 55.1236 193.053C55.1236 193.054 55.1236 193.054 55.1236 193.055C55.1236 193.056 55.1236 193.057 55.1236 193.058C55.1236 193.059 55.1236 193.06 55.1236 193.061C55.1236 193.062 55.1236 193.063 55.1236 193.064C55.1236 193.065 55.1236 193.066 55.1236 193.067C55.1236 193.068 55.1236 193.069 55.1236 193.07C55.1236 193.071 55.1236 193.072 55.1236 193.073C55.1236 193.074 55.1236 193.075 55.1236 193.076C55.1236 193.077 55.1236 193.078 55.1236 193.079C55.1236 193.08 55.1236 193.081 55.1236 193.082C55.1236 193.083 55.1236 193.084 55.1236 193.085C55.1236 193.086 55.1236 193.087 55.1236 193.088C55.1236 193.089 55.1236 193.09 55.1236 193.091C55.1236 193.091 55.1236 193.092 55.1236 193.093C55.1236 193.094 55.1236 193.095 55.1236 193.096C55.1236 193.097 55.1236 193.098 55.1236 193.099C55.1236 193.1 55.1236 193.101 55.1236 193.102C55.1236 193.103 55.1236 193.104 55.1236 193.105C55.1236 193.106 55.1236 193.107 55.1236 193.108C55.1236 193.109 55.1236 193.11 55.1236 193.111C55.1236 193.112 55.1236 193.113 55.1236 193.114C55.1236 193.115 55.1236 193.116 55.1236 193.117C55.1236 193.118 55.1236 193.119 55.1236 193.12C55.1236 193.121 55.1236 193.122 55.1236 193.123C55.1236 193.124 55.1236 193.125 55.1236 193.126C55.1236 193.127 55.1236 193.127 55.1236 193.128C55.1236 193.129 55.1236 193.13 55.1236 193.131C55.1236 193.132 55.1236 193.133 55.1236 193.134C55.1236 193.135 55.1236 193.136 55.1236 193.137C55.1236 193.138 55.1236 193.139 55.1236 193.14C55.1236 193.141 55.1236 193.142 55.1236 193.143C55.1236 193.144 55.1236 193.145 55.1236 193.146C55.1236 193.147 55.1236 193.148 55.1236 193.149C55.1236 193.15 55.1236 193.151 55.1236 193.152C55.1236 193.153 55.1236 193.154 55.1236 193.155C55.1236 193.156 55.1236 193.157 55.1236 193.158C55.1236 193.159 55.1236 193.16 55.1236 193.161C55.1236 193.162 55.1236 193.162 55.1236 193.163C55.1236 193.164 55.1236 193.165 55.1236 193.166C55.1236 193.167 55.1236 193.168 55.1236 193.169C55.1236 193.17 55.1236 193.171 55.1236 193.172C55.1236 193.173 55.1236 193.174 55.1236 193.175C55.1236 193.176 55.1236 193.177 55.1236 193.178C55.1236 193.179 55.1236 193.18 55.1236 193.181C55.1236 193.182 55.1236 193.183 55.1236 193.184C55.1236 193.185 55.1236 193.186 55.1236 193.187C55.1236 193.188 55.1236 193.189 55.1236 193.19C55.1236 193.191 55.1236 193.192 55.1236 193.193C55.1236 193.194 55.1236 193.195 55.1236 193.196C55.1236 193.197 55.1236 193.197 55.1236 193.198C55.1236 193.199 55.1236 193.2 55.1236 193.201C55.1236 193.202 55.1236 193.203 55.1236 193.204C55.1236 193.205 55.1236 193.206 55.1236 193.207C55.1236 193.208 55.1236 193.209 55.1236 193.21C55.1236 193.211 55.1236 193.212 55.1236 193.213C55.1236 193.214 55.1236 193.215 55.1236 193.216C55.1236 193.217 55.1236 193.218 55.1236 193.219C55.1236 193.22 55.1236 193.221 55.1236 193.222C55.1236 193.223 55.1236 193.224 55.1236 193.225C55.1236 193.226 55.1236 193.227 55.1236 193.228C55.1236 193.229 55.1236 193.23 55.1236 193.231C55.1236 193.231 55.1236 193.232 55.1236 193.233C55.1236 193.234 55.1236 193.235 55.1236 193.236C55.1236 193.237 55.1236 193.238 55.1236 193.239C55.1236 193.24 55.1236 193.241 55.1236 193.242C55.1236 193.243 55.1236 193.244 55.1236 193.245C55.1236 193.246 55.1236 193.247 55.1236 193.248C55.1236 193.249 55.1236 193.25 55.1236 193.251C55.1236 193.252 55.1236 193.253 55.1236 193.254C55.1236 193.255 55.1236 193.256 55.1236 193.257C55.1236 193.258 55.1236 193.259 55.1236 193.26C55.1236 193.261 55.1236 193.262 55.1236 193.263C55.1236 193.264 55.1236 193.264 55.1236 193.265C55.1236 193.266 55.1236 193.267 55.1236 193.268C55.1236 193.269 55.1236 193.27 55.1236 193.271C55.1236 193.272 55.1236 193.273 55.1236 193.274C55.1236 193.275 55.1236 193.276 55.1236 193.277C55.1236 193.278 55.1236 193.279 55.1236 193.28C55.1236 193.281 55.1236 193.282 55.1236 193.283C55.1236 193.284 55.1236 193.285 55.1236 193.286C55.1236 193.287 55.1236 193.288 55.1236 193.289C55.1236 193.29 55.1236 193.291 55.1236 193.292C55.1236 193.293 55.1236 193.294 55.1236 193.295C55.1236 193.296 55.1236 193.297 55.1236 193.297C55.1236 193.298 55.1236 193.299 55.1236 193.3C55.1236 193.301 55.1236 193.302 55.1236 193.303C55.1236 193.304 55.1236 193.305 55.1236 193.306C55.1236 193.307 55.1236 193.308 55.1236 193.309C55.1236 193.31 55.1236 193.311 55.1236 193.312C55.1236 193.313 55.1236 193.314 55.1236 193.315C55.1236 193.316 55.1236 193.317 55.1236 193.318C55.1236 193.319 55.1236 193.32 55.1236 193.321C55.1236 193.322 55.1236 193.323 55.1236 193.324C55.1236 193.325 55.1236 193.326 55.1236 193.327C55.1236 193.328 55.1236 193.329 55.1236 193.329C55.1236 193.33 55.1236 193.331 55.1236 193.332C55.1236 193.333 55.1236 193.334 55.1236 193.335C55.1236 193.336 55.1236 193.337 55.1236 193.338C55.1236 193.339 55.1236 193.34 55.1236 193.341C55.1236 193.342 55.1236 193.343 55.1236 193.344C55.1236 193.345 55.1236 193.346 55.1236 193.347C55.1236 193.348 55.1236 193.349 55.1236 193.35C55.1236 193.351 55.1236 193.352 55.1236 193.353C55.1236 193.354 55.1236 193.355 55.1236 193.356C55.1236 193.357 55.1236 193.358 55.1236 193.359C55.1236 193.36 55.1236 193.36 55.1236 193.361C55.1236 193.362 55.1236 193.363 55.1236 193.364C55.1236 193.365 55.1236 193.366 55.1236 193.367C55.1236 193.368 55.1236 193.369 55.1236 193.37C55.1236 193.371 55.1236 193.372 55.1236 193.373C55.1236 193.374 55.1236 193.375 55.1236 193.376C55.1236 193.377 55.1236 193.378 55.1236 193.379C55.1236 193.38 55.1236 193.381 55.1236 193.382C55.1236 193.383 55.1236 193.384 55.1236 193.385C55.1236 193.386 55.1236 193.387 55.1236 193.388C55.1236 193.389 55.1236 193.39 55.1236 193.391C55.1236 193.391 55.1236 193.392 55.1236 193.393C55.1236 193.394 55.1236 193.395 55.1236 193.396C55.1236 193.397 55.1236 193.398 55.1236 193.399C55.1236 193.4 55.1236 193.401 55.1236 193.402C55.1236 193.403 55.1236 193.404 55.1236 193.405C55.1236 193.406 55.1236 193.407 55.1236 193.408C55.1236 193.409 55.1236 193.41 55.1236 193.411C55.1236 193.412 55.1236 193.413 55.1236 193.414C55.1236 193.415 55.1236 193.416 55.1236 193.417C55.1236 193.418 55.1236 193.419 55.1236 193.42C55.1236 193.421 55.1236 193.421 55.1236 193.422C55.1236 193.423 55.1236 193.424 55.1236 193.425C55.1236 193.426 55.1236 193.427 55.1236 193.428C55.1236 193.429 55.1236 193.43 55.1236 193.431C55.1236 193.432 55.1236 193.433 55.1236 193.434C55.1236 193.435 55.1236 193.436 55.1236 193.437C55.1236 193.438 55.1236 193.439 55.1236 193.44C55.1236 193.441 55.1236 193.442 55.1236 193.443C55.1236 193.444 55.1236 193.445 55.1236 193.446C55.1236 193.447 55.1236 193.448 55.1236 193.449C55.1236 193.45 55.1236 193.451 55.1236 193.451C55.1236 193.452 55.1236 193.453 55.1236 193.454C55.1236 193.455 55.1236 193.456 55.1236 193.457C55.1236 193.458 55.1236 193.459 55.1236 193.46C55.1236 193.461 55.1236 193.462 55.1236 193.463C55.1236 193.464 55.1236 193.465 55.1236 193.466C55.1236 193.467 55.1236 193.468 55.1236 193.469C55.1236 193.47 55.1236 193.471 55.1236 193.472C55.1236 193.473 55.1236 193.474 55.1236 193.475C55.1236 193.476 55.1236 193.477 55.1236 193.478C55.1236 193.479 55.1236 193.48 55.1236 193.48C55.1236 193.481 55.1236 193.482 55.1236 193.483C55.1236 193.484 55.1236 193.485 55.1236 193.486C55.1236 193.487 55.1236 193.488 55.1236 193.489C55.1236 193.49 55.1236 193.491 55.1236 193.492C55.1236 193.493 55.1236 193.494 55.1236 193.495C55.1236 193.496 55.1236 193.497 55.1236 193.498C55.1236 193.499 55.1236 193.5 55.1236 193.501C55.1236 193.502 55.1236 193.503 55.1236 193.504C55.1236 193.505 55.1236 193.506 55.1236 193.507C55.1236 193.508 55.1236 193.509 55.1236 193.509C55.1236 193.51 55.1236 193.511 55.1236 193.512C55.1236 193.513 55.1236 193.514 55.1236 193.515C55.1236 193.516 55.1236 193.517 55.1236 193.518C55.1236 193.519 55.1236 193.52 55.1236 193.521C55.1236 193.522 55.1236 193.523 55.1236 193.524C55.1236 193.525 55.1236 193.526 55.1236 193.527C55.1236 193.528 55.1236 193.529 55.1236 193.53C55.1236 193.531 55.1236 193.532 55.1236 193.533C55.1236 193.534 55.1236 193.535 55.1236 193.536C55.1236 193.537 55.1236 193.537 55.1236 193.538C55.1236 193.539 55.1236 193.54 55.1236 193.541C55.1236 193.542 55.1236 193.543 55.1236 193.544C55.1236 193.545 55.1236 193.546 55.1236 193.547C55.1236 193.548 55.1236 193.549 55.1236 193.55C55.1236 193.551 55.1236 193.552 55.1236 193.553C55.1236 193.554 55.1236 193.555 55.1236 193.556C55.1236 193.557 55.1236 193.558 55.1236 193.559C55.1236 193.56 55.1236 193.561 55.1236 193.562C55.1236 193.563 55.1236 193.564 55.1236 193.565C55.1236 193.565 55.1236 193.566 55.1236 193.567C55.1236 193.568 55.1236 193.569 55.1236 193.57C55.1236 193.571 55.1236 193.572 55.1236 193.573C55.1236 193.574 55.1236 193.575 55.1236 193.576C55.1236 193.577 55.1236 193.578 55.1236 193.579C55.1236 193.58 55.1236 193.581 55.1236 193.582C55.1236 193.583 55.1236 193.584 55.1236 193.585C55.1236 193.586 55.1236 193.587 55.1236 193.588C55.1236 193.589 55.1236 193.59 55.1236 193.591C55.1236 193.592 55.1236 193.593 55.1236 193.593C55.1236 193.594 55.1236 193.595 55.1236 193.596C55.1236 193.597 55.1236 193.598 55.1236 193.599C55.1236 193.6 55.1236 193.601 55.1236 193.602C55.1236 193.603 55.1236 193.604 55.1236 193.605C55.1236 193.606 55.1236 193.607 55.1236 193.608C55.1236 193.609 55.1236 193.61 55.1236 193.611C55.1236 193.612 55.1236 193.613 55.1236 193.614C55.1236 193.615 55.1236 193.616 55.1236 193.617C55.1236 193.618 55.1236 193.619 55.1236 193.62C55.1236 193.62 55.1236 193.621 55.1236 193.622C55.1236 193.623 55.1236 193.624 55.1236 193.625C55.1236 193.626 55.1236 193.627 55.1236 193.628C55.1236 193.629 55.1236 193.63 55.1236 193.631C55.1236 193.632 55.1236 193.633 55.1236 193.634C55.1236 193.635 55.1236 193.636 55.1236 193.637C55.1236 193.638 55.1236 193.639 55.1236 193.64C55.1236 193.641 55.1236 193.642 55.1236 193.643C55.1236 193.644 55.1236 193.645 55.1236 193.646C55.1236 193.647 55.1236 193.647 55.1236 193.648C55.1236 193.649 55.1236 193.65 55.1236 193.651C55.1236 193.652 55.1236 193.653 55.1236 193.654C55.1236 193.655 55.1236 193.656 55.1236 193.657C55.1236 193.658 55.1236 193.659 55.1236 193.66H56.1236ZM56.1236 192.16H57.1236V185.36H56.1236H55.1236V192.16H56.1236ZM56.1236 185.36V186.36H57.7236V185.36V184.36H56.1236V185.36ZM57.7236 185.36H56.7236V199H57.7236H58.7236V185.36H57.7236ZM57.7236 199V198H56.1236V199V200H57.7236V199ZM56.1236 199L56.9585 198.45L49.7985 187.59L48.9636 188.14L48.1287 188.69L55.2887 199.55L56.1236 199ZM48.9636 188.14V187.14H48.9236V188.14V189.14H48.9636V188.14ZM48.9236 188.14L47.9241 188.173C47.9378 188.583 47.9583 189.012 47.9854 189.46L48.9836 189.4L49.9818 189.34C49.9556 188.908 49.936 188.497 49.923 188.107L48.9236 188.14ZM48.9836 189.4L47.9842 189.434C47.9974 189.818 48.0107 190.249 48.024 190.728L49.0236 190.7L50.0232 190.672C50.0098 190.191 49.9964 189.755 49.983 189.366L48.9836 189.4ZM49.0236 190.7L48.024 190.728C48.037 191.198 48.0436 191.682 48.0436 192.18H49.0436H50.0436C50.0436 191.665 50.0368 191.162 50.0232 190.672L49.0236 190.7ZM49.0436 192.18H48.0436V199H49.0436H50.0436V192.18H49.0436ZM49.0436 199V198H47.4436V199V200H49.0436V199ZM47.4436 199H48.4436V185.36H47.4436H46.4436V199H47.4436ZM61.8522 185.36V184.36H60.8522V185.36H61.8522ZM70.2122 185.36H71.2122V184.36H70.2122V185.36ZM70.2122 186.9V187.9H71.2122V186.9H70.2122ZM63.5322 186.9V185.9H62.5322V186.9H63.5322ZM63.5322 191.26H62.5322V192.26H63.5322V191.26ZM69.7322 191.26H70.7322V190.26H69.7322V191.26ZM69.7322 192.76V193.76H70.7322V192.76H69.7322ZM63.5322 192.76V191.76H62.5322V192.76H63.5322ZM63.5322 197.46H62.5322V198.46H63.5322V197.46ZM70.4122 197.46H71.4122V196.46H70.4122V197.46ZM70.4122 199V200H71.4122V199H70.4122ZM61.8522 199H60.8522V200H61.8522V199ZM61.8522 185.36V186.36H70.2122V185.36V184.36H61.8522V185.36ZM70.2122 185.36H69.2122V186.9H70.2122H71.2122V185.36H70.2122ZM70.2122 186.9V185.9H63.5322V186.9V187.9H70.2122V186.9ZM63.5322 186.9H62.5322V191.26H63.5322H64.5322V186.9H63.5322ZM63.5322 191.26V192.26H69.7322V191.26V190.26H63.5322V191.26ZM69.7322 191.26H68.7322V192.76H69.7322H70.7322V191.26H69.7322ZM69.7322 192.76V191.76H63.5322V192.76V193.76H69.7322V192.76ZM63.5322 192.76H62.5322V197.46H63.5322H64.5322V192.76H63.5322ZM63.5322 197.46V198.46H70.4122V197.46V196.46H63.5322V197.46ZM70.4122 197.46H69.4122V199H70.4122H71.4122V197.46H70.4122ZM70.4122 199V198H61.8522V199V200H70.4122V199ZM61.8522 199H62.8522V185.36H61.8522H60.8522V199H61.8522ZM76.5813 194.04H77.5813V193.803L77.4749 193.591L76.5813 194.04ZM72.2213 185.36V184.36H70.5999L71.3276 185.809L72.2213 185.36ZM74.0812 185.36L74.9741 184.91L74.6968 184.36H74.0812V185.36ZM77.4212 191.98L76.5285 192.43L77.4186 194.195L78.313 192.433L77.4212 191.98ZM80.7812 185.36V184.36H80.1674L79.8895 184.907L80.7812 185.36ZM82.6413 185.36L83.5349 185.809L84.2626 184.36H82.6413V185.36ZM78.2812 194.04L77.3876 193.591L77.2812 193.803V194.04H78.2812ZM78.2812 199V200H79.2812V199H78.2812ZM76.5813 199H75.5812V200H76.5813V199ZM76.5813 194.04L77.4749 193.591L73.1149 184.911L72.2213 185.36L71.3276 185.809L75.6876 194.489L76.5813 194.04ZM72.2213 185.36V186.36H74.0812V185.36V184.36H72.2213V185.36ZM74.0812 185.36L73.1884 185.81L76.5285 192.43L77.4212 191.98L78.3141 191.53L74.9741 184.91L74.0812 185.36ZM77.4212 191.98L78.313 192.433L81.673 185.813L80.7812 185.36L79.8895 184.907L76.5295 191.527L77.4212 191.98ZM80.7812 185.36V186.36H82.6413V185.36V184.36H80.7812V185.36ZM82.6413 185.36L81.7477 184.911L77.3876 193.591L78.2812 194.04L79.1749 194.489L83.5349 185.809L82.6413 185.36ZM78.2812 194.04H77.2812V199H78.2812H79.2812V194.04H78.2812ZM78.2812 199V198H76.5813V199V200H78.2812V199ZM76.5813 199H77.5813V194.04H76.5813H75.5812V199H76.5813Z" fill="black" mask="url(#path-2-outside-1_23_1127)"/>
<path d="M12.5246 278.77H14.8796C16.1796 278.77 17.1396 279 17.7596 279.46C18.3896 279.92 18.7046 280.695 18.7046 281.785C18.7046 282.385 18.5896 282.885 18.3596 283.285C18.1296 283.685 17.8396 284.01 17.4896 284.26C17.1496 284.5 16.7796 284.675 16.3796 284.785C15.9796 284.885 15.6096 284.935 15.2696 284.935H13.7846V289H12.5246V278.77ZM13.7846 283.81H15.1646C15.5046 283.81 15.8096 283.78 16.0796 283.72C16.3596 283.65 16.5996 283.54 16.7996 283.39C16.9996 283.23 17.1546 283.02 17.2646 282.76C17.3746 282.49 17.4296 282.155 17.4296 281.755C17.4296 281.355 17.3696 281.035 17.2496 280.795C17.1396 280.545 16.9696 280.355 16.7396 280.225C16.5196 280.095 16.2396 280.01 15.8996 279.97C15.5596 279.92 15.1646 279.895 14.7146 279.895H13.7846V283.81ZM20.5202 283.885C20.5202 282.915 20.6702 282.095 20.9702 281.425C21.2802 280.755 21.6702 280.215 22.1402 279.805C22.6202 279.395 23.1502 279.1 23.7302 278.92C24.3202 278.73 24.8952 278.635 25.4552 278.635C26.0152 278.635 26.5852 278.715 27.1652 278.875C27.7552 279.025 28.2852 279.3 28.7552 279.7C29.2352 280.09 29.6252 280.625 29.9252 281.305C30.2352 281.985 30.3902 282.85 30.3902 283.9C30.3902 284.88 30.2352 285.705 29.9252 286.375C29.6252 287.045 29.2352 287.59 28.7552 288.01C28.2852 288.43 27.7552 288.735 27.1652 288.925C26.5852 289.105 26.0152 289.195 25.4552 289.195C24.8952 289.195 24.3202 289.105 23.7302 288.925C23.1502 288.745 22.6202 288.45 22.1402 288.04C21.6702 287.63 21.2802 287.085 20.9702 286.405C20.6702 285.725 20.5202 284.885 20.5202 283.885ZM28.9652 283.96C28.9652 282.61 28.6502 281.585 28.0202 280.885C27.4002 280.185 26.5652 279.835 25.5152 279.835C24.9852 279.835 24.5002 279.92 24.0602 280.09C23.6302 280.25 23.2552 280.495 22.9352 280.825C22.6252 281.155 22.3802 281.57 22.2002 282.07C22.0302 282.56 21.9452 283.14 21.9452 283.81C21.9452 285.16 22.2552 286.195 22.8752 286.915C23.5052 287.635 24.3452 287.995 25.3952 287.995C25.9152 287.995 26.3952 287.915 26.8352 287.755C27.2752 287.585 27.6502 287.33 27.9602 286.99C28.2802 286.65 28.5252 286.23 28.6952 285.73C28.8752 285.23 28.9652 284.64 28.9652 283.96ZM38.1567 280.18C37.9167 280.12 37.6667 280.065 37.4067 280.015C37.1767 279.965 36.9117 279.925 36.6117 279.895C36.3217 279.855 36.0167 279.835 35.6967 279.835C34.9567 279.835 34.4267 279.95 34.1067 280.18C33.7867 280.4 33.6267 280.745 33.6267 281.215C33.6367 281.585 33.7717 281.9 34.0317 282.16C34.2917 282.41 34.6167 282.645 35.0067 282.865C35.3967 283.075 35.8217 283.285 36.2817 283.495C36.7517 283.695 37.1817 283.93 37.5717 284.2C37.9617 284.46 38.2867 284.77 38.5467 285.13C38.8167 285.48 38.9517 285.91 38.9517 286.42C38.9517 287.01 38.8217 287.485 38.5617 287.845C38.3117 288.205 37.9917 288.485 37.6017 288.685C37.2117 288.885 36.7817 289.02 36.3117 289.09C35.8517 289.16 35.4117 289.195 34.9917 289.195C34.5917 289.195 34.2267 289.17 33.8967 289.12C33.5667 289.07 33.2817 289.015 33.0417 288.955C32.7617 288.885 32.5067 288.805 32.2767 288.715L32.5767 287.5C32.8067 287.6 33.0517 287.685 33.3117 287.755C33.5417 287.815 33.7967 287.87 34.0767 287.92C34.3667 287.97 34.6717 287.995 34.9917 287.995C35.3817 287.995 35.7367 287.97 36.0567 287.92C36.3867 287.87 36.6717 287.79 36.9117 287.68C37.1517 287.57 37.3367 287.425 37.4667 287.245C37.6067 287.065 37.6767 286.845 37.6767 286.585C37.6667 286.195 37.5367 285.88 37.2867 285.64C37.0467 285.39 36.7217 285.155 36.3117 284.935C35.9117 284.705 35.4767 284.485 35.0067 284.275C34.5467 284.065 34.1217 283.825 33.7317 283.555C33.3417 283.285 33.0117 282.965 32.7417 282.595C32.4817 282.225 32.3517 281.765 32.3517 281.215C32.3517 280.895 32.4067 280.58 32.5167 280.27C32.6267 279.96 32.8117 279.685 33.0717 279.445C33.3417 279.205 33.6867 279.01 34.1067 278.86C34.5367 278.71 35.0667 278.635 35.6967 278.635C36.0567 278.635 36.3967 278.655 36.7167 278.695C37.0467 278.725 37.3317 278.76 37.5717 278.8C37.8517 278.85 38.1167 278.905 38.3667 278.965L38.1567 280.18ZM46.5022 280.18C46.2622 280.12 46.0122 280.065 45.7522 280.015C45.5222 279.965 45.2572 279.925 44.9572 279.895C44.6672 279.855 44.3622 279.835 44.0422 279.835C43.3022 279.835 42.7722 279.95 42.4522 280.18C42.1322 280.4 41.9722 280.745 41.9722 281.215C41.9822 281.585 42.1172 281.9 42.3772 282.16C42.6372 282.41 42.9622 282.645 43.3522 282.865C43.7422 283.075 44.1672 283.285 44.6272 283.495C45.0972 283.695 45.5272 283.93 45.9172 284.2C46.3072 284.46 46.6322 284.77 46.8922 285.13C47.1622 285.48 47.2972 285.91 47.2972 286.42C47.2972 287.01 47.1672 287.485 46.9072 287.845C46.6572 288.205 46.3372 288.485 45.9472 288.685C45.5572 288.885 45.1272 289.02 44.6572 289.09C44.1972 289.16 43.7572 289.195 43.3372 289.195C42.9372 289.195 42.5722 289.17 42.2422 289.12C41.9122 289.07 41.6272 289.015 41.3872 288.955C41.1072 288.885 40.8522 288.805 40.6222 288.715L40.9222 287.5C41.1522 287.6 41.3972 287.685 41.6572 287.755C41.8872 287.815 42.1422 287.87 42.4222 287.92C42.7122 287.97 43.0172 287.995 43.3372 287.995C43.7272 287.995 44.0822 287.97 44.4022 287.92C44.7322 287.87 45.0172 287.79 45.2572 287.68C45.4972 287.57 45.6822 287.425 45.8122 287.245C45.9522 287.065 46.0222 286.845 46.0222 286.585C46.0122 286.195 45.8822 285.88 45.6322 285.64C45.3922 285.39 45.0672 285.155 44.6572 284.935C44.2572 284.705 43.8222 284.485 43.3522 284.275C42.8922 284.065 42.4672 283.825 42.0772 283.555C41.6872 283.285 41.3572 282.965 41.0872 282.595C40.8272 282.225 40.6972 281.765 40.6972 281.215C40.6972 280.895 40.7522 280.58 40.8622 280.27C40.9722 279.96 41.1572 279.685 41.4172 279.445C41.6872 279.205 42.0322 279.01 42.4522 278.86C42.8822 278.71 43.4122 278.635 44.0422 278.635C44.4022 278.635 44.7422 278.655 45.0622 278.695C45.3922 278.725 45.6772 278.76 45.9172 278.8C46.1972 278.85 46.4622 278.905 46.7122 278.965L46.5022 280.18ZM49.6127 278.77H55.8827V279.925H50.8727V283.195H55.5227V284.32H50.8727V287.845H56.0327V289H49.6127V278.77ZM63.7645 280.18C63.5245 280.12 63.2745 280.065 63.0145 280.015C62.7845 279.965 62.5195 279.925 62.2195 279.895C61.9295 279.855 61.6245 279.835 61.3045 279.835C60.5645 279.835 60.0345 279.95 59.7145 280.18C59.3945 280.4 59.2345 280.745 59.2345 281.215C59.2445 281.585 59.3795 281.9 59.6395 282.16C59.8995 282.41 60.2245 282.645 60.6145 282.865C61.0045 283.075 61.4295 283.285 61.8895 283.495C62.3595 283.695 62.7895 283.93 63.1795 284.2C63.5695 284.46 63.8945 284.77 64.1545 285.13C64.4245 285.48 64.5595 285.91 64.5595 286.42C64.5595 287.01 64.4295 287.485 64.1695 287.845C63.9195 288.205 63.5995 288.485 63.2095 288.685C62.8195 288.885 62.3895 289.02 61.9195 289.09C61.4595 289.16 61.0195 289.195 60.5995 289.195C60.1995 289.195 59.8345 289.17 59.5045 289.12C59.1745 289.07 58.8895 289.015 58.6495 288.955C58.3695 288.885 58.1145 288.805 57.8845 288.715L58.1845 287.5C58.4145 287.6 58.6595 287.685 58.9195 287.755C59.1495 287.815 59.4045 287.87 59.6845 287.92C59.9745 287.97 60.2795 287.995 60.5995 287.995C60.9895 287.995 61.3445 287.97 61.6645 287.92C61.9945 287.87 62.2795 287.79 62.5195 287.68C62.7595 287.57 62.9445 287.425 63.0745 287.245C63.2145 287.065 63.2845 286.845 63.2845 286.585C63.2745 286.195 63.1445 285.88 62.8945 285.64C62.6545 285.39 62.3295 285.155 61.9195 284.935C61.5195 284.705 61.0845 284.485 60.6145 284.275C60.1545 284.065 59.7295 283.825 59.3395 283.555C58.9495 283.285 58.6195 282.965 58.3495 282.595C58.0895 282.225 57.9595 281.765 57.9595 281.215C57.9595 280.895 58.0145 280.58 58.1245 280.27C58.2345 279.96 58.4195 279.685 58.6795 279.445C58.9495 279.205 59.2945 279.01 59.7145 278.86C60.1445 278.71 60.6745 278.635 61.3045 278.635C61.6645 278.635 62.0045 278.655 62.3245 278.695C62.6545 278.725 62.9395 278.76 63.1795 278.8C63.4595 278.85 63.7245 278.905 63.9745 278.965L63.7645 280.18ZM72.11 280.18C71.87 280.12 71.62 280.065 71.36 280.015C71.13 279.965 70.865 279.925 70.565 279.895C70.275 279.855 69.97 279.835 69.65 279.835C68.91 279.835 68.38 279.95 68.06 280.18C67.74 280.4 67.58 280.745 67.58 281.215C67.59 281.585 67.725 281.9 67.985 282.16C68.245 282.41 68.57 282.645 68.96 282.865C69.35 283.075 69.775 283.285 70.235 283.495C70.705 283.695 71.135 283.93 71.525 284.2C71.915 284.46 72.24 284.77 72.5 285.13C72.77 285.48 72.905 285.91 72.905 286.42C72.905 287.01 72.775 287.485 72.515 287.845C72.265 288.205 71.945 288.485 71.555 288.685C71.165 288.885 70.735 289.02 70.265 289.09C69.805 289.16 69.365 289.195 68.945 289.195C68.545 289.195 68.18 289.17 67.85 289.12C67.52 289.07 67.235 289.015 66.995 288.955C66.715 288.885 66.46 288.805 66.23 288.715L66.53 287.5C66.76 287.6 67.005 287.685 67.265 287.755C67.495 287.815 67.75 287.87 68.03 287.92C68.32 287.97 68.625 287.995 68.945 287.995C69.335 287.995 69.69 287.97 70.01 287.92C70.34 287.87 70.625 287.79 70.865 287.68C71.105 287.57 71.29 287.425 71.42 287.245C71.56 287.065 71.63 286.845 71.63 286.585C71.62 286.195 71.49 285.88 71.24 285.64C71 285.39 70.675 285.155 70.265 284.935C69.865 284.705 69.43 284.485 68.96 284.275C68.5 284.065 68.075 283.825 67.685 283.555C67.295 283.285 66.965 282.965 66.695 282.595C66.435 282.225 66.305 281.765 66.305 281.215C66.305 280.895 66.36 280.58 66.47 280.27C66.58 279.96 66.765 279.685 67.025 279.445C67.295 279.205 67.64 279.01 68.06 278.86C68.49 278.71 69.02 278.635 69.65 278.635C70.01 278.635 70.35 278.655 70.67 278.695C71 278.725 71.285 278.76 71.525 278.8C71.805 278.85 72.07 278.905 72.32 278.965L72.11 280.18ZM75.2205 278.77H76.4805V289H75.2205V278.77ZM79.012 283.885C79.012 282.915 79.162 282.095 79.462 281.425C79.772 280.755 80.162 280.215 80.632 279.805C81.112 279.395 81.642 279.1 82.222 278.92C82.812 278.73 83.387 278.635 83.947 278.635C84.507 278.635 85.077 278.715 85.657 278.875C86.247 279.025 86.777 279.3 87.247 279.7C87.727 280.09 88.117 280.625 88.417 281.305C88.727 281.985 88.882 282.85 88.882 283.9C88.882 284.88 88.727 285.705 88.417 286.375C88.117 287.045 87.727 287.59 87.247 288.01C86.777 288.43 86.247 288.735 85.657 288.925C85.077 289.105 84.507 289.195 83.947 289.195C83.387 289.195 82.812 289.105 82.222 288.925C81.642 288.745 81.112 288.45 80.632 288.04C80.162 287.63 79.772 287.085 79.462 286.405C79.162 285.725 79.012 284.885 79.012 283.885ZM87.457 283.96C87.457 282.61 87.142 281.585 86.512 280.885C85.892 280.185 85.057 279.835 84.007 279.835C83.477 279.835 82.992 279.92 82.552 280.09C82.122 280.25 81.747 280.495 81.427 280.825C81.117 281.155 80.872 281.57 80.692 282.07C80.522 282.56 80.437 283.14 80.437 283.81C80.437 285.16 80.747 286.195 81.367 286.915C81.997 287.635 82.837 287.995 83.887 287.995C84.407 287.995 84.887 287.915 85.327 287.755C85.767 287.585 86.142 287.33 86.452 286.99C86.772 286.65 87.017 286.23 87.187 285.73C87.367 285.23 87.457 284.64 87.457 283.96ZM91.4135 278.77H92.6135L97.9835 286.885H98.0135C97.9935 286.595 97.9785 286.285 97.9685 285.955C97.9485 285.675 97.9335 285.355 97.9235 284.995C97.9235 284.625 97.9235 284.25 97.9235 283.87V278.77H99.1235V289H97.9235L92.5535 280.855H92.5235C92.5335 281.155 92.5485 281.47 92.5685 281.8C92.5785 282.09 92.5885 282.415 92.5985 282.775C92.6085 283.135 92.6135 283.505 92.6135 283.885V289H91.4135V278.77ZM107.455 280.18C107.215 280.12 106.965 280.065 106.705 280.015C106.475 279.965 106.21 279.925 105.91 279.895C105.62 279.855 105.315 279.835 104.995 279.835C104.255 279.835 103.725 279.95 103.405 280.18C103.085 280.4 102.925 280.745 102.925 281.215C102.935 281.585 103.07 281.9 103.33 282.16C103.59 282.41 103.915 282.645 104.305 282.865C104.695 283.075 105.12 283.285 105.58 283.495C106.05 283.695 106.48 283.93 106.87 284.2C107.26 284.46 107.585 284.77 107.845 285.13C108.115 285.48 108.25 285.91 108.25 286.42C108.25 287.01 108.12 287.485 107.86 287.845C107.61 288.205 107.29 288.485 106.9 288.685C106.51 288.885 106.08 289.02 105.61 289.09C105.15 289.16 104.71 289.195 104.29 289.195C103.89 289.195 103.525 289.17 103.195 289.12C102.865 289.07 102.58 289.015 102.34 288.955C102.06 288.885 101.805 288.805 101.575 288.715L101.875 287.5C102.105 287.6 102.35 287.685 102.61 287.755C102.84 287.815 103.095 287.87 103.375 287.92C103.665 287.97 103.97 287.995 104.29 287.995C104.68 287.995 105.035 287.97 105.355 287.92C105.685 287.87 105.97 287.79 106.21 287.68C106.45 287.57 106.635 287.425 106.765 287.245C106.905 287.065 106.975 286.845 106.975 286.585C106.965 286.195 106.835 285.88 106.585 285.64C106.345 285.39 106.02 285.155 105.61 284.935C105.21 284.705 104.775 284.485 104.305 284.275C103.845 284.065 103.42 283.825 103.03 283.555C102.64 283.285 102.31 282.965 102.04 282.595C101.78 282.225 101.65 281.765 101.65 281.215C101.65 280.895 101.705 280.58 101.815 280.27C101.925 279.96 102.11 279.685 102.37 279.445C102.64 279.205 102.985 279.01 103.405 278.86C103.835 278.71 104.365 278.635 104.995 278.635C105.355 278.635 105.695 278.655 106.015 278.695C106.345 278.725 106.63 278.76 106.87 278.8C107.15 278.85 107.415 278.905 107.665 278.965L107.455 280.18Z" fill="black"/>
<path d="M12.3283 216.77H13.5883V221.195H18.7633V216.77H20.0233V227H18.7633V222.32H13.5883V227H12.3283V216.77ZM22.5651 221.885C22.5651 220.915 22.7151 220.095 23.0151 219.425C23.3251 218.755 23.7151 218.215 24.1851 217.805C24.6651 217.395 25.1951 217.1 25.7751 216.92C26.3651 216.73 26.9401 216.635 27.5001 216.635C28.0601 216.635 28.6301 216.715 29.2101 216.875C29.8001 217.025 30.3301 217.3 30.8001 217.7C31.2801 218.09 31.6701 218.625 31.9701 219.305C32.2801 219.985 32.4351 220.85 32.4351 221.9C32.4351 222.88 32.2801 223.705 31.9701 224.375C31.6701 225.045 31.2801 225.59 30.8001 226.01C30.3301 226.43 29.8001 226.735 29.2101 226.925C28.6301 227.105 28.0601 227.195 27.5001 227.195C26.9401 227.195 26.3651 227.105 25.7751 226.925C25.1951 226.745 24.6651 226.45 24.1851 226.04C23.7151 225.63 23.3251 225.085 23.0151 224.405C22.7151 223.725 22.5651 222.885 22.5651 221.885ZM31.0101 221.96C31.0101 220.61 30.6951 219.585 30.0651 218.885C29.4451 218.185 28.6101 217.835 27.5601 217.835C27.0301 217.835 26.5451 217.92 26.1051 218.09C25.6751 218.25 25.3001 218.495 24.9801 218.825C24.6701 219.155 24.4251 219.57 24.2451 220.07C24.0751 220.56 23.9901 221.14 23.9901 221.81C23.9901 223.16 24.3001 224.195 24.9201 224.915C25.5501 225.635 26.3901 225.995 27.4401 225.995C27.9601 225.995 28.4401 225.915 28.8801 225.755C29.3201 225.585 29.6951 225.33 30.0051 224.99C30.3251 224.65 30.5701 224.23 30.7401 223.73C30.9201 223.23 31.0101 222.64 31.0101 221.96ZM36.1516 216.77V223.16C36.1516 223.73 36.2316 224.2 36.3916 224.57C36.5616 224.93 36.7816 225.215 37.0516 225.425C37.3216 225.635 37.6266 225.78 37.9666 225.86C38.3166 225.94 38.6716 225.98 39.0316 225.98C39.3916 225.98 39.7416 225.94 40.0816 225.86C40.4216 225.78 40.7266 225.635 40.9966 225.425C41.2666 225.215 41.4816 224.93 41.6416 224.57C41.8016 224.2 41.8816 223.73 41.8816 223.16V216.77H43.1416V223.475C43.1416 223.995 43.0416 224.48 42.8416 224.93C42.6516 225.38 42.3766 225.775 42.0166 226.115C41.6566 226.445 41.2216 226.705 40.7116 226.895C40.2016 227.085 39.6366 227.18 39.0166 227.18C37.6866 227.18 36.6666 226.86 35.9566 226.22C35.2466 225.57 34.8916 224.655 34.8916 223.475V216.77H36.1516ZM51.3889 218.18C51.1489 218.12 50.8989 218.065 50.6389 218.015C50.4089 217.965 50.1439 217.925 49.8439 217.895C49.5539 217.855 49.2489 217.835 48.9289 217.835C48.1889 217.835 47.6589 217.95 47.3389 218.18C47.0189 218.4 46.8589 218.745 46.8589 219.215C46.8689 219.585 47.0039 219.9 47.2639 220.16C47.5239 220.41 47.8489 220.645 48.2389 220.865C48.6289 221.075 49.0539 221.285 49.5139 221.495C49.9839 221.695 50.4139 221.93 50.8039 222.2C51.1939 222.46 51.5189 222.77 51.7789 223.13C52.0489 223.48 52.1839 223.91 52.1839 224.42C52.1839 225.01 52.0539 225.485 51.7939 225.845C51.5439 226.205 51.2239 226.485 50.8339 226.685C50.4439 226.885 50.0139 227.02 49.5439 227.09C49.0839 227.16 48.6439 227.195 48.2239 227.195C47.8239 227.195 47.4589 227.17 47.1289 227.12C46.7989 227.07 46.5139 227.015 46.2739 226.955C45.9939 226.885 45.7389 226.805 45.5089 226.715L45.8089 225.5C46.0389 225.6 46.2839 225.685 46.5439 225.755C46.7739 225.815 47.0289 225.87 47.3089 225.92C47.5989 225.97 47.9039 225.995 48.2239 225.995C48.6139 225.995 48.9689 225.97 49.2889 225.92C49.6189 225.87 49.9039 225.79 50.1439 225.68C50.3839 225.57 50.5689 225.425 50.6989 225.245C50.8389 225.065 50.9089 224.845 50.9089 224.585C50.8989 224.195 50.7689 223.88 50.5189 223.64C50.2789 223.39 49.9539 223.155 49.5439 222.935C49.1439 222.705 48.7089 222.485 48.2389 222.275C47.7789 222.065 47.3539 221.825 46.9639 221.555C46.5739 221.285 46.2439 220.965 45.9739 220.595C45.7139 220.225 45.5839 219.765 45.5839 219.215C45.5839 218.895 45.6389 218.58 45.7489 218.27C45.8589 217.96 46.0439 217.685 46.3039 217.445C46.5739 217.205 46.9189 217.01 47.3389 216.86C47.7689 216.71 48.2989 216.635 48.9289 216.635C49.2889 216.635 49.6289 216.655 49.9489 216.695C50.2789 216.725 50.5639 216.76 50.8039 216.8C51.0839 216.85 51.3489 216.905 51.5989 216.965L51.3889 218.18ZM54.4994 216.77H60.7694V217.925H55.7594V221.195H60.4094V222.32H55.7594V225.845H60.9194V227H54.4994V216.77ZM68.6512 218.18C68.4112 218.12 68.1612 218.065 67.9012 218.015C67.6712 217.965 67.4062 217.925 67.1062 217.895C66.8162 217.855 66.5112 217.835 66.1912 217.835C65.4512 217.835 64.9212 217.95 64.6012 218.18C64.2812 218.4 64.1212 218.745 64.1212 219.215C64.1312 219.585 64.2662 219.9 64.5262 220.16C64.7862 220.41 65.1112 220.645 65.5012 220.865C65.8912 221.075 66.3162 221.285 66.7762 221.495C67.2462 221.695 67.6762 221.93 68.0662 222.2C68.4562 222.46 68.7812 222.77 69.0412 223.13C69.3112 223.48 69.4462 223.91 69.4462 224.42C69.4462 225.01 69.3162 225.485 69.0562 225.845C68.8062 226.205 68.4862 226.485 68.0962 226.685C67.7062 226.885 67.2762 227.02 66.8062 227.09C66.3462 227.16 65.9062 227.195 65.4862 227.195C65.0862 227.195 64.7212 227.17 64.3912 227.12C64.0612 227.07 63.7762 227.015 63.5362 226.955C63.2562 226.885 63.0012 226.805 62.7712 226.715L63.0712 225.5C63.3012 225.6 63.5462 225.685 63.8062 225.755C64.0362 225.815 64.2912 225.87 64.5712 225.92C64.8612 225.97 65.1662 225.995 65.4862 225.995C65.8762 225.995 66.2312 225.97 66.5512 225.92C66.8812 225.87 67.1662 225.79 67.4062 225.68C67.6462 225.57 67.8312 225.425 67.9612 225.245C68.1012 225.065 68.1712 224.845 68.1712 224.585C68.1612 224.195 68.0312 223.88 67.7812 223.64C67.5412 223.39 67.2162 223.155 66.8062 222.935C66.4062 222.705 65.9712 222.485 65.5012 222.275C65.0412 222.065 64.6162 221.825 64.2262 221.555C63.8362 221.285 63.5062 220.965 63.2362 220.595C62.9762 220.225 62.8462 219.765 62.8462 219.215C62.8462 218.895 62.9012 218.58 63.0112 218.27C63.1212 217.96 63.3062 217.685 63.5662 217.445C63.8362 217.205 64.1812 217.01 64.6012 216.86C65.0312 216.71 65.5612 216.635 66.1912 216.635C66.5512 216.635 66.8912 216.655 67.2112 216.695C67.5412 216.725 67.8262 216.76 68.0662 216.8C68.3462 216.85 68.6112 216.905 68.8612 216.965L68.6512 218.18Z" fill="black"/>
<path d="M12.447 249.77H13.707V254.195H18.882V249.77H20.142V260H18.882V255.32H13.707V260H12.447V249.77ZM22.6837 254.885C22.6837 253.915 22.8337 253.095 23.1337 252.425C23.4437 251.755 23.8337 251.215 24.3037 250.805C24.7838 250.395 25.3138 250.1 25.8938 249.92C26.4837 249.73 27.0587 249.635 27.6188 249.635C28.1788 249.635 28.7488 249.715 29.3288 249.875C29.9188 250.025 30.4488 250.3 30.9188 250.7C31.3987 251.09 31.7887 251.625 32.0888 252.305C32.3988 252.985 32.5538 253.85 32.5538 254.9C32.5538 255.88 32.3988 256.705 32.0888 257.375C31.7887 258.045 31.3987 258.59 30.9188 259.01C30.4488 259.43 29.9188 259.735 29.3288 259.925C28.7488 260.105 28.1788 260.195 27.6188 260.195C27.0587 260.195 26.4837 260.105 25.8938 259.925C25.3138 259.745 24.7838 259.45 24.3037 259.04C23.8337 258.63 23.4437 258.085 23.1337 257.405C22.8337 256.725 22.6837 255.885 22.6837 254.885ZM31.1288 254.96C31.1288 253.61 30.8138 252.585 30.1837 251.885C29.5638 251.185 28.7288 250.835 27.6787 250.835C27.1488 250.835 26.6638 250.92 26.2237 251.09C25.7937 251.25 25.4188 251.495 25.0987 251.825C24.7887 252.155 24.5437 252.57 24.3637 253.07C24.1937 253.56 24.1088 254.14 24.1088 254.81C24.1088 256.16 24.4187 257.195 25.0387 257.915C25.6688 258.635 26.5088 258.995 27.5588 258.995C28.0788 258.995 28.5588 258.915 28.9988 258.755C29.4388 258.585 29.8138 258.33 30.1238 257.99C30.4438 257.65 30.6888 257.23 30.8588 256.73C31.0388 256.23 31.1288 255.64 31.1288 254.96ZM36.9519 250.94H33.7419V249.77H41.4219V250.94H38.2119V260H36.9519V250.94ZM43.4454 249.77H49.7154V250.925H44.7054V254.195H49.3554V255.32H44.7054V258.845H49.8654V260H43.4454V249.77ZM52.3622 249.77H53.6222V258.8H58.2722V260H52.3622V249.77ZM65.5325 251.18C65.2925 251.12 65.0425 251.065 64.7825 251.015C64.5525 250.965 64.2875 250.925 63.9875 250.895C63.6975 250.855 63.3925 250.835 63.0725 250.835C62.3325 250.835 61.8025 250.95 61.4825 251.18C61.1625 251.4 61.0025 251.745 61.0025 252.215C61.0125 252.585 61.1475 252.9 61.4075 253.16C61.6675 253.41 61.9925 253.645 62.3825 253.865C62.7725 254.075 63.1975 254.285 63.6575 254.495C64.1275 254.695 64.5575 254.93 64.9475 255.2C65.3375 255.46 65.6625 255.77 65.9225 256.13C66.1925 256.48 66.3275 256.91 66.3275 257.42C66.3275 258.01 66.1975 258.485 65.9375 258.845C65.6875 259.205 65.3675 259.485 64.9775 259.685C64.5875 259.885 64.1575 260.02 63.6875 260.09C63.2275 260.16 62.7875 260.195 62.3675 260.195C61.9675 260.195 61.6025 260.17 61.2725 260.12C60.9425 260.07 60.6575 260.015 60.4175 259.955C60.1375 259.885 59.8825 259.805 59.6525 259.715L59.9525 258.5C60.1825 258.6 60.4275 258.685 60.6875 258.755C60.9175 258.815 61.1725 258.87 61.4525 258.92C61.7425 258.97 62.0475 258.995 62.3675 258.995C62.7575 258.995 63.1125 258.97 63.4325 258.92C63.7625 258.87 64.0475 258.79 64.2875 258.68C64.5275 258.57 64.7125 258.425 64.8425 258.245C64.9825 258.065 65.0525 257.845 65.0525 257.585C65.0425 257.195 64.9125 256.88 64.6625 256.64C64.4225 256.39 64.0975 256.155 63.6875 255.935C63.2875 255.705 62.8525 255.485 62.3825 255.275C61.9225 255.065 61.4975 254.825 61.1075 254.555C60.7175 254.285 60.3875 253.965 60.1175 253.595C59.8575 253.225 59.7275 252.765 59.7275 252.215C59.7275 251.895 59.7825 251.58 59.8925 251.27C60.0025 250.96 60.1875 250.685 60.4475 250.445C60.7175 250.205 61.0625 250.01 61.4825 249.86C61.9125 249.71 62.4425 249.635 63.0725 249.635C63.4325 249.635 63.7725 249.655 64.0925 249.695C64.4225 249.725 64.7075 249.76 64.9475 249.8C65.2275 249.85 65.4925 249.905 65.7425 249.965L65.5325 251.18Z" fill="black"/>
<rect x="40.5" y="52.5" width="120" height="110" rx="2.5" fill="white" stroke="black" stroke-width="5"/>
<path d="M99.5054 65.5C111.154 65.5 120.505 74.7286 120.505 86C120.505 97.2714 111.154 106.5 99.5054 106.5C87.8564 106.5 78.5054 97.2714 78.5054 86C78.5054 74.7286 87.8564 65.5 99.5054 65.5Z" stroke="black" stroke-width="5"/>
<path d="M63.0064 150.5C62.2064 99.7 137.005 98.5 137.006 150.5" stroke="black" stroke-width="5"/>
<path d="M29.8142 0.539999H34.5242C37.1242 0.539999 39.0442 0.999999 40.2842 1.92C41.5442 2.84 42.1742 4.39 42.1742 6.57C42.1742 7.77 41.9442 8.77 41.4842 9.57C41.0242 10.37 40.4442 11.02 39.7442 11.52C39.0642 12 38.3242 12.35 37.5242 12.57C36.7242 12.77 35.9842 12.87 35.3042 12.87H32.3342V21H29.8142V0.539999ZM32.3342 10.62H35.0942C35.7742 10.62 36.3842 10.56 36.9242 10.44C37.4842 10.3 37.9642 10.08 38.3642 9.78C38.7642 9.46 39.0742 9.04 39.2942 8.52C39.5142 7.98 39.6242 7.31 39.6242 6.51C39.6242 5.71 39.5042 5.07 39.2642 4.59C39.0442 4.09 38.7042 3.71 38.2442 3.45C37.8042 3.19 37.2442 3.02 36.5642 2.94C35.8842 2.84 35.0942 2.79 34.1942 2.79H32.3342V10.62ZM46.9154 0.539999H49.4354V18.6H58.7354V21H46.9154V0.539999ZM67.7361 0.539999H70.8561L77.8761 21H75.2661L73.4661 15.54H65.1561L63.3261 21H60.7161L67.7361 0.539999ZM72.6561 13.14L69.3561 2.94H69.2661L65.9361 13.14H72.6561ZM85.0262 13.56L78.4862 0.539999H81.2762L86.2862 10.47L91.3262 0.539999H94.1162L87.5762 13.56V21H85.0262V13.56ZM98.0138 0.539999H110.554V2.85H100.534V9.39H109.834V11.64H100.534V18.69H110.854V21H98.0138V0.539999ZM115.847 0.539999H120.887C121.987 0.539999 122.987 0.639999 123.887 0.839998C124.807 1.02 125.587 1.34 126.227 1.8C126.867 2.24 127.357 2.83 127.697 3.57C128.037 4.31 128.207 5.24 128.207 6.36C128.187 7.6 127.977 8.61 127.577 9.39C127.177 10.15 126.687 10.77 126.107 11.25C125.527 11.71 124.857 12.05 124.097 12.27V12.33C124.177 12.41 124.297 12.56 124.457 12.78C124.637 12.98 124.787 13.16 124.907 13.32L130.697 21H127.727L121.787 12.87H118.367V21H115.847V0.539999ZM125.657 6.78C125.657 5.94 125.547 5.26 125.327 4.74C125.127 4.2 124.817 3.79 124.397 3.51C123.997 3.23 123.497 3.04 122.897 2.94C122.297 2.84 121.617 2.79 120.857 2.79H118.367V10.62H121.337C122.117 10.62 122.777 10.52 123.317 10.32C123.857 10.12 124.297 9.85 124.637 9.51C124.977 9.15 125.227 8.74 125.387 8.28C125.547 7.82 125.637 7.32 125.657 6.78ZM140.526 19.86C142.166 18.56 143.636 17.29 144.936 16.05C145.496 15.53 146.036 14.99 146.556 14.43C147.096 13.87 147.576 13.32 147.996 12.78C148.416 12.24 148.746 11.73 148.986 11.25C149.246 10.75 149.376 10.3 149.376 9.9C149.376 9.26 149.166 8.74 148.746 8.34C148.346 7.92 147.546 7.71 146.346 7.71C145.726 7.71 145.126 7.76 144.546 7.86C143.966 7.96 143.446 8.06 142.986 8.16C142.446 8.3 141.926 8.45 141.426 8.61L140.706 6.69C141.226 6.49 141.816 6.31 142.476 6.15C143.016 6.01 143.646 5.89 144.366 5.79C145.106 5.67 145.886 5.61 146.706 5.61C147.366 5.61 148.006 5.68 148.626 5.82C149.266 5.94 149.826 6.16 150.306 6.48C150.806 6.78 151.196 7.19 151.476 7.71C151.776 8.23 151.926 8.89 151.926 9.69C151.926 10.15 151.826 10.64 151.626 11.16C151.426 11.66 151.166 12.17 150.846 12.69C150.546 13.19 150.186 13.7 149.766 14.22C149.366 14.72 148.956 15.2 148.536 15.66C147.556 16.74 146.436 17.81 145.176 18.87C145.656 18.85 146.156 18.83 146.676 18.81C147.136 18.79 147.656 18.78 148.236 18.78C148.836 18.76 149.456 18.75 150.096 18.75H152.376V21H140.526V19.86Z" fill="black"/>
</svg>
