<svg width="200" height="316" viewBox="0 0 200 316" fill="none" xmlns="http://www.w3.org/2000/svg">
<rect x="2.5" y="36.5" width="195" height="277" rx="2.5" fill="#2EC6F0" stroke="black" stroke-width="5"/>
<path d="M12.3283 225.77H13.5883V230.195H18.7633V225.77H20.0233V236H18.7633V231.32H13.5883V236H12.3283V225.77ZM22.5651 230.885C22.5651 229.915 22.7151 229.095 23.0151 228.425C23.3251 227.755 23.7151 227.215 24.1851 226.805C24.6651 226.395 25.1951 226.1 25.7751 225.92C26.3651 225.73 26.9401 225.635 27.5001 225.635C28.0601 225.635 28.6301 225.715 29.2101 225.875C29.8001 226.025 30.3301 226.3 30.8001 226.7C31.2801 227.09 31.6701 227.625 31.9701 228.305C32.2801 228.985 32.4351 229.85 32.4351 230.9C32.4351 231.88 32.2801 232.705 31.9701 233.375C31.6701 234.045 31.2801 234.59 30.8001 235.01C30.3301 235.43 29.8001 235.735 29.2101 235.925C28.6301 236.105 28.0601 236.195 27.5001 236.195C26.9401 236.195 26.3651 236.105 25.7751 235.925C25.1951 235.745 24.6651 235.45 24.1851 235.04C23.7151 234.63 23.3251 234.085 23.0151 233.405C22.7151 232.725 22.5651 231.885 22.5651 230.885ZM31.0101 230.96C31.0101 229.61 30.6951 228.585 30.0651 227.885C29.4451 227.185 28.6101 226.835 27.5601 226.835C27.0301 226.835 26.5451 226.92 26.1051 227.09C25.6751 227.25 25.3001 227.495 24.9801 227.825C24.6701 228.155 24.4251 228.57 24.2451 229.07C24.0751 229.56 23.9901 230.14 23.9901 230.81C23.9901 232.16 24.3001 233.195 24.9201 233.915C25.5501 234.635 26.3901 234.995 27.4401 234.995C27.9601 234.995 28.4401 234.915 28.8801 234.755C29.3201 234.585 29.6951 234.33 30.0051 233.99C30.3251 233.65 30.5701 233.23 30.7401 232.73C30.9201 232.23 31.0101 231.64 31.0101 230.96ZM36.1516 225.77V232.16C36.1516 232.73 36.2316 233.2 36.3916 233.57C36.5616 233.93 36.7816 234.215 37.0516 234.425C37.3216 234.635 37.6266 234.78 37.9666 234.86C38.3166 234.94 38.6716 234.98 39.0316 234.98C39.3916 234.98 39.7416 234.94 40.0816 234.86C40.4216 234.78 40.7266 234.635 40.9966 234.425C41.2666 234.215 41.4816 233.93 41.6416 233.57C41.8016 233.2 41.8816 232.73 41.8816 232.16V225.77H43.1416V232.475C43.1416 232.995 43.0416 233.48 42.8416 233.93C42.6516 234.38 42.3766 234.775 42.0166 235.115C41.6566 235.445 41.2216 235.705 40.7116 235.895C40.2016 236.085 39.6366 236.18 39.0166 236.18C37.6866 236.18 36.6666 235.86 35.9566 235.22C35.2466 234.57 34.8916 233.655 34.8916 232.475V225.77H36.1516ZM51.3889 227.18C51.1489 227.12 50.8989 227.065 50.6389 227.015C50.4089 226.965 50.1439 226.925 49.8439 226.895C49.5539 226.855 49.2489 226.835 48.9289 226.835C48.1889 226.835 47.6589 226.95 47.3389 227.18C47.0189 227.4 46.8589 227.745 46.8589 228.215C46.8689 228.585 47.0039 228.9 47.2639 229.16C47.5239 229.41 47.8489 229.645 48.2389 229.865C48.6289 230.075 49.0539 230.285 49.5139 230.495C49.9839 230.695 50.4139 230.93 50.8039 231.2C51.1939 231.46 51.5189 231.77 51.7789 232.13C52.0489 232.48 52.1839 232.91 52.1839 233.42C52.1839 234.01 52.0539 234.485 51.7939 234.845C51.5439 235.205 51.2239 235.485 50.8339 235.685C50.4439 235.885 50.0139 236.02 49.5439 236.09C49.0839 236.16 48.6439 236.195 48.2239 236.195C47.8239 236.195 47.4589 236.17 47.1289 236.12C46.7989 236.07 46.5139 236.015 46.2739 235.955C45.9939 235.885 45.7389 235.805 45.5089 235.715L45.8089 234.5C46.0389 234.6 46.2839 234.685 46.5439 234.755C46.7739 234.815 47.0289 234.87 47.3089 234.92C47.5989 234.97 47.9039 234.995 48.2239 234.995C48.6139 234.995 48.9689 234.97 49.2889 234.92C49.6189 234.87 49.9039 234.79 50.1439 234.68C50.3839 234.57 50.5689 234.425 50.6989 234.245C50.8389 234.065 50.9089 233.845 50.9089 233.585C50.8989 233.195 50.7689 232.88 50.5189 232.64C50.2789 232.39 49.9539 232.155 49.5439 231.935C49.1439 231.705 48.7089 231.485 48.2389 231.275C47.7789 231.065 47.3539 230.825 46.9639 230.555C46.5739 230.285 46.2439 229.965 45.9739 229.595C45.7139 229.225 45.5839 228.765 45.5839 228.215C45.5839 227.895 45.6389 227.58 45.7489 227.27C45.8589 226.96 46.0439 226.685 46.3039 226.445C46.5739 226.205 46.9189 226.01 47.3389 225.86C47.7689 225.71 48.2989 225.635 48.9289 225.635C49.2889 225.635 49.6289 225.655 49.9489 225.695C50.2789 225.725 50.5639 225.76 50.8039 225.8C51.0839 225.85 51.3489 225.905 51.5989 225.965L51.3889 227.18ZM54.4994 225.77H60.7694V226.925H55.7594V230.195H60.4094V231.32H55.7594V234.845H60.9194V236H54.4994V225.77ZM68.6512 227.18C68.4112 227.12 68.1612 227.065 67.9012 227.015C67.6712 226.965 67.4062 226.925 67.1062 226.895C66.8162 226.855 66.5112 226.835 66.1912 226.835C65.4512 226.835 64.9212 226.95 64.6012 227.18C64.2812 227.4 64.1212 227.745 64.1212 228.215C64.1312 228.585 64.2662 228.9 64.5262 229.16C64.7862 229.41 65.1112 229.645 65.5012 229.865C65.8912 230.075 66.3162 230.285 66.7762 230.495C67.2462 230.695 67.6762 230.93 68.0662 231.2C68.4562 231.46 68.7812 231.77 69.0412 232.13C69.3112 232.48 69.4462 232.91 69.4462 233.42C69.4462 234.01 69.3162 234.485 69.0562 234.845C68.8062 235.205 68.4862 235.485 68.0962 235.685C67.7062 235.885 67.2762 236.02 66.8062 236.09C66.3462 236.16 65.9062 236.195 65.4862 236.195C65.0862 236.195 64.7212 236.17 64.3912 236.12C64.0612 236.07 63.7762 236.015 63.5362 235.955C63.2562 235.885 63.0012 235.805 62.7712 235.715L63.0712 234.5C63.3012 234.6 63.5462 234.685 63.8062 234.755C64.0362 234.815 64.2912 234.87 64.5712 234.92C64.8612 234.97 65.1662 234.995 65.4862 234.995C65.8762 234.995 66.2312 234.97 66.5512 234.92C66.8812 234.87 67.1662 234.79 67.4062 234.68C67.6462 234.57 67.8312 234.425 67.9612 234.245C68.1012 234.065 68.1712 233.845 68.1712 233.585C68.1612 233.195 68.0312 232.88 67.7812 232.64C67.5412 232.39 67.2162 232.155 66.8062 231.935C66.4062 231.705 65.9712 231.485 65.5012 231.275C65.0412 231.065 64.6162 230.825 64.2262 230.555C63.8362 230.285 63.5062 229.965 63.2362 229.595C62.9762 229.225 62.8462 228.765 62.8462 228.215C62.8462 227.895 62.9012 227.58 63.0112 227.27C63.1212 226.96 63.3062 226.685 63.5662 226.445C63.8362 226.205 64.1812 226.01 64.6012 225.86C65.0312 225.71 65.5612 225.635 66.1912 225.635C66.5512 225.635 66.8912 225.655 67.2112 225.695C67.5412 225.725 67.8262 225.76 68.0662 225.8C68.3462 225.85 68.6112 225.905 68.8612 225.965L68.6512 227.18Z" fill="black"/>
<path d="M12.447 258.77H13.707V263.195H18.882V258.77H20.142V269H18.882V264.32H13.707V269H12.447V258.77ZM22.6837 263.885C22.6837 262.915 22.8337 262.095 23.1337 261.425C23.4437 260.755 23.8337 260.215 24.3037 259.805C24.7838 259.395 25.3138 259.1 25.8938 258.92C26.4837 258.73 27.0587 258.635 27.6188 258.635C28.1788 258.635 28.7488 258.715 29.3288 258.875C29.9188 259.025 30.4488 259.3 30.9188 259.7C31.3987 260.09 31.7887 260.625 32.0888 261.305C32.3988 261.985 32.5538 262.85 32.5538 263.9C32.5538 264.88 32.3988 265.705 32.0888 266.375C31.7887 267.045 31.3987 267.59 30.9188 268.01C30.4488 268.43 29.9188 268.735 29.3288 268.925C28.7488 269.105 28.1788 269.195 27.6188 269.195C27.0587 269.195 26.4837 269.105 25.8938 268.925C25.3138 268.745 24.7838 268.45 24.3037 268.04C23.8337 267.63 23.4437 267.085 23.1337 266.405C22.8337 265.725 22.6837 264.885 22.6837 263.885ZM31.1288 263.96C31.1288 262.61 30.8138 261.585 30.1837 260.885C29.5638 260.185 28.7288 259.835 27.6787 259.835C27.1488 259.835 26.6638 259.92 26.2237 260.09C25.7937 260.25 25.4188 260.495 25.0987 260.825C24.7887 261.155 24.5437 261.57 24.3637 262.07C24.1937 262.56 24.1088 263.14 24.1088 263.81C24.1088 265.16 24.4187 266.195 25.0387 266.915C25.6688 267.635 26.5088 267.995 27.5588 267.995C28.0788 267.995 28.5588 267.915 28.9988 267.755C29.4388 267.585 29.8138 267.33 30.1238 266.99C30.4438 266.65 30.6888 266.23 30.8588 265.73C31.0388 265.23 31.1288 264.64 31.1288 263.96ZM36.9519 259.94H33.7419V258.77H41.4219V259.94H38.2119V269H36.9519V259.94ZM43.4454 258.77H49.7154V259.925H44.7054V263.195H49.3554V264.32H44.7054V267.845H49.8654V269H43.4454V258.77ZM52.3622 258.77H53.6222V267.8H58.2722V269H52.3622V258.77ZM65.5325 260.18C65.2925 260.12 65.0425 260.065 64.7825 260.015C64.5525 259.965 64.2875 259.925 63.9875 259.895C63.6975 259.855 63.3925 259.835 63.0725 259.835C62.3325 259.835 61.8025 259.95 61.4825 260.18C61.1625 260.4 61.0025 260.745 61.0025 261.215C61.0125 261.585 61.1475 261.9 61.4075 262.16C61.6675 262.41 61.9925 262.645 62.3825 262.865C62.7725 263.075 63.1975 263.285 63.6575 263.495C64.1275 263.695 64.5575 263.93 64.9475 264.2C65.3375 264.46 65.6625 264.77 65.9225 265.13C66.1925 265.48 66.3275 265.91 66.3275 266.42C66.3275 267.01 66.1975 267.485 65.9375 267.845C65.6875 268.205 65.3675 268.485 64.9775 268.685C64.5875 268.885 64.1575 269.02 63.6875 269.09C63.2275 269.16 62.7875 269.195 62.3675 269.195C61.9675 269.195 61.6025 269.17 61.2725 269.12C60.9425 269.07 60.6575 269.015 60.4175 268.955C60.1375 268.885 59.8825 268.805 59.6525 268.715L59.9525 267.5C60.1825 267.6 60.4275 267.685 60.6875 267.755C60.9175 267.815 61.1725 267.87 61.4525 267.92C61.7425 267.97 62.0475 267.995 62.3675 267.995C62.7575 267.995 63.1125 267.97 63.4325 267.92C63.7625 267.87 64.0475 267.79 64.2875 267.68C64.5275 267.57 64.7125 267.425 64.8425 267.245C64.9825 267.065 65.0525 266.845 65.0525 266.585C65.0425 266.195 64.9125 265.88 64.6625 265.64C64.4225 265.39 64.0975 265.155 63.6875 264.935C63.2875 264.705 62.8525 264.485 62.3825 264.275C61.9225 264.065 61.4975 263.825 61.1075 263.555C60.7175 263.285 60.3875 262.965 60.1175 262.595C59.8575 262.225 59.7275 261.765 59.7275 261.215C59.7275 260.895 59.7825 260.58 59.8925 260.27C60.0025 259.96 60.1875 259.685 60.4475 259.445C60.7175 259.205 61.0625 259.01 61.4825 258.86C61.9125 258.71 62.4425 258.635 63.0725 258.635C63.4325 258.635 63.7725 258.655 64.0925 258.695C64.4225 258.725 64.7075 258.76 64.9475 258.8C65.2275 258.85 65.4925 258.905 65.7425 258.965L65.5325 260.18Z" fill="black"/>
<path d="M12.5246 287.77H14.8796C16.1796 287.77 17.1396 288 17.7596 288.46C18.3896 288.92 18.7046 289.695 18.7046 290.785C18.7046 291.385 18.5896 291.885 18.3596 292.285C18.1296 292.685 17.8396 293.01 17.4896 293.26C17.1496 293.5 16.7796 293.675 16.3796 293.785C15.9796 293.885 15.6096 293.935 15.2696 293.935H13.7846V298H12.5246V287.77ZM13.7846 292.81H15.1646C15.5046 292.81 15.8096 292.78 16.0796 292.72C16.3596 292.65 16.5996 292.54 16.7996 292.39C16.9996 292.23 17.1546 292.02 17.2646 291.76C17.3746 291.49 17.4296 291.155 17.4296 290.755C17.4296 290.355 17.3696 290.035 17.2496 289.795C17.1396 289.545 16.9696 289.355 16.7396 289.225C16.5196 289.095 16.2396 289.01 15.8996 288.97C15.5596 288.92 15.1646 288.895 14.7146 288.895H13.7846V292.81ZM20.5202 292.885C20.5202 291.915 20.6702 291.095 20.9702 290.425C21.2802 289.755 21.6702 289.215 22.1402 288.805C22.6202 288.395 23.1502 288.1 23.7302 287.92C24.3202 287.73 24.8952 287.635 25.4552 287.635C26.0152 287.635 26.5852 287.715 27.1652 287.875C27.7552 288.025 28.2852 288.3 28.7552 288.7C29.2352 289.09 29.6252 289.625 29.9252 290.305C30.2352 290.985 30.3902 291.85 30.3902 292.9C30.3902 293.88 30.2352 294.705 29.9252 295.375C29.6252 296.045 29.2352 296.59 28.7552 297.01C28.2852 297.43 27.7552 297.735 27.1652 297.925C26.5852 298.105 26.0152 298.195 25.4552 298.195C24.8952 298.195 24.3202 298.105 23.7302 297.925C23.1502 297.745 22.6202 297.45 22.1402 297.04C21.6702 296.63 21.2802 296.085 20.9702 295.405C20.6702 294.725 20.5202 293.885 20.5202 292.885ZM28.9652 292.96C28.9652 291.61 28.6502 290.585 28.0202 289.885C27.4002 289.185 26.5652 288.835 25.5152 288.835C24.9852 288.835 24.5002 288.92 24.0602 289.09C23.6302 289.25 23.2552 289.495 22.9352 289.825C22.6252 290.155 22.3802 290.57 22.2002 291.07C22.0302 291.56 21.9452 292.14 21.9452 292.81C21.9452 294.16 22.2552 295.195 22.8752 295.915C23.5052 296.635 24.3452 296.995 25.3952 296.995C25.9152 296.995 26.3952 296.915 26.8352 296.755C27.2752 296.585 27.6502 296.33 27.9602 295.99C28.2802 295.65 28.5252 295.23 28.6952 294.73C28.8752 294.23 28.9652 293.64 28.9652 292.96ZM38.1567 289.18C37.9167 289.12 37.6667 289.065 37.4067 289.015C37.1767 288.965 36.9117 288.925 36.6117 288.895C36.3217 288.855 36.0167 288.835 35.6967 288.835C34.9567 288.835 34.4267 288.95 34.1067 289.18C33.7867 289.4 33.6267 289.745 33.6267 290.215C33.6367 290.585 33.7717 290.9 34.0317 291.16C34.2917 291.41 34.6167 291.645 35.0067 291.865C35.3967 292.075 35.8217 292.285 36.2817 292.495C36.7517 292.695 37.1817 292.93 37.5717 293.2C37.9617 293.46 38.2867 293.77 38.5467 294.13C38.8167 294.48 38.9517 294.91 38.9517 295.42C38.9517 296.01 38.8217 296.485 38.5617 296.845C38.3117 297.205 37.9917 297.485 37.6017 297.685C37.2117 297.885 36.7817 298.02 36.3117 298.09C35.8517 298.16 35.4117 298.195 34.9917 298.195C34.5917 298.195 34.2267 298.17 33.8967 298.12C33.5667 298.07 33.2817 298.015 33.0417 297.955C32.7617 297.885 32.5067 297.805 32.2767 297.715L32.5767 296.5C32.8067 296.6 33.0517 296.685 33.3117 296.755C33.5417 296.815 33.7967 296.87 34.0767 296.92C34.3667 296.97 34.6717 296.995 34.9917 296.995C35.3817 296.995 35.7367 296.97 36.0567 296.92C36.3867 296.87 36.6717 296.79 36.9117 296.68C37.1517 296.57 37.3367 296.425 37.4667 296.245C37.6067 296.065 37.6767 295.845 37.6767 295.585C37.6667 295.195 37.5367 294.88 37.2867 294.64C37.0467 294.39 36.7217 294.155 36.3117 293.935C35.9117 293.705 35.4767 293.485 35.0067 293.275C34.5467 293.065 34.1217 292.825 33.7317 292.555C33.3417 292.285 33.0117 291.965 32.7417 291.595C32.4817 291.225 32.3517 290.765 32.3517 290.215C32.3517 289.895 32.4067 289.58 32.5167 289.27C32.6267 288.96 32.8117 288.685 33.0717 288.445C33.3417 288.205 33.6867 288.01 34.1067 287.86C34.5367 287.71 35.0667 287.635 35.6967 287.635C36.0567 287.635 36.3967 287.655 36.7167 287.695C37.0467 287.725 37.3317 287.76 37.5717 287.8C37.8517 287.85 38.1167 287.905 38.3667 287.965L38.1567 289.18ZM46.5022 289.18C46.2622 289.12 46.0122 289.065 45.7522 289.015C45.5222 288.965 45.2572 288.925 44.9572 288.895C44.6672 288.855 44.3622 288.835 44.0422 288.835C43.3022 288.835 42.7722 288.95 42.4522 289.18C42.1322 289.4 41.9722 289.745 41.9722 290.215C41.9822 290.585 42.1172 290.9 42.3772 291.16C42.6372 291.41 42.9622 291.645 43.3522 291.865C43.7422 292.075 44.1672 292.285 44.6272 292.495C45.0972 292.695 45.5272 292.93 45.9172 293.2C46.3072 293.46 46.6322 293.77 46.8922 294.13C47.1622 294.48 47.2972 294.91 47.2972 295.42C47.2972 296.01 47.1672 296.485 46.9072 296.845C46.6572 297.205 46.3372 297.485 45.9472 297.685C45.5572 297.885 45.1272 298.02 44.6572 298.09C44.1972 298.16 43.7572 298.195 43.3372 298.195C42.9372 298.195 42.5722 298.17 42.2422 298.12C41.9122 298.07 41.6272 298.015 41.3872 297.955C41.1072 297.885 40.8522 297.805 40.6222 297.715L40.9222 296.5C41.1522 296.6 41.3972 296.685 41.6572 296.755C41.8872 296.815 42.1422 296.87 42.4222 296.92C42.7122 296.97 43.0172 296.995 43.3372 296.995C43.7272 296.995 44.0822 296.97 44.4022 296.92C44.7322 296.87 45.0172 296.79 45.2572 296.68C45.4972 296.57 45.6822 296.425 45.8122 296.245C45.9522 296.065 46.0222 295.845 46.0222 295.585C46.0122 295.195 45.8822 294.88 45.6322 294.64C45.3922 294.39 45.0672 294.155 44.6572 293.935C44.2572 293.705 43.8222 293.485 43.3522 293.275C42.8922 293.065 42.4672 292.825 42.0772 292.555C41.6872 292.285 41.3572 291.965 41.0872 291.595C40.8272 291.225 40.6972 290.765 40.6972 290.215C40.6972 289.895 40.7522 289.58 40.8622 289.27C40.9722 288.96 41.1572 288.685 41.4172 288.445C41.6872 288.205 42.0322 288.01 42.4522 287.86C42.8822 287.71 43.4122 287.635 44.0422 287.635C44.4022 287.635 44.7422 287.655 45.0622 287.695C45.3922 287.725 45.6772 287.76 45.9172 287.8C46.1972 287.85 46.4622 287.905 46.7122 287.965L46.5022 289.18ZM49.6127 287.77H55.8827V288.925H50.8727V292.195H55.5227V293.32H50.8727V296.845H56.0327V298H49.6127V287.77ZM63.7645 289.18C63.5245 289.12 63.2745 289.065 63.0145 289.015C62.7845 288.965 62.5195 288.925 62.2195 288.895C61.9295 288.855 61.6245 288.835 61.3045 288.835C60.5645 288.835 60.0345 288.95 59.7145 289.18C59.3945 289.4 59.2345 289.745 59.2345 290.215C59.2445 290.585 59.3795 290.9 59.6395 291.16C59.8995 291.41 60.2245 291.645 60.6145 291.865C61.0045 292.075 61.4295 292.285 61.8895 292.495C62.3595 292.695 62.7895 292.93 63.1795 293.2C63.5695 293.46 63.8945 293.77 64.1545 294.13C64.4245 294.48 64.5595 294.91 64.5595 295.42C64.5595 296.01 64.4295 296.485 64.1695 296.845C63.9195 297.205 63.5995 297.485 63.2095 297.685C62.8195 297.885 62.3895 298.02 61.9195 298.09C61.4595 298.16 61.0195 298.195 60.5995 298.195C60.1995 298.195 59.8345 298.17 59.5045 298.12C59.1745 298.07 58.8895 298.015 58.6495 297.955C58.3695 297.885 58.1145 297.805 57.8845 297.715L58.1845 296.5C58.4145 296.6 58.6595 296.685 58.9195 296.755C59.1495 296.815 59.4045 296.87 59.6845 296.92C59.9745 296.97 60.2795 296.995 60.5995 296.995C60.9895 296.995 61.3445 296.97 61.6645 296.92C61.9945 296.87 62.2795 296.79 62.5195 296.68C62.7595 296.57 62.9445 296.425 63.0745 296.245C63.2145 296.065 63.2845 295.845 63.2845 295.585C63.2745 295.195 63.1445 294.88 62.8945 294.64C62.6545 294.39 62.3295 294.155 61.9195 293.935C61.5195 293.705 61.0845 293.485 60.6145 293.275C60.1545 293.065 59.7295 292.825 59.3395 292.555C58.9495 292.285 58.6195 291.965 58.3495 291.595C58.0895 291.225 57.9595 290.765 57.9595 290.215C57.9595 289.895 58.0145 289.58 58.1245 289.27C58.2345 288.96 58.4195 288.685 58.6795 288.445C58.9495 288.205 59.2945 288.01 59.7145 287.86C60.1445 287.71 60.6745 287.635 61.3045 287.635C61.6645 287.635 62.0045 287.655 62.3245 287.695C62.6545 287.725 62.9395 287.76 63.1795 287.8C63.4595 287.85 63.7245 287.905 63.9745 287.965L63.7645 289.18ZM72.11 289.18C71.87 289.12 71.62 289.065 71.36 289.015C71.13 288.965 70.865 288.925 70.565 288.895C70.275 288.855 69.97 288.835 69.65 288.835C68.91 288.835 68.38 288.95 68.06 289.18C67.74 289.4 67.58 289.745 67.58 290.215C67.59 290.585 67.725 290.9 67.985 291.16C68.245 291.41 68.57 291.645 68.96 291.865C69.35 292.075 69.775 292.285 70.235 292.495C70.705 292.695 71.135 292.93 71.525 293.2C71.915 293.46 72.24 293.77 72.5 294.13C72.77 294.48 72.905 294.91 72.905 295.42C72.905 296.01 72.775 296.485 72.515 296.845C72.265 297.205 71.945 297.485 71.555 297.685C71.165 297.885 70.735 298.02 70.265 298.09C69.805 298.16 69.365 298.195 68.945 298.195C68.545 298.195 68.18 298.17 67.85 298.12C67.52 298.07 67.235 298.015 66.995 297.955C66.715 297.885 66.46 297.805 66.23 297.715L66.53 296.5C66.76 296.6 67.005 296.685 67.265 296.755C67.495 296.815 67.75 296.87 68.03 296.92C68.32 296.97 68.625 296.995 68.945 296.995C69.335 296.995 69.69 296.97 70.01 296.92C70.34 296.87 70.625 296.79 70.865 296.68C71.105 296.57 71.29 296.425 71.42 296.245C71.56 296.065 71.63 295.845 71.63 295.585C71.62 295.195 71.49 294.88 71.24 294.64C71 294.39 70.675 294.155 70.265 293.935C69.865 293.705 69.43 293.485 68.96 293.275C68.5 293.065 68.075 292.825 67.685 292.555C67.295 292.285 66.965 291.965 66.695 291.595C66.435 291.225 66.305 290.765 66.305 290.215C66.305 289.895 66.36 289.58 66.47 289.27C66.58 288.96 66.765 288.685 67.025 288.445C67.295 288.205 67.64 288.01 68.06 287.86C68.49 287.71 69.02 287.635 69.65 287.635C70.01 287.635 70.35 287.655 70.67 287.695C71 287.725 71.285 287.76 71.525 287.8C71.805 287.85 72.07 287.905 72.32 287.965L72.11 289.18ZM75.2205 287.77H76.4805V298H75.2205V287.77ZM79.012 292.885C79.012 291.915 79.162 291.095 79.462 290.425C79.772 289.755 80.162 289.215 80.632 288.805C81.112 288.395 81.642 288.1 82.222 287.92C82.812 287.73 83.387 287.635 83.947 287.635C84.507 287.635 85.077 287.715 85.657 287.875C86.247 288.025 86.777 288.3 87.247 288.7C87.727 289.09 88.117 289.625 88.417 290.305C88.727 290.985 88.882 291.85 88.882 292.9C88.882 293.88 88.727 294.705 88.417 295.375C88.117 296.045 87.727 296.59 87.247 297.01C86.777 297.43 86.247 297.735 85.657 297.925C85.077 298.105 84.507 298.195 83.947 298.195C83.387 298.195 82.812 298.105 82.222 297.925C81.642 297.745 81.112 297.45 80.632 297.04C80.162 296.63 79.772 296.085 79.462 295.405C79.162 294.725 79.012 293.885 79.012 292.885ZM87.457 292.96C87.457 291.61 87.142 290.585 86.512 289.885C85.892 289.185 85.057 288.835 84.007 288.835C83.477 288.835 82.992 288.92 82.552 289.09C82.122 289.25 81.747 289.495 81.427 289.825C81.117 290.155 80.872 290.57 80.692 291.07C80.522 291.56 80.437 292.14 80.437 292.81C80.437 294.16 80.747 295.195 81.367 295.915C81.997 296.635 82.837 296.995 83.887 296.995C84.407 296.995 84.887 296.915 85.327 296.755C85.767 296.585 86.142 296.33 86.452 295.99C86.772 295.65 87.017 295.23 87.187 294.73C87.367 294.23 87.457 293.64 87.457 292.96ZM91.4135 287.77H92.6135L97.9835 295.885H98.0135C97.9935 295.595 97.9785 295.285 97.9685 294.955C97.9485 294.675 97.9335 294.355 97.9235 293.995C97.9235 293.625 97.9235 293.25 97.9235 292.87V287.77H99.1235V298H97.9235L92.5535 289.855H92.5235C92.5335 290.155 92.5485 290.47 92.5685 290.8C92.5785 291.09 92.5885 291.415 92.5985 291.775C92.6085 292.135 92.6135 292.505 92.6135 292.885V298H91.4135V287.77ZM107.455 289.18C107.215 289.12 106.965 289.065 106.705 289.015C106.475 288.965 106.21 288.925 105.91 288.895C105.62 288.855 105.315 288.835 104.995 288.835C104.255 288.835 103.725 288.95 103.405 289.18C103.085 289.4 102.925 289.745 102.925 290.215C102.935 290.585 103.07 290.9 103.33 291.16C103.59 291.41 103.915 291.645 104.305 291.865C104.695 292.075 105.12 292.285 105.58 292.495C106.05 292.695 106.48 292.93 106.87 293.2C107.26 293.46 107.585 293.77 107.845 294.13C108.115 294.48 108.25 294.91 108.25 295.42C108.25 296.01 108.12 296.485 107.86 296.845C107.61 297.205 107.29 297.485 106.9 297.685C106.51 297.885 106.08 298.02 105.61 298.09C105.15 298.16 104.71 298.195 104.29 298.195C103.89 298.195 103.525 298.17 103.195 298.12C102.865 298.07 102.58 298.015 102.34 297.955C102.06 297.885 101.805 297.805 101.575 297.715L101.875 296.5C102.105 296.6 102.35 296.685 102.61 296.755C102.84 296.815 103.095 296.87 103.375 296.92C103.665 296.97 103.97 296.995 104.29 296.995C104.68 296.995 105.035 296.97 105.355 296.92C105.685 296.87 105.97 296.79 106.21 296.68C106.45 296.57 106.635 296.425 106.765 296.245C106.905 296.065 106.975 295.845 106.975 295.585C106.965 295.195 106.835 294.88 106.585 294.64C106.345 294.39 106.02 294.155 105.61 293.935C105.21 293.705 104.775 293.485 104.305 293.275C103.845 293.065 103.42 292.825 103.03 292.555C102.64 292.285 102.31 291.965 102.04 291.595C101.78 291.225 101.65 290.765 101.65 290.215C101.65 289.895 101.705 289.58 101.815 289.27C101.925 288.96 102.11 288.685 102.37 288.445C102.64 288.205 102.985 288.01 103.405 287.86C103.835 287.71 104.365 287.635 104.995 287.635C105.355 287.635 105.695 287.655 106.015 287.695C106.345 287.725 106.63 287.76 106.87 287.8C107.15 287.85 107.415 287.905 107.665 287.965L107.455 289.18Z" fill="black"/>
<rect x="40.5" y="61.5" width="120" height="110" rx="2.5" fill="white" stroke="black" stroke-width="5"/>
<path d="M99.5054 74.5C111.154 74.5 120.505 83.7286 120.505 95C120.505 106.271 111.154 115.5 99.5054 115.5C87.8564 115.5 78.5054 106.271 78.5054 95C78.5054 83.7286 87.8564 74.5 99.5054 74.5Z" stroke="black" stroke-width="5"/>
<path d="M63.0064 159.5C62.2064 108.7 137.005 107.5 137.006 159.5" stroke="black" stroke-width="5"/>
<mask id="path-8-outside-1_23_1154" maskUnits="userSpaceOnUse" x="10" y="189" width="73" height="17" fill="black">
<rect fill="white" x="10" y="189" width="73" height="17"/>
<path d="M12.2603 190.36H14.4003L17.4803 198.48C17.6536 198.947 17.8136 199.38 17.9603 199.78C18.107 200.167 18.2336 200.513 18.3403 200.82C18.4736 201.167 18.587 201.487 18.6803 201.78H18.7203C18.8003 201.487 18.9003 201.167 19.0203 200.82C19.127 200.513 19.247 200.167 19.3803 199.78C19.5136 199.38 19.6736 198.947 19.8603 198.48L23.0003 190.36H25.1403L25.8403 204H24.1403L23.8003 196.5C23.7736 195.847 23.7536 195.293 23.7403 194.84C23.727 194.387 23.7203 194.013 23.7203 193.72V192.88H23.6803C23.6003 193.08 23.5003 193.353 23.3803 193.7C23.2736 193.993 23.1336 194.373 22.9603 194.84C22.8003 195.293 22.6003 195.847 22.3603 196.5L19.5403 204H17.8403L15.0003 196.5C14.747 195.86 14.5403 195.313 14.3803 194.86C14.2203 194.393 14.087 194.013 13.9803 193.72C13.8603 193.373 13.767 193.093 13.7003 192.88H13.6603C13.6736 193.093 13.687 193.373 13.7003 193.72C13.7136 194.28 13.6936 195.207 13.6403 196.5L13.2403 204H11.5403L12.2603 190.36ZM28.9083 197.18C28.9083 195.887 29.1083 194.793 29.5083 193.9C29.9216 193.007 30.4416 192.287 31.0683 191.74C31.7083 191.193 32.4149 190.8 33.1883 190.56C33.9749 190.307 34.7416 190.18 35.4883 190.18C36.2349 190.18 36.9949 190.287 37.7683 190.5C38.5549 190.7 39.2616 191.067 39.8883 191.6C40.5283 192.12 41.0483 192.833 41.4483 193.74C41.8616 194.647 42.0683 195.8 42.0683 197.2C42.0683 198.507 41.8616 199.607 41.4483 200.5C41.0483 201.393 40.5283 202.12 39.8883 202.68C39.2616 203.24 38.5549 203.647 37.7683 203.9C36.9949 204.14 36.2349 204.26 35.4883 204.26C34.7416 204.26 33.9749 204.14 33.1883 203.9C32.4149 203.66 31.7083 203.267 31.0683 202.72C30.4416 202.173 29.9216 201.447 29.5083 200.54C29.1083 199.633 28.9083 198.513 28.9083 197.18ZM40.1683 197.28C40.1683 195.48 39.7483 194.113 38.9083 193.18C38.0816 192.247 36.9683 191.78 35.5683 191.78C34.8616 191.78 34.2149 191.893 33.6283 192.12C33.0549 192.333 32.5549 192.66 32.1283 193.1C31.7149 193.54 31.3883 194.093 31.1483 194.76C30.9216 195.413 30.8083 196.187 30.8083 197.08C30.8083 198.88 31.2216 200.26 32.0483 201.22C32.8883 202.18 34.0083 202.66 35.4083 202.66C36.1016 202.66 36.7416 202.553 37.3283 202.34C37.9149 202.113 38.4149 201.773 38.8283 201.32C39.2549 200.867 39.5816 200.307 39.8083 199.64C40.0483 198.973 40.1683 198.187 40.1683 197.28ZM45.4436 190.36H47.0436L54.2036 201.18H54.2436C54.2169 200.793 54.1969 200.38 54.1836 199.94C54.1569 199.567 54.1369 199.14 54.1236 198.66C54.1236 198.167 54.1236 197.667 54.1236 197.16V190.36H55.7236V204H54.1236L46.9636 193.14H46.9236C46.9369 193.54 46.9569 193.96 46.9836 194.4C46.9969 194.787 47.0103 195.22 47.0236 195.7C47.0369 196.18 47.0436 196.673 47.0436 197.18V204H45.4436V190.36ZM59.8522 190.36H68.2122V191.9H61.5322V196.26H67.7322V197.76H61.5322V202.46H68.4122V204H59.8522V190.36ZM74.5813 199.04L70.2213 190.36H72.0813L75.4213 196.98L78.7813 190.36H80.6413L76.2813 199.04V204H74.5813V199.04Z"/>
</mask>
<path d="M12.2603 190.36H14.4003L17.4803 198.48C17.6536 198.947 17.8136 199.38 17.9603 199.78C18.107 200.167 18.2336 200.513 18.3403 200.82C18.4736 201.167 18.587 201.487 18.6803 201.78H18.7203C18.8003 201.487 18.9003 201.167 19.0203 200.82C19.127 200.513 19.247 200.167 19.3803 199.78C19.5136 199.38 19.6736 198.947 19.8603 198.48L23.0003 190.36H25.1403L25.8403 204H24.1403L23.8003 196.5C23.7736 195.847 23.7536 195.293 23.7403 194.84C23.727 194.387 23.7203 194.013 23.7203 193.72V192.88H23.6803C23.6003 193.08 23.5003 193.353 23.3803 193.7C23.2736 193.993 23.1336 194.373 22.9603 194.84C22.8003 195.293 22.6003 195.847 22.3603 196.5L19.5403 204H17.8403L15.0003 196.5C14.747 195.86 14.5403 195.313 14.3803 194.86C14.2203 194.393 14.087 194.013 13.9803 193.72C13.8603 193.373 13.767 193.093 13.7003 192.88H13.6603C13.6736 193.093 13.687 193.373 13.7003 193.72C13.7136 194.28 13.6936 195.207 13.6403 196.5L13.2403 204H11.5403L12.2603 190.36ZM28.9083 197.18C28.9083 195.887 29.1083 194.793 29.5083 193.9C29.9216 193.007 30.4416 192.287 31.0683 191.74C31.7083 191.193 32.4149 190.8 33.1883 190.56C33.9749 190.307 34.7416 190.18 35.4883 190.18C36.2349 190.18 36.9949 190.287 37.7683 190.5C38.5549 190.7 39.2616 191.067 39.8883 191.6C40.5283 192.12 41.0483 192.833 41.4483 193.74C41.8616 194.647 42.0683 195.8 42.0683 197.2C42.0683 198.507 41.8616 199.607 41.4483 200.5C41.0483 201.393 40.5283 202.12 39.8883 202.68C39.2616 203.24 38.5549 203.647 37.7683 203.9C36.9949 204.14 36.2349 204.26 35.4883 204.26C34.7416 204.26 33.9749 204.14 33.1883 203.9C32.4149 203.66 31.7083 203.267 31.0683 202.72C30.4416 202.173 29.9216 201.447 29.5083 200.54C29.1083 199.633 28.9083 198.513 28.9083 197.18ZM40.1683 197.28C40.1683 195.48 39.7483 194.113 38.9083 193.18C38.0816 192.247 36.9683 191.78 35.5683 191.78C34.8616 191.78 34.2149 191.893 33.6283 192.12C33.0549 192.333 32.5549 192.66 32.1283 193.1C31.7149 193.54 31.3883 194.093 31.1483 194.76C30.9216 195.413 30.8083 196.187 30.8083 197.08C30.8083 198.88 31.2216 200.26 32.0483 201.22C32.8883 202.18 34.0083 202.66 35.4083 202.66C36.1016 202.66 36.7416 202.553 37.3283 202.34C37.9149 202.113 38.4149 201.773 38.8283 201.32C39.2549 200.867 39.5816 200.307 39.8083 199.64C40.0483 198.973 40.1683 198.187 40.1683 197.28ZM45.4436 190.36H47.0436L54.2036 201.18H54.2436C54.2169 200.793 54.1969 200.38 54.1836 199.94C54.1569 199.567 54.1369 199.14 54.1236 198.66C54.1236 198.167 54.1236 197.667 54.1236 197.16V190.36H55.7236V204H54.1236L46.9636 193.14H46.9236C46.9369 193.54 46.9569 193.96 46.9836 194.4C46.9969 194.787 47.0103 195.22 47.0236 195.7C47.0369 196.18 47.0436 196.673 47.0436 197.18V204H45.4436V190.36ZM59.8522 190.36H68.2122V191.9H61.5322V196.26H67.7322V197.76H61.5322V202.46H68.4122V204H59.8522V190.36ZM74.5813 199.04L70.2213 190.36H72.0813L75.4213 196.98L78.7813 190.36H80.6413L76.2813 199.04V204H74.5813V199.04Z" fill="black"/>
<path d="M12.2603 190.36V189.36H11.3117L11.2617 190.307L12.2603 190.36ZM14.4003 190.36L15.3353 190.005L15.0905 189.36H14.4003V190.36ZM17.4803 198.48L18.4178 198.132L18.4153 198.125L17.4803 198.48ZM17.9603 199.78L17.0214 200.124L17.0253 200.135L17.9603 199.78ZM18.3403 200.82L17.3958 201.149L17.4011 201.164L17.407 201.179L18.3403 200.82ZM18.6803 201.78L17.7274 202.083L17.9491 202.78H18.6803V201.78ZM18.7203 201.78V202.78H19.4841L19.6851 202.043L18.7203 201.78ZM19.0203 200.82L18.0758 200.491L18.0753 200.493L19.0203 200.82ZM19.3803 199.78L20.3257 200.106L20.329 200.096L19.3803 199.78ZM19.8603 198.48L20.7889 198.851L20.793 198.841L19.8603 198.48ZM23.0003 190.36V189.36H22.3148L22.0676 189.999L23.0003 190.36ZM25.1403 190.36L26.139 190.309L26.0903 189.36H25.1403V190.36ZM25.8403 204V205H26.8929L26.839 203.949L25.8403 204ZM24.1403 204L23.1413 204.045L23.1846 205H24.1403V204ZM23.8003 196.5L22.8011 196.541L22.8013 196.545L23.8003 196.5ZM23.7403 194.84L24.7399 194.811V194.811L23.7403 194.84ZM23.7203 192.88H24.7203V191.88H23.7203V192.88ZM23.6803 192.88V191.88H23.0033L22.7518 192.509L23.6803 192.88ZM23.3803 193.7L24.3201 194.042L24.3228 194.034L24.3253 194.027L23.3803 193.7ZM22.9603 194.84L22.0229 194.492L22.02 194.499L22.0173 194.507L22.9603 194.84ZM22.3603 196.5L23.2964 196.852L23.299 196.845L22.3603 196.5ZM19.5403 204V205H20.2327L20.4763 204.352L19.5403 204ZM17.8403 204L16.9051 204.354L17.1497 205H17.8403V204ZM15.0003 196.5L15.9355 196.146L15.9329 196.139L15.9301 196.132L15.0003 196.5ZM14.3803 194.86L13.4343 195.184L13.4373 195.193L14.3803 194.86ZM13.9803 193.72L13.0353 194.047L13.0379 194.054L13.0405 194.062L13.9803 193.72ZM13.7003 192.88L14.6548 192.582L14.4355 191.88H13.7003V192.88ZM13.6603 192.88V191.88H12.5959L12.6623 192.942L13.6603 192.88ZM13.7003 193.72L14.7 193.696L14.6999 193.689L14.6996 193.682L13.7003 193.72ZM13.6403 196.5L14.639 196.553L14.6395 196.541L13.6403 196.5ZM13.2403 204V205H14.1884L14.2389 204.053L13.2403 204ZM11.5403 204L10.5417 203.947L10.4861 205H11.5403V204ZM12.2603 190.36V191.36H14.4003V190.36V189.36H12.2603V190.36ZM14.4003 190.36L13.4653 190.715L16.5453 198.835L17.4803 198.48L18.4153 198.125L15.3353 190.005L14.4003 190.36ZM17.4803 198.48L16.5429 198.828C16.7158 199.294 16.8753 199.726 17.0214 200.124L17.9603 199.78L18.8992 199.436C18.752 199.034 18.5915 198.6 18.4177 198.132L17.4803 198.48ZM17.9603 199.78L17.0253 200.135C17.1695 200.515 17.2929 200.853 17.3958 201.149L18.3403 200.82L19.2848 200.491C19.1744 200.174 19.0444 199.818 18.8953 199.425L17.9603 199.78ZM18.3403 200.82L17.407 201.179C17.5346 201.511 17.6411 201.812 17.7274 202.083L18.6803 201.78L19.6332 201.477C19.5329 201.161 19.4127 200.822 19.2737 200.461L18.3403 200.82ZM18.6803 201.78V202.78H18.7203V201.78V200.78H18.6803V201.78ZM18.7203 201.78L19.6851 202.043C19.7582 201.775 19.8512 201.477 19.9653 201.147L19.0203 200.82L18.0753 200.493C17.9495 200.857 17.8425 201.198 17.7555 201.517L18.7203 201.78ZM19.0203 200.82L19.9648 201.149C20.0718 200.841 20.1921 200.493 20.3257 200.106L19.3803 199.78L18.4349 199.454C18.3018 199.84 18.1821 200.186 18.0758 200.491L19.0203 200.82ZM19.3803 199.78L20.329 200.096C20.4551 199.718 20.6081 199.303 20.7888 198.851L19.8603 198.48L18.9318 198.109C18.7392 198.59 18.5722 199.042 18.4316 199.464L19.3803 199.78ZM19.8603 198.48L20.793 198.841L23.933 190.721L23.0003 190.36L22.0676 189.999L18.9276 198.119L19.8603 198.48ZM23.0003 190.36V191.36H25.1403V190.36V189.36H23.0003V190.36ZM25.1403 190.36L24.1416 190.411L24.8416 204.051L25.8403 204L26.839 203.949L26.139 190.309L25.1403 190.36ZM25.8403 204V203H24.1403V204V205H25.8403V204ZM24.1403 204L25.1393 203.955L24.7993 196.455L23.8003 196.5L22.8013 196.545L23.1413 204.045L24.1403 204ZM23.8003 196.5L24.7995 196.459C24.7729 195.808 24.7531 195.259 24.7399 194.811L23.7403 194.84L22.7407 194.869C22.7542 195.328 22.7744 195.885 22.8011 196.541L23.8003 196.5ZM23.7403 194.84L24.7399 194.811C24.7267 194.362 24.7203 194 24.7203 193.72H23.7203H22.7203C22.7203 194.027 22.7273 194.411 22.7407 194.869L23.7403 194.84ZM23.7203 193.72H24.7203V192.88H23.7203H22.7203V193.72H23.7203ZM23.7203 192.88V191.88H23.6803V192.88V193.88H23.7203V192.88ZM23.6803 192.88L22.7518 192.509C22.6633 192.73 22.5574 193.02 22.4353 193.373L23.3803 193.7L24.3253 194.027C24.4432 193.687 24.5373 193.43 24.6088 193.251L23.6803 192.88ZM23.3803 193.7L22.4405 193.358C22.335 193.649 22.1958 194.026 22.0229 194.492L22.9603 194.84L23.8977 195.188C24.0715 194.72 24.2123 194.338 24.3201 194.042L23.3803 193.7ZM22.9603 194.84L22.0173 194.507C21.8592 194.955 21.6608 195.504 21.4216 196.155L22.3603 196.5L23.299 196.845C23.5399 196.189 23.7414 195.631 23.9033 195.173L22.9603 194.84ZM22.3603 196.5L21.4243 196.148L18.6043 203.648L19.5403 204L20.4763 204.352L23.2963 196.852L22.3603 196.5ZM19.5403 204V203H17.8403V204V205H19.5403V204ZM17.8403 204L18.7755 203.646L15.9355 196.146L15.0003 196.5L14.0651 196.854L16.9051 204.354L17.8403 204ZM15.0003 196.5L15.9301 196.132C15.6796 195.499 15.4778 194.965 15.3233 194.527L14.3803 194.86L13.4373 195.193C13.6028 195.662 13.8143 196.221 14.0705 196.868L15.0003 196.5ZM14.3803 194.86L15.3263 194.536C15.1653 194.066 15.0297 193.68 14.9201 193.378L13.9803 193.72L13.0405 194.062C13.1442 194.347 13.2754 194.721 13.4344 195.184L14.3803 194.86ZM13.9803 193.72L14.9253 193.393C14.8068 193.051 14.7172 192.781 14.6548 192.582L13.7003 192.88L12.7458 193.178C12.8168 193.405 12.9138 193.696 13.0353 194.047L13.9803 193.72ZM13.7003 192.88V191.88H13.6603V192.88V193.88H13.7003V192.88ZM13.6603 192.88L12.6623 192.942C12.6749 193.144 12.6879 193.416 12.7011 193.758L13.7003 193.72L14.6996 193.682C14.6861 193.331 14.6724 193.042 14.6584 192.818L13.6603 192.88ZM13.7003 193.72L12.7006 193.744C12.7131 194.268 12.6944 195.167 12.6412 196.459L13.6403 196.5L14.6395 196.541C14.6928 195.247 14.7142 194.292 14.7 193.696L13.7003 193.72ZM13.6403 196.5L12.6417 196.447L12.2417 203.947L13.2403 204L14.2389 204.053L14.6389 196.553L13.6403 196.5ZM13.2403 204V203H11.5403V204V205H13.2403V204ZM11.5403 204L12.5389 204.053L13.2589 190.413L12.2603 190.36L11.2617 190.307L10.5417 203.947L11.5403 204ZM29.5083 193.9L28.6006 193.48L28.5956 193.491L29.5083 193.9ZM31.0683 191.74L30.4188 190.98L30.4109 190.986L31.0683 191.74ZM33.1883 190.56L33.4847 191.515L33.4948 191.512L33.1883 190.56ZM37.7683 190.5L37.5024 191.464L37.5121 191.467L37.5219 191.469L37.7683 190.5ZM39.8883 191.6L39.2402 192.362L39.2488 192.369L39.2577 192.376L39.8883 191.6ZM41.4483 193.74L40.5333 194.144L40.5384 194.155L41.4483 193.74ZM41.4483 200.5L40.5406 200.08L40.5356 200.091L41.4483 200.5ZM39.8883 202.68L39.2297 201.927L39.222 201.934L39.8883 202.68ZM37.7683 203.9L38.0647 204.855L38.0748 204.852L37.7683 203.9ZM33.1883 203.9L32.8919 204.855L32.8965 204.856L33.1883 203.9ZM31.0683 202.72L30.4109 203.474L30.4188 203.48L31.0683 202.72ZM29.5083 200.54L28.5933 200.944L28.5984 200.955L29.5083 200.54ZM38.9083 193.18L38.1597 193.843L38.165 193.849L38.9083 193.18ZM33.6283 192.12L33.977 193.057L33.9887 193.053L33.6283 192.12ZM32.1283 193.1L31.4104 192.404L31.4049 192.41L31.3994 192.415L32.1283 193.1ZM31.1483 194.76L30.2073 194.421L30.2035 194.432L31.1483 194.76ZM32.0483 201.22L31.2905 201.873L31.2957 201.879L32.0483 201.22ZM37.3283 202.34L37.67 203.28L37.6794 203.276L37.6887 203.273L37.3283 202.34ZM38.8283 201.32L38.1001 200.635L38.0947 200.64L38.0893 200.646L38.8283 201.32ZM39.8083 199.64L38.8674 199.301L38.8644 199.31L38.8615 199.318L39.8083 199.64ZM28.9083 197.18H29.9083C29.9083 195.984 30.0939 195.039 30.421 194.309L29.5083 193.9L28.5956 193.491C28.1227 194.547 27.9083 195.789 27.9083 197.18H28.9083ZM29.5083 193.9L30.4158 194.32C30.7808 193.531 31.2225 192.932 31.7257 192.494L31.0683 191.74L30.4109 190.986C29.6607 191.641 29.0624 192.482 28.6007 193.48L29.5083 193.9ZM31.0683 191.74L31.7178 192.5C32.2587 192.038 32.8462 191.713 33.4847 191.515L33.1883 190.56L32.8919 189.605C31.9837 189.887 31.1579 190.348 30.4188 190.98L31.0683 191.74ZM33.1883 190.56L33.4948 191.512C34.1929 191.287 34.8562 191.18 35.4883 191.18V190.18V189.18C34.6271 189.18 33.757 189.326 32.8818 189.608L33.1883 190.56ZM35.4883 190.18V191.18C36.1387 191.18 36.8092 191.273 37.5024 191.464L37.7683 190.5L38.0342 189.536C37.1807 189.301 36.3312 189.18 35.4883 189.18V190.18ZM37.7683 190.5L37.5219 191.469C38.1584 191.631 38.7281 191.926 39.2402 192.362L39.8883 191.6L40.5364 190.838C39.7951 190.208 38.9515 189.769 38.0147 189.531L37.7683 190.5ZM39.8883 191.6L39.2577 192.376C39.7523 192.778 40.1845 193.353 40.5334 194.144L41.4483 193.74L42.3632 193.336C41.912 192.314 41.3042 191.462 40.5189 190.824L39.8883 191.6ZM41.4483 193.74L40.5384 194.155C40.8734 194.89 41.0683 195.889 41.0683 197.2H42.0683H43.0683C43.0683 195.711 42.8498 194.404 42.3582 193.325L41.4483 193.74ZM42.0683 197.2H41.0683C41.0683 198.407 40.8767 199.354 40.5407 200.08L41.4483 200.5L42.3558 200.92C42.8466 199.859 43.0683 198.606 43.0683 197.2H42.0683ZM41.4483 200.5L40.5356 200.091C40.1857 200.873 39.746 201.476 39.2298 201.927L39.8883 202.68L40.5468 203.433C41.3105 202.764 41.9109 201.914 42.361 200.909L41.4483 200.5ZM39.8883 202.68L39.222 201.934C38.6977 202.403 38.1131 202.738 37.4618 202.948L37.7683 203.9L38.0748 204.852C38.9968 204.555 39.8256 204.077 40.5546 203.426L39.8883 202.68ZM37.7683 203.9L37.4719 202.945C36.7865 203.158 36.1263 203.26 35.4883 203.26V204.26V205.26C36.3436 205.26 37.2034 205.122 38.0647 204.855L37.7683 203.9ZM35.4883 204.26V203.26C34.85 203.26 34.1817 203.158 33.4801 202.944L33.1883 203.9L32.8965 204.856C33.7682 205.122 34.6333 205.26 35.4883 205.26V204.26ZM33.1883 203.9L33.4847 202.945C32.8462 202.747 32.2587 202.422 31.7178 201.96L31.0683 202.72L30.4188 203.48C31.1579 204.112 31.9837 204.573 32.8919 204.855L33.1883 203.9ZM31.0683 202.72L31.7256 201.966C31.2255 201.53 30.784 200.928 30.4182 200.125L29.5083 200.54L28.5984 200.955C29.0593 201.966 29.6578 202.817 30.4109 203.474L31.0683 202.72ZM29.5083 200.54L30.4232 200.136C30.0951 199.393 29.9083 198.42 29.9083 197.18H28.9083H27.9083C27.9083 198.607 28.1214 199.874 28.5934 200.944L29.5083 200.54ZM40.1683 197.28H41.1683C41.1683 195.339 40.7162 193.694 39.6516 192.511L38.9083 193.18L38.165 193.849C38.7804 194.533 39.1683 195.621 39.1683 197.28H40.1683ZM38.9083 193.18L39.6569 192.517C38.6159 191.342 37.2154 190.78 35.5683 190.78V191.78V192.78C36.7212 192.78 37.5473 193.152 38.1597 193.843L38.9083 193.18ZM35.5683 191.78V190.78C34.7535 190.78 33.9828 190.911 33.2679 191.187L33.6283 192.12L33.9887 193.053C34.4471 192.876 34.9697 192.78 35.5683 192.78V191.78ZM33.6283 192.12L33.2795 191.183C32.5665 191.448 31.9404 191.857 31.4104 192.404L32.1283 193.1L32.8462 193.796C33.1695 193.463 33.5434 193.219 33.977 193.057L33.6283 192.12ZM32.1283 193.1L31.3994 192.415C30.8777 192.971 30.4857 193.648 30.2074 194.421L31.1483 194.76L32.0892 195.099C32.2908 194.539 32.5522 194.109 32.8571 193.785L32.1283 193.1ZM31.1483 194.76L30.2035 194.432C29.9314 195.217 29.8083 196.106 29.8083 197.08H30.8083H31.8083C31.8083 196.267 31.9118 195.61 32.093 195.088L31.1483 194.76ZM30.8083 197.08H29.8083C29.8083 199.02 30.253 200.668 31.2905 201.873L32.0483 201.22L32.806 200.567C32.1902 199.852 31.8083 198.74 31.8083 197.08H30.8083ZM32.0483 201.22L31.2957 201.879C32.3455 203.078 33.7515 203.66 35.4083 203.66V202.66V201.66C34.265 201.66 33.4311 201.282 32.8009 200.561L32.0483 201.22ZM35.4083 202.66V203.66C36.2053 203.66 36.9624 203.537 37.67 203.28L37.3283 202.34L36.9865 201.4C36.5209 201.57 35.9979 201.66 35.4083 201.66V202.66ZM37.3283 202.34L37.6887 203.273C38.4161 202.992 39.0468 202.565 39.5672 201.994L38.8283 201.32L38.0893 200.646C37.7831 200.982 37.4138 201.235 36.9679 201.407L37.3283 202.34ZM38.8283 201.32L39.5565 202.005C40.0933 201.435 40.4884 200.746 40.7551 199.962L39.8083 199.64L38.8615 199.318C38.6748 199.867 38.4166 200.298 38.1001 200.635L38.8283 201.32ZM39.8083 199.64L40.7492 199.979C41.0375 199.178 41.1683 198.271 41.1683 197.28H40.1683H39.1683C39.1683 198.102 39.0591 198.769 38.8674 199.301L39.8083 199.64ZM45.4436 190.36V189.36H44.4436V190.36H45.4436ZM47.0436 190.36L47.8775 189.808L47.581 189.36H47.0436V190.36ZM54.2036 201.18L53.3697 201.732L53.6662 202.18H54.2036V201.18ZM54.2436 201.18V202.18H55.3149L55.2412 201.111L54.2436 201.18ZM54.1836 199.94L55.1831 199.91L55.1825 199.889L55.1811 199.869L54.1836 199.94ZM54.1236 198.66H53.1236V198.674L53.124 198.688L54.1236 198.66ZM54.1236 190.36V189.36H53.1236V190.36H54.1236ZM55.7236 190.36H56.7236V189.36H55.7236V190.36ZM55.7236 204V205H56.7236V204H55.7236ZM54.1236 204L53.2887 204.55L53.5851 205H54.1236V204ZM46.9636 193.14L47.7985 192.59L47.5021 192.14H46.9636V193.14ZM46.9236 193.14V192.14H45.8897L45.9241 193.173L46.9236 193.14ZM46.9836 194.4L47.983 194.366L47.9826 194.353L47.9818 194.34L46.9836 194.4ZM47.0436 204V205H48.0436V204H47.0436ZM45.4436 204H44.4436V205H45.4436V204ZM45.4436 190.36V191.36H47.0436V190.36V189.36H45.4436V190.36ZM47.0436 190.36L46.2097 190.912L53.3697 201.732L54.2036 201.18L55.0375 200.628L47.8775 189.808L47.0436 190.36ZM54.2036 201.18V202.18H54.2436V201.18V200.18H54.2036V201.18ZM54.2436 201.18L55.2412 201.111C55.2155 200.739 55.1961 200.339 55.1831 199.91L54.1836 199.94L53.1841 199.97C53.1977 200.421 53.2183 200.848 53.246 201.249L54.2436 201.18ZM54.1836 199.94L55.1811 199.869C55.1557 199.513 55.1362 199.102 55.1232 198.632L54.1236 198.66L53.124 198.688C53.1376 199.178 53.1582 199.62 53.1861 200.011L54.1836 199.94ZM54.1236 198.66H55.1236C55.1236 198.659 55.1236 198.658 55.1236 198.657C55.1236 198.656 55.1236 198.655 55.1236 198.654C55.1236 198.653 55.1236 198.652 55.1236 198.651C55.1236 198.65 55.1236 198.649 55.1236 198.648C55.1236 198.647 55.1236 198.647 55.1236 198.646C55.1236 198.645 55.1236 198.644 55.1236 198.643C55.1236 198.642 55.1236 198.641 55.1236 198.64C55.1236 198.639 55.1236 198.638 55.1236 198.637C55.1236 198.636 55.1236 198.635 55.1236 198.634C55.1236 198.633 55.1236 198.632 55.1236 198.631C55.1236 198.63 55.1236 198.629 55.1236 198.628C55.1236 198.627 55.1236 198.626 55.1236 198.625C55.1236 198.624 55.1236 198.623 55.1236 198.622C55.1236 198.621 55.1236 198.62 55.1236 198.62C55.1236 198.619 55.1236 198.618 55.1236 198.617C55.1236 198.616 55.1236 198.615 55.1236 198.614C55.1236 198.613 55.1236 198.612 55.1236 198.611C55.1236 198.61 55.1236 198.609 55.1236 198.608C55.1236 198.607 55.1236 198.606 55.1236 198.605C55.1236 198.604 55.1236 198.603 55.1236 198.602C55.1236 198.601 55.1236 198.6 55.1236 198.599C55.1236 198.598 55.1236 198.597 55.1236 198.596C55.1236 198.595 55.1236 198.594 55.1236 198.593C55.1236 198.593 55.1236 198.592 55.1236 198.591C55.1236 198.59 55.1236 198.589 55.1236 198.588C55.1236 198.587 55.1236 198.586 55.1236 198.585C55.1236 198.584 55.1236 198.583 55.1236 198.582C55.1236 198.581 55.1236 198.58 55.1236 198.579C55.1236 198.578 55.1236 198.577 55.1236 198.576C55.1236 198.575 55.1236 198.574 55.1236 198.573C55.1236 198.572 55.1236 198.571 55.1236 198.57C55.1236 198.569 55.1236 198.568 55.1236 198.567C55.1236 198.566 55.1236 198.565 55.1236 198.565C55.1236 198.564 55.1236 198.563 55.1236 198.562C55.1236 198.561 55.1236 198.56 55.1236 198.559C55.1236 198.558 55.1236 198.557 55.1236 198.556C55.1236 198.555 55.1236 198.554 55.1236 198.553C55.1236 198.552 55.1236 198.551 55.1236 198.55C55.1236 198.549 55.1236 198.548 55.1236 198.547C55.1236 198.546 55.1236 198.545 55.1236 198.544C55.1236 198.543 55.1236 198.542 55.1236 198.541C55.1236 198.54 55.1236 198.539 55.1236 198.538C55.1236 198.537 55.1236 198.537 55.1236 198.536C55.1236 198.535 55.1236 198.534 55.1236 198.533C55.1236 198.532 55.1236 198.531 55.1236 198.53C55.1236 198.529 55.1236 198.528 55.1236 198.527C55.1236 198.526 55.1236 198.525 55.1236 198.524C55.1236 198.523 55.1236 198.522 55.1236 198.521C55.1236 198.52 55.1236 198.519 55.1236 198.518C55.1236 198.517 55.1236 198.516 55.1236 198.515C55.1236 198.514 55.1236 198.513 55.1236 198.512C55.1236 198.511 55.1236 198.51 55.1236 198.509C55.1236 198.509 55.1236 198.508 55.1236 198.507C55.1236 198.506 55.1236 198.505 55.1236 198.504C55.1236 198.503 55.1236 198.502 55.1236 198.501C55.1236 198.5 55.1236 198.499 55.1236 198.498C55.1236 198.497 55.1236 198.496 55.1236 198.495C55.1236 198.494 55.1236 198.493 55.1236 198.492C55.1236 198.491 55.1236 198.49 55.1236 198.489C55.1236 198.488 55.1236 198.487 55.1236 198.486C55.1236 198.485 55.1236 198.484 55.1236 198.483C55.1236 198.482 55.1236 198.481 55.1236 198.48C55.1236 198.48 55.1236 198.479 55.1236 198.478C55.1236 198.477 55.1236 198.476 55.1236 198.475C55.1236 198.474 55.1236 198.473 55.1236 198.472C55.1236 198.471 55.1236 198.47 55.1236 198.469C55.1236 198.468 55.1236 198.467 55.1236 198.466C55.1236 198.465 55.1236 198.464 55.1236 198.463C55.1236 198.462 55.1236 198.461 55.1236 198.46C55.1236 198.459 55.1236 198.458 55.1236 198.457C55.1236 198.456 55.1236 198.455 55.1236 198.454C55.1236 198.453 55.1236 198.452 55.1236 198.451C55.1236 198.451 55.1236 198.45 55.1236 198.449C55.1236 198.448 55.1236 198.447 55.1236 198.446C55.1236 198.445 55.1236 198.444 55.1236 198.443C55.1236 198.442 55.1236 198.441 55.1236 198.44C55.1236 198.439 55.1236 198.438 55.1236 198.437C55.1236 198.436 55.1236 198.435 55.1236 198.434C55.1236 198.433 55.1236 198.432 55.1236 198.431C55.1236 198.43 55.1236 198.429 55.1236 198.428C55.1236 198.427 55.1236 198.426 55.1236 198.425C55.1236 198.424 55.1236 198.423 55.1236 198.422C55.1236 198.421 55.1236 198.421 55.1236 198.42C55.1236 198.419 55.1236 198.418 55.1236 198.417C55.1236 198.416 55.1236 198.415 55.1236 198.414C55.1236 198.413 55.1236 198.412 55.1236 198.411C55.1236 198.41 55.1236 198.409 55.1236 198.408C55.1236 198.407 55.1236 198.406 55.1236 198.405C55.1236 198.404 55.1236 198.403 55.1236 198.402C55.1236 198.401 55.1236 198.4 55.1236 198.399C55.1236 198.398 55.1236 198.397 55.1236 198.396C55.1236 198.395 55.1236 198.394 55.1236 198.393C55.1236 198.392 55.1236 198.391 55.1236 198.391C55.1236 198.39 55.1236 198.389 55.1236 198.388C55.1236 198.387 55.1236 198.386 55.1236 198.385C55.1236 198.384 55.1236 198.383 55.1236 198.382C55.1236 198.381 55.1236 198.38 55.1236 198.379C55.1236 198.378 55.1236 198.377 55.1236 198.376C55.1236 198.375 55.1236 198.374 55.1236 198.373C55.1236 198.372 55.1236 198.371 55.1236 198.37C55.1236 198.369 55.1236 198.368 55.1236 198.367C55.1236 198.366 55.1236 198.365 55.1236 198.364C55.1236 198.363 55.1236 198.362 55.1236 198.361C55.1236 198.36 55.1236 198.36 55.1236 198.359C55.1236 198.358 55.1236 198.357 55.1236 198.356C55.1236 198.355 55.1236 198.354 55.1236 198.353C55.1236 198.352 55.1236 198.351 55.1236 198.35C55.1236 198.349 55.1236 198.348 55.1236 198.347C55.1236 198.346 55.1236 198.345 55.1236 198.344C55.1236 198.343 55.1236 198.342 55.1236 198.341C55.1236 198.34 55.1236 198.339 55.1236 198.338C55.1236 198.337 55.1236 198.336 55.1236 198.335C55.1236 198.334 55.1236 198.333 55.1236 198.332C55.1236 198.331 55.1236 198.33 55.1236 198.329C55.1236 198.329 55.1236 198.328 55.1236 198.327C55.1236 198.326 55.1236 198.325 55.1236 198.324C55.1236 198.323 55.1236 198.322 55.1236 198.321C55.1236 198.32 55.1236 198.319 55.1236 198.318C55.1236 198.317 55.1236 198.316 55.1236 198.315C55.1236 198.314 55.1236 198.313 55.1236 198.312C55.1236 198.311 55.1236 198.31 55.1236 198.309C55.1236 198.308 55.1236 198.307 55.1236 198.306C55.1236 198.305 55.1236 198.304 55.1236 198.303C55.1236 198.302 55.1236 198.301 55.1236 198.3C55.1236 198.299 55.1236 198.298 55.1236 198.297C55.1236 198.297 55.1236 198.296 55.1236 198.295C55.1236 198.294 55.1236 198.293 55.1236 198.292C55.1236 198.291 55.1236 198.29 55.1236 198.289C55.1236 198.288 55.1236 198.287 55.1236 198.286C55.1236 198.285 55.1236 198.284 55.1236 198.283C55.1236 198.282 55.1236 198.281 55.1236 198.28C55.1236 198.279 55.1236 198.278 55.1236 198.277C55.1236 198.276 55.1236 198.275 55.1236 198.274C55.1236 198.273 55.1236 198.272 55.1236 198.271C55.1236 198.27 55.1236 198.269 55.1236 198.268C55.1236 198.267 55.1236 198.266 55.1236 198.265C55.1236 198.264 55.1236 198.264 55.1236 198.263C55.1236 198.262 55.1236 198.261 55.1236 198.26C55.1236 198.259 55.1236 198.258 55.1236 198.257C55.1236 198.256 55.1236 198.255 55.1236 198.254C55.1236 198.253 55.1236 198.252 55.1236 198.251C55.1236 198.25 55.1236 198.249 55.1236 198.248C55.1236 198.247 55.1236 198.246 55.1236 198.245C55.1236 198.244 55.1236 198.243 55.1236 198.242C55.1236 198.241 55.1236 198.24 55.1236 198.239C55.1236 198.238 55.1236 198.237 55.1236 198.236C55.1236 198.235 55.1236 198.234 55.1236 198.233C55.1236 198.232 55.1236 198.231 55.1236 198.231C55.1236 198.23 55.1236 198.229 55.1236 198.228C55.1236 198.227 55.1236 198.226 55.1236 198.225C55.1236 198.224 55.1236 198.223 55.1236 198.222C55.1236 198.221 55.1236 198.22 55.1236 198.219C55.1236 198.218 55.1236 198.217 55.1236 198.216C55.1236 198.215 55.1236 198.214 55.1236 198.213C55.1236 198.212 55.1236 198.211 55.1236 198.21C55.1236 198.209 55.1236 198.208 55.1236 198.207C55.1236 198.206 55.1236 198.205 55.1236 198.204C55.1236 198.203 55.1236 198.202 55.1236 198.201C55.1236 198.2 55.1236 198.199 55.1236 198.198C55.1236 198.197 55.1236 198.197 55.1236 198.196C55.1236 198.195 55.1236 198.194 55.1236 198.193C55.1236 198.192 55.1236 198.191 55.1236 198.19C55.1236 198.189 55.1236 198.188 55.1236 198.187C55.1236 198.186 55.1236 198.185 55.1236 198.184C55.1236 198.183 55.1236 198.182 55.1236 198.181C55.1236 198.18 55.1236 198.179 55.1236 198.178C55.1236 198.177 55.1236 198.176 55.1236 198.175C55.1236 198.174 55.1236 198.173 55.1236 198.172C55.1236 198.171 55.1236 198.17 55.1236 198.169C55.1236 198.168 55.1236 198.167 55.1236 198.166C55.1236 198.165 55.1236 198.164 55.1236 198.163C55.1236 198.162 55.1236 198.162 55.1236 198.161C55.1236 198.16 55.1236 198.159 55.1236 198.158C55.1236 198.157 55.1236 198.156 55.1236 198.155C55.1236 198.154 55.1236 198.153 55.1236 198.152C55.1236 198.151 55.1236 198.15 55.1236 198.149C55.1236 198.148 55.1236 198.147 55.1236 198.146C55.1236 198.145 55.1236 198.144 55.1236 198.143C55.1236 198.142 55.1236 198.141 55.1236 198.14C55.1236 198.139 55.1236 198.138 55.1236 198.137C55.1236 198.136 55.1236 198.135 55.1236 198.134C55.1236 198.133 55.1236 198.132 55.1236 198.131C55.1236 198.13 55.1236 198.129 55.1236 198.128C55.1236 198.127 55.1236 198.127 55.1236 198.126C55.1236 198.125 55.1236 198.124 55.1236 198.123C55.1236 198.122 55.1236 198.121 55.1236 198.12C55.1236 198.119 55.1236 198.118 55.1236 198.117C55.1236 198.116 55.1236 198.115 55.1236 198.114C55.1236 198.113 55.1236 198.112 55.1236 198.111C55.1236 198.11 55.1236 198.109 55.1236 198.108C55.1236 198.107 55.1236 198.106 55.1236 198.105C55.1236 198.104 55.1236 198.103 55.1236 198.102C55.1236 198.101 55.1236 198.1 55.1236 198.099C55.1236 198.098 55.1236 198.097 55.1236 198.096C55.1236 198.095 55.1236 198.094 55.1236 198.093C55.1236 198.092 55.1236 198.091 55.1236 198.091C55.1236 198.09 55.1236 198.089 55.1236 198.088C55.1236 198.087 55.1236 198.086 55.1236 198.085C55.1236 198.084 55.1236 198.083 55.1236 198.082C55.1236 198.081 55.1236 198.08 55.1236 198.079C55.1236 198.078 55.1236 198.077 55.1236 198.076C55.1236 198.075 55.1236 198.074 55.1236 198.073C55.1236 198.072 55.1236 198.071 55.1236 198.07C55.1236 198.069 55.1236 198.068 55.1236 198.067C55.1236 198.066 55.1236 198.065 55.1236 198.064C55.1236 198.063 55.1236 198.062 55.1236 198.061C55.1236 198.06 55.1236 198.059 55.1236 198.058C55.1236 198.057 55.1236 198.056 55.1236 198.055C55.1236 198.054 55.1236 198.054 55.1236 198.053C55.1236 198.052 55.1236 198.051 55.1236 198.05C55.1236 198.049 55.1236 198.048 55.1236 198.047C55.1236 198.046 55.1236 198.045 55.1236 198.044C55.1236 198.043 55.1236 198.042 55.1236 198.041C55.1236 198.04 55.1236 198.039 55.1236 198.038C55.1236 198.037 55.1236 198.036 55.1236 198.035C55.1236 198.034 55.1236 198.033 55.1236 198.032C55.1236 198.031 55.1236 198.03 55.1236 198.029C55.1236 198.028 55.1236 198.027 55.1236 198.026C55.1236 198.025 55.1236 198.024 55.1236 198.023C55.1236 198.022 55.1236 198.021 55.1236 198.02C55.1236 198.019 55.1236 198.018 55.1236 198.017C55.1236 198.016 55.1236 198.015 55.1236 198.015C55.1236 198.014 55.1236 198.013 55.1236 198.012C55.1236 198.011 55.1236 198.01 55.1236 198.009C55.1236 198.008 55.1236 198.007 55.1236 198.006C55.1236 198.005 55.1236 198.004 55.1236 198.003C55.1236 198.002 55.1236 198.001 55.1236 198C55.1236 197.999 55.1236 197.998 55.1236 197.997C55.1236 197.996 55.1236 197.995 55.1236 197.994C55.1236 197.993 55.1236 197.992 55.1236 197.991C55.1236 197.99 55.1236 197.989 55.1236 197.988C55.1236 197.987 55.1236 197.986 55.1236 197.985C55.1236 197.984 55.1236 197.983 55.1236 197.982C55.1236 197.981 55.1236 197.98 55.1236 197.979C55.1236 197.978 55.1236 197.977 55.1236 197.976C55.1236 197.976 55.1236 197.975 55.1236 197.974C55.1236 197.973 55.1236 197.972 55.1236 197.971C55.1236 197.97 55.1236 197.969 55.1236 197.968C55.1236 197.967 55.1236 197.966 55.1236 197.965C55.1236 197.964 55.1236 197.963 55.1236 197.962C55.1236 197.961 55.1236 197.96 55.1236 197.959C55.1236 197.958 55.1236 197.957 55.1236 197.956C55.1236 197.955 55.1236 197.954 55.1236 197.953C55.1236 197.952 55.1236 197.951 55.1236 197.95C55.1236 197.949 55.1236 197.948 55.1236 197.947C55.1236 197.946 55.1236 197.945 55.1236 197.944C55.1236 197.943 55.1236 197.942 55.1236 197.941C55.1236 197.94 55.1236 197.939 55.1236 197.938C55.1236 197.937 55.1236 197.936 55.1236 197.936C55.1236 197.935 55.1236 197.934 55.1236 197.933C55.1236 197.932 55.1236 197.931 55.1236 197.93C55.1236 197.929 55.1236 197.928 55.1236 197.927C55.1236 197.926 55.1236 197.925 55.1236 197.924C55.1236 197.923 55.1236 197.922 55.1236 197.921C55.1236 197.92 55.1236 197.919 55.1236 197.918C55.1236 197.917 55.1236 197.916 55.1236 197.915C55.1236 197.914 55.1236 197.913 55.1236 197.912C55.1236 197.911 55.1236 197.91 55.1236 197.909C55.1236 197.908 55.1236 197.907 55.1236 197.906C55.1236 197.905 55.1236 197.904 55.1236 197.903C55.1236 197.902 55.1236 197.901 55.1236 197.9C55.1236 197.899 55.1236 197.898 55.1236 197.897C55.1236 197.896 55.1236 197.895 55.1236 197.894C55.1236 197.894 55.1236 197.893 55.1236 197.892C55.1236 197.891 55.1236 197.89 55.1236 197.889C55.1236 197.888 55.1236 197.887 55.1236 197.886C55.1236 197.885 55.1236 197.884 55.1236 197.883C55.1236 197.882 55.1236 197.881 55.1236 197.88C55.1236 197.879 55.1236 197.878 55.1236 197.877C55.1236 197.876 55.1236 197.875 55.1236 197.874C55.1236 197.873 55.1236 197.872 55.1236 197.871C55.1236 197.87 55.1236 197.869 55.1236 197.868C55.1236 197.867 55.1236 197.866 55.1236 197.865C55.1236 197.864 55.1236 197.863 55.1236 197.862C55.1236 197.861 55.1236 197.86 55.1236 197.859C55.1236 197.858 55.1236 197.857 55.1236 197.856C55.1236 197.855 55.1236 197.854 55.1236 197.853C55.1236 197.852 55.1236 197.851 55.1236 197.851C55.1236 197.85 55.1236 197.849 55.1236 197.848C55.1236 197.847 55.1236 197.846 55.1236 197.845C55.1236 197.844 55.1236 197.843 55.1236 197.842C55.1236 197.841 55.1236 197.84 55.1236 197.839C55.1236 197.838 55.1236 197.837 55.1236 197.836C55.1236 197.835 55.1236 197.834 55.1236 197.833C55.1236 197.832 55.1236 197.831 55.1236 197.83C55.1236 197.829 55.1236 197.828 55.1236 197.827C55.1236 197.826 55.1236 197.825 55.1236 197.824C55.1236 197.823 55.1236 197.822 55.1236 197.821C55.1236 197.82 55.1236 197.819 55.1236 197.818C55.1236 197.817 55.1236 197.816 55.1236 197.815C55.1236 197.814 55.1236 197.813 55.1236 197.812C55.1236 197.811 55.1236 197.81 55.1236 197.809C55.1236 197.808 55.1236 197.807 55.1236 197.806C55.1236 197.806 55.1236 197.805 55.1236 197.804C55.1236 197.803 55.1236 197.802 55.1236 197.801C55.1236 197.8 55.1236 197.799 55.1236 197.798C55.1236 197.797 55.1236 197.796 55.1236 197.795C55.1236 197.794 55.1236 197.793 55.1236 197.792C55.1236 197.791 55.1236 197.79 55.1236 197.789C55.1236 197.788 55.1236 197.787 55.1236 197.786C55.1236 197.785 55.1236 197.784 55.1236 197.783C55.1236 197.782 55.1236 197.781 55.1236 197.78C55.1236 197.779 55.1236 197.778 55.1236 197.777C55.1236 197.776 55.1236 197.775 55.1236 197.774C55.1236 197.773 55.1236 197.772 55.1236 197.771C55.1236 197.77 55.1236 197.769 55.1236 197.768C55.1236 197.767 55.1236 197.766 55.1236 197.765C55.1236 197.764 55.1236 197.763 55.1236 197.762C55.1236 197.761 55.1236 197.76 55.1236 197.76C55.1236 197.759 55.1236 197.758 55.1236 197.757C55.1236 197.756 55.1236 197.755 55.1236 197.754C55.1236 197.753 55.1236 197.752 55.1236 197.751C55.1236 197.75 55.1236 197.749 55.1236 197.748C55.1236 197.747 55.1236 197.746 55.1236 197.745C55.1236 197.744 55.1236 197.743 55.1236 197.742C55.1236 197.741 55.1236 197.74 55.1236 197.739C55.1236 197.738 55.1236 197.737 55.1236 197.736C55.1236 197.735 55.1236 197.734 55.1236 197.733C55.1236 197.732 55.1236 197.731 55.1236 197.73C55.1236 197.729 55.1236 197.728 55.1236 197.727C55.1236 197.726 55.1236 197.725 55.1236 197.724C55.1236 197.723 55.1236 197.722 55.1236 197.721C55.1236 197.72 55.1236 197.719 55.1236 197.718C55.1236 197.717 55.1236 197.716 55.1236 197.715C55.1236 197.714 55.1236 197.713 55.1236 197.712C55.1236 197.712 55.1236 197.711 55.1236 197.71C55.1236 197.709 55.1236 197.708 55.1236 197.707C55.1236 197.706 55.1236 197.705 55.1236 197.704C55.1236 197.703 55.1236 197.702 55.1236 197.701C55.1236 197.7 55.1236 197.699 55.1236 197.698C55.1236 197.697 55.1236 197.696 55.1236 197.695C55.1236 197.694 55.1236 197.693 55.1236 197.692C55.1236 197.691 55.1236 197.69 55.1236 197.689C55.1236 197.688 55.1236 197.687 55.1236 197.686C55.1236 197.685 55.1236 197.684 55.1236 197.683C55.1236 197.682 55.1236 197.681 55.1236 197.68C55.1236 197.679 55.1236 197.678 55.1236 197.677C55.1236 197.676 55.1236 197.675 55.1236 197.674C55.1236 197.673 55.1236 197.672 55.1236 197.671C55.1236 197.67 55.1236 197.669 55.1236 197.668C55.1236 197.667 55.1236 197.666 55.1236 197.665C55.1236 197.664 55.1236 197.663 55.1236 197.662C55.1236 197.662 55.1236 197.661 55.1236 197.66C55.1236 197.659 55.1236 197.658 55.1236 197.657C55.1236 197.656 55.1236 197.655 55.1236 197.654C55.1236 197.653 55.1236 197.652 55.1236 197.651C55.1236 197.65 55.1236 197.649 55.1236 197.648C55.1236 197.647 55.1236 197.646 55.1236 197.645C55.1236 197.644 55.1236 197.643 55.1236 197.642C55.1236 197.641 55.1236 197.64 55.1236 197.639C55.1236 197.638 55.1236 197.637 55.1236 197.636C55.1236 197.635 55.1236 197.634 55.1236 197.633C55.1236 197.632 55.1236 197.631 55.1236 197.63C55.1236 197.629 55.1236 197.628 55.1236 197.627C55.1236 197.626 55.1236 197.625 55.1236 197.624C55.1236 197.623 55.1236 197.622 55.1236 197.621C55.1236 197.62 55.1236 197.619 55.1236 197.618C55.1236 197.617 55.1236 197.616 55.1236 197.615C55.1236 197.614 55.1236 197.613 55.1236 197.612C55.1236 197.611 55.1236 197.61 55.1236 197.609C55.1236 197.609 55.1236 197.608 55.1236 197.607C55.1236 197.606 55.1236 197.605 55.1236 197.604C55.1236 197.603 55.1236 197.602 55.1236 197.601C55.1236 197.6 55.1236 197.599 55.1236 197.598C55.1236 197.597 55.1236 197.596 55.1236 197.595C55.1236 197.594 55.1236 197.593 55.1236 197.592C55.1236 197.591 55.1236 197.59 55.1236 197.589C55.1236 197.588 55.1236 197.587 55.1236 197.586C55.1236 197.585 55.1236 197.584 55.1236 197.583C55.1236 197.582 55.1236 197.581 55.1236 197.58C55.1236 197.579 55.1236 197.578 55.1236 197.577C55.1236 197.576 55.1236 197.575 55.1236 197.574C55.1236 197.573 55.1236 197.572 55.1236 197.571C55.1236 197.57 55.1236 197.569 55.1236 197.568C55.1236 197.567 55.1236 197.566 55.1236 197.565C55.1236 197.564 55.1236 197.563 55.1236 197.562C55.1236 197.561 55.1236 197.56 55.1236 197.559C55.1236 197.558 55.1236 197.557 55.1236 197.556C55.1236 197.555 55.1236 197.554 55.1236 197.553C55.1236 197.553 55.1236 197.552 55.1236 197.551C55.1236 197.55 55.1236 197.549 55.1236 197.548C55.1236 197.547 55.1236 197.546 55.1236 197.545C55.1236 197.544 55.1236 197.543 55.1236 197.542C55.1236 197.541 55.1236 197.54 55.1236 197.539C55.1236 197.538 55.1236 197.537 55.1236 197.536C55.1236 197.535 55.1236 197.534 55.1236 197.533C55.1236 197.532 55.1236 197.531 55.1236 197.53C55.1236 197.529 55.1236 197.528 55.1236 197.527C55.1236 197.526 55.1236 197.525 55.1236 197.524C55.1236 197.523 55.1236 197.522 55.1236 197.521C55.1236 197.52 55.1236 197.519 55.1236 197.518C55.1236 197.517 55.1236 197.516 55.1236 197.515C55.1236 197.514 55.1236 197.513 55.1236 197.512C55.1236 197.511 55.1236 197.51 55.1236 197.509C55.1236 197.508 55.1236 197.507 55.1236 197.506C55.1236 197.505 55.1236 197.504 55.1236 197.503C55.1236 197.502 55.1236 197.501 55.1236 197.5C55.1236 197.499 55.1236 197.498 55.1236 197.497C55.1236 197.496 55.1236 197.495 55.1236 197.494C55.1236 197.494 55.1236 197.493 55.1236 197.492C55.1236 197.491 55.1236 197.49 55.1236 197.489C55.1236 197.488 55.1236 197.487 55.1236 197.486C55.1236 197.485 55.1236 197.484 55.1236 197.483C55.1236 197.482 55.1236 197.481 55.1236 197.48C55.1236 197.479 55.1236 197.478 55.1236 197.477C55.1236 197.476 55.1236 197.475 55.1236 197.474C55.1236 197.473 55.1236 197.472 55.1236 197.471C55.1236 197.47 55.1236 197.469 55.1236 197.468C55.1236 197.467 55.1236 197.466 55.1236 197.465C55.1236 197.464 55.1236 197.463 55.1236 197.462C55.1236 197.461 55.1236 197.46 55.1236 197.459C55.1236 197.458 55.1236 197.457 55.1236 197.456C55.1236 197.455 55.1236 197.454 55.1236 197.453C55.1236 197.452 55.1236 197.451 55.1236 197.45C55.1236 197.449 55.1236 197.448 55.1236 197.447C55.1236 197.446 55.1236 197.445 55.1236 197.444C55.1236 197.443 55.1236 197.442 55.1236 197.441C55.1236 197.44 55.1236 197.439 55.1236 197.438C55.1236 197.437 55.1236 197.436 55.1236 197.435C55.1236 197.434 55.1236 197.433 55.1236 197.432C55.1236 197.431 55.1236 197.431 55.1236 197.43C55.1236 197.429 55.1236 197.428 55.1236 197.427C55.1236 197.426 55.1236 197.425 55.1236 197.424C55.1236 197.423 55.1236 197.422 55.1236 197.421C55.1236 197.42 55.1236 197.419 55.1236 197.418C55.1236 197.417 55.1236 197.416 55.1236 197.415C55.1236 197.414 55.1236 197.413 55.1236 197.412C55.1236 197.411 55.1236 197.41 55.1236 197.409C55.1236 197.408 55.1236 197.407 55.1236 197.406C55.1236 197.405 55.1236 197.404 55.1236 197.403C55.1236 197.402 55.1236 197.401 55.1236 197.4C55.1236 197.399 55.1236 197.398 55.1236 197.397C55.1236 197.396 55.1236 197.395 55.1236 197.394C55.1236 197.393 55.1236 197.392 55.1236 197.391C55.1236 197.39 55.1236 197.389 55.1236 197.388C55.1236 197.387 55.1236 197.386 55.1236 197.385C55.1236 197.384 55.1236 197.383 55.1236 197.382C55.1236 197.381 55.1236 197.38 55.1236 197.379C55.1236 197.378 55.1236 197.377 55.1236 197.376C55.1236 197.375 55.1236 197.374 55.1236 197.373C55.1236 197.372 55.1236 197.371 55.1236 197.37C55.1236 197.369 55.1236 197.368 55.1236 197.367C55.1236 197.366 55.1236 197.365 55.1236 197.364C55.1236 197.363 55.1236 197.363 55.1236 197.362C55.1236 197.361 55.1236 197.36 55.1236 197.359C55.1236 197.358 55.1236 197.357 55.1236 197.356C55.1236 197.355 55.1236 197.354 55.1236 197.353C55.1236 197.352 55.1236 197.351 55.1236 197.35C55.1236 197.349 55.1236 197.348 55.1236 197.347C55.1236 197.346 55.1236 197.345 55.1236 197.344C55.1236 197.343 55.1236 197.342 55.1236 197.341C55.1236 197.34 55.1236 197.339 55.1236 197.338C55.1236 197.337 55.1236 197.336 55.1236 197.335C55.1236 197.334 55.1236 197.333 55.1236 197.332C55.1236 197.331 55.1236 197.33 55.1236 197.329C55.1236 197.328 55.1236 197.327 55.1236 197.326C55.1236 197.325 55.1236 197.324 55.1236 197.323C55.1236 197.322 55.1236 197.321 55.1236 197.32C55.1236 197.319 55.1236 197.318 55.1236 197.317C55.1236 197.316 55.1236 197.315 55.1236 197.314C55.1236 197.313 55.1236 197.312 55.1236 197.311C55.1236 197.31 55.1236 197.309 55.1236 197.308C55.1236 197.307 55.1236 197.306 55.1236 197.305C55.1236 197.304 55.1236 197.303 55.1236 197.302C55.1236 197.301 55.1236 197.3 55.1236 197.299C55.1236 197.298 55.1236 197.297 55.1236 197.296C55.1236 197.295 55.1236 197.294 55.1236 197.293C55.1236 197.292 55.1236 197.291 55.1236 197.29C55.1236 197.289 55.1236 197.289 55.1236 197.288C55.1236 197.287 55.1236 197.286 55.1236 197.285C55.1236 197.284 55.1236 197.283 55.1236 197.282C55.1236 197.281 55.1236 197.28 55.1236 197.279C55.1236 197.278 55.1236 197.277 55.1236 197.276C55.1236 197.275 55.1236 197.274 55.1236 197.273C55.1236 197.272 55.1236 197.271 55.1236 197.27C55.1236 197.269 55.1236 197.268 55.1236 197.267C55.1236 197.266 55.1236 197.265 55.1236 197.264C55.1236 197.263 55.1236 197.262 55.1236 197.261C55.1236 197.26 55.1236 197.259 55.1236 197.258C55.1236 197.257 55.1236 197.256 55.1236 197.255C55.1236 197.254 55.1236 197.253 55.1236 197.252C55.1236 197.251 55.1236 197.25 55.1236 197.249C55.1236 197.248 55.1236 197.247 55.1236 197.246C55.1236 197.245 55.1236 197.244 55.1236 197.243C55.1236 197.242 55.1236 197.241 55.1236 197.24C55.1236 197.239 55.1236 197.238 55.1236 197.237C55.1236 197.236 55.1236 197.235 55.1236 197.234C55.1236 197.233 55.1236 197.232 55.1236 197.231C55.1236 197.23 55.1236 197.229 55.1236 197.228C55.1236 197.227 55.1236 197.226 55.1236 197.225C55.1236 197.224 55.1236 197.223 55.1236 197.222C55.1236 197.221 55.1236 197.22 55.1236 197.219C55.1236 197.218 55.1236 197.217 55.1236 197.216C55.1236 197.215 55.1236 197.214 55.1236 197.213C55.1236 197.212 55.1236 197.211 55.1236 197.21C55.1236 197.209 55.1236 197.208 55.1236 197.207C55.1236 197.206 55.1236 197.206 55.1236 197.205C55.1236 197.204 55.1236 197.203 55.1236 197.202C55.1236 197.201 55.1236 197.2 55.1236 197.199C55.1236 197.198 55.1236 197.197 55.1236 197.196C55.1236 197.195 55.1236 197.194 55.1236 197.193C55.1236 197.192 55.1236 197.191 55.1236 197.19C55.1236 197.189 55.1236 197.188 55.1236 197.187C55.1236 197.186 55.1236 197.185 55.1236 197.184C55.1236 197.183 55.1236 197.182 55.1236 197.181C55.1236 197.18 55.1236 197.179 55.1236 197.178C55.1236 197.177 55.1236 197.176 55.1236 197.175C55.1236 197.174 55.1236 197.173 55.1236 197.172C55.1236 197.171 55.1236 197.17 55.1236 197.169C55.1236 197.168 55.1236 197.167 55.1236 197.166C55.1236 197.165 55.1236 197.164 55.1236 197.163C55.1236 197.162 55.1236 197.161 55.1236 197.16H54.1236H53.1236C53.1236 197.161 53.1236 197.162 53.1236 197.163C53.1236 197.164 53.1236 197.165 53.1236 197.166C53.1236 197.167 53.1236 197.168 53.1236 197.169C53.1236 197.17 53.1236 197.171 53.1236 197.172C53.1236 197.173 53.1236 197.174 53.1236 197.175C53.1236 197.176 53.1236 197.177 53.1236 197.178C53.1236 197.179 53.1236 197.18 53.1236 197.181C53.1236 197.182 53.1236 197.183 53.1236 197.184C53.1236 197.185 53.1236 197.186 53.1236 197.187C53.1236 197.188 53.1236 197.189 53.1236 197.19C53.1236 197.191 53.1236 197.192 53.1236 197.193C53.1236 197.194 53.1236 197.195 53.1236 197.196C53.1236 197.197 53.1236 197.198 53.1236 197.199C53.1236 197.2 53.1236 197.201 53.1236 197.202C53.1236 197.203 53.1236 197.204 53.1236 197.205C53.1236 197.206 53.1236 197.206 53.1236 197.207C53.1236 197.208 53.1236 197.209 53.1236 197.21C53.1236 197.211 53.1236 197.212 53.1236 197.213C53.1236 197.214 53.1236 197.215 53.1236 197.216C53.1236 197.217 53.1236 197.218 53.1236 197.219C53.1236 197.22 53.1236 197.221 53.1236 197.222C53.1236 197.223 53.1236 197.224 53.1236 197.225C53.1236 197.226 53.1236 197.227 53.1236 197.228C53.1236 197.229 53.1236 197.23 53.1236 197.231C53.1236 197.232 53.1236 197.233 53.1236 197.234C53.1236 197.235 53.1236 197.236 53.1236 197.237C53.1236 197.238 53.1236 197.239 53.1236 197.24C53.1236 197.241 53.1236 197.242 53.1236 197.243C53.1236 197.244 53.1236 197.245 53.1236 197.246C53.1236 197.247 53.1236 197.248 53.1236 197.249C53.1236 197.25 53.1236 197.251 53.1236 197.252C53.1236 197.253 53.1236 197.254 53.1236 197.255C53.1236 197.256 53.1236 197.257 53.1236 197.258C53.1236 197.259 53.1236 197.26 53.1236 197.261C53.1236 197.262 53.1236 197.263 53.1236 197.264C53.1236 197.265 53.1236 197.266 53.1236 197.267C53.1236 197.268 53.1236 197.269 53.1236 197.27C53.1236 197.271 53.1236 197.272 53.1236 197.273C53.1236 197.274 53.1236 197.275 53.1236 197.276C53.1236 197.277 53.1236 197.278 53.1236 197.279C53.1236 197.28 53.1236 197.281 53.1236 197.282C53.1236 197.283 53.1236 197.284 53.1236 197.285C53.1236 197.286 53.1236 197.287 53.1236 197.288C53.1236 197.289 53.1236 197.289 53.1236 197.29C53.1236 197.291 53.1236 197.292 53.1236 197.293C53.1236 197.294 53.1236 197.295 53.1236 197.296C53.1236 197.297 53.1236 197.298 53.1236 197.299C53.1236 197.3 53.1236 197.301 53.1236 197.302C53.1236 197.303 53.1236 197.304 53.1236 197.305C53.1236 197.306 53.1236 197.307 53.1236 197.308C53.1236 197.309 53.1236 197.31 53.1236 197.311C53.1236 197.312 53.1236 197.313 53.1236 197.314C53.1236 197.315 53.1236 197.316 53.1236 197.317C53.1236 197.318 53.1236 197.319 53.1236 197.32C53.1236 197.321 53.1236 197.322 53.1236 197.323C53.1236 197.324 53.1236 197.325 53.1236 197.326C53.1236 197.327 53.1236 197.328 53.1236 197.329C53.1236 197.33 53.1236 197.331 53.1236 197.332C53.1236 197.333 53.1236 197.334 53.1236 197.335C53.1236 197.336 53.1236 197.337 53.1236 197.338C53.1236 197.339 53.1236 197.34 53.1236 197.341C53.1236 197.342 53.1236 197.343 53.1236 197.344C53.1236 197.345 53.1236 197.346 53.1236 197.347C53.1236 197.348 53.1236 197.349 53.1236 197.35C53.1236 197.351 53.1236 197.352 53.1236 197.353C53.1236 197.354 53.1236 197.355 53.1236 197.356C53.1236 197.357 53.1236 197.358 53.1236 197.359C53.1236 197.36 53.1236 197.361 53.1236 197.362C53.1236 197.363 53.1236 197.363 53.1236 197.364C53.1236 197.365 53.1236 197.366 53.1236 197.367C53.1236 197.368 53.1236 197.369 53.1236 197.37C53.1236 197.371 53.1236 197.372 53.1236 197.373C53.1236 197.374 53.1236 197.375 53.1236 197.376C53.1236 197.377 53.1236 197.378 53.1236 197.379C53.1236 197.38 53.1236 197.381 53.1236 197.382C53.1236 197.383 53.1236 197.384 53.1236 197.385C53.1236 197.386 53.1236 197.387 53.1236 197.388C53.1236 197.389 53.1236 197.39 53.1236 197.391C53.1236 197.392 53.1236 197.393 53.1236 197.394C53.1236 197.395 53.1236 197.396 53.1236 197.397C53.1236 197.398 53.1236 197.399 53.1236 197.4C53.1236 197.401 53.1236 197.402 53.1236 197.403C53.1236 197.404 53.1236 197.405 53.1236 197.406C53.1236 197.407 53.1236 197.408 53.1236 197.409C53.1236 197.41 53.1236 197.411 53.1236 197.412C53.1236 197.413 53.1236 197.414 53.1236 197.415C53.1236 197.416 53.1236 197.417 53.1236 197.418C53.1236 197.419 53.1236 197.42 53.1236 197.421C53.1236 197.422 53.1236 197.423 53.1236 197.424C53.1236 197.425 53.1236 197.426 53.1236 197.427C53.1236 197.428 53.1236 197.429 53.1236 197.43C53.1236 197.431 53.1236 197.431 53.1236 197.432C53.1236 197.433 53.1236 197.434 53.1236 197.435C53.1236 197.436 53.1236 197.437 53.1236 197.438C53.1236 197.439 53.1236 197.44 53.1236 197.441C53.1236 197.442 53.1236 197.443 53.1236 197.444C53.1236 197.445 53.1236 197.446 53.1236 197.447C53.1236 197.448 53.1236 197.449 53.1236 197.45C53.1236 197.451 53.1236 197.452 53.1236 197.453C53.1236 197.454 53.1236 197.455 53.1236 197.456C53.1236 197.457 53.1236 197.458 53.1236 197.459C53.1236 197.46 53.1236 197.461 53.1236 197.462C53.1236 197.463 53.1236 197.464 53.1236 197.465C53.1236 197.466 53.1236 197.467 53.1236 197.468C53.1236 197.469 53.1236 197.47 53.1236 197.471C53.1236 197.472 53.1236 197.473 53.1236 197.474C53.1236 197.475 53.1236 197.476 53.1236 197.477C53.1236 197.478 53.1236 197.479 53.1236 197.48C53.1236 197.481 53.1236 197.482 53.1236 197.483C53.1236 197.484 53.1236 197.485 53.1236 197.486C53.1236 197.487 53.1236 197.488 53.1236 197.489C53.1236 197.49 53.1236 197.491 53.1236 197.492C53.1236 197.493 53.1236 197.494 53.1236 197.494C53.1236 197.495 53.1236 197.496 53.1236 197.497C53.1236 197.498 53.1236 197.499 53.1236 197.5C53.1236 197.501 53.1236 197.502 53.1236 197.503C53.1236 197.504 53.1236 197.505 53.1236 197.506C53.1236 197.507 53.1236 197.508 53.1236 197.509C53.1236 197.51 53.1236 197.511 53.1236 197.512C53.1236 197.513 53.1236 197.514 53.1236 197.515C53.1236 197.516 53.1236 197.517 53.1236 197.518C53.1236 197.519 53.1236 197.52 53.1236 197.521C53.1236 197.522 53.1236 197.523 53.1236 197.524C53.1236 197.525 53.1236 197.526 53.1236 197.527C53.1236 197.528 53.1236 197.529 53.1236 197.53C53.1236 197.531 53.1236 197.532 53.1236 197.533C53.1236 197.534 53.1236 197.535 53.1236 197.536C53.1236 197.537 53.1236 197.538 53.1236 197.539C53.1236 197.54 53.1236 197.541 53.1236 197.542C53.1236 197.543 53.1236 197.544 53.1236 197.545C53.1236 197.546 53.1236 197.547 53.1236 197.548C53.1236 197.549 53.1236 197.55 53.1236 197.551C53.1236 197.552 53.1236 197.553 53.1236 197.553C53.1236 197.554 53.1236 197.555 53.1236 197.556C53.1236 197.557 53.1236 197.558 53.1236 197.559C53.1236 197.56 53.1236 197.561 53.1236 197.562C53.1236 197.563 53.1236 197.564 53.1236 197.565C53.1236 197.566 53.1236 197.567 53.1236 197.568C53.1236 197.569 53.1236 197.57 53.1236 197.571C53.1236 197.572 53.1236 197.573 53.1236 197.574C53.1236 197.575 53.1236 197.576 53.1236 197.577C53.1236 197.578 53.1236 197.579 53.1236 197.58C53.1236 197.581 53.1236 197.582 53.1236 197.583C53.1236 197.584 53.1236 197.585 53.1236 197.586C53.1236 197.587 53.1236 197.588 53.1236 197.589C53.1236 197.59 53.1236 197.591 53.1236 197.592C53.1236 197.593 53.1236 197.594 53.1236 197.595C53.1236 197.596 53.1236 197.597 53.1236 197.598C53.1236 197.599 53.1236 197.6 53.1236 197.601C53.1236 197.602 53.1236 197.603 53.1236 197.604C53.1236 197.605 53.1236 197.606 53.1236 197.607C53.1236 197.608 53.1236 197.609 53.1236 197.609C53.1236 197.61 53.1236 197.611 53.1236 197.612C53.1236 197.613 53.1236 197.614 53.1236 197.615C53.1236 197.616 53.1236 197.617 53.1236 197.618C53.1236 197.619 53.1236 197.62 53.1236 197.621C53.1236 197.622 53.1236 197.623 53.1236 197.624C53.1236 197.625 53.1236 197.626 53.1236 197.627C53.1236 197.628 53.1236 197.629 53.1236 197.63C53.1236 197.631 53.1236 197.632 53.1236 197.633C53.1236 197.634 53.1236 197.635 53.1236 197.636C53.1236 197.637 53.1236 197.638 53.1236 197.639C53.1236 197.64 53.1236 197.641 53.1236 197.642C53.1236 197.643 53.1236 197.644 53.1236 197.645C53.1236 197.646 53.1236 197.647 53.1236 197.648C53.1236 197.649 53.1236 197.65 53.1236 197.651C53.1236 197.652 53.1236 197.653 53.1236 197.654C53.1236 197.655 53.1236 197.656 53.1236 197.657C53.1236 197.658 53.1236 197.659 53.1236 197.66C53.1236 197.661 53.1236 197.662 53.1236 197.662C53.1236 197.663 53.1236 197.664 53.1236 197.665C53.1236 197.666 53.1236 197.667 53.1236 197.668C53.1236 197.669 53.1236 197.67 53.1236 197.671C53.1236 197.672 53.1236 197.673 53.1236 197.674C53.1236 197.675 53.1236 197.676 53.1236 197.677C53.1236 197.678 53.1236 197.679 53.1236 197.68C53.1236 197.681 53.1236 197.682 53.1236 197.683C53.1236 197.684 53.1236 197.685 53.1236 197.686C53.1236 197.687 53.1236 197.688 53.1236 197.689C53.1236 197.69 53.1236 197.691 53.1236 197.692C53.1236 197.693 53.1236 197.694 53.1236 197.695C53.1236 197.696 53.1236 197.697 53.1236 197.698C53.1236 197.699 53.1236 197.7 53.1236 197.701C53.1236 197.702 53.1236 197.703 53.1236 197.704C53.1236 197.705 53.1236 197.706 53.1236 197.707C53.1236 197.708 53.1236 197.709 53.1236 197.71C53.1236 197.711 53.1236 197.712 53.1236 197.712C53.1236 197.713 53.1236 197.714 53.1236 197.715C53.1236 197.716 53.1236 197.717 53.1236 197.718C53.1236 197.719 53.1236 197.72 53.1236 197.721C53.1236 197.722 53.1236 197.723 53.1236 197.724C53.1236 197.725 53.1236 197.726 53.1236 197.727C53.1236 197.728 53.1236 197.729 53.1236 197.73C53.1236 197.731 53.1236 197.732 53.1236 197.733C53.1236 197.734 53.1236 197.735 53.1236 197.736C53.1236 197.737 53.1236 197.738 53.1236 197.739C53.1236 197.74 53.1236 197.741 53.1236 197.742C53.1236 197.743 53.1236 197.744 53.1236 197.745C53.1236 197.746 53.1236 197.747 53.1236 197.748C53.1236 197.749 53.1236 197.75 53.1236 197.751C53.1236 197.752 53.1236 197.753 53.1236 197.754C53.1236 197.755 53.1236 197.756 53.1236 197.757C53.1236 197.758 53.1236 197.759 53.1236 197.76C53.1236 197.76 53.1236 197.761 53.1236 197.762C53.1236 197.763 53.1236 197.764 53.1236 197.765C53.1236 197.766 53.1236 197.767 53.1236 197.768C53.1236 197.769 53.1236 197.77 53.1236 197.771C53.1236 197.772 53.1236 197.773 53.1236 197.774C53.1236 197.775 53.1236 197.776 53.1236 197.777C53.1236 197.778 53.1236 197.779 53.1236 197.78C53.1236 197.781 53.1236 197.782 53.1236 197.783C53.1236 197.784 53.1236 197.785 53.1236 197.786C53.1236 197.787 53.1236 197.788 53.1236 197.789C53.1236 197.79 53.1236 197.791 53.1236 197.792C53.1236 197.793 53.1236 197.794 53.1236 197.795C53.1236 197.796 53.1236 197.797 53.1236 197.798C53.1236 197.799 53.1236 197.8 53.1236 197.801C53.1236 197.802 53.1236 197.803 53.1236 197.804C53.1236 197.805 53.1236 197.806 53.1236 197.806C53.1236 197.807 53.1236 197.808 53.1236 197.809C53.1236 197.81 53.1236 197.811 53.1236 197.812C53.1236 197.813 53.1236 197.814 53.1236 197.815C53.1236 197.816 53.1236 197.817 53.1236 197.818C53.1236 197.819 53.1236 197.82 53.1236 197.821C53.1236 197.822 53.1236 197.823 53.1236 197.824C53.1236 197.825 53.1236 197.826 53.1236 197.827C53.1236 197.828 53.1236 197.829 53.1236 197.83C53.1236 197.831 53.1236 197.832 53.1236 197.833C53.1236 197.834 53.1236 197.835 53.1236 197.836C53.1236 197.837 53.1236 197.838 53.1236 197.839C53.1236 197.84 53.1236 197.841 53.1236 197.842C53.1236 197.843 53.1236 197.844 53.1236 197.845C53.1236 197.846 53.1236 197.847 53.1236 197.848C53.1236 197.849 53.1236 197.85 53.1236 197.851C53.1236 197.851 53.1236 197.852 53.1236 197.853C53.1236 197.854 53.1236 197.855 53.1236 197.856C53.1236 197.857 53.1236 197.858 53.1236 197.859C53.1236 197.86 53.1236 197.861 53.1236 197.862C53.1236 197.863 53.1236 197.864 53.1236 197.865C53.1236 197.866 53.1236 197.867 53.1236 197.868C53.1236 197.869 53.1236 197.87 53.1236 197.871C53.1236 197.872 53.1236 197.873 53.1236 197.874C53.1236 197.875 53.1236 197.876 53.1236 197.877C53.1236 197.878 53.1236 197.879 53.1236 197.88C53.1236 197.881 53.1236 197.882 53.1236 197.883C53.1236 197.884 53.1236 197.885 53.1236 197.886C53.1236 197.887 53.1236 197.888 53.1236 197.889C53.1236 197.89 53.1236 197.891 53.1236 197.892C53.1236 197.893 53.1236 197.894 53.1236 197.894C53.1236 197.895 53.1236 197.896 53.1236 197.897C53.1236 197.898 53.1236 197.899 53.1236 197.9C53.1236 197.901 53.1236 197.902 53.1236 197.903C53.1236 197.904 53.1236 197.905 53.1236 197.906C53.1236 197.907 53.1236 197.908 53.1236 197.909C53.1236 197.91 53.1236 197.911 53.1236 197.912C53.1236 197.913 53.1236 197.914 53.1236 197.915C53.1236 197.916 53.1236 197.917 53.1236 197.918C53.1236 197.919 53.1236 197.92 53.1236 197.921C53.1236 197.922 53.1236 197.923 53.1236 197.924C53.1236 197.925 53.1236 197.926 53.1236 197.927C53.1236 197.928 53.1236 197.929 53.1236 197.93C53.1236 197.931 53.1236 197.932 53.1236 197.933C53.1236 197.934 53.1236 197.935 53.1236 197.936C53.1236 197.936 53.1236 197.937 53.1236 197.938C53.1236 197.939 53.1236 197.94 53.1236 197.941C53.1236 197.942 53.1236 197.943 53.1236 197.944C53.1236 197.945 53.1236 197.946 53.1236 197.947C53.1236 197.948 53.1236 197.949 53.1236 197.95C53.1236 197.951 53.1236 197.952 53.1236 197.953C53.1236 197.954 53.1236 197.955 53.1236 197.956C53.1236 197.957 53.1236 197.958 53.1236 197.959C53.1236 197.96 53.1236 197.961 53.1236 197.962C53.1236 197.963 53.1236 197.964 53.1236 197.965C53.1236 197.966 53.1236 197.967 53.1236 197.968C53.1236 197.969 53.1236 197.97 53.1236 197.971C53.1236 197.972 53.1236 197.973 53.1236 197.974C53.1236 197.975 53.1236 197.976 53.1236 197.976C53.1236 197.977 53.1236 197.978 53.1236 197.979C53.1236 197.98 53.1236 197.981 53.1236 197.982C53.1236 197.983 53.1236 197.984 53.1236 197.985C53.1236 197.986 53.1236 197.987 53.1236 197.988C53.1236 197.989 53.1236 197.99 53.1236 197.991C53.1236 197.992 53.1236 197.993 53.1236 197.994C53.1236 197.995 53.1236 197.996 53.1236 197.997C53.1236 197.998 53.1236 197.999 53.1236 198C53.1236 198.001 53.1236 198.002 53.1236 198.003C53.1236 198.004 53.1236 198.005 53.1236 198.006C53.1236 198.007 53.1236 198.008 53.1236 198.009C53.1236 198.01 53.1236 198.011 53.1236 198.012C53.1236 198.013 53.1236 198.014 53.1236 198.015C53.1236 198.015 53.1236 198.016 53.1236 198.017C53.1236 198.018 53.1236 198.019 53.1236 198.02C53.1236 198.021 53.1236 198.022 53.1236 198.023C53.1236 198.024 53.1236 198.025 53.1236 198.026C53.1236 198.027 53.1236 198.028 53.1236 198.029C53.1236 198.03 53.1236 198.031 53.1236 198.032C53.1236 198.033 53.1236 198.034 53.1236 198.035C53.1236 198.036 53.1236 198.037 53.1236 198.038C53.1236 198.039 53.1236 198.04 53.1236 198.041C53.1236 198.042 53.1236 198.043 53.1236 198.044C53.1236 198.045 53.1236 198.046 53.1236 198.047C53.1236 198.048 53.1236 198.049 53.1236 198.05C53.1236 198.051 53.1236 198.052 53.1236 198.053C53.1236 198.054 53.1236 198.054 53.1236 198.055C53.1236 198.056 53.1236 198.057 53.1236 198.058C53.1236 198.059 53.1236 198.06 53.1236 198.061C53.1236 198.062 53.1236 198.063 53.1236 198.064C53.1236 198.065 53.1236 198.066 53.1236 198.067C53.1236 198.068 53.1236 198.069 53.1236 198.07C53.1236 198.071 53.1236 198.072 53.1236 198.073C53.1236 198.074 53.1236 198.075 53.1236 198.076C53.1236 198.077 53.1236 198.078 53.1236 198.079C53.1236 198.08 53.1236 198.081 53.1236 198.082C53.1236 198.083 53.1236 198.084 53.1236 198.085C53.1236 198.086 53.1236 198.087 53.1236 198.088C53.1236 198.089 53.1236 198.09 53.1236 198.091C53.1236 198.091 53.1236 198.092 53.1236 198.093C53.1236 198.094 53.1236 198.095 53.1236 198.096C53.1236 198.097 53.1236 198.098 53.1236 198.099C53.1236 198.1 53.1236 198.101 53.1236 198.102C53.1236 198.103 53.1236 198.104 53.1236 198.105C53.1236 198.106 53.1236 198.107 53.1236 198.108C53.1236 198.109 53.1236 198.11 53.1236 198.111C53.1236 198.112 53.1236 198.113 53.1236 198.114C53.1236 198.115 53.1236 198.116 53.1236 198.117C53.1236 198.118 53.1236 198.119 53.1236 198.12C53.1236 198.121 53.1236 198.122 53.1236 198.123C53.1236 198.124 53.1236 198.125 53.1236 198.126C53.1236 198.127 53.1236 198.127 53.1236 198.128C53.1236 198.129 53.1236 198.13 53.1236 198.131C53.1236 198.132 53.1236 198.133 53.1236 198.134C53.1236 198.135 53.1236 198.136 53.1236 198.137C53.1236 198.138 53.1236 198.139 53.1236 198.14C53.1236 198.141 53.1236 198.142 53.1236 198.143C53.1236 198.144 53.1236 198.145 53.1236 198.146C53.1236 198.147 53.1236 198.148 53.1236 198.149C53.1236 198.15 53.1236 198.151 53.1236 198.152C53.1236 198.153 53.1236 198.154 53.1236 198.155C53.1236 198.156 53.1236 198.157 53.1236 198.158C53.1236 198.159 53.1236 198.16 53.1236 198.161C53.1236 198.162 53.1236 198.162 53.1236 198.163C53.1236 198.164 53.1236 198.165 53.1236 198.166C53.1236 198.167 53.1236 198.168 53.1236 198.169C53.1236 198.17 53.1236 198.171 53.1236 198.172C53.1236 198.173 53.1236 198.174 53.1236 198.175C53.1236 198.176 53.1236 198.177 53.1236 198.178C53.1236 198.179 53.1236 198.18 53.1236 198.181C53.1236 198.182 53.1236 198.183 53.1236 198.184C53.1236 198.185 53.1236 198.186 53.1236 198.187C53.1236 198.188 53.1236 198.189 53.1236 198.19C53.1236 198.191 53.1236 198.192 53.1236 198.193C53.1236 198.194 53.1236 198.195 53.1236 198.196C53.1236 198.197 53.1236 198.197 53.1236 198.198C53.1236 198.199 53.1236 198.2 53.1236 198.201C53.1236 198.202 53.1236 198.203 53.1236 198.204C53.1236 198.205 53.1236 198.206 53.1236 198.207C53.1236 198.208 53.1236 198.209 53.1236 198.21C53.1236 198.211 53.1236 198.212 53.1236 198.213C53.1236 198.214 53.1236 198.215 53.1236 198.216C53.1236 198.217 53.1236 198.218 53.1236 198.219C53.1236 198.22 53.1236 198.221 53.1236 198.222C53.1236 198.223 53.1236 198.224 53.1236 198.225C53.1236 198.226 53.1236 198.227 53.1236 198.228C53.1236 198.229 53.1236 198.23 53.1236 198.231C53.1236 198.231 53.1236 198.232 53.1236 198.233C53.1236 198.234 53.1236 198.235 53.1236 198.236C53.1236 198.237 53.1236 198.238 53.1236 198.239C53.1236 198.24 53.1236 198.241 53.1236 198.242C53.1236 198.243 53.1236 198.244 53.1236 198.245C53.1236 198.246 53.1236 198.247 53.1236 198.248C53.1236 198.249 53.1236 198.25 53.1236 198.251C53.1236 198.252 53.1236 198.253 53.1236 198.254C53.1236 198.255 53.1236 198.256 53.1236 198.257C53.1236 198.258 53.1236 198.259 53.1236 198.26C53.1236 198.261 53.1236 198.262 53.1236 198.263C53.1236 198.264 53.1236 198.264 53.1236 198.265C53.1236 198.266 53.1236 198.267 53.1236 198.268C53.1236 198.269 53.1236 198.27 53.1236 198.271C53.1236 198.272 53.1236 198.273 53.1236 198.274C53.1236 198.275 53.1236 198.276 53.1236 198.277C53.1236 198.278 53.1236 198.279 53.1236 198.28C53.1236 198.281 53.1236 198.282 53.1236 198.283C53.1236 198.284 53.1236 198.285 53.1236 198.286C53.1236 198.287 53.1236 198.288 53.1236 198.289C53.1236 198.29 53.1236 198.291 53.1236 198.292C53.1236 198.293 53.1236 198.294 53.1236 198.295C53.1236 198.296 53.1236 198.297 53.1236 198.297C53.1236 198.298 53.1236 198.299 53.1236 198.3C53.1236 198.301 53.1236 198.302 53.1236 198.303C53.1236 198.304 53.1236 198.305 53.1236 198.306C53.1236 198.307 53.1236 198.308 53.1236 198.309C53.1236 198.31 53.1236 198.311 53.1236 198.312C53.1236 198.313 53.1236 198.314 53.1236 198.315C53.1236 198.316 53.1236 198.317 53.1236 198.318C53.1236 198.319 53.1236 198.32 53.1236 198.321C53.1236 198.322 53.1236 198.323 53.1236 198.324C53.1236 198.325 53.1236 198.326 53.1236 198.327C53.1236 198.328 53.1236 198.329 53.1236 198.329C53.1236 198.33 53.1236 198.331 53.1236 198.332C53.1236 198.333 53.1236 198.334 53.1236 198.335C53.1236 198.336 53.1236 198.337 53.1236 198.338C53.1236 198.339 53.1236 198.34 53.1236 198.341C53.1236 198.342 53.1236 198.343 53.1236 198.344C53.1236 198.345 53.1236 198.346 53.1236 198.347C53.1236 198.348 53.1236 198.349 53.1236 198.35C53.1236 198.351 53.1236 198.352 53.1236 198.353C53.1236 198.354 53.1236 198.355 53.1236 198.356C53.1236 198.357 53.1236 198.358 53.1236 198.359C53.1236 198.36 53.1236 198.36 53.1236 198.361C53.1236 198.362 53.1236 198.363 53.1236 198.364C53.1236 198.365 53.1236 198.366 53.1236 198.367C53.1236 198.368 53.1236 198.369 53.1236 198.37C53.1236 198.371 53.1236 198.372 53.1236 198.373C53.1236 198.374 53.1236 198.375 53.1236 198.376C53.1236 198.377 53.1236 198.378 53.1236 198.379C53.1236 198.38 53.1236 198.381 53.1236 198.382C53.1236 198.383 53.1236 198.384 53.1236 198.385C53.1236 198.386 53.1236 198.387 53.1236 198.388C53.1236 198.389 53.1236 198.39 53.1236 198.391C53.1236 198.391 53.1236 198.392 53.1236 198.393C53.1236 198.394 53.1236 198.395 53.1236 198.396C53.1236 198.397 53.1236 198.398 53.1236 198.399C53.1236 198.4 53.1236 198.401 53.1236 198.402C53.1236 198.403 53.1236 198.404 53.1236 198.405C53.1236 198.406 53.1236 198.407 53.1236 198.408C53.1236 198.409 53.1236 198.41 53.1236 198.411C53.1236 198.412 53.1236 198.413 53.1236 198.414C53.1236 198.415 53.1236 198.416 53.1236 198.417C53.1236 198.418 53.1236 198.419 53.1236 198.42C53.1236 198.421 53.1236 198.421 53.1236 198.422C53.1236 198.423 53.1236 198.424 53.1236 198.425C53.1236 198.426 53.1236 198.427 53.1236 198.428C53.1236 198.429 53.1236 198.43 53.1236 198.431C53.1236 198.432 53.1236 198.433 53.1236 198.434C53.1236 198.435 53.1236 198.436 53.1236 198.437C53.1236 198.438 53.1236 198.439 53.1236 198.44C53.1236 198.441 53.1236 198.442 53.1236 198.443C53.1236 198.444 53.1236 198.445 53.1236 198.446C53.1236 198.447 53.1236 198.448 53.1236 198.449C53.1236 198.45 53.1236 198.451 53.1236 198.451C53.1236 198.452 53.1236 198.453 53.1236 198.454C53.1236 198.455 53.1236 198.456 53.1236 198.457C53.1236 198.458 53.1236 198.459 53.1236 198.46C53.1236 198.461 53.1236 198.462 53.1236 198.463C53.1236 198.464 53.1236 198.465 53.1236 198.466C53.1236 198.467 53.1236 198.468 53.1236 198.469C53.1236 198.47 53.1236 198.471 53.1236 198.472C53.1236 198.473 53.1236 198.474 53.1236 198.475C53.1236 198.476 53.1236 198.477 53.1236 198.478C53.1236 198.479 53.1236 198.48 53.1236 198.48C53.1236 198.481 53.1236 198.482 53.1236 198.483C53.1236 198.484 53.1236 198.485 53.1236 198.486C53.1236 198.487 53.1236 198.488 53.1236 198.489C53.1236 198.49 53.1236 198.491 53.1236 198.492C53.1236 198.493 53.1236 198.494 53.1236 198.495C53.1236 198.496 53.1236 198.497 53.1236 198.498C53.1236 198.499 53.1236 198.5 53.1236 198.501C53.1236 198.502 53.1236 198.503 53.1236 198.504C53.1236 198.505 53.1236 198.506 53.1236 198.507C53.1236 198.508 53.1236 198.509 53.1236 198.509C53.1236 198.51 53.1236 198.511 53.1236 198.512C53.1236 198.513 53.1236 198.514 53.1236 198.515C53.1236 198.516 53.1236 198.517 53.1236 198.518C53.1236 198.519 53.1236 198.52 53.1236 198.521C53.1236 198.522 53.1236 198.523 53.1236 198.524C53.1236 198.525 53.1236 198.526 53.1236 198.527C53.1236 198.528 53.1236 198.529 53.1236 198.53C53.1236 198.531 53.1236 198.532 53.1236 198.533C53.1236 198.534 53.1236 198.535 53.1236 198.536C53.1236 198.537 53.1236 198.537 53.1236 198.538C53.1236 198.539 53.1236 198.54 53.1236 198.541C53.1236 198.542 53.1236 198.543 53.1236 198.544C53.1236 198.545 53.1236 198.546 53.1236 198.547C53.1236 198.548 53.1236 198.549 53.1236 198.55C53.1236 198.551 53.1236 198.552 53.1236 198.553C53.1236 198.554 53.1236 198.555 53.1236 198.556C53.1236 198.557 53.1236 198.558 53.1236 198.559C53.1236 198.56 53.1236 198.561 53.1236 198.562C53.1236 198.563 53.1236 198.564 53.1236 198.565C53.1236 198.565 53.1236 198.566 53.1236 198.567C53.1236 198.568 53.1236 198.569 53.1236 198.57C53.1236 198.571 53.1236 198.572 53.1236 198.573C53.1236 198.574 53.1236 198.575 53.1236 198.576C53.1236 198.577 53.1236 198.578 53.1236 198.579C53.1236 198.58 53.1236 198.581 53.1236 198.582C53.1236 198.583 53.1236 198.584 53.1236 198.585C53.1236 198.586 53.1236 198.587 53.1236 198.588C53.1236 198.589 53.1236 198.59 53.1236 198.591C53.1236 198.592 53.1236 198.593 53.1236 198.593C53.1236 198.594 53.1236 198.595 53.1236 198.596C53.1236 198.597 53.1236 198.598 53.1236 198.599C53.1236 198.6 53.1236 198.601 53.1236 198.602C53.1236 198.603 53.1236 198.604 53.1236 198.605C53.1236 198.606 53.1236 198.607 53.1236 198.608C53.1236 198.609 53.1236 198.61 53.1236 198.611C53.1236 198.612 53.1236 198.613 53.1236 198.614C53.1236 198.615 53.1236 198.616 53.1236 198.617C53.1236 198.618 53.1236 198.619 53.1236 198.62C53.1236 198.62 53.1236 198.621 53.1236 198.622C53.1236 198.623 53.1236 198.624 53.1236 198.625C53.1236 198.626 53.1236 198.627 53.1236 198.628C53.1236 198.629 53.1236 198.63 53.1236 198.631C53.1236 198.632 53.1236 198.633 53.1236 198.634C53.1236 198.635 53.1236 198.636 53.1236 198.637C53.1236 198.638 53.1236 198.639 53.1236 198.64C53.1236 198.641 53.1236 198.642 53.1236 198.643C53.1236 198.644 53.1236 198.645 53.1236 198.646C53.1236 198.647 53.1236 198.647 53.1236 198.648C53.1236 198.649 53.1236 198.65 53.1236 198.651C53.1236 198.652 53.1236 198.653 53.1236 198.654C53.1236 198.655 53.1236 198.656 53.1236 198.657C53.1236 198.658 53.1236 198.659 53.1236 198.66H54.1236ZM54.1236 197.16H55.1236V190.36H54.1236H53.1236V197.16H54.1236ZM54.1236 190.36V191.36H55.7236V190.36V189.36H54.1236V190.36ZM55.7236 190.36H54.7236V204H55.7236H56.7236V190.36H55.7236ZM55.7236 204V203H54.1236V204V205H55.7236V204ZM54.1236 204L54.9585 203.45L47.7985 192.59L46.9636 193.14L46.1287 193.69L53.2887 204.55L54.1236 204ZM46.9636 193.14V192.14H46.9236V193.14V194.14H46.9636V193.14ZM46.9236 193.14L45.9241 193.173C45.9378 193.583 45.9583 194.012 45.9854 194.46L46.9836 194.4L47.9818 194.34C47.9556 193.908 47.936 193.497 47.923 193.107L46.9236 193.14ZM46.9836 194.4L45.9842 194.434C45.9974 194.818 46.0107 195.249 46.024 195.728L47.0236 195.7L48.0232 195.672C48.0098 195.191 47.9964 194.755 47.983 194.366L46.9836 194.4ZM47.0236 195.7L46.024 195.728C46.037 196.198 46.0436 196.682 46.0436 197.18H47.0436H48.0436C48.0436 196.665 48.0368 196.162 48.0232 195.672L47.0236 195.7ZM47.0436 197.18H46.0436V204H47.0436H48.0436V197.18H47.0436ZM47.0436 204V203H45.4436V204V205H47.0436V204ZM45.4436 204H46.4436V190.36H45.4436H44.4436V204H45.4436ZM59.8522 190.36V189.36H58.8522V190.36H59.8522ZM68.2122 190.36H69.2122V189.36H68.2122V190.36ZM68.2122 191.9V192.9H69.2122V191.9H68.2122ZM61.5322 191.9V190.9H60.5322V191.9H61.5322ZM61.5322 196.26H60.5322V197.26H61.5322V196.26ZM67.7322 196.26H68.7322V195.26H67.7322V196.26ZM67.7322 197.76V198.76H68.7322V197.76H67.7322ZM61.5322 197.76V196.76H60.5322V197.76H61.5322ZM61.5322 202.46H60.5322V203.46H61.5322V202.46ZM68.4122 202.46H69.4122V201.46H68.4122V202.46ZM68.4122 204V205H69.4122V204H68.4122ZM59.8522 204H58.8522V205H59.8522V204ZM59.8522 190.36V191.36H68.2122V190.36V189.36H59.8522V190.36ZM68.2122 190.36H67.2122V191.9H68.2122H69.2122V190.36H68.2122ZM68.2122 191.9V190.9H61.5322V191.9V192.9H68.2122V191.9ZM61.5322 191.9H60.5322V196.26H61.5322H62.5322V191.9H61.5322ZM61.5322 196.26V197.26H67.7322V196.26V195.26H61.5322V196.26ZM67.7322 196.26H66.7322V197.76H67.7322H68.7322V196.26H67.7322ZM67.7322 197.76V196.76H61.5322V197.76V198.76H67.7322V197.76ZM61.5322 197.76H60.5322V202.46H61.5322H62.5322V197.76H61.5322ZM61.5322 202.46V203.46H68.4122V202.46V201.46H61.5322V202.46ZM68.4122 202.46H67.4122V204H68.4122H69.4122V202.46H68.4122ZM68.4122 204V203H59.8522V204V205H68.4122V204ZM59.8522 204H60.8522V190.36H59.8522H58.8522V204H59.8522ZM74.5813 199.04H75.5813V198.803L75.4749 198.591L74.5813 199.04ZM70.2213 190.36V189.36H68.5999L69.3276 190.809L70.2213 190.36ZM72.0812 190.36L72.9741 189.91L72.6968 189.36H72.0812V190.36ZM75.4212 196.98L74.5285 197.43L75.4186 199.195L76.313 197.433L75.4212 196.98ZM78.7812 190.36V189.36H78.1674L77.8895 189.907L78.7812 190.36ZM80.6413 190.36L81.5349 190.809L82.2626 189.36H80.6413V190.36ZM76.2812 199.04L75.3876 198.591L75.2812 198.803V199.04H76.2812ZM76.2812 204V205H77.2812V204H76.2812ZM74.5813 204H73.5812V205H74.5813V204ZM74.5813 199.04L75.4749 198.591L71.1149 189.911L70.2213 190.36L69.3276 190.809L73.6876 199.489L74.5813 199.04ZM70.2213 190.36V191.36H72.0812V190.36V189.36H70.2213V190.36ZM72.0812 190.36L71.1884 190.81L74.5285 197.43L75.4212 196.98L76.3141 196.53L72.9741 189.91L72.0812 190.36ZM75.4212 196.98L76.313 197.433L79.673 190.813L78.7812 190.36L77.8895 189.907L74.5295 196.527L75.4212 196.98ZM78.7812 190.36V191.36H80.6413V190.36V189.36H78.7812V190.36ZM80.6413 190.36L79.7477 189.911L75.3876 198.591L76.2812 199.04L77.1749 199.489L81.5349 190.809L80.6413 190.36ZM76.2812 199.04H75.2812V204H76.2812H77.2812V199.04H76.2812ZM76.2812 204V203H74.5813V204V205H76.2812V204ZM74.5813 204H75.5813V199.04H74.5813H73.5812V204H74.5813Z" fill="black" mask="url(#path-8-outside-1_23_1154)"/>
<path d="M35.9959 0.539999H40.7059C43.3059 0.539999 45.2259 0.999999 46.4659 1.92C47.7259 2.84 48.3559 4.39 48.3559 6.57C48.3559 7.77 48.1259 8.77 47.6659 9.57C47.2059 10.37 46.6259 11.02 45.9259 11.52C45.2459 12 44.5059 12.35 43.7059 12.57C42.9059 12.77 42.1659 12.87 41.4859 12.87H38.5159V21H35.9959V0.539999ZM38.5159 10.62H41.2759C41.9559 10.62 42.5659 10.56 43.1059 10.44C43.6659 10.3 44.1459 10.08 44.5459 9.78C44.9459 9.46 45.2559 9.04 45.4759 8.52C45.6959 7.98 45.8059 7.31 45.8059 6.51C45.8059 5.71 45.6859 5.07 45.4459 4.59C45.2259 4.09 44.8859 3.71 44.4259 3.45C43.9859 3.19 43.4259 3.02 42.7459 2.94C42.0659 2.84 41.2759 2.79 40.3759 2.79H38.5159V10.62ZM53.097 0.539999H55.617V18.6H64.917V21H53.097V0.539999ZM73.9177 0.539999H77.0377L84.0577 21H81.4477L79.6477 15.54H71.3377L69.5077 21H66.8977L73.9177 0.539999ZM78.8377 13.14L75.5377 2.94H75.4477L72.1177 13.14H78.8377ZM91.2078 13.56L84.6678 0.539999H87.4578L92.4678 10.47L97.5078 0.539999H100.298L93.7578 13.56V21H91.2078V13.56ZM104.195 0.539999H116.735V2.85H106.715V9.39H116.015V11.64H106.715V18.69H117.035V21H104.195V0.539999ZM122.029 0.539999H127.069C128.169 0.539999 129.169 0.639999 130.069 0.839998C130.989 1.02 131.769 1.34 132.409 1.8C133.049 2.24 133.539 2.83 133.879 3.57C134.219 4.31 134.389 5.24 134.389 6.36C134.369 7.6 134.159 8.61 133.759 9.39C133.359 10.15 132.869 10.77 132.289 11.25C131.709 11.71 131.039 12.05 130.279 12.27V12.33C130.359 12.41 130.479 12.56 130.639 12.78C130.819 12.98 130.969 13.16 131.089 13.32L136.879 21H133.909L127.969 12.87H124.549V21H122.029V0.539999ZM131.839 6.78C131.839 5.94 131.729 5.26 131.509 4.74C131.309 4.2 130.999 3.79 130.579 3.51C130.179 3.23 129.679 3.04 129.079 2.94C128.479 2.84 127.799 2.79 127.039 2.79H124.549V10.62H127.519C128.299 10.62 128.959 10.52 129.499 10.32C130.039 10.12 130.479 9.85 130.819 9.51C131.159 9.15 131.409 8.74 131.569 8.28C131.729 7.82 131.819 7.32 131.839 6.78ZM148.958 19.02C149.658 19 150.368 18.98 151.088 18.96C151.708 18.94 152.378 18.93 153.098 18.93C153.818 18.91 154.518 18.9 155.198 18.9H157.058V15.75C157.058 14.67 157.058 13.71 157.058 12.87C157.078 12.03 157.098 11.32 157.118 10.74C157.138 10.06 157.168 9.46 157.208 8.94L148.958 19.02ZM145.898 19.38L157.058 5.91H159.458V18.9H161.558V21H159.458V26.85H157.058V21H146.048L145.898 19.38Z" fill="black"/>
</svg>
