<svg width="200" height="316" viewBox="0 0 200 316" fill="none" xmlns="http://www.w3.org/2000/svg">
<rect x="2.5" y="36.5" width="195" height="277" rx="2.5" fill="#F02E2E" stroke="black" stroke-width="5"/>
<path d="M12.3283 225.77H13.5883V230.195H18.7633V225.77H20.0233V236H18.7633V231.32H13.5883V236H12.3283V225.77ZM22.5651 230.885C22.5651 229.915 22.7151 229.095 23.0151 228.425C23.3251 227.755 23.7151 227.215 24.1851 226.805C24.6651 226.395 25.1951 226.1 25.7751 225.92C26.3651 225.73 26.9401 225.635 27.5001 225.635C28.0601 225.635 28.6301 225.715 29.2101 225.875C29.8001 226.025 30.3301 226.3 30.8001 226.7C31.2801 227.09 31.6701 227.625 31.9701 228.305C32.2801 228.985 32.4351 229.85 32.4351 230.9C32.4351 231.88 32.2801 232.705 31.9701 233.375C31.6701 234.045 31.2801 234.59 30.8001 235.01C30.3301 235.43 29.8001 235.735 29.2101 235.925C28.6301 236.105 28.0601 236.195 27.5001 236.195C26.9401 236.195 26.3651 236.105 25.7751 235.925C25.1951 235.745 24.6651 235.45 24.1851 235.04C23.7151 234.63 23.3251 234.085 23.0151 233.405C22.7151 232.725 22.5651 231.885 22.5651 230.885ZM31.0101 230.96C31.0101 229.61 30.6951 228.585 30.0651 227.885C29.4451 227.185 28.6101 226.835 27.5601 226.835C27.0301 226.835 26.5451 226.92 26.1051 227.09C25.6751 227.25 25.3001 227.495 24.9801 227.825C24.6701 228.155 24.4251 228.57 24.2451 229.07C24.0751 229.56 23.9901 230.14 23.9901 230.81C23.9901 232.16 24.3001 233.195 24.9201 233.915C25.5501 234.635 26.3901 234.995 27.4401 234.995C27.9601 234.995 28.4401 234.915 28.8801 234.755C29.3201 234.585 29.6951 234.33 30.0051 233.99C30.3251 233.65 30.5701 233.23 30.7401 232.73C30.9201 232.23 31.0101 231.64 31.0101 230.96ZM36.1516 225.77V232.16C36.1516 232.73 36.2316 233.2 36.3916 233.57C36.5616 233.93 36.7816 234.215 37.0516 234.425C37.3216 234.635 37.6266 234.78 37.9666 234.86C38.3166 234.94 38.6716 234.98 39.0316 234.98C39.3916 234.98 39.7416 234.94 40.0816 234.86C40.4216 234.78 40.7266 234.635 40.9966 234.425C41.2666 234.215 41.4816 233.93 41.6416 233.57C41.8016 233.2 41.8816 232.73 41.8816 232.16V225.77H43.1416V232.475C43.1416 232.995 43.0416 233.48 42.8416 233.93C42.6516 234.38 42.3766 234.775 42.0166 235.115C41.6566 235.445 41.2216 235.705 40.7116 235.895C40.2016 236.085 39.6366 236.18 39.0166 236.18C37.6866 236.18 36.6666 235.86 35.9566 235.22C35.2466 234.57 34.8916 233.655 34.8916 232.475V225.77H36.1516ZM51.3889 227.18C51.1489 227.12 50.8989 227.065 50.6389 227.015C50.4089 226.965 50.1439 226.925 49.8439 226.895C49.5539 226.855 49.2489 226.835 48.9289 226.835C48.1889 226.835 47.6589 226.95 47.3389 227.18C47.0189 227.4 46.8589 227.745 46.8589 228.215C46.8689 228.585 47.0039 228.9 47.2639 229.16C47.5239 229.41 47.8489 229.645 48.2389 229.865C48.6289 230.075 49.0539 230.285 49.5139 230.495C49.9839 230.695 50.4139 230.93 50.8039 231.2C51.1939 231.46 51.5189 231.77 51.7789 232.13C52.0489 232.48 52.1839 232.91 52.1839 233.42C52.1839 234.01 52.0539 234.485 51.7939 234.845C51.5439 235.205 51.2239 235.485 50.8339 235.685C50.4439 235.885 50.0139 236.02 49.5439 236.09C49.0839 236.16 48.6439 236.195 48.2239 236.195C47.8239 236.195 47.4589 236.17 47.1289 236.12C46.7989 236.07 46.5139 236.015 46.2739 235.955C45.9939 235.885 45.7389 235.805 45.5089 235.715L45.8089 234.5C46.0389 234.6 46.2839 234.685 46.5439 234.755C46.7739 234.815 47.0289 234.87 47.3089 234.92C47.5989 234.97 47.9039 234.995 48.2239 234.995C48.6139 234.995 48.9689 234.97 49.2889 234.92C49.6189 234.87 49.9039 234.79 50.1439 234.68C50.3839 234.57 50.5689 234.425 50.6989 234.245C50.8389 234.065 50.9089 233.845 50.9089 233.585C50.8989 233.195 50.7689 232.88 50.5189 232.64C50.2789 232.39 49.9539 232.155 49.5439 231.935C49.1439 231.705 48.7089 231.485 48.2389 231.275C47.7789 231.065 47.3539 230.825 46.9639 230.555C46.5739 230.285 46.2439 229.965 45.9739 229.595C45.7139 229.225 45.5839 228.765 45.5839 228.215C45.5839 227.895 45.6389 227.58 45.7489 227.27C45.8589 226.96 46.0439 226.685 46.3039 226.445C46.5739 226.205 46.9189 226.01 47.3389 225.86C47.7689 225.71 48.2989 225.635 48.9289 225.635C49.2889 225.635 49.6289 225.655 49.9489 225.695C50.2789 225.725 50.5639 225.76 50.8039 225.8C51.0839 225.85 51.3489 225.905 51.5989 225.965L51.3889 227.18ZM54.4994 225.77H60.7694V226.925H55.7594V230.195H60.4094V231.32H55.7594V234.845H60.9194V236H54.4994V225.77ZM68.6512 227.18C68.4112 227.12 68.1612 227.065 67.9012 227.015C67.6712 226.965 67.4062 226.925 67.1062 226.895C66.8162 226.855 66.5112 226.835 66.1912 226.835C65.4512 226.835 64.9212 226.95 64.6012 227.18C64.2812 227.4 64.1212 227.745 64.1212 228.215C64.1312 228.585 64.2662 228.9 64.5262 229.16C64.7862 229.41 65.1112 229.645 65.5012 229.865C65.8912 230.075 66.3162 230.285 66.7762 230.495C67.2462 230.695 67.6762 230.93 68.0662 231.2C68.4562 231.46 68.7812 231.77 69.0412 232.13C69.3112 232.48 69.4462 232.91 69.4462 233.42C69.4462 234.01 69.3162 234.485 69.0562 234.845C68.8062 235.205 68.4862 235.485 68.0962 235.685C67.7062 235.885 67.2762 236.02 66.8062 236.09C66.3462 236.16 65.9062 236.195 65.4862 236.195C65.0862 236.195 64.7212 236.17 64.3912 236.12C64.0612 236.07 63.7762 236.015 63.5362 235.955C63.2562 235.885 63.0012 235.805 62.7712 235.715L63.0712 234.5C63.3012 234.6 63.5462 234.685 63.8062 234.755C64.0362 234.815 64.2912 234.87 64.5712 234.92C64.8612 234.97 65.1662 234.995 65.4862 234.995C65.8762 234.995 66.2312 234.97 66.5512 234.92C66.8812 234.87 67.1662 234.79 67.4062 234.68C67.6462 234.57 67.8312 234.425 67.9612 234.245C68.1012 234.065 68.1712 233.845 68.1712 233.585C68.1612 233.195 68.0312 232.88 67.7812 232.64C67.5412 232.39 67.2162 232.155 66.8062 231.935C66.4062 231.705 65.9712 231.485 65.5012 231.275C65.0412 231.065 64.6162 230.825 64.2262 230.555C63.8362 230.285 63.5062 229.965 63.2362 229.595C62.9762 229.225 62.8462 228.765 62.8462 228.215C62.8462 227.895 62.9012 227.58 63.0112 227.27C63.1212 226.96 63.3062 226.685 63.5662 226.445C63.8362 226.205 64.1812 226.01 64.6012 225.86C65.0312 225.71 65.5612 225.635 66.1912 225.635C66.5512 225.635 66.8912 225.655 67.2112 225.695C67.5412 225.725 67.8262 225.76 68.0662 225.8C68.3462 225.85 68.6112 225.905 68.8612 225.965L68.6512 227.18Z" fill="black"/>
<path d="M12.447 258.77H13.707V263.195H18.882V258.77H20.142V269H18.882V264.32H13.707V269H12.447V258.77ZM22.6837 263.885C22.6837 262.915 22.8337 262.095 23.1337 261.425C23.4437 260.755 23.8337 260.215 24.3037 259.805C24.7838 259.395 25.3138 259.1 25.8938 258.92C26.4837 258.73 27.0587 258.635 27.6188 258.635C28.1788 258.635 28.7488 258.715 29.3288 258.875C29.9188 259.025 30.4488 259.3 30.9188 259.7C31.3987 260.09 31.7887 260.625 32.0888 261.305C32.3988 261.985 32.5538 262.85 32.5538 263.9C32.5538 264.88 32.3988 265.705 32.0888 266.375C31.7887 267.045 31.3987 267.59 30.9188 268.01C30.4488 268.43 29.9188 268.735 29.3288 268.925C28.7488 269.105 28.1788 269.195 27.6188 269.195C27.0587 269.195 26.4837 269.105 25.8938 268.925C25.3138 268.745 24.7838 268.45 24.3037 268.04C23.8337 267.63 23.4437 267.085 23.1337 266.405C22.8337 265.725 22.6837 264.885 22.6837 263.885ZM31.1288 263.96C31.1288 262.61 30.8138 261.585 30.1837 260.885C29.5638 260.185 28.7288 259.835 27.6787 259.835C27.1488 259.835 26.6638 259.92 26.2237 260.09C25.7937 260.25 25.4188 260.495 25.0987 260.825C24.7887 261.155 24.5437 261.57 24.3637 262.07C24.1937 262.56 24.1088 263.14 24.1088 263.81C24.1088 265.16 24.4187 266.195 25.0387 266.915C25.6688 267.635 26.5088 267.995 27.5588 267.995C28.0788 267.995 28.5588 267.915 28.9988 267.755C29.4388 267.585 29.8138 267.33 30.1238 266.99C30.4438 266.65 30.6888 266.23 30.8588 265.73C31.0388 265.23 31.1288 264.64 31.1288 263.96ZM36.9519 259.94H33.7419V258.77H41.4219V259.94H38.2119V269H36.9519V259.94ZM43.4454 258.77H49.7154V259.925H44.7054V263.195H49.3554V264.32H44.7054V267.845H49.8654V269H43.4454V258.77ZM52.3622 258.77H53.6222V267.8H58.2722V269H52.3622V258.77ZM65.5325 260.18C65.2925 260.12 65.0425 260.065 64.7825 260.015C64.5525 259.965 64.2875 259.925 63.9875 259.895C63.6975 259.855 63.3925 259.835 63.0725 259.835C62.3325 259.835 61.8025 259.95 61.4825 260.18C61.1625 260.4 61.0025 260.745 61.0025 261.215C61.0125 261.585 61.1475 261.9 61.4075 262.16C61.6675 262.41 61.9925 262.645 62.3825 262.865C62.7725 263.075 63.1975 263.285 63.6575 263.495C64.1275 263.695 64.5575 263.93 64.9475 264.2C65.3375 264.46 65.6625 264.77 65.9225 265.13C66.1925 265.48 66.3275 265.91 66.3275 266.42C66.3275 267.01 66.1975 267.485 65.9375 267.845C65.6875 268.205 65.3675 268.485 64.9775 268.685C64.5875 268.885 64.1575 269.02 63.6875 269.09C63.2275 269.16 62.7875 269.195 62.3675 269.195C61.9675 269.195 61.6025 269.17 61.2725 269.12C60.9425 269.07 60.6575 269.015 60.4175 268.955C60.1375 268.885 59.8825 268.805 59.6525 268.715L59.9525 267.5C60.1825 267.6 60.4275 267.685 60.6875 267.755C60.9175 267.815 61.1725 267.87 61.4525 267.92C61.7425 267.97 62.0475 267.995 62.3675 267.995C62.7575 267.995 63.1125 267.97 63.4325 267.92C63.7625 267.87 64.0475 267.79 64.2875 267.68C64.5275 267.57 64.7125 267.425 64.8425 267.245C64.9825 267.065 65.0525 266.845 65.0525 266.585C65.0425 266.195 64.9125 265.88 64.6625 265.64C64.4225 265.39 64.0975 265.155 63.6875 264.935C63.2875 264.705 62.8525 264.485 62.3825 264.275C61.9225 264.065 61.4975 263.825 61.1075 263.555C60.7175 263.285 60.3875 262.965 60.1175 262.595C59.8575 262.225 59.7275 261.765 59.7275 261.215C59.7275 260.895 59.7825 260.58 59.8925 260.27C60.0025 259.96 60.1875 259.685 60.4475 259.445C60.7175 259.205 61.0625 259.01 61.4825 258.86C61.9125 258.71 62.4425 258.635 63.0725 258.635C63.4325 258.635 63.7725 258.655 64.0925 258.695C64.4225 258.725 64.7075 258.76 64.9475 258.8C65.2275 258.85 65.4925 258.905 65.7425 258.965L65.5325 260.18Z" fill="black"/>
<path d="M12.5246 287.77H14.8796C16.1796 287.77 17.1396 288 17.7596 288.46C18.3896 288.92 18.7046 289.695 18.7046 290.785C18.7046 291.385 18.5896 291.885 18.3596 292.285C18.1296 292.685 17.8396 293.01 17.4896 293.26C17.1496 293.5 16.7796 293.675 16.3796 293.785C15.9796 293.885 15.6096 293.935 15.2696 293.935H13.7846V298H12.5246V287.77ZM13.7846 292.81H15.1646C15.5046 292.81 15.8096 292.78 16.0796 292.72C16.3596 292.65 16.5996 292.54 16.7996 292.39C16.9996 292.23 17.1546 292.02 17.2646 291.76C17.3746 291.49 17.4296 291.155 17.4296 290.755C17.4296 290.355 17.3696 290.035 17.2496 289.795C17.1396 289.545 16.9696 289.355 16.7396 289.225C16.5196 289.095 16.2396 289.01 15.8996 288.97C15.5596 288.92 15.1646 288.895 14.7146 288.895H13.7846V292.81ZM20.5202 292.885C20.5202 291.915 20.6702 291.095 20.9702 290.425C21.2802 289.755 21.6702 289.215 22.1402 288.805C22.6202 288.395 23.1502 288.1 23.7302 287.92C24.3202 287.73 24.8952 287.635 25.4552 287.635C26.0152 287.635 26.5852 287.715 27.1652 287.875C27.7552 288.025 28.2852 288.3 28.7552 288.7C29.2352 289.09 29.6252 289.625 29.9252 290.305C30.2352 290.985 30.3902 291.85 30.3902 292.9C30.3902 293.88 30.2352 294.705 29.9252 295.375C29.6252 296.045 29.2352 296.59 28.7552 297.01C28.2852 297.43 27.7552 297.735 27.1652 297.925C26.5852 298.105 26.0152 298.195 25.4552 298.195C24.8952 298.195 24.3202 298.105 23.7302 297.925C23.1502 297.745 22.6202 297.45 22.1402 297.04C21.6702 296.63 21.2802 296.085 20.9702 295.405C20.6702 294.725 20.5202 293.885 20.5202 292.885ZM28.9652 292.96C28.9652 291.61 28.6502 290.585 28.0202 289.885C27.4002 289.185 26.5652 288.835 25.5152 288.835C24.9852 288.835 24.5002 288.92 24.0602 289.09C23.6302 289.25 23.2552 289.495 22.9352 289.825C22.6252 290.155 22.3802 290.57 22.2002 291.07C22.0302 291.56 21.9452 292.14 21.9452 292.81C21.9452 294.16 22.2552 295.195 22.8752 295.915C23.5052 296.635 24.3452 296.995 25.3952 296.995C25.9152 296.995 26.3952 296.915 26.8352 296.755C27.2752 296.585 27.6502 296.33 27.9602 295.99C28.2802 295.65 28.5252 295.23 28.6952 294.73C28.8752 294.23 28.9652 293.64 28.9652 292.96ZM38.1567 289.18C37.9167 289.12 37.6667 289.065 37.4067 289.015C37.1767 288.965 36.9117 288.925 36.6117 288.895C36.3217 288.855 36.0167 288.835 35.6967 288.835C34.9567 288.835 34.4267 288.95 34.1067 289.18C33.7867 289.4 33.6267 289.745 33.6267 290.215C33.6367 290.585 33.7717 290.9 34.0317 291.16C34.2917 291.41 34.6167 291.645 35.0067 291.865C35.3967 292.075 35.8217 292.285 36.2817 292.495C36.7517 292.695 37.1817 292.93 37.5717 293.2C37.9617 293.46 38.2867 293.77 38.5467 294.13C38.8167 294.48 38.9517 294.91 38.9517 295.42C38.9517 296.01 38.8217 296.485 38.5617 296.845C38.3117 297.205 37.9917 297.485 37.6017 297.685C37.2117 297.885 36.7817 298.02 36.3117 298.09C35.8517 298.16 35.4117 298.195 34.9917 298.195C34.5917 298.195 34.2267 298.17 33.8967 298.12C33.5667 298.07 33.2817 298.015 33.0417 297.955C32.7617 297.885 32.5067 297.805 32.2767 297.715L32.5767 296.5C32.8067 296.6 33.0517 296.685 33.3117 296.755C33.5417 296.815 33.7967 296.87 34.0767 296.92C34.3667 296.97 34.6717 296.995 34.9917 296.995C35.3817 296.995 35.7367 296.97 36.0567 296.92C36.3867 296.87 36.6717 296.79 36.9117 296.68C37.1517 296.57 37.3367 296.425 37.4667 296.245C37.6067 296.065 37.6767 295.845 37.6767 295.585C37.6667 295.195 37.5367 294.88 37.2867 294.64C37.0467 294.39 36.7217 294.155 36.3117 293.935C35.9117 293.705 35.4767 293.485 35.0067 293.275C34.5467 293.065 34.1217 292.825 33.7317 292.555C33.3417 292.285 33.0117 291.965 32.7417 291.595C32.4817 291.225 32.3517 290.765 32.3517 290.215C32.3517 289.895 32.4067 289.58 32.5167 289.27C32.6267 288.96 32.8117 288.685 33.0717 288.445C33.3417 288.205 33.6867 288.01 34.1067 287.86C34.5367 287.71 35.0667 287.635 35.6967 287.635C36.0567 287.635 36.3967 287.655 36.7167 287.695C37.0467 287.725 37.3317 287.76 37.5717 287.8C37.8517 287.85 38.1167 287.905 38.3667 287.965L38.1567 289.18ZM46.5022 289.18C46.2622 289.12 46.0122 289.065 45.7522 289.015C45.5222 288.965 45.2572 288.925 44.9572 288.895C44.6672 288.855 44.3622 288.835 44.0422 288.835C43.3022 288.835 42.7722 288.95 42.4522 289.18C42.1322 289.4 41.9722 289.745 41.9722 290.215C41.9822 290.585 42.1172 290.9 42.3772 291.16C42.6372 291.41 42.9622 291.645 43.3522 291.865C43.7422 292.075 44.1672 292.285 44.6272 292.495C45.0972 292.695 45.5272 292.93 45.9172 293.2C46.3072 293.46 46.6322 293.77 46.8922 294.13C47.1622 294.48 47.2972 294.91 47.2972 295.42C47.2972 296.01 47.1672 296.485 46.9072 296.845C46.6572 297.205 46.3372 297.485 45.9472 297.685C45.5572 297.885 45.1272 298.02 44.6572 298.09C44.1972 298.16 43.7572 298.195 43.3372 298.195C42.9372 298.195 42.5722 298.17 42.2422 298.12C41.9122 298.07 41.6272 298.015 41.3872 297.955C41.1072 297.885 40.8522 297.805 40.6222 297.715L40.9222 296.5C41.1522 296.6 41.3972 296.685 41.6572 296.755C41.8872 296.815 42.1422 296.87 42.4222 296.92C42.7122 296.97 43.0172 296.995 43.3372 296.995C43.7272 296.995 44.0822 296.97 44.4022 296.92C44.7322 296.87 45.0172 296.79 45.2572 296.68C45.4972 296.57 45.6822 296.425 45.8122 296.245C45.9522 296.065 46.0222 295.845 46.0222 295.585C46.0122 295.195 45.8822 294.88 45.6322 294.64C45.3922 294.39 45.0672 294.155 44.6572 293.935C44.2572 293.705 43.8222 293.485 43.3522 293.275C42.8922 293.065 42.4672 292.825 42.0772 292.555C41.6872 292.285 41.3572 291.965 41.0872 291.595C40.8272 291.225 40.6972 290.765 40.6972 290.215C40.6972 289.895 40.7522 289.58 40.8622 289.27C40.9722 288.96 41.1572 288.685 41.4172 288.445C41.6872 288.205 42.0322 288.01 42.4522 287.86C42.8822 287.71 43.4122 287.635 44.0422 287.635C44.4022 287.635 44.7422 287.655 45.0622 287.695C45.3922 287.725 45.6772 287.76 45.9172 287.8C46.1972 287.85 46.4622 287.905 46.7122 287.965L46.5022 289.18ZM49.6127 287.77H55.8827V288.925H50.8727V292.195H55.5227V293.32H50.8727V296.845H56.0327V298H49.6127V287.77ZM63.7645 289.18C63.5245 289.12 63.2745 289.065 63.0145 289.015C62.7845 288.965 62.5195 288.925 62.2195 288.895C61.9295 288.855 61.6245 288.835 61.3045 288.835C60.5645 288.835 60.0345 288.95 59.7145 289.18C59.3945 289.4 59.2345 289.745 59.2345 290.215C59.2445 290.585 59.3795 290.9 59.6395 291.16C59.8995 291.41 60.2245 291.645 60.6145 291.865C61.0045 292.075 61.4295 292.285 61.8895 292.495C62.3595 292.695 62.7895 292.93 63.1795 293.2C63.5695 293.46 63.8945 293.77 64.1545 294.13C64.4245 294.48 64.5595 294.91 64.5595 295.42C64.5595 296.01 64.4295 296.485 64.1695 296.845C63.9195 297.205 63.5995 297.485 63.2095 297.685C62.8195 297.885 62.3895 298.02 61.9195 298.09C61.4595 298.16 61.0195 298.195 60.5995 298.195C60.1995 298.195 59.8345 298.17 59.5045 298.12C59.1745 298.07 58.8895 298.015 58.6495 297.955C58.3695 297.885 58.1145 297.805 57.8845 297.715L58.1845 296.5C58.4145 296.6 58.6595 296.685 58.9195 296.755C59.1495 296.815 59.4045 296.87 59.6845 296.92C59.9745 296.97 60.2795 296.995 60.5995 296.995C60.9895 296.995 61.3445 296.97 61.6645 296.92C61.9945 296.87 62.2795 296.79 62.5195 296.68C62.7595 296.57 62.9445 296.425 63.0745 296.245C63.2145 296.065 63.2845 295.845 63.2845 295.585C63.2745 295.195 63.1445 294.88 62.8945 294.64C62.6545 294.39 62.3295 294.155 61.9195 293.935C61.5195 293.705 61.0845 293.485 60.6145 293.275C60.1545 293.065 59.7295 292.825 59.3395 292.555C58.9495 292.285 58.6195 291.965 58.3495 291.595C58.0895 291.225 57.9595 290.765 57.9595 290.215C57.9595 289.895 58.0145 289.58 58.1245 289.27C58.2345 288.96 58.4195 288.685 58.6795 288.445C58.9495 288.205 59.2945 288.01 59.7145 287.86C60.1445 287.71 60.6745 287.635 61.3045 287.635C61.6645 287.635 62.0045 287.655 62.3245 287.695C62.6545 287.725 62.9395 287.76 63.1795 287.8C63.4595 287.85 63.7245 287.905 63.9745 287.965L63.7645 289.18ZM72.11 289.18C71.87 289.12 71.62 289.065 71.36 289.015C71.13 288.965 70.865 288.925 70.565 288.895C70.275 288.855 69.97 288.835 69.65 288.835C68.91 288.835 68.38 288.95 68.06 289.18C67.74 289.4 67.58 289.745 67.58 290.215C67.59 290.585 67.725 290.9 67.985 291.16C68.245 291.41 68.57 291.645 68.96 291.865C69.35 292.075 69.775 292.285 70.235 292.495C70.705 292.695 71.135 292.93 71.525 293.2C71.915 293.46 72.24 293.77 72.5 294.13C72.77 294.48 72.905 294.91 72.905 295.42C72.905 296.01 72.775 296.485 72.515 296.845C72.265 297.205 71.945 297.485 71.555 297.685C71.165 297.885 70.735 298.02 70.265 298.09C69.805 298.16 69.365 298.195 68.945 298.195C68.545 298.195 68.18 298.17 67.85 298.12C67.52 298.07 67.235 298.015 66.995 297.955C66.715 297.885 66.46 297.805 66.23 297.715L66.53 296.5C66.76 296.6 67.005 296.685 67.265 296.755C67.495 296.815 67.75 296.87 68.03 296.92C68.32 296.97 68.625 296.995 68.945 296.995C69.335 296.995 69.69 296.97 70.01 296.92C70.34 296.87 70.625 296.79 70.865 296.68C71.105 296.57 71.29 296.425 71.42 296.245C71.56 296.065 71.63 295.845 71.63 295.585C71.62 295.195 71.49 294.88 71.24 294.64C71 294.39 70.675 294.155 70.265 293.935C69.865 293.705 69.43 293.485 68.96 293.275C68.5 293.065 68.075 292.825 67.685 292.555C67.295 292.285 66.965 291.965 66.695 291.595C66.435 291.225 66.305 290.765 66.305 290.215C66.305 289.895 66.36 289.58 66.47 289.27C66.58 288.96 66.765 288.685 67.025 288.445C67.295 288.205 67.64 288.01 68.06 287.86C68.49 287.71 69.02 287.635 69.65 287.635C70.01 287.635 70.35 287.655 70.67 287.695C71 287.725 71.285 287.76 71.525 287.8C71.805 287.85 72.07 287.905 72.32 287.965L72.11 289.18ZM75.2205 287.77H76.4805V298H75.2205V287.77ZM79.012 292.885C79.012 291.915 79.162 291.095 79.462 290.425C79.772 289.755 80.162 289.215 80.632 288.805C81.112 288.395 81.642 288.1 82.222 287.92C82.812 287.73 83.387 287.635 83.947 287.635C84.507 287.635 85.077 287.715 85.657 287.875C86.247 288.025 86.777 288.3 87.247 288.7C87.727 289.09 88.117 289.625 88.417 290.305C88.727 290.985 88.882 291.85 88.882 292.9C88.882 293.88 88.727 294.705 88.417 295.375C88.117 296.045 87.727 296.59 87.247 297.01C86.777 297.43 86.247 297.735 85.657 297.925C85.077 298.105 84.507 298.195 83.947 298.195C83.387 298.195 82.812 298.105 82.222 297.925C81.642 297.745 81.112 297.45 80.632 297.04C80.162 296.63 79.772 296.085 79.462 295.405C79.162 294.725 79.012 293.885 79.012 292.885ZM87.457 292.96C87.457 291.61 87.142 290.585 86.512 289.885C85.892 289.185 85.057 288.835 84.007 288.835C83.477 288.835 82.992 288.92 82.552 289.09C82.122 289.25 81.747 289.495 81.427 289.825C81.117 290.155 80.872 290.57 80.692 291.07C80.522 291.56 80.437 292.14 80.437 292.81C80.437 294.16 80.747 295.195 81.367 295.915C81.997 296.635 82.837 296.995 83.887 296.995C84.407 296.995 84.887 296.915 85.327 296.755C85.767 296.585 86.142 296.33 86.452 295.99C86.772 295.65 87.017 295.23 87.187 294.73C87.367 294.23 87.457 293.64 87.457 292.96ZM91.4135 287.77H92.6135L97.9835 295.885H98.0135C97.9935 295.595 97.9785 295.285 97.9685 294.955C97.9485 294.675 97.9335 294.355 97.9235 293.995C97.9235 293.625 97.9235 293.25 97.9235 292.87V287.77H99.1235V298H97.9235L92.5535 289.855H92.5235C92.5335 290.155 92.5485 290.47 92.5685 290.8C92.5785 291.09 92.5885 291.415 92.5985 291.775C92.6085 292.135 92.6135 292.505 92.6135 292.885V298H91.4135V287.77ZM107.455 289.18C107.215 289.12 106.965 289.065 106.705 289.015C106.475 288.965 106.21 288.925 105.91 288.895C105.62 288.855 105.315 288.835 104.995 288.835C104.255 288.835 103.725 288.95 103.405 289.18C103.085 289.4 102.925 289.745 102.925 290.215C102.935 290.585 103.07 290.9 103.33 291.16C103.59 291.41 103.915 291.645 104.305 291.865C104.695 292.075 105.12 292.285 105.58 292.495C106.05 292.695 106.48 292.93 106.87 293.2C107.26 293.46 107.585 293.77 107.845 294.13C108.115 294.48 108.25 294.91 108.25 295.42C108.25 296.01 108.12 296.485 107.86 296.845C107.61 297.205 107.29 297.485 106.9 297.685C106.51 297.885 106.08 298.02 105.61 298.09C105.15 298.16 104.71 298.195 104.29 298.195C103.89 298.195 103.525 298.17 103.195 298.12C102.865 298.07 102.58 298.015 102.34 297.955C102.06 297.885 101.805 297.805 101.575 297.715L101.875 296.5C102.105 296.6 102.35 296.685 102.61 296.755C102.84 296.815 103.095 296.87 103.375 296.92C103.665 296.97 103.97 296.995 104.29 296.995C104.68 296.995 105.035 296.97 105.355 296.92C105.685 296.87 105.97 296.79 106.21 296.68C106.45 296.57 106.635 296.425 106.765 296.245C106.905 296.065 106.975 295.845 106.975 295.585C106.965 295.195 106.835 294.88 106.585 294.64C106.345 294.39 106.02 294.155 105.61 293.935C105.21 293.705 104.775 293.485 104.305 293.275C103.845 293.065 103.42 292.825 103.03 292.555C102.64 292.285 102.31 291.965 102.04 291.595C101.78 291.225 101.65 290.765 101.65 290.215C101.65 289.895 101.705 289.58 101.815 289.27C101.925 288.96 102.11 288.685 102.37 288.445C102.64 288.205 102.985 288.01 103.405 287.86C103.835 287.71 104.365 287.635 104.995 287.635C105.355 287.635 105.695 287.655 106.015 287.695C106.345 287.725 106.63 287.76 106.87 287.8C107.15 287.85 107.415 287.905 107.665 287.965L107.455 289.18Z" fill="black"/>
<rect x="40.5" y="61.5" width="120" height="110" rx="2.5" fill="white" stroke="black" stroke-width="5"/>
<path d="M99.5054 74.5C111.154 74.5 120.505 83.7286 120.505 95C120.505 106.271 111.154 115.5 99.5054 115.5C87.8564 115.5 78.5054 106.271 78.5054 95C78.5054 83.7286 87.8564 74.5 99.5054 74.5Z" stroke="black" stroke-width="5"/>
<path d="M63.0064 159.5C62.2064 108.7 137.005 107.5 137.006 159.5" stroke="black" stroke-width="5"/>
<mask id="path-8-outside-1_23_1184" maskUnits="userSpaceOnUse" x="11" y="190" width="73" height="17" fill="black">
<rect fill="white" x="11" y="190" width="73" height="17"/>
<path d="M13.2603 191.36H15.4003L18.4803 199.48C18.6536 199.947 18.8136 200.38 18.9603 200.78C19.107 201.167 19.2336 201.513 19.3403 201.82C19.4736 202.167 19.587 202.487 19.6803 202.78H19.7203C19.8003 202.487 19.9003 202.167 20.0203 201.82C20.127 201.513 20.247 201.167 20.3803 200.78C20.5136 200.38 20.6736 199.947 20.8603 199.48L24.0003 191.36H26.1403L26.8403 205H25.1403L24.8003 197.5C24.7736 196.847 24.7536 196.293 24.7403 195.84C24.727 195.387 24.7203 195.013 24.7203 194.72V193.88H24.6803C24.6003 194.08 24.5003 194.353 24.3803 194.7C24.2736 194.993 24.1336 195.373 23.9603 195.84C23.8003 196.293 23.6003 196.847 23.3603 197.5L20.5403 205H18.8403L16.0003 197.5C15.747 196.86 15.5403 196.313 15.3803 195.86C15.2203 195.393 15.087 195.013 14.9803 194.72C14.8603 194.373 14.767 194.093 14.7003 193.88H14.6603C14.6736 194.093 14.687 194.373 14.7003 194.72C14.7136 195.28 14.6936 196.207 14.6403 197.5L14.2403 205H12.5403L13.2603 191.36ZM29.9083 198.18C29.9083 196.887 30.1083 195.793 30.5083 194.9C30.9216 194.007 31.4416 193.287 32.0683 192.74C32.7083 192.193 33.4149 191.8 34.1883 191.56C34.9749 191.307 35.7416 191.18 36.4883 191.18C37.2349 191.18 37.9949 191.287 38.7683 191.5C39.5549 191.7 40.2616 192.067 40.8883 192.6C41.5283 193.12 42.0483 193.833 42.4483 194.74C42.8616 195.647 43.0683 196.8 43.0683 198.2C43.0683 199.507 42.8616 200.607 42.4483 201.5C42.0483 202.393 41.5283 203.12 40.8883 203.68C40.2616 204.24 39.5549 204.647 38.7683 204.9C37.9949 205.14 37.2349 205.26 36.4883 205.26C35.7416 205.26 34.9749 205.14 34.1883 204.9C33.4149 204.66 32.7083 204.267 32.0683 203.72C31.4416 203.173 30.9216 202.447 30.5083 201.54C30.1083 200.633 29.9083 199.513 29.9083 198.18ZM41.1683 198.28C41.1683 196.48 40.7483 195.113 39.9083 194.18C39.0816 193.247 37.9683 192.78 36.5683 192.78C35.8616 192.78 35.2149 192.893 34.6283 193.12C34.0549 193.333 33.5549 193.66 33.1283 194.1C32.7149 194.54 32.3883 195.093 32.1483 195.76C31.9216 196.413 31.8083 197.187 31.8083 198.08C31.8083 199.88 32.2216 201.26 33.0483 202.22C33.8883 203.18 35.0083 203.66 36.4083 203.66C37.1016 203.66 37.7416 203.553 38.3283 203.34C38.9149 203.113 39.4149 202.773 39.8283 202.32C40.2549 201.867 40.5816 201.307 40.8083 200.64C41.0483 199.973 41.1683 199.187 41.1683 198.28ZM46.4436 191.36H48.0436L55.2036 202.18H55.2436C55.2169 201.793 55.1969 201.38 55.1836 200.94C55.1569 200.567 55.1369 200.14 55.1236 199.66C55.1236 199.167 55.1236 198.667 55.1236 198.16V191.36H56.7236V205H55.1236L47.9636 194.14H47.9236C47.9369 194.54 47.9569 194.96 47.9836 195.4C47.9969 195.787 48.0103 196.22 48.0236 196.7C48.0369 197.18 48.0436 197.673 48.0436 198.18V205H46.4436V191.36ZM60.8522 191.36H69.2122V192.9H62.5322V197.26H68.7322V198.76H62.5322V203.46H69.4122V205H60.8522V191.36ZM75.5813 200.04L71.2213 191.36H73.0813L76.4213 197.98L79.7813 191.36H81.6413L77.2813 200.04V205H75.5813V200.04Z"/>
</mask>
<path d="M13.2603 191.36H15.4003L18.4803 199.48C18.6536 199.947 18.8136 200.38 18.9603 200.78C19.107 201.167 19.2336 201.513 19.3403 201.82C19.4736 202.167 19.587 202.487 19.6803 202.78H19.7203C19.8003 202.487 19.9003 202.167 20.0203 201.82C20.127 201.513 20.247 201.167 20.3803 200.78C20.5136 200.38 20.6736 199.947 20.8603 199.48L24.0003 191.36H26.1403L26.8403 205H25.1403L24.8003 197.5C24.7736 196.847 24.7536 196.293 24.7403 195.84C24.727 195.387 24.7203 195.013 24.7203 194.72V193.88H24.6803C24.6003 194.08 24.5003 194.353 24.3803 194.7C24.2736 194.993 24.1336 195.373 23.9603 195.84C23.8003 196.293 23.6003 196.847 23.3603 197.5L20.5403 205H18.8403L16.0003 197.5C15.747 196.86 15.5403 196.313 15.3803 195.86C15.2203 195.393 15.087 195.013 14.9803 194.72C14.8603 194.373 14.767 194.093 14.7003 193.88H14.6603C14.6736 194.093 14.687 194.373 14.7003 194.72C14.7136 195.28 14.6936 196.207 14.6403 197.5L14.2403 205H12.5403L13.2603 191.36ZM29.9083 198.18C29.9083 196.887 30.1083 195.793 30.5083 194.9C30.9216 194.007 31.4416 193.287 32.0683 192.74C32.7083 192.193 33.4149 191.8 34.1883 191.56C34.9749 191.307 35.7416 191.18 36.4883 191.18C37.2349 191.18 37.9949 191.287 38.7683 191.5C39.5549 191.7 40.2616 192.067 40.8883 192.6C41.5283 193.12 42.0483 193.833 42.4483 194.74C42.8616 195.647 43.0683 196.8 43.0683 198.2C43.0683 199.507 42.8616 200.607 42.4483 201.5C42.0483 202.393 41.5283 203.12 40.8883 203.68C40.2616 204.24 39.5549 204.647 38.7683 204.9C37.9949 205.14 37.2349 205.26 36.4883 205.26C35.7416 205.26 34.9749 205.14 34.1883 204.9C33.4149 204.66 32.7083 204.267 32.0683 203.72C31.4416 203.173 30.9216 202.447 30.5083 201.54C30.1083 200.633 29.9083 199.513 29.9083 198.18ZM41.1683 198.28C41.1683 196.48 40.7483 195.113 39.9083 194.18C39.0816 193.247 37.9683 192.78 36.5683 192.78C35.8616 192.78 35.2149 192.893 34.6283 193.12C34.0549 193.333 33.5549 193.66 33.1283 194.1C32.7149 194.54 32.3883 195.093 32.1483 195.76C31.9216 196.413 31.8083 197.187 31.8083 198.08C31.8083 199.88 32.2216 201.26 33.0483 202.22C33.8883 203.18 35.0083 203.66 36.4083 203.66C37.1016 203.66 37.7416 203.553 38.3283 203.34C38.9149 203.113 39.4149 202.773 39.8283 202.32C40.2549 201.867 40.5816 201.307 40.8083 200.64C41.0483 199.973 41.1683 199.187 41.1683 198.28ZM46.4436 191.36H48.0436L55.2036 202.18H55.2436C55.2169 201.793 55.1969 201.38 55.1836 200.94C55.1569 200.567 55.1369 200.14 55.1236 199.66C55.1236 199.167 55.1236 198.667 55.1236 198.16V191.36H56.7236V205H55.1236L47.9636 194.14H47.9236C47.9369 194.54 47.9569 194.96 47.9836 195.4C47.9969 195.787 48.0103 196.22 48.0236 196.7C48.0369 197.18 48.0436 197.673 48.0436 198.18V205H46.4436V191.36ZM60.8522 191.36H69.2122V192.9H62.5322V197.26H68.7322V198.76H62.5322V203.46H69.4122V205H60.8522V191.36ZM75.5813 200.04L71.2213 191.36H73.0813L76.4213 197.98L79.7813 191.36H81.6413L77.2813 200.04V205H75.5813V200.04Z" fill="black"/>
<path d="M13.2603 191.36V190.36H12.3117L12.2617 191.307L13.2603 191.36ZM15.4003 191.36L16.3353 191.005L16.0905 190.36H15.4003V191.36ZM18.4803 199.48L19.4178 199.132L19.4153 199.125L18.4803 199.48ZM18.9603 200.78L18.0214 201.124L18.0253 201.135L18.9603 200.78ZM19.3403 201.82L18.3958 202.149L18.4011 202.164L18.407 202.179L19.3403 201.82ZM19.6803 202.78L18.7274 203.083L18.9491 203.78H19.6803V202.78ZM19.7203 202.78V203.78H20.4841L20.6851 203.043L19.7203 202.78ZM20.0203 201.82L19.0758 201.491L19.0753 201.493L20.0203 201.82ZM20.3803 200.78L21.3257 201.106L21.329 201.096L20.3803 200.78ZM20.8603 199.48L21.7889 199.851L21.793 199.841L20.8603 199.48ZM24.0003 191.36V190.36H23.3148L23.0676 190.999L24.0003 191.36ZM26.1403 191.36L27.139 191.309L27.0903 190.36H26.1403V191.36ZM26.8403 205V206H27.8929L27.839 204.949L26.8403 205ZM25.1403 205L24.1413 205.045L24.1846 206H25.1403V205ZM24.8003 197.5L23.8011 197.541L23.8013 197.545L24.8003 197.5ZM24.7403 195.84L25.7399 195.811V195.811L24.7403 195.84ZM24.7203 193.88H25.7203V192.88H24.7203V193.88ZM24.6803 193.88V192.88H24.0033L23.7518 193.509L24.6803 193.88ZM24.3803 194.7L25.3201 195.042L25.3228 195.034L25.3253 195.027L24.3803 194.7ZM23.9603 195.84L23.0229 195.492L23.02 195.499L23.0173 195.507L23.9603 195.84ZM23.3603 197.5L24.2964 197.852L24.299 197.845L23.3603 197.5ZM20.5403 205V206H21.2327L21.4763 205.352L20.5403 205ZM18.8403 205L17.9051 205.354L18.1497 206H18.8403V205ZM16.0003 197.5L16.9355 197.146L16.9329 197.139L16.9301 197.132L16.0003 197.5ZM15.3803 195.86L14.4343 196.184L14.4373 196.193L15.3803 195.86ZM14.9803 194.72L14.0353 195.047L14.0379 195.054L14.0405 195.062L14.9803 194.72ZM14.7003 193.88L15.6548 193.582L15.4355 192.88H14.7003V193.88ZM14.6603 193.88V192.88H13.5959L13.6623 193.942L14.6603 193.88ZM14.7003 194.72L15.7 194.696L15.6999 194.689L15.6996 194.682L14.7003 194.72ZM14.6403 197.5L15.639 197.553L15.6395 197.541L14.6403 197.5ZM14.2403 205V206H15.1884L15.2389 205.053L14.2403 205ZM12.5403 205L11.5417 204.947L11.4861 206H12.5403V205ZM13.2603 191.36V192.36H15.4003V191.36V190.36H13.2603V191.36ZM15.4003 191.36L14.4653 191.715L17.5453 199.835L18.4803 199.48L19.4153 199.125L16.3353 191.005L15.4003 191.36ZM18.4803 199.48L17.5429 199.828C17.7158 200.294 17.8753 200.726 18.0214 201.124L18.9603 200.78L19.8992 200.436C19.752 200.034 19.5915 199.6 19.4177 199.132L18.4803 199.48ZM18.9603 200.78L18.0253 201.135C18.1695 201.515 18.2929 201.853 18.3958 202.149L19.3403 201.82L20.2848 201.491C20.1744 201.174 20.0444 200.818 19.8953 200.425L18.9603 200.78ZM19.3403 201.82L18.407 202.179C18.5346 202.511 18.6411 202.812 18.7274 203.083L19.6803 202.78L20.6332 202.477C20.5329 202.161 20.4127 201.822 20.2737 201.461L19.3403 201.82ZM19.6803 202.78V203.78H19.7203V202.78V201.78H19.6803V202.78ZM19.7203 202.78L20.6851 203.043C20.7582 202.775 20.8512 202.477 20.9653 202.147L20.0203 201.82L19.0753 201.493C18.9495 201.857 18.8425 202.198 18.7555 202.517L19.7203 202.78ZM20.0203 201.82L20.9648 202.149C21.0718 201.841 21.1921 201.493 21.3257 201.106L20.3803 200.78L19.4349 200.454C19.3018 200.84 19.1821 201.186 19.0758 201.491L20.0203 201.82ZM20.3803 200.78L21.329 201.096C21.4551 200.718 21.6081 200.303 21.7888 199.851L20.8603 199.48L19.9318 199.109C19.7392 199.59 19.5722 200.042 19.4316 200.464L20.3803 200.78ZM20.8603 199.48L21.793 199.841L24.933 191.721L24.0003 191.36L23.0676 190.999L19.9276 199.119L20.8603 199.48ZM24.0003 191.36V192.36H26.1403V191.36V190.36H24.0003V191.36ZM26.1403 191.36L25.1416 191.411L25.8416 205.051L26.8403 205L27.839 204.949L27.139 191.309L26.1403 191.36ZM26.8403 205V204H25.1403V205V206H26.8403V205ZM25.1403 205L26.1393 204.955L25.7993 197.455L24.8003 197.5L23.8013 197.545L24.1413 205.045L25.1403 205ZM24.8003 197.5L25.7995 197.459C25.7729 196.808 25.7531 196.259 25.7399 195.811L24.7403 195.84L23.7407 195.869C23.7542 196.328 23.7744 196.885 23.8011 197.541L24.8003 197.5ZM24.7403 195.84L25.7399 195.811C25.7267 195.362 25.7203 195 25.7203 194.72H24.7203H23.7203C23.7203 195.027 23.7273 195.411 23.7407 195.869L24.7403 195.84ZM24.7203 194.72H25.7203V193.88H24.7203H23.7203V194.72H24.7203ZM24.7203 193.88V192.88H24.6803V193.88V194.88H24.7203V193.88ZM24.6803 193.88L23.7518 193.509C23.6633 193.73 23.5574 194.02 23.4353 194.373L24.3803 194.7L25.3253 195.027C25.4432 194.687 25.5373 194.43 25.6088 194.251L24.6803 193.88ZM24.3803 194.7L23.4405 194.358C23.335 194.649 23.1958 195.026 23.0229 195.492L23.9603 195.84L24.8977 196.188C25.0715 195.72 25.2123 195.338 25.3201 195.042L24.3803 194.7ZM23.9603 195.84L23.0173 195.507C22.8592 195.955 22.6608 196.504 22.4216 197.155L23.3603 197.5L24.299 197.845C24.5399 197.189 24.7414 196.631 24.9033 196.173L23.9603 195.84ZM23.3603 197.5L22.4243 197.148L19.6043 204.648L20.5403 205L21.4763 205.352L24.2963 197.852L23.3603 197.5ZM20.5403 205V204H18.8403V205V206H20.5403V205ZM18.8403 205L19.7755 204.646L16.9355 197.146L16.0003 197.5L15.0651 197.854L17.9051 205.354L18.8403 205ZM16.0003 197.5L16.9301 197.132C16.6796 196.499 16.4778 195.965 16.3233 195.527L15.3803 195.86L14.4373 196.193C14.6028 196.662 14.8143 197.221 15.0705 197.868L16.0003 197.5ZM15.3803 195.86L16.3263 195.536C16.1653 195.066 16.0297 194.68 15.9201 194.378L14.9803 194.72L14.0405 195.062C14.1442 195.347 14.2754 195.721 14.4344 196.184L15.3803 195.86ZM14.9803 194.72L15.9253 194.393C15.8068 194.051 15.7172 193.781 15.6548 193.582L14.7003 193.88L13.7458 194.178C13.8168 194.405 13.9138 194.696 14.0353 195.047L14.9803 194.72ZM14.7003 193.88V192.88H14.6603V193.88V194.88H14.7003V193.88ZM14.6603 193.88L13.6623 193.942C13.6749 194.144 13.6879 194.416 13.7011 194.758L14.7003 194.72L15.6996 194.682C15.6861 194.331 15.6724 194.042 15.6584 193.818L14.6603 193.88ZM14.7003 194.72L13.7006 194.744C13.7131 195.268 13.6944 196.167 13.6412 197.459L14.6403 197.5L15.6395 197.541C15.6928 196.247 15.7142 195.292 15.7 194.696L14.7003 194.72ZM14.6403 197.5L13.6417 197.447L13.2417 204.947L14.2403 205L15.2389 205.053L15.6389 197.553L14.6403 197.5ZM14.2403 205V204H12.5403V205V206H14.2403V205ZM12.5403 205L13.5389 205.053L14.2589 191.413L13.2603 191.36L12.2617 191.307L11.5417 204.947L12.5403 205ZM30.5083 194.9L29.6006 194.48L29.5956 194.491L30.5083 194.9ZM32.0683 192.74L31.4188 191.98L31.4109 191.986L32.0683 192.74ZM34.1883 191.56L34.4847 192.515L34.4948 192.512L34.1883 191.56ZM38.7683 191.5L38.5024 192.464L38.5121 192.467L38.5219 192.469L38.7683 191.5ZM40.8883 192.6L40.2402 193.362L40.2488 193.369L40.2577 193.376L40.8883 192.6ZM42.4483 194.74L41.5333 195.144L41.5384 195.155L42.4483 194.74ZM42.4483 201.5L41.5406 201.08L41.5356 201.091L42.4483 201.5ZM40.8883 203.68L40.2297 202.927L40.222 202.934L40.8883 203.68ZM38.7683 204.9L39.0647 205.855L39.0748 205.852L38.7683 204.9ZM34.1883 204.9L33.8919 205.855L33.8965 205.856L34.1883 204.9ZM32.0683 203.72L31.4109 204.474L31.4188 204.48L32.0683 203.72ZM30.5083 201.54L29.5933 201.944L29.5984 201.955L30.5083 201.54ZM39.9083 194.18L39.1597 194.843L39.165 194.849L39.9083 194.18ZM34.6283 193.12L34.977 194.057L34.9887 194.053L34.6283 193.12ZM33.1283 194.1L32.4104 193.404L32.4049 193.41L32.3994 193.415L33.1283 194.1ZM32.1483 195.76L31.2073 195.421L31.2035 195.432L32.1483 195.76ZM33.0483 202.22L32.2905 202.873L32.2957 202.879L33.0483 202.22ZM38.3283 203.34L38.67 204.28L38.6794 204.276L38.6887 204.273L38.3283 203.34ZM39.8283 202.32L39.1001 201.635L39.0947 201.64L39.0893 201.646L39.8283 202.32ZM40.8083 200.64L39.8674 200.301L39.8644 200.31L39.8615 200.318L40.8083 200.64ZM29.9083 198.18H30.9083C30.9083 196.984 31.0939 196.039 31.421 195.309L30.5083 194.9L29.5956 194.491C29.1227 195.547 28.9083 196.789 28.9083 198.18H29.9083ZM30.5083 194.9L31.4158 195.32C31.7808 194.531 32.2225 193.932 32.7257 193.494L32.0683 192.74L31.4109 191.986C30.6607 192.641 30.0624 193.482 29.6007 194.48L30.5083 194.9ZM32.0683 192.74L32.7178 193.5C33.2587 193.038 33.8462 192.713 34.4847 192.515L34.1883 191.56L33.8919 190.605C32.9837 190.887 32.1579 191.348 31.4188 191.98L32.0683 192.74ZM34.1883 191.56L34.4948 192.512C35.1929 192.287 35.8562 192.18 36.4883 192.18V191.18V190.18C35.6271 190.18 34.757 190.326 33.8818 190.608L34.1883 191.56ZM36.4883 191.18V192.18C37.1387 192.18 37.8092 192.273 38.5024 192.464L38.7683 191.5L39.0342 190.536C38.1807 190.301 37.3312 190.18 36.4883 190.18V191.18ZM38.7683 191.5L38.5219 192.469C39.1584 192.631 39.7281 192.926 40.2402 193.362L40.8883 192.6L41.5364 191.838C40.7951 191.208 39.9515 190.769 39.0147 190.531L38.7683 191.5ZM40.8883 192.6L40.2577 193.376C40.7523 193.778 41.1845 194.353 41.5334 195.144L42.4483 194.74L43.3632 194.336C42.912 193.314 42.3042 192.462 41.5189 191.824L40.8883 192.6ZM42.4483 194.74L41.5384 195.155C41.8734 195.89 42.0683 196.889 42.0683 198.2H43.0683H44.0683C44.0683 196.711 43.8498 195.404 43.3582 194.325L42.4483 194.74ZM43.0683 198.2H42.0683C42.0683 199.407 41.8767 200.354 41.5407 201.08L42.4483 201.5L43.3558 201.92C43.8466 200.859 44.0683 199.606 44.0683 198.2H43.0683ZM42.4483 201.5L41.5356 201.091C41.1857 201.873 40.746 202.476 40.2298 202.927L40.8883 203.68L41.5468 204.433C42.3105 203.764 42.9109 202.914 43.361 201.909L42.4483 201.5ZM40.8883 203.68L40.222 202.934C39.6977 203.403 39.1131 203.738 38.4618 203.948L38.7683 204.9L39.0748 205.852C39.9968 205.555 40.8256 205.077 41.5546 204.426L40.8883 203.68ZM38.7683 204.9L38.4719 203.945C37.7865 204.158 37.1263 204.26 36.4883 204.26V205.26V206.26C37.3436 206.26 38.2034 206.122 39.0647 205.855L38.7683 204.9ZM36.4883 205.26V204.26C35.85 204.26 35.1817 204.158 34.4801 203.944L34.1883 204.9L33.8965 205.856C34.7682 206.122 35.6333 206.26 36.4883 206.26V205.26ZM34.1883 204.9L34.4847 203.945C33.8462 203.747 33.2587 203.422 32.7178 202.96L32.0683 203.72L31.4188 204.48C32.1579 205.112 32.9837 205.573 33.8919 205.855L34.1883 204.9ZM32.0683 203.72L32.7256 202.966C32.2255 202.53 31.784 201.928 31.4182 201.125L30.5083 201.54L29.5984 201.955C30.0593 202.966 30.6578 203.817 31.4109 204.474L32.0683 203.72ZM30.5083 201.54L31.4232 201.136C31.0951 200.393 30.9083 199.42 30.9083 198.18H29.9083H28.9083C28.9083 199.607 29.1214 200.874 29.5934 201.944L30.5083 201.54ZM41.1683 198.28H42.1683C42.1683 196.339 41.7162 194.694 40.6516 193.511L39.9083 194.18L39.165 194.849C39.7804 195.533 40.1683 196.621 40.1683 198.28H41.1683ZM39.9083 194.18L40.6569 193.517C39.6159 192.342 38.2154 191.78 36.5683 191.78V192.78V193.78C37.7212 193.78 38.5473 194.152 39.1597 194.843L39.9083 194.18ZM36.5683 192.78V191.78C35.7535 191.78 34.9828 191.911 34.2679 192.187L34.6283 193.12L34.9887 194.053C35.4471 193.876 35.9697 193.78 36.5683 193.78V192.78ZM34.6283 193.12L34.2795 192.183C33.5665 192.448 32.9404 192.857 32.4104 193.404L33.1283 194.1L33.8462 194.796C34.1695 194.463 34.5434 194.219 34.977 194.057L34.6283 193.12ZM33.1283 194.1L32.3994 193.415C31.8777 193.971 31.4857 194.648 31.2074 195.421L32.1483 195.76L33.0892 196.099C33.2908 195.539 33.5522 195.109 33.8571 194.785L33.1283 194.1ZM32.1483 195.76L31.2035 195.432C30.9314 196.217 30.8083 197.106 30.8083 198.08H31.8083H32.8083C32.8083 197.267 32.9118 196.61 33.093 196.088L32.1483 195.76ZM31.8083 198.08H30.8083C30.8083 200.02 31.253 201.668 32.2905 202.873L33.0483 202.22L33.806 201.567C33.1902 200.852 32.8083 199.74 32.8083 198.08H31.8083ZM33.0483 202.22L32.2957 202.879C33.3455 204.078 34.7515 204.66 36.4083 204.66V203.66V202.66C35.265 202.66 34.4311 202.282 33.8009 201.561L33.0483 202.22ZM36.4083 203.66V204.66C37.2053 204.66 37.9624 204.537 38.67 204.28L38.3283 203.34L37.9865 202.4C37.5209 202.57 36.9979 202.66 36.4083 202.66V203.66ZM38.3283 203.34L38.6887 204.273C39.4161 203.992 40.0468 203.565 40.5672 202.994L39.8283 202.32L39.0893 201.646C38.7831 201.982 38.4138 202.235 37.9679 202.407L38.3283 203.34ZM39.8283 202.32L40.5565 203.005C41.0933 202.435 41.4884 201.746 41.7551 200.962L40.8083 200.64L39.8615 200.318C39.6748 200.867 39.4166 201.298 39.1001 201.635L39.8283 202.32ZM40.8083 200.64L41.7492 200.979C42.0375 200.178 42.1683 199.271 42.1683 198.28H41.1683H40.1683C40.1683 199.102 40.0591 199.769 39.8674 200.301L40.8083 200.64ZM46.4436 191.36V190.36H45.4436V191.36H46.4436ZM48.0436 191.36L48.8775 190.808L48.581 190.36H48.0436V191.36ZM55.2036 202.18L54.3697 202.732L54.6662 203.18H55.2036V202.18ZM55.2436 202.18V203.18H56.3149L56.2412 202.111L55.2436 202.18ZM55.1836 200.94L56.1831 200.91L56.1825 200.889L56.1811 200.869L55.1836 200.94ZM55.1236 199.66H54.1236V199.674L54.124 199.688L55.1236 199.66ZM55.1236 191.36V190.36H54.1236V191.36H55.1236ZM56.7236 191.36H57.7236V190.36H56.7236V191.36ZM56.7236 205V206H57.7236V205H56.7236ZM55.1236 205L54.2887 205.55L54.5851 206H55.1236V205ZM47.9636 194.14L48.7985 193.59L48.5021 193.14H47.9636V194.14ZM47.9236 194.14V193.14H46.8897L46.9241 194.173L47.9236 194.14ZM47.9836 195.4L48.983 195.366L48.9826 195.353L48.9818 195.34L47.9836 195.4ZM48.0436 205V206H49.0436V205H48.0436ZM46.4436 205H45.4436V206H46.4436V205ZM46.4436 191.36V192.36H48.0436V191.36V190.36H46.4436V191.36ZM48.0436 191.36L47.2097 191.912L54.3697 202.732L55.2036 202.18L56.0375 201.628L48.8775 190.808L48.0436 191.36ZM55.2036 202.18V203.18H55.2436V202.18V201.18H55.2036V202.18ZM55.2436 202.18L56.2412 202.111C56.2155 201.739 56.1961 201.339 56.1831 200.91L55.1836 200.94L54.1841 200.97C54.1977 201.421 54.2183 201.848 54.246 202.249L55.2436 202.18ZM55.1836 200.94L56.1811 200.869C56.1557 200.513 56.1362 200.102 56.1232 199.632L55.1236 199.66L54.124 199.688C54.1376 200.178 54.1582 200.62 54.1861 201.011L55.1836 200.94ZM55.1236 199.66H56.1236C56.1236 199.659 56.1236 199.658 56.1236 199.657C56.1236 199.656 56.1236 199.655 56.1236 199.654C56.1236 199.653 56.1236 199.652 56.1236 199.651C56.1236 199.65 56.1236 199.649 56.1236 199.648C56.1236 199.647 56.1236 199.647 56.1236 199.646C56.1236 199.645 56.1236 199.644 56.1236 199.643C56.1236 199.642 56.1236 199.641 56.1236 199.64C56.1236 199.639 56.1236 199.638 56.1236 199.637C56.1236 199.636 56.1236 199.635 56.1236 199.634C56.1236 199.633 56.1236 199.632 56.1236 199.631C56.1236 199.63 56.1236 199.629 56.1236 199.628C56.1236 199.627 56.1236 199.626 56.1236 199.625C56.1236 199.624 56.1236 199.623 56.1236 199.622C56.1236 199.621 56.1236 199.62 56.1236 199.62C56.1236 199.619 56.1236 199.618 56.1236 199.617C56.1236 199.616 56.1236 199.615 56.1236 199.614C56.1236 199.613 56.1236 199.612 56.1236 199.611C56.1236 199.61 56.1236 199.609 56.1236 199.608C56.1236 199.607 56.1236 199.606 56.1236 199.605C56.1236 199.604 56.1236 199.603 56.1236 199.602C56.1236 199.601 56.1236 199.6 56.1236 199.599C56.1236 199.598 56.1236 199.597 56.1236 199.596C56.1236 199.595 56.1236 199.594 56.1236 199.593C56.1236 199.593 56.1236 199.592 56.1236 199.591C56.1236 199.59 56.1236 199.589 56.1236 199.588C56.1236 199.587 56.1236 199.586 56.1236 199.585C56.1236 199.584 56.1236 199.583 56.1236 199.582C56.1236 199.581 56.1236 199.58 56.1236 199.579C56.1236 199.578 56.1236 199.577 56.1236 199.576C56.1236 199.575 56.1236 199.574 56.1236 199.573C56.1236 199.572 56.1236 199.571 56.1236 199.57C56.1236 199.569 56.1236 199.568 56.1236 199.567C56.1236 199.566 56.1236 199.565 56.1236 199.565C56.1236 199.564 56.1236 199.563 56.1236 199.562C56.1236 199.561 56.1236 199.56 56.1236 199.559C56.1236 199.558 56.1236 199.557 56.1236 199.556C56.1236 199.555 56.1236 199.554 56.1236 199.553C56.1236 199.552 56.1236 199.551 56.1236 199.55C56.1236 199.549 56.1236 199.548 56.1236 199.547C56.1236 199.546 56.1236 199.545 56.1236 199.544C56.1236 199.543 56.1236 199.542 56.1236 199.541C56.1236 199.54 56.1236 199.539 56.1236 199.538C56.1236 199.537 56.1236 199.537 56.1236 199.536C56.1236 199.535 56.1236 199.534 56.1236 199.533C56.1236 199.532 56.1236 199.531 56.1236 199.53C56.1236 199.529 56.1236 199.528 56.1236 199.527C56.1236 199.526 56.1236 199.525 56.1236 199.524C56.1236 199.523 56.1236 199.522 56.1236 199.521C56.1236 199.52 56.1236 199.519 56.1236 199.518C56.1236 199.517 56.1236 199.516 56.1236 199.515C56.1236 199.514 56.1236 199.513 56.1236 199.512C56.1236 199.511 56.1236 199.51 56.1236 199.509C56.1236 199.509 56.1236 199.508 56.1236 199.507C56.1236 199.506 56.1236 199.505 56.1236 199.504C56.1236 199.503 56.1236 199.502 56.1236 199.501C56.1236 199.5 56.1236 199.499 56.1236 199.498C56.1236 199.497 56.1236 199.496 56.1236 199.495C56.1236 199.494 56.1236 199.493 56.1236 199.492C56.1236 199.491 56.1236 199.49 56.1236 199.489C56.1236 199.488 56.1236 199.487 56.1236 199.486C56.1236 199.485 56.1236 199.484 56.1236 199.483C56.1236 199.482 56.1236 199.481 56.1236 199.48C56.1236 199.48 56.1236 199.479 56.1236 199.478C56.1236 199.477 56.1236 199.476 56.1236 199.475C56.1236 199.474 56.1236 199.473 56.1236 199.472C56.1236 199.471 56.1236 199.47 56.1236 199.469C56.1236 199.468 56.1236 199.467 56.1236 199.466C56.1236 199.465 56.1236 199.464 56.1236 199.463C56.1236 199.462 56.1236 199.461 56.1236 199.46C56.1236 199.459 56.1236 199.458 56.1236 199.457C56.1236 199.456 56.1236 199.455 56.1236 199.454C56.1236 199.453 56.1236 199.452 56.1236 199.451C56.1236 199.451 56.1236 199.45 56.1236 199.449C56.1236 199.448 56.1236 199.447 56.1236 199.446C56.1236 199.445 56.1236 199.444 56.1236 199.443C56.1236 199.442 56.1236 199.441 56.1236 199.44C56.1236 199.439 56.1236 199.438 56.1236 199.437C56.1236 199.436 56.1236 199.435 56.1236 199.434C56.1236 199.433 56.1236 199.432 56.1236 199.431C56.1236 199.43 56.1236 199.429 56.1236 199.428C56.1236 199.427 56.1236 199.426 56.1236 199.425C56.1236 199.424 56.1236 199.423 56.1236 199.422C56.1236 199.421 56.1236 199.421 56.1236 199.42C56.1236 199.419 56.1236 199.418 56.1236 199.417C56.1236 199.416 56.1236 199.415 56.1236 199.414C56.1236 199.413 56.1236 199.412 56.1236 199.411C56.1236 199.41 56.1236 199.409 56.1236 199.408C56.1236 199.407 56.1236 199.406 56.1236 199.405C56.1236 199.404 56.1236 199.403 56.1236 199.402C56.1236 199.401 56.1236 199.4 56.1236 199.399C56.1236 199.398 56.1236 199.397 56.1236 199.396C56.1236 199.395 56.1236 199.394 56.1236 199.393C56.1236 199.392 56.1236 199.391 56.1236 199.391C56.1236 199.39 56.1236 199.389 56.1236 199.388C56.1236 199.387 56.1236 199.386 56.1236 199.385C56.1236 199.384 56.1236 199.383 56.1236 199.382C56.1236 199.381 56.1236 199.38 56.1236 199.379C56.1236 199.378 56.1236 199.377 56.1236 199.376C56.1236 199.375 56.1236 199.374 56.1236 199.373C56.1236 199.372 56.1236 199.371 56.1236 199.37C56.1236 199.369 56.1236 199.368 56.1236 199.367C56.1236 199.366 56.1236 199.365 56.1236 199.364C56.1236 199.363 56.1236 199.362 56.1236 199.361C56.1236 199.36 56.1236 199.36 56.1236 199.359C56.1236 199.358 56.1236 199.357 56.1236 199.356C56.1236 199.355 56.1236 199.354 56.1236 199.353C56.1236 199.352 56.1236 199.351 56.1236 199.35C56.1236 199.349 56.1236 199.348 56.1236 199.347C56.1236 199.346 56.1236 199.345 56.1236 199.344C56.1236 199.343 56.1236 199.342 56.1236 199.341C56.1236 199.34 56.1236 199.339 56.1236 199.338C56.1236 199.337 56.1236 199.336 56.1236 199.335C56.1236 199.334 56.1236 199.333 56.1236 199.332C56.1236 199.331 56.1236 199.33 56.1236 199.329C56.1236 199.329 56.1236 199.328 56.1236 199.327C56.1236 199.326 56.1236 199.325 56.1236 199.324C56.1236 199.323 56.1236 199.322 56.1236 199.321C56.1236 199.32 56.1236 199.319 56.1236 199.318C56.1236 199.317 56.1236 199.316 56.1236 199.315C56.1236 199.314 56.1236 199.313 56.1236 199.312C56.1236 199.311 56.1236 199.31 56.1236 199.309C56.1236 199.308 56.1236 199.307 56.1236 199.306C56.1236 199.305 56.1236 199.304 56.1236 199.303C56.1236 199.302 56.1236 199.301 56.1236 199.3C56.1236 199.299 56.1236 199.298 56.1236 199.297C56.1236 199.297 56.1236 199.296 56.1236 199.295C56.1236 199.294 56.1236 199.293 56.1236 199.292C56.1236 199.291 56.1236 199.29 56.1236 199.289C56.1236 199.288 56.1236 199.287 56.1236 199.286C56.1236 199.285 56.1236 199.284 56.1236 199.283C56.1236 199.282 56.1236 199.281 56.1236 199.28C56.1236 199.279 56.1236 199.278 56.1236 199.277C56.1236 199.276 56.1236 199.275 56.1236 199.274C56.1236 199.273 56.1236 199.272 56.1236 199.271C56.1236 199.27 56.1236 199.269 56.1236 199.268C56.1236 199.267 56.1236 199.266 56.1236 199.265C56.1236 199.264 56.1236 199.264 56.1236 199.263C56.1236 199.262 56.1236 199.261 56.1236 199.26C56.1236 199.259 56.1236 199.258 56.1236 199.257C56.1236 199.256 56.1236 199.255 56.1236 199.254C56.1236 199.253 56.1236 199.252 56.1236 199.251C56.1236 199.25 56.1236 199.249 56.1236 199.248C56.1236 199.247 56.1236 199.246 56.1236 199.245C56.1236 199.244 56.1236 199.243 56.1236 199.242C56.1236 199.241 56.1236 199.24 56.1236 199.239C56.1236 199.238 56.1236 199.237 56.1236 199.236C56.1236 199.235 56.1236 199.234 56.1236 199.233C56.1236 199.232 56.1236 199.231 56.1236 199.231C56.1236 199.23 56.1236 199.229 56.1236 199.228C56.1236 199.227 56.1236 199.226 56.1236 199.225C56.1236 199.224 56.1236 199.223 56.1236 199.222C56.1236 199.221 56.1236 199.22 56.1236 199.219C56.1236 199.218 56.1236 199.217 56.1236 199.216C56.1236 199.215 56.1236 199.214 56.1236 199.213C56.1236 199.212 56.1236 199.211 56.1236 199.21C56.1236 199.209 56.1236 199.208 56.1236 199.207C56.1236 199.206 56.1236 199.205 56.1236 199.204C56.1236 199.203 56.1236 199.202 56.1236 199.201C56.1236 199.2 56.1236 199.199 56.1236 199.198C56.1236 199.197 56.1236 199.197 56.1236 199.196C56.1236 199.195 56.1236 199.194 56.1236 199.193C56.1236 199.192 56.1236 199.191 56.1236 199.19C56.1236 199.189 56.1236 199.188 56.1236 199.187C56.1236 199.186 56.1236 199.185 56.1236 199.184C56.1236 199.183 56.1236 199.182 56.1236 199.181C56.1236 199.18 56.1236 199.179 56.1236 199.178C56.1236 199.177 56.1236 199.176 56.1236 199.175C56.1236 199.174 56.1236 199.173 56.1236 199.172C56.1236 199.171 56.1236 199.17 56.1236 199.169C56.1236 199.168 56.1236 199.167 56.1236 199.166C56.1236 199.165 56.1236 199.164 56.1236 199.163C56.1236 199.162 56.1236 199.162 56.1236 199.161C56.1236 199.16 56.1236 199.159 56.1236 199.158C56.1236 199.157 56.1236 199.156 56.1236 199.155C56.1236 199.154 56.1236 199.153 56.1236 199.152C56.1236 199.151 56.1236 199.15 56.1236 199.149C56.1236 199.148 56.1236 199.147 56.1236 199.146C56.1236 199.145 56.1236 199.144 56.1236 199.143C56.1236 199.142 56.1236 199.141 56.1236 199.14C56.1236 199.139 56.1236 199.138 56.1236 199.137C56.1236 199.136 56.1236 199.135 56.1236 199.134C56.1236 199.133 56.1236 199.132 56.1236 199.131C56.1236 199.13 56.1236 199.129 56.1236 199.128C56.1236 199.127 56.1236 199.127 56.1236 199.126C56.1236 199.125 56.1236 199.124 56.1236 199.123C56.1236 199.122 56.1236 199.121 56.1236 199.12C56.1236 199.119 56.1236 199.118 56.1236 199.117C56.1236 199.116 56.1236 199.115 56.1236 199.114C56.1236 199.113 56.1236 199.112 56.1236 199.111C56.1236 199.11 56.1236 199.109 56.1236 199.108C56.1236 199.107 56.1236 199.106 56.1236 199.105C56.1236 199.104 56.1236 199.103 56.1236 199.102C56.1236 199.101 56.1236 199.1 56.1236 199.099C56.1236 199.098 56.1236 199.097 56.1236 199.096C56.1236 199.095 56.1236 199.094 56.1236 199.093C56.1236 199.092 56.1236 199.091 56.1236 199.091C56.1236 199.09 56.1236 199.089 56.1236 199.088C56.1236 199.087 56.1236 199.086 56.1236 199.085C56.1236 199.084 56.1236 199.083 56.1236 199.082C56.1236 199.081 56.1236 199.08 56.1236 199.079C56.1236 199.078 56.1236 199.077 56.1236 199.076C56.1236 199.075 56.1236 199.074 56.1236 199.073C56.1236 199.072 56.1236 199.071 56.1236 199.07C56.1236 199.069 56.1236 199.068 56.1236 199.067C56.1236 199.066 56.1236 199.065 56.1236 199.064C56.1236 199.063 56.1236 199.062 56.1236 199.061C56.1236 199.06 56.1236 199.059 56.1236 199.058C56.1236 199.057 56.1236 199.056 56.1236 199.055C56.1236 199.054 56.1236 199.054 56.1236 199.053C56.1236 199.052 56.1236 199.051 56.1236 199.05C56.1236 199.049 56.1236 199.048 56.1236 199.047C56.1236 199.046 56.1236 199.045 56.1236 199.044C56.1236 199.043 56.1236 199.042 56.1236 199.041C56.1236 199.04 56.1236 199.039 56.1236 199.038C56.1236 199.037 56.1236 199.036 56.1236 199.035C56.1236 199.034 56.1236 199.033 56.1236 199.032C56.1236 199.031 56.1236 199.03 56.1236 199.029C56.1236 199.028 56.1236 199.027 56.1236 199.026C56.1236 199.025 56.1236 199.024 56.1236 199.023C56.1236 199.022 56.1236 199.021 56.1236 199.02C56.1236 199.019 56.1236 199.018 56.1236 199.017C56.1236 199.016 56.1236 199.015 56.1236 199.015C56.1236 199.014 56.1236 199.013 56.1236 199.012C56.1236 199.011 56.1236 199.01 56.1236 199.009C56.1236 199.008 56.1236 199.007 56.1236 199.006C56.1236 199.005 56.1236 199.004 56.1236 199.003C56.1236 199.002 56.1236 199.001 56.1236 199C56.1236 198.999 56.1236 198.998 56.1236 198.997C56.1236 198.996 56.1236 198.995 56.1236 198.994C56.1236 198.993 56.1236 198.992 56.1236 198.991C56.1236 198.99 56.1236 198.989 56.1236 198.988C56.1236 198.987 56.1236 198.986 56.1236 198.985C56.1236 198.984 56.1236 198.983 56.1236 198.982C56.1236 198.981 56.1236 198.98 56.1236 198.979C56.1236 198.978 56.1236 198.977 56.1236 198.976C56.1236 198.976 56.1236 198.975 56.1236 198.974C56.1236 198.973 56.1236 198.972 56.1236 198.971C56.1236 198.97 56.1236 198.969 56.1236 198.968C56.1236 198.967 56.1236 198.966 56.1236 198.965C56.1236 198.964 56.1236 198.963 56.1236 198.962C56.1236 198.961 56.1236 198.96 56.1236 198.959C56.1236 198.958 56.1236 198.957 56.1236 198.956C56.1236 198.955 56.1236 198.954 56.1236 198.953C56.1236 198.952 56.1236 198.951 56.1236 198.95C56.1236 198.949 56.1236 198.948 56.1236 198.947C56.1236 198.946 56.1236 198.945 56.1236 198.944C56.1236 198.943 56.1236 198.942 56.1236 198.941C56.1236 198.94 56.1236 198.939 56.1236 198.938C56.1236 198.937 56.1236 198.936 56.1236 198.936C56.1236 198.935 56.1236 198.934 56.1236 198.933C56.1236 198.932 56.1236 198.931 56.1236 198.93C56.1236 198.929 56.1236 198.928 56.1236 198.927C56.1236 198.926 56.1236 198.925 56.1236 198.924C56.1236 198.923 56.1236 198.922 56.1236 198.921C56.1236 198.92 56.1236 198.919 56.1236 198.918C56.1236 198.917 56.1236 198.916 56.1236 198.915C56.1236 198.914 56.1236 198.913 56.1236 198.912C56.1236 198.911 56.1236 198.91 56.1236 198.909C56.1236 198.908 56.1236 198.907 56.1236 198.906C56.1236 198.905 56.1236 198.904 56.1236 198.903C56.1236 198.902 56.1236 198.901 56.1236 198.9C56.1236 198.899 56.1236 198.898 56.1236 198.897C56.1236 198.896 56.1236 198.895 56.1236 198.894C56.1236 198.894 56.1236 198.893 56.1236 198.892C56.1236 198.891 56.1236 198.89 56.1236 198.889C56.1236 198.888 56.1236 198.887 56.1236 198.886C56.1236 198.885 56.1236 198.884 56.1236 198.883C56.1236 198.882 56.1236 198.881 56.1236 198.88C56.1236 198.879 56.1236 198.878 56.1236 198.877C56.1236 198.876 56.1236 198.875 56.1236 198.874C56.1236 198.873 56.1236 198.872 56.1236 198.871C56.1236 198.87 56.1236 198.869 56.1236 198.868C56.1236 198.867 56.1236 198.866 56.1236 198.865C56.1236 198.864 56.1236 198.863 56.1236 198.862C56.1236 198.861 56.1236 198.86 56.1236 198.859C56.1236 198.858 56.1236 198.857 56.1236 198.856C56.1236 198.855 56.1236 198.854 56.1236 198.853C56.1236 198.852 56.1236 198.851 56.1236 198.851C56.1236 198.85 56.1236 198.849 56.1236 198.848C56.1236 198.847 56.1236 198.846 56.1236 198.845C56.1236 198.844 56.1236 198.843 56.1236 198.842C56.1236 198.841 56.1236 198.84 56.1236 198.839C56.1236 198.838 56.1236 198.837 56.1236 198.836C56.1236 198.835 56.1236 198.834 56.1236 198.833C56.1236 198.832 56.1236 198.831 56.1236 198.83C56.1236 198.829 56.1236 198.828 56.1236 198.827C56.1236 198.826 56.1236 198.825 56.1236 198.824C56.1236 198.823 56.1236 198.822 56.1236 198.821C56.1236 198.82 56.1236 198.819 56.1236 198.818C56.1236 198.817 56.1236 198.816 56.1236 198.815C56.1236 198.814 56.1236 198.813 56.1236 198.812C56.1236 198.811 56.1236 198.81 56.1236 198.809C56.1236 198.808 56.1236 198.807 56.1236 198.806C56.1236 198.806 56.1236 198.805 56.1236 198.804C56.1236 198.803 56.1236 198.802 56.1236 198.801C56.1236 198.8 56.1236 198.799 56.1236 198.798C56.1236 198.797 56.1236 198.796 56.1236 198.795C56.1236 198.794 56.1236 198.793 56.1236 198.792C56.1236 198.791 56.1236 198.79 56.1236 198.789C56.1236 198.788 56.1236 198.787 56.1236 198.786C56.1236 198.785 56.1236 198.784 56.1236 198.783C56.1236 198.782 56.1236 198.781 56.1236 198.78C56.1236 198.779 56.1236 198.778 56.1236 198.777C56.1236 198.776 56.1236 198.775 56.1236 198.774C56.1236 198.773 56.1236 198.772 56.1236 198.771C56.1236 198.77 56.1236 198.769 56.1236 198.768C56.1236 198.767 56.1236 198.766 56.1236 198.765C56.1236 198.764 56.1236 198.763 56.1236 198.762C56.1236 198.761 56.1236 198.76 56.1236 198.76C56.1236 198.759 56.1236 198.758 56.1236 198.757C56.1236 198.756 56.1236 198.755 56.1236 198.754C56.1236 198.753 56.1236 198.752 56.1236 198.751C56.1236 198.75 56.1236 198.749 56.1236 198.748C56.1236 198.747 56.1236 198.746 56.1236 198.745C56.1236 198.744 56.1236 198.743 56.1236 198.742C56.1236 198.741 56.1236 198.74 56.1236 198.739C56.1236 198.738 56.1236 198.737 56.1236 198.736C56.1236 198.735 56.1236 198.734 56.1236 198.733C56.1236 198.732 56.1236 198.731 56.1236 198.73C56.1236 198.729 56.1236 198.728 56.1236 198.727C56.1236 198.726 56.1236 198.725 56.1236 198.724C56.1236 198.723 56.1236 198.722 56.1236 198.721C56.1236 198.72 56.1236 198.719 56.1236 198.718C56.1236 198.717 56.1236 198.716 56.1236 198.715C56.1236 198.714 56.1236 198.713 56.1236 198.712C56.1236 198.712 56.1236 198.711 56.1236 198.71C56.1236 198.709 56.1236 198.708 56.1236 198.707C56.1236 198.706 56.1236 198.705 56.1236 198.704C56.1236 198.703 56.1236 198.702 56.1236 198.701C56.1236 198.7 56.1236 198.699 56.1236 198.698C56.1236 198.697 56.1236 198.696 56.1236 198.695C56.1236 198.694 56.1236 198.693 56.1236 198.692C56.1236 198.691 56.1236 198.69 56.1236 198.689C56.1236 198.688 56.1236 198.687 56.1236 198.686C56.1236 198.685 56.1236 198.684 56.1236 198.683C56.1236 198.682 56.1236 198.681 56.1236 198.68C56.1236 198.679 56.1236 198.678 56.1236 198.677C56.1236 198.676 56.1236 198.675 56.1236 198.674C56.1236 198.673 56.1236 198.672 56.1236 198.671C56.1236 198.67 56.1236 198.669 56.1236 198.668C56.1236 198.667 56.1236 198.666 56.1236 198.665C56.1236 198.664 56.1236 198.663 56.1236 198.662C56.1236 198.662 56.1236 198.661 56.1236 198.66C56.1236 198.659 56.1236 198.658 56.1236 198.657C56.1236 198.656 56.1236 198.655 56.1236 198.654C56.1236 198.653 56.1236 198.652 56.1236 198.651C56.1236 198.65 56.1236 198.649 56.1236 198.648C56.1236 198.647 56.1236 198.646 56.1236 198.645C56.1236 198.644 56.1236 198.643 56.1236 198.642C56.1236 198.641 56.1236 198.64 56.1236 198.639C56.1236 198.638 56.1236 198.637 56.1236 198.636C56.1236 198.635 56.1236 198.634 56.1236 198.633C56.1236 198.632 56.1236 198.631 56.1236 198.63C56.1236 198.629 56.1236 198.628 56.1236 198.627C56.1236 198.626 56.1236 198.625 56.1236 198.624C56.1236 198.623 56.1236 198.622 56.1236 198.621C56.1236 198.62 56.1236 198.619 56.1236 198.618C56.1236 198.617 56.1236 198.616 56.1236 198.615C56.1236 198.614 56.1236 198.613 56.1236 198.612C56.1236 198.611 56.1236 198.61 56.1236 198.609C56.1236 198.609 56.1236 198.608 56.1236 198.607C56.1236 198.606 56.1236 198.605 56.1236 198.604C56.1236 198.603 56.1236 198.602 56.1236 198.601C56.1236 198.6 56.1236 198.599 56.1236 198.598C56.1236 198.597 56.1236 198.596 56.1236 198.595C56.1236 198.594 56.1236 198.593 56.1236 198.592C56.1236 198.591 56.1236 198.59 56.1236 198.589C56.1236 198.588 56.1236 198.587 56.1236 198.586C56.1236 198.585 56.1236 198.584 56.1236 198.583C56.1236 198.582 56.1236 198.581 56.1236 198.58C56.1236 198.579 56.1236 198.578 56.1236 198.577C56.1236 198.576 56.1236 198.575 56.1236 198.574C56.1236 198.573 56.1236 198.572 56.1236 198.571C56.1236 198.57 56.1236 198.569 56.1236 198.568C56.1236 198.567 56.1236 198.566 56.1236 198.565C56.1236 198.564 56.1236 198.563 56.1236 198.562C56.1236 198.561 56.1236 198.56 56.1236 198.559C56.1236 198.558 56.1236 198.557 56.1236 198.556C56.1236 198.555 56.1236 198.554 56.1236 198.553C56.1236 198.553 56.1236 198.552 56.1236 198.551C56.1236 198.55 56.1236 198.549 56.1236 198.548C56.1236 198.547 56.1236 198.546 56.1236 198.545C56.1236 198.544 56.1236 198.543 56.1236 198.542C56.1236 198.541 56.1236 198.54 56.1236 198.539C56.1236 198.538 56.1236 198.537 56.1236 198.536C56.1236 198.535 56.1236 198.534 56.1236 198.533C56.1236 198.532 56.1236 198.531 56.1236 198.53C56.1236 198.529 56.1236 198.528 56.1236 198.527C56.1236 198.526 56.1236 198.525 56.1236 198.524C56.1236 198.523 56.1236 198.522 56.1236 198.521C56.1236 198.52 56.1236 198.519 56.1236 198.518C56.1236 198.517 56.1236 198.516 56.1236 198.515C56.1236 198.514 56.1236 198.513 56.1236 198.512C56.1236 198.511 56.1236 198.51 56.1236 198.509C56.1236 198.508 56.1236 198.507 56.1236 198.506C56.1236 198.505 56.1236 198.504 56.1236 198.503C56.1236 198.502 56.1236 198.501 56.1236 198.5C56.1236 198.499 56.1236 198.498 56.1236 198.497C56.1236 198.496 56.1236 198.495 56.1236 198.494C56.1236 198.494 56.1236 198.493 56.1236 198.492C56.1236 198.491 56.1236 198.49 56.1236 198.489C56.1236 198.488 56.1236 198.487 56.1236 198.486C56.1236 198.485 56.1236 198.484 56.1236 198.483C56.1236 198.482 56.1236 198.481 56.1236 198.48C56.1236 198.479 56.1236 198.478 56.1236 198.477C56.1236 198.476 56.1236 198.475 56.1236 198.474C56.1236 198.473 56.1236 198.472 56.1236 198.471C56.1236 198.47 56.1236 198.469 56.1236 198.468C56.1236 198.467 56.1236 198.466 56.1236 198.465C56.1236 198.464 56.1236 198.463 56.1236 198.462C56.1236 198.461 56.1236 198.46 56.1236 198.459C56.1236 198.458 56.1236 198.457 56.1236 198.456C56.1236 198.455 56.1236 198.454 56.1236 198.453C56.1236 198.452 56.1236 198.451 56.1236 198.45C56.1236 198.449 56.1236 198.448 56.1236 198.447C56.1236 198.446 56.1236 198.445 56.1236 198.444C56.1236 198.443 56.1236 198.442 56.1236 198.441C56.1236 198.44 56.1236 198.439 56.1236 198.438C56.1236 198.437 56.1236 198.436 56.1236 198.435C56.1236 198.434 56.1236 198.433 56.1236 198.432C56.1236 198.431 56.1236 198.431 56.1236 198.43C56.1236 198.429 56.1236 198.428 56.1236 198.427C56.1236 198.426 56.1236 198.425 56.1236 198.424C56.1236 198.423 56.1236 198.422 56.1236 198.421C56.1236 198.42 56.1236 198.419 56.1236 198.418C56.1236 198.417 56.1236 198.416 56.1236 198.415C56.1236 198.414 56.1236 198.413 56.1236 198.412C56.1236 198.411 56.1236 198.41 56.1236 198.409C56.1236 198.408 56.1236 198.407 56.1236 198.406C56.1236 198.405 56.1236 198.404 56.1236 198.403C56.1236 198.402 56.1236 198.401 56.1236 198.4C56.1236 198.399 56.1236 198.398 56.1236 198.397C56.1236 198.396 56.1236 198.395 56.1236 198.394C56.1236 198.393 56.1236 198.392 56.1236 198.391C56.1236 198.39 56.1236 198.389 56.1236 198.388C56.1236 198.387 56.1236 198.386 56.1236 198.385C56.1236 198.384 56.1236 198.383 56.1236 198.382C56.1236 198.381 56.1236 198.38 56.1236 198.379C56.1236 198.378 56.1236 198.377 56.1236 198.376C56.1236 198.375 56.1236 198.374 56.1236 198.373C56.1236 198.372 56.1236 198.371 56.1236 198.37C56.1236 198.369 56.1236 198.368 56.1236 198.367C56.1236 198.366 56.1236 198.365 56.1236 198.364C56.1236 198.363 56.1236 198.363 56.1236 198.362C56.1236 198.361 56.1236 198.36 56.1236 198.359C56.1236 198.358 56.1236 198.357 56.1236 198.356C56.1236 198.355 56.1236 198.354 56.1236 198.353C56.1236 198.352 56.1236 198.351 56.1236 198.35C56.1236 198.349 56.1236 198.348 56.1236 198.347C56.1236 198.346 56.1236 198.345 56.1236 198.344C56.1236 198.343 56.1236 198.342 56.1236 198.341C56.1236 198.34 56.1236 198.339 56.1236 198.338C56.1236 198.337 56.1236 198.336 56.1236 198.335C56.1236 198.334 56.1236 198.333 56.1236 198.332C56.1236 198.331 56.1236 198.33 56.1236 198.329C56.1236 198.328 56.1236 198.327 56.1236 198.326C56.1236 198.325 56.1236 198.324 56.1236 198.323C56.1236 198.322 56.1236 198.321 56.1236 198.32C56.1236 198.319 56.1236 198.318 56.1236 198.317C56.1236 198.316 56.1236 198.315 56.1236 198.314C56.1236 198.313 56.1236 198.312 56.1236 198.311C56.1236 198.31 56.1236 198.309 56.1236 198.308C56.1236 198.307 56.1236 198.306 56.1236 198.305C56.1236 198.304 56.1236 198.303 56.1236 198.302C56.1236 198.301 56.1236 198.3 56.1236 198.299C56.1236 198.298 56.1236 198.297 56.1236 198.296C56.1236 198.295 56.1236 198.294 56.1236 198.293C56.1236 198.292 56.1236 198.291 56.1236 198.29C56.1236 198.289 56.1236 198.289 56.1236 198.288C56.1236 198.287 56.1236 198.286 56.1236 198.285C56.1236 198.284 56.1236 198.283 56.1236 198.282C56.1236 198.281 56.1236 198.28 56.1236 198.279C56.1236 198.278 56.1236 198.277 56.1236 198.276C56.1236 198.275 56.1236 198.274 56.1236 198.273C56.1236 198.272 56.1236 198.271 56.1236 198.27C56.1236 198.269 56.1236 198.268 56.1236 198.267C56.1236 198.266 56.1236 198.265 56.1236 198.264C56.1236 198.263 56.1236 198.262 56.1236 198.261C56.1236 198.26 56.1236 198.259 56.1236 198.258C56.1236 198.257 56.1236 198.256 56.1236 198.255C56.1236 198.254 56.1236 198.253 56.1236 198.252C56.1236 198.251 56.1236 198.25 56.1236 198.249C56.1236 198.248 56.1236 198.247 56.1236 198.246C56.1236 198.245 56.1236 198.244 56.1236 198.243C56.1236 198.242 56.1236 198.241 56.1236 198.24C56.1236 198.239 56.1236 198.238 56.1236 198.237C56.1236 198.236 56.1236 198.235 56.1236 198.234C56.1236 198.233 56.1236 198.232 56.1236 198.231C56.1236 198.23 56.1236 198.229 56.1236 198.228C56.1236 198.227 56.1236 198.226 56.1236 198.225C56.1236 198.224 56.1236 198.223 56.1236 198.222C56.1236 198.221 56.1236 198.22 56.1236 198.219C56.1236 198.218 56.1236 198.217 56.1236 198.216C56.1236 198.215 56.1236 198.214 56.1236 198.213C56.1236 198.212 56.1236 198.211 56.1236 198.21C56.1236 198.209 56.1236 198.208 56.1236 198.207C56.1236 198.206 56.1236 198.206 56.1236 198.205C56.1236 198.204 56.1236 198.203 56.1236 198.202C56.1236 198.201 56.1236 198.2 56.1236 198.199C56.1236 198.198 56.1236 198.197 56.1236 198.196C56.1236 198.195 56.1236 198.194 56.1236 198.193C56.1236 198.192 56.1236 198.191 56.1236 198.19C56.1236 198.189 56.1236 198.188 56.1236 198.187C56.1236 198.186 56.1236 198.185 56.1236 198.184C56.1236 198.183 56.1236 198.182 56.1236 198.181C56.1236 198.18 56.1236 198.179 56.1236 198.178C56.1236 198.177 56.1236 198.176 56.1236 198.175C56.1236 198.174 56.1236 198.173 56.1236 198.172C56.1236 198.171 56.1236 198.17 56.1236 198.169C56.1236 198.168 56.1236 198.167 56.1236 198.166C56.1236 198.165 56.1236 198.164 56.1236 198.163C56.1236 198.162 56.1236 198.161 56.1236 198.16H55.1236H54.1236C54.1236 198.161 54.1236 198.162 54.1236 198.163C54.1236 198.164 54.1236 198.165 54.1236 198.166C54.1236 198.167 54.1236 198.168 54.1236 198.169C54.1236 198.17 54.1236 198.171 54.1236 198.172C54.1236 198.173 54.1236 198.174 54.1236 198.175C54.1236 198.176 54.1236 198.177 54.1236 198.178C54.1236 198.179 54.1236 198.18 54.1236 198.181C54.1236 198.182 54.1236 198.183 54.1236 198.184C54.1236 198.185 54.1236 198.186 54.1236 198.187C54.1236 198.188 54.1236 198.189 54.1236 198.19C54.1236 198.191 54.1236 198.192 54.1236 198.193C54.1236 198.194 54.1236 198.195 54.1236 198.196C54.1236 198.197 54.1236 198.198 54.1236 198.199C54.1236 198.2 54.1236 198.201 54.1236 198.202C54.1236 198.203 54.1236 198.204 54.1236 198.205C54.1236 198.206 54.1236 198.206 54.1236 198.207C54.1236 198.208 54.1236 198.209 54.1236 198.21C54.1236 198.211 54.1236 198.212 54.1236 198.213C54.1236 198.214 54.1236 198.215 54.1236 198.216C54.1236 198.217 54.1236 198.218 54.1236 198.219C54.1236 198.22 54.1236 198.221 54.1236 198.222C54.1236 198.223 54.1236 198.224 54.1236 198.225C54.1236 198.226 54.1236 198.227 54.1236 198.228C54.1236 198.229 54.1236 198.23 54.1236 198.231C54.1236 198.232 54.1236 198.233 54.1236 198.234C54.1236 198.235 54.1236 198.236 54.1236 198.237C54.1236 198.238 54.1236 198.239 54.1236 198.24C54.1236 198.241 54.1236 198.242 54.1236 198.243C54.1236 198.244 54.1236 198.245 54.1236 198.246C54.1236 198.247 54.1236 198.248 54.1236 198.249C54.1236 198.25 54.1236 198.251 54.1236 198.252C54.1236 198.253 54.1236 198.254 54.1236 198.255C54.1236 198.256 54.1236 198.257 54.1236 198.258C54.1236 198.259 54.1236 198.26 54.1236 198.261C54.1236 198.262 54.1236 198.263 54.1236 198.264C54.1236 198.265 54.1236 198.266 54.1236 198.267C54.1236 198.268 54.1236 198.269 54.1236 198.27C54.1236 198.271 54.1236 198.272 54.1236 198.273C54.1236 198.274 54.1236 198.275 54.1236 198.276C54.1236 198.277 54.1236 198.278 54.1236 198.279C54.1236 198.28 54.1236 198.281 54.1236 198.282C54.1236 198.283 54.1236 198.284 54.1236 198.285C54.1236 198.286 54.1236 198.287 54.1236 198.288C54.1236 198.289 54.1236 198.289 54.1236 198.29C54.1236 198.291 54.1236 198.292 54.1236 198.293C54.1236 198.294 54.1236 198.295 54.1236 198.296C54.1236 198.297 54.1236 198.298 54.1236 198.299C54.1236 198.3 54.1236 198.301 54.1236 198.302C54.1236 198.303 54.1236 198.304 54.1236 198.305C54.1236 198.306 54.1236 198.307 54.1236 198.308C54.1236 198.309 54.1236 198.31 54.1236 198.311C54.1236 198.312 54.1236 198.313 54.1236 198.314C54.1236 198.315 54.1236 198.316 54.1236 198.317C54.1236 198.318 54.1236 198.319 54.1236 198.32C54.1236 198.321 54.1236 198.322 54.1236 198.323C54.1236 198.324 54.1236 198.325 54.1236 198.326C54.1236 198.327 54.1236 198.328 54.1236 198.329C54.1236 198.33 54.1236 198.331 54.1236 198.332C54.1236 198.333 54.1236 198.334 54.1236 198.335C54.1236 198.336 54.1236 198.337 54.1236 198.338C54.1236 198.339 54.1236 198.34 54.1236 198.341C54.1236 198.342 54.1236 198.343 54.1236 198.344C54.1236 198.345 54.1236 198.346 54.1236 198.347C54.1236 198.348 54.1236 198.349 54.1236 198.35C54.1236 198.351 54.1236 198.352 54.1236 198.353C54.1236 198.354 54.1236 198.355 54.1236 198.356C54.1236 198.357 54.1236 198.358 54.1236 198.359C54.1236 198.36 54.1236 198.361 54.1236 198.362C54.1236 198.363 54.1236 198.363 54.1236 198.364C54.1236 198.365 54.1236 198.366 54.1236 198.367C54.1236 198.368 54.1236 198.369 54.1236 198.37C54.1236 198.371 54.1236 198.372 54.1236 198.373C54.1236 198.374 54.1236 198.375 54.1236 198.376C54.1236 198.377 54.1236 198.378 54.1236 198.379C54.1236 198.38 54.1236 198.381 54.1236 198.382C54.1236 198.383 54.1236 198.384 54.1236 198.385C54.1236 198.386 54.1236 198.387 54.1236 198.388C54.1236 198.389 54.1236 198.39 54.1236 198.391C54.1236 198.392 54.1236 198.393 54.1236 198.394C54.1236 198.395 54.1236 198.396 54.1236 198.397C54.1236 198.398 54.1236 198.399 54.1236 198.4C54.1236 198.401 54.1236 198.402 54.1236 198.403C54.1236 198.404 54.1236 198.405 54.1236 198.406C54.1236 198.407 54.1236 198.408 54.1236 198.409C54.1236 198.41 54.1236 198.411 54.1236 198.412C54.1236 198.413 54.1236 198.414 54.1236 198.415C54.1236 198.416 54.1236 198.417 54.1236 198.418C54.1236 198.419 54.1236 198.42 54.1236 198.421C54.1236 198.422 54.1236 198.423 54.1236 198.424C54.1236 198.425 54.1236 198.426 54.1236 198.427C54.1236 198.428 54.1236 198.429 54.1236 198.43C54.1236 198.431 54.1236 198.431 54.1236 198.432C54.1236 198.433 54.1236 198.434 54.1236 198.435C54.1236 198.436 54.1236 198.437 54.1236 198.438C54.1236 198.439 54.1236 198.44 54.1236 198.441C54.1236 198.442 54.1236 198.443 54.1236 198.444C54.1236 198.445 54.1236 198.446 54.1236 198.447C54.1236 198.448 54.1236 198.449 54.1236 198.45C54.1236 198.451 54.1236 198.452 54.1236 198.453C54.1236 198.454 54.1236 198.455 54.1236 198.456C54.1236 198.457 54.1236 198.458 54.1236 198.459C54.1236 198.46 54.1236 198.461 54.1236 198.462C54.1236 198.463 54.1236 198.464 54.1236 198.465C54.1236 198.466 54.1236 198.467 54.1236 198.468C54.1236 198.469 54.1236 198.47 54.1236 198.471C54.1236 198.472 54.1236 198.473 54.1236 198.474C54.1236 198.475 54.1236 198.476 54.1236 198.477C54.1236 198.478 54.1236 198.479 54.1236 198.48C54.1236 198.481 54.1236 198.482 54.1236 198.483C54.1236 198.484 54.1236 198.485 54.1236 198.486C54.1236 198.487 54.1236 198.488 54.1236 198.489C54.1236 198.49 54.1236 198.491 54.1236 198.492C54.1236 198.493 54.1236 198.494 54.1236 198.494C54.1236 198.495 54.1236 198.496 54.1236 198.497C54.1236 198.498 54.1236 198.499 54.1236 198.5C54.1236 198.501 54.1236 198.502 54.1236 198.503C54.1236 198.504 54.1236 198.505 54.1236 198.506C54.1236 198.507 54.1236 198.508 54.1236 198.509C54.1236 198.51 54.1236 198.511 54.1236 198.512C54.1236 198.513 54.1236 198.514 54.1236 198.515C54.1236 198.516 54.1236 198.517 54.1236 198.518C54.1236 198.519 54.1236 198.52 54.1236 198.521C54.1236 198.522 54.1236 198.523 54.1236 198.524C54.1236 198.525 54.1236 198.526 54.1236 198.527C54.1236 198.528 54.1236 198.529 54.1236 198.53C54.1236 198.531 54.1236 198.532 54.1236 198.533C54.1236 198.534 54.1236 198.535 54.1236 198.536C54.1236 198.537 54.1236 198.538 54.1236 198.539C54.1236 198.54 54.1236 198.541 54.1236 198.542C54.1236 198.543 54.1236 198.544 54.1236 198.545C54.1236 198.546 54.1236 198.547 54.1236 198.548C54.1236 198.549 54.1236 198.55 54.1236 198.551C54.1236 198.552 54.1236 198.553 54.1236 198.553C54.1236 198.554 54.1236 198.555 54.1236 198.556C54.1236 198.557 54.1236 198.558 54.1236 198.559C54.1236 198.56 54.1236 198.561 54.1236 198.562C54.1236 198.563 54.1236 198.564 54.1236 198.565C54.1236 198.566 54.1236 198.567 54.1236 198.568C54.1236 198.569 54.1236 198.57 54.1236 198.571C54.1236 198.572 54.1236 198.573 54.1236 198.574C54.1236 198.575 54.1236 198.576 54.1236 198.577C54.1236 198.578 54.1236 198.579 54.1236 198.58C54.1236 198.581 54.1236 198.582 54.1236 198.583C54.1236 198.584 54.1236 198.585 54.1236 198.586C54.1236 198.587 54.1236 198.588 54.1236 198.589C54.1236 198.59 54.1236 198.591 54.1236 198.592C54.1236 198.593 54.1236 198.594 54.1236 198.595C54.1236 198.596 54.1236 198.597 54.1236 198.598C54.1236 198.599 54.1236 198.6 54.1236 198.601C54.1236 198.602 54.1236 198.603 54.1236 198.604C54.1236 198.605 54.1236 198.606 54.1236 198.607C54.1236 198.608 54.1236 198.609 54.1236 198.609C54.1236 198.61 54.1236 198.611 54.1236 198.612C54.1236 198.613 54.1236 198.614 54.1236 198.615C54.1236 198.616 54.1236 198.617 54.1236 198.618C54.1236 198.619 54.1236 198.62 54.1236 198.621C54.1236 198.622 54.1236 198.623 54.1236 198.624C54.1236 198.625 54.1236 198.626 54.1236 198.627C54.1236 198.628 54.1236 198.629 54.1236 198.63C54.1236 198.631 54.1236 198.632 54.1236 198.633C54.1236 198.634 54.1236 198.635 54.1236 198.636C54.1236 198.637 54.1236 198.638 54.1236 198.639C54.1236 198.64 54.1236 198.641 54.1236 198.642C54.1236 198.643 54.1236 198.644 54.1236 198.645C54.1236 198.646 54.1236 198.647 54.1236 198.648C54.1236 198.649 54.1236 198.65 54.1236 198.651C54.1236 198.652 54.1236 198.653 54.1236 198.654C54.1236 198.655 54.1236 198.656 54.1236 198.657C54.1236 198.658 54.1236 198.659 54.1236 198.66C54.1236 198.661 54.1236 198.662 54.1236 198.662C54.1236 198.663 54.1236 198.664 54.1236 198.665C54.1236 198.666 54.1236 198.667 54.1236 198.668C54.1236 198.669 54.1236 198.67 54.1236 198.671C54.1236 198.672 54.1236 198.673 54.1236 198.674C54.1236 198.675 54.1236 198.676 54.1236 198.677C54.1236 198.678 54.1236 198.679 54.1236 198.68C54.1236 198.681 54.1236 198.682 54.1236 198.683C54.1236 198.684 54.1236 198.685 54.1236 198.686C54.1236 198.687 54.1236 198.688 54.1236 198.689C54.1236 198.69 54.1236 198.691 54.1236 198.692C54.1236 198.693 54.1236 198.694 54.1236 198.695C54.1236 198.696 54.1236 198.697 54.1236 198.698C54.1236 198.699 54.1236 198.7 54.1236 198.701C54.1236 198.702 54.1236 198.703 54.1236 198.704C54.1236 198.705 54.1236 198.706 54.1236 198.707C54.1236 198.708 54.1236 198.709 54.1236 198.71C54.1236 198.711 54.1236 198.712 54.1236 198.712C54.1236 198.713 54.1236 198.714 54.1236 198.715C54.1236 198.716 54.1236 198.717 54.1236 198.718C54.1236 198.719 54.1236 198.72 54.1236 198.721C54.1236 198.722 54.1236 198.723 54.1236 198.724C54.1236 198.725 54.1236 198.726 54.1236 198.727C54.1236 198.728 54.1236 198.729 54.1236 198.73C54.1236 198.731 54.1236 198.732 54.1236 198.733C54.1236 198.734 54.1236 198.735 54.1236 198.736C54.1236 198.737 54.1236 198.738 54.1236 198.739C54.1236 198.74 54.1236 198.741 54.1236 198.742C54.1236 198.743 54.1236 198.744 54.1236 198.745C54.1236 198.746 54.1236 198.747 54.1236 198.748C54.1236 198.749 54.1236 198.75 54.1236 198.751C54.1236 198.752 54.1236 198.753 54.1236 198.754C54.1236 198.755 54.1236 198.756 54.1236 198.757C54.1236 198.758 54.1236 198.759 54.1236 198.76C54.1236 198.76 54.1236 198.761 54.1236 198.762C54.1236 198.763 54.1236 198.764 54.1236 198.765C54.1236 198.766 54.1236 198.767 54.1236 198.768C54.1236 198.769 54.1236 198.77 54.1236 198.771C54.1236 198.772 54.1236 198.773 54.1236 198.774C54.1236 198.775 54.1236 198.776 54.1236 198.777C54.1236 198.778 54.1236 198.779 54.1236 198.78C54.1236 198.781 54.1236 198.782 54.1236 198.783C54.1236 198.784 54.1236 198.785 54.1236 198.786C54.1236 198.787 54.1236 198.788 54.1236 198.789C54.1236 198.79 54.1236 198.791 54.1236 198.792C54.1236 198.793 54.1236 198.794 54.1236 198.795C54.1236 198.796 54.1236 198.797 54.1236 198.798C54.1236 198.799 54.1236 198.8 54.1236 198.801C54.1236 198.802 54.1236 198.803 54.1236 198.804C54.1236 198.805 54.1236 198.806 54.1236 198.806C54.1236 198.807 54.1236 198.808 54.1236 198.809C54.1236 198.81 54.1236 198.811 54.1236 198.812C54.1236 198.813 54.1236 198.814 54.1236 198.815C54.1236 198.816 54.1236 198.817 54.1236 198.818C54.1236 198.819 54.1236 198.82 54.1236 198.821C54.1236 198.822 54.1236 198.823 54.1236 198.824C54.1236 198.825 54.1236 198.826 54.1236 198.827C54.1236 198.828 54.1236 198.829 54.1236 198.83C54.1236 198.831 54.1236 198.832 54.1236 198.833C54.1236 198.834 54.1236 198.835 54.1236 198.836C54.1236 198.837 54.1236 198.838 54.1236 198.839C54.1236 198.84 54.1236 198.841 54.1236 198.842C54.1236 198.843 54.1236 198.844 54.1236 198.845C54.1236 198.846 54.1236 198.847 54.1236 198.848C54.1236 198.849 54.1236 198.85 54.1236 198.851C54.1236 198.851 54.1236 198.852 54.1236 198.853C54.1236 198.854 54.1236 198.855 54.1236 198.856C54.1236 198.857 54.1236 198.858 54.1236 198.859C54.1236 198.86 54.1236 198.861 54.1236 198.862C54.1236 198.863 54.1236 198.864 54.1236 198.865C54.1236 198.866 54.1236 198.867 54.1236 198.868C54.1236 198.869 54.1236 198.87 54.1236 198.871C54.1236 198.872 54.1236 198.873 54.1236 198.874C54.1236 198.875 54.1236 198.876 54.1236 198.877C54.1236 198.878 54.1236 198.879 54.1236 198.88C54.1236 198.881 54.1236 198.882 54.1236 198.883C54.1236 198.884 54.1236 198.885 54.1236 198.886C54.1236 198.887 54.1236 198.888 54.1236 198.889C54.1236 198.89 54.1236 198.891 54.1236 198.892C54.1236 198.893 54.1236 198.894 54.1236 198.894C54.1236 198.895 54.1236 198.896 54.1236 198.897C54.1236 198.898 54.1236 198.899 54.1236 198.9C54.1236 198.901 54.1236 198.902 54.1236 198.903C54.1236 198.904 54.1236 198.905 54.1236 198.906C54.1236 198.907 54.1236 198.908 54.1236 198.909C54.1236 198.91 54.1236 198.911 54.1236 198.912C54.1236 198.913 54.1236 198.914 54.1236 198.915C54.1236 198.916 54.1236 198.917 54.1236 198.918C54.1236 198.919 54.1236 198.92 54.1236 198.921C54.1236 198.922 54.1236 198.923 54.1236 198.924C54.1236 198.925 54.1236 198.926 54.1236 198.927C54.1236 198.928 54.1236 198.929 54.1236 198.93C54.1236 198.931 54.1236 198.932 54.1236 198.933C54.1236 198.934 54.1236 198.935 54.1236 198.936C54.1236 198.936 54.1236 198.937 54.1236 198.938C54.1236 198.939 54.1236 198.94 54.1236 198.941C54.1236 198.942 54.1236 198.943 54.1236 198.944C54.1236 198.945 54.1236 198.946 54.1236 198.947C54.1236 198.948 54.1236 198.949 54.1236 198.95C54.1236 198.951 54.1236 198.952 54.1236 198.953C54.1236 198.954 54.1236 198.955 54.1236 198.956C54.1236 198.957 54.1236 198.958 54.1236 198.959C54.1236 198.96 54.1236 198.961 54.1236 198.962C54.1236 198.963 54.1236 198.964 54.1236 198.965C54.1236 198.966 54.1236 198.967 54.1236 198.968C54.1236 198.969 54.1236 198.97 54.1236 198.971C54.1236 198.972 54.1236 198.973 54.1236 198.974C54.1236 198.975 54.1236 198.976 54.1236 198.976C54.1236 198.977 54.1236 198.978 54.1236 198.979C54.1236 198.98 54.1236 198.981 54.1236 198.982C54.1236 198.983 54.1236 198.984 54.1236 198.985C54.1236 198.986 54.1236 198.987 54.1236 198.988C54.1236 198.989 54.1236 198.99 54.1236 198.991C54.1236 198.992 54.1236 198.993 54.1236 198.994C54.1236 198.995 54.1236 198.996 54.1236 198.997C54.1236 198.998 54.1236 198.999 54.1236 199C54.1236 199.001 54.1236 199.002 54.1236 199.003C54.1236 199.004 54.1236 199.005 54.1236 199.006C54.1236 199.007 54.1236 199.008 54.1236 199.009C54.1236 199.01 54.1236 199.011 54.1236 199.012C54.1236 199.013 54.1236 199.014 54.1236 199.015C54.1236 199.015 54.1236 199.016 54.1236 199.017C54.1236 199.018 54.1236 199.019 54.1236 199.02C54.1236 199.021 54.1236 199.022 54.1236 199.023C54.1236 199.024 54.1236 199.025 54.1236 199.026C54.1236 199.027 54.1236 199.028 54.1236 199.029C54.1236 199.03 54.1236 199.031 54.1236 199.032C54.1236 199.033 54.1236 199.034 54.1236 199.035C54.1236 199.036 54.1236 199.037 54.1236 199.038C54.1236 199.039 54.1236 199.04 54.1236 199.041C54.1236 199.042 54.1236 199.043 54.1236 199.044C54.1236 199.045 54.1236 199.046 54.1236 199.047C54.1236 199.048 54.1236 199.049 54.1236 199.05C54.1236 199.051 54.1236 199.052 54.1236 199.053C54.1236 199.054 54.1236 199.054 54.1236 199.055C54.1236 199.056 54.1236 199.057 54.1236 199.058C54.1236 199.059 54.1236 199.06 54.1236 199.061C54.1236 199.062 54.1236 199.063 54.1236 199.064C54.1236 199.065 54.1236 199.066 54.1236 199.067C54.1236 199.068 54.1236 199.069 54.1236 199.07C54.1236 199.071 54.1236 199.072 54.1236 199.073C54.1236 199.074 54.1236 199.075 54.1236 199.076C54.1236 199.077 54.1236 199.078 54.1236 199.079C54.1236 199.08 54.1236 199.081 54.1236 199.082C54.1236 199.083 54.1236 199.084 54.1236 199.085C54.1236 199.086 54.1236 199.087 54.1236 199.088C54.1236 199.089 54.1236 199.09 54.1236 199.091C54.1236 199.091 54.1236 199.092 54.1236 199.093C54.1236 199.094 54.1236 199.095 54.1236 199.096C54.1236 199.097 54.1236 199.098 54.1236 199.099C54.1236 199.1 54.1236 199.101 54.1236 199.102C54.1236 199.103 54.1236 199.104 54.1236 199.105C54.1236 199.106 54.1236 199.107 54.1236 199.108C54.1236 199.109 54.1236 199.11 54.1236 199.111C54.1236 199.112 54.1236 199.113 54.1236 199.114C54.1236 199.115 54.1236 199.116 54.1236 199.117C54.1236 199.118 54.1236 199.119 54.1236 199.12C54.1236 199.121 54.1236 199.122 54.1236 199.123C54.1236 199.124 54.1236 199.125 54.1236 199.126C54.1236 199.127 54.1236 199.127 54.1236 199.128C54.1236 199.129 54.1236 199.13 54.1236 199.131C54.1236 199.132 54.1236 199.133 54.1236 199.134C54.1236 199.135 54.1236 199.136 54.1236 199.137C54.1236 199.138 54.1236 199.139 54.1236 199.14C54.1236 199.141 54.1236 199.142 54.1236 199.143C54.1236 199.144 54.1236 199.145 54.1236 199.146C54.1236 199.147 54.1236 199.148 54.1236 199.149C54.1236 199.15 54.1236 199.151 54.1236 199.152C54.1236 199.153 54.1236 199.154 54.1236 199.155C54.1236 199.156 54.1236 199.157 54.1236 199.158C54.1236 199.159 54.1236 199.16 54.1236 199.161C54.1236 199.162 54.1236 199.162 54.1236 199.163C54.1236 199.164 54.1236 199.165 54.1236 199.166C54.1236 199.167 54.1236 199.168 54.1236 199.169C54.1236 199.17 54.1236 199.171 54.1236 199.172C54.1236 199.173 54.1236 199.174 54.1236 199.175C54.1236 199.176 54.1236 199.177 54.1236 199.178C54.1236 199.179 54.1236 199.18 54.1236 199.181C54.1236 199.182 54.1236 199.183 54.1236 199.184C54.1236 199.185 54.1236 199.186 54.1236 199.187C54.1236 199.188 54.1236 199.189 54.1236 199.19C54.1236 199.191 54.1236 199.192 54.1236 199.193C54.1236 199.194 54.1236 199.195 54.1236 199.196C54.1236 199.197 54.1236 199.197 54.1236 199.198C54.1236 199.199 54.1236 199.2 54.1236 199.201C54.1236 199.202 54.1236 199.203 54.1236 199.204C54.1236 199.205 54.1236 199.206 54.1236 199.207C54.1236 199.208 54.1236 199.209 54.1236 199.21C54.1236 199.211 54.1236 199.212 54.1236 199.213C54.1236 199.214 54.1236 199.215 54.1236 199.216C54.1236 199.217 54.1236 199.218 54.1236 199.219C54.1236 199.22 54.1236 199.221 54.1236 199.222C54.1236 199.223 54.1236 199.224 54.1236 199.225C54.1236 199.226 54.1236 199.227 54.1236 199.228C54.1236 199.229 54.1236 199.23 54.1236 199.231C54.1236 199.231 54.1236 199.232 54.1236 199.233C54.1236 199.234 54.1236 199.235 54.1236 199.236C54.1236 199.237 54.1236 199.238 54.1236 199.239C54.1236 199.24 54.1236 199.241 54.1236 199.242C54.1236 199.243 54.1236 199.244 54.1236 199.245C54.1236 199.246 54.1236 199.247 54.1236 199.248C54.1236 199.249 54.1236 199.25 54.1236 199.251C54.1236 199.252 54.1236 199.253 54.1236 199.254C54.1236 199.255 54.1236 199.256 54.1236 199.257C54.1236 199.258 54.1236 199.259 54.1236 199.26C54.1236 199.261 54.1236 199.262 54.1236 199.263C54.1236 199.264 54.1236 199.264 54.1236 199.265C54.1236 199.266 54.1236 199.267 54.1236 199.268C54.1236 199.269 54.1236 199.27 54.1236 199.271C54.1236 199.272 54.1236 199.273 54.1236 199.274C54.1236 199.275 54.1236 199.276 54.1236 199.277C54.1236 199.278 54.1236 199.279 54.1236 199.28C54.1236 199.281 54.1236 199.282 54.1236 199.283C54.1236 199.284 54.1236 199.285 54.1236 199.286C54.1236 199.287 54.1236 199.288 54.1236 199.289C54.1236 199.29 54.1236 199.291 54.1236 199.292C54.1236 199.293 54.1236 199.294 54.1236 199.295C54.1236 199.296 54.1236 199.297 54.1236 199.297C54.1236 199.298 54.1236 199.299 54.1236 199.3C54.1236 199.301 54.1236 199.302 54.1236 199.303C54.1236 199.304 54.1236 199.305 54.1236 199.306C54.1236 199.307 54.1236 199.308 54.1236 199.309C54.1236 199.31 54.1236 199.311 54.1236 199.312C54.1236 199.313 54.1236 199.314 54.1236 199.315C54.1236 199.316 54.1236 199.317 54.1236 199.318C54.1236 199.319 54.1236 199.32 54.1236 199.321C54.1236 199.322 54.1236 199.323 54.1236 199.324C54.1236 199.325 54.1236 199.326 54.1236 199.327C54.1236 199.328 54.1236 199.329 54.1236 199.329C54.1236 199.33 54.1236 199.331 54.1236 199.332C54.1236 199.333 54.1236 199.334 54.1236 199.335C54.1236 199.336 54.1236 199.337 54.1236 199.338C54.1236 199.339 54.1236 199.34 54.1236 199.341C54.1236 199.342 54.1236 199.343 54.1236 199.344C54.1236 199.345 54.1236 199.346 54.1236 199.347C54.1236 199.348 54.1236 199.349 54.1236 199.35C54.1236 199.351 54.1236 199.352 54.1236 199.353C54.1236 199.354 54.1236 199.355 54.1236 199.356C54.1236 199.357 54.1236 199.358 54.1236 199.359C54.1236 199.36 54.1236 199.36 54.1236 199.361C54.1236 199.362 54.1236 199.363 54.1236 199.364C54.1236 199.365 54.1236 199.366 54.1236 199.367C54.1236 199.368 54.1236 199.369 54.1236 199.37C54.1236 199.371 54.1236 199.372 54.1236 199.373C54.1236 199.374 54.1236 199.375 54.1236 199.376C54.1236 199.377 54.1236 199.378 54.1236 199.379C54.1236 199.38 54.1236 199.381 54.1236 199.382C54.1236 199.383 54.1236 199.384 54.1236 199.385C54.1236 199.386 54.1236 199.387 54.1236 199.388C54.1236 199.389 54.1236 199.39 54.1236 199.391C54.1236 199.391 54.1236 199.392 54.1236 199.393C54.1236 199.394 54.1236 199.395 54.1236 199.396C54.1236 199.397 54.1236 199.398 54.1236 199.399C54.1236 199.4 54.1236 199.401 54.1236 199.402C54.1236 199.403 54.1236 199.404 54.1236 199.405C54.1236 199.406 54.1236 199.407 54.1236 199.408C54.1236 199.409 54.1236 199.41 54.1236 199.411C54.1236 199.412 54.1236 199.413 54.1236 199.414C54.1236 199.415 54.1236 199.416 54.1236 199.417C54.1236 199.418 54.1236 199.419 54.1236 199.42C54.1236 199.421 54.1236 199.421 54.1236 199.422C54.1236 199.423 54.1236 199.424 54.1236 199.425C54.1236 199.426 54.1236 199.427 54.1236 199.428C54.1236 199.429 54.1236 199.43 54.1236 199.431C54.1236 199.432 54.1236 199.433 54.1236 199.434C54.1236 199.435 54.1236 199.436 54.1236 199.437C54.1236 199.438 54.1236 199.439 54.1236 199.44C54.1236 199.441 54.1236 199.442 54.1236 199.443C54.1236 199.444 54.1236 199.445 54.1236 199.446C54.1236 199.447 54.1236 199.448 54.1236 199.449C54.1236 199.45 54.1236 199.451 54.1236 199.451C54.1236 199.452 54.1236 199.453 54.1236 199.454C54.1236 199.455 54.1236 199.456 54.1236 199.457C54.1236 199.458 54.1236 199.459 54.1236 199.46C54.1236 199.461 54.1236 199.462 54.1236 199.463C54.1236 199.464 54.1236 199.465 54.1236 199.466C54.1236 199.467 54.1236 199.468 54.1236 199.469C54.1236 199.47 54.1236 199.471 54.1236 199.472C54.1236 199.473 54.1236 199.474 54.1236 199.475C54.1236 199.476 54.1236 199.477 54.1236 199.478C54.1236 199.479 54.1236 199.48 54.1236 199.48C54.1236 199.481 54.1236 199.482 54.1236 199.483C54.1236 199.484 54.1236 199.485 54.1236 199.486C54.1236 199.487 54.1236 199.488 54.1236 199.489C54.1236 199.49 54.1236 199.491 54.1236 199.492C54.1236 199.493 54.1236 199.494 54.1236 199.495C54.1236 199.496 54.1236 199.497 54.1236 199.498C54.1236 199.499 54.1236 199.5 54.1236 199.501C54.1236 199.502 54.1236 199.503 54.1236 199.504C54.1236 199.505 54.1236 199.506 54.1236 199.507C54.1236 199.508 54.1236 199.509 54.1236 199.509C54.1236 199.51 54.1236 199.511 54.1236 199.512C54.1236 199.513 54.1236 199.514 54.1236 199.515C54.1236 199.516 54.1236 199.517 54.1236 199.518C54.1236 199.519 54.1236 199.52 54.1236 199.521C54.1236 199.522 54.1236 199.523 54.1236 199.524C54.1236 199.525 54.1236 199.526 54.1236 199.527C54.1236 199.528 54.1236 199.529 54.1236 199.53C54.1236 199.531 54.1236 199.532 54.1236 199.533C54.1236 199.534 54.1236 199.535 54.1236 199.536C54.1236 199.537 54.1236 199.537 54.1236 199.538C54.1236 199.539 54.1236 199.54 54.1236 199.541C54.1236 199.542 54.1236 199.543 54.1236 199.544C54.1236 199.545 54.1236 199.546 54.1236 199.547C54.1236 199.548 54.1236 199.549 54.1236 199.55C54.1236 199.551 54.1236 199.552 54.1236 199.553C54.1236 199.554 54.1236 199.555 54.1236 199.556C54.1236 199.557 54.1236 199.558 54.1236 199.559C54.1236 199.56 54.1236 199.561 54.1236 199.562C54.1236 199.563 54.1236 199.564 54.1236 199.565C54.1236 199.565 54.1236 199.566 54.1236 199.567C54.1236 199.568 54.1236 199.569 54.1236 199.57C54.1236 199.571 54.1236 199.572 54.1236 199.573C54.1236 199.574 54.1236 199.575 54.1236 199.576C54.1236 199.577 54.1236 199.578 54.1236 199.579C54.1236 199.58 54.1236 199.581 54.1236 199.582C54.1236 199.583 54.1236 199.584 54.1236 199.585C54.1236 199.586 54.1236 199.587 54.1236 199.588C54.1236 199.589 54.1236 199.59 54.1236 199.591C54.1236 199.592 54.1236 199.593 54.1236 199.593C54.1236 199.594 54.1236 199.595 54.1236 199.596C54.1236 199.597 54.1236 199.598 54.1236 199.599C54.1236 199.6 54.1236 199.601 54.1236 199.602C54.1236 199.603 54.1236 199.604 54.1236 199.605C54.1236 199.606 54.1236 199.607 54.1236 199.608C54.1236 199.609 54.1236 199.61 54.1236 199.611C54.1236 199.612 54.1236 199.613 54.1236 199.614C54.1236 199.615 54.1236 199.616 54.1236 199.617C54.1236 199.618 54.1236 199.619 54.1236 199.62C54.1236 199.62 54.1236 199.621 54.1236 199.622C54.1236 199.623 54.1236 199.624 54.1236 199.625C54.1236 199.626 54.1236 199.627 54.1236 199.628C54.1236 199.629 54.1236 199.63 54.1236 199.631C54.1236 199.632 54.1236 199.633 54.1236 199.634C54.1236 199.635 54.1236 199.636 54.1236 199.637C54.1236 199.638 54.1236 199.639 54.1236 199.64C54.1236 199.641 54.1236 199.642 54.1236 199.643C54.1236 199.644 54.1236 199.645 54.1236 199.646C54.1236 199.647 54.1236 199.647 54.1236 199.648C54.1236 199.649 54.1236 199.65 54.1236 199.651C54.1236 199.652 54.1236 199.653 54.1236 199.654C54.1236 199.655 54.1236 199.656 54.1236 199.657C54.1236 199.658 54.1236 199.659 54.1236 199.66H55.1236ZM55.1236 198.16H56.1236V191.36H55.1236H54.1236V198.16H55.1236ZM55.1236 191.36V192.36H56.7236V191.36V190.36H55.1236V191.36ZM56.7236 191.36H55.7236V205H56.7236H57.7236V191.36H56.7236ZM56.7236 205V204H55.1236V205V206H56.7236V205ZM55.1236 205L55.9585 204.45L48.7985 193.59L47.9636 194.14L47.1287 194.69L54.2887 205.55L55.1236 205ZM47.9636 194.14V193.14H47.9236V194.14V195.14H47.9636V194.14ZM47.9236 194.14L46.9241 194.173C46.9378 194.583 46.9583 195.012 46.9854 195.46L47.9836 195.4L48.9818 195.34C48.9556 194.908 48.936 194.497 48.923 194.107L47.9236 194.14ZM47.9836 195.4L46.9842 195.434C46.9974 195.818 47.0107 196.249 47.024 196.728L48.0236 196.7L49.0232 196.672C49.0098 196.191 48.9964 195.755 48.983 195.366L47.9836 195.4ZM48.0236 196.7L47.024 196.728C47.037 197.198 47.0436 197.682 47.0436 198.18H48.0436H49.0436C49.0436 197.665 49.0368 197.162 49.0232 196.672L48.0236 196.7ZM48.0436 198.18H47.0436V205H48.0436H49.0436V198.18H48.0436ZM48.0436 205V204H46.4436V205V206H48.0436V205ZM46.4436 205H47.4436V191.36H46.4436H45.4436V205H46.4436ZM60.8522 191.36V190.36H59.8522V191.36H60.8522ZM69.2122 191.36H70.2122V190.36H69.2122V191.36ZM69.2122 192.9V193.9H70.2122V192.9H69.2122ZM62.5322 192.9V191.9H61.5322V192.9H62.5322ZM62.5322 197.26H61.5322V198.26H62.5322V197.26ZM68.7322 197.26H69.7322V196.26H68.7322V197.26ZM68.7322 198.76V199.76H69.7322V198.76H68.7322ZM62.5322 198.76V197.76H61.5322V198.76H62.5322ZM62.5322 203.46H61.5322V204.46H62.5322V203.46ZM69.4122 203.46H70.4122V202.46H69.4122V203.46ZM69.4122 205V206H70.4122V205H69.4122ZM60.8522 205H59.8522V206H60.8522V205ZM60.8522 191.36V192.36H69.2122V191.36V190.36H60.8522V191.36ZM69.2122 191.36H68.2122V192.9H69.2122H70.2122V191.36H69.2122ZM69.2122 192.9V191.9H62.5322V192.9V193.9H69.2122V192.9ZM62.5322 192.9H61.5322V197.26H62.5322H63.5322V192.9H62.5322ZM62.5322 197.26V198.26H68.7322V197.26V196.26H62.5322V197.26ZM68.7322 197.26H67.7322V198.76H68.7322H69.7322V197.26H68.7322ZM68.7322 198.76V197.76H62.5322V198.76V199.76H68.7322V198.76ZM62.5322 198.76H61.5322V203.46H62.5322H63.5322V198.76H62.5322ZM62.5322 203.46V204.46H69.4122V203.46V202.46H62.5322V203.46ZM69.4122 203.46H68.4122V205H69.4122H70.4122V203.46H69.4122ZM69.4122 205V204H60.8522V205V206H69.4122V205ZM60.8522 205H61.8522V191.36H60.8522H59.8522V205H60.8522ZM75.5813 200.04H76.5813V199.803L76.4749 199.591L75.5813 200.04ZM71.2213 191.36V190.36H69.5999L70.3276 191.809L71.2213 191.36ZM73.0812 191.36L73.9741 190.91L73.6968 190.36H73.0812V191.36ZM76.4212 197.98L75.5285 198.43L76.4186 200.195L77.313 198.433L76.4212 197.98ZM79.7812 191.36V190.36H79.1674L78.8895 190.907L79.7812 191.36ZM81.6413 191.36L82.5349 191.809L83.2626 190.36H81.6413V191.36ZM77.2812 200.04L76.3876 199.591L76.2812 199.803V200.04H77.2812ZM77.2812 205V206H78.2812V205H77.2812ZM75.5813 205H74.5812V206H75.5813V205ZM75.5813 200.04L76.4749 199.591L72.1149 190.911L71.2213 191.36L70.3276 191.809L74.6876 200.489L75.5813 200.04ZM71.2213 191.36V192.36H73.0812V191.36V190.36H71.2213V191.36ZM73.0812 191.36L72.1884 191.81L75.5285 198.43L76.4212 197.98L77.3141 197.53L73.9741 190.91L73.0812 191.36ZM76.4212 197.98L77.313 198.433L80.673 191.813L79.7812 191.36L78.8895 190.907L75.5295 197.527L76.4212 197.98ZM79.7812 191.36V192.36H81.6413V191.36V190.36H79.7812V191.36ZM81.6413 191.36L80.7477 190.911L76.3876 199.591L77.2812 200.04L78.1749 200.489L82.5349 191.809L81.6413 191.36ZM77.2812 200.04H76.2812V205H77.2812H78.2812V200.04H77.2812ZM77.2812 205V204H75.5813V205V206H77.2812V205ZM75.5813 205H76.5813V200.04H75.5813H74.5812V205H75.5813Z" fill="black" mask="url(#path-8-outside-1_23_1184)"/>
<path d="M40.783 0.539999H45.493C48.093 0.539999 50.013 0.999999 51.253 1.92C52.513 2.84 53.143 4.39 53.143 6.57C53.143 7.77 52.913 8.77 52.453 9.57C51.993 10.37 51.413 11.02 50.713 11.52C50.033 12 49.293 12.35 48.493 12.57C47.693 12.77 46.953 12.87 46.273 12.87H43.303V21H40.783V0.539999ZM43.303 10.62H46.063C46.743 10.62 47.353 10.56 47.893 10.44C48.453 10.3 48.933 10.08 49.333 9.78C49.733 9.46 50.043 9.04 50.263 8.52C50.483 7.98 50.593 7.31 50.593 6.51C50.593 5.71 50.473 5.07 50.233 4.59C50.013 4.09 49.673 3.71 49.213 3.45C48.773 3.19 48.213 3.02 47.533 2.94C46.853 2.84 46.063 2.79 45.163 2.79H43.303V10.62ZM57.8841 0.539999H60.4041V18.6H69.7041V21H57.8841V0.539999ZM78.7048 0.539999H81.8248L88.8448 21H86.2348L84.4348 15.54H76.1248L74.2948 21H71.6848L78.7048 0.539999ZM83.6248 13.14L80.3248 2.94H80.2348L76.9048 13.14H83.6248ZM95.9949 13.56L89.4549 0.539999H92.2449L97.2549 10.47L102.295 0.539999H105.085L98.5449 13.56V21H95.9949V13.56ZM108.983 0.539999H121.523V2.85H111.503V9.39H120.803V11.64H111.503V18.69H121.823V21H108.983V0.539999ZM126.816 0.539999H131.856C132.956 0.539999 133.956 0.639999 134.856 0.839998C135.776 1.02 136.556 1.34 137.196 1.8C137.836 2.24 138.326 2.83 138.666 3.57C139.006 4.31 139.176 5.24 139.176 6.36C139.156 7.6 138.946 8.61 138.546 9.39C138.146 10.15 137.656 10.77 137.076 11.25C136.496 11.71 135.826 12.05 135.066 12.27V12.33C135.146 12.41 135.266 12.56 135.426 12.78C135.606 12.98 135.756 13.16 135.876 13.32L141.666 21H138.696L132.756 12.87H129.336V21H126.816V0.539999ZM136.626 6.78C136.626 5.94 136.516 5.26 136.296 4.74C136.096 4.2 135.786 3.79 135.366 3.51C134.966 3.23 134.466 3.04 133.866 2.94C133.266 2.84 132.586 2.79 131.826 2.79H129.336V10.62H132.306C133.086 10.62 133.746 10.52 134.286 10.32C134.826 10.12 135.266 9.85 135.606 9.51C135.946 9.15 136.196 8.74 136.356 8.28C136.516 7.82 136.606 7.32 136.626 6.78ZM151.555 23.76C151.935 23.94 152.295 24.09 152.635 24.21C152.995 24.35 153.335 24.45 153.655 24.51C153.995 24.59 154.335 24.65 154.675 24.69C155.035 24.73 155.415 24.75 155.815 24.75C156.335 24.75 156.835 24.67 157.315 24.51C157.795 24.35 158.215 24.11 158.575 23.79C158.935 23.47 159.225 23.06 159.445 22.56C159.665 22.08 159.775 21.51 159.775 20.85C159.775 19.53 159.235 18.51 158.155 17.79C157.095 17.07 155.695 16.7 153.955 16.68V14.58C155.655 14.58 157.005 14.22 158.005 13.5C159.025 12.78 159.535 11.73 159.535 10.35C159.535 9.97 159.485 9.62 159.385 9.3C159.305 8.98 159.145 8.7 158.905 8.46C158.685 8.22 158.385 8.04 158.005 7.92C157.625 7.78 157.145 7.71 156.565 7.71C156.085 7.71 155.625 7.74 155.185 7.8C154.765 7.86 154.385 7.92 154.045 7.98C153.665 8.06 153.295 8.14 152.935 8.22L152.335 6.27C152.715 6.15 153.145 6.04 153.625 5.94C154.025 5.86 154.505 5.79 155.065 5.73C155.625 5.65 156.235 5.61 156.895 5.61C158.455 5.61 159.705 5.99 160.645 6.75C161.605 7.49 162.085 8.68 162.085 10.32C162.085 11.12 161.955 11.82 161.695 12.42C161.435 13 161.115 13.5 160.735 13.92C160.375 14.34 159.975 14.68 159.535 14.94C159.115 15.18 158.725 15.36 158.365 15.48V15.57C158.865 15.75 159.355 15.99 159.835 16.29C160.315 16.59 160.735 16.96 161.095 17.4C161.475 17.84 161.775 18.35 161.995 18.93C162.215 19.49 162.325 20.13 162.325 20.85C162.325 22.03 162.105 23 161.665 23.76C161.245 24.54 160.715 25.16 160.075 25.62C159.435 26.08 158.725 26.4 157.945 26.58C157.185 26.76 156.475 26.85 155.815 26.85C155.055 26.85 154.365 26.79 153.745 26.67C153.145 26.57 152.625 26.45 152.185 26.31C151.665 26.15 151.205 25.97 150.805 25.77L151.555 23.76Z" fill="black"/>
</svg>
