<svg width="200" height="200" viewBox="0 0 200 200" fill="none" xmlns="http://www.w3.org/2000/svg">
<rect x="2.5" y="2.5" width="195" height="195" rx="5.5" fill="#32FF70" stroke="black" stroke-width="5"/>
<mask id="path-2-outside-1_46_1102" maskUnits="userSpaceOnUse" x="37" y="87" width="127" height="31" fill="black">
<rect fill="white" x="37" y="87" width="127" height="31"/>
<path d="M39.783 89.54H44.493C47.093 89.54 49.013 90 50.253 90.92C51.513 91.84 52.143 93.39 52.143 95.57C52.143 96.77 51.913 97.77 51.453 98.57C50.993 99.37 50.413 100.02 49.713 100.52C49.033 101 48.293 101.35 47.493 101.57C46.693 101.77 45.953 101.87 45.273 101.87H42.303V110H39.783V89.54ZM42.303 99.62H45.063C45.743 99.62 46.353 99.56 46.893 99.44C47.453 99.3 47.933 99.08 48.333 98.78C48.733 98.46 49.043 98.04 49.263 97.52C49.483 96.98 49.593 96.31 49.593 95.51C49.593 94.71 49.473 94.07 49.233 93.59C49.013 93.09 48.673 92.71 48.213 92.45C47.773 92.19 47.213 92.02 46.533 91.94C45.853 91.84 45.063 91.79 44.163 91.79H42.303V99.62ZM56.8841 89.54H59.4041V107.6H68.7041V110H56.8841V89.54ZM77.7048 89.54H80.8248L87.8448 110H85.2348L83.4348 104.54H75.1248L73.2948 110H70.6848L77.7048 89.54ZM82.6248 102.14L79.3248 91.94H79.2348L75.9048 102.14H82.6248ZM94.9949 102.56L88.4549 89.54H91.2449L96.2549 99.47L101.295 89.54H104.085L97.5449 102.56V110H94.9949V102.56ZM107.983 89.54H120.523V91.85H110.503V98.39H119.803V100.64H110.503V107.69H120.823V110H107.983V89.54ZM125.816 89.54H130.856C131.956 89.54 132.956 89.64 133.856 89.84C134.776 90.02 135.556 90.34 136.196 90.8C136.836 91.24 137.326 91.83 137.666 92.57C138.006 93.31 138.176 94.24 138.176 95.36C138.156 96.6 137.946 97.61 137.546 98.39C137.146 99.15 136.656 99.77 136.076 100.25C135.496 100.71 134.826 101.05 134.066 101.27V101.33C134.146 101.41 134.266 101.56 134.426 101.78C134.606 101.98 134.756 102.16 134.876 102.32L140.666 110H137.696L131.756 101.87H128.336V110H125.816V89.54ZM135.626 95.78C135.626 94.94 135.516 94.26 135.296 93.74C135.096 93.2 134.786 92.79 134.366 92.51C133.966 92.23 133.466 92.04 132.866 91.94C132.266 91.84 131.586 91.79 130.826 91.79H128.336V99.62H131.306C132.086 99.62 132.746 99.52 133.286 99.32C133.826 99.12 134.266 98.85 134.606 98.51C134.946 98.15 135.196 97.74 135.356 97.28C135.516 96.82 135.606 96.32 135.626 95.78ZM150.555 112.76C150.935 112.94 151.295 113.09 151.635 113.21C151.995 113.35 152.335 113.45 152.655 113.51C152.995 113.59 153.335 113.65 153.675 113.69C154.035 113.73 154.415 113.75 154.815 113.75C155.335 113.75 155.835 113.67 156.315 113.51C156.795 113.35 157.215 113.11 157.575 112.79C157.935 112.47 158.225 112.06 158.445 111.56C158.665 111.08 158.775 110.51 158.775 109.85C158.775 108.53 158.235 107.51 157.155 106.79C156.095 106.07 154.695 105.7 152.955 105.68V103.58C154.655 103.58 156.005 103.22 157.005 102.5C158.025 101.78 158.535 100.73 158.535 99.35C158.535 98.97 158.485 98.62 158.385 98.3C158.305 97.98 158.145 97.7 157.905 97.46C157.685 97.22 157.385 97.04 157.005 96.92C156.625 96.78 156.145 96.71 155.565 96.71C155.085 96.71 154.625 96.74 154.185 96.8C153.765 96.86 153.385 96.92 153.045 96.98C152.665 97.06 152.295 97.14 151.935 97.22L151.335 95.27C151.715 95.15 152.145 95.04 152.625 94.94C153.025 94.86 153.505 94.79 154.065 94.73C154.625 94.65 155.235 94.61 155.895 94.61C157.455 94.61 158.705 94.99 159.645 95.75C160.605 96.49 161.085 97.68 161.085 99.32C161.085 100.12 160.955 100.82 160.695 101.42C160.435 102 160.115 102.5 159.735 102.92C159.375 103.34 158.975 103.68 158.535 103.94C158.115 104.18 157.725 104.36 157.365 104.48V104.57C157.865 104.75 158.355 104.99 158.835 105.29C159.315 105.59 159.735 105.96 160.095 106.4C160.475 106.84 160.775 107.35 160.995 107.93C161.215 108.49 161.325 109.13 161.325 109.85C161.325 111.03 161.105 112 160.665 112.76C160.245 113.54 159.715 114.16 159.075 114.62C158.435 115.08 157.725 115.4 156.945 115.58C156.185 115.76 155.475 115.85 154.815 115.85C154.055 115.85 153.365 115.79 152.745 115.67C152.145 115.57 151.625 115.45 151.185 115.31C150.665 115.15 150.205 114.97 149.805 114.77L150.555 112.76Z"/>
</mask>
<path d="M39.783 89.54H44.493C47.093 89.54 49.013 90 50.253 90.92C51.513 91.84 52.143 93.39 52.143 95.57C52.143 96.77 51.913 97.77 51.453 98.57C50.993 99.37 50.413 100.02 49.713 100.52C49.033 101 48.293 101.35 47.493 101.57C46.693 101.77 45.953 101.87 45.273 101.87H42.303V110H39.783V89.54ZM42.303 99.62H45.063C45.743 99.62 46.353 99.56 46.893 99.44C47.453 99.3 47.933 99.08 48.333 98.78C48.733 98.46 49.043 98.04 49.263 97.52C49.483 96.98 49.593 96.31 49.593 95.51C49.593 94.71 49.473 94.07 49.233 93.59C49.013 93.09 48.673 92.71 48.213 92.45C47.773 92.19 47.213 92.02 46.533 91.94C45.853 91.84 45.063 91.79 44.163 91.79H42.303V99.62ZM56.8841 89.54H59.4041V107.6H68.7041V110H56.8841V89.54ZM77.7048 89.54H80.8248L87.8448 110H85.2348L83.4348 104.54H75.1248L73.2948 110H70.6848L77.7048 89.54ZM82.6248 102.14L79.3248 91.94H79.2348L75.9048 102.14H82.6248ZM94.9949 102.56L88.4549 89.54H91.2449L96.2549 99.47L101.295 89.54H104.085L97.5449 102.56V110H94.9949V102.56ZM107.983 89.54H120.523V91.85H110.503V98.39H119.803V100.64H110.503V107.69H120.823V110H107.983V89.54ZM125.816 89.54H130.856C131.956 89.54 132.956 89.64 133.856 89.84C134.776 90.02 135.556 90.34 136.196 90.8C136.836 91.24 137.326 91.83 137.666 92.57C138.006 93.31 138.176 94.24 138.176 95.36C138.156 96.6 137.946 97.61 137.546 98.39C137.146 99.15 136.656 99.77 136.076 100.25C135.496 100.71 134.826 101.05 134.066 101.27V101.33C134.146 101.41 134.266 101.56 134.426 101.78C134.606 101.98 134.756 102.16 134.876 102.32L140.666 110H137.696L131.756 101.87H128.336V110H125.816V89.54ZM135.626 95.78C135.626 94.94 135.516 94.26 135.296 93.74C135.096 93.2 134.786 92.79 134.366 92.51C133.966 92.23 133.466 92.04 132.866 91.94C132.266 91.84 131.586 91.79 130.826 91.79H128.336V99.62H131.306C132.086 99.62 132.746 99.52 133.286 99.32C133.826 99.12 134.266 98.85 134.606 98.51C134.946 98.15 135.196 97.74 135.356 97.28C135.516 96.82 135.606 96.32 135.626 95.78ZM150.555 112.76C150.935 112.94 151.295 113.09 151.635 113.21C151.995 113.35 152.335 113.45 152.655 113.51C152.995 113.59 153.335 113.65 153.675 113.69C154.035 113.73 154.415 113.75 154.815 113.75C155.335 113.75 155.835 113.67 156.315 113.51C156.795 113.35 157.215 113.11 157.575 112.79C157.935 112.47 158.225 112.06 158.445 111.56C158.665 111.08 158.775 110.51 158.775 109.85C158.775 108.53 158.235 107.51 157.155 106.79C156.095 106.07 154.695 105.7 152.955 105.68V103.58C154.655 103.58 156.005 103.22 157.005 102.5C158.025 101.78 158.535 100.73 158.535 99.35C158.535 98.97 158.485 98.62 158.385 98.3C158.305 97.98 158.145 97.7 157.905 97.46C157.685 97.22 157.385 97.04 157.005 96.92C156.625 96.78 156.145 96.71 155.565 96.71C155.085 96.71 154.625 96.74 154.185 96.8C153.765 96.86 153.385 96.92 153.045 96.98C152.665 97.06 152.295 97.14 151.935 97.22L151.335 95.27C151.715 95.15 152.145 95.04 152.625 94.94C153.025 94.86 153.505 94.79 154.065 94.73C154.625 94.65 155.235 94.61 155.895 94.61C157.455 94.61 158.705 94.99 159.645 95.75C160.605 96.49 161.085 97.68 161.085 99.32C161.085 100.12 160.955 100.82 160.695 101.42C160.435 102 160.115 102.5 159.735 102.92C159.375 103.34 158.975 103.68 158.535 103.94C158.115 104.18 157.725 104.36 157.365 104.48V104.57C157.865 104.75 158.355 104.99 158.835 105.29C159.315 105.59 159.735 105.96 160.095 106.4C160.475 106.84 160.775 107.35 160.995 107.93C161.215 108.49 161.325 109.13 161.325 109.85C161.325 111.03 161.105 112 160.665 112.76C160.245 113.54 159.715 114.16 159.075 114.62C158.435 115.08 157.725 115.4 156.945 115.58C156.185 115.76 155.475 115.85 154.815 115.85C154.055 115.85 153.365 115.79 152.745 115.67C152.145 115.57 151.625 115.45 151.185 115.31C150.665 115.15 150.205 114.97 149.805 114.77L150.555 112.76Z" fill="black"/>
<path d="M39.783 89.54V87.54H37.783V89.54H39.783ZM50.253 90.92L49.0613 92.5262L49.0674 92.5307L49.0736 92.5353L50.253 90.92ZM51.453 98.57L53.1868 99.5669V99.5669L51.453 98.57ZM49.713 100.52L50.8664 102.154L50.8754 102.147L49.713 100.52ZM47.493 101.57L47.978 103.51L48.0007 103.505L48.0233 103.498L47.493 101.57ZM42.303 101.87V99.87H40.303V101.87H42.303ZM42.303 110V112H44.303V110H42.303ZM39.783 110H37.783V112H39.783V110ZM42.303 99.62H40.303V101.62H42.303V99.62ZM46.893 99.44L47.3268 101.392L47.3525 101.387L47.378 101.38L46.893 99.44ZM48.333 98.78L49.533 100.38L49.558 100.361L49.5824 100.342L48.333 98.78ZM49.263 97.52L51.1049 98.2993L51.1101 98.287L51.1152 98.2746L49.263 97.52ZM49.233 93.59L47.4023 94.3955L47.4221 94.4405L47.4441 94.4844L49.233 93.59ZM48.213 92.45L47.1955 94.1719L47.2121 94.1816L47.2289 94.1911L48.213 92.45ZM46.533 91.94L46.242 93.9187L46.2706 93.9229L46.2993 93.9263L46.533 91.94ZM42.303 91.79V89.79H40.303V91.79H42.303ZM39.783 89.54V91.54H44.493V89.54V87.54H39.783V89.54ZM44.493 89.54V91.54C46.9294 91.54 48.3311 91.9845 49.0613 92.5262L50.253 90.92L51.4447 89.3138C49.6948 88.0155 47.2565 87.54 44.493 87.54V89.54ZM50.253 90.92L49.0736 92.5353C49.632 92.943 50.143 93.7568 50.143 95.57H52.143H54.143C54.143 93.0232 53.394 90.737 51.4324 89.3047L50.253 90.92ZM52.143 95.57H50.143C50.143 96.5226 49.9599 97.1543 49.7192 97.5731L51.453 98.57L53.1868 99.5669C53.866 98.3857 54.143 97.0174 54.143 95.57H52.143ZM51.453 98.57L49.7192 97.5731C49.3916 98.1427 49.0004 98.5712 48.5505 98.8925L49.713 100.52L50.8754 102.147C51.8256 101.469 52.5943 100.597 53.1868 99.5669L51.453 98.57ZM49.713 100.52L48.5596 98.8861C48.0681 99.233 47.5388 99.4832 46.9627 99.6416L47.493 101.57L48.0233 103.498C49.0472 103.217 49.9979 102.767 50.8663 102.154L49.713 100.52ZM47.493 101.57L47.0079 99.6297C46.3342 99.7981 45.7592 99.87 45.273 99.87V101.87V103.87C46.1468 103.87 47.0517 103.742 47.978 103.51L47.493 101.57ZM45.273 101.87V99.87H42.303V101.87V103.87H45.273V101.87ZM42.303 101.87H40.303V110H42.303H44.303V101.87H42.303ZM42.303 110V108H39.783V110V112H42.303V110ZM39.783 110H41.783V89.54H39.783H37.783V110H39.783ZM42.303 99.62V101.62H45.063V99.62V97.62H42.303V99.62ZM45.063 99.62V101.62C45.857 101.62 46.6163 101.55 47.3268 101.392L46.893 99.44L46.4591 97.4876C46.0896 97.5697 45.6289 97.62 45.063 97.62V99.62ZM46.893 99.44L47.378 101.38C48.1571 101.186 48.8893 100.863 49.533 100.38L48.333 98.78L47.133 97.18C46.9766 97.2973 46.7489 97.4145 46.4079 97.4997L46.893 99.44ZM48.333 98.78L49.5824 100.342C50.2676 99.7935 50.769 99.0933 51.1049 98.2993L49.263 97.52L47.421 96.7407C47.317 96.9867 47.1983 97.1265 47.0836 97.2183L48.333 98.78ZM49.263 97.52L51.1152 98.2746C51.4618 97.4238 51.593 96.4787 51.593 95.51H49.593H47.593C47.593 96.1413 47.5042 96.5362 47.4108 96.7654L49.263 97.52ZM49.593 95.51H51.593C51.593 94.5393 51.452 93.5559 51.0218 92.6956L49.233 93.59L47.4441 94.4844C47.4939 94.5841 47.593 94.8807 47.593 95.51H49.593ZM49.233 93.59L51.0636 92.7845C50.6761 91.9038 50.0462 91.1888 49.1971 90.7089L48.213 92.45L47.2289 94.1911C47.2997 94.2312 47.3499 94.2762 47.4023 94.3955L49.233 93.59ZM48.213 92.45L49.2304 90.7281C48.4837 90.2869 47.6344 90.0558 46.7667 89.9537L46.533 91.94L46.2993 93.9263C46.7915 93.9842 47.0622 94.0931 47.1955 94.1719L48.213 92.45ZM46.533 91.94L46.824 89.9613C46.0234 89.8436 45.1324 89.79 44.163 89.79V91.79V93.79C44.9935 93.79 45.6825 93.8364 46.242 93.9187L46.533 91.94ZM44.163 91.79V89.79H42.303V91.79V93.79H44.163V91.79ZM42.303 91.79H40.303V99.62H42.303H44.303V91.79H42.303ZM56.8841 89.54V87.54H54.8841V89.54H56.8841ZM59.4041 89.54H61.4041V87.54H59.4041V89.54ZM59.4041 107.6H57.4041V109.6H59.4041V107.6ZM68.7041 107.6H70.7041V105.6H68.7041V107.6ZM68.7041 110V112H70.7041V110H68.7041ZM56.8841 110H54.8841V112H56.8841V110ZM56.8841 89.54V91.54H59.4041V89.54V87.54H56.8841V89.54ZM59.4041 89.54H57.4041V107.6H59.4041H61.4041V89.54H59.4041ZM59.4041 107.6V109.6H68.7041V107.6V105.6H59.4041V107.6ZM68.7041 107.6H66.7041V110H68.7041H70.7041V107.6H68.7041ZM68.7041 110V108H56.8841V110V112H68.7041V110ZM56.8841 110H58.8841V89.54H56.8841H54.8841V110H56.8841ZM77.7048 89.54V87.54H76.2766L75.8131 88.8909L77.7048 89.54ZM80.8248 89.54L82.7166 88.8909L82.2531 87.54H80.8248V89.54ZM87.8448 110V112H90.6455L89.7366 109.351L87.8448 110ZM85.2348 110L83.3354 110.626L83.7883 112H85.2348V110ZM83.4348 104.54L85.3343 103.914L84.8814 102.54H83.4348V104.54ZM75.1248 104.54V102.54H73.6858L73.2285 103.904L75.1248 104.54ZM73.2948 110V112H74.7339L75.1912 110.636L73.2948 110ZM70.6848 110L68.7931 109.351L67.8842 112H70.6848V110ZM82.6248 102.14V104.14H85.374L84.5277 101.524L82.6248 102.14ZM79.3248 91.94L81.2277 91.3244L80.7799 89.94H79.3248V91.94ZM79.2348 91.94V89.94H77.7839L77.3336 91.3193L79.2348 91.94ZM75.9048 102.14L74.0036 101.519L73.148 104.14H75.9048V102.14ZM77.7048 89.54V91.54H80.8248V89.54V87.54H77.7048V89.54ZM80.8248 89.54L78.9331 90.1891L85.9531 110.649L87.8448 110L89.7366 109.351L82.7166 88.8909L80.8248 89.54ZM87.8448 110V108H85.2348V110V112H87.8448V110ZM85.2348 110L87.1343 109.374L85.3343 103.914L83.4348 104.54L81.5354 105.166L83.3354 110.626L85.2348 110ZM83.4348 104.54V102.54H75.1248V104.54V106.54H83.4348V104.54ZM75.1248 104.54L73.2285 103.904L71.3985 109.364L73.2948 110L75.1912 110.636L77.0212 105.176L75.1248 104.54ZM73.2948 110V108H70.6848V110V112H73.2948V110ZM70.6848 110L72.5766 110.649L79.5966 90.1891L77.7048 89.54L75.8131 88.8909L68.7931 109.351L70.6848 110ZM82.6248 102.14L84.5277 101.524L81.2277 91.3244L79.3248 91.94L77.422 92.5556L80.722 102.756L82.6248 102.14ZM79.3248 91.94V89.94H79.2348V91.94V93.94H79.3248V91.94ZM79.2348 91.94L77.3336 91.3193L74.0036 101.519L75.9048 102.14L77.8061 102.761L81.1361 92.5607L79.2348 91.94ZM75.9048 102.14V104.14H82.6248V102.14V100.14H75.9048V102.14ZM94.9949 102.56H96.9949V102.086L96.7821 101.662L94.9949 102.56ZM88.4549 89.54V87.54H85.2122L86.6677 90.4377L88.4549 89.54ZM91.2449 89.54L93.0305 88.6391L92.476 87.54H91.2449V89.54ZM96.2549 99.47L94.4693 100.371L96.2496 103.899L98.0384 100.375L96.2549 99.47ZM101.295 89.54V87.54H100.067L99.5115 88.6348L101.295 89.54ZM104.085 89.54L105.872 90.4377L107.328 87.54H104.085V89.54ZM97.5449 102.56L95.7577 101.662L95.5449 102.086V102.56H97.5449ZM97.5449 110V112H99.5449V110H97.5449ZM94.9949 110H92.9949V112H94.9949V110ZM94.9949 102.56L96.7821 101.662L90.2421 88.6423L88.4549 89.54L86.6677 90.4377L93.2077 103.458L94.9949 102.56ZM88.4549 89.54V91.54H91.2449V89.54V87.54H88.4549V89.54ZM91.2449 89.54L89.4593 90.4409L94.4693 100.371L96.2549 99.47L98.0405 98.5691L93.0305 88.6391L91.2449 89.54ZM96.2549 99.47L98.0384 100.375L103.078 90.4452L101.295 89.54L99.5115 88.6348L94.4715 98.5648L96.2549 99.47ZM101.295 89.54V91.54H104.085V89.54V87.54H101.295V89.54ZM104.085 89.54L102.298 88.6423L95.7577 101.662L97.5449 102.56L99.3321 103.458L105.872 90.4377L104.085 89.54ZM97.5449 102.56H95.5449V110H97.5449H99.5449V102.56H97.5449ZM97.5449 110V108H94.9949V110V112H97.5449V110ZM94.9949 110H96.9949V102.56H94.9949H92.9949V110H94.9949ZM107.983 89.54V87.54H105.983V89.54H107.983ZM120.523 89.54H122.523V87.54H120.523V89.54ZM120.523 91.85V93.85H122.523V91.85H120.523ZM110.503 91.85V89.85H108.503V91.85H110.503ZM110.503 98.39H108.503V100.39H110.503V98.39ZM119.803 98.39H121.803V96.39H119.803V98.39ZM119.803 100.64V102.64H121.803V100.64H119.803ZM110.503 100.64V98.64H108.503V100.64H110.503ZM110.503 107.69H108.503V109.69H110.503V107.69ZM120.823 107.69H122.823V105.69H120.823V107.69ZM120.823 110V112H122.823V110H120.823ZM107.983 110H105.983V112H107.983V110ZM107.983 89.54V91.54H120.523V89.54V87.54H107.983V89.54ZM120.523 89.54H118.523V91.85H120.523H122.523V89.54H120.523ZM120.523 91.85V89.85H110.503V91.85V93.85H120.523V91.85ZM110.503 91.85H108.503V98.39H110.503H112.503V91.85H110.503ZM110.503 98.39V100.39H119.803V98.39V96.39H110.503V98.39ZM119.803 98.39H117.803V100.64H119.803H121.803V98.39H119.803ZM119.803 100.64V98.64H110.503V100.64V102.64H119.803V100.64ZM110.503 100.64H108.503V107.69H110.503H112.503V100.64H110.503ZM110.503 107.69V109.69H120.823V107.69V105.69H110.503V107.69ZM120.823 107.69H118.823V110H120.823H122.823V107.69H120.823ZM120.823 110V108H107.983V110V112H120.823V110ZM107.983 110H109.983V89.54H107.983H105.983V110H107.983ZM125.816 89.54V87.54H123.816V89.54H125.816ZM133.856 89.84L133.422 91.7924L133.447 91.7979L133.472 91.8028L133.856 89.84ZM136.196 90.8L135.029 92.424L135.046 92.4362L135.063 92.4481L136.196 90.8ZM138.176 95.36L140.176 95.3923L140.176 95.3761V95.36H138.176ZM137.546 98.39L139.316 99.3215L139.321 99.3121L139.326 99.3026L137.546 98.39ZM136.076 100.25L137.319 101.817L137.335 101.804L137.351 101.791L136.076 100.25ZM134.066 101.27L133.51 99.3489L132.066 99.7668V101.27H134.066ZM134.066 101.33H132.066V102.158L132.652 102.744L134.066 101.33ZM134.426 101.78L132.809 102.956L132.87 103.041L132.94 103.118L134.426 101.78ZM134.876 102.32L133.276 103.52L133.279 103.524L134.876 102.32ZM140.666 110V112H144.679L142.263 108.796L140.666 110ZM137.696 110L136.081 111.18L136.68 112H137.696V110ZM131.756 101.87L133.371 100.69L132.772 99.87H131.756V101.87ZM128.336 101.87V99.87H126.336V101.87H128.336ZM128.336 110V112H130.336V110H128.336ZM125.816 110H123.816V112H125.816V110ZM135.626 95.78L137.625 95.854L137.626 95.817V95.78H135.626ZM135.296 93.74L133.421 94.4346L133.436 94.4773L133.454 94.5193L135.296 93.74ZM134.366 92.51L133.219 94.1485L133.238 94.1615L133.257 94.1741L134.366 92.51ZM132.866 91.94L133.195 89.9672V89.9672L132.866 91.94ZM128.336 91.79V89.79H126.336V91.79H128.336ZM128.336 99.62H126.336V101.62H128.336V99.62ZM133.286 99.32L133.981 101.195V101.195L133.286 99.32ZM134.606 98.51L136.02 99.9242L136.041 99.904L136.06 99.8832L134.606 98.51ZM135.356 97.28L133.467 96.623V96.623L135.356 97.28ZM125.816 89.54V91.54H130.856V89.54V87.54H125.816V89.54ZM130.856 89.54V91.54C131.837 91.54 132.689 91.6294 133.422 91.7924L133.856 89.84L134.29 87.8876C133.223 87.6506 132.075 87.54 130.856 87.54V89.54ZM133.856 89.84L133.472 91.8028C134.163 91.9379 134.663 92.1608 135.029 92.424L136.196 90.8L137.363 89.176C136.45 88.5192 135.39 88.1021 134.24 87.8772L133.856 89.84ZM136.196 90.8L135.063 92.4481C135.391 92.6736 135.652 92.9762 135.849 93.405L137.666 92.57L139.484 91.735C139.001 90.6838 138.281 89.8064 137.329 89.1519L136.196 90.8ZM137.666 92.57L135.849 93.405C136.032 93.8042 136.176 94.4265 136.176 95.36H138.176H140.176C140.176 94.0535 139.98 92.8158 139.484 91.735L137.666 92.57ZM138.176 95.36L136.176 95.3277C136.159 96.3801 135.981 97.0591 135.767 97.4774L137.546 98.39L139.326 99.3026C139.911 98.1609 140.153 96.8199 140.176 95.3923L138.176 95.36ZM137.546 98.39L135.776 97.4585C135.482 98.0174 135.151 98.4197 134.801 98.7092L136.076 100.25L137.351 101.791C138.161 101.12 138.81 100.283 139.316 99.3215L137.546 98.39ZM136.076 100.25L134.833 98.683C134.471 98.9706 134.038 99.1961 133.51 99.3489L134.066 101.27L134.622 103.191C135.615 102.904 136.522 102.449 137.319 101.817L136.076 100.25ZM134.066 101.27H132.066V101.33H134.066H136.066V101.27H134.066ZM134.066 101.33L132.652 102.744C132.63 102.722 132.62 102.711 132.624 102.715C132.628 102.719 132.637 102.731 132.654 102.752C132.689 102.795 132.74 102.862 132.809 102.956L134.426 101.78L136.044 100.604C135.884 100.384 135.683 100.118 135.48 99.9158L134.066 101.33ZM134.426 101.78L132.94 103.118C133.092 103.288 133.202 103.421 133.276 103.52L134.876 102.32L136.476 101.12C136.311 100.899 136.12 100.672 135.913 100.442L134.426 101.78ZM134.876 102.32L133.279 103.524L139.069 111.204L140.666 110L142.263 108.796L136.473 101.116L134.876 102.32ZM140.666 110V108H137.696V110V112H140.666V110ZM137.696 110L139.311 108.82L133.371 100.69L131.756 101.87L130.141 103.05L136.081 111.18L137.696 110ZM131.756 101.87V99.87H128.336V101.87V103.87H131.756V101.87ZM128.336 101.87H126.336V110H128.336H130.336V101.87H128.336ZM128.336 110V108H125.816V110V112H128.336V110ZM125.816 110H127.816V89.54H125.816H123.816V110H125.816ZM135.626 95.78H137.626C137.626 94.791 137.5 93.8171 137.138 92.9607L135.296 93.74L133.454 94.5193C133.532 94.7029 133.626 95.089 133.626 95.78H135.626ZM135.296 93.74L137.172 93.0454C136.847 92.1674 136.295 91.3922 135.476 90.8459L134.366 92.51L133.257 94.1741C133.277 94.1878 133.346 94.2326 133.421 94.4346L135.296 93.74ZM134.366 92.51L135.513 90.8715C134.816 90.3837 134.019 90.1045 133.195 89.9672L132.866 91.94L132.537 93.9128C132.914 93.9755 133.116 94.0763 133.219 94.1485L134.366 92.51ZM132.866 91.94L133.195 89.9672C132.463 89.8453 131.67 89.79 130.826 89.79V91.79V93.79C131.502 93.79 132.069 93.8347 132.537 93.9128L132.866 91.94ZM130.826 91.79V89.79H128.336V91.79V93.79H130.826V91.79ZM128.336 91.79H126.336V99.62H128.336H130.336V91.79H128.336ZM128.336 99.62V101.62H131.306V99.62V97.62H128.336V99.62ZM131.306 99.62V101.62C132.245 101.62 133.155 101.501 133.981 101.195L133.286 99.32L132.592 97.4445C132.337 97.5387 131.928 97.62 131.306 97.62V99.62ZM133.286 99.32L133.981 101.195C134.739 100.915 135.44 100.504 136.02 99.9242L134.606 98.51L133.192 97.0958C133.092 97.1957 132.914 97.3251 132.592 97.4445L133.286 99.32ZM134.606 98.51L136.06 99.8832C136.591 99.3214 136.991 98.6684 137.245 97.937L135.356 97.28L133.467 96.623C133.402 96.8116 133.302 96.9786 133.152 97.1368L134.606 98.51ZM135.356 97.28L137.245 97.937C137.477 97.2699 137.598 96.5712 137.625 95.854L135.626 95.78L133.628 95.706C133.614 96.0688 133.555 96.3701 133.467 96.623L135.356 97.28ZM150.555 112.76L151.411 110.953L149.442 110.02L148.681 112.061L150.555 112.76ZM151.635 113.21L152.36 111.346L152.33 111.335L152.3 111.324L151.635 113.21ZM152.655 113.51L153.113 111.563L153.068 111.553L153.023 111.544L152.655 113.51ZM153.675 113.69L153.441 115.676L153.454 115.678L153.675 113.69ZM156.315 113.51L156.947 115.407V115.407L156.315 113.51ZM157.575 112.79L156.246 111.295L157.575 112.79ZM158.445 111.56L156.627 110.727L156.62 110.741L156.614 110.755L158.445 111.56ZM157.155 106.79L156.031 108.444L156.038 108.449L156.045 108.454L157.155 106.79ZM152.955 105.68H150.955V107.657L152.932 107.68L152.955 105.68ZM152.955 103.58V101.58H150.955V103.58H152.955ZM157.005 102.5L155.851 100.866L155.844 100.871L155.836 100.877L157.005 102.5ZM158.385 98.3L156.444 98.7851L156.458 98.8413L156.476 98.8965L158.385 98.3ZM157.905 97.46L156.43 98.8115L156.46 98.8435L156.49 98.8742L157.905 97.46ZM157.005 96.92L156.313 98.7967L156.357 98.813L156.402 98.8272L157.005 96.92ZM154.185 96.8L153.914 94.8183L153.902 94.8201L154.185 96.8ZM153.045 96.98L152.697 95.0104L152.665 95.0161L152.633 95.0229L153.045 96.98ZM151.935 97.22L150.023 97.8082L150.566 99.5729L152.369 99.1724L151.935 97.22ZM151.335 95.27L150.732 93.3628L148.839 93.9607L149.423 95.8582L151.335 95.27ZM152.625 94.94L152.232 92.9788L152.225 92.9804L152.217 92.982L152.625 94.94ZM154.065 94.73L154.278 96.7186L154.313 96.7149L154.348 96.7099L154.065 94.73ZM159.645 95.75L158.387 97.3053L158.405 97.3199L158.424 97.334L159.645 95.75ZM160.695 101.42L162.52 102.238L162.525 102.227L162.53 102.215L160.695 101.42ZM159.735 102.92L158.252 101.578L158.234 101.598L158.216 101.618L159.735 102.92ZM158.535 103.94L159.527 105.676L159.54 105.669L159.552 105.662L158.535 103.94ZM157.365 104.48L156.732 102.583L155.365 103.038V104.48H157.365ZM157.365 104.57H155.365V105.976L156.687 106.452L157.365 104.57ZM158.835 105.29L157.775 106.986L158.835 105.29ZM160.095 106.4L158.547 107.666L158.564 107.687L158.581 107.707L160.095 106.4ZM160.995 107.93L159.125 108.639L159.129 108.65L159.133 108.661L160.995 107.93ZM160.665 112.76L158.934 111.758L158.918 111.785L158.904 111.812L160.665 112.76ZM159.075 114.62L160.242 116.244L159.075 114.62ZM156.945 115.58L156.495 113.631L156.484 113.634L156.945 115.58ZM152.745 115.67L153.125 113.706L153.099 113.701L153.073 113.697L152.745 115.67ZM151.185 115.31L151.791 113.404L151.782 113.401L151.773 113.398L151.185 115.31ZM149.805 114.77L147.931 114.071L147.302 115.755L148.91 116.559L149.805 114.77ZM150.555 112.76L149.699 114.567C150.131 114.772 150.555 114.95 150.969 115.096L151.635 113.21L152.3 111.324C152.035 111.23 151.739 111.108 151.411 110.953L150.555 112.76ZM151.635 113.21L150.91 115.074C151.365 115.251 151.824 115.389 152.286 115.476L152.655 113.51L153.023 111.544C152.845 111.511 152.625 111.449 152.36 111.346L151.635 113.21ZM152.655 113.51L152.197 115.457C152.609 115.554 153.024 115.627 153.441 115.676L153.675 113.69L153.908 111.704C153.645 111.673 153.38 111.626 153.113 111.563L152.655 113.51ZM153.675 113.69L153.454 115.678C153.894 115.727 154.348 115.75 154.815 115.75V113.75V111.75C154.481 111.75 154.175 111.733 153.896 111.702L153.675 113.69ZM154.815 113.75V115.75C155.544 115.75 156.258 115.637 156.947 115.407L156.315 113.51L155.682 111.613C155.412 111.703 155.126 111.75 154.815 111.75V113.75ZM156.315 113.51L156.947 115.407C157.671 115.166 158.331 114.794 158.903 114.285L157.575 112.79L156.246 111.295C156.099 111.426 155.918 111.534 155.682 111.613L156.315 113.51ZM157.575 112.79L158.903 114.285C159.505 113.75 159.955 113.093 160.275 112.365L158.445 111.56L156.614 110.755C156.494 111.027 156.364 111.19 156.246 111.295L157.575 112.79ZM158.445 111.56L160.263 112.393C160.629 111.595 160.775 110.728 160.775 109.85H158.775H156.775C156.775 110.292 156.701 110.565 156.627 110.727L158.445 111.56ZM158.775 109.85H160.775C160.775 107.875 159.912 106.224 158.264 105.126L157.155 106.79L156.045 108.454C156.558 108.796 156.775 109.185 156.775 109.85H158.775ZM157.155 106.79L158.278 105.136C156.796 104.129 154.974 103.703 152.978 103.68L152.955 105.68L152.932 107.68C154.416 107.697 155.393 108.011 156.031 108.444L157.155 106.79ZM152.955 105.68H154.955V103.58H152.955H150.955V105.68H152.955ZM152.955 103.58V105.58C154.919 105.58 156.725 105.166 158.173 104.123L157.005 102.5L155.836 100.877C155.284 101.274 154.391 101.58 152.955 101.58V103.58ZM157.005 102.5L158.158 104.134C159.771 102.995 160.535 101.3 160.535 99.35H158.535H156.535C156.535 100.16 156.278 100.565 155.851 100.866L157.005 102.5ZM158.535 99.35H160.535C160.535 98.7942 160.461 98.2404 160.294 97.7035L158.385 98.3L156.476 98.8965C156.508 98.9996 156.535 99.1458 156.535 99.35H158.535ZM158.385 98.3L160.325 97.8149C160.154 97.1327 159.807 96.5343 159.319 96.0458L157.905 97.46L156.49 98.8742C156.491 98.8751 156.481 98.8645 156.468 98.8423C156.455 98.8197 156.448 98.7986 156.444 98.7851L158.385 98.3ZM157.905 97.46L159.379 96.1085C158.874 95.558 158.247 95.2149 157.607 95.0128L157.005 96.92L156.402 98.8272C156.463 98.8464 156.487 98.8608 156.486 98.86C156.485 98.8595 156.478 98.8555 156.468 98.8471C156.458 98.8387 156.444 98.8268 156.43 98.8115L157.905 97.46ZM157.005 96.92L157.696 95.0433C157.021 94.7947 156.287 94.71 155.565 94.71V96.71V98.71C156.002 98.71 156.228 98.7653 156.313 98.7967L157.005 96.92ZM155.565 96.71V94.71C155.001 94.71 154.451 94.7452 153.914 94.8183L154.185 96.8L154.455 98.7817C154.799 98.7348 155.168 98.71 155.565 98.71V96.71ZM154.185 96.8L153.902 94.8201C153.465 94.8825 153.063 94.9459 152.697 95.0104L153.045 96.98L153.392 98.9496C153.707 98.8941 154.064 98.8375 154.468 98.7799L154.185 96.8ZM153.045 96.98L152.633 95.0229C152.246 95.1044 151.868 95.1859 151.501 95.2676L151.935 97.22L152.369 99.1724C152.721 99.0941 153.084 99.0156 153.457 98.9371L153.045 96.98ZM151.935 97.22L153.846 96.6318L153.246 94.6818L151.335 95.27L149.423 95.8582L150.023 97.8082L151.935 97.22ZM151.335 95.27L151.937 97.1772C152.241 97.0813 152.604 96.9873 153.033 96.898L152.625 94.94L152.217 92.982C151.685 93.0927 151.189 93.2187 150.732 93.3628L151.335 95.27ZM152.625 94.94L153.017 96.9012C153.34 96.8365 153.757 96.7744 154.278 96.7186L154.065 94.73L153.852 92.7414C153.252 92.8056 152.709 92.8835 152.232 92.9788L152.625 94.94ZM154.065 94.73L154.348 96.7099C154.8 96.6453 155.314 96.61 155.895 96.61V94.61V92.61C155.155 92.61 154.449 92.6547 153.782 92.7501L154.065 94.73ZM155.895 94.61V96.61C157.132 96.61 157.895 96.9077 158.387 97.3053L159.645 95.75L160.902 94.1947C159.514 93.0723 157.778 92.61 155.895 92.61V94.61ZM159.645 95.75L158.424 97.334C158.732 97.5719 159.085 98.0652 159.085 99.32H161.085H163.085C163.085 97.2948 162.477 95.4081 160.866 94.166L159.645 95.75ZM161.085 99.32H159.085C159.085 99.906 158.989 100.325 158.86 100.625L160.695 101.42L162.53 102.215C162.92 101.315 163.085 100.334 163.085 99.32H161.085ZM160.695 101.42L158.87 100.602C158.685 101.014 158.475 101.331 158.252 101.578L159.735 102.92L161.218 104.262C161.755 103.669 162.184 102.986 162.52 102.238L160.695 101.42ZM159.735 102.92L158.216 101.618C157.987 101.886 157.753 102.079 157.517 102.218L158.535 103.94L159.552 105.662C160.196 105.281 160.762 104.794 161.253 104.222L159.735 102.92ZM158.535 103.94L157.542 102.204C157.207 102.395 156.939 102.514 156.732 102.583L157.365 104.48L157.997 106.377C158.511 106.206 159.022 105.965 159.527 105.676L158.535 103.94ZM157.365 104.48H155.365V104.57H157.365H159.365V104.48H157.365ZM157.365 104.57L156.687 106.452C157.045 106.581 157.407 106.756 157.775 106.986L158.835 105.29L159.895 103.594C159.302 103.224 158.684 102.919 158.042 102.688L157.365 104.57ZM158.835 105.29L157.775 106.986C158.069 107.17 158.324 107.395 158.547 107.666L160.095 106.4L161.643 105.134C161.145 104.525 160.56 104.01 159.895 103.594L158.835 105.29ZM160.095 106.4L158.581 107.707C158.798 107.959 158.982 108.263 159.125 108.639L160.995 107.93L162.865 107.221C162.567 106.437 162.151 105.721 161.608 105.093L160.095 106.4ZM160.995 107.93L159.133 108.661C159.246 108.947 159.325 109.332 159.325 109.85H161.325H163.325C163.325 108.928 163.184 108.033 162.856 107.199L160.995 107.93ZM161.325 109.85H159.325C159.325 110.795 159.147 111.39 158.934 111.758L160.665 112.76L162.396 113.762C163.062 112.61 163.325 111.265 163.325 109.85H161.325ZM160.665 112.76L158.904 111.812C158.61 112.358 158.272 112.734 157.907 112.996L159.075 114.62L160.242 116.244C161.158 115.586 161.88 114.722 162.426 113.708L160.665 112.76ZM159.075 114.62L157.907 112.996C157.486 113.299 157.021 113.51 156.495 113.631L156.945 115.58L157.394 117.529C158.429 117.29 159.383 116.861 160.242 116.244L159.075 114.62ZM156.945 115.58L156.484 113.634C155.848 113.784 155.294 113.85 154.815 113.85V115.85V117.85C155.655 117.85 156.521 117.736 157.406 117.526L156.945 115.58ZM154.815 115.85V113.85C154.157 113.85 153.597 113.798 153.125 113.706L152.745 115.67L152.365 117.634C153.132 117.782 153.952 117.85 154.815 117.85V115.85ZM152.745 115.67L153.073 113.697C152.54 113.608 152.117 113.508 151.791 113.404L151.185 115.31L150.578 117.216C151.132 117.392 151.749 117.532 152.416 117.643L152.745 115.67ZM151.185 115.31L151.773 113.398C151.336 113.264 150.982 113.123 150.699 112.981L149.805 114.77L148.91 116.559C149.427 116.817 149.993 117.036 150.597 117.222L151.185 115.31ZM149.805 114.77L151.678 115.469L152.428 113.459L150.555 112.76L148.681 112.061L147.931 114.071L149.805 114.77Z" fill="black" mask="url(#path-2-outside-1_46_1102)"/>
</svg>
