<svg width="200" height="200" viewBox="0 0 200 200" fill="none" xmlns="http://www.w3.org/2000/svg">
<rect x="2.5" y="2.5" width="195" height="195" rx="5.5" fill="#00AEF8" stroke="black" stroke-width="5"/>
<mask id="path-2-outside-1_46_1101" maskUnits="userSpaceOnUse" x="37" y="87" width="128" height="25" fill="black">
<rect fill="white" x="37" y="87" width="128" height="25"/>
<path d="M39.8142 89.54H44.5242C47.1242 89.54 49.0442 90 50.2842 90.92C51.5442 91.84 52.1742 93.39 52.1742 95.57C52.1742 96.77 51.9442 97.77 51.4842 98.57C51.0242 99.37 50.4442 100.02 49.7442 100.52C49.0642 101 48.3242 101.35 47.5242 101.57C46.7242 101.77 45.9842 101.87 45.3042 101.87H42.3342V110H39.8142V89.54ZM42.3342 99.62H45.0942C45.7742 99.62 46.3842 99.56 46.9242 99.44C47.4842 99.3 47.9642 99.08 48.3642 98.78C48.7642 98.46 49.0742 98.04 49.2942 97.52C49.5142 96.98 49.6242 96.31 49.6242 95.51C49.6242 94.71 49.5042 94.07 49.2642 93.59C49.0442 93.09 48.7042 92.71 48.2442 92.45C47.8042 92.19 47.2442 92.02 46.5642 91.94C45.8842 91.84 45.0942 91.79 44.1942 91.79H42.3342V99.62ZM56.9154 89.54H59.4354V107.6H68.7354V110H56.9154V89.54ZM77.7361 89.54H80.8561L87.8761 110H85.2661L83.4661 104.54H75.1561L73.3261 110H70.7161L77.7361 89.54ZM82.6561 102.14L79.3561 91.94H79.2661L75.9361 102.14H82.6561ZM95.0262 102.56L88.4862 89.54H91.2762L96.2862 99.47L101.326 89.54H104.116L97.5762 102.56V110H95.0262V102.56ZM108.014 89.54H120.554V91.85H110.534V98.39H119.834V100.64H110.534V107.69H120.854V110H108.014V89.54ZM125.847 89.54H130.887C131.987 89.54 132.987 89.64 133.887 89.84C134.807 90.02 135.587 90.34 136.227 90.8C136.867 91.24 137.357 91.83 137.697 92.57C138.037 93.31 138.207 94.24 138.207 95.36C138.187 96.6 137.977 97.61 137.577 98.39C137.177 99.15 136.687 99.77 136.107 100.25C135.527 100.71 134.857 101.05 134.097 101.27V101.33C134.177 101.41 134.297 101.56 134.457 101.78C134.637 101.98 134.787 102.16 134.907 102.32L140.697 110H137.727L131.787 101.87H128.367V110H125.847V89.54ZM135.657 95.78C135.657 94.94 135.547 94.26 135.327 93.74C135.127 93.2 134.817 92.79 134.397 92.51C133.997 92.23 133.497 92.04 132.897 91.94C132.297 91.84 131.617 91.79 130.857 91.79H128.367V99.62H131.337C132.117 99.62 132.777 99.52 133.317 99.32C133.857 99.12 134.297 98.85 134.637 98.51C134.977 98.15 135.227 97.74 135.387 97.28C135.547 96.82 135.637 96.32 135.657 95.78ZM150.526 108.86C152.166 107.56 153.636 106.29 154.936 105.05C155.496 104.53 156.036 103.99 156.556 103.43C157.096 102.87 157.576 102.32 157.996 101.78C158.416 101.24 158.746 100.73 158.986 100.25C159.246 99.75 159.376 99.3 159.376 98.9C159.376 98.26 159.166 97.74 158.746 97.34C158.346 96.92 157.546 96.71 156.346 96.71C155.726 96.71 155.126 96.76 154.546 96.86C153.966 96.96 153.446 97.06 152.986 97.16C152.446 97.3 151.926 97.45 151.426 97.61L150.706 95.69C151.226 95.49 151.816 95.31 152.476 95.15C153.016 95.01 153.646 94.89 154.366 94.79C155.106 94.67 155.886 94.61 156.706 94.61C157.366 94.61 158.006 94.68 158.626 94.82C159.266 94.94 159.826 95.16 160.306 95.48C160.806 95.78 161.196 96.19 161.476 96.71C161.776 97.23 161.926 97.89 161.926 98.69C161.926 99.15 161.826 99.64 161.626 100.16C161.426 100.66 161.166 101.17 160.846 101.69C160.546 102.19 160.186 102.7 159.766 103.22C159.366 103.72 158.956 104.2 158.536 104.66C157.556 105.74 156.436 106.81 155.176 107.87C155.656 107.85 156.156 107.83 156.676 107.81C157.136 107.79 157.656 107.78 158.236 107.78C158.836 107.76 159.456 107.75 160.096 107.75H162.376V110H150.526V108.86Z"/>
</mask>
<path d="M39.8142 89.54H44.5242C47.1242 89.54 49.0442 90 50.2842 90.92C51.5442 91.84 52.1742 93.39 52.1742 95.57C52.1742 96.77 51.9442 97.77 51.4842 98.57C51.0242 99.37 50.4442 100.02 49.7442 100.52C49.0642 101 48.3242 101.35 47.5242 101.57C46.7242 101.77 45.9842 101.87 45.3042 101.87H42.3342V110H39.8142V89.54ZM42.3342 99.62H45.0942C45.7742 99.62 46.3842 99.56 46.9242 99.44C47.4842 99.3 47.9642 99.08 48.3642 98.78C48.7642 98.46 49.0742 98.04 49.2942 97.52C49.5142 96.98 49.6242 96.31 49.6242 95.51C49.6242 94.71 49.5042 94.07 49.2642 93.59C49.0442 93.09 48.7042 92.71 48.2442 92.45C47.8042 92.19 47.2442 92.02 46.5642 91.94C45.8842 91.84 45.0942 91.79 44.1942 91.79H42.3342V99.62ZM56.9154 89.54H59.4354V107.6H68.7354V110H56.9154V89.54ZM77.7361 89.54H80.8561L87.8761 110H85.2661L83.4661 104.54H75.1561L73.3261 110H70.7161L77.7361 89.54ZM82.6561 102.14L79.3561 91.94H79.2661L75.9361 102.14H82.6561ZM95.0262 102.56L88.4862 89.54H91.2762L96.2862 99.47L101.326 89.54H104.116L97.5762 102.56V110H95.0262V102.56ZM108.014 89.54H120.554V91.85H110.534V98.39H119.834V100.64H110.534V107.69H120.854V110H108.014V89.54ZM125.847 89.54H130.887C131.987 89.54 132.987 89.64 133.887 89.84C134.807 90.02 135.587 90.34 136.227 90.8C136.867 91.24 137.357 91.83 137.697 92.57C138.037 93.31 138.207 94.24 138.207 95.36C138.187 96.6 137.977 97.61 137.577 98.39C137.177 99.15 136.687 99.77 136.107 100.25C135.527 100.71 134.857 101.05 134.097 101.27V101.33C134.177 101.41 134.297 101.56 134.457 101.78C134.637 101.98 134.787 102.16 134.907 102.32L140.697 110H137.727L131.787 101.87H128.367V110H125.847V89.54ZM135.657 95.78C135.657 94.94 135.547 94.26 135.327 93.74C135.127 93.2 134.817 92.79 134.397 92.51C133.997 92.23 133.497 92.04 132.897 91.94C132.297 91.84 131.617 91.79 130.857 91.79H128.367V99.62H131.337C132.117 99.62 132.777 99.52 133.317 99.32C133.857 99.12 134.297 98.85 134.637 98.51C134.977 98.15 135.227 97.74 135.387 97.28C135.547 96.82 135.637 96.32 135.657 95.78ZM150.526 108.86C152.166 107.56 153.636 106.29 154.936 105.05C155.496 104.53 156.036 103.99 156.556 103.43C157.096 102.87 157.576 102.32 157.996 101.78C158.416 101.24 158.746 100.73 158.986 100.25C159.246 99.75 159.376 99.3 159.376 98.9C159.376 98.26 159.166 97.74 158.746 97.34C158.346 96.92 157.546 96.71 156.346 96.71C155.726 96.71 155.126 96.76 154.546 96.86C153.966 96.96 153.446 97.06 152.986 97.16C152.446 97.3 151.926 97.45 151.426 97.61L150.706 95.69C151.226 95.49 151.816 95.31 152.476 95.15C153.016 95.01 153.646 94.89 154.366 94.79C155.106 94.67 155.886 94.61 156.706 94.61C157.366 94.61 158.006 94.68 158.626 94.82C159.266 94.94 159.826 95.16 160.306 95.48C160.806 95.78 161.196 96.19 161.476 96.71C161.776 97.23 161.926 97.89 161.926 98.69C161.926 99.15 161.826 99.64 161.626 100.16C161.426 100.66 161.166 101.17 160.846 101.69C160.546 102.19 160.186 102.7 159.766 103.22C159.366 103.72 158.956 104.2 158.536 104.66C157.556 105.74 156.436 106.81 155.176 107.87C155.656 107.85 156.156 107.83 156.676 107.81C157.136 107.79 157.656 107.78 158.236 107.78C158.836 107.76 159.456 107.75 160.096 107.75H162.376V110H150.526V108.86Z" fill="black"/>
<path d="M39.8142 89.54V87.54H37.8142V89.54H39.8142ZM50.2842 90.92L49.0925 92.5262L49.0987 92.5307L49.1048 92.5353L50.2842 90.92ZM51.4842 98.57L53.218 99.5669V99.5669L51.4842 98.57ZM49.7442 100.52L50.8976 102.154L50.9067 102.147L49.7442 100.52ZM47.5242 101.57L48.0093 103.51L48.032 103.505L48.0545 103.498L47.5242 101.57ZM42.3342 101.87V99.87H40.3342V101.87H42.3342ZM42.3342 110V112H44.3342V110H42.3342ZM39.8142 110H37.8142V112H39.8142V110ZM42.3342 99.62H40.3342V101.62H42.3342V99.62ZM46.9242 99.44L47.3581 101.392L47.3838 101.387L47.4093 101.38L46.9242 99.44ZM48.3642 98.78L49.5642 100.38L49.5892 100.361L49.6136 100.342L48.3642 98.78ZM49.2942 97.52L51.1362 98.2993L51.1414 98.287L51.1464 98.2746L49.2942 97.52ZM49.2642 93.59L47.4336 94.3955L47.4534 94.4405L47.4754 94.4844L49.2642 93.59ZM48.2442 92.45L47.2268 94.1719L47.2433 94.1816L47.2601 94.1911L48.2442 92.45ZM46.5642 91.94L46.2732 93.9187L46.3018 93.9229L46.3305 93.9263L46.5642 91.94ZM42.3342 91.79V89.79H40.3342V91.79H42.3342ZM39.8142 89.54V91.54H44.5242V89.54V87.54H39.8142V89.54ZM44.5242 89.54V91.54C46.9607 91.54 48.3624 91.9845 49.0925 92.5262L50.2842 90.92L51.4759 89.3138C49.726 88.0155 47.2878 87.54 44.5242 87.54V89.54ZM50.2842 90.92L49.1048 92.5353C49.6632 92.943 50.1742 93.7568 50.1742 95.57H52.1742H54.1742C54.1742 93.0232 53.4252 90.737 51.4636 89.3047L50.2842 90.92ZM52.1742 95.57H50.1742C50.1742 96.5226 49.9912 97.1543 49.7504 97.5731L51.4842 98.57L53.218 99.5669C53.8972 98.3857 54.1742 97.0174 54.1742 95.57H52.1742ZM51.4842 98.57L49.7504 97.5731C49.4228 98.1427 49.0316 98.5712 48.5817 98.8925L49.7442 100.52L50.9067 102.147C51.8568 101.469 52.6256 100.597 53.218 99.5669L51.4842 98.57ZM49.7442 100.52L48.5909 98.8861C48.0993 99.233 47.57 99.4832 46.9939 99.6416L47.5242 101.57L48.0545 103.498C49.0784 103.217 50.0291 102.767 50.8976 102.154L49.7442 100.52ZM47.5242 101.57L47.0391 99.6297C46.3655 99.7981 45.7904 99.87 45.3042 99.87V101.87V103.87C46.178 103.87 47.083 103.742 48.0093 103.51L47.5242 101.57ZM45.3042 101.87V99.87H42.3342V101.87V103.87H45.3042V101.87ZM42.3342 101.87H40.3342V110H42.3342H44.3342V101.87H42.3342ZM42.3342 110V108H39.8142V110V112H42.3342V110ZM39.8142 110H41.8142V89.54H39.8142H37.8142V110H39.8142ZM42.3342 99.62V101.62H45.0942V99.62V97.62H42.3342V99.62ZM45.0942 99.62V101.62C45.8883 101.62 46.6476 101.55 47.3581 101.392L46.9242 99.44L46.4904 97.4876C46.1208 97.5697 45.6601 97.62 45.0942 97.62V99.62ZM46.9242 99.44L47.4093 101.38C48.1883 101.186 48.9206 100.863 49.5642 100.38L48.3642 98.78L47.1642 97.18C47.0078 97.2973 46.7801 97.4145 46.4391 97.4997L46.9242 99.44ZM48.3642 98.78L49.6136 100.342C50.2988 99.7935 50.8002 99.0933 51.1362 98.2993L49.2942 97.52L47.4523 96.7407C47.3482 96.9867 47.2296 97.1265 47.1148 97.2183L48.3642 98.78ZM49.2942 97.52L51.1464 98.2746C51.493 97.4238 51.6242 96.4787 51.6242 95.51H49.6242H47.6242C47.6242 96.1413 47.5354 96.5362 47.442 96.7654L49.2942 97.52ZM49.6242 95.51H51.6242C51.6242 94.5393 51.4833 93.5559 51.0531 92.6956L49.2642 93.59L47.4754 94.4844C47.5252 94.5841 47.6242 94.8807 47.6242 95.51H49.6242ZM49.2642 93.59L51.0948 92.7845C50.7073 91.9038 50.0775 91.1888 49.2283 90.7089L48.2442 92.45L47.2601 94.1911C47.331 94.2312 47.3811 94.2762 47.4336 94.3955L49.2642 93.59ZM48.2442 92.45L49.2617 90.7281C48.5149 90.2869 47.6657 90.0558 46.7979 89.9537L46.5642 91.94L46.3305 93.9263C46.8228 93.9842 47.0935 94.0931 47.2268 94.1719L48.2442 92.45ZM46.5642 91.94L46.8552 89.9613C46.0547 89.8436 45.1636 89.79 44.1942 89.79V91.79V93.79C45.0248 93.79 45.7138 93.8364 46.2732 93.9187L46.5642 91.94ZM44.1942 91.79V89.79H42.3342V91.79V93.79H44.1942V91.79ZM42.3342 91.79H40.3342V99.62H42.3342H44.3342V91.79H42.3342ZM56.9154 89.54V87.54H54.9154V89.54H56.9154ZM59.4354 89.54H61.4354V87.54H59.4354V89.54ZM59.4354 107.6H57.4354V109.6H59.4354V107.6ZM68.7354 107.6H70.7354V105.6H68.7354V107.6ZM68.7354 110V112H70.7354V110H68.7354ZM56.9154 110H54.9154V112H56.9154V110ZM56.9154 89.54V91.54H59.4354V89.54V87.54H56.9154V89.54ZM59.4354 89.54H57.4354V107.6H59.4354H61.4354V89.54H59.4354ZM59.4354 107.6V109.6H68.7354V107.6V105.6H59.4354V107.6ZM68.7354 107.6H66.7354V110H68.7354H70.7354V107.6H68.7354ZM68.7354 110V108H56.9154V110V112H68.7354V110ZM56.9154 110H58.9154V89.54H56.9154H54.9154V110H56.9154ZM77.7361 89.54V87.54H76.3079L75.8443 88.8909L77.7361 89.54ZM80.8561 89.54L82.7478 88.8909L82.2843 87.54H80.8561V89.54ZM87.8761 110V112H90.6768L89.7678 109.351L87.8761 110ZM85.2661 110L83.3666 110.626L83.8196 112H85.2661V110ZM83.4661 104.54L85.3655 103.914L84.9126 102.54H83.4661V104.54ZM75.1561 104.54V102.54H73.7171L73.2598 103.904L75.1561 104.54ZM73.3261 110V112H74.7651L75.2224 110.636L73.3261 110ZM70.7161 110L68.8243 109.351L67.9154 112H70.7161V110ZM82.6561 102.14V104.14H85.4052L84.559 101.524L82.6561 102.14ZM79.3561 91.94L81.259 91.3244L80.8111 89.94H79.3561V91.94ZM79.2661 91.94V89.94H77.8151L77.3648 91.3193L79.2661 91.94ZM75.9361 102.14L74.0348 101.519L73.1793 104.14H75.9361V102.14ZM77.7361 89.54V91.54H80.8561V89.54V87.54H77.7361V89.54ZM80.8561 89.54L78.9643 90.1891L85.9843 110.649L87.8761 110L89.7678 109.351L82.7478 88.8909L80.8561 89.54ZM87.8761 110V108H85.2661V110V112H87.8761V110ZM85.2661 110L87.1655 109.374L85.3655 103.914L83.4661 104.54L81.5667 105.166L83.3666 110.626L85.2661 110ZM83.4661 104.54V102.54H75.1561V104.54V106.54H83.4661V104.54ZM75.1561 104.54L73.2598 103.904L71.4298 109.364L73.3261 110L75.2224 110.636L77.0524 105.176L75.1561 104.54ZM73.3261 110V108H70.7161V110V112H73.3261V110ZM70.7161 110L72.6078 110.649L79.6278 90.1891L77.7361 89.54L75.8443 88.8909L68.8243 109.351L70.7161 110ZM82.6561 102.14L84.559 101.524L81.259 91.3244L79.3561 91.94L77.4532 92.5556L80.7532 102.756L82.6561 102.14ZM79.3561 91.94V89.94H79.2661V91.94V93.94H79.3561V91.94ZM79.2661 91.94L77.3648 91.3193L74.0348 101.519L75.9361 102.14L77.8373 102.761L81.1673 92.5607L79.2661 91.94ZM75.9361 102.14V104.14H82.6561V102.14V100.14H75.9361V102.14ZM95.0262 102.56H97.0262V102.086L96.8134 101.662L95.0262 102.56ZM88.4862 89.54V87.54H85.2434L86.699 90.4377L88.4862 89.54ZM91.2762 89.54L93.0618 88.6391L92.5072 87.54H91.2762V89.54ZM96.2862 99.47L94.5006 100.371L96.2808 103.899L98.0696 100.375L96.2862 99.47ZM101.326 89.54V87.54H100.098L99.5427 88.6348L101.326 89.54ZM104.116 89.54L105.903 90.4377L107.359 87.54H104.116V89.54ZM97.5762 102.56L95.789 101.662L95.5762 102.086V102.56H97.5762ZM97.5762 110V112H99.5762V110H97.5762ZM95.0262 110H93.0262V112H95.0262V110ZM95.0262 102.56L96.8134 101.662L90.2734 88.6423L88.4862 89.54L86.699 90.4377L93.239 103.458L95.0262 102.56ZM88.4862 89.54V91.54H91.2762V89.54V87.54H88.4862V89.54ZM91.2762 89.54L89.4906 90.4409L94.5006 100.371L96.2862 99.47L98.0718 98.5691L93.0618 88.6391L91.2762 89.54ZM96.2862 99.47L98.0696 100.375L103.11 90.4452L101.326 89.54L99.5427 88.6348L94.5027 98.5648L96.2862 99.47ZM101.326 89.54V91.54H104.116V89.54V87.54H101.326V89.54ZM104.116 89.54L102.329 88.6423L95.789 101.662L97.5762 102.56L99.3634 103.458L105.903 90.4377L104.116 89.54ZM97.5762 102.56H95.5762V110H97.5762H99.5762V102.56H97.5762ZM97.5762 110V108H95.0262V110V112H97.5762V110ZM95.0262 110H97.0262V102.56H95.0262H93.0262V110H95.0262ZM108.014 89.54V87.54H106.014V89.54H108.014ZM120.554 89.54H122.554V87.54H120.554V89.54ZM120.554 91.85V93.85H122.554V91.85H120.554ZM110.534 91.85V89.85H108.534V91.85H110.534ZM110.534 98.39H108.534V100.39H110.534V98.39ZM119.834 98.39H121.834V96.39H119.834V98.39ZM119.834 100.64V102.64H121.834V100.64H119.834ZM110.534 100.64V98.64H108.534V100.64H110.534ZM110.534 107.69H108.534V109.69H110.534V107.69ZM120.854 107.69H122.854V105.69H120.854V107.69ZM120.854 110V112H122.854V110H120.854ZM108.014 110H106.014V112H108.014V110ZM108.014 89.54V91.54H120.554V89.54V87.54H108.014V89.54ZM120.554 89.54H118.554V91.85H120.554H122.554V89.54H120.554ZM120.554 91.85V89.85H110.534V91.85V93.85H120.554V91.85ZM110.534 91.85H108.534V98.39H110.534H112.534V91.85H110.534ZM110.534 98.39V100.39H119.834V98.39V96.39H110.534V98.39ZM119.834 98.39H117.834V100.64H119.834H121.834V98.39H119.834ZM119.834 100.64V98.64H110.534V100.64V102.64H119.834V100.64ZM110.534 100.64H108.534V107.69H110.534H112.534V100.64H110.534ZM110.534 107.69V109.69H120.854V107.69V105.69H110.534V107.69ZM120.854 107.69H118.854V110H120.854H122.854V107.69H120.854ZM120.854 110V108H108.014V110V112H120.854V110ZM108.014 110H110.014V89.54H108.014H106.014V110H108.014ZM125.847 89.54V87.54H123.847V89.54H125.847ZM133.887 89.84L133.454 91.7924L133.478 91.7979L133.503 91.8028L133.887 89.84ZM136.227 90.8L135.06 92.424L135.077 92.4362L135.094 92.4481L136.227 90.8ZM138.207 95.36L140.207 95.3923L140.207 95.3761V95.36H138.207ZM137.577 98.39L139.347 99.3215L139.352 99.3121L139.357 99.3026L137.577 98.39ZM136.107 100.25L137.35 101.817L137.367 101.804L137.383 101.791L136.107 100.25ZM134.097 101.27L133.541 99.3489L132.097 99.7668V101.27H134.097ZM134.097 101.33H132.097V102.158L132.683 102.744L134.097 101.33ZM134.457 101.78L132.84 102.956L132.901 103.041L132.971 103.118L134.457 101.78ZM134.907 102.32L133.307 103.52L133.31 103.524L134.907 102.32ZM140.697 110V112H144.71L142.294 108.796L140.697 110ZM137.727 110L136.113 111.18L136.712 112H137.727V110ZM131.787 101.87L133.402 100.69L132.803 99.87H131.787V101.87ZM128.367 101.87V99.87H126.367V101.87H128.367ZM128.367 110V112H130.367V110H128.367ZM125.847 110H123.847V112H125.847V110ZM135.657 95.78L137.656 95.854L137.657 95.817V95.78H135.657ZM135.327 93.74L133.452 94.4346L133.468 94.4773L133.485 94.5193L135.327 93.74ZM134.397 92.51L133.25 94.1485L133.269 94.1615L133.288 94.1741L134.397 92.51ZM132.897 91.94L133.226 89.9672V89.9672L132.897 91.94ZM128.367 91.79V89.79H126.367V91.79H128.367ZM128.367 99.62H126.367V101.62H128.367V99.62ZM133.317 99.32L134.012 101.195V101.195L133.317 99.32ZM134.637 98.51L136.052 99.9242L136.072 99.904L136.091 99.8832L134.637 98.51ZM135.387 97.28L133.498 96.623V96.623L135.387 97.28ZM125.847 89.54V91.54H130.887V89.54V87.54H125.847V89.54ZM130.887 89.54V91.54C131.869 91.54 132.72 91.6294 133.454 91.7924L133.887 89.84L134.321 87.8876C133.255 87.6506 132.106 87.54 130.887 87.54V89.54ZM133.887 89.84L133.503 91.8028C134.194 91.9379 134.694 92.1608 135.06 92.424L136.227 90.8L137.395 89.176C136.481 88.5192 135.421 88.1021 134.271 87.8772L133.887 89.84ZM136.227 90.8L135.094 92.4481C135.422 92.6736 135.683 92.9762 135.88 93.405L137.697 92.57L139.515 91.735C139.032 90.6838 138.312 89.8064 137.36 89.1519L136.227 90.8ZM137.697 92.57L135.88 93.405C136.063 93.8042 136.207 94.4265 136.207 95.36H138.207H140.207C140.207 94.0535 140.011 92.8158 139.515 91.735L137.697 92.57ZM138.207 95.36L136.208 95.3277C136.191 96.3801 136.012 97.0591 135.798 97.4774L137.577 98.39L139.357 99.3026C139.943 98.1609 140.184 96.8199 140.207 95.3923L138.207 95.36ZM137.577 98.39L135.808 97.4585C135.513 98.0174 135.182 98.4197 134.832 98.7092L136.107 100.25L137.383 101.791C138.193 101.12 138.841 100.283 139.347 99.3215L137.577 98.39ZM136.107 100.25L134.865 98.683C134.502 98.9706 134.069 99.1961 133.541 99.3489L134.097 101.27L134.654 103.191C135.646 102.904 136.553 102.449 137.35 101.817L136.107 100.25ZM134.097 101.27H132.097V101.33H134.097H136.097V101.27H134.097ZM134.097 101.33L132.683 102.744C132.661 102.722 132.651 102.711 132.656 102.715C132.659 102.719 132.669 102.731 132.686 102.752C132.721 102.795 132.771 102.862 132.84 102.956L134.457 101.78L136.075 100.604C135.915 100.384 135.714 100.118 135.512 99.9158L134.097 101.33ZM134.457 101.78L132.971 103.118C133.124 103.288 133.233 103.421 133.307 103.52L134.907 102.32L136.507 101.12C136.342 100.899 136.151 100.672 135.944 100.442L134.457 101.78ZM134.907 102.32L133.31 103.524L139.1 111.204L140.697 110L142.294 108.796L136.504 101.116L134.907 102.32ZM140.697 110V108H137.727V110V112H140.697V110ZM137.727 110L139.342 108.82L133.402 100.69L131.787 101.87L130.173 103.05L136.113 111.18L137.727 110ZM131.787 101.87V99.87H128.367V101.87V103.87H131.787V101.87ZM128.367 101.87H126.367V110H128.367H130.367V101.87H128.367ZM128.367 110V108H125.847V110V112H128.367V110ZM125.847 110H127.847V89.54H125.847H123.847V110H125.847ZM135.657 95.78H137.657C137.657 94.791 137.532 93.8171 137.169 92.9607L135.327 93.74L133.485 94.5193C133.563 94.7029 133.657 95.089 133.657 95.78H135.657ZM135.327 93.74L137.203 93.0454C136.878 92.1674 136.326 91.3922 135.507 90.8459L134.397 92.51L133.288 94.1741C133.309 94.1878 133.377 94.2326 133.452 94.4346L135.327 93.74ZM134.397 92.51L135.544 90.8715C134.847 90.3837 134.05 90.1045 133.226 89.9672L132.897 91.94L132.569 93.9128C132.945 93.9755 133.147 94.0763 133.25 94.1485L134.397 92.51ZM132.897 91.94L133.226 89.9672C132.495 89.8453 131.702 89.79 130.857 89.79V91.79V93.79C131.533 93.79 132.1 93.8347 132.569 93.9128L132.897 91.94ZM130.857 91.79V89.79H128.367V91.79V93.79H130.857V91.79ZM128.367 91.79H126.367V99.62H128.367H130.367V91.79H128.367ZM128.367 99.62V101.62H131.337V99.62V97.62H128.367V99.62ZM131.337 99.62V101.62C132.276 101.62 133.186 101.501 134.012 101.195L133.317 99.32L132.623 97.4445C132.369 97.5387 131.959 97.62 131.337 97.62V99.62ZM133.317 99.32L134.012 101.195C134.77 100.915 135.472 100.504 136.052 99.9242L134.637 98.51L133.223 97.0958C133.123 97.1957 132.945 97.3251 132.623 97.4445L133.317 99.32ZM134.637 98.51L136.091 99.8832C136.622 99.3214 137.022 98.6684 137.276 97.937L135.387 97.28L133.498 96.623C133.433 96.8116 133.333 96.9786 133.183 97.1368L134.637 98.51ZM135.387 97.28L137.276 97.937C137.508 97.2699 137.629 96.5712 137.656 95.854L135.657 95.78L133.659 95.706C133.645 96.0688 133.586 96.3701 133.498 96.623L135.387 97.28ZM150.526 108.86L149.284 107.293L148.526 107.893V108.86H150.526ZM154.936 105.05L153.575 103.584L153.565 103.594L153.556 103.603L154.936 105.05ZM156.556 103.43L155.116 102.042L155.103 102.055L155.09 102.069L156.556 103.43ZM158.986 100.25L157.212 99.3273L157.204 99.3414L157.197 99.3556L158.986 100.25ZM158.746 97.34L157.298 98.7193L157.331 98.7546L157.367 98.7883L158.746 97.34ZM154.546 96.86L154.206 94.8891L154.546 96.86ZM152.986 97.16L152.561 95.2056L152.522 95.2141L152.484 95.224L152.986 97.16ZM151.426 97.61L149.553 98.3122L150.222 100.095L152.035 99.5148L151.426 97.61ZM150.706 95.69L149.988 93.8233L148.137 94.5353L148.833 96.3922L150.706 95.69ZM152.476 95.15L152.947 97.0937L152.963 97.09L152.978 97.086L152.476 95.15ZM154.366 94.79L154.641 96.771L154.664 96.7679L154.686 96.7642L154.366 94.79ZM158.626 94.82L158.185 96.7709L158.221 96.779L158.257 96.7857L158.626 94.82ZM160.306 95.48L159.197 97.1441L159.236 97.1705L159.277 97.195L160.306 95.48ZM161.476 96.71L159.715 97.6582L159.729 97.684L159.744 97.7094L161.476 96.71ZM161.626 100.16L163.483 100.903L163.488 100.89L163.493 100.878L161.626 100.16ZM160.846 101.69L159.143 100.642L159.137 100.651L159.131 100.661L160.846 101.69ZM159.766 103.22L158.21 101.963L158.204 101.971L159.766 103.22ZM158.536 104.66L157.059 103.311L157.055 103.316L158.536 104.66ZM155.176 107.87L153.888 106.34L149.404 110.112L155.259 109.868L155.176 107.87ZM156.676 107.81L156.753 109.809L156.763 109.808L156.676 107.81ZM158.236 107.78V109.78H158.269L158.303 109.779L158.236 107.78ZM162.376 107.75H164.376V105.75H162.376V107.75ZM162.376 110V112H164.376V110H162.376ZM150.526 110H148.526V112H150.526V110ZM150.526 108.86L151.768 110.427C153.449 109.095 154.966 107.786 156.316 106.497L154.936 105.05L153.556 103.603C152.306 104.794 150.883 106.025 149.284 107.293L150.526 108.86ZM154.936 105.05L156.297 106.516C156.893 105.962 157.468 105.387 158.022 104.791L156.556 103.43L155.09 102.069C154.604 102.593 154.099 103.098 153.575 103.584L154.936 105.05ZM156.556 103.43L157.996 104.818C158.578 104.214 159.106 103.611 159.575 103.008L157.996 101.78L156.417 100.552C156.046 101.029 155.614 101.526 155.116 102.042L156.556 103.43ZM157.996 101.78L159.575 103.008C160.055 102.391 160.462 101.769 160.775 101.144L158.986 100.25L157.197 99.3556C157.029 99.6908 156.777 100.089 156.417 100.552L157.996 101.78ZM158.986 100.25L160.76 101.173C161.112 100.497 161.376 99.7254 161.376 98.9H159.376H157.376C157.376 98.8746 157.38 99.0027 157.212 99.3273L158.986 100.25ZM159.376 98.9H161.376C161.376 97.7753 160.985 96.7103 160.125 95.8917L158.746 97.34L157.367 98.7883C157.375 98.7958 157.375 98.7973 157.371 98.7925C157.368 98.7875 157.365 98.7822 157.364 98.7789C157.36 98.7697 157.376 98.8007 157.376 98.9H159.376ZM158.746 97.34L160.194 95.9607C159.651 95.3908 158.967 95.0941 158.354 94.933C157.732 94.7698 157.048 94.71 156.346 94.71V96.71V98.71C156.844 98.71 157.16 98.7552 157.338 98.802C157.524 98.8509 157.44 98.8692 157.298 98.7193L158.746 97.34ZM156.346 96.71V94.71C155.618 94.71 154.904 94.7687 154.206 94.8891L154.546 96.86L154.886 98.8309C155.348 98.7513 155.834 98.71 156.346 98.71V96.71ZM154.546 96.86L154.206 94.8891C153.604 94.9928 153.055 95.0982 152.561 95.2056L152.986 97.16L153.411 99.1144C153.837 99.0218 154.328 98.9272 154.886 98.8309L154.546 96.86ZM152.986 97.16L152.484 95.224C151.91 95.3728 151.354 95.5331 150.816 95.7052L151.426 97.61L152.035 99.5148C152.498 99.3669 152.982 99.2272 153.488 99.096L152.986 97.16ZM151.426 97.61L153.299 96.9078L152.579 94.9878L150.706 95.69L148.833 96.3922L149.553 98.3122L151.426 97.61ZM150.706 95.69L151.424 97.5567C151.848 97.3935 152.354 97.2376 152.947 97.0937L152.476 95.15L152.005 93.2063C151.278 93.3824 150.604 93.5865 149.988 93.8233L150.706 95.69ZM152.476 95.15L152.978 97.086C153.425 96.9701 153.976 96.8634 154.641 96.771L154.366 94.79L154.091 92.809C153.316 92.9166 152.607 93.0499 151.974 93.214L152.476 95.15ZM154.366 94.79L154.686 96.7642C155.311 96.6629 155.983 96.61 156.706 96.61V94.61V92.61C155.789 92.61 154.901 92.6771 154.046 92.8158L154.366 94.79ZM156.706 94.61V96.61C157.223 96.61 157.715 96.6648 158.185 96.7709L158.626 94.82L159.066 92.8691C158.296 92.6952 157.508 92.61 156.706 92.61V94.61ZM158.626 94.82L158.257 96.7857C158.667 96.8625 158.968 96.9916 159.197 97.1441L160.306 95.48L161.415 93.8159C160.684 93.3284 159.865 93.0175 158.995 92.8543L158.626 94.82ZM160.306 95.48L159.277 97.195C159.464 97.3074 159.603 97.4507 159.715 97.6582L161.476 96.71L163.237 95.7618C162.789 94.9293 162.148 94.2526 161.335 93.765L160.306 95.48ZM161.476 96.71L159.744 97.7094C159.819 97.8408 159.926 98.128 159.926 98.69H161.926H163.926C163.926 97.652 163.733 96.6192 163.208 95.7106L161.476 96.71ZM161.926 98.69H159.926C159.926 98.8587 159.889 99.1041 159.759 99.442L161.626 100.16L163.493 100.878C163.763 100.176 163.926 99.4413 163.926 98.69H161.926ZM161.626 100.16L159.769 99.4172C159.617 99.7983 159.411 100.206 159.143 100.642L160.846 101.69L162.549 102.738C162.921 102.134 163.235 101.522 163.483 100.903L161.626 100.16ZM160.846 101.69L159.131 100.661C158.885 101.071 158.58 101.505 158.21 101.963L159.766 103.22L161.322 104.477C161.792 103.895 162.207 103.309 162.561 102.719L160.846 101.69ZM159.766 103.22L158.204 101.971C157.831 102.438 157.449 102.884 157.059 103.311L158.536 104.66L160.013 106.009C160.463 105.516 160.901 105.002 161.328 104.469L159.766 103.22ZM158.536 104.66L157.055 103.316C156.142 104.322 155.088 105.33 153.888 106.34L155.176 107.87L156.463 109.4C157.784 108.29 158.97 107.158 160.017 106.004L158.536 104.66ZM155.176 107.87L155.259 109.868C155.737 109.848 156.235 109.828 156.753 109.809L156.676 107.81L156.599 105.811C156.077 105.832 155.575 105.852 155.093 105.872L155.176 107.87ZM156.676 107.81L156.763 109.808C157.188 109.79 157.678 109.78 158.236 109.78V107.78V105.78C157.634 105.78 157.084 105.79 156.589 105.812L156.676 107.81ZM158.236 107.78L158.303 109.779C158.879 109.76 159.477 109.75 160.096 109.75V107.75V105.75C159.435 105.75 158.793 105.76 158.169 105.781L158.236 107.78ZM160.096 107.75V109.75H162.376V107.75V105.75H160.096V107.75ZM162.376 107.75H160.376V110H162.376H164.376V107.75H162.376ZM162.376 110V108H150.526V110V112H162.376V110ZM150.526 110H152.526V108.86H150.526H148.526V110H150.526Z" fill="black" mask="url(#path-2-outside-1_46_1101)"/>
</svg>
