<svg width="521" height="350" viewBox="0 0 521 350" fill="none" xmlns="http://www.w3.org/2000/svg">
<path d="M361.697 350V177.5H326.123L456.562 5L492.136 52.0455V22.25H539.568V114.773L551.426 130.455L587 177.5H551.426V350H361.697Z" fill="#FF5353"/>
<path d="M551.426 177.5H587L551.426 130.455M551.426 177.5V350H361.697V177.5H326.123L456.562 5L492.136 52.0455M551.426 177.5V130.455M492.136 52.0455V22.25H539.568V114.773M492.136 52.0455L539.568 114.773M539.568 114.773L551.426 130.455" stroke="black" stroke-width="5"/>
<path d="M145.212 350V200.133H110.16L238.687 50.266L273.74 91.1388V65.2527H320.477V145.636L332.161 159.26L367.214 200.133H332.161V350H145.212Z" fill="#FF5353"/>
<path d="M332.161 200.133H367.214L332.161 159.26M332.161 200.133V350H145.212V200.133H110.16L238.687 50.266L273.74 91.1388M332.161 200.133V159.26M273.74 91.1388V65.2527H320.477V145.636M273.74 91.1388L320.477 145.636M320.477 145.636L332.161 159.26" stroke="black" stroke-width="5"/>
<path d="M460.297 350V237.447H488.574L384.892 124.894L356.615 155.59V136.149H318.913V196.518L309.487 206.75L281.21 237.447H309.487V350H460.297Z" fill="#1FB25A"/>
<path d="M309.487 237.447H281.21L309.487 206.75M309.487 237.447V350H460.297V237.447H488.574L384.892 124.894L356.615 155.59M309.487 237.447V206.75M356.615 155.59V136.149H318.913V196.518M356.615 155.59L318.913 196.518M318.913 196.518L309.487 206.75" stroke="black" stroke-width="5"/>
<path d="M185.087 350V237.447H213.364L109.682 124.894L81.4049 155.59V136.149H43.7025V196.518L34.2769 206.75L6.00002 237.447H34.2769V350H185.087Z" fill="#1FB25A"/>
<path d="M34.2769 237.447H6.00002L34.2769 206.75M34.2769 237.447V350H185.087V237.447H213.364L109.682 124.894L81.4049 155.59M34.2769 237.447V206.75M81.4049 155.59V136.149H43.7025V196.518M81.4049 155.59L43.7025 196.518M43.7025 196.518L34.2769 206.75" stroke="black" stroke-width="5"/>
</svg>
