<svg width="200" height="200" viewBox="0 0 200 200" fill="none" xmlns="http://www.w3.org/2000/svg">
<rect x="2.5" y="2.5" width="195" height="195" rx="5.5" fill="#FFF300" fill-opacity="0.96" stroke="black" stroke-width="5"/>
<mask id="path-2-outside-1_46_1103" maskUnits="userSpaceOnUse" x="41" y="87" width="131" height="31" fill="black">
<rect fill="white" x="41" y="87" width="131" height="31"/>
<path d="M43.9959 89.54H48.7059C51.3059 89.54 53.2259 90 54.4659 90.92C55.7259 91.84 56.3559 93.39 56.3559 95.57C56.3559 96.77 56.1259 97.77 55.6659 98.57C55.2059 99.37 54.6259 100.02 53.9259 100.52C53.2459 101 52.5059 101.35 51.7059 101.57C50.9059 101.77 50.1659 101.87 49.4859 101.87H46.5159V110H43.9959V89.54ZM46.5159 99.62H49.2759C49.9559 99.62 50.5659 99.56 51.1059 99.44C51.6659 99.3 52.1459 99.08 52.5459 98.78C52.9459 98.46 53.2559 98.04 53.4759 97.52C53.6959 96.98 53.8059 96.31 53.8059 95.51C53.8059 94.71 53.6859 94.07 53.4459 93.59C53.2259 93.09 52.8859 92.71 52.4259 92.45C51.9859 92.19 51.4259 92.02 50.7459 91.94C50.0659 91.84 49.2759 91.79 48.3759 91.79H46.5159V99.62ZM61.097 89.54H63.617V107.6H72.917V110H61.097V89.54ZM81.9177 89.54H85.0377L92.0577 110H89.4477L87.6477 104.54H79.3377L77.5077 110H74.8977L81.9177 89.54ZM86.8377 102.14L83.5377 91.94H83.4477L80.1177 102.14H86.8377ZM99.2078 102.56L92.6678 89.54H95.4578L100.468 99.47L105.508 89.54H108.298L101.758 102.56V110H99.2078V102.56ZM112.195 89.54H124.735V91.85H114.715V98.39H124.015V100.64H114.715V107.69H125.035V110H112.195V89.54ZM130.029 89.54H135.069C136.169 89.54 137.169 89.64 138.069 89.84C138.989 90.02 139.769 90.34 140.409 90.8C141.049 91.24 141.539 91.83 141.879 92.57C142.219 93.31 142.389 94.24 142.389 95.36C142.369 96.6 142.159 97.61 141.759 98.39C141.359 99.15 140.869 99.77 140.289 100.25C139.709 100.71 139.039 101.05 138.279 101.27V101.33C138.359 101.41 138.479 101.56 138.639 101.78C138.819 101.98 138.969 102.16 139.089 102.32L144.879 110H141.909L135.969 101.87H132.549V110H130.029V89.54ZM139.839 95.78C139.839 94.94 139.729 94.26 139.509 93.74C139.309 93.2 138.999 92.79 138.579 92.51C138.179 92.23 137.679 92.04 137.079 91.94C136.479 91.84 135.799 91.79 135.039 91.79H132.549V99.62H135.519C136.299 99.62 136.959 99.52 137.499 99.32C138.039 99.12 138.479 98.85 138.819 98.51C139.159 98.15 139.409 97.74 139.569 97.28C139.729 96.82 139.819 96.32 139.839 95.78ZM156.958 108.02C157.658 108 158.368 107.98 159.088 107.96C159.708 107.94 160.378 107.93 161.098 107.93C161.818 107.91 162.518 107.9 163.198 107.9H165.058V104.75C165.058 103.67 165.058 102.71 165.058 101.87C165.078 101.03 165.098 100.32 165.118 99.74C165.138 99.06 165.168 98.46 165.208 97.94L156.958 108.02ZM153.898 108.38L165.058 94.91H167.458V107.9H169.558V110H167.458V115.85H165.058V110H154.048L153.898 108.38Z"/>
</mask>
<path d="M43.9959 89.54H48.7059C51.3059 89.54 53.2259 90 54.4659 90.92C55.7259 91.84 56.3559 93.39 56.3559 95.57C56.3559 96.77 56.1259 97.77 55.6659 98.57C55.2059 99.37 54.6259 100.02 53.9259 100.52C53.2459 101 52.5059 101.35 51.7059 101.57C50.9059 101.77 50.1659 101.87 49.4859 101.87H46.5159V110H43.9959V89.54ZM46.5159 99.62H49.2759C49.9559 99.62 50.5659 99.56 51.1059 99.44C51.6659 99.3 52.1459 99.08 52.5459 98.78C52.9459 98.46 53.2559 98.04 53.4759 97.52C53.6959 96.98 53.8059 96.31 53.8059 95.51C53.8059 94.71 53.6859 94.07 53.4459 93.59C53.2259 93.09 52.8859 92.71 52.4259 92.45C51.9859 92.19 51.4259 92.02 50.7459 91.94C50.0659 91.84 49.2759 91.79 48.3759 91.79H46.5159V99.62ZM61.097 89.54H63.617V107.6H72.917V110H61.097V89.54ZM81.9177 89.54H85.0377L92.0577 110H89.4477L87.6477 104.54H79.3377L77.5077 110H74.8977L81.9177 89.54ZM86.8377 102.14L83.5377 91.94H83.4477L80.1177 102.14H86.8377ZM99.2078 102.56L92.6678 89.54H95.4578L100.468 99.47L105.508 89.54H108.298L101.758 102.56V110H99.2078V102.56ZM112.195 89.54H124.735V91.85H114.715V98.39H124.015V100.64H114.715V107.69H125.035V110H112.195V89.54ZM130.029 89.54H135.069C136.169 89.54 137.169 89.64 138.069 89.84C138.989 90.02 139.769 90.34 140.409 90.8C141.049 91.24 141.539 91.83 141.879 92.57C142.219 93.31 142.389 94.24 142.389 95.36C142.369 96.6 142.159 97.61 141.759 98.39C141.359 99.15 140.869 99.77 140.289 100.25C139.709 100.71 139.039 101.05 138.279 101.27V101.33C138.359 101.41 138.479 101.56 138.639 101.78C138.819 101.98 138.969 102.16 139.089 102.32L144.879 110H141.909L135.969 101.87H132.549V110H130.029V89.54ZM139.839 95.78C139.839 94.94 139.729 94.26 139.509 93.74C139.309 93.2 138.999 92.79 138.579 92.51C138.179 92.23 137.679 92.04 137.079 91.94C136.479 91.84 135.799 91.79 135.039 91.79H132.549V99.62H135.519C136.299 99.62 136.959 99.52 137.499 99.32C138.039 99.12 138.479 98.85 138.819 98.51C139.159 98.15 139.409 97.74 139.569 97.28C139.729 96.82 139.819 96.32 139.839 95.78ZM156.958 108.02C157.658 108 158.368 107.98 159.088 107.96C159.708 107.94 160.378 107.93 161.098 107.93C161.818 107.91 162.518 107.9 163.198 107.9H165.058V104.75C165.058 103.67 165.058 102.71 165.058 101.87C165.078 101.03 165.098 100.32 165.118 99.74C165.138 99.06 165.168 98.46 165.208 97.94L156.958 108.02ZM153.898 108.38L165.058 94.91H167.458V107.9H169.558V110H167.458V115.85H165.058V110H154.048L153.898 108.38Z" fill="black"/>
<path d="M43.9959 89.54V87.54H41.9959V89.54H43.9959ZM54.4659 90.92L53.2742 92.5262L53.2803 92.5307L53.2865 92.5353L54.4659 90.92ZM55.6659 98.57L57.3997 99.5669V99.5669L55.6659 98.57ZM53.9259 100.52L55.0792 102.154L55.0883 102.147L53.9259 100.52ZM51.7059 101.57L52.1909 103.51L52.2136 103.505L52.2362 103.498L51.7059 101.57ZM46.5159 101.87V99.87H44.5159V101.87H46.5159ZM46.5159 110V112H48.5159V110H46.5159ZM43.9959 110H41.9959V112H43.9959V110ZM46.5159 99.62H44.5159V101.62H46.5159V99.62ZM51.1059 99.44L51.5397 101.392L51.5654 101.387L51.5909 101.38L51.1059 99.44ZM52.5459 98.78L53.7459 100.38L53.7709 100.361L53.7952 100.342L52.5459 98.78ZM53.4759 97.52L55.3178 98.2993L55.323 98.287L55.328 98.2746L53.4759 97.52ZM53.4459 93.59L51.6152 94.3955L51.635 94.4405L51.657 94.4844L53.4459 93.59ZM52.4259 92.45L51.4084 94.1719L51.425 94.1816L51.4417 94.1911L52.4259 92.45ZM50.7459 91.94L50.4549 93.9187L50.4835 93.9229L50.5122 93.9263L50.7459 91.94ZM46.5159 91.79V89.79H44.5159V91.79H46.5159ZM43.9959 89.54V91.54H48.7059V89.54V87.54H43.9959V89.54ZM48.7059 89.54V91.54C51.1423 91.54 52.544 91.9845 53.2742 92.5262L54.4659 90.92L55.6576 89.3138C53.9077 88.0155 51.4694 87.54 48.7059 87.54V89.54ZM54.4659 90.92L53.2865 92.5353C53.8448 92.943 54.3559 93.7568 54.3559 95.57H56.3559H58.3559C58.3559 93.0232 57.6069 90.737 55.6452 89.3047L54.4659 90.92ZM56.3559 95.57H54.3559C54.3559 96.5226 54.1728 97.1543 53.932 97.5731L55.6659 98.57L57.3997 99.5669C58.0789 98.3857 58.3559 97.0174 58.3559 95.57H56.3559ZM55.6659 98.57L53.932 97.5731C53.6045 98.1427 53.2132 98.5712 52.7634 98.8925L53.9259 100.52L55.0883 102.147C56.0385 101.469 56.8072 100.597 57.3997 99.5669L55.6659 98.57ZM53.9259 100.52L52.7725 98.8861C52.281 99.233 51.7517 99.4832 51.1755 99.6416L51.7059 101.57L52.2362 103.498C53.2601 103.217 54.2108 102.767 55.0792 102.154L53.9259 100.52ZM51.7059 101.57L51.2208 99.6297C50.5471 99.7981 49.9721 99.87 49.4859 99.87V101.87V103.87C50.3596 103.87 51.2646 103.742 52.1909 103.51L51.7059 101.57ZM49.4859 101.87V99.87H46.5159V101.87V103.87H49.4859V101.87ZM46.5159 101.87H44.5159V110H46.5159H48.5159V101.87H46.5159ZM46.5159 110V108H43.9959V110V112H46.5159V110ZM43.9959 110H45.9959V89.54H43.9959H41.9959V110H43.9959ZM46.5159 99.62V101.62H49.2759V99.62V97.62H46.5159V99.62ZM49.2759 99.62V101.62C50.0699 101.62 50.8292 101.55 51.5397 101.392L51.1059 99.44L50.672 97.4876C50.3025 97.5697 49.8418 97.62 49.2759 97.62V99.62ZM51.1059 99.44L51.5909 101.38C52.37 101.186 53.1022 100.863 53.7459 100.38L52.5459 98.78L51.3459 97.18C51.1895 97.2973 50.9618 97.4145 50.6208 97.4997L51.1059 99.44ZM52.5459 98.78L53.7952 100.342C54.4805 99.7935 54.9818 99.0933 55.3178 98.2993L53.4759 97.52L51.6339 96.7407C51.5299 96.9867 51.4112 97.1265 51.2965 97.2183L52.5459 98.78ZM53.4759 97.52L55.328 98.2746C55.6747 97.4238 55.8059 96.4787 55.8059 95.51H53.8059H51.8059C51.8059 96.1413 51.717 96.5362 51.6237 96.7654L53.4759 97.52ZM53.8059 95.51H55.8059C55.8059 94.5393 55.6649 93.5559 55.2347 92.6956L53.4459 93.59L51.657 94.4844C51.7068 94.5841 51.8059 94.8807 51.8059 95.51H53.8059ZM53.4459 93.59L55.2765 92.7845C54.889 91.9038 54.2591 91.1888 53.41 90.7089L52.4259 92.45L51.4417 94.1911C51.5126 94.2312 51.5627 94.2762 51.6152 94.3955L53.4459 93.59ZM52.4259 92.45L53.4433 90.7281C52.6966 90.2869 51.8473 90.0558 50.9795 89.9537L50.7459 91.94L50.5122 93.9263C51.0044 93.9842 51.2751 94.0931 51.4084 94.1719L52.4259 92.45ZM50.7459 91.94L51.0368 89.9613C50.2363 89.8436 49.3453 89.79 48.3759 89.79V91.79V93.79C49.2064 93.79 49.8954 93.8364 50.4549 93.9187L50.7459 91.94ZM48.3759 91.79V89.79H46.5159V91.79V93.79H48.3759V91.79ZM46.5159 91.79H44.5159V99.62H46.5159H48.5159V91.79H46.5159ZM61.097 89.54V87.54H59.097V89.54H61.097ZM63.617 89.54H65.617V87.54H63.617V89.54ZM63.617 107.6H61.617V109.6H63.617V107.6ZM72.917 107.6H74.917V105.6H72.917V107.6ZM72.917 110V112H74.917V110H72.917ZM61.097 110H59.097V112H61.097V110ZM61.097 89.54V91.54H63.617V89.54V87.54H61.097V89.54ZM63.617 89.54H61.617V107.6H63.617H65.617V89.54H63.617ZM63.617 107.6V109.6H72.917V107.6V105.6H63.617V107.6ZM72.917 107.6H70.917V110H72.917H74.917V107.6H72.917ZM72.917 110V108H61.097V110V112H72.917V110ZM61.097 110H63.097V89.54H61.097H59.097V110H61.097ZM81.9177 89.54V87.54H80.4895L80.026 88.8909L81.9177 89.54ZM85.0377 89.54L86.9295 88.8909L86.466 87.54H85.0377V89.54ZM92.0577 110V112H94.8584L93.9495 109.351L92.0577 110ZM89.4477 110L87.5483 110.626L88.0012 112H89.4477V110ZM87.6477 104.54L89.5472 103.914L89.0943 102.54H87.6477V104.54ZM79.3377 104.54V102.54H77.8987L77.4414 103.904L79.3377 104.54ZM77.5077 110V112H78.9468L79.4041 110.636L77.5077 110ZM74.8977 110L73.006 109.351L72.0971 112H74.8977V110ZM86.8377 102.14V104.14H89.5869L88.7406 101.524L86.8377 102.14ZM83.5377 91.94L85.4406 91.3244L84.9927 89.94H83.5377V91.94ZM83.4477 91.94V89.94H81.9968L81.5465 91.3193L83.4477 91.94ZM80.1177 102.14L78.2165 101.519L77.3609 104.14H80.1177V102.14ZM81.9177 89.54V91.54H85.0377V89.54V87.54H81.9177V89.54ZM85.0377 89.54L83.146 90.1891L90.166 110.649L92.0577 110L93.9495 109.351L86.9295 88.8909L85.0377 89.54ZM92.0577 110V108H89.4477V110V112H92.0577V110ZM89.4477 110L91.3472 109.374L89.5472 103.914L87.6477 104.54L85.7483 105.166L87.5483 110.626L89.4477 110ZM87.6477 104.54V102.54H79.3377V104.54V106.54H87.6477V104.54ZM79.3377 104.54L77.4414 103.904L75.6114 109.364L77.5077 110L79.4041 110.636L81.2341 105.176L79.3377 104.54ZM77.5077 110V108H74.8977V110V112H77.5077V110ZM74.8977 110L76.7895 110.649L83.8095 90.1891L81.9177 89.54L80.026 88.8909L73.006 109.351L74.8977 110ZM86.8377 102.14L88.7406 101.524L85.4406 91.3244L83.5377 91.94L81.6348 92.5556L84.9348 102.756L86.8377 102.14ZM83.5377 91.94V89.94H83.4477V91.94V93.94H83.5377V91.94ZM83.4477 91.94L81.5465 91.3193L78.2165 101.519L80.1177 102.14L82.019 102.761L85.349 92.5607L83.4477 91.94ZM80.1177 102.14V104.14H86.8377V102.14V100.14H80.1177V102.14ZM99.2078 102.56H101.208V102.086L100.995 101.662L99.2078 102.56ZM92.6678 89.54V87.54H89.4251L90.8806 90.4377L92.6678 89.54ZM95.4578 89.54L97.2434 88.6391L96.6889 87.54H95.4578V89.54ZM100.468 99.47L98.6822 100.371L100.462 103.899L102.251 100.375L100.468 99.47ZM105.508 89.54V87.54H104.28L103.724 88.6348L105.508 89.54ZM108.298 89.54L110.085 90.4377L111.541 87.54H108.298V89.54ZM101.758 102.56L99.9706 101.662L99.7578 102.086V102.56H101.758ZM101.758 110V112H103.758V110H101.758ZM99.2078 110H97.2078V112H99.2078V110ZM99.2078 102.56L100.995 101.662L94.455 88.6423L92.6678 89.54L90.8806 90.4377L97.4206 103.458L99.2078 102.56ZM92.6678 89.54V91.54H95.4578V89.54V87.54H92.6678V89.54ZM95.4578 89.54L93.6722 90.4409L98.6822 100.371L100.468 99.47L102.253 98.5691L97.2434 88.6391L95.4578 89.54ZM100.468 99.47L102.251 100.375L107.291 90.4452L105.508 89.54L103.724 88.6348L98.6844 98.5648L100.468 99.47ZM105.508 89.54V91.54H108.298V89.54V87.54H105.508V89.54ZM108.298 89.54L106.511 88.6423L99.9706 101.662L101.758 102.56L103.545 103.458L110.085 90.4377L108.298 89.54ZM101.758 102.56H99.7578V110H101.758H103.758V102.56H101.758ZM101.758 110V108H99.2078V110V112H101.758V110ZM99.2078 110H101.208V102.56H99.2078H97.2078V110H99.2078ZM112.195 89.54V87.54H110.195V89.54H112.195ZM124.735 89.54H126.735V87.54H124.735V89.54ZM124.735 91.85V93.85H126.735V91.85H124.735ZM114.715 91.85V89.85H112.715V91.85H114.715ZM114.715 98.39H112.715V100.39H114.715V98.39ZM124.015 98.39H126.015V96.39H124.015V98.39ZM124.015 100.64V102.64H126.015V100.64H124.015ZM114.715 100.64V98.64H112.715V100.64H114.715ZM114.715 107.69H112.715V109.69H114.715V107.69ZM125.035 107.69H127.035V105.69H125.035V107.69ZM125.035 110V112H127.035V110H125.035ZM112.195 110H110.195V112H112.195V110ZM112.195 89.54V91.54H124.735V89.54V87.54H112.195V89.54ZM124.735 89.54H122.735V91.85H124.735H126.735V89.54H124.735ZM124.735 91.85V89.85H114.715V91.85V93.85H124.735V91.85ZM114.715 91.85H112.715V98.39H114.715H116.715V91.85H114.715ZM114.715 98.39V100.39H124.015V98.39V96.39H114.715V98.39ZM124.015 98.39H122.015V100.64H124.015H126.015V98.39H124.015ZM124.015 100.64V98.64H114.715V100.64V102.64H124.015V100.64ZM114.715 100.64H112.715V107.69H114.715H116.715V100.64H114.715ZM114.715 107.69V109.69H125.035V107.69V105.69H114.715V107.69ZM125.035 107.69H123.035V110H125.035H127.035V107.69H125.035ZM125.035 110V108H112.195V110V112H125.035V110ZM112.195 110H114.195V89.54H112.195H110.195V110H112.195ZM130.029 89.54V87.54H128.029V89.54H130.029ZM138.069 89.84L137.635 91.7924L137.66 91.7979L137.685 91.8028L138.069 89.84ZM140.409 90.8L139.242 92.424L139.259 92.4362L139.276 92.4481L140.409 90.8ZM142.389 95.36L144.389 95.3923L144.389 95.3761V95.36H142.389ZM141.759 98.39L143.529 99.3215L143.534 99.3121L143.539 99.3026L141.759 98.39ZM140.289 100.25L141.532 101.817L141.548 101.804L141.564 101.791L140.289 100.25ZM138.279 101.27L137.723 99.3489L136.279 99.7668V101.27H138.279ZM138.279 101.33H136.279V102.158L136.865 102.744L138.279 101.33ZM138.639 101.78L137.022 102.956L137.083 103.041L137.152 103.118L138.639 101.78ZM139.089 102.32L137.489 103.52L137.492 103.524L139.089 102.32ZM144.879 110V112H148.892L146.476 108.796L144.879 110ZM141.909 110L140.294 111.18L140.893 112H141.909V110ZM135.969 101.87L137.584 100.69L136.985 99.87H135.969V101.87ZM132.549 101.87V99.87H130.549V101.87H132.549ZM132.549 110V112H134.549V110H132.549ZM130.029 110H128.029V112H130.029V110ZM139.839 95.78L141.838 95.854L141.839 95.817V95.78H139.839ZM139.509 93.74L137.634 94.4346L137.649 94.4773L137.667 94.5193L139.509 93.74ZM138.579 92.51L137.432 94.1485L137.451 94.1615L137.47 94.1741L138.579 92.51ZM137.079 91.94L137.408 89.9672V89.9672L137.079 91.94ZM132.549 91.79V89.79H130.549V91.79H132.549ZM132.549 99.62H130.549V101.62H132.549V99.62ZM137.499 99.32L138.194 101.195V101.195L137.499 99.32ZM138.819 98.51L140.233 99.9242L140.253 99.904L140.273 99.8832L138.819 98.51ZM139.569 97.28L137.68 96.623V96.623L139.569 97.28ZM130.029 89.54V91.54H135.069V89.54V87.54H130.029V89.54ZM135.069 89.54V91.54C136.05 91.54 136.902 91.6294 137.635 91.7924L138.069 89.84L138.503 87.8876C137.436 87.6506 136.288 87.54 135.069 87.54V89.54ZM138.069 89.84L137.685 91.8028C138.375 91.9379 138.876 92.1608 139.242 92.424L140.409 90.8L141.576 89.176C140.663 88.5192 139.603 88.1021 138.453 87.8772L138.069 89.84ZM140.409 90.8L139.276 92.4481C139.604 92.6736 139.865 92.9762 140.062 93.405L141.879 92.57L143.696 91.735C143.213 90.6838 142.494 89.8064 141.542 89.1519L140.409 90.8ZM141.879 92.57L140.062 93.405C140.245 93.8042 140.389 94.4265 140.389 95.36H142.389H144.389C144.389 94.0535 144.193 92.8158 143.696 91.735L141.879 92.57ZM142.389 95.36L140.389 95.3277C140.372 96.3801 140.194 97.0591 139.979 97.4774L141.759 98.39L143.539 99.3026C144.124 98.1609 144.366 96.8199 144.389 95.3923L142.389 95.36ZM141.759 98.39L139.989 97.4585C139.695 98.0174 139.364 98.4197 139.014 98.7092L140.289 100.25L141.564 101.791C142.374 101.12 143.023 100.283 143.529 99.3215L141.759 98.39ZM140.289 100.25L139.046 98.683C138.684 98.9706 138.251 99.1961 137.723 99.3489L138.279 101.27L138.835 103.191C139.828 102.904 140.734 102.449 141.532 101.817L140.289 100.25ZM138.279 101.27H136.279V101.33H138.279H140.279V101.27H138.279ZM138.279 101.33L136.865 102.744C136.843 102.722 136.833 102.711 136.837 102.715C136.841 102.719 136.85 102.731 136.867 102.752C136.902 102.795 136.953 102.862 137.022 102.956L138.639 101.78L140.257 100.604C140.096 100.384 139.896 100.118 139.693 99.9158L138.279 101.33ZM138.639 101.78L137.152 103.118C137.305 103.288 137.415 103.421 137.489 103.52L139.089 102.32L140.689 101.12C140.524 100.899 140.333 100.672 140.126 100.442L138.639 101.78ZM139.089 102.32L137.492 103.524L143.282 111.204L144.879 110L146.476 108.796L140.686 101.116L139.089 102.32ZM144.879 110V108H141.909V110V112H144.879V110ZM141.909 110L143.524 108.82L137.584 100.69L135.969 101.87L134.354 103.05L140.294 111.18L141.909 110ZM135.969 101.87V99.87H132.549V101.87V103.87H135.969V101.87ZM132.549 101.87H130.549V110H132.549H134.549V101.87H132.549ZM132.549 110V108H130.029V110V112H132.549V110ZM130.029 110H132.029V89.54H130.029H128.029V110H130.029ZM139.839 95.78H141.839C141.839 94.791 141.713 93.8171 141.351 92.9607L139.509 93.74L137.667 94.5193C137.745 94.7029 137.839 95.089 137.839 95.78H139.839ZM139.509 93.74L141.385 93.0454C141.059 92.1674 140.508 91.3922 139.688 90.8459L138.579 92.51L137.47 94.1741C137.49 94.1878 137.559 94.2326 137.634 94.4346L139.509 93.74ZM138.579 92.51L139.726 90.8715C139.029 90.3837 138.232 90.1045 137.408 89.9672L137.079 91.94L136.75 93.9128C137.127 93.9755 137.329 94.0763 137.432 94.1485L138.579 92.51ZM137.079 91.94L137.408 89.9672C136.676 89.8453 135.883 89.79 135.039 89.79V91.79V93.79C135.715 93.79 136.282 93.8347 136.75 93.9128L137.079 91.94ZM135.039 91.79V89.79H132.549V91.79V93.79H135.039V91.79ZM132.549 91.79H130.549V99.62H132.549H134.549V91.79H132.549ZM132.549 99.62V101.62H135.519V99.62V97.62H132.549V99.62ZM135.519 99.62V101.62C136.458 101.62 137.368 101.501 138.194 101.195L137.499 99.32L136.804 97.4445C136.55 97.5387 136.141 97.62 135.519 97.62V99.62ZM137.499 99.32L138.194 101.195C138.951 100.915 139.653 100.504 140.233 99.9242L138.819 98.51L137.405 97.0958C137.305 97.1957 137.127 97.3251 136.804 97.4445L137.499 99.32ZM138.819 98.51L140.273 99.8832C140.804 99.3214 141.204 98.6684 141.458 97.937L139.569 97.28L137.68 96.623C137.614 96.8116 137.514 96.9786 137.365 97.1368L138.819 98.51ZM139.569 97.28L141.458 97.937C141.69 97.2699 141.811 96.5712 141.838 95.854L139.839 95.78L137.84 95.706C137.827 96.0688 137.768 96.3701 137.68 96.623L139.569 97.28ZM156.958 108.02L155.41 106.753L152.634 110.144L157.015 110.019L156.958 108.02ZM159.088 107.96L159.143 109.959L159.152 109.959L159.088 107.96ZM161.098 107.93V109.93H161.125L161.153 109.929L161.098 107.93ZM165.058 107.9V109.9H167.058V107.9H165.058ZM165.058 101.87L163.058 101.822L163.058 101.846V101.87H165.058ZM165.118 99.74L167.116 99.8089L167.117 99.7988L165.118 99.74ZM165.208 97.94L167.202 98.0934L167.69 91.7496L163.66 96.6733L165.208 97.94ZM153.898 108.38L152.357 107.104L151.83 107.741L151.906 108.564L153.898 108.38ZM165.058 94.91V92.91H164.117L163.517 93.634L165.058 94.91ZM167.458 94.91H169.458V92.91H167.458V94.91ZM167.458 107.9H165.458V109.9H167.458V107.9ZM169.558 107.9H171.558V105.9H169.558V107.9ZM169.558 110V112H171.558V110H169.558ZM167.458 110V108H165.458V110H167.458ZM167.458 115.85V117.85H169.458V115.85H167.458ZM165.058 115.85H163.058V117.85H165.058V115.85ZM165.058 110H167.058V108H165.058V110ZM154.048 110L152.056 110.184L152.224 112H154.048V110ZM156.958 108.02L157.015 110.019C157.714 109.999 158.424 109.979 159.143 109.959L159.088 107.96L159.032 105.961C158.312 105.981 157.601 106.001 156.9 106.021L156.958 108.02ZM159.088 107.96L159.152 109.959C159.747 109.94 160.396 109.93 161.098 109.93V107.93V105.93C160.359 105.93 159.668 105.94 159.023 105.961L159.088 107.96ZM161.098 107.93L161.153 109.929C161.856 109.91 162.537 109.9 163.198 109.9V107.9V105.9C162.498 105.9 161.779 105.91 161.042 105.931L161.098 107.93ZM163.198 107.9V109.9H165.058V107.9V105.9H163.198V107.9ZM165.058 107.9H167.058V104.75H165.058H163.058V107.9H165.058ZM165.058 104.75H167.058C167.058 104.748 167.058 104.746 167.058 104.744C167.058 104.742 167.058 104.739 167.058 104.737C167.058 104.735 167.058 104.733 167.058 104.731C167.058 104.729 167.058 104.727 167.058 104.725C167.058 104.723 167.058 104.72 167.058 104.718C167.058 104.716 167.058 104.714 167.058 104.712C167.058 104.71 167.058 104.708 167.058 104.706C167.058 104.704 167.058 104.702 167.058 104.699C167.058 104.697 167.058 104.695 167.058 104.693C167.058 104.691 167.058 104.689 167.058 104.687C167.058 104.685 167.058 104.683 167.058 104.681C167.058 104.678 167.058 104.676 167.058 104.674C167.058 104.672 167.058 104.67 167.058 104.668C167.058 104.666 167.058 104.664 167.058 104.662C167.058 104.66 167.058 104.657 167.058 104.655C167.058 104.653 167.058 104.651 167.058 104.649C167.058 104.647 167.058 104.645 167.058 104.643C167.058 104.641 167.058 104.639 167.058 104.637C167.058 104.634 167.058 104.632 167.058 104.63C167.058 104.628 167.058 104.626 167.058 104.624C167.058 104.622 167.058 104.62 167.058 104.618C167.058 104.616 167.058 104.614 167.058 104.611C167.058 104.609 167.058 104.607 167.058 104.605C167.058 104.603 167.058 104.601 167.058 104.599C167.058 104.597 167.058 104.595 167.058 104.593C167.058 104.591 167.058 104.588 167.058 104.586C167.058 104.584 167.058 104.582 167.058 104.58C167.058 104.578 167.058 104.576 167.058 104.574C167.058 104.572 167.058 104.57 167.058 104.568C167.058 104.566 167.058 104.563 167.058 104.561C167.058 104.559 167.058 104.557 167.058 104.555C167.058 104.553 167.058 104.551 167.058 104.549C167.058 104.547 167.058 104.545 167.058 104.543C167.058 104.541 167.058 104.539 167.058 104.536C167.058 104.534 167.058 104.532 167.058 104.53C167.058 104.528 167.058 104.526 167.058 104.524C167.058 104.522 167.058 104.52 167.058 104.518C167.058 104.516 167.058 104.514 167.058 104.512C167.058 104.509 167.058 104.507 167.058 104.505C167.058 104.503 167.058 104.501 167.058 104.499C167.058 104.497 167.058 104.495 167.058 104.493C167.058 104.491 167.058 104.489 167.058 104.487C167.058 104.485 167.058 104.482 167.058 104.48C167.058 104.478 167.058 104.476 167.058 104.474C167.058 104.472 167.058 104.47 167.058 104.468C167.058 104.466 167.058 104.464 167.058 104.462C167.058 104.46 167.058 104.458 167.058 104.456C167.058 104.454 167.058 104.451 167.058 104.449C167.058 104.447 167.058 104.445 167.058 104.443C167.058 104.441 167.058 104.439 167.058 104.437C167.058 104.435 167.058 104.433 167.058 104.431C167.058 104.429 167.058 104.427 167.058 104.425C167.058 104.423 167.058 104.421 167.058 104.418C167.058 104.416 167.058 104.414 167.058 104.412C167.058 104.41 167.058 104.408 167.058 104.406C167.058 104.404 167.058 104.402 167.058 104.4C167.058 104.398 167.058 104.396 167.058 104.394C167.058 104.392 167.058 104.39 167.058 104.388C167.058 104.386 167.058 104.383 167.058 104.381C167.058 104.379 167.058 104.377 167.058 104.375C167.058 104.373 167.058 104.371 167.058 104.369C167.058 104.367 167.058 104.365 167.058 104.363C167.058 104.361 167.058 104.359 167.058 104.357C167.058 104.355 167.058 104.353 167.058 104.351C167.058 104.349 167.058 104.347 167.058 104.344C167.058 104.342 167.058 104.34 167.058 104.338C167.058 104.336 167.058 104.334 167.058 104.332C167.058 104.33 167.058 104.328 167.058 104.326C167.058 104.324 167.058 104.322 167.058 104.32C167.058 104.318 167.058 104.316 167.058 104.314C167.058 104.312 167.058 104.31 167.058 104.308C167.058 104.306 167.058 104.304 167.058 104.301C167.058 104.299 167.058 104.297 167.058 104.295C167.058 104.293 167.058 104.291 167.058 104.289C167.058 104.287 167.058 104.285 167.058 104.283C167.058 104.281 167.058 104.279 167.058 104.277C167.058 104.275 167.058 104.273 167.058 104.271C167.058 104.269 167.058 104.267 167.058 104.265C167.058 104.263 167.058 104.261 167.058 104.259C167.058 104.257 167.058 104.255 167.058 104.253C167.058 104.251 167.058 104.248 167.058 104.246C167.058 104.244 167.058 104.242 167.058 104.24C167.058 104.238 167.058 104.236 167.058 104.234C167.058 104.232 167.058 104.23 167.058 104.228C167.058 104.226 167.058 104.224 167.058 104.222C167.058 104.22 167.058 104.218 167.058 104.216C167.058 104.214 167.058 104.212 167.058 104.21C167.058 104.208 167.058 104.206 167.058 104.204C167.058 104.202 167.058 104.2 167.058 104.198C167.058 104.196 167.058 104.194 167.058 104.192C167.058 104.19 167.058 104.188 167.058 104.186C167.058 104.183 167.058 104.181 167.058 104.179C167.058 104.177 167.058 104.175 167.058 104.173C167.058 104.171 167.058 104.169 167.058 104.167C167.058 104.165 167.058 104.163 167.058 104.161C167.058 104.159 167.058 104.157 167.058 104.155C167.058 104.153 167.058 104.151 167.058 104.149C167.058 104.147 167.058 104.145 167.058 104.143C167.058 104.141 167.058 104.139 167.058 104.137C167.058 104.135 167.058 104.133 167.058 104.131C167.058 104.129 167.058 104.127 167.058 104.125C167.058 104.123 167.058 104.121 167.058 104.119C167.058 104.117 167.058 104.115 167.058 104.113C167.058 104.111 167.058 104.109 167.058 104.107C167.058 104.105 167.058 104.103 167.058 104.101C167.058 104.099 167.058 104.097 167.058 104.095C167.058 104.093 167.058 104.091 167.058 104.089C167.058 104.087 167.058 104.085 167.058 104.083C167.058 104.081 167.058 104.079 167.058 104.077C167.058 104.075 167.058 104.073 167.058 104.071C167.058 104.069 167.058 104.067 167.058 104.064C167.058 104.062 167.058 104.06 167.058 104.058C167.058 104.056 167.058 104.054 167.058 104.052C167.058 104.05 167.058 104.048 167.058 104.046C167.058 104.044 167.058 104.042 167.058 104.04C167.058 104.038 167.058 104.036 167.058 104.034C167.058 104.032 167.058 104.03 167.058 104.028C167.058 104.026 167.058 104.024 167.058 104.022C167.058 104.02 167.058 104.018 167.058 104.016C167.058 104.014 167.058 104.012 167.058 104.01C167.058 104.008 167.058 104.006 167.058 104.004C167.058 104.002 167.058 104 167.058 103.998C167.058 103.996 167.058 103.994 167.058 103.992C167.058 103.99 167.058 103.988 167.058 103.986C167.058 103.984 167.058 103.982 167.058 103.98C167.058 103.978 167.058 103.976 167.058 103.974C167.058 103.972 167.058 103.97 167.058 103.968C167.058 103.966 167.058 103.964 167.058 103.962C167.058 103.961 167.058 103.959 167.058 103.957C167.058 103.955 167.058 103.953 167.058 103.951C167.058 103.949 167.058 103.947 167.058 103.945C167.058 103.943 167.058 103.941 167.058 103.939C167.058 103.937 167.058 103.935 167.058 103.933C167.058 103.931 167.058 103.929 167.058 103.927C167.058 103.925 167.058 103.923 167.058 103.921C167.058 103.919 167.058 103.917 167.058 103.915C167.058 103.913 167.058 103.911 167.058 103.909C167.058 103.907 167.058 103.905 167.058 103.903C167.058 103.901 167.058 103.899 167.058 103.897C167.058 103.895 167.058 103.893 167.058 103.891C167.058 103.889 167.058 103.887 167.058 103.885C167.058 103.883 167.058 103.881 167.058 103.879C167.058 103.877 167.058 103.875 167.058 103.873C167.058 103.871 167.058 103.869 167.058 103.867C167.058 103.865 167.058 103.863 167.058 103.861C167.058 103.859 167.058 103.857 167.058 103.855C167.058 103.853 167.058 103.851 167.058 103.849C167.058 103.847 167.058 103.845 167.058 103.844C167.058 103.842 167.058 103.84 167.058 103.838C167.058 103.836 167.058 103.834 167.058 103.832C167.058 103.83 167.058 103.828 167.058 103.826C167.058 103.824 167.058 103.822 167.058 103.82C167.058 103.818 167.058 103.816 167.058 103.814C167.058 103.812 167.058 103.81 167.058 103.808C167.058 103.806 167.058 103.804 167.058 103.802C167.058 103.8 167.058 103.798 167.058 103.796C167.058 103.794 167.058 103.792 167.058 103.79C167.058 103.788 167.058 103.786 167.058 103.784C167.058 103.782 167.058 103.781 167.058 103.779C167.058 103.777 167.058 103.775 167.058 103.773C167.058 103.771 167.058 103.769 167.058 103.767C167.058 103.765 167.058 103.763 167.058 103.761C167.058 103.759 167.058 103.757 167.058 103.755C167.058 103.753 167.058 103.751 167.058 103.749C167.058 103.747 167.058 103.745 167.058 103.743C167.058 103.741 167.058 103.739 167.058 103.737C167.058 103.735 167.058 103.733 167.058 103.732C167.058 103.73 167.058 103.728 167.058 103.726C167.058 103.724 167.058 103.722 167.058 103.72C167.058 103.718 167.058 103.716 167.058 103.714C167.058 103.712 167.058 103.71 167.058 103.708C167.058 103.706 167.058 103.704 167.058 103.702C167.058 103.7 167.058 103.698 167.058 103.696C167.058 103.694 167.058 103.692 167.058 103.69C167.058 103.689 167.058 103.687 167.058 103.685C167.058 103.683 167.058 103.681 167.058 103.679C167.058 103.677 167.058 103.675 167.058 103.673C167.058 103.671 167.058 103.669 167.058 103.667C167.058 103.665 167.058 103.663 167.058 103.661C167.058 103.659 167.058 103.657 167.058 103.655C167.058 103.653 167.058 103.652 167.058 103.65C167.058 103.648 167.058 103.646 167.058 103.644C167.058 103.642 167.058 103.64 167.058 103.638C167.058 103.636 167.058 103.634 167.058 103.632C167.058 103.63 167.058 103.628 167.058 103.626C167.058 103.624 167.058 103.622 167.058 103.62C167.058 103.619 167.058 103.617 167.058 103.615C167.058 103.613 167.058 103.611 167.058 103.609C167.058 103.607 167.058 103.605 167.058 103.603C167.058 103.601 167.058 103.599 167.058 103.597C167.058 103.595 167.058 103.593 167.058 103.591C167.058 103.589 167.058 103.588 167.058 103.586C167.058 103.584 167.058 103.582 167.058 103.58C167.058 103.578 167.058 103.576 167.058 103.574C167.058 103.572 167.058 103.57 167.058 103.568C167.058 103.566 167.058 103.564 167.058 103.562C167.058 103.561 167.058 103.559 167.058 103.557C167.058 103.555 167.058 103.553 167.058 103.551C167.058 103.549 167.058 103.547 167.058 103.545C167.058 103.543 167.058 103.541 167.058 103.539C167.058 103.537 167.058 103.535 167.058 103.534C167.058 103.532 167.058 103.53 167.058 103.528C167.058 103.526 167.058 103.524 167.058 103.522C167.058 103.52 167.058 103.518 167.058 103.516C167.058 103.514 167.058 103.512 167.058 103.51C167.058 103.509 167.058 103.507 167.058 103.505C167.058 103.503 167.058 103.501 167.058 103.499C167.058 103.497 167.058 103.495 167.058 103.493C167.058 103.491 167.058 103.489 167.058 103.487C167.058 103.485 167.058 103.484 167.058 103.482C167.058 103.48 167.058 103.478 167.058 103.476C167.058 103.474 167.058 103.472 167.058 103.47C167.058 103.468 167.058 103.466 167.058 103.464C167.058 103.462 167.058 103.461 167.058 103.459C167.058 103.457 167.058 103.455 167.058 103.453C167.058 103.451 167.058 103.449 167.058 103.447C167.058 103.445 167.058 103.443 167.058 103.441C167.058 103.44 167.058 103.438 167.058 103.436C167.058 103.434 167.058 103.432 167.058 103.43C167.058 103.428 167.058 103.426 167.058 103.424C167.058 103.422 167.058 103.42 167.058 103.419C167.058 103.417 167.058 103.415 167.058 103.413C167.058 103.411 167.058 103.409 167.058 103.407C167.058 103.405 167.058 103.403 167.058 103.401C167.058 103.4 167.058 103.398 167.058 103.396C167.058 103.394 167.058 103.392 167.058 103.39C167.058 103.388 167.058 103.386 167.058 103.384C167.058 103.382 167.058 103.38 167.058 103.379C167.058 103.377 167.058 103.375 167.058 103.373C167.058 103.371 167.058 103.369 167.058 103.367C167.058 103.365 167.058 103.363 167.058 103.361C167.058 103.36 167.058 103.358 167.058 103.356C167.058 103.354 167.058 103.352 167.058 103.35C167.058 103.348 167.058 103.346 167.058 103.344C167.058 103.343 167.058 103.341 167.058 103.339C167.058 103.337 167.058 103.335 167.058 103.333C167.058 103.331 167.058 103.329 167.058 103.327C167.058 103.325 167.058 103.324 167.058 103.322C167.058 103.32 167.058 103.318 167.058 103.316C167.058 103.314 167.058 103.312 167.058 103.31C167.058 103.308 167.058 103.307 167.058 103.305C167.058 103.303 167.058 103.301 167.058 103.299C167.058 103.297 167.058 103.295 167.058 103.293C167.058 103.291 167.058 103.29 167.058 103.288C167.058 103.286 167.058 103.284 167.058 103.282C167.058 103.28 167.058 103.278 167.058 103.276C167.058 103.275 167.058 103.273 167.058 103.271C167.058 103.269 167.058 103.267 167.058 103.265C167.058 103.263 167.058 103.261 167.058 103.259C167.058 103.258 167.058 103.256 167.058 103.254C167.058 103.252 167.058 103.25 167.058 103.248C167.058 103.246 167.058 103.244 167.058 103.243C167.058 103.241 167.058 103.239 167.058 103.237C167.058 103.235 167.058 103.233 167.058 103.231C167.058 103.229 167.058 103.228 167.058 103.226C167.058 103.224 167.058 103.222 167.058 103.22C167.058 103.218 167.058 103.216 167.058 103.214C167.058 103.213 167.058 103.211 167.058 103.209C167.058 103.207 167.058 103.205 167.058 103.203C167.058 103.201 167.058 103.199 167.058 103.198C167.058 103.196 167.058 103.194 167.058 103.192C167.058 103.19 167.058 103.188 167.058 103.186C167.058 103.184 167.058 103.183 167.058 103.181C167.058 103.179 167.058 103.177 167.058 103.175C167.058 103.173 167.058 103.171 167.058 103.169C167.058 103.168 167.058 103.166 167.058 103.164C167.058 103.162 167.058 103.16 167.058 103.158C167.058 103.156 167.058 103.155 167.058 103.153C167.058 103.151 167.058 103.149 167.058 103.147C167.058 103.145 167.058 103.143 167.058 103.142C167.058 103.14 167.058 103.138 167.058 103.136C167.058 103.134 167.058 103.132 167.058 103.13C167.058 103.128 167.058 103.127 167.058 103.125C167.058 103.123 167.058 103.121 167.058 103.119C167.058 103.117 167.058 103.115 167.058 103.114C167.058 103.112 167.058 103.11 167.058 103.108C167.058 103.106 167.058 103.104 167.058 103.102C167.058 103.101 167.058 103.099 167.058 103.097C167.058 103.095 167.058 103.093 167.058 103.091C167.058 103.089 167.058 103.088 167.058 103.086C167.058 103.084 167.058 103.082 167.058 103.08C167.058 103.078 167.058 103.077 167.058 103.075C167.058 103.073 167.058 103.071 167.058 103.069C167.058 103.067 167.058 103.065 167.058 103.064C167.058 103.062 167.058 103.06 167.058 103.058C167.058 103.056 167.058 103.054 167.058 103.052C167.058 103.051 167.058 103.049 167.058 103.047C167.058 103.045 167.058 103.043 167.058 103.041C167.058 103.04 167.058 103.038 167.058 103.036C167.058 103.034 167.058 103.032 167.058 103.03C167.058 103.028 167.058 103.027 167.058 103.025C167.058 103.023 167.058 103.021 167.058 103.019C167.058 103.017 167.058 103.016 167.058 103.014C167.058 103.012 167.058 103.01 167.058 103.008C167.058 103.006 167.058 103.005 167.058 103.003C167.058 103.001 167.058 102.999 167.058 102.997C167.058 102.995 167.058 102.994 167.058 102.992C167.058 102.99 167.058 102.988 167.058 102.986C167.058 102.984 167.058 102.982 167.058 102.981C167.058 102.979 167.058 102.977 167.058 102.975C167.058 102.973 167.058 102.971 167.058 102.97C167.058 102.968 167.058 102.966 167.058 102.964C167.058 102.962 167.058 102.96 167.058 102.959C167.058 102.957 167.058 102.955 167.058 102.953C167.058 102.951 167.058 102.95 167.058 102.948C167.058 102.946 167.058 102.944 167.058 102.942C167.058 102.94 167.058 102.939 167.058 102.937C167.058 102.935 167.058 102.933 167.058 102.931C167.058 102.929 167.058 102.928 167.058 102.926C167.058 102.924 167.058 102.922 167.058 102.92C167.058 102.918 167.058 102.917 167.058 102.915C167.058 102.913 167.058 102.911 167.058 102.909C167.058 102.907 167.058 102.906 167.058 102.904C167.058 102.902 167.058 102.9 167.058 102.898C167.058 102.897 167.058 102.895 167.058 102.893C167.058 102.891 167.058 102.889 167.058 102.887C167.058 102.886 167.058 102.884 167.058 102.882C167.058 102.88 167.058 102.878 167.058 102.877C167.058 102.875 167.058 102.873 167.058 102.871C167.058 102.869 167.058 102.867 167.058 102.866C167.058 102.864 167.058 102.862 167.058 102.86C167.058 102.858 167.058 102.857 167.058 102.855C167.058 102.853 167.058 102.851 167.058 102.849C167.058 102.847 167.058 102.846 167.058 102.844C167.058 102.842 167.058 102.84 167.058 102.838C167.058 102.837 167.058 102.835 167.058 102.833C167.058 102.831 167.058 102.829 167.058 102.828C167.058 102.826 167.058 102.824 167.058 102.822C167.058 102.82 167.058 102.819 167.058 102.817C167.058 102.815 167.058 102.813 167.058 102.811C167.058 102.809 167.058 102.808 167.058 102.806C167.058 102.804 167.058 102.802 167.058 102.8C167.058 102.799 167.058 102.797 167.058 102.795C167.058 102.793 167.058 102.791 167.058 102.79C167.058 102.788 167.058 102.786 167.058 102.784C167.058 102.782 167.058 102.781 167.058 102.779C167.058 102.777 167.058 102.775 167.058 102.773C167.058 102.772 167.058 102.77 167.058 102.768C167.058 102.766 167.058 102.764 167.058 102.763C167.058 102.761 167.058 102.759 167.058 102.757C167.058 102.755 167.058 102.754 167.058 102.752C167.058 102.75 167.058 102.748 167.058 102.746C167.058 102.745 167.058 102.743 167.058 102.741C167.058 102.739 167.058 102.737 167.058 102.736C167.058 102.734 167.058 102.732 167.058 102.73C167.058 102.728 167.058 102.727 167.058 102.725C167.058 102.723 167.058 102.721 167.058 102.719C167.058 102.718 167.058 102.716 167.058 102.714C167.058 102.712 167.058 102.711 167.058 102.709C167.058 102.707 167.058 102.705 167.058 102.703C167.058 102.702 167.058 102.7 167.058 102.698C167.058 102.696 167.058 102.694 167.058 102.693C167.058 102.691 167.058 102.689 167.058 102.687C167.058 102.686 167.058 102.684 167.058 102.682C167.058 102.68 167.058 102.678 167.058 102.677C167.058 102.675 167.058 102.673 167.058 102.671C167.058 102.669 167.058 102.668 167.058 102.666C167.058 102.664 167.058 102.662 167.058 102.661C167.058 102.659 167.058 102.657 167.058 102.655C167.058 102.653 167.058 102.652 167.058 102.65C167.058 102.648 167.058 102.646 167.058 102.645C167.058 102.643 167.058 102.641 167.058 102.639C167.058 102.637 167.058 102.636 167.058 102.634C167.058 102.632 167.058 102.63 167.058 102.629C167.058 102.627 167.058 102.625 167.058 102.623C167.058 102.621 167.058 102.62 167.058 102.618C167.058 102.616 167.058 102.614 167.058 102.613C167.058 102.611 167.058 102.609 167.058 102.607C167.058 102.605 167.058 102.604 167.058 102.602C167.058 102.6 167.058 102.598 167.058 102.597C167.058 102.595 167.058 102.593 167.058 102.591C167.058 102.59 167.058 102.588 167.058 102.586C167.058 102.584 167.058 102.582 167.058 102.581C167.058 102.579 167.058 102.577 167.058 102.575C167.058 102.574 167.058 102.572 167.058 102.57C167.058 102.568 167.058 102.567 167.058 102.565C167.058 102.563 167.058 102.561 167.058 102.559C167.058 102.558 167.058 102.556 167.058 102.554C167.058 102.552 167.058 102.551 167.058 102.549C167.058 102.547 167.058 102.545 167.058 102.544C167.058 102.542 167.058 102.54 167.058 102.538C167.058 102.537 167.058 102.535 167.058 102.533C167.058 102.531 167.058 102.53 167.058 102.528C167.058 102.526 167.058 102.524 167.058 102.522C167.058 102.521 167.058 102.519 167.058 102.517C167.058 102.515 167.058 102.514 167.058 102.512C167.058 102.51 167.058 102.508 167.058 102.507C167.058 102.505 167.058 102.503 167.058 102.501C167.058 102.5 167.058 102.498 167.058 102.496C167.058 102.494 167.058 102.493 167.058 102.491C167.058 102.489 167.058 102.487 167.058 102.486C167.058 102.484 167.058 102.482 167.058 102.48C167.058 102.479 167.058 102.477 167.058 102.475C167.058 102.473 167.058 102.472 167.058 102.47C167.058 102.468 167.058 102.466 167.058 102.465C167.058 102.463 167.058 102.461 167.058 102.459C167.058 102.458 167.058 102.456 167.058 102.454C167.058 102.452 167.058 102.451 167.058 102.449C167.058 102.447 167.058 102.445 167.058 102.444C167.058 102.442 167.058 102.44 167.058 102.438C167.058 102.437 167.058 102.435 167.058 102.433C167.058 102.432 167.058 102.43 167.058 102.428C167.058 102.426 167.058 102.425 167.058 102.423C167.058 102.421 167.058 102.419 167.058 102.418C167.058 102.416 167.058 102.414 167.058 102.412C167.058 102.411 167.058 102.409 167.058 102.407C167.058 102.405 167.058 102.404 167.058 102.402C167.058 102.4 167.058 102.398 167.058 102.397C167.058 102.395 167.058 102.393 167.058 102.392C167.058 102.39 167.058 102.388 167.058 102.386C167.058 102.385 167.058 102.383 167.058 102.381C167.058 102.379 167.058 102.378 167.058 102.376C167.058 102.374 167.058 102.372 167.058 102.371C167.058 102.369 167.058 102.367 167.058 102.366C167.058 102.364 167.058 102.362 167.058 102.36C167.058 102.359 167.058 102.357 167.058 102.355C167.058 102.353 167.058 102.352 167.058 102.35C167.058 102.348 167.058 102.347 167.058 102.345C167.058 102.343 167.058 102.341 167.058 102.34C167.058 102.338 167.058 102.336 167.058 102.334C167.058 102.333 167.058 102.331 167.058 102.329C167.058 102.328 167.058 102.326 167.058 102.324C167.058 102.322 167.058 102.321 167.058 102.319C167.058 102.317 167.058 102.315 167.058 102.314C167.058 102.312 167.058 102.31 167.058 102.309C167.058 102.307 167.058 102.305 167.058 102.303C167.058 102.302 167.058 102.3 167.058 102.298C167.058 102.297 167.058 102.295 167.058 102.293C167.058 102.291 167.058 102.29 167.058 102.288C167.058 102.286 167.058 102.285 167.058 102.283C167.058 102.281 167.058 102.279 167.058 102.278C167.058 102.276 167.058 102.274 167.058 102.273C167.058 102.271 167.058 102.269 167.058 102.267C167.058 102.266 167.058 102.264 167.058 102.262C167.058 102.261 167.058 102.259 167.058 102.257C167.058 102.255 167.058 102.254 167.058 102.252C167.058 102.25 167.058 102.249 167.058 102.247C167.058 102.245 167.058 102.243 167.058 102.242C167.058 102.24 167.058 102.238 167.058 102.237C167.058 102.235 167.058 102.233 167.058 102.231C167.058 102.23 167.058 102.228 167.058 102.226C167.058 102.225 167.058 102.223 167.058 102.221C167.058 102.22 167.058 102.218 167.058 102.216C167.058 102.214 167.058 102.213 167.058 102.211C167.058 102.209 167.058 102.208 167.058 102.206C167.058 102.204 167.058 102.203 167.058 102.201C167.058 102.199 167.058 102.197 167.058 102.196C167.058 102.194 167.058 102.192 167.058 102.191C167.058 102.189 167.058 102.187 167.058 102.186C167.058 102.184 167.058 102.182 167.058 102.18C167.058 102.179 167.058 102.177 167.058 102.175C167.058 102.174 167.058 102.172 167.058 102.17C167.058 102.169 167.058 102.167 167.058 102.165C167.058 102.163 167.058 102.162 167.058 102.16C167.058 102.158 167.058 102.157 167.058 102.155C167.058 102.153 167.058 102.152 167.058 102.15C167.058 102.148 167.058 102.147 167.058 102.145C167.058 102.143 167.058 102.141 167.058 102.14C167.058 102.138 167.058 102.136 167.058 102.135C167.058 102.133 167.058 102.131 167.058 102.13C167.058 102.128 167.058 102.126 167.058 102.125C167.058 102.123 167.058 102.121 167.058 102.12C167.058 102.118 167.058 102.116 167.058 102.114C167.058 102.113 167.058 102.111 167.058 102.109C167.058 102.108 167.058 102.106 167.058 102.104C167.058 102.103 167.058 102.101 167.058 102.099C167.058 102.098 167.058 102.096 167.058 102.094C167.058 102.093 167.058 102.091 167.058 102.089C167.058 102.088 167.058 102.086 167.058 102.084C167.058 102.082 167.058 102.081 167.058 102.079C167.058 102.077 167.058 102.076 167.058 102.074C167.058 102.072 167.058 102.071 167.058 102.069C167.058 102.067 167.058 102.066 167.058 102.064C167.058 102.062 167.058 102.061 167.058 102.059C167.058 102.057 167.058 102.056 167.058 102.054C167.058 102.052 167.058 102.051 167.058 102.049C167.058 102.047 167.058 102.046 167.058 102.044C167.058 102.042 167.058 102.041 167.058 102.039C167.058 102.037 167.058 102.036 167.058 102.034C167.058 102.032 167.058 102.031 167.058 102.029C167.058 102.027 167.058 102.026 167.058 102.024C167.058 102.022 167.058 102.021 167.058 102.019C167.058 102.017 167.058 102.016 167.058 102.014C167.058 102.012 167.058 102.011 167.058 102.009C167.058 102.007 167.058 102.006 167.058 102.004C167.058 102.002 167.058 102.001 167.058 101.999C167.058 101.997 167.058 101.996 167.058 101.994C167.058 101.992 167.058 101.991 167.058 101.989C167.058 101.987 167.058 101.986 167.058 101.984C167.058 101.982 167.058 101.981 167.058 101.979C167.058 101.977 167.058 101.976 167.058 101.974C167.058 101.972 167.058 101.971 167.058 101.969C167.058 101.967 167.058 101.966 167.058 101.964C167.058 101.962 167.058 101.961 167.058 101.959C167.058 101.957 167.058 101.956 167.058 101.954C167.058 101.952 167.058 101.951 167.058 101.949C167.058 101.947 167.058 101.946 167.058 101.944C167.058 101.942 167.058 101.941 167.058 101.939C167.058 101.938 167.058 101.936 167.058 101.934C167.058 101.933 167.058 101.931 167.058 101.929C167.058 101.928 167.058 101.926 167.058 101.924C167.058 101.923 167.058 101.921 167.058 101.919C167.058 101.918 167.058 101.916 167.058 101.914C167.058 101.913 167.058 101.911 167.058 101.909C167.058 101.908 167.058 101.906 167.058 101.905C167.058 101.903 167.058 101.901 167.058 101.9C167.058 101.898 167.058 101.896 167.058 101.895C167.058 101.893 167.058 101.891 167.058 101.89C167.058 101.888 167.058 101.886 167.058 101.885C167.058 101.883 167.058 101.881 167.058 101.88C167.058 101.878 167.058 101.877 167.058 101.875C167.058 101.873 167.058 101.872 167.058 101.87H165.058H163.058C163.058 101.872 163.058 101.873 163.058 101.875C163.058 101.877 163.058 101.878 163.058 101.88C163.058 101.881 163.058 101.883 163.058 101.885C163.058 101.886 163.058 101.888 163.058 101.89C163.058 101.891 163.058 101.893 163.058 101.895C163.058 101.896 163.058 101.898 163.058 101.9C163.058 101.901 163.058 101.903 163.058 101.905C163.058 101.906 163.058 101.908 163.058 101.909C163.058 101.911 163.058 101.913 163.058 101.914C163.058 101.916 163.058 101.918 163.058 101.919C163.058 101.921 163.058 101.923 163.058 101.924C163.058 101.926 163.058 101.928 163.058 101.929C163.058 101.931 163.058 101.933 163.058 101.934C163.058 101.936 163.058 101.938 163.058 101.939C163.058 101.941 163.058 101.942 163.058 101.944C163.058 101.946 163.058 101.947 163.058 101.949C163.058 101.951 163.058 101.952 163.058 101.954C163.058 101.956 163.058 101.957 163.058 101.959C163.058 101.961 163.058 101.962 163.058 101.964C163.058 101.966 163.058 101.967 163.058 101.969C163.058 101.971 163.058 101.972 163.058 101.974C163.058 101.976 163.058 101.977 163.058 101.979C163.058 101.981 163.058 101.982 163.058 101.984C163.058 101.986 163.058 101.987 163.058 101.989C163.058 101.991 163.058 101.992 163.058 101.994C163.058 101.996 163.058 101.997 163.058 101.999C163.058 102.001 163.058 102.002 163.058 102.004C163.058 102.006 163.058 102.007 163.058 102.009C163.058 102.011 163.058 102.012 163.058 102.014C163.058 102.016 163.058 102.017 163.058 102.019C163.058 102.021 163.058 102.022 163.058 102.024C163.058 102.026 163.058 102.027 163.058 102.029C163.058 102.031 163.058 102.032 163.058 102.034C163.058 102.036 163.058 102.037 163.058 102.039C163.058 102.041 163.058 102.042 163.058 102.044C163.058 102.046 163.058 102.047 163.058 102.049C163.058 102.051 163.058 102.052 163.058 102.054C163.058 102.056 163.058 102.057 163.058 102.059C163.058 102.061 163.058 102.062 163.058 102.064C163.058 102.066 163.058 102.067 163.058 102.069C163.058 102.071 163.058 102.072 163.058 102.074C163.058 102.076 163.058 102.077 163.058 102.079C163.058 102.081 163.058 102.082 163.058 102.084C163.058 102.086 163.058 102.088 163.058 102.089C163.058 102.091 163.058 102.093 163.058 102.094C163.058 102.096 163.058 102.098 163.058 102.099C163.058 102.101 163.058 102.103 163.058 102.104C163.058 102.106 163.058 102.108 163.058 102.109C163.058 102.111 163.058 102.113 163.058 102.114C163.058 102.116 163.058 102.118 163.058 102.12C163.058 102.121 163.058 102.123 163.058 102.125C163.058 102.126 163.058 102.128 163.058 102.13C163.058 102.131 163.058 102.133 163.058 102.135C163.058 102.136 163.058 102.138 163.058 102.14C163.058 102.141 163.058 102.143 163.058 102.145C163.058 102.147 163.058 102.148 163.058 102.15C163.058 102.152 163.058 102.153 163.058 102.155C163.058 102.157 163.058 102.158 163.058 102.16C163.058 102.162 163.058 102.163 163.058 102.165C163.058 102.167 163.058 102.169 163.058 102.17C163.058 102.172 163.058 102.174 163.058 102.175C163.058 102.177 163.058 102.179 163.058 102.18C163.058 102.182 163.058 102.184 163.058 102.186C163.058 102.187 163.058 102.189 163.058 102.191C163.058 102.192 163.058 102.194 163.058 102.196C163.058 102.197 163.058 102.199 163.058 102.201C163.058 102.203 163.058 102.204 163.058 102.206C163.058 102.208 163.058 102.209 163.058 102.211C163.058 102.213 163.058 102.214 163.058 102.216C163.058 102.218 163.058 102.22 163.058 102.221C163.058 102.223 163.058 102.225 163.058 102.226C163.058 102.228 163.058 102.23 163.058 102.231C163.058 102.233 163.058 102.235 163.058 102.237C163.058 102.238 163.058 102.24 163.058 102.242C163.058 102.243 163.058 102.245 163.058 102.247C163.058 102.249 163.058 102.25 163.058 102.252C163.058 102.254 163.058 102.255 163.058 102.257C163.058 102.259 163.058 102.261 163.058 102.262C163.058 102.264 163.058 102.266 163.058 102.267C163.058 102.269 163.058 102.271 163.058 102.273C163.058 102.274 163.058 102.276 163.058 102.278C163.058 102.279 163.058 102.281 163.058 102.283C163.058 102.285 163.058 102.286 163.058 102.288C163.058 102.29 163.058 102.291 163.058 102.293C163.058 102.295 163.058 102.297 163.058 102.298C163.058 102.3 163.058 102.302 163.058 102.303C163.058 102.305 163.058 102.307 163.058 102.309C163.058 102.31 163.058 102.312 163.058 102.314C163.058 102.315 163.058 102.317 163.058 102.319C163.058 102.321 163.058 102.322 163.058 102.324C163.058 102.326 163.058 102.328 163.058 102.329C163.058 102.331 163.058 102.333 163.058 102.334C163.058 102.336 163.058 102.338 163.058 102.34C163.058 102.341 163.058 102.343 163.058 102.345C163.058 102.347 163.058 102.348 163.058 102.35C163.058 102.352 163.058 102.353 163.058 102.355C163.058 102.357 163.058 102.359 163.058 102.36C163.058 102.362 163.058 102.364 163.058 102.366C163.058 102.367 163.058 102.369 163.058 102.371C163.058 102.372 163.058 102.374 163.058 102.376C163.058 102.378 163.058 102.379 163.058 102.381C163.058 102.383 163.058 102.385 163.058 102.386C163.058 102.388 163.058 102.39 163.058 102.392C163.058 102.393 163.058 102.395 163.058 102.397C163.058 102.398 163.058 102.4 163.058 102.402C163.058 102.404 163.058 102.405 163.058 102.407C163.058 102.409 163.058 102.411 163.058 102.412C163.058 102.414 163.058 102.416 163.058 102.418C163.058 102.419 163.058 102.421 163.058 102.423C163.058 102.425 163.058 102.426 163.058 102.428C163.058 102.43 163.058 102.432 163.058 102.433C163.058 102.435 163.058 102.437 163.058 102.438C163.058 102.44 163.058 102.442 163.058 102.444C163.058 102.445 163.058 102.447 163.058 102.449C163.058 102.451 163.058 102.452 163.058 102.454C163.058 102.456 163.058 102.458 163.058 102.459C163.058 102.461 163.058 102.463 163.058 102.465C163.058 102.466 163.058 102.468 163.058 102.47C163.058 102.472 163.058 102.473 163.058 102.475C163.058 102.477 163.058 102.479 163.058 102.48C163.058 102.482 163.058 102.484 163.058 102.486C163.058 102.487 163.058 102.489 163.058 102.491C163.058 102.493 163.058 102.494 163.058 102.496C163.058 102.498 163.058 102.5 163.058 102.501C163.058 102.503 163.058 102.505 163.058 102.507C163.058 102.508 163.058 102.51 163.058 102.512C163.058 102.514 163.058 102.515 163.058 102.517C163.058 102.519 163.058 102.521 163.058 102.522C163.058 102.524 163.058 102.526 163.058 102.528C163.058 102.53 163.058 102.531 163.058 102.533C163.058 102.535 163.058 102.537 163.058 102.538C163.058 102.54 163.058 102.542 163.058 102.544C163.058 102.545 163.058 102.547 163.058 102.549C163.058 102.551 163.058 102.552 163.058 102.554C163.058 102.556 163.058 102.558 163.058 102.559C163.058 102.561 163.058 102.563 163.058 102.565C163.058 102.567 163.058 102.568 163.058 102.57C163.058 102.572 163.058 102.574 163.058 102.575C163.058 102.577 163.058 102.579 163.058 102.581C163.058 102.582 163.058 102.584 163.058 102.586C163.058 102.588 163.058 102.59 163.058 102.591C163.058 102.593 163.058 102.595 163.058 102.597C163.058 102.598 163.058 102.6 163.058 102.602C163.058 102.604 163.058 102.605 163.058 102.607C163.058 102.609 163.058 102.611 163.058 102.613C163.058 102.614 163.058 102.616 163.058 102.618C163.058 102.62 163.058 102.621 163.058 102.623C163.058 102.625 163.058 102.627 163.058 102.629C163.058 102.63 163.058 102.632 163.058 102.634C163.058 102.636 163.058 102.637 163.058 102.639C163.058 102.641 163.058 102.643 163.058 102.645C163.058 102.646 163.058 102.648 163.058 102.65C163.058 102.652 163.058 102.653 163.058 102.655C163.058 102.657 163.058 102.659 163.058 102.661C163.058 102.662 163.058 102.664 163.058 102.666C163.058 102.668 163.058 102.669 163.058 102.671C163.058 102.673 163.058 102.675 163.058 102.677C163.058 102.678 163.058 102.68 163.058 102.682C163.058 102.684 163.058 102.686 163.058 102.687C163.058 102.689 163.058 102.691 163.058 102.693C163.058 102.694 163.058 102.696 163.058 102.698C163.058 102.7 163.058 102.702 163.058 102.703C163.058 102.705 163.058 102.707 163.058 102.709C163.058 102.711 163.058 102.712 163.058 102.714C163.058 102.716 163.058 102.718 163.058 102.719C163.058 102.721 163.058 102.723 163.058 102.725C163.058 102.727 163.058 102.728 163.058 102.73C163.058 102.732 163.058 102.734 163.058 102.736C163.058 102.737 163.058 102.739 163.058 102.741C163.058 102.743 163.058 102.745 163.058 102.746C163.058 102.748 163.058 102.75 163.058 102.752C163.058 102.754 163.058 102.755 163.058 102.757C163.058 102.759 163.058 102.761 163.058 102.763C163.058 102.764 163.058 102.766 163.058 102.768C163.058 102.77 163.058 102.772 163.058 102.773C163.058 102.775 163.058 102.777 163.058 102.779C163.058 102.781 163.058 102.782 163.058 102.784C163.058 102.786 163.058 102.788 163.058 102.79C163.058 102.791 163.058 102.793 163.058 102.795C163.058 102.797 163.058 102.799 163.058 102.8C163.058 102.802 163.058 102.804 163.058 102.806C163.058 102.808 163.058 102.809 163.058 102.811C163.058 102.813 163.058 102.815 163.058 102.817C163.058 102.819 163.058 102.82 163.058 102.822C163.058 102.824 163.058 102.826 163.058 102.828C163.058 102.829 163.058 102.831 163.058 102.833C163.058 102.835 163.058 102.837 163.058 102.838C163.058 102.84 163.058 102.842 163.058 102.844C163.058 102.846 163.058 102.847 163.058 102.849C163.058 102.851 163.058 102.853 163.058 102.855C163.058 102.857 163.058 102.858 163.058 102.86C163.058 102.862 163.058 102.864 163.058 102.866C163.058 102.867 163.058 102.869 163.058 102.871C163.058 102.873 163.058 102.875 163.058 102.877C163.058 102.878 163.058 102.88 163.058 102.882C163.058 102.884 163.058 102.886 163.058 102.887C163.058 102.889 163.058 102.891 163.058 102.893C163.058 102.895 163.058 102.897 163.058 102.898C163.058 102.9 163.058 102.902 163.058 102.904C163.058 102.906 163.058 102.907 163.058 102.909C163.058 102.911 163.058 102.913 163.058 102.915C163.058 102.917 163.058 102.918 163.058 102.92C163.058 102.922 163.058 102.924 163.058 102.926C163.058 102.928 163.058 102.929 163.058 102.931C163.058 102.933 163.058 102.935 163.058 102.937C163.058 102.939 163.058 102.94 163.058 102.942C163.058 102.944 163.058 102.946 163.058 102.948C163.058 102.95 163.058 102.951 163.058 102.953C163.058 102.955 163.058 102.957 163.058 102.959C163.058 102.96 163.058 102.962 163.058 102.964C163.058 102.966 163.058 102.968 163.058 102.97C163.058 102.971 163.058 102.973 163.058 102.975C163.058 102.977 163.058 102.979 163.058 102.981C163.058 102.982 163.058 102.984 163.058 102.986C163.058 102.988 163.058 102.99 163.058 102.992C163.058 102.994 163.058 102.995 163.058 102.997C163.058 102.999 163.058 103.001 163.058 103.003C163.058 103.005 163.058 103.006 163.058 103.008C163.058 103.01 163.058 103.012 163.058 103.014C163.058 103.016 163.058 103.017 163.058 103.019C163.058 103.021 163.058 103.023 163.058 103.025C163.058 103.027 163.058 103.028 163.058 103.03C163.058 103.032 163.058 103.034 163.058 103.036C163.058 103.038 163.058 103.04 163.058 103.041C163.058 103.043 163.058 103.045 163.058 103.047C163.058 103.049 163.058 103.051 163.058 103.052C163.058 103.054 163.058 103.056 163.058 103.058C163.058 103.06 163.058 103.062 163.058 103.064C163.058 103.065 163.058 103.067 163.058 103.069C163.058 103.071 163.058 103.073 163.058 103.075C163.058 103.077 163.058 103.078 163.058 103.08C163.058 103.082 163.058 103.084 163.058 103.086C163.058 103.088 163.058 103.089 163.058 103.091C163.058 103.093 163.058 103.095 163.058 103.097C163.058 103.099 163.058 103.101 163.058 103.102C163.058 103.104 163.058 103.106 163.058 103.108C163.058 103.11 163.058 103.112 163.058 103.114C163.058 103.115 163.058 103.117 163.058 103.119C163.058 103.121 163.058 103.123 163.058 103.125C163.058 103.127 163.058 103.128 163.058 103.13C163.058 103.132 163.058 103.134 163.058 103.136C163.058 103.138 163.058 103.14 163.058 103.142C163.058 103.143 163.058 103.145 163.058 103.147C163.058 103.149 163.058 103.151 163.058 103.153C163.058 103.155 163.058 103.156 163.058 103.158C163.058 103.16 163.058 103.162 163.058 103.164C163.058 103.166 163.058 103.168 163.058 103.169C163.058 103.171 163.058 103.173 163.058 103.175C163.058 103.177 163.058 103.179 163.058 103.181C163.058 103.183 163.058 103.184 163.058 103.186C163.058 103.188 163.058 103.19 163.058 103.192C163.058 103.194 163.058 103.196 163.058 103.198C163.058 103.199 163.058 103.201 163.058 103.203C163.058 103.205 163.058 103.207 163.058 103.209C163.058 103.211 163.058 103.213 163.058 103.214C163.058 103.216 163.058 103.218 163.058 103.22C163.058 103.222 163.058 103.224 163.058 103.226C163.058 103.228 163.058 103.229 163.058 103.231C163.058 103.233 163.058 103.235 163.058 103.237C163.058 103.239 163.058 103.241 163.058 103.243C163.058 103.244 163.058 103.246 163.058 103.248C163.058 103.25 163.058 103.252 163.058 103.254C163.058 103.256 163.058 103.258 163.058 103.259C163.058 103.261 163.058 103.263 163.058 103.265C163.058 103.267 163.058 103.269 163.058 103.271C163.058 103.273 163.058 103.275 163.058 103.276C163.058 103.278 163.058 103.28 163.058 103.282C163.058 103.284 163.058 103.286 163.058 103.288C163.058 103.29 163.058 103.291 163.058 103.293C163.058 103.295 163.058 103.297 163.058 103.299C163.058 103.301 163.058 103.303 163.058 103.305C163.058 103.307 163.058 103.308 163.058 103.31C163.058 103.312 163.058 103.314 163.058 103.316C163.058 103.318 163.058 103.32 163.058 103.322C163.058 103.324 163.058 103.325 163.058 103.327C163.058 103.329 163.058 103.331 163.058 103.333C163.058 103.335 163.058 103.337 163.058 103.339C163.058 103.341 163.058 103.343 163.058 103.344C163.058 103.346 163.058 103.348 163.058 103.35C163.058 103.352 163.058 103.354 163.058 103.356C163.058 103.358 163.058 103.36 163.058 103.361C163.058 103.363 163.058 103.365 163.058 103.367C163.058 103.369 163.058 103.371 163.058 103.373C163.058 103.375 163.058 103.377 163.058 103.379C163.058 103.38 163.058 103.382 163.058 103.384C163.058 103.386 163.058 103.388 163.058 103.39C163.058 103.392 163.058 103.394 163.058 103.396C163.058 103.398 163.058 103.4 163.058 103.401C163.058 103.403 163.058 103.405 163.058 103.407C163.058 103.409 163.058 103.411 163.058 103.413C163.058 103.415 163.058 103.417 163.058 103.419C163.058 103.42 163.058 103.422 163.058 103.424C163.058 103.426 163.058 103.428 163.058 103.43C163.058 103.432 163.058 103.434 163.058 103.436C163.058 103.438 163.058 103.44 163.058 103.441C163.058 103.443 163.058 103.445 163.058 103.447C163.058 103.449 163.058 103.451 163.058 103.453C163.058 103.455 163.058 103.457 163.058 103.459C163.058 103.461 163.058 103.462 163.058 103.464C163.058 103.466 163.058 103.468 163.058 103.47C163.058 103.472 163.058 103.474 163.058 103.476C163.058 103.478 163.058 103.48 163.058 103.482C163.058 103.484 163.058 103.485 163.058 103.487C163.058 103.489 163.058 103.491 163.058 103.493C163.058 103.495 163.058 103.497 163.058 103.499C163.058 103.501 163.058 103.503 163.058 103.505C163.058 103.507 163.058 103.509 163.058 103.51C163.058 103.512 163.058 103.514 163.058 103.516C163.058 103.518 163.058 103.52 163.058 103.522C163.058 103.524 163.058 103.526 163.058 103.528C163.058 103.53 163.058 103.532 163.058 103.534C163.058 103.535 163.058 103.537 163.058 103.539C163.058 103.541 163.058 103.543 163.058 103.545C163.058 103.547 163.058 103.549 163.058 103.551C163.058 103.553 163.058 103.555 163.058 103.557C163.058 103.559 163.058 103.561 163.058 103.562C163.058 103.564 163.058 103.566 163.058 103.568C163.058 103.57 163.058 103.572 163.058 103.574C163.058 103.576 163.058 103.578 163.058 103.58C163.058 103.582 163.058 103.584 163.058 103.586C163.058 103.588 163.058 103.589 163.058 103.591C163.058 103.593 163.058 103.595 163.058 103.597C163.058 103.599 163.058 103.601 163.058 103.603C163.058 103.605 163.058 103.607 163.058 103.609C163.058 103.611 163.058 103.613 163.058 103.615C163.058 103.617 163.058 103.619 163.058 103.62C163.058 103.622 163.058 103.624 163.058 103.626C163.058 103.628 163.058 103.63 163.058 103.632C163.058 103.634 163.058 103.636 163.058 103.638C163.058 103.64 163.058 103.642 163.058 103.644C163.058 103.646 163.058 103.648 163.058 103.65C163.058 103.652 163.058 103.653 163.058 103.655C163.058 103.657 163.058 103.659 163.058 103.661C163.058 103.663 163.058 103.665 163.058 103.667C163.058 103.669 163.058 103.671 163.058 103.673C163.058 103.675 163.058 103.677 163.058 103.679C163.058 103.681 163.058 103.683 163.058 103.685C163.058 103.687 163.058 103.689 163.058 103.69C163.058 103.692 163.058 103.694 163.058 103.696C163.058 103.698 163.058 103.7 163.058 103.702C163.058 103.704 163.058 103.706 163.058 103.708C163.058 103.71 163.058 103.712 163.058 103.714C163.058 103.716 163.058 103.718 163.058 103.72C163.058 103.722 163.058 103.724 163.058 103.726C163.058 103.728 163.058 103.73 163.058 103.732C163.058 103.733 163.058 103.735 163.058 103.737C163.058 103.739 163.058 103.741 163.058 103.743C163.058 103.745 163.058 103.747 163.058 103.749C163.058 103.751 163.058 103.753 163.058 103.755C163.058 103.757 163.058 103.759 163.058 103.761C163.058 103.763 163.058 103.765 163.058 103.767C163.058 103.769 163.058 103.771 163.058 103.773C163.058 103.775 163.058 103.777 163.058 103.779C163.058 103.781 163.058 103.782 163.058 103.784C163.058 103.786 163.058 103.788 163.058 103.79C163.058 103.792 163.058 103.794 163.058 103.796C163.058 103.798 163.058 103.8 163.058 103.802C163.058 103.804 163.058 103.806 163.058 103.808C163.058 103.81 163.058 103.812 163.058 103.814C163.058 103.816 163.058 103.818 163.058 103.82C163.058 103.822 163.058 103.824 163.058 103.826C163.058 103.828 163.058 103.83 163.058 103.832C163.058 103.834 163.058 103.836 163.058 103.838C163.058 103.84 163.058 103.842 163.058 103.844C163.058 103.845 163.058 103.847 163.058 103.849C163.058 103.851 163.058 103.853 163.058 103.855C163.058 103.857 163.058 103.859 163.058 103.861C163.058 103.863 163.058 103.865 163.058 103.867C163.058 103.869 163.058 103.871 163.058 103.873C163.058 103.875 163.058 103.877 163.058 103.879C163.058 103.881 163.058 103.883 163.058 103.885C163.058 103.887 163.058 103.889 163.058 103.891C163.058 103.893 163.058 103.895 163.058 103.897C163.058 103.899 163.058 103.901 163.058 103.903C163.058 103.905 163.058 103.907 163.058 103.909C163.058 103.911 163.058 103.913 163.058 103.915C163.058 103.917 163.058 103.919 163.058 103.921C163.058 103.923 163.058 103.925 163.058 103.927C163.058 103.929 163.058 103.931 163.058 103.933C163.058 103.935 163.058 103.937 163.058 103.939C163.058 103.941 163.058 103.943 163.058 103.945C163.058 103.947 163.058 103.949 163.058 103.951C163.058 103.953 163.058 103.955 163.058 103.957C163.058 103.959 163.058 103.961 163.058 103.962C163.058 103.964 163.058 103.966 163.058 103.968C163.058 103.97 163.058 103.972 163.058 103.974C163.058 103.976 163.058 103.978 163.058 103.98C163.058 103.982 163.058 103.984 163.058 103.986C163.058 103.988 163.058 103.99 163.058 103.992C163.058 103.994 163.058 103.996 163.058 103.998C163.058 104 163.058 104.002 163.058 104.004C163.058 104.006 163.058 104.008 163.058 104.01C163.058 104.012 163.058 104.014 163.058 104.016C163.058 104.018 163.058 104.02 163.058 104.022C163.058 104.024 163.058 104.026 163.058 104.028C163.058 104.03 163.058 104.032 163.058 104.034C163.058 104.036 163.058 104.038 163.058 104.04C163.058 104.042 163.058 104.044 163.058 104.046C163.058 104.048 163.058 104.05 163.058 104.052C163.058 104.054 163.058 104.056 163.058 104.058C163.058 104.06 163.058 104.062 163.058 104.064C163.058 104.067 163.058 104.069 163.058 104.071C163.058 104.073 163.058 104.075 163.058 104.077C163.058 104.079 163.058 104.081 163.058 104.083C163.058 104.085 163.058 104.087 163.058 104.089C163.058 104.091 163.058 104.093 163.058 104.095C163.058 104.097 163.058 104.099 163.058 104.101C163.058 104.103 163.058 104.105 163.058 104.107C163.058 104.109 163.058 104.111 163.058 104.113C163.058 104.115 163.058 104.117 163.058 104.119C163.058 104.121 163.058 104.123 163.058 104.125C163.058 104.127 163.058 104.129 163.058 104.131C163.058 104.133 163.058 104.135 163.058 104.137C163.058 104.139 163.058 104.141 163.058 104.143C163.058 104.145 163.058 104.147 163.058 104.149C163.058 104.151 163.058 104.153 163.058 104.155C163.058 104.157 163.058 104.159 163.058 104.161C163.058 104.163 163.058 104.165 163.058 104.167C163.058 104.169 163.058 104.171 163.058 104.173C163.058 104.175 163.058 104.177 163.058 104.179C163.058 104.181 163.058 104.183 163.058 104.186C163.058 104.188 163.058 104.19 163.058 104.192C163.058 104.194 163.058 104.196 163.058 104.198C163.058 104.2 163.058 104.202 163.058 104.204C163.058 104.206 163.058 104.208 163.058 104.21C163.058 104.212 163.058 104.214 163.058 104.216C163.058 104.218 163.058 104.22 163.058 104.222C163.058 104.224 163.058 104.226 163.058 104.228C163.058 104.23 163.058 104.232 163.058 104.234C163.058 104.236 163.058 104.238 163.058 104.24C163.058 104.242 163.058 104.244 163.058 104.246C163.058 104.248 163.058 104.251 163.058 104.253C163.058 104.255 163.058 104.257 163.058 104.259C163.058 104.261 163.058 104.263 163.058 104.265C163.058 104.267 163.058 104.269 163.058 104.271C163.058 104.273 163.058 104.275 163.058 104.277C163.058 104.279 163.058 104.281 163.058 104.283C163.058 104.285 163.058 104.287 163.058 104.289C163.058 104.291 163.058 104.293 163.058 104.295C163.058 104.297 163.058 104.299 163.058 104.301C163.058 104.304 163.058 104.306 163.058 104.308C163.058 104.31 163.058 104.312 163.058 104.314C163.058 104.316 163.058 104.318 163.058 104.32C163.058 104.322 163.058 104.324 163.058 104.326C163.058 104.328 163.058 104.33 163.058 104.332C163.058 104.334 163.058 104.336 163.058 104.338C163.058 104.34 163.058 104.342 163.058 104.344C163.058 104.347 163.058 104.349 163.058 104.351C163.058 104.353 163.058 104.355 163.058 104.357C163.058 104.359 163.058 104.361 163.058 104.363C163.058 104.365 163.058 104.367 163.058 104.369C163.058 104.371 163.058 104.373 163.058 104.375C163.058 104.377 163.058 104.379 163.058 104.381C163.058 104.383 163.058 104.386 163.058 104.388C163.058 104.39 163.058 104.392 163.058 104.394C163.058 104.396 163.058 104.398 163.058 104.4C163.058 104.402 163.058 104.404 163.058 104.406C163.058 104.408 163.058 104.41 163.058 104.412C163.058 104.414 163.058 104.416 163.058 104.418C163.058 104.421 163.058 104.423 163.058 104.425C163.058 104.427 163.058 104.429 163.058 104.431C163.058 104.433 163.058 104.435 163.058 104.437C163.058 104.439 163.058 104.441 163.058 104.443C163.058 104.445 163.058 104.447 163.058 104.449C163.058 104.451 163.058 104.454 163.058 104.456C163.058 104.458 163.058 104.46 163.058 104.462C163.058 104.464 163.058 104.466 163.058 104.468C163.058 104.47 163.058 104.472 163.058 104.474C163.058 104.476 163.058 104.478 163.058 104.48C163.058 104.482 163.058 104.485 163.058 104.487C163.058 104.489 163.058 104.491 163.058 104.493C163.058 104.495 163.058 104.497 163.058 104.499C163.058 104.501 163.058 104.503 163.058 104.505C163.058 104.507 163.058 104.509 163.058 104.512C163.058 104.514 163.058 104.516 163.058 104.518C163.058 104.52 163.058 104.522 163.058 104.524C163.058 104.526 163.058 104.528 163.058 104.53C163.058 104.532 163.058 104.534 163.058 104.536C163.058 104.539 163.058 104.541 163.058 104.543C163.058 104.545 163.058 104.547 163.058 104.549C163.058 104.551 163.058 104.553 163.058 104.555C163.058 104.557 163.058 104.559 163.058 104.561C163.058 104.563 163.058 104.566 163.058 104.568C163.058 104.57 163.058 104.572 163.058 104.574C163.058 104.576 163.058 104.578 163.058 104.58C163.058 104.582 163.058 104.584 163.058 104.586C163.058 104.588 163.058 104.591 163.058 104.593C163.058 104.595 163.058 104.597 163.058 104.599C163.058 104.601 163.058 104.603 163.058 104.605C163.058 104.607 163.058 104.609 163.058 104.611C163.058 104.614 163.058 104.616 163.058 104.618C163.058 104.62 163.058 104.622 163.058 104.624C163.058 104.626 163.058 104.628 163.058 104.63C163.058 104.632 163.058 104.634 163.058 104.637C163.058 104.639 163.058 104.641 163.058 104.643C163.058 104.645 163.058 104.647 163.058 104.649C163.058 104.651 163.058 104.653 163.058 104.655C163.058 104.657 163.058 104.66 163.058 104.662C163.058 104.664 163.058 104.666 163.058 104.668C163.058 104.67 163.058 104.672 163.058 104.674C163.058 104.676 163.058 104.678 163.058 104.681C163.058 104.683 163.058 104.685 163.058 104.687C163.058 104.689 163.058 104.691 163.058 104.693C163.058 104.695 163.058 104.697 163.058 104.699C163.058 104.702 163.058 104.704 163.058 104.706C163.058 104.708 163.058 104.71 163.058 104.712C163.058 104.714 163.058 104.716 163.058 104.718C163.058 104.72 163.058 104.723 163.058 104.725C163.058 104.727 163.058 104.729 163.058 104.731C163.058 104.733 163.058 104.735 163.058 104.737C163.058 104.739 163.058 104.742 163.058 104.744C163.058 104.746 163.058 104.748 163.058 104.75H165.058ZM165.058 101.87L167.057 101.918C167.077 101.082 167.097 100.379 167.116 99.8089L165.118 99.74L163.119 99.6711C163.098 100.261 163.078 100.978 163.058 101.822L165.058 101.87ZM165.118 99.74L167.117 99.7988C167.136 99.1415 167.165 98.5741 167.202 98.0934L165.208 97.94L163.213 97.7866C163.17 98.3459 163.139 98.9785 163.118 99.6812L165.118 99.74ZM165.208 97.94L163.66 96.6733L155.41 106.753L156.958 108.02L158.505 109.287L166.755 99.2067L165.208 97.94ZM153.898 108.38L155.438 109.656L166.598 96.186L165.058 94.91L163.517 93.634L152.357 107.104L153.898 108.38ZM165.058 94.91V96.91H167.458V94.91V92.91H165.058V94.91ZM167.458 94.91H165.458V107.9H167.458H169.458V94.91H167.458ZM167.458 107.9V109.9H169.558V107.9V105.9H167.458V107.9ZM169.558 107.9H167.558V110H169.558H171.558V107.9H169.558ZM169.558 110V108H167.458V110V112H169.558V110ZM167.458 110H165.458V115.85H167.458H169.458V110H167.458ZM167.458 115.85V113.85H165.058V115.85V117.85H167.458V115.85ZM165.058 115.85H167.058V110H165.058H163.058V115.85H165.058ZM165.058 110V108H154.048V110V112H165.058V110ZM154.048 110L156.039 109.816L155.889 108.196L153.898 108.38L151.906 108.564L152.056 110.184L154.048 110Z" fill="black" mask="url(#path-2-outside-1_46_1103)"/>
</svg>
