<svg width="612" height="177" viewBox="0 0 612 177" fill="none" xmlns="http://www.w3.org/2000/svg">
<rect x="2.5" y="2.5" width="607" height="172" rx="12.5" fill="white" stroke="black" stroke-width="5"/>
<mask id="path-2-outside-1_23_1334" maskUnits="userSpaceOnUse" x="52" y="55" width="492" height="68" fill="black">
<rect fill="white" x="52" y="55" width="492" height="68"/>
<path d="M101.901 69.12C99.554 68.64 97.0473 68.1867 94.3806 67.76C91.7673 67.3333 88.7273 67.0667 85.2606 66.96C81.7406 67.0133 78.7006 67.5467 76.1406 68.56C73.5806 69.5733 71.474 71.04 69.8206 72.96C68.2206 74.8267 67.0206 77.0667 66.2206 79.68C65.4206 82.2933 65.0206 85.1733 65.0206 88.32C65.0206 92.3733 65.5273 95.84 66.5406 98.72C67.6073 101.6 69.0473 103.973 70.8606 105.84C72.7273 107.653 74.8873 108.987 77.3406 109.84C79.794 110.693 82.434 111.12 85.2606 111.12C87.074 111.12 88.7006 111.013 90.1406 110.8C91.634 110.587 92.914 110.347 93.9806 110.08C95.1006 109.76 96.114 109.413 97.0206 109.04V94.4H87.0206V88.4H103.821V112.32C101.954 113.547 99.3673 114.667 96.0606 115.68C92.8073 116.64 89.2073 117.093 85.2606 117.04C81.634 117.04 78.1406 116.613 74.7806 115.76C71.474 114.907 68.514 113.413 65.9006 111.28C63.3406 109.093 61.2873 106.133 59.7406 102.4C58.194 98.6667 57.4206 93.9467 57.4206 88.24C57.4206 83.6 58.1406 79.5733 59.5806 76.16C61.0206 72.6933 62.9673 69.84 65.4206 67.6C67.9273 65.3067 70.8073 63.6 74.0606 62.48C77.3673 61.3067 80.8606 60.72 84.5406 60.72C86.9406 60.72 89.2606 60.8533 91.5006 61.12C93.7406 61.3333 95.794 61.6 97.6606 61.92C99.5273 62.1867 101.314 62.5333 103.021 62.96L101.901 69.12ZM131.371 61.44H139.691L158.411 116H151.451L146.651 101.44H124.491L119.611 116H112.651L131.371 61.44ZM144.491 95.04L135.691 67.84H135.451L126.571 95.04H144.491ZM170.919 61.44H179.479L191.799 93.92C192.493 95.7867 193.133 97.52 193.719 99.12C194.306 100.667 194.813 102.053 195.239 103.28C195.773 104.667 196.226 105.947 196.599 107.12H196.759C197.079 105.947 197.479 104.667 197.959 103.28C198.386 102.053 198.866 100.667 199.399 99.12C199.933 97.52 200.573 95.7867 201.319 93.92L213.879 61.44H222.439L225.239 116H218.439L217.079 86C216.973 83.3867 216.893 81.1733 216.839 79.36C216.786 77.5467 216.759 76.0533 216.759 74.88V71.52H216.599C216.279 72.32 215.879 73.4133 215.399 74.8C214.973 75.9733 214.413 77.4933 213.719 79.36C213.079 81.1733 212.279 83.3867 211.319 86L200.039 116H193.239L181.879 86C180.866 83.44 180.039 81.2533 179.399 79.44C178.759 77.5733 178.226 76.0533 177.799 74.88C177.319 73.4933 176.946 72.3733 176.679 71.52H176.519C176.573 72.3733 176.626 73.4933 176.679 74.88C176.733 77.12 176.653 80.8267 176.439 86L174.839 116H168.039L170.919 61.44ZM240.471 61.44H273.911V67.6H247.191V85.04H271.991V91.04H247.191V109.84H274.711V116H240.471V61.44ZM308.709 61.44H322.149C325.082 61.44 327.749 61.7067 330.149 62.24C332.602 62.72 334.682 63.5733 336.389 64.8C338.095 65.9733 339.402 67.5467 340.309 69.52C341.215 71.4933 341.669 73.9733 341.669 76.96C341.615 80.2667 341.055 82.96 339.989 85.04C338.922 87.0667 337.615 88.72 336.069 90C334.522 91.2267 332.735 92.1333 330.709 92.72V92.88C330.922 93.0933 331.242 93.4933 331.669 94.08C332.149 94.6133 332.549 95.0933 332.869 95.52L348.309 116H340.389L324.549 94.32H315.429V116H308.709V61.44ZM334.869 78.08C334.869 75.84 334.575 74.0267 333.989 72.64C333.455 71.2 332.629 70.1067 331.509 69.36C330.442 68.6133 329.109 68.1067 327.509 67.84C325.909 67.5733 324.095 67.44 322.069 67.44H315.429V88.32H323.349C325.429 88.32 327.189 88.0533 328.629 87.52C330.069 86.9867 331.242 86.2667 332.149 85.36C333.055 84.4 333.722 83.3067 334.149 82.08C334.575 80.8533 334.815 79.52 334.869 78.08ZM363.366 61.44V95.52C363.366 98.56 363.793 101.067 364.646 103.04C365.553 104.96 366.726 106.48 368.166 107.6C369.606 108.72 371.233 109.493 373.046 109.92C374.913 110.347 376.806 110.56 378.726 110.56C380.646 110.56 382.513 110.347 384.326 109.92C386.14 109.493 387.766 108.72 389.206 107.6C390.646 106.48 391.793 104.96 392.646 103.04C393.5 101.067 393.926 98.56 393.926 95.52V61.44H400.646V97.2C400.646 99.9733 400.113 102.56 399.046 104.96C398.033 107.36 396.566 109.467 394.646 111.28C392.726 113.04 390.406 114.427 387.686 115.44C384.966 116.453 381.953 116.96 378.646 116.96C371.553 116.96 366.113 115.253 362.326 111.84C358.54 108.373 356.646 103.493 356.646 97.2V61.44H363.366ZM416.712 61.44H423.432V109.6H448.232V116H416.712V61.44ZM459.034 61.44H492.474V67.6H465.754V85.04H490.554V91.04H465.754V109.84H493.274V116H459.034V61.44ZM534.51 68.96C533.23 68.64 531.897 68.3467 530.51 68.08C529.283 67.8133 527.87 67.6 526.27 67.44C524.723 67.2267 523.097 67.12 521.39 67.12C517.443 67.12 514.617 67.7333 512.91 68.96C511.203 70.1333 510.35 71.9733 510.35 74.48C510.403 76.4533 511.123 78.1333 512.51 79.52C513.897 80.8533 515.63 82.1067 517.71 83.28C519.79 84.4 522.057 85.52 524.51 86.64C527.017 87.7067 529.31 88.96 531.39 90.4C533.47 91.7867 535.203 93.44 536.59 95.36C538.03 97.2267 538.75 99.52 538.75 102.24C538.75 105.387 538.057 107.92 536.67 109.84C535.337 111.76 533.63 113.253 531.55 114.32C529.47 115.387 527.177 116.107 524.67 116.48C522.217 116.853 519.87 117.04 517.63 117.04C515.497 117.04 513.55 116.907 511.79 116.64C510.03 116.373 508.51 116.08 507.23 115.76C505.737 115.387 504.377 114.96 503.15 114.48L504.75 108C505.977 108.533 507.283 108.987 508.67 109.36C509.897 109.68 511.257 109.973 512.75 110.24C514.297 110.507 515.923 110.64 517.63 110.64C519.71 110.64 521.603 110.507 523.31 110.24C525.07 109.973 526.59 109.547 527.87 108.96C529.15 108.373 530.137 107.6 530.83 106.64C531.577 105.68 531.95 104.507 531.95 103.12C531.897 101.04 531.203 99.36 529.87 98.08C528.59 96.7467 526.857 95.4933 524.67 94.32C522.537 93.0933 520.217 91.92 517.71 90.8C515.257 89.68 512.99 88.4 510.91 86.96C508.83 85.52 507.07 83.8133 505.63 81.84C504.243 79.8667 503.55 77.4133 503.55 74.48C503.55 72.7733 503.843 71.0933 504.43 69.44C505.017 67.7867 506.003 66.32 507.39 65.04C508.83 63.76 510.67 62.72 512.91 61.92C515.203 61.12 518.03 60.72 521.39 60.72C523.31 60.72 525.123 60.8267 526.83 61.04C528.59 61.2 530.11 61.3867 531.39 61.6C532.883 61.8667 534.297 62.16 535.63 62.48L534.51 68.96Z"/>
</mask>
<path d="M101.901 69.12C99.554 68.64 97.0473 68.1867 94.3806 67.76C91.7673 67.3333 88.7273 67.0667 85.2606 66.96C81.7406 67.0133 78.7006 67.5467 76.1406 68.56C73.5806 69.5733 71.474 71.04 69.8206 72.96C68.2206 74.8267 67.0206 77.0667 66.2206 79.68C65.4206 82.2933 65.0206 85.1733 65.0206 88.32C65.0206 92.3733 65.5273 95.84 66.5406 98.72C67.6073 101.6 69.0473 103.973 70.8606 105.84C72.7273 107.653 74.8873 108.987 77.3406 109.84C79.794 110.693 82.434 111.12 85.2606 111.12C87.074 111.12 88.7006 111.013 90.1406 110.8C91.634 110.587 92.914 110.347 93.9806 110.08C95.1006 109.76 96.114 109.413 97.0206 109.04V94.4H87.0206V88.4H103.821V112.32C101.954 113.547 99.3673 114.667 96.0606 115.68C92.8073 116.64 89.2073 117.093 85.2606 117.04C81.634 117.04 78.1406 116.613 74.7806 115.76C71.474 114.907 68.514 113.413 65.9006 111.28C63.3406 109.093 61.2873 106.133 59.7406 102.4C58.194 98.6667 57.4206 93.9467 57.4206 88.24C57.4206 83.6 58.1406 79.5733 59.5806 76.16C61.0206 72.6933 62.9673 69.84 65.4206 67.6C67.9273 65.3067 70.8073 63.6 74.0606 62.48C77.3673 61.3067 80.8606 60.72 84.5406 60.72C86.9406 60.72 89.2606 60.8533 91.5006 61.12C93.7406 61.3333 95.794 61.6 97.6606 61.92C99.5273 62.1867 101.314 62.5333 103.021 62.96L101.901 69.12ZM131.371 61.44H139.691L158.411 116H151.451L146.651 101.44H124.491L119.611 116H112.651L131.371 61.44ZM144.491 95.04L135.691 67.84H135.451L126.571 95.04H144.491ZM170.919 61.44H179.479L191.799 93.92C192.493 95.7867 193.133 97.52 193.719 99.12C194.306 100.667 194.813 102.053 195.239 103.28C195.773 104.667 196.226 105.947 196.599 107.12H196.759C197.079 105.947 197.479 104.667 197.959 103.28C198.386 102.053 198.866 100.667 199.399 99.12C199.933 97.52 200.573 95.7867 201.319 93.92L213.879 61.44H222.439L225.239 116H218.439L217.079 86C216.973 83.3867 216.893 81.1733 216.839 79.36C216.786 77.5467 216.759 76.0533 216.759 74.88V71.52H216.599C216.279 72.32 215.879 73.4133 215.399 74.8C214.973 75.9733 214.413 77.4933 213.719 79.36C213.079 81.1733 212.279 83.3867 211.319 86L200.039 116H193.239L181.879 86C180.866 83.44 180.039 81.2533 179.399 79.44C178.759 77.5733 178.226 76.0533 177.799 74.88C177.319 73.4933 176.946 72.3733 176.679 71.52H176.519C176.573 72.3733 176.626 73.4933 176.679 74.88C176.733 77.12 176.653 80.8267 176.439 86L174.839 116H168.039L170.919 61.44ZM240.471 61.44H273.911V67.6H247.191V85.04H271.991V91.04H247.191V109.84H274.711V116H240.471V61.44ZM308.709 61.44H322.149C325.082 61.44 327.749 61.7067 330.149 62.24C332.602 62.72 334.682 63.5733 336.389 64.8C338.095 65.9733 339.402 67.5467 340.309 69.52C341.215 71.4933 341.669 73.9733 341.669 76.96C341.615 80.2667 341.055 82.96 339.989 85.04C338.922 87.0667 337.615 88.72 336.069 90C334.522 91.2267 332.735 92.1333 330.709 92.72V92.88C330.922 93.0933 331.242 93.4933 331.669 94.08C332.149 94.6133 332.549 95.0933 332.869 95.52L348.309 116H340.389L324.549 94.32H315.429V116H308.709V61.44ZM334.869 78.08C334.869 75.84 334.575 74.0267 333.989 72.64C333.455 71.2 332.629 70.1067 331.509 69.36C330.442 68.6133 329.109 68.1067 327.509 67.84C325.909 67.5733 324.095 67.44 322.069 67.44H315.429V88.32H323.349C325.429 88.32 327.189 88.0533 328.629 87.52C330.069 86.9867 331.242 86.2667 332.149 85.36C333.055 84.4 333.722 83.3067 334.149 82.08C334.575 80.8533 334.815 79.52 334.869 78.08ZM363.366 61.44V95.52C363.366 98.56 363.793 101.067 364.646 103.04C365.553 104.96 366.726 106.48 368.166 107.6C369.606 108.72 371.233 109.493 373.046 109.92C374.913 110.347 376.806 110.56 378.726 110.56C380.646 110.56 382.513 110.347 384.326 109.92C386.14 109.493 387.766 108.72 389.206 107.6C390.646 106.48 391.793 104.96 392.646 103.04C393.5 101.067 393.926 98.56 393.926 95.52V61.44H400.646V97.2C400.646 99.9733 400.113 102.56 399.046 104.96C398.033 107.36 396.566 109.467 394.646 111.28C392.726 113.04 390.406 114.427 387.686 115.44C384.966 116.453 381.953 116.96 378.646 116.96C371.553 116.96 366.113 115.253 362.326 111.84C358.54 108.373 356.646 103.493 356.646 97.2V61.44H363.366ZM416.712 61.44H423.432V109.6H448.232V116H416.712V61.44ZM459.034 61.44H492.474V67.6H465.754V85.04H490.554V91.04H465.754V109.84H493.274V116H459.034V61.44ZM534.51 68.96C533.23 68.64 531.897 68.3467 530.51 68.08C529.283 67.8133 527.87 67.6 526.27 67.44C524.723 67.2267 523.097 67.12 521.39 67.12C517.443 67.12 514.617 67.7333 512.91 68.96C511.203 70.1333 510.35 71.9733 510.35 74.48C510.403 76.4533 511.123 78.1333 512.51 79.52C513.897 80.8533 515.63 82.1067 517.71 83.28C519.79 84.4 522.057 85.52 524.51 86.64C527.017 87.7067 529.31 88.96 531.39 90.4C533.47 91.7867 535.203 93.44 536.59 95.36C538.03 97.2267 538.75 99.52 538.75 102.24C538.75 105.387 538.057 107.92 536.67 109.84C535.337 111.76 533.63 113.253 531.55 114.32C529.47 115.387 527.177 116.107 524.67 116.48C522.217 116.853 519.87 117.04 517.63 117.04C515.497 117.04 513.55 116.907 511.79 116.64C510.03 116.373 508.51 116.08 507.23 115.76C505.737 115.387 504.377 114.96 503.15 114.48L504.75 108C505.977 108.533 507.283 108.987 508.67 109.36C509.897 109.68 511.257 109.973 512.75 110.24C514.297 110.507 515.923 110.64 517.63 110.64C519.71 110.64 521.603 110.507 523.31 110.24C525.07 109.973 526.59 109.547 527.87 108.96C529.15 108.373 530.137 107.6 530.83 106.64C531.577 105.68 531.95 104.507 531.95 103.12C531.897 101.04 531.203 99.36 529.87 98.08C528.59 96.7467 526.857 95.4933 524.67 94.32C522.537 93.0933 520.217 91.92 517.71 90.8C515.257 89.68 512.99 88.4 510.91 86.96C508.83 85.52 507.07 83.8133 505.63 81.84C504.243 79.8667 503.55 77.4133 503.55 74.48C503.55 72.7733 503.843 71.0933 504.43 69.44C505.017 67.7867 506.003 66.32 507.39 65.04C508.83 63.76 510.67 62.72 512.91 61.92C515.203 61.12 518.03 60.72 521.39 60.72C523.31 60.72 525.123 60.8267 526.83 61.04C528.59 61.2 530.11 61.3867 531.39 61.6C532.883 61.8667 534.297 62.16 535.63 62.48L534.51 68.96Z" fill="black"/>
<path d="M101.901 69.12L100.899 74.0186L105.906 75.0427L106.82 70.0144L101.901 69.12ZM94.3806 67.76L93.575 72.6947L93.5828 72.6959L93.5907 72.6972L94.3806 67.76ZM85.2606 66.96L85.4144 61.9624L85.2997 61.9588L85.1849 61.9606L85.2606 66.96ZM76.1406 68.56L74.3004 63.911L74.3004 63.911L76.1406 68.56ZM69.8206 72.96L66.0318 69.6974L66.0243 69.706L69.8206 72.96ZM66.5406 98.72L61.8241 100.38L61.8377 100.418L61.8519 100.457L66.5406 98.72ZM70.8606 105.84L67.2742 109.324L67.3247 109.376L67.3767 109.426L70.8606 105.84ZM77.3406 109.84L78.9832 105.118H78.9832L77.3406 109.84ZM90.1406 110.8L89.4335 105.85L89.4207 105.852L89.4079 105.854L90.1406 110.8ZM93.9806 110.08L95.1933 114.931L95.2741 114.911L95.3542 114.888L93.9806 110.08ZM97.0206 109.04L98.9244 113.663L102.021 112.388V109.04H97.0206ZM97.0206 94.4H102.021V89.4H97.0206V94.4ZM87.0206 94.4H82.0206V99.4H87.0206V94.4ZM87.0206 88.4V83.4H82.0206V88.4H87.0206ZM103.821 88.4H108.821V83.4H103.821V88.4ZM103.821 112.32L106.567 116.499L108.821 115.017V112.32H103.821ZM96.0606 115.68L97.4757 120.476L97.5007 120.468L97.5256 120.461L96.0606 115.68ZM85.2606 117.04L85.3282 112.04L85.2944 112.04H85.2606V117.04ZM74.7806 115.76L73.5312 120.601L73.5405 120.604L73.5499 120.606L74.7806 115.76ZM65.9006 111.28L62.6532 115.082L62.6956 115.118L62.7387 115.153L65.9006 111.28ZM59.7406 102.4L64.3599 100.486L59.7406 102.4ZM59.5806 76.16L64.1874 78.1035L64.1928 78.0908L64.1981 78.078L59.5806 76.16ZM65.4206 67.6L68.792 71.2924L68.7957 71.289L65.4206 67.6ZM74.0606 62.48L75.6882 67.2077L75.7105 67.2L75.7327 67.1921L74.0606 62.48ZM91.5006 61.12L90.9096 66.0849L90.968 66.0919L91.0266 66.0975L91.5006 61.12ZM97.6606 61.92L96.8158 66.8481L96.8845 66.8599L96.9535 66.8697L97.6606 61.92ZM103.021 62.96L107.94 63.8544L108.778 59.2454L104.233 58.1093L103.021 62.96ZM101.901 69.12L102.903 64.2214C100.477 63.7254 97.8994 63.2594 95.1706 62.8228L94.3806 67.76L93.5907 72.6972C96.1952 73.1139 98.6306 73.5546 100.899 74.0186L101.901 69.12ZM94.3806 67.76L95.1863 62.8253C92.3031 62.3546 89.0368 62.0738 85.4144 61.9624L85.2606 66.96L85.1068 71.9576C88.4178 72.0595 91.2315 72.3121 93.575 72.6947L94.3806 67.76ZM85.2606 66.96L85.1849 61.9606C81.2211 62.0206 77.5548 62.6228 74.3004 63.911L76.1406 68.56L77.9809 73.209C79.8465 72.4706 82.2601 72.006 85.3364 71.9594L85.2606 66.96ZM76.1406 68.56L74.3004 63.911C71.0549 65.1956 68.2578 67.1123 66.0318 69.6974L69.8206 72.96L73.6095 76.2226C74.6901 74.9677 76.1064 73.951 77.9809 73.209L76.1406 68.56ZM69.8206 72.96L66.0243 69.706C63.9287 72.1509 62.4185 75.0186 61.4396 78.2164L66.2206 79.68L71.0016 81.1436C71.6227 79.1147 72.5125 77.5024 73.6169 76.214L69.8206 72.96ZM66.2206 79.68L61.4396 78.2164C60.4744 81.3695 60.0206 84.7508 60.0206 88.32H65.0206H70.0206C70.0206 85.5959 70.3669 83.2171 71.0016 81.1436L66.2206 79.68ZM65.0206 88.32H60.0206C60.0206 92.7646 60.573 96.8238 61.8241 100.38L66.5406 98.72L71.2572 97.0605C70.4816 94.8562 70.0206 91.9821 70.0206 88.32H65.0206ZM66.5406 98.72L61.8519 100.457C63.1174 103.873 64.8964 106.876 67.2742 109.324L70.8606 105.84L74.447 102.356C73.1982 101.07 72.0972 99.3266 71.2294 96.9834L66.5406 98.72ZM70.8606 105.84L67.3767 109.426C69.7658 111.747 72.554 113.469 75.698 114.562L77.3406 109.84L78.9832 105.118C77.2206 104.504 75.6887 103.559 74.3446 102.254L70.8606 105.84ZM77.3406 109.84L75.698 114.562C78.7241 115.615 81.924 116.12 85.2606 116.12V111.12V106.12C82.9439 106.12 80.8638 105.772 78.9832 105.118L77.3406 109.84ZM85.2606 111.12V116.12C87.2624 116.12 89.1404 116.003 90.8734 115.746L90.1406 110.8L89.4079 105.854C88.2608 106.024 86.8855 106.12 85.2606 106.12V111.12ZM90.1406 110.8L90.8477 115.75C92.4535 115.52 93.9116 115.251 95.1933 114.931L93.9806 110.08L92.7679 105.229C91.9163 105.442 90.8144 105.653 89.4335 105.85L90.1406 110.8ZM93.9806 110.08L95.3542 114.888C96.6219 114.525 97.816 114.12 98.9244 113.663L97.0206 109.04L95.1169 104.417C94.4119 104.707 93.5793 104.995 92.607 105.272L93.9806 110.08ZM97.0206 109.04H102.021V94.4H97.0206H92.0206V109.04H97.0206ZM97.0206 94.4V89.4H87.0206V94.4V99.4H97.0206V94.4ZM87.0206 94.4H92.0206V88.4H87.0206H82.0206V94.4H87.0206ZM87.0206 88.4V93.4H103.821V88.4V83.4H87.0206V88.4ZM103.821 88.4H98.8206V112.32H103.821H108.821V88.4H103.821ZM103.821 112.32L101.075 108.141C99.7588 109.006 97.6682 109.958 94.5956 110.899L96.0606 115.68L97.5256 120.461C101.066 119.375 104.149 118.087 106.567 116.499L103.821 112.32ZM96.0606 115.68L94.6455 110.884C91.9446 111.681 88.8533 112.088 85.3282 112.04L85.2606 117.04L85.1931 122.04C89.5613 122.099 93.67 121.599 97.4757 120.476L96.0606 115.68ZM85.2606 117.04V112.04C82.0299 112.04 78.951 111.66 76.0114 110.914L74.7806 115.76L73.5499 120.606C77.3303 121.566 81.2381 122.04 85.2606 122.04V117.04ZM74.7806 115.76L76.03 110.919C73.4144 110.244 71.1088 109.077 69.0625 107.407L65.9006 111.28L62.7387 115.153C65.9192 117.75 69.5335 119.57 73.5312 120.601L74.7806 115.76ZM65.9006 111.28L69.1481 107.478C67.2966 105.897 65.6646 103.635 64.3599 100.486L59.7406 102.4L55.1213 104.314C56.91 108.631 59.3847 112.29 62.6532 115.082L65.9006 111.28ZM59.7406 102.4L64.3599 100.486C63.1454 97.5548 62.4206 93.5406 62.4206 88.24H57.4206H52.4206C52.4206 94.3527 53.2425 99.7785 55.1213 104.314L59.7406 102.4ZM57.4206 88.24H62.4206C62.4206 84.1047 63.0635 80.7676 64.1874 78.1035L59.5806 76.16L54.9738 74.2165C53.2177 78.379 52.4206 83.0953 52.4206 88.24H57.4206ZM59.5806 76.16L64.1981 78.078C65.3941 75.1988 66.9451 72.9787 68.792 71.2924L65.4206 67.6L62.0493 63.9076C58.9895 66.7013 56.6471 70.1879 54.9631 74.242L59.5806 76.16ZM65.4206 67.6L68.7957 71.289C70.7905 69.4639 73.0739 68.1077 75.6882 67.2077L74.0606 62.48L72.4331 57.7523C68.5407 59.0923 65.064 61.1494 62.0456 63.911L65.4206 67.6ZM74.0606 62.48L75.7327 67.1921C78.4766 66.2185 81.4022 65.72 84.5406 65.72V60.72V55.72C80.319 55.72 76.258 56.3948 72.3886 57.7679L74.0606 62.48ZM84.5406 60.72V65.72C86.7555 65.72 88.8777 65.8431 90.9096 66.0849L91.5006 61.12L92.0917 56.1551C89.6435 55.8636 87.1257 55.72 84.5406 55.72V60.72ZM91.5006 61.12L91.0266 66.0975C93.1647 66.3011 95.0923 66.5527 96.8158 66.8481L97.6606 61.92L98.5054 56.9919C96.4956 56.6473 94.3165 56.3656 91.9747 56.1425L91.5006 61.12ZM97.6606 61.92L96.9535 66.8697C98.6621 67.1138 100.279 67.4286 101.808 67.8107L103.021 62.96L104.233 58.1093C102.349 57.6381 100.392 57.2595 98.3677 56.9702L97.6606 61.92ZM103.021 62.96L98.1013 62.0656L96.9813 68.2256L101.901 69.12L106.82 70.0144L107.94 63.8544L103.021 62.96ZM131.371 61.44V56.44H127.801L126.642 59.8173L131.371 61.44ZM139.691 61.44L144.421 59.8173L143.262 56.44H139.691V61.44ZM158.411 116V121H165.413L163.141 114.377L158.411 116ZM151.451 116L146.703 117.565L147.835 121H151.451V116ZM146.651 101.44L151.4 99.8745L150.268 96.44H146.651V101.44ZM124.491 101.44V96.44H120.894L119.75 99.851L124.491 101.44ZM119.611 116V121H123.209L124.352 117.589L119.611 116ZM112.651 116L107.922 114.377L105.65 121H112.651V116ZM144.491 95.04V100.04H151.364L149.248 93.5009L144.491 95.04ZM135.691 67.84L140.448 66.3009L139.329 62.84H135.691V67.84ZM135.451 67.84V62.84H131.824L130.698 66.2882L135.451 67.84ZM126.571 95.04L121.818 93.4882L119.679 100.04H126.571V95.04ZM131.371 61.44V66.44H139.691V61.44V56.44H131.371V61.44ZM139.691 61.44L134.962 63.0627L153.682 117.623L158.411 116L163.141 114.377L144.421 59.8173L139.691 61.44ZM158.411 116V111H151.451V116V121H158.411V116ZM151.451 116L156.2 114.435L151.4 99.8745L146.651 101.44L141.903 103.005L146.703 117.565L151.451 116ZM146.651 101.44V96.44H124.491V101.44V106.44H146.651V101.44ZM124.491 101.44L119.75 99.851L114.87 114.411L119.611 116L124.352 117.589L129.232 103.029L124.491 101.44ZM119.611 116V111H112.651V116V121H119.611V116ZM112.651 116L117.381 117.623L136.101 63.0627L131.371 61.44L126.642 59.8173L107.922 114.377L112.651 116ZM144.491 95.04L149.248 93.5009L140.448 66.3009L135.691 67.84L130.934 69.3791L139.734 96.5791L144.491 95.04ZM135.691 67.84V62.84H135.451V67.84V72.84H135.691V67.84ZM135.451 67.84L130.698 66.2882L121.818 93.4882L126.571 95.04L131.324 96.5918L140.204 69.3917L135.451 67.84ZM126.571 95.04V100.04H144.491V95.04V90.04H126.571V95.04ZM170.919 61.44V56.44H166.176L165.926 61.1764L170.919 61.44ZM179.479 61.44L184.154 59.6667L182.93 56.44H179.479V61.44ZM191.799 93.92L196.487 92.1791L196.48 92.1629L196.474 92.1467L191.799 93.92ZM193.719 99.12L189.025 100.841L189.035 100.867L189.044 100.893L193.719 99.12ZM195.239 103.28L190.517 104.923L190.544 104.999L190.573 105.075L195.239 103.28ZM196.599 107.12L191.835 108.636L192.943 112.12H196.599V107.12ZM196.759 107.12V112.12H200.578L201.583 108.436L196.759 107.12ZM197.959 103.28L193.237 101.637L193.234 101.644L197.959 103.28ZM199.399 99.12L204.126 100.75L204.135 100.726L204.143 100.701L199.399 99.12ZM201.319 93.92L205.962 95.777L205.972 95.7502L205.983 95.7234L201.319 93.92ZM213.879 61.44V56.44H210.452L209.216 59.6366L213.879 61.44ZM222.439 61.44L227.433 61.1837L227.189 56.44H222.439V61.44ZM225.239 116V121H230.503L230.233 115.744L225.239 116ZM218.439 116L213.445 116.226L213.661 121H218.439V116ZM217.079 86L212.084 86.2039L212.084 86.2152L212.085 86.2264L217.079 86ZM216.839 79.36L221.837 79.213V79.213L216.839 79.36ZM216.759 71.52H221.759V66.52H216.759V71.52ZM216.599 71.52V66.52H213.214L211.957 69.6631L216.599 71.52ZM215.399 74.8L220.098 76.5087L220.112 76.4722L220.124 76.4356L215.399 74.8ZM213.719 79.36L209.032 77.6191L209.018 77.6574L209.004 77.6959L213.719 79.36ZM211.319 86L215.999 87.7597L216.006 87.7419L216.013 87.7241L211.319 86ZM200.039 116V121H203.501L204.719 117.76L200.039 116ZM193.239 116L188.563 117.771L189.786 121H193.239V116ZM181.879 86L186.555 84.2294L186.542 84.1945L186.528 84.1598L181.879 86ZM179.399 79.44L174.67 81.0616L174.677 81.0829L174.684 81.1041L179.399 79.44ZM177.799 74.88L173.074 76.5155L173.087 76.5522L173.1 76.5887L177.799 74.88ZM176.679 71.52L181.452 70.0286L180.355 66.52H176.679V71.52ZM176.519 71.52V66.52H171.197L171.529 71.8319L176.519 71.52ZM176.679 74.88L181.678 74.761L181.677 74.7244L181.676 74.6878L176.679 74.88ZM176.439 86L181.432 86.2663L181.434 86.2362L181.435 86.206L176.439 86ZM174.839 116V121H179.58L179.832 116.266L174.839 116ZM168.039 116L163.046 115.736L162.768 121H168.039V116ZM170.919 61.44V66.44H179.479V61.44V56.44H170.919V61.44ZM179.479 61.44L174.804 63.2133L187.124 95.6933L191.799 93.92L196.474 92.1467L184.154 59.6667L179.479 61.44ZM191.799 93.92L187.112 95.6609C187.804 97.5221 188.441 99.2488 189.025 100.841L193.719 99.12L198.414 97.3987C197.824 95.7912 197.182 94.0512 196.487 92.1791L191.799 93.92ZM193.719 99.12L189.044 100.893C189.619 102.408 190.109 103.75 190.517 104.923L195.239 103.28L199.962 101.637C199.517 100.357 198.993 98.9257 198.394 97.3467L193.719 99.12ZM195.239 103.28L190.573 105.075C191.078 106.388 191.497 107.573 191.835 108.636L196.599 107.12L201.364 105.604C200.955 104.32 200.468 102.946 199.906 101.485L195.239 103.28ZM196.599 107.12V112.12H196.759V107.12V102.12H196.599V107.12ZM196.759 107.12L201.583 108.436C201.869 107.389 202.234 106.217 202.684 104.916L197.959 103.28L193.234 101.644C192.725 103.116 192.29 104.504 191.936 105.804L196.759 107.12ZM197.959 103.28L202.682 104.923C203.11 103.691 203.592 102.3 204.126 100.75L199.399 99.12L194.673 97.49C194.14 99.0335 193.662 100.416 193.237 101.637L197.959 103.28ZM199.399 99.12L204.143 100.701C204.64 99.2096 205.245 97.5693 205.962 95.777L201.319 93.92L196.677 92.063C195.901 94.004 195.225 95.8304 194.656 97.5389L199.399 99.12ZM201.319 93.92L205.983 95.7234L218.543 63.2434L213.879 61.44L209.216 59.6366L196.656 92.1166L201.319 93.92ZM213.879 61.44V66.44H222.439V61.44V56.44H213.879V61.44ZM222.439 61.44L217.446 61.6963L220.246 116.256L225.239 116L230.233 115.744L227.433 61.1837L222.439 61.44ZM225.239 116V111H218.439V116V121H225.239V116ZM218.439 116L223.434 115.774L222.074 85.7736L217.079 86L212.085 86.2264L213.445 116.226L218.439 116ZM217.079 86L222.075 85.7961C221.969 83.1942 221.89 81.0011 221.837 79.213L216.839 79.36L211.842 79.507C211.896 81.3455 211.976 83.5791 212.084 86.2039L217.079 86ZM216.839 79.36L221.837 79.213C221.785 77.4254 221.759 75.9856 221.759 74.88H216.759H211.759C211.759 76.1211 211.787 77.668 211.842 79.507L216.839 79.36ZM216.759 74.88H221.759V71.52H216.759H211.759V74.88H216.759ZM216.759 71.52V66.52H216.599V71.52V76.52H216.759V71.52ZM216.599 71.52L211.957 69.6631C211.594 70.5693 211.165 71.7471 210.674 73.1644L215.399 74.8L220.124 76.4356C220.594 75.0795 220.964 74.0707 221.242 73.3769L216.599 71.52ZM215.399 74.8L210.7 73.0913C210.279 74.2495 209.724 75.7576 209.032 77.6191L213.719 79.36L218.407 81.1009C219.102 79.229 219.666 77.6972 220.098 76.5087L215.399 74.8ZM213.719 79.36L209.004 77.6959C208.374 79.4825 207.582 81.6746 206.626 84.2759L211.319 86L216.013 87.7241C216.977 85.0988 217.785 82.8641 218.434 81.0241L213.719 79.36ZM211.319 86L206.639 84.2403L195.359 114.24L200.039 116L204.719 117.76L215.999 87.7597L211.319 86ZM200.039 116V111H193.239V116V121H200.039V116ZM193.239 116L197.915 114.229L186.555 84.2294L181.879 86L177.203 87.7706L188.563 117.771L193.239 116ZM181.879 86L186.528 84.1598C185.529 81.6355 184.727 79.511 184.114 77.7759L179.399 79.44L174.684 81.1041C175.352 82.9957 176.203 85.2445 177.23 87.8402L181.879 86ZM179.399 79.44L184.129 77.8184C183.484 75.9372 182.94 74.3851 182.498 73.1713L177.799 74.88L173.1 76.5887C173.512 77.7216 174.035 79.2095 174.67 81.0616L179.399 79.44ZM177.799 74.88L182.524 73.2445C182.052 71.8796 181.697 70.8131 181.452 70.0286L176.679 71.52L171.907 73.0114C172.195 73.9336 172.587 75.1071 173.074 76.5155L177.799 74.88ZM176.679 71.52V66.52H176.519V71.52V76.52H176.679V71.52ZM176.519 71.52L171.529 71.8319C171.579 72.6286 171.63 73.7042 171.683 75.0722L176.679 74.88L181.676 74.6878C181.622 73.2825 181.567 72.118 181.51 71.2081L176.519 71.52ZM176.679 74.88L171.681 74.999C171.73 77.0618 171.657 80.6261 171.444 85.794L176.439 86L181.435 86.206C181.649 81.0272 181.736 77.1782 181.678 74.761L176.679 74.88ZM176.439 86L171.446 85.7337L169.846 115.734L174.839 116L179.832 116.266L181.432 86.2663L176.439 86ZM174.839 116V111H168.039V116V121H174.839V116ZM168.039 116L173.032 116.264L175.912 61.7036L170.919 61.44L165.926 61.1764L163.046 115.736L168.039 116ZM240.471 61.44V56.44H235.471V61.44H240.471ZM273.911 61.44H278.911V56.44H273.911V61.44ZM273.911 67.6V72.6H278.911V67.6H273.911ZM247.191 67.6V62.6H242.191V67.6H247.191ZM247.191 85.04H242.191V90.04H247.191V85.04ZM271.991 85.04H276.991V80.04H271.991V85.04ZM271.991 91.04V96.04H276.991V91.04H271.991ZM247.191 91.04V86.04H242.191V91.04H247.191ZM247.191 109.84H242.191V114.84H247.191V109.84ZM274.711 109.84H279.711V104.84H274.711V109.84ZM274.711 116V121H279.711V116H274.711ZM240.471 116H235.471V121H240.471V116ZM240.471 61.44V66.44H273.911V61.44V56.44H240.471V61.44ZM273.911 61.44H268.911V67.6H273.911H278.911V61.44H273.911ZM273.911 67.6V62.6H247.191V67.6V72.6H273.911V67.6ZM247.191 67.6H242.191V85.04H247.191H252.191V67.6H247.191ZM247.191 85.04V90.04H271.991V85.04V80.04H247.191V85.04ZM271.991 85.04H266.991V91.04H271.991H276.991V85.04H271.991ZM271.991 91.04V86.04H247.191V91.04V96.04H271.991V91.04ZM247.191 91.04H242.191V109.84H247.191H252.191V91.04H247.191ZM247.191 109.84V114.84H274.711V109.84V104.84H247.191V109.84ZM274.711 109.84H269.711V116H274.711H279.711V109.84H274.711ZM274.711 116V111H240.471V116V121H274.711V116ZM240.471 116H245.471V61.44H240.471H235.471V116H240.471ZM308.709 61.44V56.44H303.709V61.44H308.709ZM330.149 62.24L329.064 67.1209L329.126 67.1347L329.189 67.147L330.149 62.24ZM336.389 64.8L333.471 68.8601L333.513 68.8906L333.556 68.9202L336.389 64.8ZM341.669 76.96L346.668 77.0406L346.669 77.0003V76.96H341.669ZM339.989 85.04L344.413 87.3687L344.426 87.3452L344.438 87.3216L339.989 85.04ZM336.069 90L339.176 93.9175L339.216 93.8852L339.257 93.852L336.069 90ZM330.709 92.72L329.318 87.9172L325.709 88.9621V92.72H330.709ZM330.709 92.88H325.709V94.9511L327.173 96.4155L330.709 92.88ZM331.669 94.08L327.625 97.0209L327.778 97.2314L327.952 97.4248L331.669 94.08ZM332.869 95.52L328.869 98.52L328.876 98.53L332.869 95.52ZM348.309 116V121H358.34L352.301 112.99L348.309 116ZM340.389 116L336.352 118.95L337.85 121H340.389V116ZM324.549 94.32L328.586 91.3703L327.088 89.32H324.549V94.32ZM315.429 94.32V89.32H310.429V94.32H315.429ZM315.429 116V121H320.429V116H315.429ZM308.709 116H303.709V121H308.709V116ZM334.869 78.08L339.865 78.2651L339.869 78.1726V78.08H334.869ZM333.989 72.64L329.3 74.3766L329.34 74.4833L329.384 74.5882L333.989 72.64ZM331.509 69.36L328.641 73.4562L328.688 73.4887L328.735 73.5203L331.509 69.36ZM327.509 67.84L328.331 62.908V62.908L327.509 67.84ZM315.429 67.44V62.44H310.429V67.44H315.429ZM315.429 88.32H310.429V93.32H315.429V88.32ZM328.629 87.52L330.365 92.2087V92.2087L328.629 87.52ZM332.149 85.36L335.684 88.8955L335.735 88.845L335.784 88.7931L332.149 85.36ZM334.149 82.08L329.426 80.4374V80.4374L334.149 82.08ZM308.709 61.44V66.44H322.149V61.44V56.44H308.709V61.44ZM322.149 61.44V66.44C324.785 66.44 327.081 66.6802 329.064 67.1209L330.149 62.24L331.233 57.3591C328.417 56.7331 325.379 56.44 322.149 56.44V61.44ZM330.149 62.24L329.189 67.147C331.068 67.5146 332.448 68.1253 333.471 68.8601L336.389 64.8L339.307 60.7399C336.916 59.0214 334.136 57.9254 331.109 57.333L330.149 62.24ZM336.389 64.8L333.556 68.9202C334.483 69.5574 335.216 70.4121 335.765 71.6075L340.309 69.52L344.852 67.4325C343.588 64.6812 341.708 62.3893 339.221 60.6798L336.389 64.8ZM340.309 69.52L335.765 71.6075C336.281 72.7288 336.669 74.4396 336.669 76.96H341.669H346.669C346.669 73.507 346.15 70.2579 344.852 67.4325L340.309 69.52ZM341.669 76.96L336.669 76.8794C336.624 79.717 336.143 81.5828 335.54 82.7584L339.989 85.04L344.438 87.3216C345.968 84.3372 346.607 80.8163 346.668 77.0406L341.669 76.96ZM339.989 85.04L335.564 82.7113C334.762 84.2352 333.852 85.3443 332.881 86.148L336.069 90L339.257 93.852C341.379 92.0957 343.082 89.8981 344.413 87.3687L339.989 85.04ZM336.069 90L332.962 86.0825C331.959 86.8781 330.764 87.4987 329.318 87.9172L330.709 92.72L332.099 97.5228C334.707 96.768 337.086 95.5752 339.176 93.9175L336.069 90ZM330.709 92.72H325.709V92.88H330.709H335.709V92.72H330.709ZM330.709 92.88L327.173 96.4155C327.122 96.3643 327.101 96.339 327.116 96.3559C327.128 96.3698 327.157 96.4038 327.204 96.4635C327.302 96.5849 327.44 96.7663 327.625 97.0209L331.669 94.08L335.712 91.1391C335.286 90.5523 334.764 89.8639 334.244 89.3445L330.709 92.88ZM331.669 94.08L327.952 97.4248C328.364 97.8825 328.662 98.245 328.869 98.52L332.869 95.52L336.869 92.52C336.435 91.9417 335.933 91.3441 335.385 90.7352L331.669 94.08ZM332.869 95.52L328.876 98.53L344.316 119.01L348.309 116L352.301 112.99L336.861 92.51L332.869 95.52ZM348.309 116V111H340.389V116V121H348.309V116ZM340.389 116L344.426 113.05L328.586 91.3703L324.549 94.32L320.512 97.2697L336.352 118.95L340.389 116ZM324.549 94.32V89.32H315.429V94.32V99.32H324.549V94.32ZM315.429 94.32H310.429V116H315.429H320.429V94.32H315.429ZM315.429 116V111H308.709V116V121H315.429V116ZM308.709 116H313.709V61.44H308.709H303.709V116H308.709ZM334.869 78.08H339.869C339.869 75.4675 339.536 72.9194 338.594 70.6918L333.989 72.64L329.384 74.5882C329.615 75.1339 329.869 76.2125 329.869 78.08H334.869ZM333.989 72.64L338.677 70.9034C337.831 68.6186 336.401 66.6122 334.282 65.1997L331.509 69.36L328.735 73.5203C328.857 73.6011 329.08 73.7814 329.3 74.3766L333.989 72.64ZM331.509 69.36L334.376 65.2638C332.567 63.9977 330.49 63.2679 328.331 62.908L327.509 67.84L326.687 72.772C327.727 72.9454 328.317 73.229 328.641 73.4562L331.509 69.36ZM327.509 67.84L328.331 62.908C326.402 62.5866 324.306 62.44 322.069 62.44V67.44V72.44C323.885 72.44 325.416 72.5601 326.687 72.772L327.509 67.84ZM322.069 67.44V62.44H315.429V67.44V72.44H322.069V67.44ZM315.429 67.44H310.429V88.32H315.429H320.429V67.44H315.429ZM315.429 88.32V93.32H323.349V88.32V83.32H315.429V88.32ZM323.349 88.32V93.32C325.825 93.32 328.211 93.0066 330.365 92.2087L328.629 87.52L326.892 82.8313C326.166 83.1 325.033 83.32 323.349 83.32V88.32ZM328.629 87.52L330.365 92.2087C332.35 91.4738 334.177 90.4024 335.684 88.8955L332.149 85.36L328.613 81.8245C328.307 82.131 327.788 82.4995 326.892 82.8313L328.629 87.52ZM332.149 85.36L335.784 88.7931C337.167 87.3286 338.209 85.6276 338.871 83.7226L334.149 82.08L329.426 80.4374C329.236 80.9857 328.944 81.4714 328.514 81.9269L332.149 85.36ZM334.149 82.08L338.871 83.7226C339.478 81.9781 339.796 80.148 339.865 78.2651L334.869 78.08L329.872 77.8949C329.835 78.892 329.673 79.7285 329.426 80.4374L334.149 82.08ZM363.366 61.44H368.366V56.44H363.366V61.44ZM364.646 103.04L360.057 105.025L360.09 105.1L360.125 105.175L364.646 103.04ZM368.166 107.6L371.236 103.653V103.653L368.166 107.6ZM373.046 109.92L371.901 114.787L371.917 114.791L371.932 114.794L373.046 109.92ZM389.206 107.6L386.137 103.653V103.653L389.206 107.6ZM392.646 103.04L397.215 105.071L397.226 105.048L397.236 105.025L392.646 103.04ZM393.926 61.44V56.44H388.926V61.44H393.926ZM400.646 61.44H405.646V56.44H400.646V61.44ZM399.046 104.96L394.477 102.929L394.458 102.972L394.44 103.015L399.046 104.96ZM394.646 111.28L398.025 114.966L398.052 114.941L398.079 114.915L394.646 111.28ZM387.686 115.44L385.941 110.755L387.686 115.44ZM362.326 111.84L358.95 115.528L358.964 115.541L358.979 115.554L362.326 111.84ZM356.646 61.44V56.44H351.646V61.44H356.646ZM363.366 61.44H358.366V95.52H363.366H368.366V61.44H363.366ZM363.366 95.52H358.366C358.366 98.9804 358.845 102.222 360.057 105.025L364.646 103.04L369.236 101.055C368.741 99.9113 368.366 98.1396 368.366 95.52H363.366ZM364.646 103.04L360.125 105.175C361.312 107.688 362.943 109.872 365.097 111.547L368.166 107.6L371.236 103.653C370.509 103.088 369.794 102.232 369.167 100.905L364.646 103.04ZM368.166 107.6L365.097 111.547C367.117 113.118 369.403 114.199 371.901 114.787L373.046 109.92L374.191 105.053C373.063 104.787 372.096 104.322 371.236 103.653L368.166 107.6ZM373.046 109.92L371.932 114.794C374.165 115.305 376.432 115.56 378.726 115.56V110.56V105.56C377.18 105.56 375.661 105.389 374.16 105.046L373.046 109.92ZM378.726 110.56V115.56C381.02 115.56 383.271 115.305 385.471 114.787L384.326 109.92L383.181 105.053C381.754 105.389 380.272 105.56 378.726 105.56V110.56ZM384.326 109.92L385.471 114.787C387.97 114.199 390.256 113.118 392.276 111.547L389.206 107.6L386.137 103.653C385.277 104.322 384.309 104.787 383.181 105.053L384.326 109.92ZM389.206 107.6L392.276 111.547C394.458 109.849 396.079 107.628 397.215 105.071L392.646 103.04L388.077 101.009C387.507 102.292 386.834 103.111 386.137 103.653L389.206 107.6ZM392.646 103.04L397.236 105.025C398.447 102.222 398.926 98.9804 398.926 95.52H393.926H388.926C388.926 98.1396 388.552 99.9113 388.057 101.055L392.646 103.04ZM393.926 95.52H398.926V61.44H393.926H388.926V95.52H393.926ZM393.926 61.44V66.44H400.646V61.44V56.44H393.926V61.44ZM400.646 61.44H395.646V97.2H400.646H405.646V61.44H400.646ZM400.646 97.2H395.646C395.646 99.3136 395.244 101.204 394.477 102.929L399.046 104.96L403.615 106.991C404.982 103.916 405.646 100.633 405.646 97.2H400.646ZM399.046 104.96L394.44 103.015C393.7 104.768 392.636 106.301 391.213 107.645L394.646 111.28L398.079 114.915C400.496 112.632 402.366 109.952 403.652 106.905L399.046 104.96ZM394.646 111.28L391.268 107.594C389.874 108.872 388.126 109.94 385.941 110.755L387.686 115.44L389.432 120.125C392.686 118.913 395.579 117.208 398.025 114.966L394.646 111.28ZM387.686 115.44L385.941 110.755C383.851 111.533 381.439 111.96 378.646 111.96V116.96V121.96C382.467 121.96 386.081 121.374 389.432 120.125L387.686 115.44ZM378.646 116.96V111.96C372.305 111.96 368.236 110.436 365.674 108.126L362.326 111.84L358.979 115.554C363.989 120.071 370.801 121.96 378.646 121.96V116.96ZM362.326 111.84L365.702 108.152C363.178 105.841 361.646 102.432 361.646 97.2H356.646H351.646C351.646 104.554 353.901 110.906 358.95 115.528L362.326 111.84ZM356.646 97.2H361.646V61.44H356.646H351.646V97.2H356.646ZM356.646 61.44V66.44H363.366V61.44V56.44H356.646V61.44ZM416.712 61.44V56.44H411.712V61.44H416.712ZM423.432 61.44H428.432V56.44H423.432V61.44ZM423.432 109.6H418.432V114.6H423.432V109.6ZM448.232 109.6H453.232V104.6H448.232V109.6ZM448.232 116V121H453.232V116H448.232ZM416.712 116H411.712V121H416.712V116ZM416.712 61.44V66.44H423.432V61.44V56.44H416.712V61.44ZM423.432 61.44H418.432V109.6H423.432H428.432V61.44H423.432ZM423.432 109.6V114.6H448.232V109.6V104.6H423.432V109.6ZM448.232 109.6H443.232V116H448.232H453.232V109.6H448.232ZM448.232 116V111H416.712V116V121H448.232V116ZM416.712 116H421.712V61.44H416.712H411.712V116H416.712ZM459.034 61.44V56.44H454.034V61.44H459.034ZM492.474 61.44H497.474V56.44H492.474V61.44ZM492.474 67.6V72.6H497.474V67.6H492.474ZM465.754 67.6V62.6H460.754V67.6H465.754ZM465.754 85.04H460.754V90.04H465.754V85.04ZM490.554 85.04H495.554V80.04H490.554V85.04ZM490.554 91.04V96.04H495.554V91.04H490.554ZM465.754 91.04V86.04H460.754V91.04H465.754ZM465.754 109.84H460.754V114.84H465.754V109.84ZM493.274 109.84H498.274V104.84H493.274V109.84ZM493.274 116V121H498.274V116H493.274ZM459.034 116H454.034V121H459.034V116ZM459.034 61.44V66.44H492.474V61.44V56.44H459.034V61.44ZM492.474 61.44H487.474V67.6H492.474H497.474V61.44H492.474ZM492.474 67.6V62.6H465.754V67.6V72.6H492.474V67.6ZM465.754 67.6H460.754V85.04H465.754H470.754V67.6H465.754ZM465.754 85.04V90.04H490.554V85.04V80.04H465.754V85.04ZM490.554 85.04H485.554V91.04H490.554H495.554V85.04H490.554ZM490.554 91.04V86.04H465.754V91.04V96.04H490.554V91.04ZM465.754 91.04H460.754V109.84H465.754H470.754V91.04H465.754ZM465.754 109.84V114.84H493.274V109.84V104.84H465.754V109.84ZM493.274 109.84H488.274V116H493.274H498.274V109.84H493.274ZM493.274 116V111H459.034V116V121H493.274V116ZM459.034 116H464.034V61.44H459.034H454.034V116H459.034ZM534.51 68.96L533.297 73.8107L538.52 75.1164L539.437 69.8116L534.51 68.96ZM530.51 68.08L529.448 72.9659L529.507 72.9787L529.566 72.99L530.51 68.08ZM526.27 67.44L525.587 72.3931L525.679 72.4059L525.772 72.4152L526.27 67.44ZM512.91 68.96L515.743 73.0802L515.786 73.0506L515.828 73.0201L512.91 68.96ZM510.35 74.48H505.35V74.5476L505.352 74.6151L510.35 74.48ZM512.51 79.52L508.974 83.0555L509.009 83.0902L509.044 83.1242L512.51 79.52ZM517.71 83.28L515.253 87.6349L515.296 87.659L515.339 87.6824L517.71 83.28ZM524.51 86.64L522.434 91.1884L522.493 91.2154L522.552 91.2408L524.51 86.64ZM531.39 90.4L528.544 94.511L528.58 94.5359L528.616 94.5602L531.39 90.4ZM536.59 95.36L532.537 98.2875L532.583 98.3515L532.631 98.414L536.59 95.36ZM536.67 109.84L532.617 106.913L532.59 106.95L532.563 106.988L536.67 109.84ZM531.55 114.32L529.268 109.871V109.871L531.55 114.32ZM524.67 116.48L523.933 111.535L523.926 111.536L523.918 111.537L524.67 116.48ZM511.79 116.64L512.539 111.696L511.79 116.64ZM507.23 115.76L506.017 120.611L507.23 115.76ZM503.15 114.48L498.296 113.281L497.245 117.538L501.328 119.136L503.15 114.48ZM504.75 108L506.744 103.415L501.315 101.054L499.896 106.801L504.75 108ZM508.67 109.36L507.37 114.188L507.389 114.193L507.408 114.198L508.67 109.36ZM512.75 110.24L511.871 115.162L511.886 115.165L511.9 115.167L512.75 110.24ZM523.31 110.24L522.561 105.296L522.55 105.298L522.538 105.3L523.31 110.24ZM527.87 108.96L525.787 104.415V104.415L527.87 108.96ZM530.83 106.64L526.883 103.57L526.829 103.64L526.777 103.713L530.83 106.64ZM531.95 103.12H536.95V103.056L536.948 102.992L531.95 103.12ZM529.87 98.08L526.263 101.543L526.334 101.616L526.407 101.687L529.87 98.08ZM524.67 94.32L522.178 98.6545L522.241 98.6911L522.306 98.7258L524.67 94.32ZM517.71 90.8L515.634 95.3484L515.652 95.3568L515.67 95.365L517.71 90.8ZM510.91 86.96L508.064 91.071V91.071L510.91 86.96ZM505.63 81.84L501.539 84.7147L501.565 84.7513L501.591 84.7873L505.63 81.84ZM504.43 69.44L509.142 71.112L504.43 69.44ZM507.39 65.04L504.068 61.303L504.033 61.3341L503.999 61.366L507.39 65.04ZM512.91 61.92L511.263 57.199L511.246 57.2051L511.228 57.2113L512.91 61.92ZM526.83 61.04L526.21 66.0014L526.293 66.0118L526.377 66.0195L526.83 61.04ZM531.39 61.6L532.269 56.6779L532.24 56.6728L532.212 56.668L531.39 61.6ZM535.63 62.48L540.557 63.3316L541.355 58.7121L536.797 57.6181L535.63 62.48ZM534.51 68.96L535.723 64.1093C534.348 63.7656 532.925 63.4527 531.454 63.17L530.51 68.08L529.566 72.99C530.869 73.2406 532.112 73.5144 533.297 73.8107L534.51 68.96ZM530.51 68.08L531.572 63.1941C530.116 62.8776 528.508 62.6388 526.768 62.4648L526.27 67.44L525.772 72.4152C527.232 72.5612 528.451 72.7491 529.448 72.9659L530.51 68.08ZM526.27 67.44L526.953 62.4869C525.16 62.2396 523.304 62.12 521.39 62.12V67.12V72.12C522.889 72.12 524.286 72.2137 525.587 72.3931L526.27 67.44ZM521.39 67.12V62.12C517.185 62.12 513.02 62.7232 509.992 64.8999L512.91 68.96L515.828 73.0201C516.213 72.7434 517.701 72.12 521.39 72.12V67.12ZM512.91 68.96L510.077 64.8398C506.718 67.1491 505.35 70.7213 505.35 74.48H510.35H515.35C515.35 73.786 515.468 73.448 515.526 73.3236C515.567 73.2341 515.611 73.1707 515.743 73.0802L512.91 68.96ZM510.35 74.48L505.352 74.6151C505.439 77.8578 506.676 80.7576 508.974 83.0555L512.51 79.52L516.046 75.9845C515.57 75.5091 515.367 75.0489 515.348 74.3449L510.35 74.48ZM512.51 79.52L509.044 83.1242C510.797 84.8094 512.891 86.3023 515.253 87.6349L517.71 83.28L520.167 78.9251C518.369 77.9111 516.996 76.8973 515.976 75.9158L512.51 79.52ZM517.71 83.28L515.339 87.6824C517.528 88.8609 519.894 90.0292 522.434 91.1884L524.51 86.64L526.586 82.0916C524.219 81.0108 522.052 79.9391 520.08 78.8776L517.71 83.28ZM524.51 86.64L522.552 91.2408C524.771 92.1848 526.763 93.278 528.544 94.511L531.39 90.4L534.236 86.289C531.857 84.642 529.263 83.2285 526.468 82.0392L524.51 86.64ZM531.39 90.4L528.616 94.5602C530.228 95.6343 531.519 96.8779 532.537 98.2875L536.59 95.36L540.643 92.4325C538.888 90.0021 536.712 87.9391 534.163 86.2397L531.39 90.4ZM536.59 95.36L532.631 98.414C533.295 99.2749 533.75 100.448 533.75 102.24H538.75H543.75C543.75 98.5924 542.765 95.1785 540.549 92.306L536.59 95.36ZM538.75 102.24H533.75C533.75 104.678 533.214 106.085 532.617 106.913L536.67 109.84L540.723 112.767C542.899 109.755 543.75 106.096 543.75 102.24H538.75ZM536.67 109.84L532.563 106.988C531.698 108.234 530.618 109.179 529.268 109.871L531.55 114.32L533.832 118.769C536.642 117.328 538.975 115.286 540.777 112.692L536.67 109.84ZM531.55 114.32L529.268 109.871C527.712 110.669 525.947 111.235 523.933 111.535L524.67 116.48L525.407 121.425C528.407 120.979 531.228 120.104 533.832 118.769L531.55 114.32ZM524.67 116.48L523.918 111.537C521.687 111.876 519.593 112.04 517.63 112.04V117.04V122.04C520.147 122.04 522.746 121.83 525.422 121.423L524.67 116.48ZM517.63 117.04V112.04C515.7 112.04 514.008 111.919 512.539 111.696L511.79 116.64L511.041 121.584C513.092 121.894 515.293 122.04 517.63 122.04V117.04ZM511.79 116.64L512.539 111.696C510.885 111.446 509.527 111.18 508.443 110.909L507.23 115.76L506.017 120.611C507.492 120.98 509.175 121.301 511.041 121.584L511.79 116.64ZM507.23 115.76L508.443 110.909C507.123 110.579 505.97 110.214 504.972 109.824L503.15 114.48L501.328 119.136C502.783 119.706 504.35 120.194 506.017 120.611L507.23 115.76ZM503.15 114.48L508.004 115.679L509.604 109.199L504.75 108L499.896 106.801L498.296 113.281L503.15 114.48ZM504.75 108L502.756 112.585C504.224 113.223 505.764 113.756 507.37 114.188L508.67 109.36L509.97 104.532C508.803 104.218 507.73 103.843 506.744 103.415L504.75 108ZM508.67 109.36L507.408 114.198C508.783 114.557 510.273 114.877 511.871 115.162L512.75 110.24L513.629 105.318C512.24 105.07 511.011 104.803 509.932 104.522L508.67 109.36ZM512.75 110.24L511.9 115.167C513.751 115.486 515.663 115.64 517.63 115.64V110.64V105.64C516.184 105.64 514.842 105.527 513.6 105.313L512.75 110.24ZM517.63 110.64V115.64C519.918 115.64 522.075 115.494 524.082 115.18L523.31 110.24L522.538 105.3C521.132 105.52 519.502 105.64 517.63 105.64V110.64ZM523.31 110.24L524.059 115.184C526.165 114.865 528.155 114.33 529.953 113.505L527.87 108.96L525.787 104.415C525.025 104.764 523.975 105.082 522.561 105.296L523.31 110.24ZM527.87 108.96L529.953 113.505C531.87 112.627 533.596 111.35 534.883 109.567L530.83 106.64L526.777 103.713C526.677 103.85 526.43 104.12 525.787 104.415L527.87 108.96ZM530.83 106.64L534.777 109.71C536.3 107.751 536.95 105.455 536.95 103.12H531.95H526.95C526.95 103.363 526.918 103.485 526.905 103.524C526.895 103.556 526.89 103.562 526.883 103.57L530.83 106.64ZM531.95 103.12L536.948 102.992C536.866 99.7756 535.739 96.7829 533.333 94.4731L529.87 98.08L526.407 101.687C526.668 101.937 526.927 102.304 526.952 103.248L531.95 103.12ZM529.87 98.08L533.477 94.6173C531.734 92.8023 529.534 91.2558 527.034 89.9142L524.67 94.32L522.306 98.7258C524.179 99.7308 525.445 100.691 526.263 101.543L529.87 98.08ZM524.67 94.32L527.162 89.9855C524.866 88.6653 522.394 87.4163 519.75 86.235L517.71 90.8L515.67 95.365C518.04 96.4237 520.207 97.5213 522.178 98.6545L524.67 94.32ZM517.71 90.8L519.786 86.2516C517.585 85.2463 515.578 84.1101 513.756 82.849L510.91 86.96L508.064 91.071C510.402 92.6899 512.929 94.1137 515.634 95.3484L517.71 90.8ZM510.91 86.96L513.756 82.849C512.119 81.716 510.768 80.3981 509.669 78.8927L505.63 81.84L501.591 84.7873C503.372 87.2285 505.541 89.324 508.064 91.071L510.91 86.96ZM505.63 81.84L509.721 78.9653C509.044 78.0016 508.55 76.6105 508.55 74.48H503.55H498.55C498.55 78.2161 499.443 81.7317 501.539 84.7147L505.63 81.84ZM503.55 74.48H508.55C508.55 73.3589 508.741 72.2437 509.142 71.112L504.43 69.44L499.718 67.7679C498.946 69.9429 498.55 72.1877 498.55 74.48H503.55ZM504.43 69.44L509.142 71.112C509.437 70.2805 509.945 69.4865 510.781 68.714L507.39 65.04L503.999 61.366C502.062 63.1535 500.596 65.2928 499.718 67.768L504.43 69.44ZM507.39 65.04L510.712 68.777C511.574 68.0102 512.818 67.262 514.592 66.6287L512.91 61.92L511.228 57.2113C508.522 58.178 506.086 59.5097 504.068 61.303L507.39 65.04ZM512.91 61.92L514.557 66.641C516.161 66.0815 518.392 65.72 521.39 65.72V60.72V55.72C517.668 55.72 514.246 56.1585 511.263 57.199L512.91 61.92ZM521.39 60.72V65.72C523.126 65.72 524.731 65.8165 526.21 66.0014L526.83 61.04L527.45 56.0786C525.516 55.8368 523.494 55.72 521.39 55.72V60.72ZM526.83 61.04L526.377 66.0195C528.055 66.1719 529.445 66.3448 530.568 66.532L531.39 61.6L532.212 56.668C530.775 56.4285 529.125 56.2281 527.283 56.0605L526.83 61.04ZM531.39 61.6L530.511 66.5221C531.918 66.7733 533.235 67.0471 534.463 67.3419L535.63 62.48L536.797 57.6181C535.359 57.2729 533.849 56.96 532.269 56.6779L531.39 61.6ZM535.63 62.48L530.703 61.6284L529.583 68.1084L534.51 68.96L539.437 69.8116L540.557 63.3316L535.63 62.48Z" fill="black" mask="url(#path-2-outside-1_23_1334)"/>
</svg>
