<svg width="200" height="200" viewBox="0 0 200 200" fill="none" xmlns="http://www.w3.org/2000/svg">
<rect x="2.5" y="2.5" width="195" height="195" rx="5.5" fill="#F02E2E" stroke="black" stroke-width="5"/>
<mask id="path-2-outside-1_46_1100" maskUnits="userSpaceOnUse" x="39" y="87" width="122" height="25" fill="black">
<rect fill="white" x="39" y="87" width="122" height="25"/>
<path d="M41.658 89.54H46.368C48.968 89.54 50.888 90 52.128 90.92C53.388 91.84 54.018 93.39 54.018 95.57C54.018 96.77 53.788 97.77 53.328 98.57C52.868 99.37 52.288 100.02 51.588 100.52C50.908 101 50.168 101.35 49.368 101.57C48.568 101.77 47.828 101.87 47.148 101.87H44.178V110H41.658V89.54ZM44.178 99.62H46.938C47.618 99.62 48.228 99.56 48.768 99.44C49.328 99.3 49.808 99.08 50.208 98.78C50.608 98.46 50.918 98.04 51.138 97.52C51.358 96.98 51.468 96.31 51.468 95.51C51.468 94.71 51.348 94.07 51.108 93.59C50.888 93.09 50.548 92.71 50.088 92.45C49.648 92.19 49.088 92.02 48.408 91.94C47.728 91.84 46.938 91.79 46.038 91.79H44.178V99.62ZM58.7591 89.54H61.2791V107.6H70.5791V110H58.7591V89.54ZM79.5798 89.54H82.6998L89.7198 110H87.1098L85.3098 104.54H76.9998L75.1698 110H72.5598L79.5798 89.54ZM84.4998 102.14L81.1998 91.94H81.1098L77.7798 102.14H84.4998ZM96.8699 102.56L90.3299 89.54H93.1199L98.1299 99.47L103.17 89.54H105.96L99.4199 102.56V110H96.8699V102.56ZM109.858 89.54H122.398V91.85H112.378V98.39H121.678V100.64H112.378V107.69H122.698V110H109.858V89.54ZM127.691 89.54H132.731C133.831 89.54 134.831 89.64 135.731 89.84C136.651 90.02 137.431 90.34 138.071 90.8C138.711 91.24 139.201 91.83 139.541 92.57C139.881 93.31 140.051 94.24 140.051 95.36C140.031 96.6 139.821 97.61 139.421 98.39C139.021 99.15 138.531 99.77 137.951 100.25C137.371 100.71 136.701 101.05 135.941 101.27V101.33C136.021 101.41 136.141 101.56 136.301 101.78C136.481 101.98 136.631 102.16 136.751 102.32L142.541 110H139.571L133.631 101.87H130.211V110H127.691V89.54ZM137.501 95.78C137.501 94.94 137.391 94.26 137.171 93.74C136.971 93.2 136.661 92.79 136.241 92.51C135.841 92.23 135.341 92.04 134.741 91.94C134.141 91.84 133.461 91.79 132.701 91.79H130.211V99.62H133.181C133.961 99.62 134.621 99.52 135.161 99.32C135.701 99.12 136.141 98.85 136.481 98.51C136.821 98.15 137.071 97.74 137.231 97.28C137.391 96.82 137.481 96.32 137.501 95.78ZM156.12 97.67L152.19 98.42L151.71 96.38L157.05 94.91H158.52V110H156.12V97.67Z"/>
</mask>
<path d="M41.658 89.54H46.368C48.968 89.54 50.888 90 52.128 90.92C53.388 91.84 54.018 93.39 54.018 95.57C54.018 96.77 53.788 97.77 53.328 98.57C52.868 99.37 52.288 100.02 51.588 100.52C50.908 101 50.168 101.35 49.368 101.57C48.568 101.77 47.828 101.87 47.148 101.87H44.178V110H41.658V89.54ZM44.178 99.62H46.938C47.618 99.62 48.228 99.56 48.768 99.44C49.328 99.3 49.808 99.08 50.208 98.78C50.608 98.46 50.918 98.04 51.138 97.52C51.358 96.98 51.468 96.31 51.468 95.51C51.468 94.71 51.348 94.07 51.108 93.59C50.888 93.09 50.548 92.71 50.088 92.45C49.648 92.19 49.088 92.02 48.408 91.94C47.728 91.84 46.938 91.79 46.038 91.79H44.178V99.62ZM58.7591 89.54H61.2791V107.6H70.5791V110H58.7591V89.54ZM79.5798 89.54H82.6998L89.7198 110H87.1098L85.3098 104.54H76.9998L75.1698 110H72.5598L79.5798 89.54ZM84.4998 102.14L81.1998 91.94H81.1098L77.7798 102.14H84.4998ZM96.8699 102.56L90.3299 89.54H93.1199L98.1299 99.47L103.17 89.54H105.96L99.4199 102.56V110H96.8699V102.56ZM109.858 89.54H122.398V91.85H112.378V98.39H121.678V100.64H112.378V107.69H122.698V110H109.858V89.54ZM127.691 89.54H132.731C133.831 89.54 134.831 89.64 135.731 89.84C136.651 90.02 137.431 90.34 138.071 90.8C138.711 91.24 139.201 91.83 139.541 92.57C139.881 93.31 140.051 94.24 140.051 95.36C140.031 96.6 139.821 97.61 139.421 98.39C139.021 99.15 138.531 99.77 137.951 100.25C137.371 100.71 136.701 101.05 135.941 101.27V101.33C136.021 101.41 136.141 101.56 136.301 101.78C136.481 101.98 136.631 102.16 136.751 102.32L142.541 110H139.571L133.631 101.87H130.211V110H127.691V89.54ZM137.501 95.78C137.501 94.94 137.391 94.26 137.171 93.74C136.971 93.2 136.661 92.79 136.241 92.51C135.841 92.23 135.341 92.04 134.741 91.94C134.141 91.84 133.461 91.79 132.701 91.79H130.211V99.62H133.181C133.961 99.62 134.621 99.52 135.161 99.32C135.701 99.12 136.141 98.85 136.481 98.51C136.821 98.15 137.071 97.74 137.231 97.28C137.391 96.82 137.481 96.32 137.501 95.78ZM156.12 97.67L152.19 98.42L151.71 96.38L157.05 94.91H158.52V110H156.12V97.67Z" fill="black"/>
<path d="M41.658 89.54V87.54H39.658V89.54H41.658ZM52.128 90.92L50.9363 92.5262L50.9424 92.5307L50.9486 92.5353L52.128 90.92ZM53.328 98.57L55.0618 99.5669V99.5669L53.328 98.57ZM51.588 100.52L52.7414 102.154L52.7504 102.147L51.588 100.52ZM49.368 101.57L49.853 103.51L49.8757 103.505L49.8983 103.498L49.368 101.57ZM44.178 101.87V99.87H42.178V101.87H44.178ZM44.178 110V112H46.178V110H44.178ZM41.658 110H39.658V112H41.658V110ZM44.178 99.62H42.178V101.62H44.178V99.62ZM48.768 99.44L49.2018 101.392L49.2275 101.387L49.253 101.38L48.768 99.44ZM50.208 98.78L51.408 100.38L51.433 100.361L51.4574 100.342L50.208 98.78ZM51.138 97.52L52.9799 98.2993L52.9851 98.287L52.9902 98.2746L51.138 97.52ZM51.108 93.59L49.2773 94.3955L49.2971 94.4405L49.3191 94.4844L51.108 93.59ZM50.088 92.45L49.0705 94.1719L49.0871 94.1816L49.1039 94.1911L50.088 92.45ZM48.408 91.94L48.117 93.9187L48.1456 93.9229L48.1743 93.9263L48.408 91.94ZM44.178 91.79V89.79H42.178V91.79H44.178ZM41.658 89.54V91.54H46.368V89.54V87.54H41.658V89.54ZM46.368 89.54V91.54C48.8044 91.54 50.2061 91.9845 50.9363 92.5262L52.128 90.92L53.3197 89.3138C51.5698 88.0155 49.1315 87.54 46.368 87.54V89.54ZM52.128 90.92L50.9486 92.5353C51.507 92.943 52.018 93.7568 52.018 95.57H54.018H56.018C56.018 93.0232 55.269 90.737 53.3074 89.3047L52.128 90.92ZM54.018 95.57H52.018C52.018 96.5226 51.8349 97.1543 51.5942 97.5731L53.328 98.57L55.0618 99.5669C55.741 98.3857 56.018 97.0174 56.018 95.57H54.018ZM53.328 98.57L51.5942 97.5731C51.2666 98.1427 50.8754 98.5712 50.4255 98.8925L51.588 100.52L52.7504 102.147C53.7006 101.469 54.4693 100.597 55.0618 99.5669L53.328 98.57ZM51.588 100.52L50.4346 98.8861C49.9431 99.233 49.4138 99.4832 48.8377 99.6416L49.368 101.57L49.8983 103.498C50.9222 103.217 51.8729 102.767 52.7413 102.154L51.588 100.52ZM49.368 101.57L48.8829 99.6297C48.2092 99.7981 47.6342 99.87 47.148 99.87V101.87V103.87C48.0218 103.87 48.9267 103.742 49.853 103.51L49.368 101.57ZM47.148 101.87V99.87H44.178V101.87V103.87H47.148V101.87ZM44.178 101.87H42.178V110H44.178H46.178V101.87H44.178ZM44.178 110V108H41.658V110V112H44.178V110ZM41.658 110H43.658V89.54H41.658H39.658V110H41.658ZM44.178 99.62V101.62H46.938V99.62V97.62H44.178V99.62ZM46.938 99.62V101.62C47.732 101.62 48.4913 101.55 49.2018 101.392L48.768 99.44L48.3341 97.4876C47.9646 97.5697 47.5039 97.62 46.938 97.62V99.62ZM48.768 99.44L49.253 101.38C50.0321 101.186 50.7643 100.863 51.408 100.38L50.208 98.78L49.008 97.18C48.8516 97.2973 48.6239 97.4145 48.2829 97.4997L48.768 99.44ZM50.208 98.78L51.4574 100.342C52.1426 99.7935 52.644 99.0933 52.9799 98.2993L51.138 97.52L49.296 96.7407C49.192 96.9867 49.0733 97.1265 48.9586 97.2183L50.208 98.78ZM51.138 97.52L52.9902 98.2746C53.3368 97.4238 53.468 96.4787 53.468 95.51H51.468H49.468C49.468 96.1413 49.3792 96.5362 49.2858 96.7654L51.138 97.52ZM51.468 95.51H53.468C53.468 94.5393 53.327 93.5559 52.8968 92.6956L51.108 93.59L49.3191 94.4844C49.3689 94.5841 49.468 94.8807 49.468 95.51H51.468ZM51.108 93.59L52.9386 92.7845C52.5511 91.9038 51.9212 91.1888 51.0721 90.7089L50.088 92.45L49.1039 94.1911C49.1747 94.2312 49.2249 94.2762 49.2773 94.3955L51.108 93.59ZM50.088 92.45L51.1054 90.7281C50.3587 90.2869 49.5094 90.0558 48.6417 89.9537L48.408 91.94L48.1743 93.9263C48.6665 93.9842 48.9372 94.0931 49.0705 94.1719L50.088 92.45ZM48.408 91.94L48.699 89.9613C47.8984 89.8436 47.0074 89.79 46.038 89.79V91.79V93.79C46.8685 93.79 47.5575 93.8364 48.117 93.9187L48.408 91.94ZM46.038 91.79V89.79H44.178V91.79V93.79H46.038V91.79ZM44.178 91.79H42.178V99.62H44.178H46.178V91.79H44.178ZM58.7591 89.54V87.54H56.7591V89.54H58.7591ZM61.2791 89.54H63.2791V87.54H61.2791V89.54ZM61.2791 107.6H59.2791V109.6H61.2791V107.6ZM70.5791 107.6H72.5791V105.6H70.5791V107.6ZM70.5791 110V112H72.5791V110H70.5791ZM58.7591 110H56.7591V112H58.7591V110ZM58.7591 89.54V91.54H61.2791V89.54V87.54H58.7591V89.54ZM61.2791 89.54H59.2791V107.6H61.2791H63.2791V89.54H61.2791ZM61.2791 107.6V109.6H70.5791V107.6V105.6H61.2791V107.6ZM70.5791 107.6H68.5791V110H70.5791H72.5791V107.6H70.5791ZM70.5791 110V108H58.7591V110V112H70.5791V110ZM58.7591 110H60.7591V89.54H58.7591H56.7591V110H58.7591ZM79.5798 89.54V87.54H78.1516L77.6881 88.8909L79.5798 89.54ZM82.6998 89.54L84.5916 88.8909L84.1281 87.54H82.6998V89.54ZM89.7198 110V112H92.5205L91.6116 109.351L89.7198 110ZM87.1098 110L85.2104 110.626L85.6633 112H87.1098V110ZM85.3098 104.54L87.2093 103.914L86.7564 102.54H85.3098V104.54ZM76.9998 104.54V102.54H75.5608L75.1035 103.904L76.9998 104.54ZM75.1698 110V112H76.6089L77.0662 110.636L75.1698 110ZM72.5598 110L70.6681 109.351L69.7592 112H72.5598V110ZM84.4998 102.14V104.14H87.249L86.4027 101.524L84.4998 102.14ZM81.1998 91.94L83.1027 91.3244L82.6549 89.94H81.1998V91.94ZM81.1098 91.94V89.94H79.6589L79.2086 91.3193L81.1098 91.94ZM77.7798 102.14L75.8786 101.519L75.023 104.14H77.7798V102.14ZM79.5798 89.54V91.54H82.6998V89.54V87.54H79.5798V89.54ZM82.6998 89.54L80.8081 90.1891L87.8281 110.649L89.7198 110L91.6116 109.351L84.5916 88.8909L82.6998 89.54ZM89.7198 110V108H87.1098V110V112H89.7198V110ZM87.1098 110L89.0093 109.374L87.2093 103.914L85.3098 104.54L83.4104 105.166L85.2104 110.626L87.1098 110ZM85.3098 104.54V102.54H76.9998V104.54V106.54H85.3098V104.54ZM76.9998 104.54L75.1035 103.904L73.2735 109.364L75.1698 110L77.0662 110.636L78.8962 105.176L76.9998 104.54ZM75.1698 110V108H72.5598V110V112H75.1698V110ZM72.5598 110L74.4516 110.649L81.4716 90.1891L79.5798 89.54L77.6881 88.8909L70.6681 109.351L72.5598 110ZM84.4998 102.14L86.4027 101.524L83.1027 91.3244L81.1998 91.94L79.297 92.5556L82.597 102.756L84.4998 102.14ZM81.1998 91.94V89.94H81.1098V91.94V93.94H81.1998V91.94ZM81.1098 91.94L79.2086 91.3193L75.8786 101.519L77.7798 102.14L79.6811 102.761L83.0111 92.5607L81.1098 91.94ZM77.7798 102.14V104.14H84.4998V102.14V100.14H77.7798V102.14ZM96.8699 102.56H98.8699V102.086L98.6571 101.662L96.8699 102.56ZM90.3299 89.54V87.54H87.0872L88.5427 90.4377L90.3299 89.54ZM93.1199 89.54L94.9055 88.6391L94.351 87.54H93.1199V89.54ZM98.1299 99.47L96.3443 100.371L98.1246 103.899L99.9134 100.375L98.1299 99.47ZM103.17 89.54V87.54H101.942L101.386 88.6348L103.17 89.54ZM105.96 89.54L107.747 90.4377L109.203 87.54H105.96V89.54ZM99.4199 102.56L97.6327 101.662L97.4199 102.086V102.56H99.4199ZM99.4199 110V112H101.42V110H99.4199ZM96.8699 110H94.8699V112H96.8699V110ZM96.8699 102.56L98.6571 101.662L92.1171 88.6423L90.3299 89.54L88.5427 90.4377L95.0827 103.458L96.8699 102.56ZM90.3299 89.54V91.54H93.1199V89.54V87.54H90.3299V89.54ZM93.1199 89.54L91.3343 90.4409L96.3443 100.371L98.1299 99.47L99.9155 98.5691L94.9055 88.6391L93.1199 89.54ZM98.1299 99.47L99.9134 100.375L104.953 90.4452L103.17 89.54L101.386 88.6348L96.3465 98.5648L98.1299 99.47ZM103.17 89.54V91.54H105.96V89.54V87.54H103.17V89.54ZM105.96 89.54L104.173 88.6423L97.6327 101.662L99.4199 102.56L101.207 103.458L107.747 90.4377L105.96 89.54ZM99.4199 102.56H97.4199V110H99.4199H101.42V102.56H99.4199ZM99.4199 110V108H96.8699V110V112H99.4199V110ZM96.8699 110H98.8699V102.56H96.8699H94.8699V110H96.8699ZM109.858 89.54V87.54H107.858V89.54H109.858ZM122.398 89.54H124.398V87.54H122.398V89.54ZM122.398 91.85V93.85H124.398V91.85H122.398ZM112.378 91.85V89.85H110.378V91.85H112.378ZM112.378 98.39H110.378V100.39H112.378V98.39ZM121.678 98.39H123.678V96.39H121.678V98.39ZM121.678 100.64V102.64H123.678V100.64H121.678ZM112.378 100.64V98.64H110.378V100.64H112.378ZM112.378 107.69H110.378V109.69H112.378V107.69ZM122.698 107.69H124.698V105.69H122.698V107.69ZM122.698 110V112H124.698V110H122.698ZM109.858 110H107.858V112H109.858V110ZM109.858 89.54V91.54H122.398V89.54V87.54H109.858V89.54ZM122.398 89.54H120.398V91.85H122.398H124.398V89.54H122.398ZM122.398 91.85V89.85H112.378V91.85V93.85H122.398V91.85ZM112.378 91.85H110.378V98.39H112.378H114.378V91.85H112.378ZM112.378 98.39V100.39H121.678V98.39V96.39H112.378V98.39ZM121.678 98.39H119.678V100.64H121.678H123.678V98.39H121.678ZM121.678 100.64V98.64H112.378V100.64V102.64H121.678V100.64ZM112.378 100.64H110.378V107.69H112.378H114.378V100.64H112.378ZM112.378 107.69V109.69H122.698V107.69V105.69H112.378V107.69ZM122.698 107.69H120.698V110H122.698H124.698V107.69H122.698ZM122.698 110V108H109.858V110V112H122.698V110ZM109.858 110H111.858V89.54H109.858H107.858V110H109.858ZM127.691 89.54V87.54H125.691V89.54H127.691ZM135.731 89.84L135.297 91.7924L135.322 91.7979L135.347 91.8028L135.731 89.84ZM138.071 90.8L136.904 92.424L136.921 92.4362L136.938 92.4481L138.071 90.8ZM140.051 95.36L142.051 95.3923L142.051 95.3761V95.36H140.051ZM139.421 98.39L141.191 99.3215L141.196 99.3121L141.201 99.3026L139.421 98.39ZM137.951 100.25L139.194 101.817L139.21 101.804L139.226 101.791L137.951 100.25ZM135.941 101.27L135.385 99.3489L133.941 99.7668V101.27H135.941ZM135.941 101.33H133.941V102.158L134.527 102.744L135.941 101.33ZM136.301 101.78L134.684 102.956L134.745 103.041L134.815 103.118L136.301 101.78ZM136.751 102.32L135.151 103.52L135.154 103.524L136.751 102.32ZM142.541 110V112H146.554L144.138 108.796L142.541 110ZM139.571 110L137.956 111.18L138.555 112H139.571V110ZM133.631 101.87L135.246 100.69L134.647 99.87H133.631V101.87ZM130.211 101.87V99.87H128.211V101.87H130.211ZM130.211 110V112H132.211V110H130.211ZM127.691 110H125.691V112H127.691V110ZM137.501 95.78L139.5 95.854L139.501 95.817V95.78H137.501ZM137.171 93.74L135.296 94.4346L135.311 94.4773L135.329 94.5193L137.171 93.74ZM136.241 92.51L135.094 94.1485L135.113 94.1615L135.132 94.1741L136.241 92.51ZM134.741 91.94L135.07 89.9672V89.9672L134.741 91.94ZM130.211 91.79V89.79H128.211V91.79H130.211ZM130.211 99.62H128.211V101.62H130.211V99.62ZM135.161 99.32L135.856 101.195V101.195L135.161 99.32ZM136.481 98.51L137.895 99.9242L137.916 99.904L137.935 99.8832L136.481 98.51ZM137.231 97.28L135.342 96.623V96.623L137.231 97.28ZM127.691 89.54V91.54H132.731V89.54V87.54H127.691V89.54ZM132.731 89.54V91.54C133.712 91.54 134.564 91.6294 135.297 91.7924L135.731 89.84L136.165 87.8876C135.098 87.6506 133.95 87.54 132.731 87.54V89.54ZM135.731 89.84L135.347 91.8028C136.038 91.9379 136.538 92.1608 136.904 92.424L138.071 90.8L139.238 89.176C138.325 88.5192 137.265 88.1021 136.115 87.8772L135.731 89.84ZM138.071 90.8L136.938 92.4481C137.266 92.6736 137.527 92.9762 137.724 93.405L139.541 92.57L141.359 91.735C140.876 90.6838 140.156 89.8064 139.204 89.1519L138.071 90.8ZM139.541 92.57L137.724 93.405C137.907 93.8042 138.051 94.4265 138.051 95.36H140.051H142.051C142.051 94.0535 141.855 92.8158 141.359 91.735L139.541 92.57ZM140.051 95.36L138.051 95.3277C138.034 96.3801 137.856 97.0591 137.642 97.4774L139.421 98.39L141.201 99.3026C141.786 98.1609 142.028 96.8199 142.051 95.3923L140.051 95.36ZM139.421 98.39L137.651 97.4585C137.357 98.0174 137.026 98.4197 136.676 98.7092L137.951 100.25L139.226 101.791C140.036 101.12 140.685 100.283 141.191 99.3215L139.421 98.39ZM137.951 100.25L136.708 98.683C136.346 98.9706 135.913 99.1961 135.385 99.3489L135.941 101.27L136.497 103.191C137.49 102.904 138.397 102.449 139.194 101.817L137.951 100.25ZM135.941 101.27H133.941V101.33H135.941H137.941V101.27H135.941ZM135.941 101.33L134.527 102.744C134.505 102.722 134.495 102.711 134.499 102.715C134.503 102.719 134.512 102.731 134.529 102.752C134.564 102.795 134.615 102.862 134.684 102.956L136.301 101.78L137.919 100.604C137.759 100.384 137.558 100.118 137.355 99.9158L135.941 101.33ZM136.301 101.78L134.815 103.118C134.967 103.288 135.077 103.421 135.151 103.52L136.751 102.32L138.351 101.12C138.186 100.899 137.995 100.672 137.788 100.442L136.301 101.78ZM136.751 102.32L135.154 103.524L140.944 111.204L142.541 110L144.138 108.796L138.348 101.116L136.751 102.32ZM142.541 110V108H139.571V110V112H142.541V110ZM139.571 110L141.186 108.82L135.246 100.69L133.631 101.87L132.016 103.05L137.956 111.18L139.571 110ZM133.631 101.87V99.87H130.211V101.87V103.87H133.631V101.87ZM130.211 101.87H128.211V110H130.211H132.211V101.87H130.211ZM130.211 110V108H127.691V110V112H130.211V110ZM127.691 110H129.691V89.54H127.691H125.691V110H127.691ZM137.501 95.78H139.501C139.501 94.791 139.375 93.8171 139.013 92.9607L137.171 93.74L135.329 94.5193C135.407 94.7029 135.501 95.089 135.501 95.78H137.501ZM137.171 93.74L139.047 93.0454C138.722 92.1674 138.17 91.3922 137.351 90.8459L136.241 92.51L135.132 94.1741C135.152 94.1878 135.221 94.2326 135.296 94.4346L137.171 93.74ZM136.241 92.51L137.388 90.8715C136.691 90.3837 135.894 90.1045 135.07 89.9672L134.741 91.94L134.412 93.9128C134.789 93.9755 134.991 94.0763 135.094 94.1485L136.241 92.51ZM134.741 91.94L135.07 89.9672C134.338 89.8453 133.545 89.79 132.701 89.79V91.79V93.79C133.377 93.79 133.944 93.8347 134.412 93.9128L134.741 91.94ZM132.701 91.79V89.79H130.211V91.79V93.79H132.701V91.79ZM130.211 91.79H128.211V99.62H130.211H132.211V91.79H130.211ZM130.211 99.62V101.62H133.181V99.62V97.62H130.211V99.62ZM133.181 99.62V101.62C134.12 101.62 135.03 101.501 135.856 101.195L135.161 99.32L134.467 97.4445C134.212 97.5387 133.803 97.62 133.181 97.62V99.62ZM135.161 99.32L135.856 101.195C136.614 100.915 137.315 100.504 137.895 99.9242L136.481 98.51L135.067 97.0958C134.967 97.1957 134.789 97.3251 134.467 97.4445L135.161 99.32ZM136.481 98.51L137.935 99.8832C138.466 99.3214 138.866 98.6684 139.12 97.937L137.231 97.28L135.342 96.623C135.277 96.8116 135.177 96.9786 135.027 97.1368L136.481 98.51ZM137.231 97.28L139.12 97.937C139.352 97.2699 139.473 96.5712 139.5 95.854L137.501 95.78L135.503 95.706C135.489 96.0688 135.43 96.3701 135.342 96.623L137.231 97.28ZM156.12 97.67H158.12V95.2522L155.745 95.7055L156.12 97.67ZM152.19 98.42L150.243 98.8781L150.682 100.744L152.565 100.385L152.19 98.42ZM151.71 96.38L151.179 94.4517L149.322 94.963L149.763 96.8381L151.71 96.38ZM157.05 94.91V92.91H156.779L156.519 92.9817L157.05 94.91ZM158.52 94.91H160.52V92.91H158.52V94.91ZM158.52 110V112H160.52V110H158.52ZM156.12 110H154.12V112H156.12V110ZM156.12 97.67L155.745 95.7055L151.815 96.4555L152.19 98.42L152.565 100.385L156.495 99.6345L156.12 97.67ZM152.19 98.42L154.137 97.9619L153.657 95.9219L151.71 96.38L149.763 96.8381L150.243 98.8781L152.19 98.42ZM151.71 96.38L152.241 98.3083L157.581 96.8383L157.05 94.91L156.519 92.9817L151.179 94.4517L151.71 96.38ZM157.05 94.91V96.91H158.52V94.91V92.91H157.05V94.91ZM158.52 94.91H156.52V110H158.52H160.52V94.91H158.52ZM158.52 110V108H156.12V110V112H158.52V110ZM156.12 110H158.12V97.67H156.12H154.12V110H156.12Z" fill="black" mask="url(#path-2-outside-1_46_1100)"/>
</svg>
