<svg width="612" height="177" viewBox="0 0 612 177" fill="none" xmlns="http://www.w3.org/2000/svg">
<rect x="2.5" y="2.5" width="607" height="172" rx="12.5" fill="white" stroke="black" stroke-width="5"/>
<mask id="path-2-outside-1_23_1277" maskUnits="userSpaceOnUse" x="39" y="55" width="516" height="68" fill="black">
<rect fill="white" x="39" y="55" width="516" height="68"/>
<path d="M44.1884 61.44H56.7484C63.6818 61.44 68.8018 62.6667 72.1084 65.12C75.4684 67.5733 77.1484 71.7067 77.1484 77.52C77.1484 80.72 76.5351 83.3867 75.3084 85.52C74.0818 87.6533 72.5351 89.3867 70.6684 90.72C68.8551 92 66.8818 92.9333 64.7484 93.52C62.6151 94.0533 60.6418 94.32 58.8284 94.32H50.9084V116H44.1884V61.44ZM50.9084 88.32H58.2684C60.0818 88.32 61.7084 88.16 63.1484 87.84C64.6418 87.4667 65.9218 86.88 66.9884 86.08C68.0551 85.2267 68.8818 84.1067 69.4684 82.72C70.0551 81.28 70.3484 79.4933 70.3484 77.36C70.3484 75.2267 70.0284 73.52 69.3884 72.24C68.8018 70.9067 67.8951 69.8933 66.6684 69.2C65.4951 68.5067 64.0018 68.0533 62.1884 67.84C60.3751 67.5733 58.2684 67.44 55.8684 67.44H50.9084V88.32ZM89.7916 61.44H103.232C106.165 61.44 108.832 61.7067 111.232 62.24C113.685 62.72 115.765 63.5733 117.472 64.8C119.178 65.9733 120.485 67.5467 121.392 69.52C122.298 71.4933 122.752 73.9733 122.752 76.96C122.698 80.2667 122.138 82.96 121.072 85.04C120.005 87.0667 118.698 88.72 117.152 90C115.605 91.2267 113.818 92.1333 111.792 92.72V92.88C112.005 93.0933 112.325 93.4933 112.752 94.08C113.232 94.6133 113.632 95.0933 113.952 95.52L129.392 116H121.472L105.632 94.32H96.5116V116H89.7916V61.44ZM115.952 78.08C115.952 75.84 115.658 74.0267 115.072 72.64C114.538 71.2 113.712 70.1067 112.592 69.36C111.525 68.6133 110.192 68.1067 108.592 67.84C106.992 67.5733 105.178 67.44 103.152 67.44H96.5116V88.32H104.432C106.512 88.32 108.272 88.0533 109.712 87.52C111.152 86.9867 112.325 86.2667 113.232 85.36C114.138 84.4 114.805 83.3067 115.232 82.08C115.658 80.8533 115.898 79.52 115.952 78.08ZM138.52 61.44H171.96V67.6H145.24V85.04H170.04V91.04H145.24V109.84H172.76V116H138.52V61.44ZM186.076 61.44H198.636C205.569 61.44 210.689 62.6667 213.996 65.12C217.356 67.5733 219.036 71.7067 219.036 77.52C219.036 80.72 218.423 83.3867 217.196 85.52C215.969 87.6533 214.423 89.3867 212.556 90.72C210.743 92 208.769 92.9333 206.636 93.52C204.503 94.0533 202.529 94.32 200.716 94.32H192.796V116H186.076V61.44ZM192.796 88.32H200.156C201.969 88.32 203.596 88.16 205.036 87.84C206.529 87.4667 207.809 86.88 208.876 86.08C209.943 85.2267 210.769 84.1067 211.356 82.72C211.943 81.28 212.236 79.4933 212.236 77.36C212.236 75.2267 211.916 73.52 211.276 72.24C210.689 70.9067 209.783 69.8933 208.556 69.2C207.383 68.5067 205.889 68.0533 204.076 67.84C202.263 67.5733 200.156 67.44 197.756 67.44H192.796V88.32ZM242.067 61.44H250.387L269.107 116H262.147L257.347 101.44H235.187L230.307 116H223.347L242.067 61.44ZM255.187 95.04L246.387 67.84H246.147L237.267 95.04H255.187ZM280.095 61.44H293.535C296.468 61.44 299.135 61.7067 301.535 62.24C303.988 62.72 306.068 63.5733 307.775 64.8C309.481 65.9733 310.788 67.5467 311.695 69.52C312.601 71.4933 313.055 73.9733 313.055 76.96C313.001 80.2667 312.441 82.96 311.375 85.04C310.308 87.0667 309.001 88.72 307.455 90C305.908 91.2267 304.121 92.1333 302.095 92.72V92.88C302.308 93.0933 302.628 93.4933 303.055 94.08C303.535 94.6133 303.935 95.0933 304.255 95.52L319.695 116H311.775L295.935 94.32H286.815V116H280.095V61.44ZM306.255 78.08C306.255 75.84 305.961 74.0267 305.375 72.64C304.841 71.2 304.015 70.1067 302.895 69.36C301.828 68.6133 300.495 68.1067 298.895 67.84C297.295 67.5733 295.481 67.44 293.455 67.44H286.815V88.32H294.735C296.815 88.32 298.575 88.0533 300.015 87.52C301.455 86.9867 302.628 86.2667 303.535 85.36C304.441 84.4 305.108 83.3067 305.535 82.08C305.961 80.8533 306.201 79.52 306.255 78.08ZM342.023 61.44H350.343L369.063 116H362.103L357.303 101.44H335.143L330.263 116H323.303L342.023 61.44ZM355.143 95.04L346.343 67.84H346.103L337.223 95.04H355.143ZM387.663 67.68H370.543V61.44H411.503V67.68H394.383V116H387.663V67.68ZM422.295 61.44H429.015V116H422.295V61.44ZM442.516 88.72C442.516 83.5467 443.316 79.1733 444.916 75.6C446.569 72.0267 448.649 69.1467 451.156 66.96C453.716 64.7733 456.543 63.2 459.636 62.24C462.783 61.2267 465.849 60.72 468.836 60.72C471.823 60.72 474.863 61.1467 477.956 62C481.103 62.8 483.929 64.2667 486.436 66.4C488.996 68.48 491.076 71.3333 492.676 74.96C494.329 78.5867 495.156 83.2 495.156 88.8C495.156 94.0267 494.329 98.4267 492.676 102C491.076 105.573 488.996 108.48 486.436 110.72C483.929 112.96 481.103 114.587 477.956 115.6C474.863 116.56 471.823 117.04 468.836 117.04C465.849 117.04 462.783 116.56 459.636 115.6C456.543 114.64 453.716 113.067 451.156 110.88C448.649 108.693 446.569 105.787 444.916 102.16C443.316 98.5333 442.516 94.0533 442.516 88.72ZM487.556 89.12C487.556 81.92 485.876 76.4533 482.516 72.72C479.209 68.9867 474.756 67.12 469.156 67.12C466.329 67.12 463.743 67.5733 461.396 68.48C459.103 69.3333 457.103 70.64 455.396 72.4C453.743 74.16 452.436 76.3733 451.476 79.04C450.569 81.6533 450.116 84.7467 450.116 88.32C450.116 95.52 451.769 101.04 455.076 104.88C458.436 108.72 462.916 110.64 468.516 110.64C471.289 110.64 473.849 110.213 476.196 109.36C478.543 108.453 480.543 107.093 482.196 105.28C483.903 103.467 485.209 101.227 486.116 98.56C487.076 95.8933 487.556 92.7467 487.556 89.12ZM508.657 61.44H515.057L543.697 104.72H543.857C543.751 103.173 543.671 101.52 543.617 99.76C543.511 98.2667 543.431 96.56 543.377 94.64C543.377 92.6667 543.377 90.6667 543.377 88.64V61.44H549.777V116H543.377L514.737 72.56H514.577C514.631 74.16 514.711 75.84 514.817 77.6C514.871 79.1467 514.924 80.88 514.977 82.8C515.031 84.72 515.057 86.6933 515.057 88.72V116H508.657V61.44Z"/>
</mask>
<path d="M44.1884 61.44H56.7484C63.6818 61.44 68.8018 62.6667 72.1084 65.12C75.4684 67.5733 77.1484 71.7067 77.1484 77.52C77.1484 80.72 76.5351 83.3867 75.3084 85.52C74.0818 87.6533 72.5351 89.3867 70.6684 90.72C68.8551 92 66.8818 92.9333 64.7484 93.52C62.6151 94.0533 60.6418 94.32 58.8284 94.32H50.9084V116H44.1884V61.44ZM50.9084 88.32H58.2684C60.0818 88.32 61.7084 88.16 63.1484 87.84C64.6418 87.4667 65.9218 86.88 66.9884 86.08C68.0551 85.2267 68.8818 84.1067 69.4684 82.72C70.0551 81.28 70.3484 79.4933 70.3484 77.36C70.3484 75.2267 70.0284 73.52 69.3884 72.24C68.8018 70.9067 67.8951 69.8933 66.6684 69.2C65.4951 68.5067 64.0018 68.0533 62.1884 67.84C60.3751 67.5733 58.2684 67.44 55.8684 67.44H50.9084V88.32ZM89.7916 61.44H103.232C106.165 61.44 108.832 61.7067 111.232 62.24C113.685 62.72 115.765 63.5733 117.472 64.8C119.178 65.9733 120.485 67.5467 121.392 69.52C122.298 71.4933 122.752 73.9733 122.752 76.96C122.698 80.2667 122.138 82.96 121.072 85.04C120.005 87.0667 118.698 88.72 117.152 90C115.605 91.2267 113.818 92.1333 111.792 92.72V92.88C112.005 93.0933 112.325 93.4933 112.752 94.08C113.232 94.6133 113.632 95.0933 113.952 95.52L129.392 116H121.472L105.632 94.32H96.5116V116H89.7916V61.44ZM115.952 78.08C115.952 75.84 115.658 74.0267 115.072 72.64C114.538 71.2 113.712 70.1067 112.592 69.36C111.525 68.6133 110.192 68.1067 108.592 67.84C106.992 67.5733 105.178 67.44 103.152 67.44H96.5116V88.32H104.432C106.512 88.32 108.272 88.0533 109.712 87.52C111.152 86.9867 112.325 86.2667 113.232 85.36C114.138 84.4 114.805 83.3067 115.232 82.08C115.658 80.8533 115.898 79.52 115.952 78.08ZM138.52 61.44H171.96V67.6H145.24V85.04H170.04V91.04H145.24V109.84H172.76V116H138.52V61.44ZM186.076 61.44H198.636C205.569 61.44 210.689 62.6667 213.996 65.12C217.356 67.5733 219.036 71.7067 219.036 77.52C219.036 80.72 218.423 83.3867 217.196 85.52C215.969 87.6533 214.423 89.3867 212.556 90.72C210.743 92 208.769 92.9333 206.636 93.52C204.503 94.0533 202.529 94.32 200.716 94.32H192.796V116H186.076V61.44ZM192.796 88.32H200.156C201.969 88.32 203.596 88.16 205.036 87.84C206.529 87.4667 207.809 86.88 208.876 86.08C209.943 85.2267 210.769 84.1067 211.356 82.72C211.943 81.28 212.236 79.4933 212.236 77.36C212.236 75.2267 211.916 73.52 211.276 72.24C210.689 70.9067 209.783 69.8933 208.556 69.2C207.383 68.5067 205.889 68.0533 204.076 67.84C202.263 67.5733 200.156 67.44 197.756 67.44H192.796V88.32ZM242.067 61.44H250.387L269.107 116H262.147L257.347 101.44H235.187L230.307 116H223.347L242.067 61.44ZM255.187 95.04L246.387 67.84H246.147L237.267 95.04H255.187ZM280.095 61.44H293.535C296.468 61.44 299.135 61.7067 301.535 62.24C303.988 62.72 306.068 63.5733 307.775 64.8C309.481 65.9733 310.788 67.5467 311.695 69.52C312.601 71.4933 313.055 73.9733 313.055 76.96C313.001 80.2667 312.441 82.96 311.375 85.04C310.308 87.0667 309.001 88.72 307.455 90C305.908 91.2267 304.121 92.1333 302.095 92.72V92.88C302.308 93.0933 302.628 93.4933 303.055 94.08C303.535 94.6133 303.935 95.0933 304.255 95.52L319.695 116H311.775L295.935 94.32H286.815V116H280.095V61.44ZM306.255 78.08C306.255 75.84 305.961 74.0267 305.375 72.64C304.841 71.2 304.015 70.1067 302.895 69.36C301.828 68.6133 300.495 68.1067 298.895 67.84C297.295 67.5733 295.481 67.44 293.455 67.44H286.815V88.32H294.735C296.815 88.32 298.575 88.0533 300.015 87.52C301.455 86.9867 302.628 86.2667 303.535 85.36C304.441 84.4 305.108 83.3067 305.535 82.08C305.961 80.8533 306.201 79.52 306.255 78.08ZM342.023 61.44H350.343L369.063 116H362.103L357.303 101.44H335.143L330.263 116H323.303L342.023 61.44ZM355.143 95.04L346.343 67.84H346.103L337.223 95.04H355.143ZM387.663 67.68H370.543V61.44H411.503V67.68H394.383V116H387.663V67.68ZM422.295 61.44H429.015V116H422.295V61.44ZM442.516 88.72C442.516 83.5467 443.316 79.1733 444.916 75.6C446.569 72.0267 448.649 69.1467 451.156 66.96C453.716 64.7733 456.543 63.2 459.636 62.24C462.783 61.2267 465.849 60.72 468.836 60.72C471.823 60.72 474.863 61.1467 477.956 62C481.103 62.8 483.929 64.2667 486.436 66.4C488.996 68.48 491.076 71.3333 492.676 74.96C494.329 78.5867 495.156 83.2 495.156 88.8C495.156 94.0267 494.329 98.4267 492.676 102C491.076 105.573 488.996 108.48 486.436 110.72C483.929 112.96 481.103 114.587 477.956 115.6C474.863 116.56 471.823 117.04 468.836 117.04C465.849 117.04 462.783 116.56 459.636 115.6C456.543 114.64 453.716 113.067 451.156 110.88C448.649 108.693 446.569 105.787 444.916 102.16C443.316 98.5333 442.516 94.0533 442.516 88.72ZM487.556 89.12C487.556 81.92 485.876 76.4533 482.516 72.72C479.209 68.9867 474.756 67.12 469.156 67.12C466.329 67.12 463.743 67.5733 461.396 68.48C459.103 69.3333 457.103 70.64 455.396 72.4C453.743 74.16 452.436 76.3733 451.476 79.04C450.569 81.6533 450.116 84.7467 450.116 88.32C450.116 95.52 451.769 101.04 455.076 104.88C458.436 108.72 462.916 110.64 468.516 110.64C471.289 110.64 473.849 110.213 476.196 109.36C478.543 108.453 480.543 107.093 482.196 105.28C483.903 103.467 485.209 101.227 486.116 98.56C487.076 95.8933 487.556 92.7467 487.556 89.12ZM508.657 61.44H515.057L543.697 104.72H543.857C543.751 103.173 543.671 101.52 543.617 99.76C543.511 98.2667 543.431 96.56 543.377 94.64C543.377 92.6667 543.377 90.6667 543.377 88.64V61.44H549.777V116H543.377L514.737 72.56H514.577C514.631 74.16 514.711 75.84 514.817 77.6C514.871 79.1467 514.924 80.88 514.977 82.8C515.031 84.72 515.057 86.6933 515.057 88.72V116H508.657V61.44Z" fill="black"/>
<path d="M44.1884 61.44V56.44H39.1884V61.44H44.1884ZM72.1084 65.12L69.1292 69.1355L69.1445 69.1469L69.16 69.1581L72.1084 65.12ZM75.3084 85.52L79.643 88.0124L79.643 88.0124L75.3084 85.52ZM70.6684 90.72L73.5519 94.8048L73.5633 94.7968L73.5746 94.7887L70.6684 90.72ZM64.7484 93.52L65.9611 98.3707L66.0178 98.3565L66.0742 98.341L64.7484 93.52ZM50.9084 94.32V89.32H45.9084V94.32H50.9084ZM50.9084 116V121H55.9084V116H50.9084ZM44.1884 116H39.1884V121H44.1884V116ZM50.9084 88.32H45.9084V93.32H50.9084V88.32ZM63.1484 87.84L64.2331 92.7209L64.2973 92.7067L64.3611 92.6907L63.1484 87.84ZM66.9884 86.08L69.9884 90.08L70.0509 90.0331L70.1119 89.9843L66.9884 86.08ZM69.4684 82.72L74.0733 84.6682L74.0863 84.6374L74.0989 84.6065L69.4684 82.72ZM69.3884 72.24L64.8119 74.2537L64.8614 74.3662L64.9163 74.4761L69.3884 72.24ZM66.6684 69.2L64.1248 73.5046L64.1662 73.5291L64.2082 73.5528L66.6684 69.2ZM62.1884 67.84L61.461 72.7868L61.5325 72.7973L61.6042 72.8057L62.1884 67.84ZM50.9084 67.44V62.44H45.9084V67.44H50.9084ZM44.1884 61.44V66.44H56.7484V61.44V56.44H44.1884V61.44ZM56.7484 61.44V66.44C63.2729 66.44 67.0972 67.6279 69.1292 69.1355L72.1084 65.12L75.0877 61.1045C70.5063 57.7054 64.0907 56.44 56.7484 56.44V61.44ZM72.1084 65.12L69.16 69.1581C70.7659 70.3307 72.1484 72.6237 72.1484 77.52H77.1484H82.1484C82.1484 70.7896 80.171 64.8159 75.0569 61.0819L72.1084 65.12ZM77.1484 77.52H72.1484C72.1484 80.1014 71.6525 81.8474 70.9739 83.0276L75.3084 85.52L79.643 88.0124C81.4177 84.9259 82.1484 81.3386 82.1484 77.52H77.1484ZM75.3084 85.52L70.9739 83.0276C70.0783 84.5852 69.0036 85.7647 67.7622 86.6513L70.6684 90.72L73.5746 94.7887C76.0666 93.0087 78.0852 90.7215 79.643 88.0124L75.3084 85.52ZM70.6684 90.72L67.785 86.6352C66.4429 87.5826 64.9963 88.2662 63.4227 88.699L64.7484 93.52L66.0742 98.341C68.7673 97.6004 71.2674 96.4174 73.5519 94.8048L70.6684 90.72ZM64.7484 93.52L63.5358 88.6693C61.7182 89.1237 60.1573 89.32 58.8284 89.32V94.32V99.32C61.1262 99.32 63.512 98.983 65.9611 98.3707L64.7484 93.52ZM58.8284 94.32V89.32H50.9084V94.32V99.32H58.8284V94.32ZM50.9084 94.32H45.9084V116H50.9084H55.9084V94.32H50.9084ZM50.9084 116V111H44.1884V116V121H50.9084V116ZM44.1884 116H49.1884V61.44H44.1884H39.1884V116H44.1884ZM50.9084 88.32V93.32H58.2684V88.32V83.32H50.9084V88.32ZM58.2684 88.32V93.32C60.367 93.32 62.3669 93.1357 64.2331 92.7209L63.1484 87.84L62.0638 82.9591C61.05 83.1843 59.7966 83.32 58.2684 83.32V88.32ZM63.1484 87.84L64.3611 92.6907C66.402 92.1805 68.3127 91.3368 69.9884 90.08L66.9884 86.08L63.9884 82.08C63.5308 82.4232 62.8815 82.7528 61.9358 82.9893L63.1484 87.84ZM66.9884 86.08L70.1119 89.9843C71.8917 88.5605 73.1968 86.74 74.0733 84.6682L69.4684 82.72L64.8636 80.7718C64.5668 81.4734 64.2185 81.8928 63.865 82.1757L66.9884 86.08ZM69.4684 82.72L74.0989 84.6065C75.0021 82.3894 75.3484 79.9152 75.3484 77.36H70.3484H65.3484C65.3484 79.0715 65.1081 80.1706 64.838 80.8335L69.4684 82.72ZM70.3484 77.36H75.3484C75.3484 74.8 74.976 72.2348 73.8606 70.0039L69.3884 72.24L64.9163 74.4761C65.0809 74.8052 65.3484 75.6533 65.3484 77.36H70.3484ZM69.3884 72.24L73.965 70.2263C72.9596 67.9412 71.3283 66.0904 69.1287 64.8472L66.6684 69.2L64.2082 73.5528C64.462 73.6963 64.644 73.8722 64.8119 74.2537L69.3884 72.24ZM66.6684 69.2L69.2121 64.8954C67.2719 63.7489 65.0554 63.1428 62.7726 62.8742L62.1884 67.84L61.6042 72.8057C62.9481 72.9639 63.7183 73.2644 64.1248 73.5046L66.6684 69.2ZM62.1884 67.84L62.9159 62.8932C60.8012 62.5822 58.442 62.44 55.8684 62.44V67.44V72.44C58.0949 72.44 59.949 72.5644 61.461 72.7868L62.1884 67.84ZM55.8684 67.44V62.44H50.9084V67.44V72.44H55.8684V67.44ZM50.9084 67.44H45.9084V88.32H50.9084H55.9084V67.44H50.9084ZM89.7916 61.44V56.44H84.7916V61.44H89.7916ZM111.232 62.24L110.147 67.1209L110.209 67.1347L110.272 67.147L111.232 62.24ZM117.472 64.8L114.553 68.8601L114.596 68.8906L114.639 68.9202L117.472 64.8ZM122.752 76.96L127.751 77.0406L127.752 77.0003V76.96H122.752ZM121.072 85.04L125.496 87.3687L125.509 87.3452L125.521 87.3216L121.072 85.04ZM117.152 90L120.259 93.9175L120.299 93.8852L120.339 93.852L117.152 90ZM111.792 92.72L110.401 87.9172L106.792 88.9621V92.72H111.792ZM111.792 92.88H106.792V94.9511L108.256 96.4155L111.792 92.88ZM112.752 94.08L108.708 97.0209L108.861 97.2314L109.035 97.4248L112.752 94.08ZM113.952 95.52L109.952 98.52L109.959 98.53L113.952 95.52ZM129.392 116V121H139.423L133.384 112.99L129.392 116ZM121.472 116L117.434 118.95L118.932 121H121.472V116ZM105.632 94.32L109.669 91.3703L108.171 89.32H105.632V94.32ZM96.5116 94.32V89.32H91.5116V94.32H96.5116ZM96.5116 116V121H101.512V116H96.5116ZM89.7916 116H84.7916V121H89.7916V116ZM115.952 78.08L120.948 78.2651L120.952 78.1726V78.08H115.952ZM115.072 72.64L110.383 74.3766L110.422 74.4833L110.467 74.5882L115.072 72.64ZM112.592 69.36L109.724 73.4562L109.771 73.4887L109.818 73.5203L112.592 69.36ZM108.592 67.84L109.414 62.908L109.414 62.908L108.592 67.84ZM96.5116 67.44V62.44H91.5116V67.44H96.5116ZM96.5116 88.32H91.5116V93.32H96.5116V88.32ZM109.712 87.52L111.448 92.2087L111.448 92.2087L109.712 87.52ZM113.232 85.36L116.767 88.8955L116.818 88.845L116.867 88.7931L113.232 85.36ZM115.232 82.08L110.509 80.4374V80.4374L115.232 82.08ZM89.7916 61.44V66.44H103.232V61.44V56.44H89.7916V61.44ZM103.232 61.44V66.44C105.868 66.44 108.164 66.6802 110.147 67.1209L111.232 62.24L112.316 57.3591C109.5 56.7331 106.462 56.44 103.232 56.44V61.44ZM111.232 62.24L110.272 67.147C112.151 67.5146 113.531 68.1253 114.553 68.8601L117.472 64.8L120.39 60.7399C117.999 59.0214 115.219 57.9254 112.192 57.333L111.232 62.24ZM117.472 64.8L114.639 68.9202C115.566 69.5574 116.299 70.4121 116.848 71.6075L121.392 69.52L125.935 67.4325C124.671 64.6812 122.791 62.3893 120.304 60.6798L117.472 64.8ZM121.392 69.52L116.848 71.6075C117.363 72.7288 117.752 74.4396 117.752 76.96H122.752H127.752C127.752 73.507 127.233 70.2579 125.935 67.4325L121.392 69.52ZM122.752 76.96L117.752 76.8794C117.706 79.717 117.225 81.5828 116.622 82.7584L121.072 85.04L125.521 87.3216C127.051 84.3372 127.69 80.8163 127.751 77.0406L122.752 76.96ZM121.072 85.04L116.647 82.7113C115.845 84.2352 114.935 85.3443 113.964 86.148L117.152 90L120.339 93.852C122.462 92.0957 124.165 89.8981 125.496 87.3687L121.072 85.04ZM117.152 90L114.045 86.0825C113.041 86.8781 111.847 87.4987 110.401 87.9172L111.792 92.72L113.182 97.5228C115.789 96.768 118.168 95.5752 120.259 93.9175L117.152 90ZM111.792 92.72H106.792V92.88H111.792H116.792V92.72H111.792ZM111.792 92.88L108.256 96.4155C108.205 96.3643 108.184 96.339 108.199 96.3559C108.211 96.3698 108.24 96.4038 108.287 96.4635C108.384 96.5849 108.523 96.7663 108.708 97.0209L112.752 94.08L116.795 91.1391C116.368 90.5523 115.847 89.8639 115.327 89.3445L111.792 92.88ZM112.752 94.08L109.035 97.4248C109.447 97.8825 109.745 98.245 109.952 98.52L113.952 95.52L117.952 92.52C117.518 91.9417 117.016 91.3441 116.468 90.7352L112.752 94.08ZM113.952 95.52L109.959 98.53L125.399 119.01L129.392 116L133.384 112.99L117.944 92.51L113.952 95.52ZM129.392 116V111H121.472V116V121H129.392V116ZM121.472 116L125.509 113.05L109.669 91.3703L105.632 94.32L101.594 97.2697L117.434 118.95L121.472 116ZM105.632 94.32V89.32H96.5116V94.32V99.32H105.632V94.32ZM96.5116 94.32H91.5116V116H96.5116H101.512V94.32H96.5116ZM96.5116 116V111H89.7916V116V121H96.5116V116ZM89.7916 116H94.7916V61.44H89.7916H84.7916V116H89.7916ZM115.952 78.08H120.952C120.952 75.4675 120.619 72.9194 119.676 70.6918L115.072 72.64L110.467 74.5882C110.698 75.1339 110.952 76.2125 110.952 78.08H115.952ZM115.072 72.64L119.76 70.9034C118.914 68.6186 117.484 66.6122 115.365 65.1997L112.592 69.36L109.818 73.5203C109.939 73.6011 110.162 73.7814 110.383 74.3766L115.072 72.64ZM112.592 69.36L115.459 65.2638C113.65 63.9977 111.573 63.2679 109.414 62.908L108.592 67.84L107.77 72.772C108.81 72.9454 109.4 73.229 109.724 73.4562L112.592 69.36ZM108.592 67.84L109.414 62.908C107.485 62.5866 105.389 62.44 103.152 62.44V67.44V72.44C104.968 72.44 106.498 72.5601 107.77 72.772L108.592 67.84ZM103.152 67.44V62.44H96.5116V67.44V72.44H103.152V67.44ZM96.5116 67.44H91.5116V88.32H96.5116H101.512V67.44H96.5116ZM96.5116 88.32V93.32H104.432V88.32V83.32H96.5116V88.32ZM104.432 88.32V93.32C106.908 93.32 109.294 93.0066 111.448 92.2087L109.712 87.52L107.975 82.8313C107.249 83.1 106.115 83.32 104.432 83.32V88.32ZM109.712 87.52L111.448 92.2087C113.432 91.4738 115.26 90.4024 116.767 88.8955L113.232 85.36L109.696 81.8245C109.39 82.131 108.871 82.4995 107.975 82.8313L109.712 87.52ZM113.232 85.36L116.867 88.7931C118.25 87.3286 119.291 85.6276 119.954 83.7226L115.232 82.08L110.509 80.4374C110.318 80.9857 110.027 81.4714 109.597 81.9269L113.232 85.36ZM115.232 82.08L119.954 83.7226C120.561 81.9781 120.878 80.148 120.948 78.2651L115.952 78.08L110.955 77.8949C110.918 78.892 110.756 79.7285 110.509 80.4374L115.232 82.08ZM138.52 61.44V56.44H133.52V61.44H138.52ZM171.96 61.44H176.96V56.44H171.96V61.44ZM171.96 67.6V72.6H176.96V67.6H171.96ZM145.24 67.6V62.6H140.24V67.6H145.24ZM145.24 85.04H140.24V90.04H145.24V85.04ZM170.04 85.04H175.04V80.04H170.04V85.04ZM170.04 91.04V96.04H175.04V91.04H170.04ZM145.24 91.04V86.04H140.24V91.04H145.24ZM145.24 109.84H140.24V114.84H145.24V109.84ZM172.76 109.84H177.76V104.84H172.76V109.84ZM172.76 116V121H177.76V116H172.76ZM138.52 116H133.52V121H138.52V116ZM138.52 61.44V66.44H171.96V61.44V56.44H138.52V61.44ZM171.96 61.44H166.96V67.6H171.96H176.96V61.44H171.96ZM171.96 67.6V62.6H145.24V67.6V72.6H171.96V67.6ZM145.24 67.6H140.24V85.04H145.24H150.24V67.6H145.24ZM145.24 85.04V90.04H170.04V85.04V80.04H145.24V85.04ZM170.04 85.04H165.04V91.04H170.04H175.04V85.04H170.04ZM170.04 91.04V86.04H145.24V91.04V96.04H170.04V91.04ZM145.24 91.04H140.24V109.84H145.24H150.24V91.04H145.24ZM145.24 109.84V114.84H172.76V109.84V104.84H145.24V109.84ZM172.76 109.84H167.76V116H172.76H177.76V109.84H172.76ZM172.76 116V111H138.52V116V121H172.76V116ZM138.52 116H143.52V61.44H138.52H133.52V116H138.52ZM186.076 61.44V56.44H181.076V61.44H186.076ZM213.996 65.12L211.017 69.1355L211.032 69.1469L211.047 69.1581L213.996 65.12ZM217.196 85.52L221.53 88.0124V88.0124L217.196 85.52ZM212.556 90.72L215.439 94.8048L215.451 94.7968L215.462 94.7887L212.556 90.72ZM206.636 93.52L207.849 98.3707L207.905 98.3565L207.962 98.341L206.636 93.52ZM192.796 94.32V89.32H187.796V94.32H192.796ZM192.796 116V121H197.796V116H192.796ZM186.076 116H181.076V121H186.076V116ZM192.796 88.32H187.796V93.32H192.796V88.32ZM205.036 87.84L206.121 92.7209L206.185 92.7067L206.249 92.6907L205.036 87.84ZM208.876 86.08L211.876 90.08L211.938 90.0331L211.999 89.9843L208.876 86.08ZM211.356 82.72L215.961 84.6682L215.974 84.6374L215.986 84.6065L211.356 82.72ZM211.276 72.24L206.699 74.2537L206.749 74.3662L206.804 74.4761L211.276 72.24ZM208.556 69.2L206.012 73.5046L206.054 73.5291L206.096 73.5528L208.556 69.2ZM204.076 67.84L203.348 72.7868L203.42 72.7973L203.492 72.8057L204.076 67.84ZM192.796 67.44V62.44H187.796V67.44H192.796ZM186.076 61.44V66.44H198.636V61.44V56.44H186.076V61.44ZM198.636 61.44V66.44C205.16 66.44 208.985 67.6279 211.017 69.1355L213.996 65.12L216.975 61.1045C212.394 57.7054 205.978 56.44 198.636 56.44V61.44ZM213.996 65.12L211.047 69.1581C212.653 70.3307 214.036 72.6237 214.036 77.52H219.036H224.036C224.036 70.7896 222.058 64.8159 216.944 61.0819L213.996 65.12ZM219.036 77.52H214.036C214.036 80.1014 213.54 81.8474 212.861 83.0276L217.196 85.52L221.53 88.0124C223.305 84.9259 224.036 81.3386 224.036 77.52H219.036ZM217.196 85.52L212.861 83.0276C211.966 84.5852 210.891 85.7647 209.65 86.6513L212.556 90.72L215.462 94.7887C217.954 93.0087 219.973 90.7215 221.53 88.0124L217.196 85.52ZM212.556 90.72L209.673 86.6352C208.33 87.5826 206.884 88.2662 205.31 88.699L206.636 93.52L207.962 98.341C210.655 97.6004 213.155 96.4174 215.439 94.8048L212.556 90.72ZM206.636 93.52L205.423 88.6693C203.606 89.1237 202.045 89.32 200.716 89.32V94.32V99.32C203.014 99.32 205.399 98.983 207.849 98.3707L206.636 93.52ZM200.716 94.32V89.32H192.796V94.32V99.32H200.716V94.32ZM192.796 94.32H187.796V116H192.796H197.796V94.32H192.796ZM192.796 116V111H186.076V116V121H192.796V116ZM186.076 116H191.076V61.44H186.076H181.076V116H186.076ZM192.796 88.32V93.32H200.156V88.32V83.32H192.796V88.32ZM200.156 88.32V93.32C202.254 93.32 204.254 93.1357 206.121 92.7209L205.036 87.84L203.951 82.9591C202.938 83.1843 201.684 83.32 200.156 83.32V88.32ZM205.036 87.84L206.249 92.6907C208.29 92.1805 210.2 91.3368 211.876 90.08L208.876 86.08L205.876 82.08C205.418 82.4232 204.769 82.7528 203.823 82.9893L205.036 87.84ZM208.876 86.08L211.999 89.9843C213.779 88.5605 215.084 86.74 215.961 84.6682L211.356 82.72L206.751 80.7718C206.454 81.4734 206.106 81.8928 205.752 82.1757L208.876 86.08ZM211.356 82.72L215.986 84.6065C216.89 82.3894 217.236 79.9152 217.236 77.36H212.236H207.236C207.236 79.0715 206.996 80.1706 206.725 80.8335L211.356 82.72ZM212.236 77.36H217.236C217.236 74.8 216.864 72.2348 215.748 70.0039L211.276 72.24L206.804 74.4761C206.968 74.8052 207.236 75.6533 207.236 77.36H212.236ZM211.276 72.24L215.853 70.2263C214.847 67.9412 213.216 66.0904 211.016 64.8472L208.556 69.2L206.096 73.5528C206.349 73.6963 206.531 73.8722 206.699 74.2537L211.276 72.24ZM208.556 69.2L211.1 64.8954C209.159 63.7489 206.943 63.1428 204.66 62.8742L204.076 67.84L203.492 72.8057C204.836 72.9639 205.606 73.2644 206.012 73.5046L208.556 69.2ZM204.076 67.84L204.803 62.8932C202.689 62.5822 200.33 62.44 197.756 62.44V67.44V72.44C199.982 72.44 201.836 72.5644 203.348 72.7868L204.076 67.84ZM197.756 67.44V62.44H192.796V67.44V72.44H197.756V67.44ZM192.796 67.44H187.796V88.32H192.796H197.796V67.44H192.796ZM242.067 61.44V56.44H238.496L237.337 59.8173L242.067 61.44ZM250.387 61.44L255.116 59.8173L253.957 56.44H250.387V61.44ZM269.107 116V121H276.108L273.836 114.377L269.107 116ZM262.147 116L257.398 117.565L258.53 121H262.147V116ZM257.347 101.44L262.095 99.8745L260.963 96.44H257.347V101.44ZM235.187 101.44V96.44H231.589L230.446 99.851L235.187 101.44ZM230.307 116V121H233.904L235.047 117.589L230.307 116ZM223.347 116L218.617 114.377L216.345 121H223.347V116ZM255.187 95.04V100.04H262.059L259.944 93.5009L255.187 95.04ZM246.387 67.84L251.144 66.3009L250.024 62.84H246.387V67.84ZM246.147 67.84V62.84H242.519L241.393 66.2882L246.147 67.84ZM237.267 95.04L232.513 93.4882L230.374 100.04H237.267V95.04ZM242.067 61.44V66.44H250.387V61.44V56.44H242.067V61.44ZM250.387 61.44L245.657 63.0627L264.377 117.623L269.107 116L273.836 114.377L255.116 59.8173L250.387 61.44ZM269.107 116V111H262.147V116V121H269.107V116ZM262.147 116L266.895 114.435L262.095 99.8745L257.347 101.44L252.598 103.005L257.398 117.565L262.147 116ZM257.347 101.44V96.44H235.187V101.44V106.44H257.347V101.44ZM235.187 101.44L230.446 99.851L225.566 114.411L230.307 116L235.047 117.589L239.927 103.029L235.187 101.44ZM230.307 116V111H223.347V116V121H230.307V116ZM223.347 116L228.076 117.623L246.796 63.0627L242.067 61.44L237.337 59.8173L218.617 114.377L223.347 116ZM255.187 95.04L259.944 93.5009L251.144 66.3009L246.387 67.84L241.629 69.3791L250.429 96.5791L255.187 95.04ZM246.387 67.84V62.84H246.147V67.84V72.84H246.387V67.84ZM246.147 67.84L241.393 66.2882L232.513 93.4882L237.267 95.04L242.02 96.5918L250.9 69.3917L246.147 67.84ZM237.267 95.04V100.04H255.187V95.04V90.04H237.267V95.04ZM280.095 61.44V56.44H275.095V61.44H280.095ZM301.535 62.24L300.45 67.1209L300.512 67.1347L300.575 67.147L301.535 62.24ZM307.775 64.8L304.857 68.8601L304.899 68.8906L304.942 68.9202L307.775 64.8ZM313.055 76.96L318.054 77.0406L318.055 77.0003V76.96H313.055ZM311.375 85.04L315.799 87.3687L315.812 87.3452L315.824 87.3216L311.375 85.04ZM307.455 90L310.562 93.9175L310.602 93.8852L310.643 93.852L307.455 90ZM302.095 92.72L300.704 87.9172L297.095 88.9621V92.72H302.095ZM302.095 92.88H297.095V94.9511L298.559 96.4155L302.095 92.88ZM303.055 94.08L299.011 97.0209L299.164 97.2314L299.338 97.4248L303.055 94.08ZM304.255 95.52L300.255 98.52L300.262 98.53L304.255 95.52ZM319.695 116V121H329.726L323.687 112.99L319.695 116ZM311.775 116L307.737 118.95L309.235 121H311.775V116ZM295.935 94.32L299.972 91.3703L298.474 89.32H295.935V94.32ZM286.815 94.32V89.32H281.815V94.32H286.815ZM286.815 116V121H291.815V116H286.815ZM280.095 116H275.095V121H280.095V116ZM306.255 78.08L311.251 78.2651L311.255 78.1726V78.08H306.255ZM305.375 72.64L300.686 74.3766L300.725 74.4833L300.77 74.5882L305.375 72.64ZM302.895 69.36L300.027 73.4562L300.074 73.4887L300.121 73.5203L302.895 69.36ZM298.895 67.84L299.717 62.908L299.717 62.908L298.895 67.84ZM286.815 67.44V62.44H281.815V67.44H286.815ZM286.815 88.32H281.815V93.32H286.815V88.32ZM300.015 87.52L301.751 92.2087V92.2087L300.015 87.52ZM303.535 85.36L307.07 88.8955L307.121 88.845L307.17 88.7931L303.535 85.36ZM305.535 82.08L300.812 80.4374V80.4374L305.535 82.08ZM280.095 61.44V66.44H293.535V61.44V56.44H280.095V61.44ZM293.535 61.44V66.44C296.171 66.44 298.467 66.6802 300.45 67.1209L301.535 62.24L302.619 57.3591C299.803 56.7331 296.765 56.44 293.535 56.44V61.44ZM301.535 62.24L300.575 67.147C302.454 67.5146 303.834 68.1253 304.857 68.8601L307.775 64.8L310.693 60.7399C308.302 59.0214 305.522 57.9254 302.495 57.333L301.535 62.24ZM307.775 64.8L304.942 68.9202C305.869 69.5574 306.602 70.4121 307.151 71.6075L311.695 69.52L316.238 67.4325C314.974 64.6812 313.094 62.3893 310.607 60.6798L307.775 64.8ZM311.695 69.52L307.151 71.6075C307.666 72.7288 308.055 74.4396 308.055 76.96H313.055H318.055C318.055 73.507 317.536 70.2579 316.238 67.4325L311.695 69.52ZM313.055 76.96L308.055 76.8794C308.01 79.717 307.528 81.5828 306.926 82.7584L311.375 85.04L315.824 87.3216C317.354 84.3372 317.993 80.8163 318.054 77.0406L313.055 76.96ZM311.375 85.04L306.95 82.7113C306.148 84.2352 305.238 85.3443 304.267 86.148L307.455 90L310.643 93.852C312.765 92.0957 314.468 89.8981 315.799 87.3687L311.375 85.04ZM307.455 90L304.348 86.0825C303.345 86.8781 302.15 87.4987 300.704 87.9172L302.095 92.72L303.485 97.5228C306.093 96.768 308.471 95.5752 310.562 93.9175L307.455 90ZM302.095 92.72H297.095V92.88H302.095H307.095V92.72H302.095ZM302.095 92.88L298.559 96.4155C298.508 96.3643 298.487 96.339 298.502 96.3559C298.514 96.3698 298.543 96.4038 298.59 96.4635C298.687 96.5849 298.826 96.7663 299.011 97.0209L303.055 94.08L307.098 91.1391C306.672 90.5523 306.15 89.8639 305.63 89.3445L302.095 92.88ZM303.055 94.08L299.338 97.4248C299.75 97.8825 300.048 98.245 300.255 98.52L304.255 95.52L308.255 92.52C307.821 91.9417 307.319 91.3441 306.771 90.7352L303.055 94.08ZM304.255 95.52L300.262 98.53L315.702 119.01L319.695 116L323.687 112.99L308.247 92.51L304.255 95.52ZM319.695 116V111H311.775V116V121H319.695V116ZM311.775 116L315.812 113.05L299.972 91.3703L295.935 94.32L291.897 97.2697L307.737 118.95L311.775 116ZM295.935 94.32V89.32H286.815V94.32V99.32H295.935V94.32ZM286.815 94.32H281.815V116H286.815H291.815V94.32H286.815ZM286.815 116V111H280.095V116V121H286.815V116ZM280.095 116H285.095V61.44H280.095H275.095V116H280.095ZM306.255 78.08H311.255C311.255 75.4675 310.922 72.9194 309.98 70.6918L305.375 72.64L300.77 74.5882C301.001 75.1339 301.255 76.2125 301.255 78.08H306.255ZM305.375 72.64L310.063 70.9034C309.217 68.6186 307.787 66.6122 305.668 65.1997L302.895 69.36L300.121 73.5203C300.242 73.6011 300.466 73.7814 300.686 74.3766L305.375 72.64ZM302.895 69.36L305.762 65.2638C303.953 63.9977 301.876 63.2679 299.717 62.908L298.895 67.84L298.073 72.772C299.113 72.9454 299.703 73.229 300.027 73.4562L302.895 69.36ZM298.895 67.84L299.717 62.908C297.788 62.5866 295.692 62.44 293.455 62.44V67.44V72.44C295.271 72.44 296.802 72.5601 298.073 72.772L298.895 67.84ZM293.455 67.44V62.44H286.815V67.44V72.44H293.455V67.44ZM286.815 67.44H281.815V88.32H286.815H291.815V67.44H286.815ZM286.815 88.32V93.32H294.735V88.32V83.32H286.815V88.32ZM294.735 88.32V93.32C297.211 93.32 299.597 93.0066 301.751 92.2087L300.015 87.52L298.278 82.8313C297.552 83.1 296.418 83.32 294.735 83.32V88.32ZM300.015 87.52L301.751 92.2087C303.736 91.4738 305.563 90.4024 307.07 88.8955L303.535 85.36L299.999 81.8245C299.693 82.131 299.174 82.4995 298.278 82.8313L300.015 87.52ZM303.535 85.36L307.17 88.7931C308.553 87.3286 309.595 85.6276 310.257 83.7226L305.535 82.08L300.812 80.4374C300.621 80.9857 300.33 81.4714 299.9 81.9269L303.535 85.36ZM305.535 82.08L310.257 83.7226C310.864 81.9781 311.182 80.148 311.251 78.2651L306.255 78.08L301.258 77.8949C301.221 78.892 301.059 79.7285 300.812 80.4374L305.535 82.08ZM342.023 61.44V56.44H338.452L337.293 59.8173L342.023 61.44ZM350.343 61.44L355.072 59.8173L353.913 56.44H350.343V61.44ZM369.063 116V121H376.064L373.792 114.377L369.063 116ZM362.103 116L357.354 117.565L358.486 121H362.103V116ZM357.303 101.44L362.051 99.8745L360.919 96.44H357.303V101.44ZM335.143 101.44V96.44H331.545L330.402 99.851L335.143 101.44ZM330.263 116V121H333.86L335.004 117.589L330.263 116ZM323.303 116L318.573 114.377L316.301 121H323.303V116ZM355.143 95.04V100.04H362.016L359.9 93.5009L355.143 95.04ZM346.343 67.84L351.1 66.3009L349.98 62.84H346.343V67.84ZM346.103 67.84V62.84H342.475L341.35 66.2882L346.103 67.84ZM337.223 95.04L332.47 93.4882L330.331 100.04H337.223V95.04ZM342.023 61.44V66.44H350.343V61.44V56.44H342.023V61.44ZM350.343 61.44L345.613 63.0627L364.333 117.623L369.063 116L373.792 114.377L355.072 59.8173L350.343 61.44ZM369.063 116V111H362.103V116V121H369.063V116ZM362.103 116L366.851 114.435L362.051 99.8745L357.303 101.44L352.554 103.005L357.354 117.565L362.103 116ZM357.303 101.44V96.44H335.143V101.44V106.44H357.303V101.44ZM335.143 101.44L330.402 99.851L325.522 114.411L330.263 116L335.004 117.589L339.884 103.029L335.143 101.44ZM330.263 116V111H323.303V116V121H330.263V116ZM323.303 116L328.032 117.623L346.752 63.0627L342.023 61.44L337.293 59.8173L318.573 114.377L323.303 116ZM355.143 95.04L359.9 93.5009L351.1 66.3009L346.343 67.84L341.586 69.3791L350.386 96.5791L355.143 95.04ZM346.343 67.84V62.84H346.103V67.84V72.84H346.343V67.84ZM346.103 67.84L341.35 66.2882L332.47 93.4882L337.223 95.04L341.976 96.5918L350.856 69.3917L346.103 67.84ZM337.223 95.04V100.04H355.143V95.04V90.04H337.223V95.04ZM387.663 67.68H392.663V62.68H387.663V67.68ZM370.543 67.68H365.543V72.68H370.543V67.68ZM370.543 61.44V56.44H365.543V61.44H370.543ZM411.503 61.44H416.503V56.44H411.503V61.44ZM411.503 67.68V72.68H416.503V67.68H411.503ZM394.383 67.68V62.68H389.383V67.68H394.383ZM394.383 116V121H399.383V116H394.383ZM387.663 116H382.663V121H387.663V116ZM387.663 67.68V62.68H370.543V67.68V72.68H387.663V67.68ZM370.543 67.68H375.543V61.44H370.543H365.543V67.68H370.543ZM370.543 61.44V66.44H411.503V61.44V56.44H370.543V61.44ZM411.503 61.44H406.503V67.68H411.503H416.503V61.44H411.503ZM411.503 67.68V62.68H394.383V67.68V72.68H411.503V67.68ZM394.383 67.68H389.383V116H394.383H399.383V67.68H394.383ZM394.383 116V111H387.663V116V121H394.383V116ZM387.663 116H392.663V67.68H387.663H382.663V116H387.663ZM422.295 61.44V56.44H417.295V61.44H422.295ZM429.015 61.44H434.015V56.44H429.015V61.44ZM429.015 116V121H434.015V116H429.015ZM422.295 116H417.295V121H422.295V116ZM422.295 61.44V66.44H429.015V61.44V56.44H422.295V61.44ZM429.015 61.44H424.015V116H429.015H434.015V61.44H429.015ZM429.015 116V111H422.295V116V121H429.015V116ZM422.295 116H427.295V61.44H422.295H417.295V116H422.295ZM444.916 75.6L440.378 73.5004L440.365 73.5285L440.353 73.5567L444.916 75.6ZM451.156 66.96L447.909 63.1581L447.889 63.175L447.869 63.1922L451.156 66.96ZM459.636 62.24L461.118 67.0153L461.143 67.0074L461.169 66.9993L459.636 62.24ZM477.956 62L476.626 66.82L476.675 66.8334L476.724 66.8458L477.956 62ZM486.436 66.4L483.195 70.2077L483.239 70.2446L483.283 70.2806L486.436 66.4ZM492.676 74.96L488.101 76.9782L488.114 77.0062L488.126 77.0341L492.676 74.96ZM492.676 102L488.138 99.9004L488.125 99.9285L488.113 99.9567L492.676 102ZM486.436 110.72L483.143 106.957L483.124 106.974L483.104 106.992L486.436 110.72ZM477.956 115.6L479.438 120.375L479.463 120.367L479.489 120.359L477.956 115.6ZM459.636 115.6L458.154 120.375L458.165 120.379L458.177 120.382L459.636 115.6ZM451.156 110.88L447.869 114.648L447.889 114.665L447.909 114.682L451.156 110.88ZM444.916 102.16L440.341 104.178L440.354 104.206L440.366 104.234L444.916 102.16ZM482.516 72.72L478.773 76.0352L478.786 76.0501L478.799 76.0648L482.516 72.72ZM461.396 68.48L463.14 73.1661L463.169 73.1552L463.198 73.144L461.396 68.48ZM455.396 72.4L451.806 68.9193L451.779 68.9477L451.752 68.9766L455.396 72.4ZM451.476 79.04L446.772 77.3464L446.762 77.3737L446.752 77.4011L451.476 79.04ZM455.076 104.88L451.287 108.143L451.3 108.158L451.313 108.173L455.076 104.88ZM476.196 109.36L477.905 114.059L477.951 114.042L477.998 114.024L476.196 109.36ZM482.196 105.28L478.555 101.853L478.528 101.882L478.501 101.911L482.196 105.28ZM486.116 98.56L481.411 96.8664L481.396 96.9083L481.382 96.9505L486.116 98.56ZM442.516 88.72H447.516C447.516 84.0354 448.244 80.4027 449.479 77.6433L444.916 75.6L440.353 73.5567C438.388 77.944 437.516 83.0579 437.516 88.72H442.516ZM444.916 75.6L449.454 77.6996C450.865 74.6485 452.554 72.3756 454.443 70.7278L451.156 66.96L447.869 63.1922C444.745 65.9178 442.273 69.4048 440.378 73.5004L444.916 75.6ZM451.156 66.96L454.403 70.7619C456.468 68.9984 458.699 67.7661 461.118 67.0153L459.636 62.24L458.154 57.4647C454.387 58.6339 450.964 60.5483 447.909 63.1581L451.156 66.96ZM459.636 62.24L461.169 66.9993C463.872 66.1286 466.422 65.72 468.836 65.72V60.72V55.72C465.277 55.72 461.693 56.3248 458.103 57.4807L459.636 62.24ZM468.836 60.72V65.72C471.341 65.72 473.934 66.0773 476.626 66.82L477.956 62L479.286 57.18C475.791 56.2161 472.304 55.72 468.836 55.72V60.72ZM477.956 62L476.724 66.8458C479.12 67.455 481.262 68.5622 483.195 70.2077L486.436 66.4L489.677 62.5923C486.597 59.9712 483.085 58.145 479.188 57.1542L477.956 62ZM486.436 66.4L483.283 70.2806C485.116 71.77 486.757 73.9313 488.101 76.9782L492.676 74.96L497.251 72.9418C495.395 68.7354 492.876 65.19 489.589 62.5194L486.436 66.4ZM492.676 74.96L488.126 77.0341C489.388 79.8018 490.156 83.6453 490.156 88.8H495.156H500.156C500.156 82.7547 499.27 77.3715 497.225 72.8859L492.676 74.96ZM495.156 88.8H490.156C490.156 93.5278 489.404 97.1635 488.138 99.9004L492.676 102L497.214 104.1C499.254 99.6899 500.156 94.5256 500.156 88.8H495.156ZM492.676 102L488.113 99.9567C486.763 102.971 485.085 105.259 483.143 106.957L486.436 110.72L489.728 114.483C492.907 111.701 495.389 108.176 497.239 104.043L492.676 102ZM486.436 110.72L483.104 106.992C481.11 108.774 478.893 110.045 476.423 110.841L477.956 115.6L479.489 120.359C483.312 119.128 486.749 117.146 489.768 114.448L486.436 110.72ZM477.956 115.6L476.474 110.825C473.82 111.648 471.28 112.04 468.836 112.04V117.04V122.04C472.366 122.04 475.905 121.472 479.438 120.375L477.956 115.6ZM468.836 117.04V112.04C466.391 112.04 463.816 111.648 461.095 110.818L459.636 115.6L458.177 120.382C461.749 121.472 465.307 122.04 468.836 122.04V117.04ZM459.636 115.6L461.118 110.825C458.699 110.074 456.468 108.842 454.403 107.078L451.156 110.88L447.909 114.682C450.964 117.292 454.387 119.206 458.154 120.375L459.636 115.6ZM451.156 110.88L454.443 107.112C452.569 105.477 450.881 103.191 449.465 100.086L444.916 102.16L440.366 104.234C442.258 108.382 444.73 111.91 447.869 114.648L451.156 110.88ZM444.916 102.16L449.491 100.142C448.25 97.3302 447.516 93.5853 447.516 88.72H442.516H437.516C437.516 94.5213 438.382 99.7365 440.341 104.178L444.916 102.16ZM487.556 89.12H492.556C492.556 81.2151 490.716 74.3564 486.232 69.3752L482.516 72.72L478.799 76.0648C481.036 78.5503 482.556 82.6249 482.556 89.12H487.556ZM482.516 72.72L486.259 69.4048C481.881 64.4616 475.991 62.12 469.156 62.12V67.12V72.12C473.521 72.12 476.538 73.5117 478.773 76.0352L482.516 72.72ZM469.156 67.12V62.12C465.789 62.12 462.582 62.6615 459.594 63.816L461.396 68.48L463.198 73.144C464.903 72.4852 466.87 72.12 469.156 72.12V67.12ZM461.396 68.48L459.652 63.7939C456.66 64.9072 454.03 66.6262 451.806 68.9193L455.396 72.4L458.985 75.8807C460.175 74.6538 461.545 73.7595 463.14 73.1661L461.396 68.48ZM455.396 72.4L451.752 68.9766C449.556 71.3136 447.923 74.147 446.772 77.3464L451.476 79.04L456.18 80.7336C456.949 78.5996 457.929 77.0064 459.04 75.8234L455.396 72.4ZM451.476 79.04L446.752 77.4011C445.618 80.6698 445.116 84.3431 445.116 88.32H450.116H455.116C455.116 85.1503 455.52 82.6368 456.2 80.6789L451.476 79.04ZM450.116 88.32H445.116C445.116 96.2198 446.926 103.078 451.287 108.143L455.076 104.88L458.865 101.617C456.612 99.0017 455.116 94.8202 455.116 88.32H450.116ZM455.076 104.88L451.313 108.173C455.722 113.211 461.632 115.64 468.516 115.64V110.64V105.64C464.2 105.64 461.15 104.229 458.839 101.587L455.076 104.88ZM468.516 110.64V115.64C471.808 115.64 474.953 115.132 477.905 114.059L476.196 109.36L474.487 104.661C472.745 105.294 470.771 105.64 468.516 105.64V110.64ZM476.196 109.36L477.998 114.024C481.049 112.845 483.702 111.049 485.891 108.649L482.196 105.28L478.501 101.911C477.383 103.137 476.037 104.061 474.394 104.696L476.196 109.36ZM482.196 105.28L485.837 108.707C488.094 106.309 489.743 103.424 490.85 100.17L486.116 98.56L481.382 96.9505C480.675 99.0291 479.711 100.625 478.555 101.853L482.196 105.28ZM486.116 98.56L490.82 100.254C492.022 96.9158 492.556 93.1703 492.556 89.12H487.556H482.556C482.556 92.323 482.13 94.8709 481.411 96.8664L486.116 98.56ZM508.657 61.44V56.44H503.657V61.44H508.657ZM515.057 61.44L519.227 58.6807L517.744 56.44H515.057V61.44ZM543.697 104.72L539.527 107.479L541.01 109.72H543.697V104.72ZM543.857 104.72V109.72H549.214L548.845 104.376L543.857 104.72ZM543.617 99.76L548.615 99.6086L548.612 99.5061L548.604 99.4038L543.617 99.76ZM543.377 94.64H538.377V94.7094L538.379 94.7788L543.377 94.64ZM543.377 61.44V56.44H538.377V61.44H543.377ZM549.777 61.44H554.777V56.44H549.777V61.44ZM549.777 116V121H554.777V116H549.777ZM543.377 116L539.203 118.752L540.685 121H543.377V116ZM514.737 72.56L518.912 69.8078L517.43 67.56H514.737V72.56ZM514.577 72.56V67.56H509.408L509.58 72.7266L514.577 72.56ZM514.817 77.6L519.814 77.4277L519.812 77.3626L519.808 77.2975L514.817 77.6ZM515.057 116V121H520.057V116H515.057ZM508.657 116H503.657V121H508.657V116ZM508.657 61.44V66.44H515.057V61.44V56.44H508.657V61.44ZM515.057 61.44L510.887 64.1993L539.527 107.479L543.697 104.72L547.867 101.961L519.227 58.6807L515.057 61.44ZM543.697 104.72V109.72H543.857V104.72V99.72H543.697V104.72ZM543.857 104.72L548.845 104.376C548.744 102.901 548.667 101.313 548.615 99.6086L543.617 99.76L538.619 99.9114C538.674 101.727 538.757 103.445 538.869 105.064L543.857 104.72ZM543.617 99.76L548.604 99.4038C548.504 97.9996 548.427 96.3677 548.375 94.5012L543.377 94.64L538.379 94.7788C538.434 96.7523 538.517 98.5337 538.63 100.116L543.617 99.76ZM543.377 94.64H548.377C548.377 94.6361 548.377 94.6323 548.377 94.6284C548.377 94.6246 548.377 94.6207 548.377 94.6169C548.377 94.613 548.377 94.6092 548.377 94.6053C548.377 94.6015 548.377 94.5976 548.377 94.5937C548.377 94.5899 548.377 94.586 548.377 94.5822C548.377 94.5783 548.377 94.5745 548.377 94.5706C548.377 94.5668 548.377 94.5629 548.377 94.559C548.377 94.5552 548.377 94.5513 548.377 94.5475C548.377 94.5436 548.377 94.5398 548.377 94.5359C548.377 94.5321 548.377 94.5282 548.377 94.5243C548.377 94.5205 548.377 94.5166 548.377 94.5128C548.377 94.5089 548.377 94.5051 548.377 94.5012C548.377 94.4973 548.377 94.4935 548.377 94.4896C548.377 94.4858 548.377 94.4819 548.377 94.4781C548.377 94.4742 548.377 94.4703 548.377 94.4665C548.377 94.4626 548.377 94.4588 548.377 94.4549C548.377 94.4511 548.377 94.4472 548.377 94.4433C548.377 94.4395 548.377 94.4356 548.377 94.4318C548.377 94.4279 548.377 94.4241 548.377 94.4202C548.377 94.4163 548.377 94.4125 548.377 94.4086C548.377 94.4048 548.377 94.4009 548.377 94.3971C548.377 94.3932 548.377 94.3893 548.377 94.3855C548.377 94.3816 548.377 94.3778 548.377 94.3739C548.377 94.37 548.377 94.3662 548.377 94.3623C548.377 94.3585 548.377 94.3546 548.377 94.3507C548.377 94.3469 548.377 94.343 548.377 94.3392C548.377 94.3353 548.377 94.3314 548.377 94.3276C548.377 94.3237 548.377 94.3199 548.377 94.316C548.377 94.3121 548.377 94.3083 548.377 94.3044C548.377 94.3006 548.377 94.2967 548.377 94.2929C548.377 94.289 548.377 94.2851 548.377 94.2813C548.377 94.2774 548.377 94.2735 548.377 94.2697C548.377 94.2658 548.377 94.262 548.377 94.2581C548.377 94.2542 548.377 94.2504 548.377 94.2465C548.377 94.2427 548.377 94.2388 548.377 94.2349C548.377 94.2311 548.377 94.2272 548.377 94.2234C548.377 94.2195 548.377 94.2156 548.377 94.2118C548.377 94.2079 548.377 94.204 548.377 94.2002C548.377 94.1963 548.377 94.1925 548.377 94.1886C548.377 94.1847 548.377 94.1809 548.377 94.177C548.377 94.1731 548.377 94.1693 548.377 94.1654C548.377 94.1616 548.377 94.1577 548.377 94.1538C548.377 94.15 548.377 94.1461 548.377 94.1422C548.377 94.1384 548.377 94.1345 548.377 94.1307C548.377 94.1268 548.377 94.1229 548.377 94.1191C548.377 94.1152 548.377 94.1113 548.377 94.1075C548.377 94.1036 548.377 94.0998 548.377 94.0959C548.377 94.092 548.377 94.0882 548.377 94.0843C548.377 94.0804 548.377 94.0766 548.377 94.0727C548.377 94.0688 548.377 94.065 548.377 94.0611C548.377 94.0572 548.377 94.0534 548.377 94.0495C548.377 94.0457 548.377 94.0418 548.377 94.0379C548.377 94.0341 548.377 94.0302 548.377 94.0263C548.377 94.0225 548.377 94.0186 548.377 94.0147C548.377 94.0109 548.377 94.007 548.377 94.0031C548.377 93.9993 548.377 93.9954 548.377 93.9915C548.377 93.9877 548.377 93.9838 548.377 93.9799C548.377 93.9761 548.377 93.9722 548.377 93.9683C548.377 93.9645 548.377 93.9606 548.377 93.9567C548.377 93.9529 548.377 93.949 548.377 93.9451C548.377 93.9413 548.377 93.9374 548.377 93.9336C548.377 93.9297 548.377 93.9258 548.377 93.922C548.377 93.9181 548.377 93.9142 548.377 93.9104C548.377 93.9065 548.377 93.9026 548.377 93.8988C548.377 93.8949 548.377 93.891 548.377 93.8871C548.377 93.8833 548.377 93.8794 548.377 93.8755C548.377 93.8717 548.377 93.8678 548.377 93.8639C548.377 93.8601 548.377 93.8562 548.377 93.8523C548.377 93.8485 548.377 93.8446 548.377 93.8407C548.377 93.8369 548.377 93.833 548.377 93.8291C548.377 93.8253 548.377 93.8214 548.377 93.8175C548.377 93.8137 548.377 93.8098 548.377 93.8059C548.377 93.802 548.377 93.7982 548.377 93.7943C548.377 93.7904 548.377 93.7866 548.377 93.7827C548.377 93.7788 548.377 93.775 548.377 93.7711C548.377 93.7672 548.377 93.7634 548.377 93.7595C548.377 93.7556 548.377 93.7517 548.377 93.7479C548.377 93.744 548.377 93.7401 548.377 93.7363C548.377 93.7324 548.377 93.7285 548.377 93.7247C548.377 93.7208 548.377 93.7169 548.377 93.713C548.377 93.7092 548.377 93.7053 548.377 93.7014C548.377 93.6976 548.377 93.6937 548.377 93.6898C548.377 93.686 548.377 93.6821 548.377 93.6782C548.377 93.6743 548.377 93.6705 548.377 93.6666C548.377 93.6627 548.377 93.6589 548.377 93.655C548.377 93.6511 548.377 93.6472 548.377 93.6434C548.377 93.6395 548.377 93.6356 548.377 93.6318C548.377 93.6279 548.377 93.624 548.377 93.6201C548.377 93.6163 548.377 93.6124 548.377 93.6085C548.377 93.6046 548.377 93.6008 548.377 93.5969C548.377 93.593 548.377 93.5892 548.377 93.5853C548.377 93.5814 548.377 93.5775 548.377 93.5737C548.377 93.5698 548.377 93.5659 548.377 93.562C548.377 93.5582 548.377 93.5543 548.377 93.5504C548.377 93.5466 548.377 93.5427 548.377 93.5388C548.377 93.5349 548.377 93.5311 548.377 93.5272C548.377 93.5233 548.377 93.5194 548.377 93.5156C548.377 93.5117 548.377 93.5078 548.377 93.5039C548.377 93.5001 548.377 93.4962 548.377 93.4923C548.377 93.4884 548.377 93.4846 548.377 93.4807C548.377 93.4768 548.377 93.4729 548.377 93.4691C548.377 93.4652 548.377 93.4613 548.377 93.4574C548.377 93.4536 548.377 93.4497 548.377 93.4458C548.377 93.4419 548.377 93.4381 548.377 93.4342C548.377 93.4303 548.377 93.4264 548.377 93.4226C548.377 93.4187 548.377 93.4148 548.377 93.4109C548.377 93.4071 548.377 93.4032 548.377 93.3993C548.377 93.3954 548.377 93.3916 548.377 93.3877C548.377 93.3838 548.377 93.3799 548.377 93.3761C548.377 93.3722 548.377 93.3683 548.377 93.3644C548.377 93.3606 548.377 93.3567 548.377 93.3528C548.377 93.3489 548.377 93.345 548.377 93.3412C548.377 93.3373 548.377 93.3334 548.377 93.3295C548.377 93.3257 548.377 93.3218 548.377 93.3179C548.377 93.314 548.377 93.3102 548.377 93.3063C548.377 93.3024 548.377 93.2985 548.377 93.2946C548.377 93.2908 548.377 93.2869 548.377 93.283C548.377 93.2791 548.377 93.2753 548.377 93.2714C548.377 93.2675 548.377 93.2636 548.377 93.2597C548.377 93.2559 548.377 93.252 548.377 93.2481C548.377 93.2442 548.377 93.2403 548.377 93.2365C548.377 93.2326 548.377 93.2287 548.377 93.2248C548.377 93.221 548.377 93.2171 548.377 93.2132C548.377 93.2093 548.377 93.2054 548.377 93.2016C548.377 93.1977 548.377 93.1938 548.377 93.1899C548.377 93.186 548.377 93.1822 548.377 93.1783C548.377 93.1744 548.377 93.1705 548.377 93.1666C548.377 93.1628 548.377 93.1589 548.377 93.155C548.377 93.1511 548.377 93.1472 548.377 93.1434C548.377 93.1395 548.377 93.1356 548.377 93.1317C548.377 93.1278 548.377 93.124 548.377 93.1201C548.377 93.1162 548.377 93.1123 548.377 93.1084C548.377 93.1045 548.377 93.1007 548.377 93.0968C548.377 93.0929 548.377 93.089 548.377 93.0851C548.377 93.0813 548.377 93.0774 548.377 93.0735C548.377 93.0696 548.377 93.0657 548.377 93.0619C548.377 93.058 548.377 93.0541 548.377 93.0502C548.377 93.0463 548.377 93.0424 548.377 93.0386C548.377 93.0347 548.377 93.0308 548.377 93.0269C548.377 93.023 548.377 93.0191 548.377 93.0153C548.377 93.0114 548.377 93.0075 548.377 93.0036C548.377 92.9997 548.377 92.9959 548.377 92.992C548.377 92.9881 548.377 92.9842 548.377 92.9803C548.377 92.9764 548.377 92.9726 548.377 92.9687C548.377 92.9648 548.377 92.9609 548.377 92.957C548.377 92.9531 548.377 92.9493 548.377 92.9454C548.377 92.9415 548.377 92.9376 548.377 92.9337C548.377 92.9298 548.377 92.9259 548.377 92.9221C548.377 92.9182 548.377 92.9143 548.377 92.9104C548.377 92.9065 548.377 92.9026 548.377 92.8988C548.377 92.8949 548.377 92.891 548.377 92.8871C548.377 92.8832 548.377 92.8793 548.377 92.8754C548.377 92.8716 548.377 92.8677 548.377 92.8638C548.377 92.8599 548.377 92.856 548.377 92.8521C548.377 92.8483 548.377 92.8444 548.377 92.8405C548.377 92.8366 548.377 92.8327 548.377 92.8288C548.377 92.8249 548.377 92.8211 548.377 92.8172C548.377 92.8133 548.377 92.8094 548.377 92.8055C548.377 92.8016 548.377 92.7977 548.377 92.7938C548.377 92.79 548.377 92.7861 548.377 92.7822C548.377 92.7783 548.377 92.7744 548.377 92.7705C548.377 92.7666 548.377 92.7628 548.377 92.7589C548.377 92.755 548.377 92.7511 548.377 92.7472C548.377 92.7433 548.377 92.7394 548.377 92.7355C548.377 92.7317 548.377 92.7278 548.377 92.7239C548.377 92.72 548.377 92.7161 548.377 92.7122C548.377 92.7083 548.377 92.7044 548.377 92.7006C548.377 92.6967 548.377 92.6928 548.377 92.6889C548.377 92.685 548.377 92.6811 548.377 92.6772C548.377 92.6733 548.377 92.6694 548.377 92.6656C548.377 92.6617 548.377 92.6578 548.377 92.6539C548.377 92.65 548.377 92.6461 548.377 92.6422C548.377 92.6383 548.377 92.6344 548.377 92.6306C548.377 92.6267 548.377 92.6228 548.377 92.6189C548.377 92.615 548.377 92.6111 548.377 92.6072C548.377 92.6033 548.377 92.5994 548.377 92.5955C548.377 92.5917 548.377 92.5878 548.377 92.5839C548.377 92.58 548.377 92.5761 548.377 92.5722C548.377 92.5683 548.377 92.5644 548.377 92.5605C548.377 92.5566 548.377 92.5528 548.377 92.5489C548.377 92.545 548.377 92.5411 548.377 92.5372C548.377 92.5333 548.377 92.5294 548.377 92.5255C548.377 92.5216 548.377 92.5177 548.377 92.5138C548.377 92.5099 548.377 92.5061 548.377 92.5022C548.377 92.4983 548.377 92.4944 548.377 92.4905C548.377 92.4866 548.377 92.4827 548.377 92.4788C548.377 92.4749 548.377 92.471 548.377 92.4671C548.377 92.4632 548.377 92.4594 548.377 92.4555C548.377 92.4516 548.377 92.4477 548.377 92.4438C548.377 92.4399 548.377 92.436 548.377 92.4321C548.377 92.4282 548.377 92.4243 548.377 92.4204C548.377 92.4165 548.377 92.4126 548.377 92.4087C548.377 92.4049 548.377 92.401 548.377 92.3971C548.377 92.3932 548.377 92.3893 548.377 92.3854C548.377 92.3815 548.377 92.3776 548.377 92.3737C548.377 92.3698 548.377 92.3659 548.377 92.362C548.377 92.3581 548.377 92.3542 548.377 92.3503C548.377 92.3464 548.377 92.3426 548.377 92.3387C548.377 92.3348 548.377 92.3309 548.377 92.327C548.377 92.3231 548.377 92.3192 548.377 92.3153C548.377 92.3114 548.377 92.3075 548.377 92.3036C548.377 92.2997 548.377 92.2958 548.377 92.2919C548.377 92.288 548.377 92.2841 548.377 92.2802C548.377 92.2763 548.377 92.2724 548.377 92.2685C548.377 92.2647 548.377 92.2608 548.377 92.2569C548.377 92.253 548.377 92.2491 548.377 92.2452C548.377 92.2413 548.377 92.2374 548.377 92.2335C548.377 92.2296 548.377 92.2257 548.377 92.2218C548.377 92.2179 548.377 92.214 548.377 92.2101C548.377 92.2062 548.377 92.2023 548.377 92.1984C548.377 92.1945 548.377 92.1906 548.377 92.1867C548.377 92.1828 548.377 92.1789 548.377 92.175C548.377 92.1711 548.377 92.1672 548.377 92.1633C548.377 92.1594 548.377 92.1555 548.377 92.1516C548.377 92.1478 548.377 92.1439 548.377 92.14C548.377 92.1361 548.377 92.1322 548.377 92.1283C548.377 92.1244 548.377 92.1205 548.377 92.1166C548.377 92.1127 548.377 92.1088 548.377 92.1049C548.377 92.101 548.377 92.0971 548.377 92.0932C548.377 92.0893 548.377 92.0854 548.377 92.0815C548.377 92.0776 548.377 92.0737 548.377 92.0698C548.377 92.0659 548.377 92.062 548.377 92.0581C548.377 92.0542 548.377 92.0503 548.377 92.0464C548.377 92.0425 548.377 92.0386 548.377 92.0347C548.377 92.0308 548.377 92.0269 548.377 92.023C548.377 92.0191 548.377 92.0152 548.377 92.0113C548.377 92.0074 548.377 92.0035 548.377 91.9996C548.377 91.9957 548.377 91.9918 548.377 91.9879C548.377 91.984 548.377 91.9801 548.377 91.9762C548.377 91.9723 548.377 91.9684 548.377 91.9645C548.377 91.9606 548.377 91.9567 548.377 91.9528C548.377 91.9489 548.377 91.945 548.377 91.9411C548.377 91.9372 548.377 91.9333 548.377 91.9294C548.377 91.9255 548.377 91.9216 548.377 91.9177C548.377 91.9138 548.377 91.9099 548.377 91.906C548.377 91.9021 548.377 91.8982 548.377 91.8943C548.377 91.8903 548.377 91.8864 548.377 91.8825C548.377 91.8786 548.377 91.8747 548.377 91.8708C548.377 91.8669 548.377 91.863 548.377 91.8591C548.377 91.8552 548.377 91.8513 548.377 91.8474C548.377 91.8435 548.377 91.8396 548.377 91.8357C548.377 91.8318 548.377 91.8279 548.377 91.824C548.377 91.8201 548.377 91.8162 548.377 91.8123C548.377 91.8084 548.377 91.8045 548.377 91.8006C548.377 91.7967 548.377 91.7928 548.377 91.7889C548.377 91.785 548.377 91.7811 548.377 91.7772C548.377 91.7733 548.377 91.7693 548.377 91.7654C548.377 91.7615 548.377 91.7576 548.377 91.7537C548.377 91.7498 548.377 91.7459 548.377 91.742C548.377 91.7381 548.377 91.7342 548.377 91.7303C548.377 91.7264 548.377 91.7225 548.377 91.7186C548.377 91.7147 548.377 91.7108 548.377 91.7069C548.377 91.703 548.377 91.6991 548.377 91.6952C548.377 91.6912 548.377 91.6873 548.377 91.6834C548.377 91.6795 548.377 91.6756 548.377 91.6717C548.377 91.6678 548.377 91.6639 548.377 91.66C548.377 91.6561 548.377 91.6522 548.377 91.6483C548.377 91.6444 548.377 91.6405 548.377 91.6366C548.377 91.6327 548.377 91.6287 548.377 91.6248C548.377 91.6209 548.377 91.617 548.377 91.6131C548.377 91.6092 548.377 91.6053 548.377 91.6014C548.377 91.5975 548.377 91.5936 548.377 91.5897C548.377 91.5858 548.377 91.5819 548.377 91.578C548.377 91.574 548.377 91.5701 548.377 91.5662C548.377 91.5623 548.377 91.5584 548.377 91.5545C548.377 91.5506 548.377 91.5467 548.377 91.5428C548.377 91.5389 548.377 91.535 548.377 91.5311C548.377 91.5271 548.377 91.5232 548.377 91.5193C548.377 91.5154 548.377 91.5115 548.377 91.5076C548.377 91.5037 548.377 91.4998 548.377 91.4959C548.377 91.492 548.377 91.4881 548.377 91.4841C548.377 91.4802 548.377 91.4763 548.377 91.4724C548.377 91.4685 548.377 91.4646 548.377 91.4607C548.377 91.4568 548.377 91.4529 548.377 91.449C548.377 91.4451 548.377 91.4411 548.377 91.4372C548.377 91.4333 548.377 91.4294 548.377 91.4255C548.377 91.4216 548.377 91.4177 548.377 91.4138C548.377 91.4099 548.377 91.4059 548.377 91.402C548.377 91.3981 548.377 91.3942 548.377 91.3903C548.377 91.3864 548.377 91.3825 548.377 91.3786C548.377 91.3747 548.377 91.3708 548.377 91.3668C548.377 91.3629 548.377 91.359 548.377 91.3551C548.377 91.3512 548.377 91.3473 548.377 91.3434C548.377 91.3395 548.377 91.3355 548.377 91.3316C548.377 91.3277 548.377 91.3238 548.377 91.3199C548.377 91.316 548.377 91.3121 548.377 91.3082C548.377 91.3042 548.377 91.3003 548.377 91.2964C548.377 91.2925 548.377 91.2886 548.377 91.2847C548.377 91.2808 548.377 91.2769 548.377 91.2729C548.377 91.269 548.377 91.2651 548.377 91.2612C548.377 91.2573 548.377 91.2534 548.377 91.2495C548.377 91.2456 548.377 91.2416 548.377 91.2377C548.377 91.2338 548.377 91.2299 548.377 91.226C548.377 91.2221 548.377 91.2182 548.377 91.2142C548.377 91.2103 548.377 91.2064 548.377 91.2025C548.377 91.1986 548.377 91.1947 548.377 91.1908C548.377 91.1868 548.377 91.1829 548.377 91.179C548.377 91.1751 548.377 91.1712 548.377 91.1673C548.377 91.1634 548.377 91.1594 548.377 91.1555C548.377 91.1516 548.377 91.1477 548.377 91.1438C548.377 91.1399 548.377 91.136 548.377 91.132C548.377 91.1281 548.377 91.1242 548.377 91.1203C548.377 91.1164 548.377 91.1125 548.377 91.1085C548.377 91.1046 548.377 91.1007 548.377 91.0968C548.377 91.0929 548.377 91.089 548.377 91.085C548.377 91.0811 548.377 91.0772 548.377 91.0733C548.377 91.0694 548.377 91.0655 548.377 91.0615C548.377 91.0576 548.377 91.0537 548.377 91.0498C548.377 91.0459 548.377 91.042 548.377 91.038C548.377 91.0341 548.377 91.0302 548.377 91.0263C548.377 91.0224 548.377 91.0185 548.377 91.0145C548.377 91.0106 548.377 91.0067 548.377 91.0028C548.377 90.9989 548.377 90.995 548.377 90.991C548.377 90.9871 548.377 90.9832 548.377 90.9793C548.377 90.9754 548.377 90.9714 548.377 90.9675C548.377 90.9636 548.377 90.9597 548.377 90.9558C548.377 90.9519 548.377 90.9479 548.377 90.944C548.377 90.9401 548.377 90.9362 548.377 90.9323C548.377 90.9283 548.377 90.9244 548.377 90.9205C548.377 90.9166 548.377 90.9127 548.377 90.9087C548.377 90.9048 548.377 90.9009 548.377 90.897C548.377 90.8931 548.377 90.8892 548.377 90.8852C548.377 90.8813 548.377 90.8774 548.377 90.8735C548.377 90.8696 548.377 90.8656 548.377 90.8617C548.377 90.8578 548.377 90.8539 548.377 90.85C548.377 90.846 548.377 90.8421 548.377 90.8382C548.377 90.8343 548.377 90.8303 548.377 90.8264C548.377 90.8225 548.377 90.8186 548.377 90.8147C548.377 90.8107 548.377 90.8068 548.377 90.8029C548.377 90.799 548.377 90.7951 548.377 90.7911C548.377 90.7872 548.377 90.7833 548.377 90.7794C548.377 90.7755 548.377 90.7715 548.377 90.7676C548.377 90.7637 548.377 90.7598 548.377 90.7558C548.377 90.7519 548.377 90.748 548.377 90.7441C548.377 90.7402 548.377 90.7362 548.377 90.7323C548.377 90.7284 548.377 90.7245 548.377 90.7205C548.377 90.7166 548.377 90.7127 548.377 90.7088C548.377 90.7049 548.377 90.7009 548.377 90.697C548.377 90.6931 548.377 90.6892 548.377 90.6852C548.377 90.6813 548.377 90.6774 548.377 90.6735C548.377 90.6695 548.377 90.6656 548.377 90.6617C548.377 90.6578 548.377 90.6539 548.377 90.6499C548.377 90.646 548.377 90.6421 548.377 90.6382C548.377 90.6342 548.377 90.6303 548.377 90.6264C548.377 90.6225 548.377 90.6185 548.377 90.6146C548.377 90.6107 548.377 90.6068 548.377 90.6028C548.377 90.5989 548.377 90.595 548.377 90.5911C548.377 90.5871 548.377 90.5832 548.377 90.5793C548.377 90.5754 548.377 90.5714 548.377 90.5675C548.377 90.5636 548.377 90.5597 548.377 90.5557C548.377 90.5518 548.377 90.5479 548.377 90.544C548.377 90.54 548.377 90.5361 548.377 90.5322C548.377 90.5283 548.377 90.5243 548.377 90.5204C548.377 90.5165 548.377 90.5126 548.377 90.5086C548.377 90.5047 548.377 90.5008 548.377 90.4969C548.377 90.4929 548.377 90.489 548.377 90.4851C548.377 90.4811 548.377 90.4772 548.377 90.4733C548.377 90.4694 548.377 90.4654 548.377 90.4615C548.377 90.4576 548.377 90.4537 548.377 90.4497C548.377 90.4458 548.377 90.4419 548.377 90.4379C548.377 90.434 548.377 90.4301 548.377 90.4262C548.377 90.4222 548.377 90.4183 548.377 90.4144C548.377 90.4105 548.377 90.4065 548.377 90.4026C548.377 90.3987 548.377 90.3947 548.377 90.3908C548.377 90.3869 548.377 90.383 548.377 90.379C548.377 90.3751 548.377 90.3712 548.377 90.3672C548.377 90.3633 548.377 90.3594 548.377 90.3555C548.377 90.3515 548.377 90.3476 548.377 90.3437C548.377 90.3397 548.377 90.3358 548.377 90.3319C548.377 90.328 548.377 90.324 548.377 90.3201C548.377 90.3162 548.377 90.3122 548.377 90.3083C548.377 90.3044 548.377 90.3004 548.377 90.2965C548.377 90.2926 548.377 90.2887 548.377 90.2847C548.377 90.2808 548.377 90.2769 548.377 90.2729C548.377 90.269 548.377 90.2651 548.377 90.2611C548.377 90.2572 548.377 90.2533 548.377 90.2494C548.377 90.2454 548.377 90.2415 548.377 90.2376C548.377 90.2336 548.377 90.2297 548.377 90.2258C548.377 90.2218 548.377 90.2179 548.377 90.214C548.377 90.21 548.377 90.2061 548.377 90.2022C548.377 90.1982 548.377 90.1943 548.377 90.1904C548.377 90.1865 548.377 90.1825 548.377 90.1786C548.377 90.1747 548.377 90.1707 548.377 90.1668C548.377 90.1629 548.377 90.1589 548.377 90.155C548.377 90.1511 548.377 90.1471 548.377 90.1432C548.377 90.1393 548.377 90.1353 548.377 90.1314C548.377 90.1275 548.377 90.1235 548.377 90.1196C548.377 90.1157 548.377 90.1117 548.377 90.1078C548.377 90.1039 548.377 90.0999 548.377 90.096C548.377 90.0921 548.377 90.0881 548.377 90.0842C548.377 90.0803 548.377 90.0763 548.377 90.0724C548.377 90.0685 548.377 90.0645 548.377 90.0606C548.377 90.0567 548.377 90.0527 548.377 90.0488C548.377 90.0449 548.377 90.0409 548.377 90.037C548.377 90.0331 548.377 90.0291 548.377 90.0252C548.377 90.0213 548.377 90.0173 548.377 90.0134C548.377 90.0095 548.377 90.0055 548.377 90.0016C548.377 89.9977 548.377 89.9937 548.377 89.9898C548.377 89.9858 548.377 89.9819 548.377 89.978C548.377 89.974 548.377 89.9701 548.377 89.9662C548.377 89.9622 548.377 89.9583 548.377 89.9544C548.377 89.9504 548.377 89.9465 548.377 89.9426C548.377 89.9386 548.377 89.9347 548.377 89.9307C548.377 89.9268 548.377 89.9229 548.377 89.9189C548.377 89.915 548.377 89.9111 548.377 89.9071C548.377 89.9032 548.377 89.8993 548.377 89.8953C548.377 89.8914 548.377 89.8874 548.377 89.8835C548.377 89.8796 548.377 89.8756 548.377 89.8717C548.377 89.8678 548.377 89.8638 548.377 89.8599C548.377 89.8559 548.377 89.852 548.377 89.8481C548.377 89.8441 548.377 89.8402 548.377 89.8363C548.377 89.8323 548.377 89.8284 548.377 89.8244C548.377 89.8205 548.377 89.8166 548.377 89.8126C548.377 89.8087 548.377 89.8048 548.377 89.8008C548.377 89.7969 548.377 89.7929 548.377 89.789C548.377 89.7851 548.377 89.7811 548.377 89.7772C548.377 89.7732 548.377 89.7693 548.377 89.7654C548.377 89.7614 548.377 89.7575 548.377 89.7536C548.377 89.7496 548.377 89.7457 548.377 89.7417C548.377 89.7378 548.377 89.7339 548.377 89.7299C548.377 89.726 548.377 89.722 548.377 89.7181C548.377 89.7142 548.377 89.7102 548.377 89.7063C548.377 89.7023 548.377 89.6984 548.377 89.6945C548.377 89.6905 548.377 89.6866 548.377 89.6826C548.377 89.6787 548.377 89.6748 548.377 89.6708C548.377 89.6669 548.377 89.6629 548.377 89.659C548.377 89.6551 548.377 89.6511 548.377 89.6472C548.377 89.6432 548.377 89.6393 548.377 89.6353C548.377 89.6314 548.377 89.6275 548.377 89.6235C548.377 89.6196 548.377 89.6156 548.377 89.6117C548.377 89.6078 548.377 89.6038 548.377 89.5999C548.377 89.5959 548.377 89.592 548.377 89.588C548.377 89.5841 548.377 89.5802 548.377 89.5762C548.377 89.5723 548.377 89.5683 548.377 89.5644C548.377 89.5604 548.377 89.5565 548.377 89.5526C548.377 89.5486 548.377 89.5447 548.377 89.5407C548.377 89.5368 548.377 89.5329 548.377 89.5289C548.377 89.525 548.377 89.521 548.377 89.5171C548.377 89.5131 548.377 89.5092 548.377 89.5052C548.377 89.5013 548.377 89.4974 548.377 89.4934C548.377 89.4895 548.377 89.4855 548.377 89.4816C548.377 89.4776 548.377 89.4737 548.377 89.4698C548.377 89.4658 548.377 89.4619 548.377 89.4579C548.377 89.454 548.377 89.45 548.377 89.4461C548.377 89.4421 548.377 89.4382 548.377 89.4343C548.377 89.4303 548.377 89.4264 548.377 89.4224C548.377 89.4185 548.377 89.4145 548.377 89.4106C548.377 89.4066 548.377 89.4027 548.377 89.3987C548.377 89.3948 548.377 89.3909 548.377 89.3869C548.377 89.383 548.377 89.379 548.377 89.3751C548.377 89.3711 548.377 89.3672 548.377 89.3632C548.377 89.3593 548.377 89.3553 548.377 89.3514C548.377 89.3475 548.377 89.3435 548.377 89.3396C548.377 89.3356 548.377 89.3317 548.377 89.3277C548.377 89.3238 548.377 89.3198 548.377 89.3159C548.377 89.3119 548.377 89.308 548.377 89.304C548.377 89.3001 548.377 89.2961 548.377 89.2922C548.377 89.2883 548.377 89.2843 548.377 89.2804C548.377 89.2764 548.377 89.2725 548.377 89.2685C548.377 89.2646 548.377 89.2606 548.377 89.2567C548.377 89.2527 548.377 89.2488 548.377 89.2448C548.377 89.2409 548.377 89.2369 548.377 89.233C548.377 89.229 548.377 89.2251 548.377 89.2211C548.377 89.2172 548.377 89.2132 548.377 89.2093C548.377 89.2053 548.377 89.2014 548.377 89.1975C548.377 89.1935 548.377 89.1896 548.377 89.1856C548.377 89.1817 548.377 89.1777 548.377 89.1738C548.377 89.1698 548.377 89.1659 548.377 89.1619C548.377 89.158 548.377 89.154 548.377 89.1501C548.377 89.1461 548.377 89.1422 548.377 89.1382C548.377 89.1343 548.377 89.1303 548.377 89.1264C548.377 89.1224 548.377 89.1185 548.377 89.1145C548.377 89.1106 548.377 89.1066 548.377 89.1027C548.377 89.0987 548.377 89.0948 548.377 89.0908C548.377 89.0869 548.377 89.0829 548.377 89.079C548.377 89.075 548.377 89.0711 548.377 89.0671C548.377 89.0632 548.377 89.0592 548.377 89.0553C548.377 89.0513 548.377 89.0473 548.377 89.0434C548.377 89.0394 548.377 89.0355 548.377 89.0315C548.377 89.0276 548.377 89.0236 548.377 89.0197C548.377 89.0157 548.377 89.0118 548.377 89.0078C548.377 89.0039 548.377 88.9999 548.377 88.996C548.377 88.992 548.377 88.9881 548.377 88.9841C548.377 88.9802 548.377 88.9762 548.377 88.9723C548.377 88.9683 548.377 88.9644 548.377 88.9604C548.377 88.9564 548.377 88.9525 548.377 88.9485C548.377 88.9446 548.377 88.9406 548.377 88.9367C548.377 88.9327 548.377 88.9288 548.377 88.9248C548.377 88.9209 548.377 88.9169 548.377 88.913C548.377 88.909 548.377 88.9051 548.377 88.9011C548.377 88.8971 548.377 88.8932 548.377 88.8892C548.377 88.8853 548.377 88.8813 548.377 88.8774C548.377 88.8734 548.377 88.8695 548.377 88.8655C548.377 88.8616 548.377 88.8576 548.377 88.8537C548.377 88.8497 548.377 88.8457 548.377 88.8418C548.377 88.8378 548.377 88.8339 548.377 88.8299C548.377 88.826 548.377 88.822 548.377 88.8181C548.377 88.8141 548.377 88.8101 548.377 88.8062C548.377 88.8022 548.377 88.7983 548.377 88.7943C548.377 88.7904 548.377 88.7864 548.377 88.7825C548.377 88.7785 548.377 88.7745 548.377 88.7706C548.377 88.7666 548.377 88.7627 548.377 88.7587C548.377 88.7548 548.377 88.7508 548.377 88.7468C548.377 88.7429 548.377 88.7389 548.377 88.735C548.377 88.731 548.377 88.7271 548.377 88.7231C548.377 88.7192 548.377 88.7152 548.377 88.7112C548.377 88.7073 548.377 88.7033 548.377 88.6994C548.377 88.6954 548.377 88.6915 548.377 88.6875C548.377 88.6835 548.377 88.6796 548.377 88.6756C548.377 88.6717 548.377 88.6677 548.377 88.6637C548.377 88.6598 548.377 88.6558 548.377 88.6519C548.377 88.6479 548.377 88.644 548.377 88.64H543.377H538.377C538.377 88.644 538.377 88.6479 538.377 88.6519C538.377 88.6558 538.377 88.6598 538.377 88.6637C538.377 88.6677 538.377 88.6717 538.377 88.6756C538.377 88.6796 538.377 88.6835 538.377 88.6875C538.377 88.6915 538.377 88.6954 538.377 88.6994C538.377 88.7033 538.377 88.7073 538.377 88.7112C538.377 88.7152 538.377 88.7192 538.377 88.7231C538.377 88.7271 538.377 88.731 538.377 88.735C538.377 88.7389 538.377 88.7429 538.377 88.7468C538.377 88.7508 538.377 88.7548 538.377 88.7587C538.377 88.7627 538.377 88.7666 538.377 88.7706C538.377 88.7745 538.377 88.7785 538.377 88.7825C538.377 88.7864 538.377 88.7904 538.377 88.7943C538.377 88.7983 538.377 88.8022 538.377 88.8062C538.377 88.8101 538.377 88.8141 538.377 88.8181C538.377 88.822 538.377 88.826 538.377 88.8299C538.377 88.8339 538.377 88.8378 538.377 88.8418C538.377 88.8457 538.377 88.8497 538.377 88.8537C538.377 88.8576 538.377 88.8616 538.377 88.8655C538.377 88.8695 538.377 88.8734 538.377 88.8774C538.377 88.8813 538.377 88.8853 538.377 88.8892C538.377 88.8932 538.377 88.8971 538.377 88.9011C538.377 88.9051 538.377 88.909 538.377 88.913C538.377 88.9169 538.377 88.9209 538.377 88.9248C538.377 88.9288 538.377 88.9327 538.377 88.9367C538.377 88.9406 538.377 88.9446 538.377 88.9485C538.377 88.9525 538.377 88.9564 538.377 88.9604C538.377 88.9644 538.377 88.9683 538.377 88.9723C538.377 88.9762 538.377 88.9802 538.377 88.9841C538.377 88.9881 538.377 88.992 538.377 88.996C538.377 88.9999 538.377 89.0039 538.377 89.0078C538.377 89.0118 538.377 89.0157 538.377 89.0197C538.377 89.0236 538.377 89.0276 538.377 89.0315C538.377 89.0355 538.377 89.0394 538.377 89.0434C538.377 89.0473 538.377 89.0513 538.377 89.0553C538.377 89.0592 538.377 89.0632 538.377 89.0671C538.377 89.0711 538.377 89.075 538.377 89.079C538.377 89.0829 538.377 89.0869 538.377 89.0908C538.377 89.0948 538.377 89.0987 538.377 89.1027C538.377 89.1066 538.377 89.1106 538.377 89.1145C538.377 89.1185 538.377 89.1224 538.377 89.1264C538.377 89.1303 538.377 89.1343 538.377 89.1382C538.377 89.1422 538.377 89.1461 538.377 89.1501C538.377 89.154 538.377 89.158 538.377 89.1619C538.377 89.1659 538.377 89.1698 538.377 89.1738C538.377 89.1777 538.377 89.1817 538.377 89.1856C538.377 89.1896 538.377 89.1935 538.377 89.1975C538.377 89.2014 538.377 89.2053 538.377 89.2093C538.377 89.2132 538.377 89.2172 538.377 89.2211C538.377 89.2251 538.377 89.229 538.377 89.233C538.377 89.2369 538.377 89.2409 538.377 89.2448C538.377 89.2488 538.377 89.2527 538.377 89.2567C538.377 89.2606 538.377 89.2646 538.377 89.2685C538.377 89.2725 538.377 89.2764 538.377 89.2804C538.377 89.2843 538.377 89.2883 538.377 89.2922C538.377 89.2961 538.377 89.3001 538.377 89.304C538.377 89.308 538.377 89.3119 538.377 89.3159C538.377 89.3198 538.377 89.3238 538.377 89.3277C538.377 89.3317 538.377 89.3356 538.377 89.3396C538.377 89.3435 538.377 89.3475 538.377 89.3514C538.377 89.3553 538.377 89.3593 538.377 89.3632C538.377 89.3672 538.377 89.3711 538.377 89.3751C538.377 89.379 538.377 89.383 538.377 89.3869C538.377 89.3909 538.377 89.3948 538.377 89.3987C538.377 89.4027 538.377 89.4066 538.377 89.4106C538.377 89.4145 538.377 89.4185 538.377 89.4224C538.377 89.4264 538.377 89.4303 538.377 89.4343C538.377 89.4382 538.377 89.4421 538.377 89.4461C538.377 89.45 538.377 89.454 538.377 89.4579C538.377 89.4619 538.377 89.4658 538.377 89.4698C538.377 89.4737 538.377 89.4776 538.377 89.4816C538.377 89.4855 538.377 89.4895 538.377 89.4934C538.377 89.4974 538.377 89.5013 538.377 89.5052C538.377 89.5092 538.377 89.5131 538.377 89.5171C538.377 89.521 538.377 89.525 538.377 89.5289C538.377 89.5329 538.377 89.5368 538.377 89.5407C538.377 89.5447 538.377 89.5486 538.377 89.5526C538.377 89.5565 538.377 89.5604 538.377 89.5644C538.377 89.5683 538.377 89.5723 538.377 89.5762C538.377 89.5802 538.377 89.5841 538.377 89.588C538.377 89.592 538.377 89.5959 538.377 89.5999C538.377 89.6038 538.377 89.6078 538.377 89.6117C538.377 89.6156 538.377 89.6196 538.377 89.6235C538.377 89.6275 538.377 89.6314 538.377 89.6353C538.377 89.6393 538.377 89.6432 538.377 89.6472C538.377 89.6511 538.377 89.6551 538.377 89.659C538.377 89.6629 538.377 89.6669 538.377 89.6708C538.377 89.6748 538.377 89.6787 538.377 89.6826C538.377 89.6866 538.377 89.6905 538.377 89.6945C538.377 89.6984 538.377 89.7023 538.377 89.7063C538.377 89.7102 538.377 89.7142 538.377 89.7181C538.377 89.722 538.377 89.726 538.377 89.7299C538.377 89.7339 538.377 89.7378 538.377 89.7417C538.377 89.7457 538.377 89.7496 538.377 89.7536C538.377 89.7575 538.377 89.7614 538.377 89.7654C538.377 89.7693 538.377 89.7732 538.377 89.7772C538.377 89.7811 538.377 89.7851 538.377 89.789C538.377 89.7929 538.377 89.7969 538.377 89.8008C538.377 89.8048 538.377 89.8087 538.377 89.8126C538.377 89.8166 538.377 89.8205 538.377 89.8244C538.377 89.8284 538.377 89.8323 538.377 89.8363C538.377 89.8402 538.377 89.8441 538.377 89.8481C538.377 89.852 538.377 89.8559 538.377 89.8599C538.377 89.8638 538.377 89.8678 538.377 89.8717C538.377 89.8756 538.377 89.8796 538.377 89.8835C538.377 89.8874 538.377 89.8914 538.377 89.8953C538.377 89.8993 538.377 89.9032 538.377 89.9071C538.377 89.9111 538.377 89.915 538.377 89.9189C538.377 89.9229 538.377 89.9268 538.377 89.9307C538.377 89.9347 538.377 89.9386 538.377 89.9426C538.377 89.9465 538.377 89.9504 538.377 89.9544C538.377 89.9583 538.377 89.9622 538.377 89.9662C538.377 89.9701 538.377 89.974 538.377 89.978C538.377 89.9819 538.377 89.9858 538.377 89.9898C538.377 89.9937 538.377 89.9977 538.377 90.0016C538.377 90.0055 538.377 90.0095 538.377 90.0134C538.377 90.0173 538.377 90.0213 538.377 90.0252C538.377 90.0291 538.377 90.0331 538.377 90.037C538.377 90.0409 538.377 90.0449 538.377 90.0488C538.377 90.0527 538.377 90.0567 538.377 90.0606C538.377 90.0645 538.377 90.0685 538.377 90.0724C538.377 90.0763 538.377 90.0803 538.377 90.0842C538.377 90.0881 538.377 90.0921 538.377 90.096C538.377 90.0999 538.377 90.1039 538.377 90.1078C538.377 90.1117 538.377 90.1157 538.377 90.1196C538.377 90.1235 538.377 90.1275 538.377 90.1314C538.377 90.1353 538.377 90.1393 538.377 90.1432C538.377 90.1471 538.377 90.1511 538.377 90.155C538.377 90.1589 538.377 90.1629 538.377 90.1668C538.377 90.1707 538.377 90.1747 538.377 90.1786C538.377 90.1825 538.377 90.1865 538.377 90.1904C538.377 90.1943 538.377 90.1982 538.377 90.2022C538.377 90.2061 538.377 90.21 538.377 90.214C538.377 90.2179 538.377 90.2218 538.377 90.2258C538.377 90.2297 538.377 90.2336 538.377 90.2376C538.377 90.2415 538.377 90.2454 538.377 90.2494C538.377 90.2533 538.377 90.2572 538.377 90.2611C538.377 90.2651 538.377 90.269 538.377 90.2729C538.377 90.2769 538.377 90.2808 538.377 90.2847C538.377 90.2887 538.377 90.2926 538.377 90.2965C538.377 90.3004 538.377 90.3044 538.377 90.3083C538.377 90.3122 538.377 90.3162 538.377 90.3201C538.377 90.324 538.377 90.328 538.377 90.3319C538.377 90.3358 538.377 90.3397 538.377 90.3437C538.377 90.3476 538.377 90.3515 538.377 90.3555C538.377 90.3594 538.377 90.3633 538.377 90.3672C538.377 90.3712 538.377 90.3751 538.377 90.379C538.377 90.383 538.377 90.3869 538.377 90.3908C538.377 90.3947 538.377 90.3987 538.377 90.4026C538.377 90.4065 538.377 90.4105 538.377 90.4144C538.377 90.4183 538.377 90.4222 538.377 90.4262C538.377 90.4301 538.377 90.434 538.377 90.4379C538.377 90.4419 538.377 90.4458 538.377 90.4497C538.377 90.4537 538.377 90.4576 538.377 90.4615C538.377 90.4654 538.377 90.4694 538.377 90.4733C538.377 90.4772 538.377 90.4811 538.377 90.4851C538.377 90.489 538.377 90.4929 538.377 90.4969C538.377 90.5008 538.377 90.5047 538.377 90.5086C538.377 90.5126 538.377 90.5165 538.377 90.5204C538.377 90.5243 538.377 90.5283 538.377 90.5322C538.377 90.5361 538.377 90.54 538.377 90.544C538.377 90.5479 538.377 90.5518 538.377 90.5557C538.377 90.5597 538.377 90.5636 538.377 90.5675C538.377 90.5714 538.377 90.5754 538.377 90.5793C538.377 90.5832 538.377 90.5871 538.377 90.5911C538.377 90.595 538.377 90.5989 538.377 90.6028C538.377 90.6068 538.377 90.6107 538.377 90.6146C538.377 90.6185 538.377 90.6225 538.377 90.6264C538.377 90.6303 538.377 90.6342 538.377 90.6382C538.377 90.6421 538.377 90.646 538.377 90.6499C538.377 90.6539 538.377 90.6578 538.377 90.6617C538.377 90.6656 538.377 90.6695 538.377 90.6735C538.377 90.6774 538.377 90.6813 538.377 90.6852C538.377 90.6892 538.377 90.6931 538.377 90.697C538.377 90.7009 538.377 90.7049 538.377 90.7088C538.377 90.7127 538.377 90.7166 538.377 90.7205C538.377 90.7245 538.377 90.7284 538.377 90.7323C538.377 90.7362 538.377 90.7402 538.377 90.7441C538.377 90.748 538.377 90.7519 538.377 90.7558C538.377 90.7598 538.377 90.7637 538.377 90.7676C538.377 90.7715 538.377 90.7755 538.377 90.7794C538.377 90.7833 538.377 90.7872 538.377 90.7911C538.377 90.7951 538.377 90.799 538.377 90.8029C538.377 90.8068 538.377 90.8107 538.377 90.8147C538.377 90.8186 538.377 90.8225 538.377 90.8264C538.377 90.8303 538.377 90.8343 538.377 90.8382C538.377 90.8421 538.377 90.846 538.377 90.85C538.377 90.8539 538.377 90.8578 538.377 90.8617C538.377 90.8656 538.377 90.8696 538.377 90.8735C538.377 90.8774 538.377 90.8813 538.377 90.8852C538.377 90.8892 538.377 90.8931 538.377 90.897C538.377 90.9009 538.377 90.9048 538.377 90.9087C538.377 90.9127 538.377 90.9166 538.377 90.9205C538.377 90.9244 538.377 90.9283 538.377 90.9323C538.377 90.9362 538.377 90.9401 538.377 90.944C538.377 90.9479 538.377 90.9519 538.377 90.9558C538.377 90.9597 538.377 90.9636 538.377 90.9675C538.377 90.9714 538.377 90.9754 538.377 90.9793C538.377 90.9832 538.377 90.9871 538.377 90.991C538.377 90.995 538.377 90.9989 538.377 91.0028C538.377 91.0067 538.377 91.0106 538.377 91.0145C538.377 91.0185 538.377 91.0224 538.377 91.0263C538.377 91.0302 538.377 91.0341 538.377 91.038C538.377 91.042 538.377 91.0459 538.377 91.0498C538.377 91.0537 538.377 91.0576 538.377 91.0615C538.377 91.0655 538.377 91.0694 538.377 91.0733C538.377 91.0772 538.377 91.0811 538.377 91.085C538.377 91.089 538.377 91.0929 538.377 91.0968C538.377 91.1007 538.377 91.1046 538.377 91.1085C538.377 91.1125 538.377 91.1164 538.377 91.1203C538.377 91.1242 538.377 91.1281 538.377 91.132C538.377 91.136 538.377 91.1399 538.377 91.1438C538.377 91.1477 538.377 91.1516 538.377 91.1555C538.377 91.1594 538.377 91.1634 538.377 91.1673C538.377 91.1712 538.377 91.1751 538.377 91.179C538.377 91.1829 538.377 91.1868 538.377 91.1908C538.377 91.1947 538.377 91.1986 538.377 91.2025C538.377 91.2064 538.377 91.2103 538.377 91.2142C538.377 91.2182 538.377 91.2221 538.377 91.226C538.377 91.2299 538.377 91.2338 538.377 91.2377C538.377 91.2416 538.377 91.2456 538.377 91.2495C538.377 91.2534 538.377 91.2573 538.377 91.2612C538.377 91.2651 538.377 91.269 538.377 91.2729C538.377 91.2769 538.377 91.2808 538.377 91.2847C538.377 91.2886 538.377 91.2925 538.377 91.2964C538.377 91.3003 538.377 91.3042 538.377 91.3082C538.377 91.3121 538.377 91.316 538.377 91.3199C538.377 91.3238 538.377 91.3277 538.377 91.3316C538.377 91.3355 538.377 91.3395 538.377 91.3434C538.377 91.3473 538.377 91.3512 538.377 91.3551C538.377 91.359 538.377 91.3629 538.377 91.3668C538.377 91.3708 538.377 91.3747 538.377 91.3786C538.377 91.3825 538.377 91.3864 538.377 91.3903C538.377 91.3942 538.377 91.3981 538.377 91.402C538.377 91.4059 538.377 91.4099 538.377 91.4138C538.377 91.4177 538.377 91.4216 538.377 91.4255C538.377 91.4294 538.377 91.4333 538.377 91.4372C538.377 91.4411 538.377 91.4451 538.377 91.449C538.377 91.4529 538.377 91.4568 538.377 91.4607C538.377 91.4646 538.377 91.4685 538.377 91.4724C538.377 91.4763 538.377 91.4802 538.377 91.4841C538.377 91.4881 538.377 91.492 538.377 91.4959C538.377 91.4998 538.377 91.5037 538.377 91.5076C538.377 91.5115 538.377 91.5154 538.377 91.5193C538.377 91.5232 538.377 91.5271 538.377 91.5311C538.377 91.535 538.377 91.5389 538.377 91.5428C538.377 91.5467 538.377 91.5506 538.377 91.5545C538.377 91.5584 538.377 91.5623 538.377 91.5662C538.377 91.5701 538.377 91.574 538.377 91.578C538.377 91.5819 538.377 91.5858 538.377 91.5897C538.377 91.5936 538.377 91.5975 538.377 91.6014C538.377 91.6053 538.377 91.6092 538.377 91.6131C538.377 91.617 538.377 91.6209 538.377 91.6248C538.377 91.6287 538.377 91.6327 538.377 91.6366C538.377 91.6405 538.377 91.6444 538.377 91.6483C538.377 91.6522 538.377 91.6561 538.377 91.66C538.377 91.6639 538.377 91.6678 538.377 91.6717C538.377 91.6756 538.377 91.6795 538.377 91.6834C538.377 91.6873 538.377 91.6912 538.377 91.6952C538.377 91.6991 538.377 91.703 538.377 91.7069C538.377 91.7108 538.377 91.7147 538.377 91.7186C538.377 91.7225 538.377 91.7264 538.377 91.7303C538.377 91.7342 538.377 91.7381 538.377 91.742C538.377 91.7459 538.377 91.7498 538.377 91.7537C538.377 91.7576 538.377 91.7615 538.377 91.7654C538.377 91.7693 538.377 91.7733 538.377 91.7772C538.377 91.7811 538.377 91.785 538.377 91.7889C538.377 91.7928 538.377 91.7967 538.377 91.8006C538.377 91.8045 538.377 91.8084 538.377 91.8123C538.377 91.8162 538.377 91.8201 538.377 91.824C538.377 91.8279 538.377 91.8318 538.377 91.8357C538.377 91.8396 538.377 91.8435 538.377 91.8474C538.377 91.8513 538.377 91.8552 538.377 91.8591C538.377 91.863 538.377 91.8669 538.377 91.8708C538.377 91.8747 538.377 91.8786 538.377 91.8825C538.377 91.8864 538.377 91.8903 538.377 91.8943C538.377 91.8982 538.377 91.9021 538.377 91.906C538.377 91.9099 538.377 91.9138 538.377 91.9177C538.377 91.9216 538.377 91.9255 538.377 91.9294C538.377 91.9333 538.377 91.9372 538.377 91.9411C538.377 91.945 538.377 91.9489 538.377 91.9528C538.377 91.9567 538.377 91.9606 538.377 91.9645C538.377 91.9684 538.377 91.9723 538.377 91.9762C538.377 91.9801 538.377 91.984 538.377 91.9879C538.377 91.9918 538.377 91.9957 538.377 91.9996C538.377 92.0035 538.377 92.0074 538.377 92.0113C538.377 92.0152 538.377 92.0191 538.377 92.023C538.377 92.0269 538.377 92.0308 538.377 92.0347C538.377 92.0386 538.377 92.0425 538.377 92.0464C538.377 92.0503 538.377 92.0542 538.377 92.0581C538.377 92.062 538.377 92.0659 538.377 92.0698C538.377 92.0737 538.377 92.0776 538.377 92.0815C538.377 92.0854 538.377 92.0893 538.377 92.0932C538.377 92.0971 538.377 92.101 538.377 92.1049C538.377 92.1088 538.377 92.1127 538.377 92.1166C538.377 92.1205 538.377 92.1244 538.377 92.1283C538.377 92.1322 538.377 92.1361 538.377 92.14C538.377 92.1439 538.377 92.1478 538.377 92.1516C538.377 92.1555 538.377 92.1594 538.377 92.1633C538.377 92.1672 538.377 92.1711 538.377 92.175C538.377 92.1789 538.377 92.1828 538.377 92.1867C538.377 92.1906 538.377 92.1945 538.377 92.1984C538.377 92.2023 538.377 92.2062 538.377 92.2101C538.377 92.214 538.377 92.2179 538.377 92.2218C538.377 92.2257 538.377 92.2296 538.377 92.2335C538.377 92.2374 538.377 92.2413 538.377 92.2452C538.377 92.2491 538.377 92.253 538.377 92.2569C538.377 92.2608 538.377 92.2647 538.377 92.2685C538.377 92.2724 538.377 92.2763 538.377 92.2802C538.377 92.2841 538.377 92.288 538.377 92.2919C538.377 92.2958 538.377 92.2997 538.377 92.3036C538.377 92.3075 538.377 92.3114 538.377 92.3153C538.377 92.3192 538.377 92.3231 538.377 92.327C538.377 92.3309 538.377 92.3348 538.377 92.3387C538.377 92.3426 538.377 92.3464 538.377 92.3503C538.377 92.3542 538.377 92.3581 538.377 92.362C538.377 92.3659 538.377 92.3698 538.377 92.3737C538.377 92.3776 538.377 92.3815 538.377 92.3854C538.377 92.3893 538.377 92.3932 538.377 92.3971C538.377 92.401 538.377 92.4049 538.377 92.4087C538.377 92.4126 538.377 92.4165 538.377 92.4204C538.377 92.4243 538.377 92.4282 538.377 92.4321C538.377 92.436 538.377 92.4399 538.377 92.4438C538.377 92.4477 538.377 92.4516 538.377 92.4555C538.377 92.4594 538.377 92.4632 538.377 92.4671C538.377 92.471 538.377 92.4749 538.377 92.4788C538.377 92.4827 538.377 92.4866 538.377 92.4905C538.377 92.4944 538.377 92.4983 538.377 92.5022C538.377 92.5061 538.377 92.5099 538.377 92.5138C538.377 92.5177 538.377 92.5216 538.377 92.5255C538.377 92.5294 538.377 92.5333 538.377 92.5372C538.377 92.5411 538.377 92.545 538.377 92.5489C538.377 92.5528 538.377 92.5566 538.377 92.5605C538.377 92.5644 538.377 92.5683 538.377 92.5722C538.377 92.5761 538.377 92.58 538.377 92.5839C538.377 92.5878 538.377 92.5917 538.377 92.5955C538.377 92.5994 538.377 92.6033 538.377 92.6072C538.377 92.6111 538.377 92.615 538.377 92.6189C538.377 92.6228 538.377 92.6267 538.377 92.6306C538.377 92.6344 538.377 92.6383 538.377 92.6422C538.377 92.6461 538.377 92.65 538.377 92.6539C538.377 92.6578 538.377 92.6617 538.377 92.6656C538.377 92.6694 538.377 92.6733 538.377 92.6772C538.377 92.6811 538.377 92.685 538.377 92.6889C538.377 92.6928 538.377 92.6967 538.377 92.7006C538.377 92.7044 538.377 92.7083 538.377 92.7122C538.377 92.7161 538.377 92.72 538.377 92.7239C538.377 92.7278 538.377 92.7317 538.377 92.7355C538.377 92.7394 538.377 92.7433 538.377 92.7472C538.377 92.7511 538.377 92.755 538.377 92.7589C538.377 92.7628 538.377 92.7666 538.377 92.7705C538.377 92.7744 538.377 92.7783 538.377 92.7822C538.377 92.7861 538.377 92.79 538.377 92.7938C538.377 92.7977 538.377 92.8016 538.377 92.8055C538.377 92.8094 538.377 92.8133 538.377 92.8172C538.377 92.8211 538.377 92.8249 538.377 92.8288C538.377 92.8327 538.377 92.8366 538.377 92.8405C538.377 92.8444 538.377 92.8483 538.377 92.8521C538.377 92.856 538.377 92.8599 538.377 92.8638C538.377 92.8677 538.377 92.8716 538.377 92.8754C538.377 92.8793 538.377 92.8832 538.377 92.8871C538.377 92.891 538.377 92.8949 538.377 92.8988C538.377 92.9026 538.377 92.9065 538.377 92.9104C538.377 92.9143 538.377 92.9182 538.377 92.9221C538.377 92.9259 538.377 92.9298 538.377 92.9337C538.377 92.9376 538.377 92.9415 538.377 92.9454C538.377 92.9493 538.377 92.9531 538.377 92.957C538.377 92.9609 538.377 92.9648 538.377 92.9687C538.377 92.9726 538.377 92.9764 538.377 92.9803C538.377 92.9842 538.377 92.9881 538.377 92.992C538.377 92.9959 538.377 92.9997 538.377 93.0036C538.377 93.0075 538.377 93.0114 538.377 93.0153C538.377 93.0191 538.377 93.023 538.377 93.0269C538.377 93.0308 538.377 93.0347 538.377 93.0386C538.377 93.0424 538.377 93.0463 538.377 93.0502C538.377 93.0541 538.377 93.058 538.377 93.0619C538.377 93.0657 538.377 93.0696 538.377 93.0735C538.377 93.0774 538.377 93.0813 538.377 93.0851C538.377 93.089 538.377 93.0929 538.377 93.0968C538.377 93.1007 538.377 93.1045 538.377 93.1084C538.377 93.1123 538.377 93.1162 538.377 93.1201C538.377 93.124 538.377 93.1278 538.377 93.1317C538.377 93.1356 538.377 93.1395 538.377 93.1434C538.377 93.1472 538.377 93.1511 538.377 93.155C538.377 93.1589 538.377 93.1628 538.377 93.1666C538.377 93.1705 538.377 93.1744 538.377 93.1783C538.377 93.1822 538.377 93.186 538.377 93.1899C538.377 93.1938 538.377 93.1977 538.377 93.2016C538.377 93.2054 538.377 93.2093 538.377 93.2132C538.377 93.2171 538.377 93.221 538.377 93.2248C538.377 93.2287 538.377 93.2326 538.377 93.2365C538.377 93.2403 538.377 93.2442 538.377 93.2481C538.377 93.252 538.377 93.2559 538.377 93.2597C538.377 93.2636 538.377 93.2675 538.377 93.2714C538.377 93.2753 538.377 93.2791 538.377 93.283C538.377 93.2869 538.377 93.2908 538.377 93.2946C538.377 93.2985 538.377 93.3024 538.377 93.3063C538.377 93.3102 538.377 93.314 538.377 93.3179C538.377 93.3218 538.377 93.3257 538.377 93.3295C538.377 93.3334 538.377 93.3373 538.377 93.3412C538.377 93.345 538.377 93.3489 538.377 93.3528C538.377 93.3567 538.377 93.3606 538.377 93.3644C538.377 93.3683 538.377 93.3722 538.377 93.3761C538.377 93.3799 538.377 93.3838 538.377 93.3877C538.377 93.3916 538.377 93.3954 538.377 93.3993C538.377 93.4032 538.377 93.4071 538.377 93.4109C538.377 93.4148 538.377 93.4187 538.377 93.4226C538.377 93.4264 538.377 93.4303 538.377 93.4342C538.377 93.4381 538.377 93.4419 538.377 93.4458C538.377 93.4497 538.377 93.4536 538.377 93.4574C538.377 93.4613 538.377 93.4652 538.377 93.4691C538.377 93.4729 538.377 93.4768 538.377 93.4807C538.377 93.4846 538.377 93.4884 538.377 93.4923C538.377 93.4962 538.377 93.5001 538.377 93.5039C538.377 93.5078 538.377 93.5117 538.377 93.5156C538.377 93.5194 538.377 93.5233 538.377 93.5272C538.377 93.5311 538.377 93.5349 538.377 93.5388C538.377 93.5427 538.377 93.5466 538.377 93.5504C538.377 93.5543 538.377 93.5582 538.377 93.562C538.377 93.5659 538.377 93.5698 538.377 93.5737C538.377 93.5775 538.377 93.5814 538.377 93.5853C538.377 93.5892 538.377 93.593 538.377 93.5969C538.377 93.6008 538.377 93.6046 538.377 93.6085C538.377 93.6124 538.377 93.6163 538.377 93.6201C538.377 93.624 538.377 93.6279 538.377 93.6318C538.377 93.6356 538.377 93.6395 538.377 93.6434C538.377 93.6472 538.377 93.6511 538.377 93.655C538.377 93.6589 538.377 93.6627 538.377 93.6666C538.377 93.6705 538.377 93.6743 538.377 93.6782C538.377 93.6821 538.377 93.686 538.377 93.6898C538.377 93.6937 538.377 93.6976 538.377 93.7014C538.377 93.7053 538.377 93.7092 538.377 93.713C538.377 93.7169 538.377 93.7208 538.377 93.7247C538.377 93.7285 538.377 93.7324 538.377 93.7363C538.377 93.7401 538.377 93.744 538.377 93.7479C538.377 93.7517 538.377 93.7556 538.377 93.7595C538.377 93.7634 538.377 93.7672 538.377 93.7711C538.377 93.775 538.377 93.7788 538.377 93.7827C538.377 93.7866 538.377 93.7904 538.377 93.7943C538.377 93.7982 538.377 93.802 538.377 93.8059C538.377 93.8098 538.377 93.8137 538.377 93.8175C538.377 93.8214 538.377 93.8253 538.377 93.8291C538.377 93.833 538.377 93.8369 538.377 93.8407C538.377 93.8446 538.377 93.8485 538.377 93.8523C538.377 93.8562 538.377 93.8601 538.377 93.8639C538.377 93.8678 538.377 93.8717 538.377 93.8755C538.377 93.8794 538.377 93.8833 538.377 93.8871C538.377 93.891 538.377 93.8949 538.377 93.8988C538.377 93.9026 538.377 93.9065 538.377 93.9104C538.377 93.9142 538.377 93.9181 538.377 93.922C538.377 93.9258 538.377 93.9297 538.377 93.9336C538.377 93.9374 538.377 93.9413 538.377 93.9451C538.377 93.949 538.377 93.9529 538.377 93.9567C538.377 93.9606 538.377 93.9645 538.377 93.9683C538.377 93.9722 538.377 93.9761 538.377 93.9799C538.377 93.9838 538.377 93.9877 538.377 93.9915C538.377 93.9954 538.377 93.9993 538.377 94.0031C538.377 94.007 538.377 94.0109 538.377 94.0147C538.377 94.0186 538.377 94.0225 538.377 94.0263C538.377 94.0302 538.377 94.0341 538.377 94.0379C538.377 94.0418 538.377 94.0457 538.377 94.0495C538.377 94.0534 538.377 94.0572 538.377 94.0611C538.377 94.065 538.377 94.0688 538.377 94.0727C538.377 94.0766 538.377 94.0804 538.377 94.0843C538.377 94.0882 538.377 94.092 538.377 94.0959C538.377 94.0998 538.377 94.1036 538.377 94.1075C538.377 94.1113 538.377 94.1152 538.377 94.1191C538.377 94.1229 538.377 94.1268 538.377 94.1307C538.377 94.1345 538.377 94.1384 538.377 94.1422C538.377 94.1461 538.377 94.15 538.377 94.1538C538.377 94.1577 538.377 94.1616 538.377 94.1654C538.377 94.1693 538.377 94.1731 538.377 94.177C538.377 94.1809 538.377 94.1847 538.377 94.1886C538.377 94.1925 538.377 94.1963 538.377 94.2002C538.377 94.204 538.377 94.2079 538.377 94.2118C538.377 94.2156 538.377 94.2195 538.377 94.2234C538.377 94.2272 538.377 94.2311 538.377 94.2349C538.377 94.2388 538.377 94.2427 538.377 94.2465C538.377 94.2504 538.377 94.2542 538.377 94.2581C538.377 94.262 538.377 94.2658 538.377 94.2697C538.377 94.2735 538.377 94.2774 538.377 94.2813C538.377 94.2851 538.377 94.289 538.377 94.2929C538.377 94.2967 538.377 94.3006 538.377 94.3044C538.377 94.3083 538.377 94.3121 538.377 94.316C538.377 94.3199 538.377 94.3237 538.377 94.3276C538.377 94.3314 538.377 94.3353 538.377 94.3392C538.377 94.343 538.377 94.3469 538.377 94.3507C538.377 94.3546 538.377 94.3585 538.377 94.3623C538.377 94.3662 538.377 94.37 538.377 94.3739C538.377 94.3778 538.377 94.3816 538.377 94.3855C538.377 94.3893 538.377 94.3932 538.377 94.3971C538.377 94.4009 538.377 94.4048 538.377 94.4086C538.377 94.4125 538.377 94.4163 538.377 94.4202C538.377 94.4241 538.377 94.4279 538.377 94.4318C538.377 94.4356 538.377 94.4395 538.377 94.4433C538.377 94.4472 538.377 94.4511 538.377 94.4549C538.377 94.4588 538.377 94.4626 538.377 94.4665C538.377 94.4703 538.377 94.4742 538.377 94.4781C538.377 94.4819 538.377 94.4858 538.377 94.4896C538.377 94.4935 538.377 94.4973 538.377 94.5012C538.377 94.5051 538.377 94.5089 538.377 94.5128C538.377 94.5166 538.377 94.5205 538.377 94.5243C538.377 94.5282 538.377 94.5321 538.377 94.5359C538.377 94.5398 538.377 94.5436 538.377 94.5475C538.377 94.5513 538.377 94.5552 538.377 94.559C538.377 94.5629 538.377 94.5668 538.377 94.5706C538.377 94.5745 538.377 94.5783 538.377 94.5822C538.377 94.586 538.377 94.5899 538.377 94.5937C538.377 94.5976 538.377 94.6015 538.377 94.6053C538.377 94.6092 538.377 94.613 538.377 94.6169C538.377 94.6207 538.377 94.6246 538.377 94.6284C538.377 94.6323 538.377 94.6361 538.377 94.64H543.377ZM543.377 88.64H548.377V61.44H543.377H538.377V88.64H543.377ZM543.377 61.44V66.44H549.777V61.44V56.44H543.377V61.44ZM549.777 61.44H544.777V116H549.777H554.777V61.44H549.777ZM549.777 116V111H543.377V116V121H549.777V116ZM543.377 116L547.552 113.248L518.912 69.8078L514.737 72.56L510.563 75.3122L539.203 118.752L543.377 116ZM514.737 72.56V67.56H514.577V72.56V77.56H514.737V72.56ZM514.577 72.56L509.58 72.7266C509.635 74.3762 509.717 76.1017 509.826 77.9025L514.817 77.6L519.808 77.2975C519.704 75.5783 519.626 73.9438 519.574 72.3934L514.577 72.56ZM514.817 77.6L509.82 77.7723C509.873 79.3055 509.926 81.0275 509.979 82.9388L514.977 82.8L519.975 82.6612C519.922 80.7325 519.868 78.9878 519.814 77.4277L514.817 77.6ZM514.977 82.8L509.979 82.9388C510.031 84.8101 510.057 86.7371 510.057 88.72H515.057H520.057C520.057 86.6496 520.03 84.6299 519.975 82.6612L514.977 82.8ZM515.057 88.72H510.057V116H515.057H520.057V88.72H515.057ZM515.057 116V111H508.657V116V121H515.057V116ZM508.657 116H513.657V61.44H508.657H503.657V116H508.657Z" fill="black" mask="url(#path-2-outside-1_23_1277)"/>
</svg>
