<svg width="503" height="341" viewBox="0 0 503 341" fill="none" xmlns="http://www.w3.org/2000/svg">
<path d="M149.892 341V173H184.611L57.3056 5L22.5859 50.8182V21.8H-23.7071V111.909L-35.2803 127.182L-70.0001 173H-35.2803V341H149.892Z" fill="#FF5353"/>
<path d="M-35.2803 173H-70.0001L-35.2803 127.182M-35.2803 173V341H149.892V173H184.611L57.3056 5L22.5859 50.8182M-35.2803 173V127.182M22.5859 50.8182V21.8H-23.7071V111.909M22.5859 50.8182L-23.7071 111.909M-23.7071 111.909L-35.2803 127.182" stroke="black" stroke-width="5"/>
<path d="M360.97 341V195.043H395.156L269.808 49.0851L235.623 88.8917V63.6809H190.042V141.967L178.647 155.236L144.461 195.043H178.647V341H360.97Z" fill="#FF5353"/>
<path d="M178.647 195.043H144.461L178.647 155.236M178.647 195.043V341H360.97V195.043H395.156L269.808 49.0851L235.623 88.8917M178.647 195.043V155.236M235.623 88.8917V63.6809H190.042V141.967M235.623 88.8917L190.042 141.967M190.042 141.967L178.647 155.236" stroke="black" stroke-width="5"/>
<path d="M49.6941 341V231.383H22.0519L123.407 121.766L151.049 151.662V132.728H187.905V191.522L197.119 201.487L224.762 231.383H197.119V341H49.6941Z" fill="#1FB25A"/>
<path d="M197.119 231.383H224.762L197.119 201.487M197.119 231.383V341H49.6941V231.383H22.0519L123.407 121.766L151.049 151.662M197.119 231.383V201.487M151.049 151.662V132.728H187.905V191.522M151.049 151.662L187.905 191.522M187.905 191.522L197.119 201.487" stroke="black" stroke-width="5"/>
<path d="M321.932 341V231.383H294.29L395.645 121.766L423.287 151.662V132.728H460.144V191.522L469.358 201.487L497 231.383H469.358V341H321.932Z" fill="#1FB25A"/>
<path d="M469.358 231.383H497L469.358 201.487M469.358 231.383V341H321.932V231.383H294.29L395.645 121.766L423.287 151.662M469.358 231.383V201.487M423.287 151.662V132.728H460.144V191.522M423.287 151.662L460.144 191.522M460.144 191.522L469.358 201.487" stroke="black" stroke-width="5"/>
</svg>
