<svg width="266" height="123" viewBox="0 0 266 123" fill="none" xmlns="http://www.w3.org/2000/svg">
<g filter="url(#filter0_d_21_604)">
<rect x="13" y="5" width="240" height="97" rx="15" fill="#8EF49D"/>
<rect x="13" y="5" width="240" height="97" rx="15" stroke="black" stroke-width="5"/>
</g>
<path d="M59.6502 46.42C58.7702 46.24 57.8302 46.07 56.8302 45.91C55.8502 45.75 54.7102 45.65 53.4102 45.61C52.0902 45.63 50.9502 45.83 49.9902 46.21C49.0302 46.59 48.2402 47.14 47.6202 47.86C47.0202 48.56 46.5702 49.4 46.2702 50.38C45.9702 51.36 45.8202 52.44 45.8202 53.62C45.8202 55.14 46.0102 56.44 46.3902 57.52C46.7902 58.6 47.3302 59.49 48.0102 60.19C48.7102 60.87 49.5202 61.37 50.4402 61.69C51.3602 62.01 52.3502 62.17 53.4102 62.17C54.0902 62.17 54.7002 62.13 55.2402 62.05C55.8002 61.97 56.2802 61.88 56.6802 61.78C57.1002 61.66 57.4802 61.53 57.8202 61.39V55.9H54.0702V53.65H60.3702V62.62C59.6702 63.08 58.7002 63.5 57.4602 63.88C56.2402 64.24 54.8902 64.41 53.4102 64.39C52.0502 64.39 50.7402 64.23 49.4802 63.91C48.2402 63.59 47.1302 63.03 46.1502 62.23C45.1902 61.41 44.4202 60.3 43.8402 58.9C43.2602 57.5 42.9702 55.73 42.9702 53.59C42.9702 51.85 43.2402 50.34 43.7802 49.06C44.3202 47.76 45.0502 46.69 45.9702 45.85C46.9102 44.99 47.9902 44.35 49.2102 43.93C50.4502 43.49 51.7602 43.27 53.1402 43.27C54.0402 43.27 54.9102 43.32 55.7502 43.42C56.5902 43.5 57.3602 43.6 58.0602 43.72C58.7602 43.82 59.4302 43.95 60.0702 44.11L59.6502 46.42ZM70.7017 43.54H73.8217L80.8417 64H78.2317L76.4317 58.54H68.1217L66.2917 64H63.6817L70.7017 43.54ZM75.6217 56.14L72.3217 45.94H72.2317L68.9017 56.14H75.6217ZM85.5323 43.54H88.7423L93.3623 55.72C93.6223 56.42 93.8623 57.07 94.0823 57.67C94.3023 58.25 94.4923 58.77 94.6523 59.23C94.8523 59.75 95.0223 60.23 95.1623 60.67H95.2223C95.3423 60.23 95.4923 59.75 95.6723 59.23C95.8323 58.77 96.0123 58.25 96.2123 57.67C96.4123 57.07 96.6523 56.42 96.9323 55.72L101.642 43.54H104.852L105.902 64H103.352L102.842 52.75C102.802 51.77 102.772 50.94 102.752 50.26C102.732 49.58 102.722 49.02 102.722 48.58V47.32H102.662C102.542 47.62 102.392 48.03 102.212 48.55C102.052 48.99 101.842 49.56 101.582 50.26C101.342 50.94 101.042 51.77 100.682 52.75L96.4523 64H93.9023L89.6423 52.75C89.2623 51.79 88.9523 50.97 88.7123 50.29C88.4723 49.59 88.2723 49.02 88.1123 48.58C87.9323 48.06 87.7923 47.64 87.6923 47.32H87.6323C87.6523 47.64 87.6723 48.06 87.6923 48.58C87.7123 49.42 87.6823 50.81 87.6023 52.75L87.0023 64H84.4523L85.5323 43.54ZM111.614 43.54H124.154V45.85H114.134V52.39H123.434V54.64H114.134V61.69H124.454V64H111.614V43.54ZM137.203 43.54H142.243C143.343 43.54 144.343 43.64 145.243 43.84C146.163 44.02 146.943 44.34 147.583 44.8C148.223 45.24 148.713 45.83 149.053 46.57C149.393 47.31 149.563 48.24 149.563 49.36C149.543 50.6 149.333 51.61 148.933 52.39C148.533 53.15 148.043 53.77 147.463 54.25C146.883 54.71 146.213 55.05 145.453 55.27V55.33C145.533 55.41 145.653 55.56 145.813 55.78C145.993 55.98 146.143 56.16 146.263 56.32L152.053 64H149.083L143.143 55.87H139.723V64H137.203V43.54ZM147.013 49.78C147.013 48.94 146.903 48.26 146.683 47.74C146.483 47.2 146.173 46.79 145.753 46.51C145.353 46.23 144.853 46.04 144.253 45.94C143.653 45.84 142.973 45.79 142.213 45.79H139.723V53.62H142.693C143.473 53.62 144.133 53.52 144.673 53.32C145.213 53.12 145.653 52.85 145.993 52.51C146.333 52.15 146.583 51.74 146.743 51.28C146.903 50.82 146.993 50.32 147.013 49.78ZM157.7 43.54V56.32C157.7 57.46 157.86 58.4 158.18 59.14C158.52 59.86 158.96 60.43 159.5 60.85C160.04 61.27 160.65 61.56 161.33 61.72C162.03 61.88 162.74 61.96 163.46 61.96C164.18 61.96 164.88 61.88 165.56 61.72C166.24 61.56 166.85 61.27 167.39 60.85C167.93 60.43 168.36 59.86 168.68 59.14C169 58.4 169.16 57.46 169.16 56.32V43.54H171.68V56.95C171.68 57.99 171.48 58.96 171.08 59.86C170.7 60.76 170.15 61.55 169.43 62.23C168.71 62.89 167.84 63.41 166.82 63.79C165.8 64.17 164.67 64.36 163.43 64.36C160.77 64.36 158.73 63.72 157.31 62.44C155.89 61.14 155.18 59.31 155.18 56.95V43.54H157.7ZM177.704 43.54H180.224V61.6H189.524V64H177.704V43.54ZM193.575 43.54H206.115V45.85H196.095V52.39H205.395V54.64H196.095V61.69H206.415V64H193.575V43.54ZM221.879 46.36C221.399 46.24 220.899 46.13 220.379 46.03C219.919 45.93 219.389 45.85 218.789 45.79C218.209 45.71 217.599 45.67 216.959 45.67C215.479 45.67 214.419 45.9 213.779 46.36C213.139 46.8 212.819 47.49 212.819 48.43C212.839 49.17 213.109 49.8 213.629 50.32C214.149 50.82 214.799 51.29 215.579 51.73C216.359 52.15 217.209 52.57 218.129 52.99C219.069 53.39 219.929 53.86 220.709 54.4C221.489 54.92 222.139 55.54 222.659 56.26C223.199 56.96 223.469 57.82 223.469 58.84C223.469 60.02 223.209 60.97 222.689 61.69C222.189 62.41 221.549 62.97 220.769 63.37C219.989 63.77 219.129 64.04 218.189 64.18C217.269 64.32 216.389 64.39 215.549 64.39C214.749 64.39 214.019 64.34 213.359 64.24C212.699 64.14 212.129 64.03 211.649 63.91C211.089 63.77 210.579 63.61 210.119 63.43L210.719 61C211.179 61.2 211.669 61.37 212.189 61.51C212.649 61.63 213.159 61.74 213.719 61.84C214.299 61.94 214.909 61.99 215.549 61.99C216.329 61.99 217.039 61.94 217.679 61.84C218.339 61.74 218.909 61.58 219.389 61.36C219.869 61.14 220.239 60.85 220.499 60.49C220.779 60.13 220.919 59.69 220.919 59.17C220.899 58.39 220.639 57.76 220.139 57.28C219.659 56.78 219.009 56.31 218.189 55.87C217.389 55.41 216.519 54.97 215.579 54.55C214.659 54.13 213.809 53.65 213.029 53.11C212.249 52.57 211.589 51.93 211.049 51.19C210.529 50.45 210.269 49.53 210.269 48.43C210.269 47.79 210.379 47.16 210.599 46.54C210.819 45.92 211.189 45.37 211.709 44.89C212.249 44.41 212.939 44.02 213.779 43.72C214.639 43.42 215.699 43.27 216.959 43.27C217.679 43.27 218.359 43.31 218.999 43.39C219.659 43.45 220.229 43.52 220.709 43.6C221.269 43.7 221.799 43.81 222.299 43.93L221.879 46.36Z" fill="black"/>
<defs>
<filter id="filter0_d_21_604" x="0.5" y="0.5" width="265" height="122" filterUnits="userSpaceOnUse" color-interpolation-filters="sRGB">
<feFlood flood-opacity="0" result="BackgroundImageFix"/>
<feColorMatrix in="SourceAlpha" type="matrix" values="0 0 0 0 0 0 0 0 0 0 0 0 0 0 0 0 0 0 127 0" result="hardAlpha"/>
<feOffset dy="8"/>
<feGaussianBlur stdDeviation="5"/>
<feComposite in2="hardAlpha" operator="out"/>
<feColorMatrix type="matrix" values="0 0 0 0 0 0 0 0 0 0 0 0 0 0 0 0 0 0 0.25 0"/>
<feBlend mode="normal" in2="BackgroundImageFix" result="effect1_dropShadow_21_604"/>
<feBlend mode="normal" in="SourceGraphic" in2="effect1_dropShadow_21_604" result="shape"/>
</filter>
</defs>
</svg>
