<svg width="85" height="85" viewBox="0 0 85 85" fill="none" xmlns="http://www.w3.org/2000/svg">
<rect x="2.5" y="2.5" width="80" height="80" rx="5.5" fill="#FFF8F8" stroke="black" stroke-width="5"/>
<mask id="path-2-outside-1_23_1311" maskUnits="userSpaceOnUse" x="32" y="32" width="17" height="30" fill="black">
<rect fill="white" x="32" y="32" width="17" height="30"/>
<path d="M42.648 39.45L36.098 40.7L35.298 37.3L44.198 34.85H46.648V60H42.648V39.45Z"/>
</mask>
<path d="M42.648 39.45L36.098 40.7L35.298 37.3L44.198 34.85H46.648V60H42.648V39.45Z" fill="black"/>
<path d="M42.648 39.45H44.648V37.0322L42.2731 37.4855L42.648 39.45ZM36.098 40.7L34.1512 41.1581L34.5902 43.0238L36.473 42.6645L36.098 40.7ZM35.298 37.3L34.7672 35.3717L32.91 35.883L33.3512 37.7581L35.298 37.3ZM44.198 34.85V32.85H43.9278L43.6672 32.9217L44.198 34.85ZM46.648 34.85H48.648V32.85H46.648V34.85ZM46.648 60V62H48.648V60H46.648ZM42.648 60H40.648V62H42.648V60ZM42.648 39.45L42.2731 37.4855L35.7231 38.7355L36.098 40.7L36.473 42.6645L43.023 41.4145L42.648 39.45ZM36.098 40.7L38.0449 40.2419L37.2449 36.8419L35.298 37.3L33.3512 37.7581L34.1512 41.1581L36.098 40.7ZM35.298 37.3L35.8289 39.2283L44.7289 36.7783L44.198 34.85L43.6672 32.9217L34.7672 35.3717L35.298 37.3ZM44.198 34.85V36.85H46.648V34.85V32.85H44.198V34.85ZM46.648 34.85H44.648V60H46.648H48.648V34.85H46.648ZM46.648 60V58H42.648V60V62H46.648V60ZM42.648 60H44.648V39.45H42.648H40.648V60H42.648Z" fill="black" mask="url(#path-2-outside-1_23_1311)"/>
</svg>
