<svg width="85" height="85" viewBox="0 0 85 85" fill="none" xmlns="http://www.w3.org/2000/svg">
<rect x="2.5" y="2.5" width="80" height="80" rx="5.5" fill="#FFF8F8" stroke="black" stroke-width="5"/>
<mask id="path-2-outside-1_23_1312" maskUnits="userSpaceOnUse" x="30" y="32" width="25" height="30" fill="black">
<rect fill="white" x="30" y="32" width="25" height="30"/>
<path d="M32.4918 58.1C35.2251 55.9333 37.6751 53.8167 39.8418 51.75C40.7751 50.8833 41.6751 49.9833 42.5418 49.05C43.4418 48.1167 44.2418 47.2 44.9418 46.3C45.6418 45.4 46.1918 44.55 46.5918 43.75C47.0251 42.9167 47.2418 42.1667 47.2418 41.5C47.2418 40.4333 46.8918 39.5667 46.1918 38.9C45.5251 38.2 44.1918 37.85 42.1918 37.85C41.1585 37.85 40.1585 37.9333 39.1918 38.1C38.2251 38.2667 37.3585 38.4333 36.5918 38.6C35.6918 38.8333 34.8251 39.0833 33.9918 39.35L32.7918 36.15C33.6585 35.8167 34.6418 35.5167 35.7418 35.25C36.6418 35.0167 37.6918 34.8167 38.8918 34.65C40.1251 34.45 41.4251 34.35 42.7918 34.35C43.8918 34.35 44.9585 34.4667 45.9918 34.7C47.0585 34.9 47.9918 35.2667 48.7918 35.8C49.6251 36.3 50.2751 36.9833 50.7418 37.85C51.2418 38.7167 51.4918 39.8167 51.4918 41.15C51.4918 41.9167 51.3251 42.7333 50.9918 43.6C50.6585 44.4333 50.2251 45.2833 49.6918 46.15C49.1918 46.9833 48.5918 47.8333 47.8918 48.7C47.2251 49.5333 46.5418 50.3333 45.8418 51.1C44.2085 52.9 42.3418 54.6833 40.2418 56.45C41.0418 56.4167 41.8751 56.3833 42.7418 56.35C43.5085 56.3167 44.3751 56.3 45.3418 56.3C46.3418 56.2667 47.3751 56.25 48.4418 56.25H52.2418V60H32.4918V58.1Z"/>
</mask>
<path d="M32.4918 58.1C35.2251 55.9333 37.6751 53.8167 39.8418 51.75C40.7751 50.8833 41.6751 49.9833 42.5418 49.05C43.4418 48.1167 44.2418 47.2 44.9418 46.3C45.6418 45.4 46.1918 44.55 46.5918 43.75C47.0251 42.9167 47.2418 42.1667 47.2418 41.5C47.2418 40.4333 46.8918 39.5667 46.1918 38.9C45.5251 38.2 44.1918 37.85 42.1918 37.85C41.1585 37.85 40.1585 37.9333 39.1918 38.1C38.2251 38.2667 37.3585 38.4333 36.5918 38.6C35.6918 38.8333 34.8251 39.0833 33.9918 39.35L32.7918 36.15C33.6585 35.8167 34.6418 35.5167 35.7418 35.25C36.6418 35.0167 37.6918 34.8167 38.8918 34.65C40.1251 34.45 41.4251 34.35 42.7918 34.35C43.8918 34.35 44.9585 34.4667 45.9918 34.7C47.0585 34.9 47.9918 35.2667 48.7918 35.8C49.6251 36.3 50.2751 36.9833 50.7418 37.85C51.2418 38.7167 51.4918 39.8167 51.4918 41.15C51.4918 41.9167 51.3251 42.7333 50.9918 43.6C50.6585 44.4333 50.2251 45.2833 49.6918 46.15C49.1918 46.9833 48.5918 47.8333 47.8918 48.7C47.2251 49.5333 46.5418 50.3333 45.8418 51.1C44.2085 52.9 42.3418 54.6833 40.2418 56.45C41.0418 56.4167 41.8751 56.3833 42.7418 56.35C43.5085 56.3167 44.3751 56.3 45.3418 56.3C46.3418 56.2667 47.3751 56.25 48.4418 56.25H52.2418V60H32.4918V58.1Z" fill="black"/>
<path d="M32.4918 58.1L31.2494 56.5327L30.4918 57.1332V58.1H32.4918ZM39.8418 51.75L38.4809 50.2844L38.4711 50.2935L38.4614 50.3028L39.8418 51.75ZM42.5418 49.05L41.1021 47.6617L41.089 47.6753L41.0762 47.6891L42.5418 49.05ZM46.5918 43.75L44.8174 42.8273L44.81 42.8414L44.8029 42.8556L46.5918 43.75ZM46.1918 38.9L44.7435 40.2793L44.7772 40.3146L44.8125 40.3483L46.1918 38.9ZM39.1918 38.1L38.852 36.1291H38.852L39.1918 38.1ZM36.5918 38.6L36.1669 36.6456L36.1282 36.6541L36.0899 36.664L36.5918 38.6ZM33.9918 39.35L32.1191 40.0522L32.7877 41.8352L34.6013 41.2548L33.9918 39.35ZM32.7918 36.15L32.0738 34.2833L30.2228 34.9953L30.9191 36.8522L32.7918 36.15ZM35.7418 35.25L36.213 37.1937L36.2284 37.19L36.2437 37.186L35.7418 35.25ZM38.8918 34.65L39.1669 36.631L39.1895 36.6279L39.2119 36.6242L38.8918 34.65ZM45.9918 34.7L45.5513 36.6509L45.5871 36.659L45.6232 36.6657L45.9918 34.7ZM48.7918 35.8L47.6824 37.4641L47.722 37.4905L47.7628 37.515L48.7918 35.8ZM50.7418 37.85L48.9809 38.7982L48.9948 38.824L49.0094 38.8494L50.7418 37.85ZM50.9918 43.6L52.8488 44.3428L52.8537 44.3304L52.8585 44.318L50.9918 43.6ZM49.6918 46.15L47.9885 45.1018L47.9826 45.1114L47.9768 45.121L49.6918 46.15ZM47.8918 48.7L46.3359 47.4433L46.3301 47.4506L47.8918 48.7ZM45.8418 51.1L44.3648 49.7515L44.3607 49.756L45.8418 51.1ZM40.2418 56.45L38.9543 54.9195L34.4698 58.6922L40.3251 58.4483L40.2418 56.45ZM42.7418 56.35L42.8187 58.3485L42.8287 58.3481L42.7418 56.35ZM45.3418 56.3V58.3H45.3751L45.4084 58.2989L45.3418 56.3ZM52.2418 56.25H54.2418V54.25H52.2418V56.25ZM52.2418 60V62H54.2418V60H52.2418ZM32.4918 60H30.4918V62H32.4918V60ZM32.4918 58.1L33.7342 59.6673C36.5078 57.4687 39.0049 55.3122 41.2222 53.1972L39.8418 51.75L38.4614 50.3028C36.3453 52.3212 33.9425 54.3979 31.2494 56.5327L32.4918 58.1ZM39.8418 51.75L41.2027 53.2156C42.1722 52.3153 43.1071 51.3804 44.0074 50.4109L42.5418 49.05L41.0762 47.6891C40.2431 48.5863 39.3781 49.4513 38.4809 50.2844L39.8418 51.75ZM42.5418 49.05L43.9815 50.4383C44.9241 49.4607 45.7716 48.4907 46.5205 47.5279L44.9418 46.3L43.3631 45.0721C42.712 45.9093 41.9595 46.7726 41.1021 47.6617L42.5418 49.05ZM44.9418 46.3L46.5205 47.5279C47.2805 46.5507 47.9083 45.5892 48.3807 44.6444L46.5918 43.75L44.8029 42.8556C44.4753 43.5108 44.0031 44.2493 43.3631 45.0721L44.9418 46.3ZM46.5918 43.75L48.3662 44.6727C48.8908 43.6639 49.2418 42.592 49.2418 41.5H47.2418H45.2418C45.2418 41.7413 45.1595 42.1694 44.8174 42.8273L46.5918 43.75ZM47.2418 41.5H49.2418C49.2418 39.9486 48.7106 38.537 47.5711 37.4517L46.1918 38.9L44.8125 40.3483C45.0729 40.5963 45.2418 40.918 45.2418 41.5H47.2418ZM46.1918 38.9L47.6401 37.5207C46.964 36.8108 46.08 36.4091 45.1996 36.178C44.3111 35.9448 43.2935 35.85 42.1918 35.85V37.85V39.85C43.0901 39.85 43.7391 39.9302 44.184 40.047C44.6369 40.1659 44.7529 40.2892 44.7435 40.2793L46.1918 38.9ZM42.1918 37.85V35.85C41.0506 35.85 39.9367 35.9421 38.852 36.1291L39.1918 38.1L39.5316 40.0709C40.3802 39.9246 41.2663 39.85 42.1918 39.85V37.85ZM39.1918 38.1L38.852 36.1291C37.8635 36.2995 36.9678 36.4716 36.1669 36.6456L36.5918 38.6L37.0167 40.5544C37.7492 40.3951 38.5867 40.2338 39.5316 40.0709L39.1918 38.1ZM36.5918 38.6L36.0899 36.664C35.1559 36.9061 34.2533 37.1664 33.3822 37.4452L33.9918 39.35L34.6013 41.2548C35.397 41.0002 36.2277 40.7605 37.0937 40.536L36.5918 38.6ZM33.9918 39.35L35.8645 38.6478L34.6645 35.4478L32.7918 36.15L30.9191 36.8522L32.1191 40.0522L33.9918 39.35ZM32.7918 36.15L33.5098 38.0167C34.2808 37.7201 35.1794 37.4443 36.213 37.1937L35.7418 35.25L35.2706 33.3063C34.1042 33.5891 33.0362 33.9132 32.0738 34.2833L32.7918 36.15ZM35.7418 35.25L36.2437 37.186C37.0507 36.9768 38.0219 36.79 39.1669 36.631L38.8918 34.65L38.6167 32.669C37.3617 32.8433 36.2329 33.0565 35.2399 33.314L35.7418 35.25ZM38.8918 34.65L39.2119 36.6242C40.3301 36.4429 41.5225 36.35 42.7918 36.35V34.35V32.35C41.3278 32.35 39.9202 32.4571 38.5717 32.6758L38.8918 34.65ZM42.7918 34.35V36.35C43.7493 36.35 44.668 36.4514 45.5513 36.6509L45.9918 34.7L46.4323 32.7491C45.249 32.4819 44.0343 32.35 42.7918 32.35V34.35ZM45.9918 34.7L45.6232 36.6657C46.4592 36.8225 47.1336 37.0982 47.6824 37.4641L48.7918 35.8L49.9012 34.1359C48.85 33.4351 47.6578 32.9775 46.3604 32.7343L45.9918 34.7ZM48.7918 35.8L47.7628 37.515C48.2835 37.8274 48.6825 38.244 48.9809 38.7982L50.7418 37.85L52.5027 36.9018C51.8678 35.7226 50.9668 34.7726 49.8208 34.085L48.7918 35.8ZM50.7418 37.85L49.0094 38.8494C49.2852 39.3275 49.4918 40.0547 49.4918 41.15H51.4918H53.4918C53.4918 39.5786 53.1984 38.1059 52.4742 36.8506L50.7418 37.85ZM51.4918 41.15H49.4918C49.4918 41.6254 49.3884 42.1975 49.1251 42.882L50.9918 43.6L52.8585 44.318C53.2619 43.2692 53.4918 42.2079 53.4918 41.15H51.4918ZM50.9918 43.6L49.1348 42.8572C48.8491 43.5716 48.4698 44.3197 47.9885 45.1018L49.6918 46.15L51.3951 47.1982C51.9805 46.2469 52.4678 45.2951 52.8488 44.3428L50.9918 43.6ZM49.6918 46.15L47.9768 45.121C47.5308 45.8643 46.9859 46.6386 46.3359 47.4433L47.8918 48.7L49.4477 49.9567C50.1977 49.0281 50.8528 48.1023 51.4068 47.179L49.6918 46.15ZM47.8918 48.7L46.3301 47.4506C45.6898 48.2509 45.0347 49.0178 44.3648 49.7515L45.8418 51.1L47.3188 52.4485C48.0489 51.6489 48.7605 50.8157 49.4535 49.9494L47.8918 48.7ZM45.8418 51.1L44.3607 49.756C42.7947 51.4818 40.9942 53.2034 38.9543 54.9195L40.2418 56.45L41.5293 57.9805C43.6894 56.1633 45.6222 54.3182 47.3229 52.444L45.8418 51.1ZM40.2418 56.45L40.3251 58.4483C41.1228 58.415 41.954 58.3818 42.8187 58.3485L42.7418 56.35L42.6649 54.3515C41.7963 54.3849 40.9608 54.4183 40.1585 54.4517L40.2418 56.45ZM42.7418 56.35L42.8287 58.3481C43.5601 58.3163 44.3971 58.3 45.3418 58.3V56.3V54.3C44.3532 54.3 43.4568 54.317 42.6549 54.3519L42.7418 56.35ZM45.3418 56.3L45.4084 58.2989C46.3848 58.2663 47.3959 58.25 48.4418 58.25V56.25V54.25C47.3544 54.25 46.2988 54.267 45.2752 54.3011L45.3418 56.3ZM48.4418 56.25V58.25H52.2418V56.25V54.25H48.4418V56.25ZM52.2418 56.25H50.2418V60H52.2418H54.2418V56.25H52.2418ZM52.2418 60V58H32.4918V60V62H52.2418V60ZM32.4918 60H34.4918V58.1H32.4918H30.4918V60H32.4918Z" fill="black" mask="url(#path-2-outside-1_23_1312)"/>
</svg>
