<svg width="85" height="85" viewBox="0 0 85 85" fill="none" xmlns="http://www.w3.org/2000/svg">
<rect x="2.5" y="2.5" width="80" height="80" rx="5.5" fill="#FFF8F8" stroke="black" stroke-width="5"/>
<mask id="path-2-outside-1_23_1316" maskUnits="userSpaceOnUse" x="29" y="24" width="25" height="40" fill="black">
<rect fill="white" x="29" y="24" width="25" height="40"/>
<path d="M33.373 56.6C34.0064 56.9 34.6064 57.15 35.173 57.35C35.773 57.5833 36.3397 57.75 36.873 57.85C37.4397 57.9833 38.0064 58.0833 38.573 58.15C39.173 58.2167 39.8064 58.25 40.473 58.25C41.3397 58.25 42.173 58.1167 42.973 57.85C43.773 57.5833 44.473 57.1833 45.073 56.65C45.673 56.1167 46.1564 55.4333 46.523 54.6C46.8897 53.8 47.073 52.85 47.073 51.75C47.073 49.55 46.173 47.85 44.373 46.65C42.6064 45.45 40.273 44.8333 37.373 44.8V41.3C40.2064 41.3 42.4564 40.7 44.123 39.5C45.823 38.3 46.673 36.55 46.673 34.25C46.673 33.6167 46.5897 33.0333 46.423 32.5C46.2897 31.9667 46.023 31.5 45.623 31.1C45.2564 30.7 44.7564 30.4 44.123 30.2C43.4897 29.9667 42.6897 29.85 41.723 29.85C40.923 29.85 40.1564 29.9 39.423 30C38.723 30.1 38.0897 30.2 37.523 30.3C36.8897 30.4333 36.273 30.5667 35.673 30.7L34.673 27.45C35.3064 27.25 36.023 27.0667 36.823 26.9C37.4897 26.7667 38.2897 26.65 39.223 26.55C40.1564 26.4167 41.173 26.35 42.273 26.35C44.873 26.35 46.9564 26.9833 48.523 28.25C50.123 29.4833 50.923 31.4667 50.923 34.2C50.923 35.5333 50.7064 36.7 50.273 37.7C49.8397 38.6667 49.3064 39.5 48.673 40.2C48.073 40.9 47.4064 41.4667 46.673 41.9C45.973 42.3 45.323 42.6 44.723 42.8V42.95C45.5564 43.25 46.373 43.65 47.173 44.15C47.973 44.65 48.673 45.2667 49.273 46C49.9064 46.7333 50.4064 47.5833 50.773 48.55C51.1397 49.4833 51.323 50.55 51.323 51.75C51.323 53.7167 50.9564 55.3333 50.223 56.6C49.523 57.9 48.6397 58.9333 47.573 59.7C46.5064 60.4667 45.323 61 44.023 61.3C42.7564 61.6 41.573 61.75 40.473 61.75C39.2064 61.75 38.0564 61.65 37.023 61.45C36.023 61.2833 35.1564 61.0833 34.423 60.85C33.5564 60.5833 32.7897 60.2833 32.123 59.95L33.373 56.6Z"/>
</mask>
<path d="M33.373 56.6C34.0064 56.9 34.6064 57.15 35.173 57.35C35.773 57.5833 36.3397 57.75 36.873 57.85C37.4397 57.9833 38.0064 58.0833 38.573 58.15C39.173 58.2167 39.8064 58.25 40.473 58.25C41.3397 58.25 42.173 58.1167 42.973 57.85C43.773 57.5833 44.473 57.1833 45.073 56.65C45.673 56.1167 46.1564 55.4333 46.523 54.6C46.8897 53.8 47.073 52.85 47.073 51.75C47.073 49.55 46.173 47.85 44.373 46.65C42.6064 45.45 40.273 44.8333 37.373 44.8V41.3C40.2064 41.3 42.4564 40.7 44.123 39.5C45.823 38.3 46.673 36.55 46.673 34.25C46.673 33.6167 46.5897 33.0333 46.423 32.5C46.2897 31.9667 46.023 31.5 45.623 31.1C45.2564 30.7 44.7564 30.4 44.123 30.2C43.4897 29.9667 42.6897 29.85 41.723 29.85C40.923 29.85 40.1564 29.9 39.423 30C38.723 30.1 38.0897 30.2 37.523 30.3C36.8897 30.4333 36.273 30.5667 35.673 30.7L34.673 27.45C35.3064 27.25 36.023 27.0667 36.823 26.9C37.4897 26.7667 38.2897 26.65 39.223 26.55C40.1564 26.4167 41.173 26.35 42.273 26.35C44.873 26.35 46.9564 26.9833 48.523 28.25C50.123 29.4833 50.923 31.4667 50.923 34.2C50.923 35.5333 50.7064 36.7 50.273 37.7C49.8397 38.6667 49.3064 39.5 48.673 40.2C48.073 40.9 47.4064 41.4667 46.673 41.9C45.973 42.3 45.323 42.6 44.723 42.8V42.95C45.5564 43.25 46.373 43.65 47.173 44.15C47.973 44.65 48.673 45.2667 49.273 46C49.9064 46.7333 50.4064 47.5833 50.773 48.55C51.1397 49.4833 51.323 50.55 51.323 51.75C51.323 53.7167 50.9564 55.3333 50.223 56.6C49.523 57.9 48.6397 58.9333 47.573 59.7C46.5064 60.4667 45.323 61 44.023 61.3C42.7564 61.6 41.573 61.75 40.473 61.75C39.2064 61.75 38.0564 61.65 37.023 61.45C36.023 61.2833 35.1564 61.0833 34.423 60.85C33.5564 60.5833 32.7897 60.2833 32.123 59.95L33.373 56.6Z" fill="black"/>
<path d="M33.373 56.6L34.2292 54.7925L32.2607 53.8601L31.4992 55.9008L33.373 56.6ZM35.173 57.35L35.8979 55.486L35.8685 55.4745L35.8387 55.464L35.173 57.35ZM36.873 57.85L37.3311 55.9032L37.2866 55.8927L37.2416 55.8843L36.873 57.85ZM38.573 58.15L38.3394 60.1363L38.3522 60.1378L38.573 58.15ZM42.973 57.85L43.6055 59.7474H43.6055L42.973 57.85ZM45.073 56.65L43.7443 55.1552H43.7443L45.073 56.65ZM46.523 54.6L44.7049 53.7667L44.6986 53.7806L44.6924 53.7945L46.523 54.6ZM44.373 46.65L43.2493 48.3044L43.2564 48.3093L43.2636 48.3141L44.373 46.65ZM37.373 44.8H35.373V46.7771L37.3501 46.7999L37.373 44.8ZM37.373 41.3V39.3H35.373V41.3H37.373ZM44.123 39.5L42.9697 37.8661L42.962 37.8715L42.9544 37.8769L44.123 39.5ZM46.423 32.5L44.4828 32.9851L44.4968 33.0413L44.5141 33.0965L46.423 32.5ZM45.623 31.1L44.1487 32.4514L44.1781 32.4835L44.2088 32.5142L45.623 31.1ZM44.123 30.2L43.4316 32.0767L43.4759 32.093L43.5208 32.1072L44.123 30.2ZM39.423 30L39.1528 28.0183L39.1402 28.0201L39.423 30ZM37.523 30.3L37.1755 28.3304L37.1431 28.3361L37.111 28.3429L37.523 30.3ZM35.673 30.7L33.7615 31.2882L34.3045 33.0529L36.1069 32.6524L35.673 30.7ZM34.673 27.45L34.0708 25.5428L32.1776 26.1407L32.7615 28.0382L34.673 27.45ZM36.823 26.9L36.4308 24.9388L36.423 24.9404L36.4151 24.942L36.823 26.9ZM39.223 26.55L39.4361 28.5386L39.4711 28.5349L39.5059 28.5299L39.223 26.55ZM48.523 28.25L47.2656 29.8053L47.2837 29.8199L47.302 29.834L48.523 28.25ZM50.273 37.7L52.0981 38.5181L52.1032 38.5067L52.1082 38.4952L50.273 37.7ZM48.673 40.2L47.19 38.8582L47.172 38.8781L47.1545 38.8984L48.673 40.2ZM46.673 41.9L47.6653 43.6365L47.678 43.6293L47.6905 43.6219L46.673 41.9ZM44.723 42.8L44.0906 40.9026L42.723 41.3585V42.8H44.723ZM44.723 42.95H42.723V44.3557L44.0456 44.8318L44.723 42.95ZM47.173 44.15L46.113 45.846H46.1131L47.173 44.15ZM49.273 46L47.7251 47.2665L47.742 47.2871L47.7594 47.3072L49.273 46ZM50.773 48.55L48.9031 49.2593L48.9072 49.2703L48.9115 49.2813L50.773 48.55ZM50.223 56.6L48.4922 55.5979L48.4767 55.6246L48.4621 55.6518L50.223 56.6ZM47.573 59.7L48.7403 61.324L47.573 59.7ZM44.023 61.3L43.5733 59.3512L43.5621 59.3538L44.023 61.3ZM37.023 61.45L37.4031 59.4864L37.3775 59.4815L37.3518 59.4772L37.023 61.45ZM34.423 60.85L35.0295 58.9441L35.0203 58.9412L35.0112 58.9384L34.423 60.85ZM32.123 59.95L30.2492 59.2508L29.6208 60.935L31.2286 61.7389L32.123 59.95ZM33.373 56.6L32.5169 58.4075C33.2024 58.7322 33.8663 59.0097 34.5074 59.236L35.173 57.35L35.8387 55.464C35.3464 55.2903 34.8104 55.0678 34.2292 54.7925L33.373 56.6ZM35.173 57.35L34.4482 59.214C35.1429 59.4842 35.8295 59.6892 36.5045 59.8157L36.873 57.85L37.2416 55.8843C36.8499 55.8108 36.4032 55.6825 35.8979 55.486L35.173 57.35ZM36.873 57.85L36.415 59.7968C37.0541 59.9472 37.6957 60.0606 38.3394 60.1363L38.573 58.15L38.8067 56.1637C38.3171 56.1061 37.8253 56.0194 37.3311 55.9032L36.873 57.85ZM38.573 58.15L38.3522 60.1378C39.0326 60.2134 39.7401 60.25 40.473 60.25V58.25V56.25C39.8727 56.25 39.3135 56.22 38.7939 56.1622L38.573 58.15ZM40.473 58.25V60.25C41.5486 60.25 42.5959 60.0839 43.6055 59.7474L42.973 57.85L42.3406 55.9526C41.7502 56.1494 41.1308 56.25 40.473 56.25V58.25ZM42.973 57.85L43.6055 59.7474C44.6493 59.3994 45.5892 58.8671 46.4018 58.1448L45.073 56.65L43.7443 55.1552C43.3569 55.4995 42.8968 55.7672 42.3406 55.9526L42.973 57.85ZM45.073 56.65L46.4018 58.1448C47.2438 57.3964 47.8868 56.4667 48.3537 55.4055L46.523 54.6L44.6924 53.7945C44.426 54.4 44.1023 54.837 43.7443 55.1552L45.073 56.65ZM46.523 54.6L48.3412 55.4333C48.8537 54.315 49.073 53.0678 49.073 51.75H47.073H45.073C45.073 52.6322 44.9257 53.285 44.7049 53.7667L46.523 54.6ZM47.073 51.75H49.073C49.073 48.895 47.8501 46.5643 45.4824 44.9859L44.373 46.65L43.2636 48.3141C44.496 49.1357 45.073 50.205 45.073 51.75H47.073ZM44.373 46.65L45.4968 44.9956C43.3079 43.5087 40.5521 42.8364 37.396 42.8001L37.373 44.8L37.3501 46.7999C39.994 46.8303 41.9049 47.3913 43.2493 48.3044L44.373 46.65ZM37.373 44.8H39.373V41.3H37.373H35.373V44.8H37.373ZM37.373 41.3V43.3C40.4703 43.3 43.1771 42.6456 45.2917 41.1231L44.123 39.5L42.9544 37.8769C41.7357 38.7544 39.9424 39.3 37.373 39.3V41.3ZM44.123 39.5L45.2764 41.1339C47.5693 39.5154 48.673 37.1201 48.673 34.25H46.673H44.673C44.673 35.9799 44.0768 37.0846 42.9697 37.8661L44.123 39.5ZM46.673 34.25H48.673C48.673 33.4409 48.5665 32.6537 48.332 31.9035L46.423 32.5L44.5141 33.0965C44.613 33.413 44.673 33.7924 44.673 34.25H46.673ZM46.423 32.5L48.3633 32.0149C48.1394 31.1194 47.6858 30.3343 47.0373 29.6858L45.623 31.1L44.2088 32.5142C44.3603 32.6657 44.44 32.814 44.4828 32.9851L46.423 32.5ZM45.623 31.1L47.0974 29.7485C46.446 29.038 45.6185 28.5749 44.7253 28.2928L44.123 30.2L43.5208 32.1072C43.8942 32.2251 44.0667 32.362 44.1487 32.4514L45.623 31.1ZM44.123 30.2L44.8145 28.3233C43.8864 27.9814 42.8322 27.85 41.723 27.85V29.85V31.85C42.5472 31.85 43.0931 31.9519 43.4316 32.0767L44.123 30.2ZM41.723 29.85V27.85C40.8399 27.85 39.9826 27.9052 39.1528 28.0183L39.423 30L39.6933 31.9817C40.3302 31.8948 41.0062 31.85 41.723 31.85V29.85ZM39.423 30L39.1402 28.0201C38.4232 28.1225 37.7679 28.2259 37.1755 28.3304L37.523 30.3L37.8706 32.2696C38.4116 32.1741 39.0229 32.0775 39.7059 31.9799L39.423 30ZM37.523 30.3L37.111 28.3429C36.4708 28.4777 35.8468 28.6126 35.2392 28.7476L35.673 30.7L36.1069 32.6524C36.6993 32.5207 37.3086 32.389 37.9351 32.2571L37.523 30.3ZM35.673 30.7L37.5846 30.1118L36.5846 26.8618L34.673 27.45L32.7615 28.0382L33.7615 31.2882L35.673 30.7ZM34.673 27.45L35.2753 29.3572C35.8322 29.1813 36.4823 29.0139 37.231 28.858L36.823 26.9L36.4151 24.942C35.5638 25.1194 34.7806 25.3187 34.0708 25.5428L34.673 27.45ZM36.823 26.9L37.2153 28.8612C37.8052 28.7432 38.5421 28.6344 39.4361 28.5386L39.223 26.55L39.01 24.5614C38.0373 24.6656 37.1742 24.7902 36.4308 24.9388L36.823 26.9ZM39.223 26.55L39.5059 28.5299C40.3316 28.4119 41.2525 28.35 42.273 28.35V26.35V24.35C41.0936 24.35 39.9811 24.4214 38.9402 24.5701L39.223 26.55ZM42.273 26.35V28.35C44.5502 28.35 46.1472 28.901 47.2656 29.8053L48.523 28.25L49.7805 26.6947C47.7656 25.0657 45.1959 24.35 42.273 24.35V26.35ZM48.523 28.25L47.302 29.834C48.2506 30.5652 48.923 31.8519 48.923 34.2H50.923H52.923C52.923 31.0815 51.9955 28.4015 49.7441 26.666L48.523 28.25ZM50.923 34.2H48.923C48.923 35.3194 48.7411 36.2052 48.4379 36.9048L50.273 37.7L52.1082 38.4952C52.6717 37.1948 52.923 35.7473 52.923 34.2H50.923ZM50.273 37.7L48.448 36.8819C48.0901 37.6802 47.6665 38.3315 47.19 38.8582L48.673 40.2L50.1561 41.5418C50.9462 40.6685 51.5893 39.6531 52.0981 38.5181L50.273 37.7ZM48.673 40.2L47.1545 38.8984C46.6856 39.4455 46.185 39.8653 45.6556 40.1781L46.673 41.9L47.6905 43.6219C48.6277 43.068 49.4605 42.3545 50.1916 41.5016L48.673 40.2ZM46.673 41.9L45.6808 40.1635C45.0656 40.515 44.5371 40.7538 44.0906 40.9026L44.723 42.8L45.3555 44.6974C46.109 44.4462 46.8805 44.085 47.6653 43.6365L46.673 41.9ZM44.723 42.8H42.723V42.95H44.723H46.723V42.8H44.723ZM44.723 42.95L44.0456 44.8318C44.7368 45.0806 45.4258 45.4165 46.113 45.846L47.173 44.15L48.233 42.454C47.3203 41.8835 46.376 41.4194 45.4005 41.0682L44.723 42.95ZM47.173 44.15L46.1131 45.846C46.7273 46.2299 47.2626 46.7012 47.7251 47.2665L49.273 46L50.821 44.7335C50.0834 43.8321 49.2188 43.0701 48.233 42.454L47.173 44.15ZM49.273 46L47.7594 47.3072C48.2299 47.8521 48.6137 48.4965 48.9031 49.2593L50.773 48.55L52.643 47.8407C52.199 46.6702 51.5828 45.6146 50.7867 44.6928L49.273 46ZM50.773 48.55L48.9115 49.2813C49.1706 49.9408 49.323 50.7522 49.323 51.75H51.323H53.323C53.323 50.3478 53.1088 49.0259 52.6346 47.8187L50.773 48.55ZM51.323 51.75H49.323C49.323 53.4814 48.9988 54.7229 48.4922 55.5979L50.223 56.6L51.9539 57.6021C52.914 55.9437 53.323 53.9519 53.323 51.75H51.323ZM50.223 56.6L48.4621 55.6518C47.8881 56.7178 47.1967 57.5075 46.4058 58.076L47.573 59.7L48.7403 61.324C50.0827 60.3592 51.158 59.0822 51.984 57.5482L50.223 56.6ZM47.573 59.7L46.4058 58.076C45.5578 58.6854 44.6191 59.1099 43.5733 59.3512L44.023 61.3L44.4728 63.2488C46.027 62.8901 47.4549 62.2479 48.7403 61.324L47.573 59.7ZM44.023 61.3L43.5621 59.3538C42.4198 59.6244 41.3926 59.75 40.473 59.75V61.75V63.75C41.7535 63.75 43.093 63.5756 44.484 63.2462L44.023 61.3ZM40.473 61.75V59.75C39.3091 59.75 38.289 59.6579 37.4031 59.4864L37.023 61.45L36.643 63.4136C37.8238 63.6421 39.1036 63.75 40.473 63.75V61.75ZM37.023 61.45L37.3518 59.4772C36.4182 59.3216 35.6487 59.1412 35.0295 58.9441L34.423 60.85L33.8166 62.7559C34.6641 63.0255 35.6279 63.2451 36.6942 63.4228L37.023 61.45ZM34.423 60.85L35.0112 58.9384C34.2282 58.6975 33.5672 58.436 33.0175 58.1611L32.123 59.95L31.2286 61.7389C32.0122 62.1307 32.8846 62.4692 33.8349 62.7616L34.423 60.85ZM32.123 59.95L33.9969 60.6492L35.2469 57.2992L33.373 56.6L31.4992 55.9008L30.2492 59.2508L32.123 59.95Z" fill="black" mask="url(#path-2-outside-1_23_1316)"/>
</svg>
