<svg width="85" height="85" viewBox="0 0 85 85" fill="none" xmlns="http://www.w3.org/2000/svg">
<rect x="2.5" y="2.5" width="80" height="80" rx="5.5" fill="#FFF8F8" stroke="black" stroke-width="5"/>
<mask id="path-2-outside-1_23_1320" maskUnits="userSpaceOnUse" x="26" y="24" width="32" height="40" fill="black">
<rect fill="white" x="26" y="24" width="32" height="40"/>
<path d="M34.0445 48.7C35.2112 48.6667 36.3945 48.6333 37.5945 48.6C38.6279 48.5667 39.7445 48.55 40.9445 48.55C42.1445 48.5167 43.3112 48.5 44.4445 48.5H47.5445V43.25C47.5445 41.45 47.5445 39.85 47.5445 38.45C47.5779 37.05 47.6112 35.8667 47.6445 34.9C47.6779 33.7667 47.7279 32.7667 47.7945 31.9L34.0445 48.7ZM28.9445 49.3L47.5445 26.85H51.5445V48.5H55.0445V52H51.5445V61.75H47.5445V52H29.1945L28.9445 49.3Z"/>
</mask>
<path d="M34.0445 48.7C35.2112 48.6667 36.3945 48.6333 37.5945 48.6C38.6279 48.5667 39.7445 48.55 40.9445 48.55C42.1445 48.5167 43.3112 48.5 44.4445 48.5H47.5445V43.25C47.5445 41.45 47.5445 39.85 47.5445 38.45C47.5779 37.05 47.6112 35.8667 47.6445 34.9C47.6779 33.7667 47.7279 32.7667 47.7945 31.9L34.0445 48.7ZM28.9445 49.3L47.5445 26.85H51.5445V48.5H55.0445V52H51.5445V61.75H47.5445V52H29.1945L28.9445 49.3Z" fill="black"/>
<path d="M34.0445 48.7L32.4968 47.4333L29.7214 50.8243L34.1017 50.6992L34.0445 48.7ZM37.5945 48.6L37.6501 50.5992L37.659 50.599L37.5945 48.6ZM40.9445 48.55V50.55H40.9723L41.0001 50.5492L40.9445 48.55ZM47.5445 48.5V50.5H49.5445V48.5H47.5445ZM47.5445 38.45L45.5451 38.4024L45.5445 38.4262V38.45H47.5445ZM47.6445 34.9L49.6434 34.9689L49.6437 34.9588L47.6445 34.9ZM47.7945 31.9L49.7886 32.0534L50.2766 25.7096L46.2468 30.6333L47.7945 31.9ZM28.9445 49.3L27.4044 48.024L26.8768 48.6609L26.953 49.4844L28.9445 49.3ZM47.5445 26.85V24.85H46.6043L46.0044 25.574L47.5445 26.85ZM51.5445 26.85H53.5445V24.85H51.5445V26.85ZM51.5445 48.5H49.5445V50.5H51.5445V48.5ZM55.0445 48.5H57.0445V46.5H55.0445V48.5ZM55.0445 52V54H57.0445V52H55.0445ZM51.5445 52V50H49.5445V52H51.5445ZM51.5445 61.75V63.75H53.5445V61.75H51.5445ZM47.5445 61.75H45.5445V63.75H47.5445V61.75ZM47.5445 52H49.5445V50H47.5445V52ZM29.1945 52L27.203 52.1844L27.3712 54H29.1945V52ZM34.0445 48.7L34.1017 50.6992C35.2678 50.6659 36.4506 50.6325 37.6501 50.5992L37.5945 48.6L37.539 46.6008C36.3385 46.6341 35.1546 46.6675 33.9874 46.7008L34.0445 48.7ZM37.5945 48.6L37.659 50.599C38.6678 50.5664 39.7627 50.55 40.9445 50.55V48.55V46.55C39.7264 46.55 38.5879 46.5669 37.53 46.601L37.5945 48.6ZM40.9445 48.55L41.0001 50.5492C42.1826 50.5164 43.3308 50.5 44.4445 50.5V48.5V46.5C43.2916 46.5 42.1064 46.517 40.889 46.5508L40.9445 48.55ZM44.4445 48.5V50.5H47.5445V48.5V46.5H44.4445V48.5ZM47.5445 48.5H49.5445V43.25H47.5445H45.5445V48.5H47.5445ZM47.5445 43.25H49.5445C49.5445 43.2465 49.5445 43.243 49.5445 43.2395C49.5445 43.2359 49.5445 43.2324 49.5445 43.2289C49.5445 43.2254 49.5445 43.2219 49.5445 43.2184C49.5445 43.2149 49.5445 43.2114 49.5445 43.2078C49.5445 43.2043 49.5445 43.2008 49.5445 43.1973C49.5445 43.1938 49.5445 43.1903 49.5445 43.1868C49.5445 43.1833 49.5445 43.1798 49.5445 43.1763C49.5445 43.1728 49.5445 43.1693 49.5445 43.1658C49.5445 43.1623 49.5445 43.1588 49.5445 43.1553C49.5445 43.1518 49.5445 43.1483 49.5445 43.1448C49.5445 43.1413 49.5445 43.1378 49.5445 43.1343C49.5445 43.1308 49.5445 43.1273 49.5445 43.1238C49.5445 43.1203 49.5445 43.1168 49.5445 43.1133C49.5445 43.1098 49.5445 43.1063 49.5445 43.1028C49.5445 43.0993 49.5445 43.0958 49.5445 43.0923C49.5445 43.0888 49.5445 43.0853 49.5445 43.0818C49.5445 43.0783 49.5445 43.0749 49.5445 43.0714C49.5445 43.0679 49.5445 43.0644 49.5445 43.0609C49.5445 43.0574 49.5445 43.0539 49.5445 43.0504C49.5445 43.0469 49.5445 43.0435 49.5445 43.04C49.5445 43.0365 49.5445 43.033 49.5445 43.0295C49.5445 43.026 49.5445 43.0226 49.5445 43.0191C49.5445 43.0156 49.5445 43.0121 49.5445 43.0086C49.5445 43.0052 49.5445 43.0017 49.5445 42.9982C49.5445 42.9947 49.5445 42.9912 49.5445 42.9878C49.5445 42.9843 49.5445 42.9808 49.5445 42.9773C49.5445 42.9739 49.5445 42.9704 49.5445 42.9669C49.5445 42.9634 49.5445 42.96 49.5445 42.9565C49.5445 42.953 49.5445 42.9495 49.5445 42.9461C49.5445 42.9426 49.5445 42.9391 49.5445 42.9357C49.5445 42.9322 49.5445 42.9287 49.5445 42.9252C49.5445 42.9218 49.5445 42.9183 49.5445 42.9148C49.5445 42.9114 49.5445 42.9079 49.5445 42.9044C49.5445 42.901 49.5445 42.8975 49.5445 42.8941C49.5445 42.8906 49.5445 42.8871 49.5445 42.8837C49.5445 42.8802 49.5445 42.8767 49.5445 42.8733C49.5445 42.8698 49.5445 42.8664 49.5445 42.8629C49.5445 42.8594 49.5445 42.856 49.5445 42.8525C49.5445 42.8491 49.5445 42.8456 49.5445 42.8422C49.5445 42.8387 49.5445 42.8352 49.5445 42.8318C49.5445 42.8283 49.5445 42.8249 49.5445 42.8214C49.5445 42.818 49.5445 42.8145 49.5445 42.8111C49.5445 42.8076 49.5445 42.8042 49.5445 42.8007C49.5445 42.7973 49.5445 42.7938 49.5445 42.7904C49.5445 42.7869 49.5445 42.7835 49.5445 42.78C49.5445 42.7766 49.5445 42.7731 49.5445 42.7697C49.5445 42.7662 49.5445 42.7628 49.5445 42.7594C49.5445 42.7559 49.5445 42.7525 49.5445 42.749C49.5445 42.7456 49.5445 42.7421 49.5445 42.7387C49.5445 42.7353 49.5445 42.7318 49.5445 42.7284C49.5445 42.7249 49.5445 42.7215 49.5445 42.7181C49.5445 42.7146 49.5445 42.7112 49.5445 42.7078C49.5445 42.7043 49.5445 42.7009 49.5445 42.6974C49.5445 42.694 49.5445 42.6906 49.5445 42.6871C49.5445 42.6837 49.5445 42.6803 49.5445 42.6768C49.5445 42.6734 49.5445 42.67 49.5445 42.6666C49.5445 42.6631 49.5445 42.6597 49.5445 42.6563C49.5445 42.6528 49.5445 42.6494 49.5445 42.646C49.5445 42.6426 49.5445 42.6391 49.5445 42.6357C49.5445 42.6323 49.5445 42.6289 49.5445 42.6254C49.5445 42.622 49.5445 42.6186 49.5445 42.6152C49.5445 42.6117 49.5445 42.6083 49.5445 42.6049C49.5445 42.6015 49.5445 42.598 49.5445 42.5946C49.5445 42.5912 49.5445 42.5878 49.5445 42.5844C49.5445 42.581 49.5445 42.5775 49.5445 42.5741C49.5445 42.5707 49.5445 42.5673 49.5445 42.5639C49.5445 42.5605 49.5445 42.557 49.5445 42.5536C49.5445 42.5502 49.5445 42.5468 49.5445 42.5434C49.5445 42.54 49.5445 42.5366 49.5445 42.5332C49.5445 42.5298 49.5445 42.5263 49.5445 42.5229C49.5445 42.5195 49.5445 42.5161 49.5445 42.5127C49.5445 42.5093 49.5445 42.5059 49.5445 42.5025C49.5445 42.4991 49.5445 42.4957 49.5445 42.4923C49.5445 42.4889 49.5445 42.4855 49.5445 42.4821C49.5445 42.4787 49.5445 42.4753 49.5445 42.4719C49.5445 42.4685 49.5445 42.4651 49.5445 42.4617C49.5445 42.4583 49.5445 42.4549 49.5445 42.4515C49.5445 42.4481 49.5445 42.4447 49.5445 42.4413C49.5445 42.4379 49.5445 42.4345 49.5445 42.4311C49.5445 42.4277 49.5445 42.4243 49.5445 42.4209C49.5445 42.4175 49.5445 42.4141 49.5445 42.4107C49.5445 42.4073 49.5445 42.4039 49.5445 42.4005C49.5445 42.3972 49.5445 42.3938 49.5445 42.3904C49.5445 42.387 49.5445 42.3836 49.5445 42.3802C49.5445 42.3768 49.5445 42.3734 49.5445 42.3701C49.5445 42.3667 49.5445 42.3633 49.5445 42.3599C49.5445 42.3565 49.5445 42.3531 49.5445 42.3497C49.5445 42.3464 49.5445 42.343 49.5445 42.3396C49.5445 42.3362 49.5445 42.3328 49.5445 42.3295C49.5445 42.3261 49.5445 42.3227 49.5445 42.3193C49.5445 42.3159 49.5445 42.3126 49.5445 42.3092C49.5445 42.3058 49.5445 42.3024 49.5445 42.2991C49.5445 42.2957 49.5445 42.2923 49.5445 42.2889C49.5445 42.2856 49.5445 42.2822 49.5445 42.2788C49.5445 42.2754 49.5445 42.2721 49.5445 42.2687C49.5445 42.2653 49.5445 42.262 49.5445 42.2586C49.5445 42.2552 49.5445 42.2519 49.5445 42.2485C49.5445 42.2451 49.5445 42.2418 49.5445 42.2384C49.5445 42.235 49.5445 42.2317 49.5445 42.2283C49.5445 42.2249 49.5445 42.2216 49.5445 42.2182C49.5445 42.2148 49.5445 42.2115 49.5445 42.2081C49.5445 42.2048 49.5445 42.2014 49.5445 42.198C49.5445 42.1947 49.5445 42.1913 49.5445 42.188C49.5445 42.1846 49.5445 42.1812 49.5445 42.1779C49.5445 42.1745 49.5445 42.1712 49.5445 42.1678C49.5445 42.1645 49.5445 42.1611 49.5445 42.1577C49.5445 42.1544 49.5445 42.151 49.5445 42.1477C49.5445 42.1443 49.5445 42.141 49.5445 42.1376C49.5445 42.1343 49.5445 42.1309 49.5445 42.1276C49.5445 42.1242 49.5445 42.1209 49.5445 42.1175C49.5445 42.1142 49.5445 42.1108 49.5445 42.1075C49.5445 42.1042 49.5445 42.1008 49.5445 42.0975C49.5445 42.0941 49.5445 42.0908 49.5445 42.0874C49.5445 42.0841 49.5445 42.0807 49.5445 42.0774C49.5445 42.0741 49.5445 42.0707 49.5445 42.0674C49.5445 42.064 49.5445 42.0607 49.5445 42.0574C49.5445 42.054 49.5445 42.0507 49.5445 42.0473C49.5445 42.044 49.5445 42.0407 49.5445 42.0373C49.5445 42.034 49.5445 42.0307 49.5445 42.0273C49.5445 42.024 49.5445 42.0207 49.5445 42.0173C49.5445 42.014 49.5445 42.0107 49.5445 42.0073C49.5445 42.004 49.5445 42.0007 49.5445 41.9973C49.5445 41.994 49.5445 41.9907 49.5445 41.9874C49.5445 41.984 49.5445 41.9807 49.5445 41.9774C49.5445 41.9741 49.5445 41.9707 49.5445 41.9674C49.5445 41.9641 49.5445 41.9608 49.5445 41.9574C49.5445 41.9541 49.5445 41.9508 49.5445 41.9475C49.5445 41.9441 49.5445 41.9408 49.5445 41.9375C49.5445 41.9342 49.5445 41.9309 49.5445 41.9275C49.5445 41.9242 49.5445 41.9209 49.5445 41.9176C49.5445 41.9143 49.5445 41.911 49.5445 41.9076C49.5445 41.9043 49.5445 41.901 49.5445 41.8977C49.5445 41.8944 49.5445 41.8911 49.5445 41.8878C49.5445 41.8844 49.5445 41.8811 49.5445 41.8778C49.5445 41.8745 49.5445 41.8712 49.5445 41.8679C49.5445 41.8646 49.5445 41.8613 49.5445 41.858C49.5445 41.8547 49.5445 41.8513 49.5445 41.848C49.5445 41.8447 49.5445 41.8414 49.5445 41.8381C49.5445 41.8348 49.5445 41.8315 49.5445 41.8282C49.5445 41.8249 49.5445 41.8216 49.5445 41.8183C49.5445 41.815 49.5445 41.8117 49.5445 41.8084C49.5445 41.8051 49.5445 41.8018 49.5445 41.7985C49.5445 41.7952 49.5445 41.7919 49.5445 41.7886C49.5445 41.7853 49.5445 41.782 49.5445 41.7787C49.5445 41.7754 49.5445 41.7721 49.5445 41.7688C49.5445 41.7655 49.5445 41.7622 49.5445 41.7589C49.5445 41.7557 49.5445 41.7524 49.5445 41.7491C49.5445 41.7458 49.5445 41.7425 49.5445 41.7392C49.5445 41.7359 49.5445 41.7326 49.5445 41.7293C49.5445 41.726 49.5445 41.7228 49.5445 41.7195C49.5445 41.7162 49.5445 41.7129 49.5445 41.7096C49.5445 41.7063 49.5445 41.703 49.5445 41.6998C49.5445 41.6965 49.5445 41.6932 49.5445 41.6899C49.5445 41.6866 49.5445 41.6833 49.5445 41.6801C49.5445 41.6768 49.5445 41.6735 49.5445 41.6702C49.5445 41.6669 49.5445 41.6637 49.5445 41.6604C49.5445 41.6571 49.5445 41.6538 49.5445 41.6506C49.5445 41.6473 49.5445 41.644 49.5445 41.6407C49.5445 41.6375 49.5445 41.6342 49.5445 41.6309C49.5445 41.6276 49.5445 41.6244 49.5445 41.6211C49.5445 41.6178 49.5445 41.6146 49.5445 41.6113C49.5445 41.608 49.5445 41.6047 49.5445 41.6015C49.5445 41.5982 49.5445 41.5949 49.5445 41.5917C49.5445 41.5884 49.5445 41.5851 49.5445 41.5819C49.5445 41.5786 49.5445 41.5753 49.5445 41.5721C49.5445 41.5688 49.5445 41.5656 49.5445 41.5623C49.5445 41.559 49.5445 41.5558 49.5445 41.5525C49.5445 41.5492 49.5445 41.546 49.5445 41.5427C49.5445 41.5395 49.5445 41.5362 49.5445 41.5329C49.5445 41.5297 49.5445 41.5264 49.5445 41.5232C49.5445 41.5199 49.5445 41.5167 49.5445 41.5134C49.5445 41.5102 49.5445 41.5069 49.5445 41.5036C49.5445 41.5004 49.5445 41.4971 49.5445 41.4939C49.5445 41.4906 49.5445 41.4874 49.5445 41.4841C49.5445 41.4809 49.5445 41.4776 49.5445 41.4744C49.5445 41.4711 49.5445 41.4679 49.5445 41.4646C49.5445 41.4614 49.5445 41.4582 49.5445 41.4549C49.5445 41.4517 49.5445 41.4484 49.5445 41.4452C49.5445 41.4419 49.5445 41.4387 49.5445 41.4354C49.5445 41.4322 49.5445 41.429 49.5445 41.4257C49.5445 41.4225 49.5445 41.4192 49.5445 41.416C49.5445 41.4128 49.5445 41.4095 49.5445 41.4063C49.5445 41.403 49.5445 41.3998 49.5445 41.3966C49.5445 41.3933 49.5445 41.3901 49.5445 41.3869C49.5445 41.3836 49.5445 41.3804 49.5445 41.3772C49.5445 41.3739 49.5445 41.3707 49.5445 41.3675C49.5445 41.3642 49.5445 41.361 49.5445 41.3578C49.5445 41.3545 49.5445 41.3513 49.5445 41.3481C49.5445 41.3449 49.5445 41.3416 49.5445 41.3384C49.5445 41.3352 49.5445 41.3319 49.5445 41.3287C49.5445 41.3255 49.5445 41.3223 49.5445 41.319C49.5445 41.3158 49.5445 41.3126 49.5445 41.3094C49.5445 41.3062 49.5445 41.3029 49.5445 41.2997C49.5445 41.2965 49.5445 41.2933 49.5445 41.29C49.5445 41.2868 49.5445 41.2836 49.5445 41.2804C49.5445 41.2772 49.5445 41.274 49.5445 41.2707C49.5445 41.2675 49.5445 41.2643 49.5445 41.2611C49.5445 41.2579 49.5445 41.2547 49.5445 41.2514C49.5445 41.2482 49.5445 41.245 49.5445 41.2418C49.5445 41.2386 49.5445 41.2354 49.5445 41.2322C49.5445 41.229 49.5445 41.2258 49.5445 41.2225C49.5445 41.2193 49.5445 41.2161 49.5445 41.2129C49.5445 41.2097 49.5445 41.2065 49.5445 41.2033C49.5445 41.2001 49.5445 41.1969 49.5445 41.1937C49.5445 41.1905 49.5445 41.1873 49.5445 41.1841C49.5445 41.1809 49.5445 41.1777 49.5445 41.1745C49.5445 41.1713 49.5445 41.1681 49.5445 41.1649C49.5445 41.1617 49.5445 41.1585 49.5445 41.1553C49.5445 41.1521 49.5445 41.1489 49.5445 41.1457C49.5445 41.1425 49.5445 41.1393 49.5445 41.1361C49.5445 41.1329 49.5445 41.1297 49.5445 41.1265C49.5445 41.1233 49.5445 41.1201 49.5445 41.1169C49.5445 41.1137 49.5445 41.1105 49.5445 41.1074C49.5445 41.1042 49.5445 41.101 49.5445 41.0978C49.5445 41.0946 49.5445 41.0914 49.5445 41.0882C49.5445 41.085 49.5445 41.0818 49.5445 41.0787C49.5445 41.0755 49.5445 41.0723 49.5445 41.0691C49.5445 41.0659 49.5445 41.0627 49.5445 41.0596C49.5445 41.0564 49.5445 41.0532 49.5445 41.05C49.5445 41.0468 49.5445 41.0436 49.5445 41.0405C49.5445 41.0373 49.5445 41.0341 49.5445 41.0309C49.5445 41.0278 49.5445 41.0246 49.5445 41.0214C49.5445 41.0182 49.5445 41.015 49.5445 41.0119C49.5445 41.0087 49.5445 41.0055 49.5445 41.0023C49.5445 40.9992 49.5445 40.996 49.5445 40.9928C49.5445 40.9897 49.5445 40.9865 49.5445 40.9833C49.5445 40.9801 49.5445 40.977 49.5445 40.9738C49.5445 40.9706 49.5445 40.9675 49.5445 40.9643C49.5445 40.9611 49.5445 40.958 49.5445 40.9548C49.5445 40.9516 49.5445 40.9485 49.5445 40.9453C49.5445 40.9421 49.5445 40.939 49.5445 40.9358C49.5445 40.9326 49.5445 40.9295 49.5445 40.9263C49.5445 40.9232 49.5445 40.92 49.5445 40.9168C49.5445 40.9137 49.5445 40.9105 49.5445 40.9074C49.5445 40.9042 49.5445 40.901 49.5445 40.8979C49.5445 40.8947 49.5445 40.8916 49.5445 40.8884C49.5445 40.8853 49.5445 40.8821 49.5445 40.879C49.5445 40.8758 49.5445 40.8726 49.5445 40.8695C49.5445 40.8663 49.5445 40.8632 49.5445 40.86C49.5445 40.8569 49.5445 40.8537 49.5445 40.8506C49.5445 40.8474 49.5445 40.8443 49.5445 40.8411C49.5445 40.838 49.5445 40.8348 49.5445 40.8317C49.5445 40.8286 49.5445 40.8254 49.5445 40.8223C49.5445 40.8191 49.5445 40.816 49.5445 40.8128C49.5445 40.8097 49.5445 40.8065 49.5445 40.8034C49.5445 40.8003 49.5445 40.7971 49.5445 40.794C49.5445 40.7908 49.5445 40.7877 49.5445 40.7846C49.5445 40.7814 49.5445 40.7783 49.5445 40.7751C49.5445 40.772 49.5445 40.7689 49.5445 40.7657C49.5445 40.7626 49.5445 40.7595 49.5445 40.7563C49.5445 40.7532 49.5445 40.7501 49.5445 40.7469C49.5445 40.7438 49.5445 40.7407 49.5445 40.7375C49.5445 40.7344 49.5445 40.7313 49.5445 40.7281C49.5445 40.725 49.5445 40.7219 49.5445 40.7188C49.5445 40.7156 49.5445 40.7125 49.5445 40.7094C49.5445 40.7062 49.5445 40.7031 49.5445 40.7C49.5445 40.6969 49.5445 40.6938 49.5445 40.6906C49.5445 40.6875 49.5445 40.6844 49.5445 40.6813C49.5445 40.6781 49.5445 40.675 49.5445 40.6719C49.5445 40.6688 49.5445 40.6657 49.5445 40.6625C49.5445 40.6594 49.5445 40.6563 49.5445 40.6532C49.5445 40.6501 49.5445 40.6469 49.5445 40.6438C49.5445 40.6407 49.5445 40.6376 49.5445 40.6345C49.5445 40.6314 49.5445 40.6283 49.5445 40.6251C49.5445 40.622 49.5445 40.6189 49.5445 40.6158C49.5445 40.6127 49.5445 40.6096 49.5445 40.6065C49.5445 40.6034 49.5445 40.6003 49.5445 40.5972C49.5445 40.594 49.5445 40.5909 49.5445 40.5878C49.5445 40.5847 49.5445 40.5816 49.5445 40.5785C49.5445 40.5754 49.5445 40.5723 49.5445 40.5692C49.5445 40.5661 49.5445 40.563 49.5445 40.5599C49.5445 40.5568 49.5445 40.5537 49.5445 40.5506C49.5445 40.5475 49.5445 40.5444 49.5445 40.5413C49.5445 40.5382 49.5445 40.5351 49.5445 40.532C49.5445 40.5289 49.5445 40.5258 49.5445 40.5227C49.5445 40.5196 49.5445 40.5165 49.5445 40.5134C49.5445 40.5103 49.5445 40.5072 49.5445 40.5041C49.5445 40.501 49.5445 40.4979 49.5445 40.4949C49.5445 40.4918 49.5445 40.4887 49.5445 40.4856C49.5445 40.4825 49.5445 40.4794 49.5445 40.4763C49.5445 40.4732 49.5445 40.4701 49.5445 40.4671C49.5445 40.464 49.5445 40.4609 49.5445 40.4578C49.5445 40.4547 49.5445 40.4516 49.5445 40.4485C49.5445 40.4455 49.5445 40.4424 49.5445 40.4393C49.5445 40.4362 49.5445 40.4331 49.5445 40.43C49.5445 40.427 49.5445 40.4239 49.5445 40.4208C49.5445 40.4177 49.5445 40.4147 49.5445 40.4116C49.5445 40.4085 49.5445 40.4054 49.5445 40.4023C49.5445 40.3993 49.5445 40.3962 49.5445 40.3931C49.5445 40.39 49.5445 40.387 49.5445 40.3839C49.5445 40.3808 49.5445 40.3777 49.5445 40.3747C49.5445 40.3716 49.5445 40.3685 49.5445 40.3655C49.5445 40.3624 49.5445 40.3593 49.5445 40.3563C49.5445 40.3532 49.5445 40.3501 49.5445 40.3471C49.5445 40.344 49.5445 40.3409 49.5445 40.3379C49.5445 40.3348 49.5445 40.3317 49.5445 40.3287C49.5445 40.3256 49.5445 40.3225 49.5445 40.3195C49.5445 40.3164 49.5445 40.3133 49.5445 40.3103C49.5445 40.3072 49.5445 40.3042 49.5445 40.3011C49.5445 40.298 49.5445 40.295 49.5445 40.2919C49.5445 40.2889 49.5445 40.2858 49.5445 40.2828C49.5445 40.2797 49.5445 40.2766 49.5445 40.2736C49.5445 40.2705 49.5445 40.2675 49.5445 40.2644C49.5445 40.2614 49.5445 40.2583 49.5445 40.2553C49.5445 40.2522 49.5445 40.2492 49.5445 40.2461C49.5445 40.2431 49.5445 40.24 49.5445 40.237C49.5445 40.2339 49.5445 40.2309 49.5445 40.2278C49.5445 40.2248 49.5445 40.2217 49.5445 40.2187C49.5445 40.2156 49.5445 40.2126 49.5445 40.2096C49.5445 40.2065 49.5445 40.2035 49.5445 40.2004C49.5445 40.1974 49.5445 40.1943 49.5445 40.1913C49.5445 40.1883 49.5445 40.1852 49.5445 40.1822C49.5445 40.1791 49.5445 40.1761 49.5445 40.1731C49.5445 40.17 49.5445 40.167 49.5445 40.1639C49.5445 40.1609 49.5445 40.1579 49.5445 40.1548C49.5445 40.1518 49.5445 40.1488 49.5445 40.1457C49.5445 40.1427 49.5445 40.1397 49.5445 40.1366C49.5445 40.1336 49.5445 40.1306 49.5445 40.1275C49.5445 40.1245 49.5445 40.1215 49.5445 40.1185C49.5445 40.1154 49.5445 40.1124 49.5445 40.1094C49.5445 40.1063 49.5445 40.1033 49.5445 40.1003C49.5445 40.0973 49.5445 40.0942 49.5445 40.0912C49.5445 40.0882 49.5445 40.0852 49.5445 40.0821C49.5445 40.0791 49.5445 40.0761 49.5445 40.0731C49.5445 40.0701 49.5445 40.067 49.5445 40.064C49.5445 40.061 49.5445 40.058 49.5445 40.055C49.5445 40.0519 49.5445 40.0489 49.5445 40.0459C49.5445 40.0429 49.5445 40.0399 49.5445 40.0369C49.5445 40.0338 49.5445 40.0308 49.5445 40.0278C49.5445 40.0248 49.5445 40.0218 49.5445 40.0188C49.5445 40.0158 49.5445 40.0128 49.5445 40.0097C49.5445 40.0067 49.5445 40.0037 49.5445 40.0007C49.5445 39.9977 49.5445 39.9947 49.5445 39.9917C49.5445 39.9887 49.5445 39.9857 49.5445 39.9827C49.5445 39.9797 49.5445 39.9767 49.5445 39.9737C49.5445 39.9707 49.5445 39.9676 49.5445 39.9646C49.5445 39.9616 49.5445 39.9586 49.5445 39.9556C49.5445 39.9526 49.5445 39.9496 49.5445 39.9466C49.5445 39.9436 49.5445 39.9406 49.5445 39.9376C49.5445 39.9346 49.5445 39.9316 49.5445 39.9286C49.5445 39.9257 49.5445 39.9227 49.5445 39.9197C49.5445 39.9167 49.5445 39.9137 49.5445 39.9107C49.5445 39.9077 49.5445 39.9047 49.5445 39.9017C49.5445 39.8987 49.5445 39.8957 49.5445 39.8927C49.5445 39.8897 49.5445 39.8867 49.5445 39.8838C49.5445 39.8808 49.5445 39.8778 49.5445 39.8748C49.5445 39.8718 49.5445 39.8688 49.5445 39.8658C49.5445 39.8628 49.5445 39.8599 49.5445 39.8569C49.5445 39.8539 49.5445 39.8509 49.5445 39.8479C49.5445 39.8449 49.5445 39.842 49.5445 39.839C49.5445 39.836 49.5445 39.833 49.5445 39.83C49.5445 39.8271 49.5445 39.8241 49.5445 39.8211C49.5445 39.8181 49.5445 39.8151 49.5445 39.8122C49.5445 39.8092 49.5445 39.8062 49.5445 39.8032C49.5445 39.8003 49.5445 39.7973 49.5445 39.7943C49.5445 39.7913 49.5445 39.7884 49.5445 39.7854C49.5445 39.7824 49.5445 39.7794 49.5445 39.7765C49.5445 39.7735 49.5445 39.7705 49.5445 39.7676C49.5445 39.7646 49.5445 39.7616 49.5445 39.7587C49.5445 39.7557 49.5445 39.7527 49.5445 39.7498C49.5445 39.7468 49.5445 39.7438 49.5445 39.7409C49.5445 39.7379 49.5445 39.7349 49.5445 39.732C49.5445 39.729 49.5445 39.726 49.5445 39.7231C49.5445 39.7201 49.5445 39.7172 49.5445 39.7142C49.5445 39.7112 49.5445 39.7083 49.5445 39.7053C49.5445 39.7024 49.5445 39.6994 49.5445 39.6964C49.5445 39.6935 49.5445 39.6905 49.5445 39.6876C49.5445 39.6846 49.5445 39.6817 49.5445 39.6787C49.5445 39.6758 49.5445 39.6728 49.5445 39.6698C49.5445 39.6669 49.5445 39.6639 49.5445 39.661C49.5445 39.658 49.5445 39.6551 49.5445 39.6521C49.5445 39.6492 49.5445 39.6462 49.5445 39.6433C49.5445 39.6403 49.5445 39.6374 49.5445 39.6345C49.5445 39.6315 49.5445 39.6286 49.5445 39.6256C49.5445 39.6227 49.5445 39.6197 49.5445 39.6168C49.5445 39.6138 49.5445 39.6109 49.5445 39.608C49.5445 39.605 49.5445 39.6021 49.5445 39.5991C49.5445 39.5962 49.5445 39.5933 49.5445 39.5903C49.5445 39.5874 49.5445 39.5844 49.5445 39.5815C49.5445 39.5786 49.5445 39.5756 49.5445 39.5727C49.5445 39.5698 49.5445 39.5668 49.5445 39.5639C49.5445 39.561 49.5445 39.558 49.5445 39.5551C49.5445 39.5522 49.5445 39.5492 49.5445 39.5463C49.5445 39.5434 49.5445 39.5404 49.5445 39.5375C49.5445 39.5346 49.5445 39.5316 49.5445 39.5287C49.5445 39.5258 49.5445 39.5229 49.5445 39.5199C49.5445 39.517 49.5445 39.5141 49.5445 39.5112C49.5445 39.5082 49.5445 39.5053 49.5445 39.5024C49.5445 39.4995 49.5445 39.4965 49.5445 39.4936C49.5445 39.4907 49.5445 39.4878 49.5445 39.4848C49.5445 39.4819 49.5445 39.479 49.5445 39.4761C49.5445 39.4732 49.5445 39.4703 49.5445 39.4673C49.5445 39.4644 49.5445 39.4615 49.5445 39.4586C49.5445 39.4557 49.5445 39.4528 49.5445 39.4498C49.5445 39.4469 49.5445 39.444 49.5445 39.4411C49.5445 39.4382 49.5445 39.4353 49.5445 39.4324C49.5445 39.4294 49.5445 39.4265 49.5445 39.4236C49.5445 39.4207 49.5445 39.4178 49.5445 39.4149C49.5445 39.412 49.5445 39.4091 49.5445 39.4062C49.5445 39.4033 49.5445 39.4004 49.5445 39.3975C49.5445 39.3946 49.5445 39.3916 49.5445 39.3887C49.5445 39.3858 49.5445 39.3829 49.5445 39.38C49.5445 39.3771 49.5445 39.3742 49.5445 39.3713C49.5445 39.3684 49.5445 39.3655 49.5445 39.3626C49.5445 39.3597 49.5445 39.3568 49.5445 39.3539C49.5445 39.351 49.5445 39.3481 49.5445 39.3452C49.5445 39.3424 49.5445 39.3395 49.5445 39.3366C49.5445 39.3337 49.5445 39.3308 49.5445 39.3279C49.5445 39.325 49.5445 39.3221 49.5445 39.3192C49.5445 39.3163 49.5445 39.3134 49.5445 39.3105C49.5445 39.3076 49.5445 39.3048 49.5445 39.3019C49.5445 39.299 49.5445 39.2961 49.5445 39.2932C49.5445 39.2903 49.5445 39.2874 49.5445 39.2845C49.5445 39.2817 49.5445 39.2788 49.5445 39.2759C49.5445 39.273 49.5445 39.2701 49.5445 39.2672C49.5445 39.2644 49.5445 39.2615 49.5445 39.2586C49.5445 39.2557 49.5445 39.2528 49.5445 39.25C49.5445 39.2471 49.5445 39.2442 49.5445 39.2413C49.5445 39.2384 49.5445 39.2356 49.5445 39.2327C49.5445 39.2298 49.5445 39.2269 49.5445 39.2241C49.5445 39.2212 49.5445 39.2183 49.5445 39.2154C49.5445 39.2126 49.5445 39.2097 49.5445 39.2068C49.5445 39.2039 49.5445 39.2011 49.5445 39.1982C49.5445 39.1953 49.5445 39.1925 49.5445 39.1896C49.5445 39.1867 49.5445 39.1839 49.5445 39.181C49.5445 39.1781 49.5445 39.1753 49.5445 39.1724C49.5445 39.1695 49.5445 39.1667 49.5445 39.1638C49.5445 39.1609 49.5445 39.1581 49.5445 39.1552C49.5445 39.1523 49.5445 39.1495 49.5445 39.1466C49.5445 39.1438 49.5445 39.1409 49.5445 39.138C49.5445 39.1352 49.5445 39.1323 49.5445 39.1295C49.5445 39.1266 49.5445 39.1238 49.5445 39.1209C49.5445 39.118 49.5445 39.1152 49.5445 39.1123C49.5445 39.1095 49.5445 39.1066 49.5445 39.1038C49.5445 39.1009 49.5445 39.0981 49.5445 39.0952C49.5445 39.0924 49.5445 39.0895 49.5445 39.0867C49.5445 39.0838 49.5445 39.081 49.5445 39.0781C49.5445 39.0753 49.5445 39.0724 49.5445 39.0696C49.5445 39.0667 49.5445 39.0639 49.5445 39.061C49.5445 39.0582 49.5445 39.0553 49.5445 39.0525C49.5445 39.0496 49.5445 39.0468 49.5445 39.044C49.5445 39.0411 49.5445 39.0383 49.5445 39.0354C49.5445 39.0326 49.5445 39.0298 49.5445 39.0269C49.5445 39.0241 49.5445 39.0212 49.5445 39.0184C49.5445 39.0156 49.5445 39.0127 49.5445 39.0099C49.5445 39.007 49.5445 39.0042 49.5445 39.0014C49.5445 38.9985 49.5445 38.9957 49.5445 38.9929C49.5445 38.99 49.5445 38.9872 49.5445 38.9844C49.5445 38.9815 49.5445 38.9787 49.5445 38.9759C49.5445 38.973 49.5445 38.9702 49.5445 38.9674C49.5445 38.9646 49.5445 38.9617 49.5445 38.9589C49.5445 38.9561 49.5445 38.9533 49.5445 38.9504C49.5445 38.9476 49.5445 38.9448 49.5445 38.9419C49.5445 38.9391 49.5445 38.9363 49.5445 38.9335C49.5445 38.9307 49.5445 38.9278 49.5445 38.925C49.5445 38.9222 49.5445 38.9194 49.5445 38.9166C49.5445 38.9137 49.5445 38.9109 49.5445 38.9081C49.5445 38.9053 49.5445 38.9025 49.5445 38.8996C49.5445 38.8968 49.5445 38.894 49.5445 38.8912C49.5445 38.8884 49.5445 38.8856 49.5445 38.8827C49.5445 38.8799 49.5445 38.8771 49.5445 38.8743C49.5445 38.8715 49.5445 38.8687 49.5445 38.8659C49.5445 38.8631 49.5445 38.8603 49.5445 38.8574C49.5445 38.8546 49.5445 38.8518 49.5445 38.849C49.5445 38.8462 49.5445 38.8434 49.5445 38.8406C49.5445 38.8378 49.5445 38.835 49.5445 38.8322C49.5445 38.8294 49.5445 38.8266 49.5445 38.8238C49.5445 38.821 49.5445 38.8182 49.5445 38.8154C49.5445 38.8126 49.5445 38.8098 49.5445 38.807C49.5445 38.8042 49.5445 38.8014 49.5445 38.7986C49.5445 38.7958 49.5445 38.793 49.5445 38.7902C49.5445 38.7874 49.5445 38.7846 49.5445 38.7818C49.5445 38.779 49.5445 38.7762 49.5445 38.7734C49.5445 38.7706 49.5445 38.7678 49.5445 38.765C49.5445 38.7622 49.5445 38.7594 49.5445 38.7566C49.5445 38.7539 49.5445 38.7511 49.5445 38.7483C49.5445 38.7455 49.5445 38.7427 49.5445 38.7399C49.5445 38.7371 49.5445 38.7343 49.5445 38.7316C49.5445 38.7288 49.5445 38.726 49.5445 38.7232C49.5445 38.7204 49.5445 38.7176 49.5445 38.7148C49.5445 38.7121 49.5445 38.7093 49.5445 38.7065C49.5445 38.7037 49.5445 38.7009 49.5445 38.6982C49.5445 38.6954 49.5445 38.6926 49.5445 38.6898C49.5445 38.687 49.5445 38.6843 49.5445 38.6815C49.5445 38.6787 49.5445 38.6759 49.5445 38.6732C49.5445 38.6704 49.5445 38.6676 49.5445 38.6648C49.5445 38.6621 49.5445 38.6593 49.5445 38.6565C49.5445 38.6537 49.5445 38.651 49.5445 38.6482C49.5445 38.6454 49.5445 38.6427 49.5445 38.6399C49.5445 38.6371 49.5445 38.6343 49.5445 38.6316C49.5445 38.6288 49.5445 38.626 49.5445 38.6233C49.5445 38.6205 49.5445 38.6177 49.5445 38.615C49.5445 38.6122 49.5445 38.6094 49.5445 38.6067C49.5445 38.6039 49.5445 38.6012 49.5445 38.5984C49.5445 38.5956 49.5445 38.5929 49.5445 38.5901C49.5445 38.5874 49.5445 38.5846 49.5445 38.5818C49.5445 38.5791 49.5445 38.5763 49.5445 38.5736C49.5445 38.5708 49.5445 38.568 49.5445 38.5653C49.5445 38.5625 49.5445 38.5598 49.5445 38.557C49.5445 38.5543 49.5445 38.5515 49.5445 38.5488C49.5445 38.546 49.5445 38.5433 49.5445 38.5405C49.5445 38.5378 49.5445 38.535 49.5445 38.5323C49.5445 38.5295 49.5445 38.5268 49.5445 38.524C49.5445 38.5213 49.5445 38.5185 49.5445 38.5158C49.5445 38.513 49.5445 38.5103 49.5445 38.5075C49.5445 38.5048 49.5445 38.502 49.5445 38.4993C49.5445 38.4966 49.5445 38.4938 49.5445 38.4911C49.5445 38.4883 49.5445 38.4856 49.5445 38.4828C49.5445 38.4801 49.5445 38.4774 49.5445 38.4746C49.5445 38.4719 49.5445 38.4692 49.5445 38.4664C49.5445 38.4637 49.5445 38.4609 49.5445 38.4582C49.5445 38.4555 49.5445 38.4527 49.5445 38.45H47.5445H45.5445C45.5445 38.4527 45.5445 38.4555 45.5445 38.4582C45.5445 38.4609 45.5445 38.4637 45.5445 38.4664C45.5445 38.4692 45.5445 38.4719 45.5445 38.4746C45.5445 38.4774 45.5445 38.4801 45.5445 38.4828C45.5445 38.4856 45.5445 38.4883 45.5445 38.4911C45.5445 38.4938 45.5445 38.4966 45.5445 38.4993C45.5445 38.502 45.5445 38.5048 45.5445 38.5075C45.5445 38.5103 45.5445 38.513 45.5445 38.5158C45.5445 38.5185 45.5445 38.5213 45.5445 38.524C45.5445 38.5268 45.5445 38.5295 45.5445 38.5323C45.5445 38.535 45.5445 38.5378 45.5445 38.5405C45.5445 38.5433 45.5445 38.546 45.5445 38.5488C45.5445 38.5515 45.5445 38.5543 45.5445 38.557C45.5445 38.5598 45.5445 38.5625 45.5445 38.5653C45.5445 38.568 45.5445 38.5708 45.5445 38.5736C45.5445 38.5763 45.5445 38.5791 45.5445 38.5818C45.5445 38.5846 45.5445 38.5874 45.5445 38.5901C45.5445 38.5929 45.5445 38.5956 45.5445 38.5984C45.5445 38.6012 45.5445 38.6039 45.5445 38.6067C45.5445 38.6094 45.5445 38.6122 45.5445 38.615C45.5445 38.6177 45.5445 38.6205 45.5445 38.6233C45.5445 38.626 45.5445 38.6288 45.5445 38.6316C45.5445 38.6343 45.5445 38.6371 45.5445 38.6399C45.5445 38.6427 45.5445 38.6454 45.5445 38.6482C45.5445 38.651 45.5445 38.6537 45.5445 38.6565C45.5445 38.6593 45.5445 38.6621 45.5445 38.6648C45.5445 38.6676 45.5445 38.6704 45.5445 38.6732C45.5445 38.6759 45.5445 38.6787 45.5445 38.6815C45.5445 38.6843 45.5445 38.687 45.5445 38.6898C45.5445 38.6926 45.5445 38.6954 45.5445 38.6982C45.5445 38.7009 45.5445 38.7037 45.5445 38.7065C45.5445 38.7093 45.5445 38.7121 45.5445 38.7148C45.5445 38.7176 45.5445 38.7204 45.5445 38.7232C45.5445 38.726 45.5445 38.7288 45.5445 38.7316C45.5445 38.7343 45.5445 38.7371 45.5445 38.7399C45.5445 38.7427 45.5445 38.7455 45.5445 38.7483C45.5445 38.7511 45.5445 38.7539 45.5445 38.7566C45.5445 38.7594 45.5445 38.7622 45.5445 38.765C45.5445 38.7678 45.5445 38.7706 45.5445 38.7734C45.5445 38.7762 45.5445 38.779 45.5445 38.7818C45.5445 38.7846 45.5445 38.7874 45.5445 38.7902C45.5445 38.793 45.5445 38.7958 45.5445 38.7986C45.5445 38.8014 45.5445 38.8042 45.5445 38.807C45.5445 38.8098 45.5445 38.8126 45.5445 38.8154C45.5445 38.8182 45.5445 38.821 45.5445 38.8238C45.5445 38.8266 45.5445 38.8294 45.5445 38.8322C45.5445 38.835 45.5445 38.8378 45.5445 38.8406C45.5445 38.8434 45.5445 38.8462 45.5445 38.849C45.5445 38.8518 45.5445 38.8546 45.5445 38.8574C45.5445 38.8603 45.5445 38.8631 45.5445 38.8659C45.5445 38.8687 45.5445 38.8715 45.5445 38.8743C45.5445 38.8771 45.5445 38.8799 45.5445 38.8827C45.5445 38.8856 45.5445 38.8884 45.5445 38.8912C45.5445 38.894 45.5445 38.8968 45.5445 38.8996C45.5445 38.9025 45.5445 38.9053 45.5445 38.9081C45.5445 38.9109 45.5445 38.9137 45.5445 38.9166C45.5445 38.9194 45.5445 38.9222 45.5445 38.925C45.5445 38.9278 45.5445 38.9307 45.5445 38.9335C45.5445 38.9363 45.5445 38.9391 45.5445 38.9419C45.5445 38.9448 45.5445 38.9476 45.5445 38.9504C45.5445 38.9533 45.5445 38.9561 45.5445 38.9589C45.5445 38.9617 45.5445 38.9646 45.5445 38.9674C45.5445 38.9702 45.5445 38.973 45.5445 38.9759C45.5445 38.9787 45.5445 38.9815 45.5445 38.9844C45.5445 38.9872 45.5445 38.99 45.5445 38.9929C45.5445 38.9957 45.5445 38.9985 45.5445 39.0014C45.5445 39.0042 45.5445 39.007 45.5445 39.0099C45.5445 39.0127 45.5445 39.0156 45.5445 39.0184C45.5445 39.0212 45.5445 39.0241 45.5445 39.0269C45.5445 39.0298 45.5445 39.0326 45.5445 39.0354C45.5445 39.0383 45.5445 39.0411 45.5445 39.044C45.5445 39.0468 45.5445 39.0496 45.5445 39.0525C45.5445 39.0553 45.5445 39.0582 45.5445 39.061C45.5445 39.0639 45.5445 39.0667 45.5445 39.0696C45.5445 39.0724 45.5445 39.0753 45.5445 39.0781C45.5445 39.081 45.5445 39.0838 45.5445 39.0867C45.5445 39.0895 45.5445 39.0924 45.5445 39.0952C45.5445 39.0981 45.5445 39.1009 45.5445 39.1038C45.5445 39.1066 45.5445 39.1095 45.5445 39.1123C45.5445 39.1152 45.5445 39.118 45.5445 39.1209C45.5445 39.1238 45.5445 39.1266 45.5445 39.1295C45.5445 39.1323 45.5445 39.1352 45.5445 39.138C45.5445 39.1409 45.5445 39.1438 45.5445 39.1466C45.5445 39.1495 45.5445 39.1523 45.5445 39.1552C45.5445 39.1581 45.5445 39.1609 45.5445 39.1638C45.5445 39.1667 45.5445 39.1695 45.5445 39.1724C45.5445 39.1753 45.5445 39.1781 45.5445 39.181C45.5445 39.1839 45.5445 39.1867 45.5445 39.1896C45.5445 39.1925 45.5445 39.1953 45.5445 39.1982C45.5445 39.2011 45.5445 39.2039 45.5445 39.2068C45.5445 39.2097 45.5445 39.2126 45.5445 39.2154C45.5445 39.2183 45.5445 39.2212 45.5445 39.2241C45.5445 39.2269 45.5445 39.2298 45.5445 39.2327C45.5445 39.2356 45.5445 39.2384 45.5445 39.2413C45.5445 39.2442 45.5445 39.2471 45.5445 39.25C45.5445 39.2528 45.5445 39.2557 45.5445 39.2586C45.5445 39.2615 45.5445 39.2644 45.5445 39.2672C45.5445 39.2701 45.5445 39.273 45.5445 39.2759C45.5445 39.2788 45.5445 39.2817 45.5445 39.2845C45.5445 39.2874 45.5445 39.2903 45.5445 39.2932C45.5445 39.2961 45.5445 39.299 45.5445 39.3019C45.5445 39.3048 45.5445 39.3076 45.5445 39.3105C45.5445 39.3134 45.5445 39.3163 45.5445 39.3192C45.5445 39.3221 45.5445 39.325 45.5445 39.3279C45.5445 39.3308 45.5445 39.3337 45.5445 39.3366C45.5445 39.3395 45.5445 39.3424 45.5445 39.3452C45.5445 39.3481 45.5445 39.351 45.5445 39.3539C45.5445 39.3568 45.5445 39.3597 45.5445 39.3626C45.5445 39.3655 45.5445 39.3684 45.5445 39.3713C45.5445 39.3742 45.5445 39.3771 45.5445 39.38C45.5445 39.3829 45.5445 39.3858 45.5445 39.3887C45.5445 39.3916 45.5445 39.3946 45.5445 39.3975C45.5445 39.4004 45.5445 39.4033 45.5445 39.4062C45.5445 39.4091 45.5445 39.412 45.5445 39.4149C45.5445 39.4178 45.5445 39.4207 45.5445 39.4236C45.5445 39.4265 45.5445 39.4294 45.5445 39.4324C45.5445 39.4353 45.5445 39.4382 45.5445 39.4411C45.5445 39.444 45.5445 39.4469 45.5445 39.4498C45.5445 39.4528 45.5445 39.4557 45.5445 39.4586C45.5445 39.4615 45.5445 39.4644 45.5445 39.4673C45.5445 39.4703 45.5445 39.4732 45.5445 39.4761C45.5445 39.479 45.5445 39.4819 45.5445 39.4848C45.5445 39.4878 45.5445 39.4907 45.5445 39.4936C45.5445 39.4965 45.5445 39.4995 45.5445 39.5024C45.5445 39.5053 45.5445 39.5082 45.5445 39.5112C45.5445 39.5141 45.5445 39.517 45.5445 39.5199C45.5445 39.5229 45.5445 39.5258 45.5445 39.5287C45.5445 39.5316 45.5445 39.5346 45.5445 39.5375C45.5445 39.5404 45.5445 39.5434 45.5445 39.5463C45.5445 39.5492 45.5445 39.5522 45.5445 39.5551C45.5445 39.558 45.5445 39.561 45.5445 39.5639C45.5445 39.5668 45.5445 39.5698 45.5445 39.5727C45.5445 39.5756 45.5445 39.5786 45.5445 39.5815C45.5445 39.5844 45.5445 39.5874 45.5445 39.5903C45.5445 39.5933 45.5445 39.5962 45.5445 39.5991C45.5445 39.6021 45.5445 39.605 45.5445 39.608C45.5445 39.6109 45.5445 39.6138 45.5445 39.6168C45.5445 39.6197 45.5445 39.6227 45.5445 39.6256C45.5445 39.6286 45.5445 39.6315 45.5445 39.6345C45.5445 39.6374 45.5445 39.6403 45.5445 39.6433C45.5445 39.6462 45.5445 39.6492 45.5445 39.6521C45.5445 39.6551 45.5445 39.658 45.5445 39.661C45.5445 39.6639 45.5445 39.6669 45.5445 39.6698C45.5445 39.6728 45.5445 39.6758 45.5445 39.6787C45.5445 39.6817 45.5445 39.6846 45.5445 39.6876C45.5445 39.6905 45.5445 39.6935 45.5445 39.6964C45.5445 39.6994 45.5445 39.7024 45.5445 39.7053C45.5445 39.7083 45.5445 39.7112 45.5445 39.7142C45.5445 39.7172 45.5445 39.7201 45.5445 39.7231C45.5445 39.726 45.5445 39.729 45.5445 39.732C45.5445 39.7349 45.5445 39.7379 45.5445 39.7409C45.5445 39.7438 45.5445 39.7468 45.5445 39.7498C45.5445 39.7527 45.5445 39.7557 45.5445 39.7587C45.5445 39.7616 45.5445 39.7646 45.5445 39.7676C45.5445 39.7705 45.5445 39.7735 45.5445 39.7765C45.5445 39.7794 45.5445 39.7824 45.5445 39.7854C45.5445 39.7884 45.5445 39.7913 45.5445 39.7943C45.5445 39.7973 45.5445 39.8003 45.5445 39.8032C45.5445 39.8062 45.5445 39.8092 45.5445 39.8122C45.5445 39.8151 45.5445 39.8181 45.5445 39.8211C45.5445 39.8241 45.5445 39.8271 45.5445 39.83C45.5445 39.833 45.5445 39.836 45.5445 39.839C45.5445 39.842 45.5445 39.8449 45.5445 39.8479C45.5445 39.8509 45.5445 39.8539 45.5445 39.8569C45.5445 39.8599 45.5445 39.8628 45.5445 39.8658C45.5445 39.8688 45.5445 39.8718 45.5445 39.8748C45.5445 39.8778 45.5445 39.8808 45.5445 39.8838C45.5445 39.8867 45.5445 39.8897 45.5445 39.8927C45.5445 39.8957 45.5445 39.8987 45.5445 39.9017C45.5445 39.9047 45.5445 39.9077 45.5445 39.9107C45.5445 39.9137 45.5445 39.9167 45.5445 39.9197C45.5445 39.9227 45.5445 39.9257 45.5445 39.9286C45.5445 39.9316 45.5445 39.9346 45.5445 39.9376C45.5445 39.9406 45.5445 39.9436 45.5445 39.9466C45.5445 39.9496 45.5445 39.9526 45.5445 39.9556C45.5445 39.9586 45.5445 39.9616 45.5445 39.9646C45.5445 39.9676 45.5445 39.9707 45.5445 39.9737C45.5445 39.9767 45.5445 39.9797 45.5445 39.9827C45.5445 39.9857 45.5445 39.9887 45.5445 39.9917C45.5445 39.9947 45.5445 39.9977 45.5445 40.0007C45.5445 40.0037 45.5445 40.0067 45.5445 40.0097C45.5445 40.0128 45.5445 40.0158 45.5445 40.0188C45.5445 40.0218 45.5445 40.0248 45.5445 40.0278C45.5445 40.0308 45.5445 40.0338 45.5445 40.0369C45.5445 40.0399 45.5445 40.0429 45.5445 40.0459C45.5445 40.0489 45.5445 40.0519 45.5445 40.055C45.5445 40.058 45.5445 40.061 45.5445 40.064C45.5445 40.067 45.5445 40.0701 45.5445 40.0731C45.5445 40.0761 45.5445 40.0791 45.5445 40.0821C45.5445 40.0852 45.5445 40.0882 45.5445 40.0912C45.5445 40.0942 45.5445 40.0973 45.5445 40.1003C45.5445 40.1033 45.5445 40.1063 45.5445 40.1094C45.5445 40.1124 45.5445 40.1154 45.5445 40.1185C45.5445 40.1215 45.5445 40.1245 45.5445 40.1275C45.5445 40.1306 45.5445 40.1336 45.5445 40.1366C45.5445 40.1397 45.5445 40.1427 45.5445 40.1457C45.5445 40.1488 45.5445 40.1518 45.5445 40.1548C45.5445 40.1579 45.5445 40.1609 45.5445 40.1639C45.5445 40.167 45.5445 40.17 45.5445 40.1731C45.5445 40.1761 45.5445 40.1791 45.5445 40.1822C45.5445 40.1852 45.5445 40.1883 45.5445 40.1913C45.5445 40.1943 45.5445 40.1974 45.5445 40.2004C45.5445 40.2035 45.5445 40.2065 45.5445 40.2096C45.5445 40.2126 45.5445 40.2156 45.5445 40.2187C45.5445 40.2217 45.5445 40.2248 45.5445 40.2278C45.5445 40.2309 45.5445 40.2339 45.5445 40.237C45.5445 40.24 45.5445 40.2431 45.5445 40.2461C45.5445 40.2492 45.5445 40.2522 45.5445 40.2553C45.5445 40.2583 45.5445 40.2614 45.5445 40.2644C45.5445 40.2675 45.5445 40.2705 45.5445 40.2736C45.5445 40.2766 45.5445 40.2797 45.5445 40.2828C45.5445 40.2858 45.5445 40.2889 45.5445 40.2919C45.5445 40.295 45.5445 40.298 45.5445 40.3011C45.5445 40.3042 45.5445 40.3072 45.5445 40.3103C45.5445 40.3133 45.5445 40.3164 45.5445 40.3195C45.5445 40.3225 45.5445 40.3256 45.5445 40.3287C45.5445 40.3317 45.5445 40.3348 45.5445 40.3379C45.5445 40.3409 45.5445 40.344 45.5445 40.3471C45.5445 40.3501 45.5445 40.3532 45.5445 40.3563C45.5445 40.3593 45.5445 40.3624 45.5445 40.3655C45.5445 40.3685 45.5445 40.3716 45.5445 40.3747C45.5445 40.3777 45.5445 40.3808 45.5445 40.3839C45.5445 40.387 45.5445 40.39 45.5445 40.3931C45.5445 40.3962 45.5445 40.3993 45.5445 40.4023C45.5445 40.4054 45.5445 40.4085 45.5445 40.4116C45.5445 40.4147 45.5445 40.4177 45.5445 40.4208C45.5445 40.4239 45.5445 40.427 45.5445 40.43C45.5445 40.4331 45.5445 40.4362 45.5445 40.4393C45.5445 40.4424 45.5445 40.4455 45.5445 40.4485C45.5445 40.4516 45.5445 40.4547 45.5445 40.4578C45.5445 40.4609 45.5445 40.464 45.5445 40.4671C45.5445 40.4701 45.5445 40.4732 45.5445 40.4763C45.5445 40.4794 45.5445 40.4825 45.5445 40.4856C45.5445 40.4887 45.5445 40.4918 45.5445 40.4949C45.5445 40.4979 45.5445 40.501 45.5445 40.5041C45.5445 40.5072 45.5445 40.5103 45.5445 40.5134C45.5445 40.5165 45.5445 40.5196 45.5445 40.5227C45.5445 40.5258 45.5445 40.5289 45.5445 40.532C45.5445 40.5351 45.5445 40.5382 45.5445 40.5413C45.5445 40.5444 45.5445 40.5475 45.5445 40.5506C45.5445 40.5537 45.5445 40.5568 45.5445 40.5599C45.5445 40.563 45.5445 40.5661 45.5445 40.5692C45.5445 40.5723 45.5445 40.5754 45.5445 40.5785C45.5445 40.5816 45.5445 40.5847 45.5445 40.5878C45.5445 40.5909 45.5445 40.594 45.5445 40.5972C45.5445 40.6003 45.5445 40.6034 45.5445 40.6065C45.5445 40.6096 45.5445 40.6127 45.5445 40.6158C45.5445 40.6189 45.5445 40.622 45.5445 40.6251C45.5445 40.6283 45.5445 40.6314 45.5445 40.6345C45.5445 40.6376 45.5445 40.6407 45.5445 40.6438C45.5445 40.6469 45.5445 40.6501 45.5445 40.6532C45.5445 40.6563 45.5445 40.6594 45.5445 40.6625C45.5445 40.6657 45.5445 40.6688 45.5445 40.6719C45.5445 40.675 45.5445 40.6781 45.5445 40.6813C45.5445 40.6844 45.5445 40.6875 45.5445 40.6906C45.5445 40.6938 45.5445 40.6969 45.5445 40.7C45.5445 40.7031 45.5445 40.7062 45.5445 40.7094C45.5445 40.7125 45.5445 40.7156 45.5445 40.7188C45.5445 40.7219 45.5445 40.725 45.5445 40.7281C45.5445 40.7313 45.5445 40.7344 45.5445 40.7375C45.5445 40.7407 45.5445 40.7438 45.5445 40.7469C45.5445 40.7501 45.5445 40.7532 45.5445 40.7563C45.5445 40.7595 45.5445 40.7626 45.5445 40.7657C45.5445 40.7689 45.5445 40.772 45.5445 40.7751C45.5445 40.7783 45.5445 40.7814 45.5445 40.7846C45.5445 40.7877 45.5445 40.7908 45.5445 40.794C45.5445 40.7971 45.5445 40.8003 45.5445 40.8034C45.5445 40.8065 45.5445 40.8097 45.5445 40.8128C45.5445 40.816 45.5445 40.8191 45.5445 40.8223C45.5445 40.8254 45.5445 40.8286 45.5445 40.8317C45.5445 40.8348 45.5445 40.838 45.5445 40.8411C45.5445 40.8443 45.5445 40.8474 45.5445 40.8506C45.5445 40.8537 45.5445 40.8569 45.5445 40.86C45.5445 40.8632 45.5445 40.8663 45.5445 40.8695C45.5445 40.8726 45.5445 40.8758 45.5445 40.879C45.5445 40.8821 45.5445 40.8853 45.5445 40.8884C45.5445 40.8916 45.5445 40.8947 45.5445 40.8979C45.5445 40.901 45.5445 40.9042 45.5445 40.9074C45.5445 40.9105 45.5445 40.9137 45.5445 40.9168C45.5445 40.92 45.5445 40.9232 45.5445 40.9263C45.5445 40.9295 45.5445 40.9326 45.5445 40.9358C45.5445 40.939 45.5445 40.9421 45.5445 40.9453C45.5445 40.9485 45.5445 40.9516 45.5445 40.9548C45.5445 40.958 45.5445 40.9611 45.5445 40.9643C45.5445 40.9675 45.5445 40.9706 45.5445 40.9738C45.5445 40.977 45.5445 40.9801 45.5445 40.9833C45.5445 40.9865 45.5445 40.9897 45.5445 40.9928C45.5445 40.996 45.5445 40.9992 45.5445 41.0023C45.5445 41.0055 45.5445 41.0087 45.5445 41.0119C45.5445 41.015 45.5445 41.0182 45.5445 41.0214C45.5445 41.0246 45.5445 41.0278 45.5445 41.0309C45.5445 41.0341 45.5445 41.0373 45.5445 41.0405C45.5445 41.0436 45.5445 41.0468 45.5445 41.05C45.5445 41.0532 45.5445 41.0564 45.5445 41.0596C45.5445 41.0627 45.5445 41.0659 45.5445 41.0691C45.5445 41.0723 45.5445 41.0755 45.5445 41.0787C45.5445 41.0818 45.5445 41.085 45.5445 41.0882C45.5445 41.0914 45.5445 41.0946 45.5445 41.0978C45.5445 41.101 45.5445 41.1042 45.5445 41.1074C45.5445 41.1105 45.5445 41.1137 45.5445 41.1169C45.5445 41.1201 45.5445 41.1233 45.5445 41.1265C45.5445 41.1297 45.5445 41.1329 45.5445 41.1361C45.5445 41.1393 45.5445 41.1425 45.5445 41.1457C45.5445 41.1489 45.5445 41.1521 45.5445 41.1553C45.5445 41.1585 45.5445 41.1617 45.5445 41.1649C45.5445 41.1681 45.5445 41.1713 45.5445 41.1745C45.5445 41.1777 45.5445 41.1809 45.5445 41.1841C45.5445 41.1873 45.5445 41.1905 45.5445 41.1937C45.5445 41.1969 45.5445 41.2001 45.5445 41.2033C45.5445 41.2065 45.5445 41.2097 45.5445 41.2129C45.5445 41.2161 45.5445 41.2193 45.5445 41.2225C45.5445 41.2258 45.5445 41.229 45.5445 41.2322C45.5445 41.2354 45.5445 41.2386 45.5445 41.2418C45.5445 41.245 45.5445 41.2482 45.5445 41.2514C45.5445 41.2547 45.5445 41.2579 45.5445 41.2611C45.5445 41.2643 45.5445 41.2675 45.5445 41.2707C45.5445 41.274 45.5445 41.2772 45.5445 41.2804C45.5445 41.2836 45.5445 41.2868 45.5445 41.29C45.5445 41.2933 45.5445 41.2965 45.5445 41.2997C45.5445 41.3029 45.5445 41.3062 45.5445 41.3094C45.5445 41.3126 45.5445 41.3158 45.5445 41.319C45.5445 41.3223 45.5445 41.3255 45.5445 41.3287C45.5445 41.3319 45.5445 41.3352 45.5445 41.3384C45.5445 41.3416 45.5445 41.3449 45.5445 41.3481C45.5445 41.3513 45.5445 41.3545 45.5445 41.3578C45.5445 41.361 45.5445 41.3642 45.5445 41.3675C45.5445 41.3707 45.5445 41.3739 45.5445 41.3772C45.5445 41.3804 45.5445 41.3836 45.5445 41.3869C45.5445 41.3901 45.5445 41.3933 45.5445 41.3966C45.5445 41.3998 45.5445 41.403 45.5445 41.4063C45.5445 41.4095 45.5445 41.4128 45.5445 41.416C45.5445 41.4192 45.5445 41.4225 45.5445 41.4257C45.5445 41.429 45.5445 41.4322 45.5445 41.4354C45.5445 41.4387 45.5445 41.4419 45.5445 41.4452C45.5445 41.4484 45.5445 41.4517 45.5445 41.4549C45.5445 41.4582 45.5445 41.4614 45.5445 41.4646C45.5445 41.4679 45.5445 41.4711 45.5445 41.4744C45.5445 41.4776 45.5445 41.4809 45.5445 41.4841C45.5445 41.4874 45.5445 41.4906 45.5445 41.4939C45.5445 41.4971 45.5445 41.5004 45.5445 41.5036C45.5445 41.5069 45.5445 41.5102 45.5445 41.5134C45.5445 41.5167 45.5445 41.5199 45.5445 41.5232C45.5445 41.5264 45.5445 41.5297 45.5445 41.5329C45.5445 41.5362 45.5445 41.5395 45.5445 41.5427C45.5445 41.546 45.5445 41.5492 45.5445 41.5525C45.5445 41.5558 45.5445 41.559 45.5445 41.5623C45.5445 41.5656 45.5445 41.5688 45.5445 41.5721C45.5445 41.5753 45.5445 41.5786 45.5445 41.5819C45.5445 41.5851 45.5445 41.5884 45.5445 41.5917C45.5445 41.5949 45.5445 41.5982 45.5445 41.6015C45.5445 41.6047 45.5445 41.608 45.5445 41.6113C45.5445 41.6146 45.5445 41.6178 45.5445 41.6211C45.5445 41.6244 45.5445 41.6276 45.5445 41.6309C45.5445 41.6342 45.5445 41.6375 45.5445 41.6407C45.5445 41.644 45.5445 41.6473 45.5445 41.6506C45.5445 41.6538 45.5445 41.6571 45.5445 41.6604C45.5445 41.6637 45.5445 41.6669 45.5445 41.6702C45.5445 41.6735 45.5445 41.6768 45.5445 41.6801C45.5445 41.6833 45.5445 41.6866 45.5445 41.6899C45.5445 41.6932 45.5445 41.6965 45.5445 41.6998C45.5445 41.703 45.5445 41.7063 45.5445 41.7096C45.5445 41.7129 45.5445 41.7162 45.5445 41.7195C45.5445 41.7228 45.5445 41.726 45.5445 41.7293C45.5445 41.7326 45.5445 41.7359 45.5445 41.7392C45.5445 41.7425 45.5445 41.7458 45.5445 41.7491C45.5445 41.7524 45.5445 41.7557 45.5445 41.7589C45.5445 41.7622 45.5445 41.7655 45.5445 41.7688C45.5445 41.7721 45.5445 41.7754 45.5445 41.7787C45.5445 41.782 45.5445 41.7853 45.5445 41.7886C45.5445 41.7919 45.5445 41.7952 45.5445 41.7985C45.5445 41.8018 45.5445 41.8051 45.5445 41.8084C45.5445 41.8117 45.5445 41.815 45.5445 41.8183C45.5445 41.8216 45.5445 41.8249 45.5445 41.8282C45.5445 41.8315 45.5445 41.8348 45.5445 41.8381C45.5445 41.8414 45.5445 41.8447 45.5445 41.848C45.5445 41.8513 45.5445 41.8547 45.5445 41.858C45.5445 41.8613 45.5445 41.8646 45.5445 41.8679C45.5445 41.8712 45.5445 41.8745 45.5445 41.8778C45.5445 41.8811 45.5445 41.8844 45.5445 41.8878C45.5445 41.8911 45.5445 41.8944 45.5445 41.8977C45.5445 41.901 45.5445 41.9043 45.5445 41.9076C45.5445 41.911 45.5445 41.9143 45.5445 41.9176C45.5445 41.9209 45.5445 41.9242 45.5445 41.9275C45.5445 41.9309 45.5445 41.9342 45.5445 41.9375C45.5445 41.9408 45.5445 41.9441 45.5445 41.9475C45.5445 41.9508 45.5445 41.9541 45.5445 41.9574C45.5445 41.9608 45.5445 41.9641 45.5445 41.9674C45.5445 41.9707 45.5445 41.9741 45.5445 41.9774C45.5445 41.9807 45.5445 41.984 45.5445 41.9874C45.5445 41.9907 45.5445 41.994 45.5445 41.9973C45.5445 42.0007 45.5445 42.004 45.5445 42.0073C45.5445 42.0107 45.5445 42.014 45.5445 42.0173C45.5445 42.0207 45.5445 42.024 45.5445 42.0273C45.5445 42.0307 45.5445 42.034 45.5445 42.0373C45.5445 42.0407 45.5445 42.044 45.5445 42.0473C45.5445 42.0507 45.5445 42.054 45.5445 42.0574C45.5445 42.0607 45.5445 42.064 45.5445 42.0674C45.5445 42.0707 45.5445 42.0741 45.5445 42.0774C45.5445 42.0807 45.5445 42.0841 45.5445 42.0874C45.5445 42.0908 45.5445 42.0941 45.5445 42.0975C45.5445 42.1008 45.5445 42.1042 45.5445 42.1075C45.5445 42.1108 45.5445 42.1142 45.5445 42.1175C45.5445 42.1209 45.5445 42.1242 45.5445 42.1276C45.5445 42.1309 45.5445 42.1343 45.5445 42.1376C45.5445 42.141 45.5445 42.1443 45.5445 42.1477C45.5445 42.151 45.5445 42.1544 45.5445 42.1577C45.5445 42.1611 45.5445 42.1645 45.5445 42.1678C45.5445 42.1712 45.5445 42.1745 45.5445 42.1779C45.5445 42.1812 45.5445 42.1846 45.5445 42.188C45.5445 42.1913 45.5445 42.1947 45.5445 42.198C45.5445 42.2014 45.5445 42.2048 45.5445 42.2081C45.5445 42.2115 45.5445 42.2148 45.5445 42.2182C45.5445 42.2216 45.5445 42.2249 45.5445 42.2283C45.5445 42.2317 45.5445 42.235 45.5445 42.2384C45.5445 42.2418 45.5445 42.2451 45.5445 42.2485C45.5445 42.2519 45.5445 42.2552 45.5445 42.2586C45.5445 42.262 45.5445 42.2653 45.5445 42.2687C45.5445 42.2721 45.5445 42.2754 45.5445 42.2788C45.5445 42.2822 45.5445 42.2856 45.5445 42.2889C45.5445 42.2923 45.5445 42.2957 45.5445 42.2991C45.5445 42.3024 45.5445 42.3058 45.5445 42.3092C45.5445 42.3126 45.5445 42.3159 45.5445 42.3193C45.5445 42.3227 45.5445 42.3261 45.5445 42.3295C45.5445 42.3328 45.5445 42.3362 45.5445 42.3396C45.5445 42.343 45.5445 42.3464 45.5445 42.3497C45.5445 42.3531 45.5445 42.3565 45.5445 42.3599C45.5445 42.3633 45.5445 42.3667 45.5445 42.3701C45.5445 42.3734 45.5445 42.3768 45.5445 42.3802C45.5445 42.3836 45.5445 42.387 45.5445 42.3904C45.5445 42.3938 45.5445 42.3972 45.5445 42.4005C45.5445 42.4039 45.5445 42.4073 45.5445 42.4107C45.5445 42.4141 45.5445 42.4175 45.5445 42.4209C45.5445 42.4243 45.5445 42.4277 45.5445 42.4311C45.5445 42.4345 45.5445 42.4379 45.5445 42.4413C45.5445 42.4447 45.5445 42.4481 45.5445 42.4515C45.5445 42.4549 45.5445 42.4583 45.5445 42.4617C45.5445 42.4651 45.5445 42.4685 45.5445 42.4719C45.5445 42.4753 45.5445 42.4787 45.5445 42.4821C45.5445 42.4855 45.5445 42.4889 45.5445 42.4923C45.5445 42.4957 45.5445 42.4991 45.5445 42.5025C45.5445 42.5059 45.5445 42.5093 45.5445 42.5127C45.5445 42.5161 45.5445 42.5195 45.5445 42.5229C45.5445 42.5263 45.5445 42.5298 45.5445 42.5332C45.5445 42.5366 45.5445 42.54 45.5445 42.5434C45.5445 42.5468 45.5445 42.5502 45.5445 42.5536C45.5445 42.557 45.5445 42.5605 45.5445 42.5639C45.5445 42.5673 45.5445 42.5707 45.5445 42.5741C45.5445 42.5775 45.5445 42.581 45.5445 42.5844C45.5445 42.5878 45.5445 42.5912 45.5445 42.5946C45.5445 42.598 45.5445 42.6015 45.5445 42.6049C45.5445 42.6083 45.5445 42.6117 45.5445 42.6152C45.5445 42.6186 45.5445 42.622 45.5445 42.6254C45.5445 42.6289 45.5445 42.6323 45.5445 42.6357C45.5445 42.6391 45.5445 42.6426 45.5445 42.646C45.5445 42.6494 45.5445 42.6528 45.5445 42.6563C45.5445 42.6597 45.5445 42.6631 45.5445 42.6666C45.5445 42.67 45.5445 42.6734 45.5445 42.6768C45.5445 42.6803 45.5445 42.6837 45.5445 42.6871C45.5445 42.6906 45.5445 42.694 45.5445 42.6974C45.5445 42.7009 45.5445 42.7043 45.5445 42.7078C45.5445 42.7112 45.5445 42.7146 45.5445 42.7181C45.5445 42.7215 45.5445 42.7249 45.5445 42.7284C45.5445 42.7318 45.5445 42.7353 45.5445 42.7387C45.5445 42.7421 45.5445 42.7456 45.5445 42.749C45.5445 42.7525 45.5445 42.7559 45.5445 42.7594C45.5445 42.7628 45.5445 42.7662 45.5445 42.7697C45.5445 42.7731 45.5445 42.7766 45.5445 42.78C45.5445 42.7835 45.5445 42.7869 45.5445 42.7904C45.5445 42.7938 45.5445 42.7973 45.5445 42.8007C45.5445 42.8042 45.5445 42.8076 45.5445 42.8111C45.5445 42.8145 45.5445 42.818 45.5445 42.8214C45.5445 42.8249 45.5445 42.8283 45.5445 42.8318C45.5445 42.8352 45.5445 42.8387 45.5445 42.8422C45.5445 42.8456 45.5445 42.8491 45.5445 42.8525C45.5445 42.856 45.5445 42.8594 45.5445 42.8629C45.5445 42.8664 45.5445 42.8698 45.5445 42.8733C45.5445 42.8767 45.5445 42.8802 45.5445 42.8837C45.5445 42.8871 45.5445 42.8906 45.5445 42.8941C45.5445 42.8975 45.5445 42.901 45.5445 42.9044C45.5445 42.9079 45.5445 42.9114 45.5445 42.9148C45.5445 42.9183 45.5445 42.9218 45.5445 42.9252C45.5445 42.9287 45.5445 42.9322 45.5445 42.9357C45.5445 42.9391 45.5445 42.9426 45.5445 42.9461C45.5445 42.9495 45.5445 42.953 45.5445 42.9565C45.5445 42.96 45.5445 42.9634 45.5445 42.9669C45.5445 42.9704 45.5445 42.9739 45.5445 42.9773C45.5445 42.9808 45.5445 42.9843 45.5445 42.9878C45.5445 42.9912 45.5445 42.9947 45.5445 42.9982C45.5445 43.0017 45.5445 43.0052 45.5445 43.0086C45.5445 43.0121 45.5445 43.0156 45.5445 43.0191C45.5445 43.0226 45.5445 43.026 45.5445 43.0295C45.5445 43.033 45.5445 43.0365 45.5445 43.04C45.5445 43.0435 45.5445 43.0469 45.5445 43.0504C45.5445 43.0539 45.5445 43.0574 45.5445 43.0609C45.5445 43.0644 45.5445 43.0679 45.5445 43.0714C45.5445 43.0749 45.5445 43.0783 45.5445 43.0818C45.5445 43.0853 45.5445 43.0888 45.5445 43.0923C45.5445 43.0958 45.5445 43.0993 45.5445 43.1028C45.5445 43.1063 45.5445 43.1098 45.5445 43.1133C45.5445 43.1168 45.5445 43.1203 45.5445 43.1238C45.5445 43.1273 45.5445 43.1308 45.5445 43.1343C45.5445 43.1378 45.5445 43.1413 45.5445 43.1448C45.5445 43.1483 45.5445 43.1518 45.5445 43.1553C45.5445 43.1588 45.5445 43.1623 45.5445 43.1658C45.5445 43.1693 45.5445 43.1728 45.5445 43.1763C45.5445 43.1798 45.5445 43.1833 45.5445 43.1868C45.5445 43.1903 45.5445 43.1938 45.5445 43.1973C45.5445 43.2008 45.5445 43.2043 45.5445 43.2078C45.5445 43.2114 45.5445 43.2149 45.5445 43.2184C45.5445 43.2219 45.5445 43.2254 45.5445 43.2289C45.5445 43.2324 45.5445 43.2359 45.5445 43.2395C45.5445 43.243 45.5445 43.2465 45.5445 43.25H47.5445ZM47.5445 38.45L49.544 38.4976C49.5772 37.1019 49.6103 35.9261 49.6433 34.9689L47.6445 34.9L45.6457 34.8311C45.6121 35.8072 45.5785 36.9981 45.5451 38.4024L47.5445 38.45ZM47.6445 34.9L49.6437 34.9588C49.6763 33.8481 49.725 32.8808 49.7886 32.0534L47.7945 31.9L45.8004 31.7466C45.7307 32.6525 45.6794 33.6852 45.6454 34.8412L47.6445 34.9ZM47.7945 31.9L46.2468 30.6333L32.4968 47.4333L34.0445 48.7L35.5922 49.9667L49.3422 33.1667L47.7945 31.9ZM28.9445 49.3L30.4846 50.576L49.0846 28.126L47.5445 26.85L46.0044 25.574L27.4044 48.024L28.9445 49.3ZM47.5445 26.85V28.85H51.5445V26.85V24.85H47.5445V26.85ZM51.5445 26.85H49.5445V48.5H51.5445H53.5445V26.85H51.5445ZM51.5445 48.5V50.5H55.0445V48.5V46.5H51.5445V48.5ZM55.0445 48.5H53.0445V52H55.0445H57.0445V48.5H55.0445ZM55.0445 52V50H51.5445V52V54H55.0445V52ZM51.5445 52H49.5445V61.75H51.5445H53.5445V52H51.5445ZM51.5445 61.75V59.75H47.5445V61.75V63.75H51.5445V61.75ZM47.5445 61.75H49.5445V52H47.5445H45.5445V61.75H47.5445ZM47.5445 52V50H29.1945V52V54H47.5445V52ZM29.1945 52L31.186 51.8156L30.936 49.1156L28.9445 49.3L26.953 49.4844L27.203 52.1844L29.1945 52Z" fill="black" mask="url(#path-2-outside-1_23_1320)"/>
</svg>
